<svg width="290" height="37" viewBox="0 0 290 37" fill="none" xmlns="http://www.w3.org/2000/svg">
<path fill-rule="evenodd" clip-rule="evenodd" d="M289.417 20.4326H65.3076L65.293 23.3515H289.417V20.4326Z" fill="#FFED00"/>
<path fill-rule="evenodd" clip-rule="evenodd" d="M281.042 10.4449L283.136 10.4474C283.474 10.4478 283.822 10.4513 284.156 10.5096C284.393 10.5511 284.649 10.6276 284.823 10.7979C285.231 11.1986 285.007 12.006 284.849 12.4753C284.602 13.2142 284.182 13.9132 283.445 14.2777C282.984 14.5055 282.517 14.5532 282.008 14.5525L279.668 14.5497L281.042 10.4449ZM284.314 0.666491L280.407 0.661765L274.581 18.071L281.549 18.0794C285.544 18.0843 287.731 16.3025 288.942 12.6828C289.359 11.4391 289.703 9.78493 289.051 8.5662C288.33 7.21947 286.675 6.92416 285.248 6.9225L282.221 6.91875L284.314 0.666491ZM149.695 17.9205L152.488 17.9238C154.577 14.5772 156.665 11.2306 158.754 7.88401C158.821 7.78159 158.937 7.85441 158.904 7.95016L155.565 17.9274L159.471 17.9321L165.297 0.522938L160.058 0.516546L153.224 11.5035L153.747 0.508902L148.523 0.502649L142.697 17.912L146.603 17.9167C147.786 14.3828 148.968 10.8489 150.151 7.31494C150.158 7.29048 150.177 7.2966 150.176 7.31063L149.695 17.9205ZM168.935 11.6087L172.461 5.68444C172.472 5.66221 172.488 5.66735 172.488 5.68444L172.047 11.6125L168.935 11.6087ZM171.629 17.9469L175.707 17.9517L176.137 0.536003L172.228 0.531277L161.006 17.9341L165.115 17.9389L167.11 14.7155L171.793 14.721L171.629 17.9469ZM191.955 4.08257L193.135 0.556431L183.075 0.544339L177.248 17.9537L181.155 17.9584L185.801 4.07507L191.955 4.08257ZM198.756 0.56324L194.849 0.558514L189.023 17.9679L192.882 17.9724L201.627 7.27103C201.63 7.26686 201.635 7.26783 201.634 7.27144L198.051 17.9787L201.957 17.9834L207.783 0.57408L203.925 0.569493L195.317 11.0327C195.278 11.0748 195.238 11.0695 195.257 11.017L198.756 0.56324ZM215.788 11.7392L215.764 11.7923C215.421 12.5422 214.99 13.3251 214.409 13.9281C213.993 14.3599 213.512 14.681 212.921 14.8411C212.603 14.927 212.275 14.9609 211.946 14.9605C211.227 14.9596 210.584 14.7448 210.224 14.1031C209.953 13.619 209.904 13.0055 209.928 12.4641C209.947 12.0276 210.014 11.5926 210.105 11.1649C210.225 10.5966 210.388 10.037 210.572 9.48546C211.132 7.81161 212.026 5.69681 213.41 4.51073C214.072 3.94277 214.805 3.61759 215.699 3.6187C216.16 3.61926 216.703 3.67484 217.073 3.96598C217.353 4.18596 217.483 4.49947 217.537 4.83661C217.583 5.12747 217.574 5.43222 217.542 5.72419C217.512 5.99045 217.462 6.25518 217.402 6.51658L217.377 6.62497L221.196 6.62956L221.216 6.56661C221.39 6.02297 221.52 5.46057 221.586 4.89497C221.628 4.53144 221.644 4.16345 221.623 3.79797C221.603 3.44319 221.548 3.0891 221.444 2.7478C220.806 0.641339 218.701 0.094781 216.667 0.0922796C211.023 0.0854702 207.933 4.93277 206.38 9.57329C206.091 10.4385 205.843 11.3209 205.683 12.2175C205.558 12.9211 205.484 13.6428 205.518 14.3571C205.569 15.4255 205.868 16.4738 206.671 17.2459C207.705 18.2409 209.274 18.4848 210.673 18.4865C215.314 18.492 217.916 15.7854 219.62 11.8675L219.674 11.7438L215.788 11.7392ZM222.655 18.0084L226.562 18.0132L231.208 4.12982L235.531 4.1351L236.711 0.608961L224.158 0.593812L222.978 4.11996L227.301 4.1251L222.655 18.0084ZM251.515 11.7177L255.064 5.75351C255.066 5.75004 255.07 5.75087 255.07 5.75504L254.627 11.7214L251.515 11.7177ZM258.371 18.0651L258.718 0.644812L254.808 0.640089L243.586 18.0429L247.695 18.0479L249.69 14.8243L254.373 14.83L254.209 18.0558L258.371 18.0651ZM241.205 4.14191L243.579 4.14483C243.955 4.14525 244.388 4.13816 244.726 4.31951C244.966 4.4482 245.1 4.64775 245.156 4.9047C245.248 5.33119 245.116 5.86246 244.98 6.27088C244.493 7.72392 243.692 8.57148 242.038 8.56953L239.724 8.56675L241.205 4.14191ZM238.478 0.611183L232.652 18.0204L236.558 18.0251L238.544 12.0928L241.503 12.0964C242.853 12.098 244.137 11.8689 245.33 11.2342C247.297 10.1879 248.456 8.32217 249.13 6.30604C249.614 4.86176 250.01 2.85258 248.772 1.64746C247.911 0.809489 246.527 0.620912 245.361 0.619383L238.478 0.611183ZM75.0352 17.8303L78.9416 17.835L83.5878 3.9518L87.9108 3.95709L89.0909 0.430943L76.5381 0.415795L75.3581 3.94194L79.6813 3.94708L75.0352 17.8303ZM93.9669 3.96431L96.3411 3.96723C96.7171 3.96765 97.1504 3.96056 97.4884 4.14191C97.728 4.2706 97.8621 4.47015 97.918 4.7271C98.0107 5.15359 97.8784 5.68486 97.7418 6.09328C97.2556 7.54632 96.4544 8.39388 94.8009 8.39193L92.486 8.38915L93.9669 3.96431ZM91.2404 0.433583L85.4142 17.8429L89.3207 17.8477L91.306 11.9152L94.2651 11.9188C95.6157 11.9204 96.8997 11.6913 98.0927 11.0566C100.059 10.0103 101.218 8.14457 101.893 6.12844C102.376 4.68416 102.772 2.67498 101.534 1.46986C100.673 0.631889 99.2895 0.443312 98.1228 0.441922L91.2404 0.433583ZM104.437 11.5311L107.888 5.73183C107.931 5.65609 107.982 5.64734 107.98 5.73906L107.549 11.5348L104.437 11.5311ZM107.131 17.8691L111.209 17.8739L111.639 0.45818L107.73 0.453454L96.5082 17.8563L100.617 17.8613L102.612 14.6377L107.295 14.6434L107.131 17.8691ZM121.263 17.8861L125.17 17.8909L130.996 0.481526L127.089 0.476803L124.923 6.95071L120.31 6.94515L122.477 0.471242L118.57 0.46652L112.744 17.8759L116.65 17.8806L119.13 10.4712L123.743 10.4769L121.263 17.8861ZM139.201 11.6468L139.177 11.6999C138.834 12.4498 138.403 13.2328 137.822 13.8357C137.406 14.2674 136.925 14.5887 136.334 14.7487C136.016 14.8346 135.688 14.8685 135.359 14.8681C134.64 14.8672 133.997 14.6524 133.637 14.0106C133.366 13.5268 133.317 12.9131 133.341 12.3718C133.36 11.9352 133.427 11.5002 133.518 11.0725C133.638 10.5042 133.801 9.94461 133.985 9.39305C134.545 7.71919 135.439 5.6044 136.823 4.41832C137.485 3.8505 138.218 3.52518 139.112 3.52629C139.573 3.52685 140.116 3.58243 140.486 3.87371C140.766 4.09369 140.896 4.40706 140.95 4.74419C140.996 5.03505 140.987 5.33994 140.955 5.63178C140.925 5.89817 140.875 6.16277 140.815 6.42416L140.79 6.5327L144.609 6.53728L144.629 6.47419C144.803 5.93069 144.933 5.36816 144.999 4.8027C145.041 4.43902 145.057 4.07104 145.036 3.70556C145.016 3.35091 144.96 2.99669 144.857 2.65539C144.219 0.549066 142.114 0.0023696 140.08 7.16612e-06C134.436 -0.00680221 131.346 4.84036 129.793 9.48102C129.504 10.3461 129.256 11.2285 129.096 12.1253C128.971 12.8287 128.897 13.5504 128.931 14.2647C128.982 15.3332 129.281 16.3816 130.084 17.1537C131.118 18.1485 132.687 18.3924 134.086 18.3941C138.727 18.3996 141.329 15.6931 143.033 11.7752L143.087 11.6515L139.201 11.6468ZM270.69 0.54573L277.783 0.554205L271.897 18.0664L267.797 18.0614C269.134 14.0878 270.47 10.1141 271.807 6.14053C271.836 6.0527 271.708 6.07216 271.673 6.13942L264.129 18.0615L259.62 18.0667L270.69 0.54573Z" fill="#E31E24"/>
<path fill-rule="evenodd" clip-rule="evenodd" d="M18.5446 29.1003C13.3026 27.4188 9.75 22.6601 9.75 17.2962C9.75 10.4301 15.4943 4.86426 22.5798 4.86426C25.2471 4.86426 27.8163 5.67389 30.0017 7.15551L31.0752 7.88353C29.4391 9.1274 28.3587 10.333 27.7913 11.5267C24.9911 16.8627 31.4713 18.5554 33.1368 23.2197C28.9266 26.1656 23.7188 27.6756 18.8234 29.1886L18.5446 29.1003Z" fill="#FFED00"/>
<path fill-rule="evenodd" clip-rule="evenodd" d="M25.9958 11.856C25.2401 15.7661 31.215 18.8505 32.2518 22.3307C26.5094 26.7113 6.60965 32.1598 1.01301 32.3631L0.00390625 32.3923V36H71.1388C71.0765 32.3166 70.5065 29.2232 69.7759 26.5607C68.9203 23.4407 66.3441 20.4856 62.5701 18.7985C53.7207 14.8429 42.3187 14.532 39.095 9.91069C40.4855 5.95056 62.4282 3.41413 67.219 4.20645L67.55 0.405321C52.951 -0.958324 27.3293 0.703733 25.9958 11.856ZM17.5927 32.4793H67.3513C67.1458 30.801 66.8151 29.1434 66.3608 27.4872C65.6746 24.986 63.4228 23.0395 61.1188 22.0097C59.7228 21.3856 58.2751 20.8699 56.816 20.4133C53.0995 19.2499 49.2822 18.4816 45.5538 17.379C42.1532 16.3733 38.2906 14.934 36.1864 11.9175C35.1627 10.5249 35.6037 9.16474 35.7529 8.75002C36.0422 7.92648 36.5367 7.22753 37.158 6.62991C37.4584 6.33931 37.2597 6.2238 36.7994 6.38137C32.781 7.96998 30.7214 9.75408 29.915 11.4059C29.5236 12.3479 29.5905 12.8269 29.9271 13.4826C30.3533 14.3126 31.3077 15.1486 31.6485 15.5158C32.6547 16.6002 33.6228 17.7618 34.5143 18.9513C36.8813 22.1093 36.4606 23.4409 34.4064 25.1243C32.42 26.6395 29.8004 27.842 27.4972 28.8021C24.5833 30.0168 21.5661 31.056 18.5509 31.9925C18.2212 32.0948 17.891 32.1962 17.5604 32.2964C17.4513 32.3255 17.4306 32.4901 17.5927 32.4793Z" fill="#393185"/>
<path d="M75.5508 27.7329V26.8955H81.3975V27.7329H78.9461V34.6911H78.0021V27.7329H75.5508Z" fill="#393185"/>
<path d="M82.1255 36.8836V28.8444H82.9933V29.7732H83.0999C83.1659 29.6717 83.2572 29.5423 83.374 29.3849C83.4932 29.225 83.6633 29.0829 83.884 28.9586C84.1073 28.8317 84.4093 28.7683 84.79 28.7683C85.2823 28.7683 85.7162 28.8914 86.0918 29.1375C86.4673 29.3837 86.7604 29.7326 86.9711 30.1843C87.1817 30.636 87.287 31.1689 87.287 31.783C87.287 32.4022 87.1817 32.9389 86.9711 33.3931C86.7604 33.8448 86.4686 34.195 86.0956 34.4437C85.7225 34.6898 85.2924 34.8129 84.8052 34.8129C84.4296 34.8129 84.1289 34.7507 83.9031 34.6264C83.6772 34.4995 83.5034 34.3561 83.3816 34.1963C83.2598 34.0339 83.1659 33.8994 83.0999 33.7928H83.0238V36.8836H82.1255ZM83.0085 31.7678C83.0085 32.2093 83.0733 32.5988 83.2027 32.9363C83.3321 33.2713 83.5211 33.5339 83.7698 33.7243C84.0185 33.912 84.323 34.0059 84.6834 34.0059C85.0589 34.0059 85.3723 33.907 85.6236 33.709C85.8773 33.5086 86.0677 33.2396 86.1945 32.9021C86.324 32.562 86.3887 32.1839 86.3887 31.7678C86.3887 31.3567 86.3252 30.9862 86.1983 30.6563C86.074 30.3238 85.8849 30.0612 85.6312 29.8683C85.38 29.6729 85.064 29.5752 84.6834 29.5752C84.318 29.5752 84.0109 29.6679 83.7622 29.8531C83.5135 30.0358 83.3258 30.2921 83.1989 30.622C83.072 30.9494 83.0085 31.3313 83.0085 31.7678Z" fill="#393185"/>
<path d="M90.3778 34.8281C90.0073 34.8281 89.6711 34.7583 89.3691 34.6188C89.0671 34.4767 88.8273 34.2724 88.6497 34.0059C88.4721 33.7369 88.3832 33.4121 88.3832 33.0315C88.3832 32.6965 88.4492 32.425 88.5812 32.2169C88.7131 32.0063 88.8895 31.8413 89.1103 31.7221C89.331 31.6028 89.5747 31.514 89.8411 31.4556C90.1101 31.3947 90.3804 31.3465 90.6519 31.311C91.0071 31.2653 91.2952 31.231 91.5159 31.2082C91.7393 31.1828 91.9017 31.141 92.0032 31.0826C92.1072 31.0242 92.1592 30.9227 92.1592 30.7781V30.7476C92.1592 30.3721 92.0565 30.0802 91.8509 29.8721C91.6479 29.6641 91.3396 29.56 90.9259 29.56C90.4971 29.56 90.1608 29.6539 89.9172 29.8417C89.6736 30.0295 89.5023 30.2299 89.4034 30.4431L88.5507 30.1386C88.703 29.7833 88.906 29.5067 89.1598 29.3088C89.4161 29.1083 89.6952 28.9687 89.9972 28.8901C90.3017 28.8089 90.6011 28.7683 90.8955 28.7683C91.0833 28.7683 91.299 28.7911 91.5426 28.8368C91.7887 28.8799 92.026 28.97 92.2544 29.107C92.4853 29.2441 92.6769 29.4509 92.8292 29.7275C92.9814 30.0041 93.0575 30.3746 93.0575 30.839V34.6911H92.1592V33.8994H92.1136C92.0526 34.0262 91.9511 34.162 91.809 34.3066C91.6669 34.4513 91.4779 34.5744 91.2419 34.6759C91.0059 34.7774 90.7179 34.8281 90.3778 34.8281ZM90.5148 34.0212C90.8701 34.0212 91.1696 33.9514 91.4132 33.8118C91.6593 33.6722 91.8446 33.4921 91.9689 33.2713C92.0958 33.0505 92.1592 32.8183 92.1592 32.5747V31.7525C92.1212 31.7982 92.0374 31.8401 91.908 31.8781C91.7811 31.9137 91.6339 31.9454 91.4665 31.9733C91.3015 31.9987 91.1404 32.0215 90.983 32.0418C90.8282 32.0596 90.7026 32.0748 90.6062 32.0875C90.3727 32.1179 90.1545 32.1674 89.9515 32.2359C89.751 32.3019 89.5886 32.4022 89.4643 32.5367C89.3425 32.6686 89.2816 32.8488 89.2816 33.0772C89.2816 33.3893 89.397 33.6253 89.6279 33.7852C89.8614 33.9425 90.157 34.0212 90.5148 34.0212Z" fill="#393185"/>
<path d="M98.6102 31.3567V32.1941H95.3823V31.3567H98.6102ZM95.5955 28.8444V34.6911H94.6972V28.8444H95.5955ZM99.2954 28.8444V34.6911H98.397V28.8444H99.2954Z" fill="#393185"/>
<path d="M103.311 34.8129C102.763 34.8129 102.291 34.6835 101.895 34.4246C101.499 34.1658 101.195 33.8093 100.982 33.355C100.768 32.9008 100.662 32.3819 100.662 31.7982C100.662 31.2044 100.771 30.6804 100.989 30.2261C101.21 29.7694 101.517 29.4128 101.91 29.1565C102.306 28.8977 102.768 28.7683 103.296 28.7683C103.707 28.7683 104.078 28.8444 104.407 28.9967C104.737 29.1489 105.008 29.3621 105.218 29.6361C105.429 29.9102 105.559 30.2299 105.61 30.5954H104.712C104.643 30.3289 104.491 30.0929 104.255 29.8874C104.022 29.6793 103.707 29.5752 103.311 29.5752C102.961 29.5752 102.654 29.6666 102.39 29.8493C102.129 30.0295 101.924 30.2845 101.777 30.6144C101.633 30.9418 101.56 31.3262 101.56 31.7678C101.56 32.2194 101.631 32.6128 101.773 32.9477C101.918 33.2827 102.121 33.5428 102.382 33.7281C102.646 33.9133 102.956 34.0059 103.311 34.0059C103.545 34.0059 103.756 33.9653 103.947 33.8841C104.137 33.8029 104.298 33.6862 104.43 33.5339C104.562 33.3817 104.656 33.199 104.712 32.9858H105.61C105.559 33.3309 105.434 33.6418 105.233 33.9184C105.035 34.1925 104.773 34.4107 104.445 34.5731C104.121 34.733 103.743 34.8129 103.311 34.8129Z" fill="#393185"/>
<path d="M106.923 34.6911V28.8444H111.522V34.6911H110.623V29.6818H107.822V34.6911H106.923Z" fill="#393185"/>
<path d="M115.537 34.8129C115.01 34.8129 114.546 34.6873 114.148 34.4361C113.752 34.1848 113.443 33.8334 113.219 33.3817C112.999 32.93 112.888 32.4022 112.888 31.7982C112.888 31.1892 112.999 30.6575 113.219 30.2033C113.443 29.7491 113.752 29.3963 114.148 29.1451C114.546 28.8939 115.01 28.7683 115.537 28.7683C116.065 28.7683 116.527 28.8939 116.923 29.1451C117.321 29.3963 117.631 29.7491 117.852 30.2033C118.075 30.6575 118.187 31.1892 118.187 31.7982C118.187 32.4022 118.075 32.93 117.852 33.3817C117.631 33.8334 117.321 34.1848 116.923 34.4361C116.527 34.6873 116.065 34.8129 115.537 34.8129ZM115.537 34.0059C115.938 34.0059 116.268 33.9032 116.527 33.6976C116.786 33.4921 116.978 33.2218 117.102 32.8868C117.226 32.5519 117.288 32.189 117.288 31.7982C117.288 31.4074 117.226 31.0433 117.102 30.7058C116.978 30.3682 116.786 30.0955 116.527 29.8874C116.268 29.6793 115.938 29.5752 115.537 29.5752C115.136 29.5752 114.807 29.6793 114.548 29.8874C114.289 30.0955 114.097 30.3682 113.973 30.7058C113.849 31.0433 113.786 31.4074 113.786 31.7982C113.786 32.189 113.849 32.5519 113.973 32.8868C114.097 33.2218 114.289 33.4921 114.548 33.6976C114.807 33.9032 115.136 34.0059 115.537 34.0059Z" fill="#393185"/>
<path d="M119.558 36.8836V28.8444H120.426V29.7732H120.532C120.598 29.6717 120.69 29.5423 120.806 29.3849C120.926 29.225 121.096 29.0829 121.317 28.9586C121.54 28.8317 121.842 28.7683 122.222 28.7683C122.715 28.7683 123.149 28.8914 123.524 29.1375C123.9 29.3837 124.193 29.7326 124.404 30.1843C124.614 30.636 124.72 31.1689 124.72 31.783C124.72 32.4022 124.614 32.9389 124.404 33.3931C124.193 33.8448 123.901 34.195 123.528 34.4437C123.155 34.6898 122.725 34.8129 122.238 34.8129C121.862 34.8129 121.561 34.7507 121.336 34.6264C121.11 34.4995 120.936 34.3561 120.814 34.1963C120.692 34.0339 120.598 33.8994 120.532 33.7928H120.456V36.8836H119.558ZM120.441 31.7678C120.441 32.2093 120.506 32.5988 120.635 32.9363C120.765 33.2713 120.954 33.5339 121.202 33.7243C121.451 33.912 121.756 34.0059 122.116 34.0059C122.491 34.0059 122.805 33.907 123.056 33.709C123.31 33.5086 123.5 33.2396 123.627 32.9021C123.756 32.562 123.821 32.1839 123.821 31.7678C123.821 31.3567 123.758 30.9862 123.631 30.6563C123.507 30.3238 123.317 30.0612 123.064 29.8683C122.812 29.6729 122.497 29.5752 122.116 29.5752C121.75 29.5752 121.443 29.6679 121.195 29.8531C120.946 30.0358 120.758 30.2921 120.631 30.622C120.505 30.9494 120.441 31.3313 120.441 31.7678Z" fill="#393185"/>
<path d="M125.326 29.6818V28.8444H130.076V29.6818H128.158V34.6911H127.259V29.6818H125.326Z" fill="#393185"/>
<path d="M135.3 31.3567V32.1941H132.072V31.3567H135.3ZM132.285 28.8444V34.6911H131.386V28.8444H132.285ZM135.985 28.8444V34.6911H135.086V28.8444H135.985Z" fill="#393185"/>
<path d="M140 34.8129C139.473 34.8129 139.01 34.6873 138.611 34.4361C138.215 34.1848 137.906 33.8334 137.682 33.3817C137.462 32.93 137.351 32.4022 137.351 31.7982C137.351 31.1892 137.462 30.6575 137.682 30.2033C137.906 29.7491 138.215 29.3963 138.611 29.1451C139.01 28.8939 139.473 28.7683 140 28.7683C140.528 28.7683 140.99 28.8939 141.386 29.1451C141.784 29.3963 142.094 29.7491 142.315 30.2033C142.538 30.6575 142.65 31.1892 142.65 31.7982C142.65 32.4022 142.538 32.93 142.315 33.3817C142.094 33.8334 141.784 34.1848 141.386 34.4361C140.99 34.6873 140.528 34.8129 140 34.8129ZM140 34.0059C140.401 34.0059 140.731 33.9032 140.99 33.6976C141.249 33.4921 141.441 33.2218 141.565 32.8868C141.689 32.5519 141.751 32.189 141.751 31.7982C141.751 31.4074 141.689 31.0433 141.565 30.7058C141.441 30.3682 141.249 30.0955 140.99 29.8874C140.731 29.6793 140.401 29.5752 140 29.5752C139.6 29.5752 139.27 29.6793 139.011 29.8874C138.752 30.0955 138.56 30.3682 138.436 30.7058C138.312 31.0433 138.249 31.4074 138.249 31.7982C138.249 32.189 138.312 32.5519 138.436 32.8868C138.56 33.2218 138.752 33.4921 139.011 33.6976C139.27 33.9032 139.6 34.0059 140 34.0059Z" fill="#393185"/>
<path d="M147.371 30.9303V31.7678H143.96V30.9303H147.371Z" fill="#393185"/>
<path d="M150.885 29.6057C150.682 29.6082 150.478 29.6603 150.272 29.7618C150.069 29.8633 149.899 29.9978 149.762 30.1652C149.628 30.3302 149.56 30.5142 149.56 30.7172H148.677C148.677 30.4634 148.738 30.2198 148.86 29.9863C148.982 29.7529 149.145 29.5448 149.351 29.3621C149.559 29.1794 149.795 29.0347 150.059 28.9281C150.325 28.8216 150.601 28.7683 150.885 28.7683C151.418 28.7683 151.87 28.9028 152.24 29.1718C152.613 29.4407 152.896 29.796 153.089 30.2376C153.284 30.6791 153.382 31.1587 153.382 31.6764V31.8896C153.382 32.4047 153.284 32.8843 153.089 33.3284C152.896 33.7699 152.613 34.1252 152.24 34.3942C151.87 34.6632 151.418 34.7977 150.885 34.7977C150.459 34.7977 150.079 34.7038 149.747 34.516C149.414 34.3257 149.153 34.0719 148.963 33.7547C148.772 33.4375 148.677 33.0848 148.677 32.6965H149.56C149.56 32.9173 149.623 33.1241 149.747 33.317C149.874 33.5073 150.037 33.6621 150.238 33.7814C150.441 33.8981 150.657 33.9577 150.885 33.9603C151.225 33.9577 151.514 33.8511 151.753 33.6405C151.991 33.4299 152.173 33.166 152.297 32.8488C152.422 32.5316 152.484 32.2118 152.484 31.8896V31.6764C152.484 31.3465 152.422 31.0242 152.297 30.7096C152.175 30.3924 151.995 30.1297 151.757 29.9216C151.521 29.7135 151.23 29.6082 150.885 29.6057ZM152.849 31.3262V32.1636H150.291V31.3262H152.849Z" fill="#393185"/>
<path d="M154.75 34.6911V28.8444H155.649V31.3871H156.243L158.344 28.8444H159.501L157.141 31.6612L159.531 34.6911H158.374L156.456 32.2245H155.649V34.6911H154.75Z" fill="#393185"/>
<path d="M162.642 34.8129C162.094 34.8129 161.622 34.6835 161.226 34.4246C160.83 34.1658 160.526 33.8093 160.313 33.355C160.099 32.9008 159.993 32.3819 159.993 31.7982C159.993 31.2044 160.102 30.6804 160.32 30.2261C160.541 29.7694 160.848 29.4128 161.241 29.1565C161.637 28.8977 162.099 28.7683 162.627 28.7683C163.038 28.7683 163.408 28.8444 163.738 28.9967C164.068 29.1489 164.339 29.3621 164.549 29.6361C164.76 29.9102 164.89 30.2299 164.941 30.5954H164.043C163.974 30.3289 163.822 30.0929 163.586 29.8874C163.353 29.6793 163.038 29.5752 162.642 29.5752C162.292 29.5752 161.985 29.6666 161.721 29.8493C161.46 30.0295 161.255 30.2845 161.108 30.6144C160.963 30.9418 160.891 31.3262 160.891 31.7678C160.891 32.2194 160.962 32.6128 161.104 32.9477C161.249 33.2827 161.452 33.5428 161.713 33.7281C161.977 33.9133 162.287 34.0059 162.642 34.0059C162.876 34.0059 163.087 33.9653 163.278 33.8841C163.468 33.8029 163.629 33.6862 163.761 33.5339C163.893 33.3817 163.987 33.199 164.043 32.9858H164.941C164.89 33.3309 164.765 33.6418 164.564 33.9184C164.366 34.1925 164.104 34.4107 163.776 34.5731C163.452 34.733 163.074 34.8129 162.642 34.8129Z" fill="#393185"/>
<path d="M166.254 34.6911V28.8444H170.853V34.6911H169.954V29.6818H167.153V34.6911H166.254Z" fill="#393185"/>
<path d="M174.945 34.8129C174.381 34.8129 173.895 34.6886 173.487 34.4399C173.081 34.1886 172.767 33.8385 172.546 33.3893C172.328 32.9376 172.219 32.4123 172.219 31.8134C172.219 31.2145 172.328 30.6867 172.546 30.2299C172.767 29.7706 173.074 29.4128 173.468 29.1565C173.863 28.8977 174.325 28.7683 174.853 28.7683C175.158 28.7683 175.458 28.819 175.755 28.9205C176.052 29.022 176.322 29.187 176.566 29.4154C176.81 29.6412 177.004 29.9407 177.148 30.3137C177.293 30.6867 177.365 31.146 177.365 31.6916V32.0723H172.859V31.2958H176.452C176.452 30.9659 176.386 30.6715 176.254 30.4127C176.125 30.1538 175.939 29.9495 175.698 29.7998C175.46 29.6501 175.178 29.5752 174.853 29.5752C174.495 29.5752 174.186 29.6641 173.924 29.8417C173.666 30.0168 173.466 30.2452 173.327 30.5269C173.187 30.8085 173.117 31.1105 173.117 31.4328V31.9505C173.117 32.392 173.194 32.7663 173.346 33.0734C173.501 33.3779 173.715 33.6101 173.989 33.7699C174.263 33.9273 174.582 34.0059 174.945 34.0059C175.181 34.0059 175.394 33.9729 175.584 33.907C175.777 33.8385 175.943 33.7369 176.083 33.6025C176.222 33.4654 176.33 33.2954 176.406 33.0924L177.274 33.336C177.183 33.6304 177.029 33.8892 176.813 34.1125C176.598 34.3333 176.331 34.5058 176.014 34.6302C175.697 34.752 175.34 34.8129 174.945 34.8129Z" fill="#393185"/>
<path d="M178.108 36.3659V33.8537H178.595C178.714 33.7293 178.817 33.5948 178.903 33.4502C178.989 33.3056 179.064 33.1343 179.128 32.9363C179.194 32.7359 179.25 32.4922 179.295 32.2055C179.341 31.9162 179.382 31.5673 179.417 31.1587L179.615 28.8444H183.33V33.8537H184.228V36.3659H183.33V34.6911H179.006V36.3659H178.108ZM179.615 33.8537H182.432V29.6818H180.452L180.3 31.1587C180.237 31.7703 180.158 32.3045 180.064 32.7612C179.97 33.218 179.821 33.5822 179.615 33.8537Z" fill="#393185"/>
<path d="M186.319 33.3665L189.136 28.8444H190.171V34.6911H189.273V30.169L186.471 34.6911H185.421V28.8444H186.319V33.3665Z" fill="#393185"/>
<path d="M196.415 28.8444V33.8537H197.237V36.5791H196.339V34.6911H191.817V28.8444H192.715V33.8537H195.516V28.8444H196.415Z" fill="#393185"/>
<path d="M199.519 33.3665L202.336 28.8444H203.371V34.6911H202.473V30.169L199.671 34.6911H198.621V28.8444H199.519V33.3665Z" fill="#393185"/>
<path d="M207.392 34.8129C206.864 34.8129 206.401 34.6873 206.002 34.4361C205.606 34.1848 205.297 33.8334 205.073 33.3817C204.853 32.93 204.742 32.4022 204.742 31.7982C204.742 31.1892 204.853 30.6575 205.073 30.2033C205.297 29.7491 205.606 29.3963 206.002 29.1451C206.401 28.8939 206.864 28.7683 207.392 28.7683C207.919 28.7683 208.381 28.8939 208.777 29.1451C209.176 29.3963 209.485 29.7491 209.706 30.2033C209.929 30.6575 210.041 31.1892 210.041 31.7982C210.041 32.4022 209.929 32.93 209.706 33.3817C209.485 33.8334 209.176 34.1848 208.777 34.4361C208.381 34.6873 207.919 34.8129 207.392 34.8129ZM207.392 34.0059C207.793 34.0059 208.122 33.9032 208.381 33.6976C208.64 33.4921 208.832 33.2218 208.956 32.8868C209.08 32.5519 209.143 32.189 209.143 31.7982C209.143 31.4074 209.08 31.0433 208.956 30.7058C208.832 30.3682 208.64 30.0955 208.381 29.8874C208.122 29.6793 207.793 29.5752 207.392 29.5752C206.991 29.5752 206.661 29.6793 206.402 29.8874C206.143 30.0955 205.951 30.3682 205.827 30.7058C205.703 31.0433 205.641 31.4074 205.641 31.7982C205.641 32.189 205.703 32.5519 205.827 32.8868C205.951 33.2218 206.143 33.4921 206.402 33.6976C206.661 33.9032 206.991 34.0059 207.392 34.0059Z" fill="#393185"/>
<path d="M215.325 31.3567V32.1941H212.097V31.3567H215.325ZM212.31 28.8444V34.6911H211.412V28.8444H212.31ZM216.01 28.8444V34.6911H215.112V28.8444H216.01Z" fill="#393185"/>
<path d="M221.564 31.3567V32.1941H218.336V31.3567H221.564ZM218.549 28.8444V34.6911H217.651V28.8444H218.549ZM222.249 28.8444V34.6911H221.351V28.8444H222.249Z" fill="#393185"/>
<path d="M225.61 34.8281C225.24 34.8281 224.903 34.7583 224.601 34.6188C224.299 34.4767 224.06 34.2724 223.882 34.0059C223.704 33.7369 223.616 33.4121 223.616 33.0315C223.616 32.6965 223.682 32.425 223.813 32.2169C223.945 32.0063 224.122 31.8413 224.343 31.7221C224.563 31.6028 224.807 31.514 225.073 31.4556C225.342 31.3947 225.613 31.3465 225.884 31.311C226.239 31.2653 226.527 31.231 226.748 31.2082C226.972 31.1828 227.134 31.141 227.235 31.0826C227.34 31.0242 227.392 30.9227 227.392 30.7781V30.7476C227.392 30.3721 227.289 30.0802 227.083 29.8721C226.88 29.6641 226.572 29.56 226.158 29.56C225.729 29.56 225.393 29.6539 225.15 29.8417C224.906 30.0295 224.735 30.2299 224.636 30.4431L223.783 30.1386C223.935 29.7833 224.138 29.5067 224.392 29.3088C224.648 29.1083 224.928 28.9687 225.229 28.8901C225.534 28.8089 225.833 28.7683 226.128 28.7683C226.316 28.7683 226.531 28.7911 226.775 28.8368C227.021 28.8799 227.258 28.97 227.487 29.107C227.718 29.2441 227.909 29.4509 228.061 29.7275C228.214 30.0041 228.29 30.3746 228.29 30.839V34.6911H227.392V33.8994H227.346C227.285 34.0262 227.183 34.162 227.041 34.3066C226.899 34.4513 226.71 34.5744 226.474 34.6759C226.238 34.7774 225.95 34.8281 225.61 34.8281ZM225.747 34.0212C226.102 34.0212 226.402 33.9514 226.645 33.8118C226.892 33.6722 227.077 33.4921 227.201 33.2713C227.328 33.0505 227.392 32.8183 227.392 32.5747V31.7525C227.353 31.7982 227.27 31.8401 227.14 31.8781C227.013 31.9137 226.866 31.9454 226.699 31.9733C226.534 31.9987 226.373 32.0215 226.215 32.0418C226.061 32.0596 225.935 32.0748 225.839 32.0875C225.605 32.1179 225.387 32.1674 225.184 32.2359C224.983 32.3019 224.821 32.4022 224.697 32.5367C224.575 32.6686 224.514 32.8488 224.514 33.0772C224.514 33.3893 224.629 33.6253 224.86 33.7852C225.094 33.9425 225.389 34.0212 225.747 34.0212Z" fill="#393185"/>
<path d="M233.447 34.6911V29.6666H231.894C231.543 29.6666 231.268 29.7478 231.068 29.9102C230.867 30.0726 230.767 30.2959 230.767 30.5801C230.767 30.8593 230.857 31.0788 231.037 31.2387C231.22 31.3985 231.47 31.4785 231.787 31.4785H233.675V32.3159H231.787C231.391 32.3159 231.05 32.2461 230.763 32.1065C230.476 31.967 230.256 31.7678 230.101 31.5089C229.946 31.2475 229.869 30.9379 229.869 30.5801C229.869 30.2198 229.95 29.9102 230.112 29.6514C230.275 29.3925 230.507 29.1933 230.809 29.0538C231.113 28.9142 231.475 28.8444 231.894 28.8444H234.299V34.6911H233.447ZM229.549 34.6911L231.208 31.783H232.183L230.523 34.6911H229.549Z" fill="#393185"/>
<path d="M238.963 34.6911V28.8444H239.861V31.3871H240.455L242.556 28.8444H243.714L241.354 31.6612L243.744 34.6911H242.587L240.668 32.2245H239.861V34.6911H238.963Z" fill="#393185"/>
<path d="M246.855 34.8129C246.327 34.8129 245.864 34.6873 245.465 34.4361C245.07 34.1848 244.76 33.8334 244.537 33.3817C244.316 32.93 244.206 32.4022 244.206 31.7982C244.206 31.1892 244.316 30.6575 244.537 30.2033C244.76 29.7491 245.07 29.3963 245.465 29.1451C245.864 28.8939 246.327 28.7683 246.855 28.7683C247.383 28.7683 247.844 28.8939 248.24 29.1451C248.639 29.3963 248.948 29.7491 249.169 30.2033C249.392 30.6575 249.504 31.1892 249.504 31.7982C249.504 32.4022 249.392 32.93 249.169 33.3817C248.948 33.8334 248.639 34.1848 248.24 34.4361C247.844 34.6873 247.383 34.8129 246.855 34.8129ZM246.855 34.0059C247.256 34.0059 247.586 33.9032 247.844 33.6976C248.103 33.4921 248.295 33.2218 248.419 32.8868C248.544 32.5519 248.606 32.189 248.606 31.7982C248.606 31.4074 248.544 31.0433 248.419 30.7058C248.295 30.3682 248.103 30.0955 247.844 29.8874C247.586 29.6793 247.256 29.5752 246.855 29.5752C246.454 29.5752 246.124 29.6793 245.865 29.8874C245.606 30.0955 245.415 30.3682 245.29 30.7058C245.166 31.0433 245.104 31.4074 245.104 31.7982C245.104 32.189 245.166 32.5519 245.29 32.8868C245.415 33.2218 245.606 33.4921 245.865 33.6976C246.124 33.9032 246.454 34.0059 246.855 34.0059Z" fill="#393185"/>
<path d="M254.073 33.473L256.113 28.8444H256.966L254.438 34.6911H253.707L251.226 28.8444H252.063L254.073 33.473ZM251.774 28.8444V34.6911H250.875V28.8444H251.774ZM256.372 34.6911V28.8444H257.27V34.6911H256.372Z" fill="#393185"/>
<path d="M258.915 34.6911V28.8444H263.513V34.6911H262.614V29.6818H259.813V34.6911H258.915Z" fill="#393185"/>
<path d="M266.874 34.8281C266.503 34.8281 266.167 34.7583 265.865 34.6188C265.563 34.4767 265.323 34.2724 265.146 34.0059C264.968 33.7369 264.879 33.4121 264.879 33.0315C264.879 32.6965 264.945 32.425 265.077 32.2169C265.209 32.0063 265.385 31.8413 265.606 31.7221C265.827 31.6028 266.071 31.514 266.337 31.4556C266.606 31.3947 266.876 31.3465 267.148 31.311C267.503 31.2653 267.791 31.231 268.012 31.2082C268.235 31.1828 268.398 31.141 268.499 31.0826C268.603 31.0242 268.655 30.9227 268.655 30.7781V30.7476C268.655 30.3721 268.552 30.0802 268.347 29.8721C268.144 29.6641 267.836 29.56 267.422 29.56C266.993 29.56 266.657 29.6539 266.413 29.8417C266.17 30.0295 265.998 30.2299 265.899 30.4431L265.047 30.1386C265.199 29.7833 265.402 29.5067 265.656 29.3088C265.912 29.1083 266.191 28.9687 266.493 28.8901C266.798 28.8089 267.097 28.7683 267.392 28.7683C267.579 28.7683 267.795 28.7911 268.039 28.8368C268.285 28.8799 268.522 28.97 268.75 29.107C268.981 29.2441 269.173 29.4509 269.325 29.7275C269.477 30.0041 269.554 30.3746 269.554 30.839V34.6911H268.655V33.8994H268.61C268.549 34.0262 268.447 34.162 268.305 34.3066C268.163 34.4513 267.974 34.5744 267.738 34.6759C267.502 34.7774 267.214 34.8281 266.874 34.8281ZM267.011 34.0212C267.366 34.0212 267.666 33.9514 267.909 33.8118C268.155 33.6722 268.341 33.4921 268.465 33.2713C268.592 33.0505 268.655 32.8183 268.655 32.5747V31.7525C268.617 31.7982 268.533 31.8401 268.404 31.8781C268.277 31.9137 268.13 31.9454 267.962 31.9733C267.798 31.9987 267.636 32.0215 267.479 32.0418C267.324 32.0596 267.199 32.0748 267.102 32.0875C266.869 32.1179 266.651 32.1674 266.448 32.2359C266.247 32.3019 266.085 32.4022 265.96 32.5367C265.838 32.6686 265.778 32.8488 265.778 33.0772C265.778 33.3893 265.893 33.6253 266.124 33.7852C266.357 33.9425 266.653 34.0212 267.011 34.0212Z" fill="#393185"/>
<path d="M275.106 31.3567V32.1941H271.878V31.3567H275.106ZM272.092 28.8444V34.6911H271.193V28.8444H272.092ZM275.791 28.8444V34.6911H274.893V28.8444H275.791Z" fill="#393185"/>
<path d="M278.33 33.3665L281.147 28.8444H282.182V34.6911H281.284V30.169L278.483 34.6911H277.432V28.8444H278.33V33.3665Z" fill="#393185"/>
<path d="M287.345 34.6911V29.6666H285.792C285.442 29.6666 285.166 29.7478 284.966 29.9102C284.765 30.0726 284.665 30.2959 284.665 30.5801C284.665 30.8593 284.755 31.0788 284.935 31.2387C285.118 31.3985 285.368 31.4785 285.685 31.4785H287.573V32.3159H285.685C285.289 32.3159 284.948 32.2461 284.661 32.1065C284.375 31.967 284.154 31.7678 283.999 31.5089C283.844 31.2475 283.767 30.9379 283.767 30.5801C283.767 30.2198 283.848 29.9102 284.01 29.6514C284.173 29.3925 284.405 29.1933 284.707 29.0538C285.012 28.9142 285.373 28.8444 285.792 28.8444H288.198V34.6911H287.345ZM283.447 34.6911L285.107 31.783H286.081L284.422 34.6911H283.447Z" fill="#393185"/>
</svg>
