<svg width="45" height="28" viewBox="0 0 45 28" fill="none" xmlns="http://www.w3.org/2000/svg">
<g clip-path="url(#clip0_5001_851)">
<mask id="mask0_5001_851" style="mask-type:luminance" maskUnits="userSpaceOnUse" x="0" y="0" width="45" height="28">
<path d="M45 0.5H0V27.5H45V0.5Z" fill="white"/>
</mask>
<g mask="url(#mask0_5001_851)">
<mask id="mask1_5001_851" style="mask-type:luminance" maskUnits="userSpaceOnUse" x="0" y="0" width="45" height="28">
<path d="M44.5247 0.92334H0.404297V27.0767H44.5247V0.92334Z" fill="white"/>
</mask>
<g mask="url(#mask1_5001_851)">
<path fill-rule="evenodd" clip-rule="evenodd" d="M12.8748 19.8066C9.94472 18.8217 7.95898 16.0343 7.95898 12.8926C7.95898 8.87096 11.1698 5.61084 15.1303 5.61084C16.6212 5.61084 18.0573 6.08507 19.2788 6.95289C19.5781 7.16562 19.589 7.60862 19.319 7.85807C18.712 8.41888 18.2905 8.96816 18.0433 9.51324C16.9324 11.7314 18.4345 12.8747 19.7329 14.3283C20.6932 15.4033 20.2472 16.9673 18.9666 17.6184C17.1309 18.5517 15.1189 19.1833 13.1867 19.8078C13.0851 19.8406 12.976 19.8402 12.8748 19.8066Z" fill="white"/>
<path fill-rule="evenodd" clip-rule="evenodd" d="M21.0152 10.8681C21.0471 10.8084 21.1695 10.6105 21.5194 10.2873C23.1941 8.74001 23.3012 5.78573 21.1548 4.26026C19.4029 3.01557 17.3148 2.31812 15.1294 2.31812C9.35096 2.31812 4.69727 7.06969 4.69727 12.8925C4.69727 17.4424 7.57268 21.4949 11.8439 22.9307L12.8739 19.8066L11.8564 22.9349C12.6109 23.1851 13.424 23.188 14.1799 22.9437C14.2926 22.9073 14.4069 22.8704 14.5226 22.8331C16.317 22.2548 18.4491 21.5676 20.4322 20.5593C23.2299 19.1369 24.8445 15.1354 22.1534 12.1228C21.9725 11.9203 21.7911 11.7261 21.6391 11.5634L21.6134 11.5359C21.4467 11.3574 21.3156 11.2164 21.1968 11.082C21.1217 10.9971 21.0622 10.9264 21.0152 10.8681ZM18.0424 9.51319C18.2897 8.96812 18.7112 8.41884 19.3181 7.85803C19.5881 7.60857 19.5772 7.16558 19.278 6.95285C18.7944 6.6093 18.2771 6.32743 17.7362 6.11225C17.4249 5.98842 17.1058 5.88667 16.7807 5.80796C16.7658 5.80435 16.7509 5.80079 16.736 5.79728C16.213 5.67428 15.6749 5.6108 15.1294 5.6108C11.169 5.6108 7.95812 8.87092 7.95812 12.8925C7.95812 16.0343 9.94385 18.8216 12.8739 19.8066C12.9752 19.8402 13.0843 19.8406 13.1858 19.8078C13.2814 19.7769 13.3771 19.746 13.473 19.715C15.3166 19.1201 17.2208 18.5055 18.9658 17.6184C20.2464 16.9673 20.6923 15.4032 19.732 14.3282C19.5761 14.1538 19.4174 13.9837 19.2606 13.8158C18.1106 12.5847 17.0649 11.4651 18.0424 9.51319Z" fill="white"/>
<path fill-rule="evenodd" clip-rule="evenodd" d="M17.5027 10.6605C17.2362 12.0687 18.5428 13.2799 19.6153 14.4872C20.5136 15.4984 20.1229 16.9007 18.9136 17.4958C14.6611 19.5885 6.71853 21.7139 4.20321 21.8071C3.90403 21.816 3.66602 22.0634 3.66602 22.3656V22.7892C3.66602 23.3386 4.10711 23.784 4.65122 23.784H38.2187C40.0409 23.784 41.5379 22.2657 41.2134 20.455C41.0989 19.8155 40.9605 19.2167 40.8091 18.6533C40.3535 16.9573 38.9822 15.351 36.973 14.4341C33.0632 12.6495 28.2172 12.2297 25.7012 10.7025C24.8108 10.1621 24.7816 9.01599 25.7213 8.56898C28.5505 7.22313 35.3198 6.37724 38.3837 6.42575C38.9614 6.4349 39.4903 6.00518 39.5398 5.42395C39.5865 4.87722 39.1909 4.39409 38.6488 4.3544C30.7651 3.7771 18.1838 4.84491 17.5027 10.6605ZM13.0294 21.8703H36.7774C38.2347 21.8703 39.3725 20.577 38.991 19.1569C38.6257 17.7973 37.427 16.7393 36.2004 16.1796C35.4573 15.8403 34.6866 15.5599 33.9098 15.3117C31.9314 14.6794 29.8992 14.2618 27.9144 13.6625C26.1041 13.1158 24.0479 12.3335 22.9277 10.6939C22.3828 9.93689 22.6175 9.19755 22.6969 8.9722C22.8509 8.52453 23.1142 8.14462 23.445 7.81983C23.6049 7.66178 23.4991 7.59908 23.2541 7.68469C21.1149 8.54817 20.0184 9.51793 19.5891 10.4158C19.3807 10.9278 19.4164 11.1882 19.5956 11.5446C19.8224 11.9957 20.3306 12.4501 20.5119 12.6498C21.0476 13.2391 21.563 13.8706 22.0376 14.5171C23.2976 16.2337 23.0737 16.9574 21.9801 17.8725C20.9227 18.696 19.5281 19.3497 18.302 19.8716C16.7508 20.5318 15.1446 21.0967 13.5395 21.6057C13.364 21.6613 13.1882 21.7164 13.0122 21.7709C12.9541 21.7867 12.9431 21.8762 13.0294 21.8703Z" fill="white"/>
<path fill-rule="evenodd" clip-rule="evenodd" d="M20.3533 12.4866C20.219 12.3508 20.0443 12.1736 19.8866 11.9796C19.7734 11.8403 19.669 11.6922 19.5947 11.5445C19.5047 11.3653 19.4508 11.2105 19.4461 11.0356C19.4448 10.9898 19.447 10.9426 19.4527 10.8933C19.4544 10.8789 19.4563 10.8644 19.4586 10.8496C19.478 10.7239 19.5201 10.5833 19.5883 10.4157C19.7819 10.0109 20.1111 9.59131 20.6105 9.17354C20.8603 8.96452 21.1528 8.75589 21.4921 8.54977C21.4956 8.54766 21.4991 8.54549 21.5026 8.54338C21.6475 8.45567 21.801 8.36834 21.9632 8.28168C22.3432 8.07859 22.7718 7.87892 23.2532 7.68459C23.269 7.67905 23.2843 7.67418 23.2989 7.6699C23.2991 7.66983 23.2993 7.66977 23.2995 7.6697C23.511 7.6076 23.5935 7.67207 23.4441 7.81972C23.4108 7.85245 23.3782 7.88577 23.3462 7.91962C23.3432 7.92284 23.3402 7.92607 23.3371 7.92936C23.0566 8.22926 22.8331 8.57394 22.6961 8.97209C22.6648 9.06073 22.6097 9.22872 22.5872 9.44597C22.5664 9.64762 22.5738 9.89167 22.6549 10.154C22.6912 10.272 22.7426 10.3936 22.8128 10.5168C22.8127 10.5167 22.8129 10.5169 22.8128 10.5168C22.8463 10.5754 22.8843 10.6347 22.9268 10.6938C22.9794 10.7708 23.0341 10.8459 23.0907 10.9192C23.1804 11.0354 23.2751 11.147 23.3742 11.2543C23.6414 11.5437 23.9405 11.8016 24.2621 12.0328C24.4121 12.1407 24.5669 12.2428 24.7256 12.3396C25.7152 12.9435 26.8563 13.3432 27.9136 13.6625C28.8246 13.9375 29.7455 14.1743 30.6667 14.4111C31.7525 14.6904 32.8386 14.9696 33.909 15.3117C34.6832 15.5591 35.4514 15.8384 36.1923 16.1762C36.1948 16.1773 36.1972 16.1784 36.1996 16.1794C37.4246 16.7385 38.6218 17.7945 38.9887 19.1515C38.9887 19.1514 38.9887 19.1516 38.9887 19.1515C38.9892 19.1532 38.9897 19.1551 38.9902 19.1568C39.1653 19.8086 39.0203 20.4337 38.6713 20.9193C38.5451 21.095 38.392 21.2524 38.2178 21.3863C37.8244 21.6884 37.323 21.8703 36.7766 21.8703H13.0286C12.9422 21.8761 12.9532 21.7867 13.0113 21.7708C13.0148 21.7698 13.0183 21.7687 13.0217 21.7676C13.024 21.7669 13.0263 21.7662 13.0286 21.7655C13.1988 21.7127 13.3689 21.6595 13.5386 21.6057C14.3769 21.3398 15.2155 21.0587 16.0464 20.7568C16.2851 20.6701 16.5232 20.5816 16.7604 20.4913C17.2786 20.294 17.7928 20.0879 18.3011 19.8715C18.767 19.6732 19.2571 19.456 19.7437 19.2176C20.1487 19.0193 20.5513 18.8063 20.9355 18.5776C21.3051 18.3575 21.6578 18.1228 21.9793 17.8724C23.0728 16.9574 23.2968 16.2336 22.0367 14.517C22.0037 14.472 21.9704 14.4271 21.9369 14.3822C21.6421 13.9865 21.3324 13.5973 21.0126 13.2207C20.8479 13.0268 20.6805 12.8361 20.5111 12.6498C20.4836 12.6195 20.4486 12.5834 20.4082 12.5423C20.3921 12.5259 20.375 12.5086 20.3572 12.4907C20.3559 12.4893 20.3546 12.488 20.3533 12.4866ZM22.9894 13.804L23.673 13.2925C23.7854 13.3748 23.9013 13.4522 24.0202 13.5245M26.1521 16.5566C26.1503 16.6121 26.1474 16.6679 26.1436 16.7241C26.0939 17.4449 25.8867 18.0604 25.6121 18.5776H33.3109C33.1843 18.5348 33.0557 18.4927 32.9252 18.4509C32.0346 18.1663 31.1139 17.9243 30.108 17.6653C30.024 17.6436 29.9394 17.6219 29.8541 17.6C28.9437 17.366 27.9583 17.1127 26.9793 16.817M26.1521 16.5566C26.4505 16.6558 26.7288 16.7414 26.9793 16.817L26.1521 16.5566ZM22.3111 11.7431C22.6458 12.3569 23.1165 12.8849 23.673 13.2925L22.3111 11.7431ZM20.1003 15.583C20.0947 15.5131 20.0848 15.4432 20.0705 15.3735C20.0073 15.0653 19.8584 14.7618 19.6144 14.4872C19.4898 14.3469 19.362 14.2065 19.2339 14.0658C19.1956 14.0238 19.1573 13.9818 19.1191 13.9397C19.119 13.9396 19.1192 13.9397 19.1191 13.9397C18.6654 13.4404 18.2182 12.9354 17.9038 12.4114C17.9038 12.4113 17.9038 12.4115 17.9038 12.4114C17.5698 11.8547 17.3853 11.2763 17.5019 10.6604C17.5432 10.3079 17.6282 9.97274 17.7533 9.6544C17.7679 9.61713 17.7831 9.58012 17.7988 9.54337C18.1925 8.62195 18.9264 7.84369 19.9073 7.19134C20.0514 7.09546 20.2009 7.00228 20.3555 6.91178C20.8127 6.64399 21.3141 6.3995 21.852 6.17689C21.8542 6.17594 21.8565 6.17499 21.8588 6.17405C22.083 6.08141 22.3134 5.99257 22.5497 5.90742C22.5777 5.89732 22.6057 5.88728 22.634 5.87728C23.5263 5.56076 24.499 5.29612 25.523 5.07789C25.5792 5.0659 25.6356 5.05405 25.6922 5.04233C29.1227 4.33206 33.1033 4.13374 36.5506 4.24484C37.193 4.26554 37.8169 4.29699 38.4152 4.33787C38.4933 4.3432 38.5708 4.34869 38.648 4.35434C39.19 4.39403 39.5856 4.87715 39.539 5.42389C39.4927 5.96571 39.03 6.37588 38.4995 6.42159C38.4609 6.42491 38.422 6.42631 38.3828 6.42569C37.8733 6.41762 37.2613 6.43429 36.582 6.47387C33.8694 6.63195 30.0835 7.15552 27.4631 7.9291C27.4613 7.92963 27.4595 7.93015 27.4577 7.93068C27.4138 7.94365 27.3703 7.95669 27.327 7.9698C27.1269 8.03045 26.9342 8.09268 26.7496 8.1563C26.6822 8.17954 26.6159 8.20292 26.5508 8.22656C26.2472 8.33667 25.9687 8.45086 25.7205 8.56893C25.4744 8.68596 25.2948 8.85092 25.1797 9.04045C25.1537 9.08305 25.1311 9.12698 25.1117 9.17182C25.0717 9.26428 25.0455 9.36082 25.0329 9.45921C25.0325 9.46211 25.0322 9.46507 25.0318 9.46803C25.0189 9.57597 25.0222 9.68594 25.0417 9.795C25.043 9.80204 25.0443 9.80909 25.0457 9.81614C25.1123 10.1536 25.3331 10.4795 25.7003 10.7024C26.0865 10.9368 26.5275 11.1451 27.0116 11.3363C27.1048 11.3731 27.1996 11.4093 27.2958 11.4448C27.3041 11.4479 27.3122 11.4509 27.3204 11.4539C27.6797 11.586 28.0597 11.7102 28.4563 11.8298C29.2495 12.0692 30.1087 12.2903 30.9991 12.5195C32.1327 12.8113 33.317 13.1161 34.4805 13.4881C34.4804 13.4881 34.4805 13.4882 34.4805 13.4881C35.3315 13.7604 36.1715 14.0686 36.9722 14.434C36.9746 14.4351 36.977 14.4362 36.9794 14.4373C36.9793 14.4373 36.9795 14.4374 36.9794 14.4373C38.9844 15.3549 40.3533 16.9594 40.8082 18.6532C40.8087 18.6549 40.8092 18.6567 40.8096 18.6584C40.9605 19.2202 41.0984 19.8174 41.2126 20.4549C41.537 22.2656 40.04 23.784 38.2178 23.784H4.65037C4.51611 23.784 4.38813 23.7568 4.2715 23.7077L4.32205 25.0975C4.31389 25.0979 4.30571 25.0981 4.29752 25.0984L4.25713 23.7015C3.90873 23.5482 3.66516 23.1974 3.66516 22.7891V22.3656C3.66516 22.0633 3.90317 21.8159 4.20236 21.8071C4.33669 21.8021 4.48648 21.7914 4.65037 21.7751C5.15402 21.7251 5.79073 21.6234 6.5202 21.479C7.51105 21.283 8.67309 21.0082 9.90531 20.6776C10.1301 20.6173 10.3573 20.5552 10.5862 20.4913C11.201 20.3197 11.8283 20.1357 12.456 19.9419C12.4764 19.9357 12.4968 19.9293 12.5172 19.923C12.6418 19.8844 12.7664 19.8455 12.8909 19.8062C12.9176 19.7978 12.9444 19.7893 12.971 19.7808C12.9709 19.7809 12.9712 19.7808 12.971 19.7808C12.9901 19.7748 13.0096 19.7686 13.0286 19.7626C13.6401 19.5681 14.2487 19.3652 14.8434 19.1564C15.3806 18.9677 15.9063 18.7741 16.4126 18.5776C16.8103 18.4231 17.196 18.2669 17.5657 18.1096C18.0444 17.906 18.4963 17.7007 18.9127 17.4957C19.23 17.3396 19.491 17.1279 19.6871 16.8823C19.6899 16.8787 19.6927 16.8752 19.6955 16.8716C19.9067 16.6035 20.041 16.2957 20.0876 15.9759C20.0876 15.9758 20.0876 15.976 20.0876 15.9759C20.1065 15.8463 20.111 15.7146 20.1003 15.583ZM14.2768 10.1678C13.9622 12.0703 14.7438 13.5935 15.3662 14.5104C15.5316 14.7543 15.7191 15.0005 15.9113 15.2375C14.1955 15.9413 12.0858 16.6454 10.0228 17.2316C7.19181 18.036 4.91897 18.4841 4.08797 18.5164C2.0347 18.5872 0.404297 20.2888 0.404297 22.3656V22.7891C0.404297 25.1571 2.30533 27.0766 4.65037 27.0766H38.2178C41.6829 27.0766 45.1742 24.07 44.4214 19.8687C44.2883 19.126 44.1283 18.4347 43.9554 17.7913M14.2768 10.1678C14.6316 7.46431 16.3513 5.58607 18.2197 4.37173C20.0828 3.16087 22.3924 2.39292 24.6839 1.89194C29.2952 0.883774 34.7414 0.766944 38.8838 1.07028C41.2976 1.24704 42.9854 3.38996 42.7878 5.70645C42.5737 8.21635 40.4084 9.75088 38.3317 9.71795C37.3822 9.70293 35.9033 9.79375 34.2618 9.98538C35.5866 10.3654 36.9887 10.8281 38.3152 11.4336C41.0822 12.6964 43.2099 15.0161 43.9554 17.7913M13.0337 25.1629H36.7766C37.264 25.1629 37.749 25.095 38.2178 24.9666C40.3215 24.3905 42.0992 22.5963 42.3154 20.2535C42.3725 19.6347 42.3208 18.9777 42.1372 18.2947" fill="white"/>
<path d="M24.1309 15.6462H33.2613V20.256H24.1309V15.6462Z" fill="white"/>
<path d="M26.7387 14C26.7387 15.6367 25.4248 16.9635 23.8039 16.9635C22.1831 16.9635 20.8691 15.6367 20.8691 14C20.8691 12.3634 22.1831 11.0366 23.8039 11.0366C25.4248 11.0366 26.7387 12.3634 26.7387 14Z" fill="white"/>
<path d="M11.0879 14.9878H42.3922V25.5244H11.0879V14.9878Z" fill="white"/>
</g>
<mask id="mask2_5001_851" style="mask-type:luminance" maskUnits="userSpaceOnUse" x="3" y="4" width="39" height="20">
<path d="M41.5346 4.21606H3.66602V23.784H41.5346V4.21606Z" fill="white"/>
</mask>
<g mask="url(#mask2_5001_851)">
<path fill-rule="evenodd" clip-rule="evenodd" d="M12.8748 19.8066C9.94472 18.8217 7.95898 16.0343 7.95898 12.8926C7.95898 8.87096 11.1698 5.61084 15.1303 5.61084C16.6212 5.61084 18.0573 6.08507 19.2788 6.95289L19.8788 7.37931C18.9644 8.10785 18.3604 8.814 18.0433 9.51324C16.4781 12.6387 20.1002 13.6302 21.0312 16.3621C18.6779 18.0876 15.7669 18.9721 13.0306 19.8583L12.8748 19.8066Z" fill="#FFED00"/>
<path fill-rule="evenodd" clip-rule="evenodd" d="M17.5027 10.6605C17.1004 12.7858 20.2812 14.4624 20.8331 16.354C17.7762 18.7351 7.18255 21.6966 4.20321 21.8071L3.66602 21.823V23.784H41.5346C41.5014 21.7819 41.1979 20.1005 40.8091 18.6533C40.3536 16.9574 38.9822 15.351 36.973 14.4341C32.2621 12.2839 26.1922 12.115 24.4761 9.60308C25.2163 7.45052 36.8975 6.07183 39.4478 6.50249L39.6241 4.43638C31.8523 3.69516 18.2126 4.59858 17.5027 10.6605ZM13.0294 21.8703H39.5182C39.4089 20.958 39.2329 20.057 38.991 19.1569C38.6257 17.7973 37.427 16.7393 36.2004 16.1796C35.4573 15.8403 34.6866 15.5599 33.9098 15.3117C31.9314 14.6794 29.8992 14.2618 27.9144 13.6625C26.1041 13.1158 24.0479 12.3335 22.9277 10.6939C22.3828 9.93689 22.6175 9.19755 22.6969 8.9722C22.8509 8.52453 23.1142 8.14462 23.445 7.81983C23.6049 7.66178 23.4991 7.59909 23.2541 7.6847C21.1149 8.54817 20.0184 9.51793 19.5891 10.4158C19.3807 10.9278 19.4164 11.1882 19.5956 11.5446C19.8224 11.9957 20.3306 12.4501 20.5119 12.6498C21.0476 13.2391 21.563 13.8706 22.0376 14.5171C23.2976 16.2337 23.0737 16.9574 21.9801 17.8725C20.9227 18.696 19.5281 19.3497 18.302 19.8716C16.7508 20.5318 15.1446 21.0967 13.5395 21.6057C13.364 21.6613 13.1882 21.7164 13.0122 21.7709C12.9541 21.7867 12.9431 21.8762 13.0294 21.8703Z" fill="#393185"/>
</g>
</g>
</g>
<defs>
<clipPath id="clip0_5001_851">
<rect width="45" height="27" fill="white" transform="translate(0 0.5)"/>
</clipPath>
</defs>
</svg>
