<svg width="267" height="39" viewBox="0 0 267 39" fill="none" xmlns="http://www.w3.org/2000/svg">
<g clip-path="url(#clip0_3001_581)">
<path fill-rule="evenodd" clip-rule="evenodd" d="M29.3987 9.2443C29.3347 9.28754 29.2523 9.28624 29.1892 9.24179L28.5593 8.79851C26.6864 7.4807 24.4844 6.76059 22.1984 6.76059C16.1256 6.76059 11.2024 11.7111 11.2024 17.818C11.2024 22.5889 14.2471 26.8215 18.7399 28.3171C18.7436 28.3183 18.7436 28.3236 18.7398 28.3248C13.3278 30.0153 7.81342 31.2682 5.44284 31.3552L4.79855 31.3741C4.69863 31.3769 4.61914 31.4592 4.61914 31.5597V34.1714C4.61914 34.274 4.70186 34.3571 4.80392 34.3571H62.6843H259.38C259.482 34.3571 259.564 34.274 259.564 34.1714V31.5674C259.564 31.4648 259.482 31.3817 259.38 31.3817H62.6608C62.5667 31.3817 62.4877 31.3106 62.4767 31.2167C62.2764 29.5006 61.9505 27.9616 61.5718 26.566C60.8734 23.9907 58.7705 21.5516 55.6899 20.1591C52.7841 18.8457 49.5412 18.0191 46.5313 17.2519C42.1095 16.1248 38.1905 15.1259 36.5822 12.9C36.5474 12.852 36.5374 12.7926 36.5612 12.7382C37.9512 9.56769 55.07 7.52983 59.2963 8.08684C59.4032 8.10091 59.4925 8.02256 59.5019 7.91465L59.7389 5.16104C59.7477 5.05939 59.6756 4.96987 59.5746 4.96061C50.3976 4.11957 36.0486 4.75324 29.3987 9.2443ZM59.5666 31.243C59.5809 31.3536 59.4949 31.4511 59.384 31.4511H18.9763C18.844 31.4601 18.8609 31.3242 18.9499 31.3002C19.2198 31.2174 19.4894 31.1338 19.7584 31.0494C22.2196 30.2764 24.6825 29.4186 27.061 28.416C28.9411 27.6236 31.0794 26.6309 32.7008 25.3803C34.3775 23.9908 34.7209 22.8918 32.7888 20.2852C32.0612 19.3034 31.2709 18.3445 30.4496 17.4496C30.3906 17.3852 30.309 17.3035 30.2137 17.2081C29.8602 16.8538 29.3185 16.3111 29.0445 15.7713C28.7698 15.2301 28.7151 14.8347 29.0346 14.0572C29.6928 12.6938 31.374 11.2212 34.6541 9.90996C35.0299 9.77996 35.192 9.87523 34.9468 10.1152C34.4397 10.6084 34.036 11.1853 33.7998 11.8651C33.6781 12.2073 33.3181 13.33 34.1537 14.4796C35.8714 16.9693 39.0243 18.1573 41.8 18.9874C43.197 19.4052 44.6094 19.7648 46.022 20.1245C47.6867 20.5484 49.3519 20.9724 50.993 21.4918C52.184 21.8687 53.3658 22.2944 54.5053 22.8096C56.3859 23.6596 58.2241 25.2662 58.7841 27.3307C59.1364 28.6292 59.3976 29.9288 59.5666 31.243ZM256.66 21.3267L254.886 21.3245C254.806 21.3244 254.734 21.3763 254.709 21.453L253.578 24.9661C253.539 25.086 253.628 25.2089 253.753 25.209L255.631 25.2113C256.096 25.212 256.521 25.1669 256.941 24.9514C257.612 24.6065 257.996 23.9449 258.221 23.2457C258.364 22.8017 258.568 22.0377 258.196 21.6583C258.039 21.4972 257.804 21.4248 257.589 21.3856C257.285 21.3304 256.967 21.3271 256.66 21.3267ZM254.132 12.1952C254.157 12.1185 254.228 12.0666 254.308 12.0668L257.479 12.0707C257.605 12.0708 257.694 12.1938 257.655 12.3137L255.904 17.745C255.866 17.8648 255.955 17.9877 256.08 17.9879L258.584 17.9911C259.885 17.9927 261.392 18.2721 262.049 19.5465C262.644 20.6999 262.33 22.2652 261.951 23.4421C260.847 26.8674 258.853 28.5535 255.213 28.549L249.118 28.5413C248.993 28.5411 248.904 28.4181 248.943 28.2983L254.132 12.1952ZM137.666 28.3118C137.632 28.3675 137.572 28.4016 137.508 28.4015L135.26 28.3987C135.154 28.3986 135.07 28.3104 135.075 28.2049L135.506 18.3584C135.506 18.3451 135.489 18.3393 135.482 18.3625L132.291 28.2663C132.266 28.3429 132.195 28.3948 132.115 28.3948L128.943 28.3909C128.818 28.3907 128.73 28.2677 128.768 28.1478L133.957 12.0447C133.982 11.968 134.053 11.916 134.134 11.9161L138.565 11.9216C138.671 11.9218 138.755 12.0102 138.75 12.1159L138.316 21.5933C138.308 21.7858 138.56 21.8627 138.66 21.6976L144.456 12.0192C144.489 11.9633 144.549 11.9291 144.614 11.9292L149.03 11.9349C149.155 11.935 149.244 12.0579 149.206 12.1778L144.016 28.2809C143.991 28.3576 143.92 28.4095 143.841 28.4094L140.669 28.4054C140.543 28.4052 140.455 28.2823 140.494 28.1624L143.457 18.9635C143.489 18.873 143.382 18.8041 143.321 18.9009L137.666 28.3118ZM155.811 16.8196L152.758 22.1477C152.687 22.2714 152.776 22.4259 152.918 22.4261L155.262 22.4291C155.359 22.4291 155.439 22.3538 155.446 22.2566L155.836 16.8196C155.835 16.8033 155.822 16.7985 155.811 16.8196ZM158.773 28.2466C158.771 28.3475 158.689 28.428 158.589 28.4279L155.248 28.4237C155.142 28.4236 155.057 28.3349 155.063 28.2289L155.193 25.5655C155.199 25.4595 155.115 25.3708 155.009 25.3707L151.04 25.3657C150.976 25.3657 150.915 25.3999 150.882 25.456L149.172 28.3256C149.138 28.3817 149.078 28.4159 149.013 28.4158L145.707 28.4118C145.562 28.4117 145.473 28.2514 145.55 28.1278L155.545 12.0305C155.579 11.9761 155.639 11.9431 155.702 11.9432L158.972 11.9473C159.076 11.9474 159.159 12.0332 159.157 12.1374L158.773 28.2466ZM174.396 11.9666C174.522 11.9667 174.61 12.0896 174.572 12.2095L173.616 15.175C173.591 15.2517 173.52 15.3036 173.44 15.3035L168.102 15.2967C168.021 15.2966 167.95 15.3485 167.925 15.4252L163.775 28.3058C163.75 28.3824 163.679 28.4343 163.599 28.4342L160.428 28.4302C160.302 28.4301 160.214 28.3072 160.252 28.1873L165.441 12.0841C165.466 12.0074 165.537 11.9555 165.617 11.9556L174.396 11.9666ZM176.17 12.0975C176.195 12.0208 176.266 11.9689 176.346 11.969L179.517 11.973C179.643 11.9732 179.731 12.0961 179.694 12.216L176.584 21.8658C176.566 21.9155 176.602 21.9205 176.638 21.8806L184.427 12.0494C184.462 12.0051 184.514 11.9793 184.571 11.9794L187.744 11.9833C187.869 11.9834 187.958 12.1063 187.92 12.2262L182.73 28.3294C182.705 28.4061 182.634 28.458 182.554 28.4579L179.383 28.4539C179.257 28.4538 179.169 28.3309 179.208 28.211L182.394 18.3213C182.396 18.3153 182.386 18.3234 182.382 18.3283L174.475 28.3771C174.439 28.4217 174.386 28.4477 174.33 28.4476L171.157 28.4437C171.031 28.4435 170.943 28.3206 170.981 28.2008L176.17 12.0975ZM195.269 22.5994C195.283 22.5689 195.313 22.5492 195.346 22.5492L198.706 22.5534C198.766 22.5535 198.807 22.615 198.784 22.6706C197.231 26.3781 194.859 28.9394 190.63 28.9342C189.355 28.9326 187.926 28.7017 186.984 27.7602C186.253 27.0296 185.98 26.0375 185.933 25.0264C185.902 24.3505 185.969 23.6677 186.084 23.0018C186.23 22.1534 186.455 21.3183 186.719 20.4996C188.134 16.1082 190.95 11.5212 196.093 11.5276C197.947 11.53 199.865 12.0473 200.446 14.0405C200.54 14.3636 200.59 14.6986 200.609 15.0344C200.628 15.3802 200.613 15.7284 200.574 16.0724C200.514 16.6076 200.396 17.1399 200.238 17.6543C200.227 17.6897 200.194 17.7139 200.157 17.7138L196.844 17.7097C196.79 17.7096 196.75 17.6596 196.762 17.607C196.817 17.3596 196.863 17.1091 196.89 16.8572C196.919 16.5808 196.928 16.2925 196.885 16.0172C196.836 15.6982 196.718 15.4015 196.463 15.1933C196.126 14.9178 195.63 14.8652 195.211 14.8647C194.396 14.8636 193.728 15.1713 193.125 15.7088C191.864 16.8313 191.049 18.8325 190.539 20.4165C190.371 20.9384 190.222 21.468 190.113 22.0057C190.031 22.4105 189.969 22.822 189.951 23.2351C189.93 23.7474 189.974 24.3281 190.222 24.786C190.55 25.3933 191.136 25.5967 191.791 25.5974C192.09 25.5979 192.389 25.5658 192.679 25.4845C193.217 25.333 193.656 25.0291 194.035 24.6205C194.564 24.0499 194.957 23.3091 195.269 22.5994ZM205.15 28.3576C205.125 28.4342 205.054 28.4861 204.974 28.486L201.803 28.482C201.677 28.4819 201.588 28.359 201.627 28.2391L205.704 15.5865C205.743 15.4666 205.654 15.3438 205.529 15.3436L202.097 15.3393C201.972 15.3392 201.882 15.2163 201.921 15.0964L202.876 12.1309C202.901 12.0542 202.972 12.0023 203.053 12.0024L214.103 12.0162C214.228 12.0164 214.317 12.1394 214.279 12.2592L213.323 15.2247C213.298 15.3014 213.227 15.3533 213.147 15.3532L209.477 15.3485C209.396 15.3484 209.325 15.4003 209.301 15.477L205.15 28.3576ZM231.08 16.8849L228.006 22.2508C227.935 22.3745 228.023 22.5291 228.166 22.5292L230.509 22.5321C230.606 22.5322 230.687 22.457 230.694 22.3598L231.086 16.8863C231.086 16.8824 231.082 16.8816 231.08 16.8849ZM234.222 12.0502C234.324 12.0504 234.407 12.1357 234.405 12.2396L234.097 28.3529C234.095 28.4542 234.013 28.5352 233.912 28.535L230.495 28.5271C230.389 28.5268 230.305 28.4381 230.311 28.3323L230.441 25.6686C230.446 25.5626 230.362 25.4738 230.256 25.4737L226.288 25.4687C226.223 25.4686 226.163 25.5029 226.129 25.559L224.419 28.4286C224.386 28.4847 224.326 28.5191 224.261 28.519L220.954 28.5148C220.809 28.5146 220.721 28.3544 220.798 28.2308L230.793 12.1335C230.826 12.0791 230.885 12.046 230.949 12.0461L234.222 12.0502ZM220.615 15.3626L218.586 15.36C218.506 15.3599 218.434 15.4118 218.409 15.4884L217.18 19.3044C217.142 19.4243 217.231 19.5472 217.355 19.5474L219.211 19.5496C220.718 19.5515 221.448 18.7495 221.892 17.3745C222.015 16.988 222.136 16.4853 222.051 16.0816C222.001 15.8385 221.879 15.6496 221.66 15.5279C221.364 15.3628 220.988 15.3627 220.654 15.3626H220.615ZM210.912 28.4934C210.787 28.4932 210.698 28.3703 210.737 28.2505L215.925 12.1474C215.95 12.0707 216.021 12.0187 216.102 12.0188L222.238 12.0265C223.301 12.0278 224.562 12.2063 225.347 12.9993C226.475 14.1397 226.114 16.041 225.673 17.4077C225.059 19.3156 224.003 21.0812 222.21 22.0713C221.124 22.6719 219.954 22.8887 218.724 22.8871L216.162 22.8839C216.081 22.8838 216.01 22.9357 215.985 23.0124L214.259 28.3688C214.234 28.4455 214.163 28.4975 214.083 28.4974L210.912 28.4934ZM70.6372 28.189C70.6124 28.2657 70.5413 28.3176 70.4612 28.3175L67.2898 28.3135C67.1644 28.3133 67.0756 28.1904 67.1142 28.0706L71.1915 15.4181C71.2301 15.2982 71.1412 15.1753 71.0159 15.1751L67.584 15.1709C67.4587 15.1708 67.3699 15.0478 67.4085 14.928L68.3641 11.9625C68.3888 11.8858 68.4599 11.8339 68.5401 11.834L79.5901 11.8478C79.7154 11.848 79.8042 11.9708 79.7656 12.0907L78.8099 15.0563C78.7853 15.1329 78.7141 15.1848 78.6339 15.1847L74.9639 15.1801C74.8837 15.18 74.8125 15.2319 74.7878 15.3086L70.6372 28.189ZM86.4503 15.1946L84.4215 15.1919C84.3412 15.1919 84.2701 15.2438 84.2454 15.3204L83.0157 19.1363C82.9771 19.2562 83.0659 19.3792 83.1912 19.3793L85.0468 19.3817C86.5535 19.3834 87.2835 18.5814 87.7265 17.2064C87.8511 16.8199 87.9716 16.3172 87.8871 15.9135C87.8361 15.6704 87.714 15.4816 87.4957 15.3598C87.1995 15.1948 86.8231 15.1946 86.4899 15.1946H86.4503ZM76.7473 28.3255C76.6219 28.3253 76.5331 28.2024 76.5718 28.0825L81.761 11.9793C81.7857 11.9026 81.8568 11.8507 81.937 11.8508L88.0737 11.8585C89.1369 11.8599 90.3977 12.0382 91.1821 12.8312C92.31 13.9716 91.9492 15.873 91.5087 17.2396C90.8939 19.1476 89.8381 20.9132 88.0463 21.9032C86.9593 22.5038 85.7893 22.7206 84.5586 22.719L81.9968 22.7158C81.9166 22.7157 81.8454 22.7676 81.8208 22.8443L80.0946 28.201C80.0699 28.2777 79.9988 28.3296 79.9186 28.3295L76.7473 28.3255ZM96.9716 16.8644L93.9865 22.0742C93.9154 22.1979 94.0041 22.3524 94.1464 22.3526L96.4902 22.3555C96.5872 22.3556 96.6676 22.2804 96.675 22.1832L97.0556 16.8712C97.0584 16.7845 97.0113 16.7927 96.9716 16.8644ZM100.002 28.1729C100 28.2738 99.9178 28.3544 99.8171 28.3543L96.4764 28.3501C96.3701 28.35 96.2861 28.2612 96.2916 28.1553L96.4219 25.4919C96.4274 25.386 96.3433 25.2972 96.2371 25.2971L92.2691 25.2921C92.204 25.292 92.1437 25.3263 92.1102 25.3824L90.4005 28.252C90.3671 28.3081 90.3067 28.3425 90.2417 28.3424L86.9352 28.3382C86.7902 28.338 86.7019 28.1777 86.7786 28.0541L96.7739 11.9569C96.8071 11.9025 96.8672 11.8694 96.9309 11.8695L100.201 11.8736C100.305 11.8738 100.388 11.9596 100.385 12.0638L100.002 28.1729ZM112.761 28.2418C112.736 28.3185 112.665 28.3704 112.585 28.3703L109.413 28.3663C109.288 28.3662 109.199 28.2433 109.238 28.1234L111.341 21.5972C111.379 21.4774 111.291 21.3544 111.165 21.3542L107.35 21.3494C107.27 21.3493 107.199 21.4012 107.174 21.4778L104.998 28.2321C104.973 28.3088 104.902 28.3607 104.822 28.3606L101.65 28.3566C101.525 28.3565 101.437 28.2336 101.475 28.1137L106.664 12.0105C106.689 11.9338 106.76 11.8819 106.84 11.882L110.011 11.886C110.137 11.886 110.225 12.009 110.187 12.1289L108.369 17.7699C108.331 17.8898 108.419 18.0127 108.545 18.0129L112.36 18.0176C112.44 18.0177 112.511 17.9658 112.536 17.8892L114.427 12.0201C114.451 11.9435 114.522 11.8916 114.603 11.8917L117.774 11.8957C117.899 11.8958 117.989 12.0187 117.95 12.1386L112.761 28.2418ZM125.482 22.512C125.496 22.4814 125.526 22.4617 125.559 22.4618L128.919 22.466C128.979 22.4661 129.02 22.5277 128.997 22.5832C127.444 26.2908 125.072 28.852 120.844 28.8467C119.569 28.8451 118.139 28.6143 117.197 27.6729C116.465 26.9422 116.193 25.9502 116.147 24.939C116.115 24.2631 116.183 23.5802 116.297 22.9145C116.443 22.0659 116.669 21.2308 116.932 20.4122C118.347 16.0208 121.163 11.4338 126.306 11.4403C128.159 11.4426 130.078 11.9599 130.659 13.9531C130.753 14.2761 130.803 14.6113 130.822 14.9469C130.841 15.2928 130.826 15.641 130.787 15.9851C130.727 16.5202 130.609 17.0525 130.451 17.5669C130.44 17.6023 130.408 17.6266 130.371 17.6265L127.058 17.6224C127.003 17.6223 126.963 17.5723 126.975 17.5195C127.03 17.2721 127.076 17.0218 127.103 16.7697C127.132 16.4935 127.141 16.205 127.098 15.9298C127.049 15.6107 126.931 15.3142 126.676 15.1061C126.339 14.8304 125.844 14.7778 125.424 14.7773C124.609 14.7762 123.941 15.0841 123.337 15.6214C122.077 16.7438 121.262 18.745 120.752 20.329C120.584 20.8509 120.435 21.3805 120.326 21.9182C120.244 22.323 120.182 22.7346 120.165 23.1478C120.143 23.66 120.188 24.2407 120.435 24.6987C120.763 25.306 121.349 25.5092 122.004 25.5101C122.303 25.5104 122.603 25.4783 122.892 25.397C123.43 25.2457 123.869 24.9417 124.248 24.5331C124.777 23.9626 125.17 23.2216 125.482 22.512ZM251.703 12.2076C251.742 12.0876 251.653 11.9646 251.528 11.9644L245.423 11.9569C245.358 11.9568 245.298 11.9904 245.265 12.0457L235.403 28.2539C235.328 28.3777 235.417 28.5366 235.561 28.5364L239.236 28.5321C239.301 28.532 239.36 28.4985 239.394 28.4434L246.214 17.25C246.247 17.1864 246.363 17.168 246.336 17.2512L242.761 28.289C242.722 28.4089 242.811 28.532 242.937 28.5322L246.285 28.5364C246.364 28.5365 246.435 28.4847 246.46 28.4081L251.703 12.2076Z" fill="white"/>
<path d="M5.44208 31.3553L5.56289 35.5321L5.5784 35.5317L5.59391 35.5311L5.44208 31.3553ZM18.9756 31.4512V27.2727H18.836L18.6967 27.2821L18.9756 31.4512ZM18.9492 31.3003L20.0286 35.3355L20.0955 35.3174L20.1617 35.2971L18.9492 31.3003ZM19.7576 31.0495L20.9964 35.0382L20.9977 35.0379L19.7576 31.0495ZM32.7 25.3804L35.2311 28.6953L35.2886 28.651L35.3446 28.6045L32.7 25.3804ZM29.0338 14.0573L25.2935 12.2331L25.2389 12.3462L25.1911 12.4623L29.0338 14.0573ZM34.6534 9.91006L33.2995 5.9593L33.2074 5.99117L33.117 6.02734L34.6534 9.91006ZM34.9461 10.1153L37.8373 13.1179L37.8458 13.1095L34.9461 10.1153ZM33.7991 11.8652L37.7139 13.2717L37.7191 13.2573L37.7241 13.2427L33.7991 11.8652ZM34.1529 14.4797L37.5694 12.0986L37.5401 12.0562L37.5098 12.0145L34.1529 14.4797ZM256.659 21.3268L256.665 17.1483H256.664L256.659 21.3268ZM255.631 25.2114L255.637 21.0329H255.636L255.631 25.2114ZM256.94 24.9515L255.049 21.2304L255.048 21.2306L256.94 24.9515ZM258.195 21.6584L255.233 24.5904L255.234 24.5917L258.195 21.6584ZM257.588 21.3857L256.848 25.4976L256.849 25.4979L257.588 21.3857ZM135.505 18.3585L131.357 18.0694L131.354 18.1223L131.351 18.1752L135.505 18.3585ZM135.482 18.3626L139.437 19.6501L139.46 19.5776L139.481 19.5043L135.482 18.3626ZM143.457 18.9636L139.522 17.6153L139.512 17.6457L139.501 17.6762L143.457 18.9636ZM143.321 18.901L139.803 16.6757L139.782 16.7079L139.762 16.7406L143.321 18.901ZM155.811 16.8197L159.413 18.9051L159.459 18.8251L159.501 18.7431L155.811 16.8197ZM155.836 16.8197L159.982 17.1197L159.994 16.9534L159.992 16.7867L155.836 16.8197ZM176.583 21.8659L180.505 23.2523L180.521 23.203L180.538 23.1534L176.583 21.8659ZM176.637 21.8807L179.712 24.6937L179.805 24.5915L179.89 24.4834L176.637 21.8807ZM196.889 16.8573L192.755 16.4126L192.755 16.4128L196.889 16.8573ZM196.884 16.0173L200.994 15.3822V15.381L196.884 16.0173ZM190.221 24.7861L186.566 26.779L186.567 26.7802L190.221 24.7861ZM191.79 25.5975L191.796 21.419H191.795L191.79 25.5975ZM194.034 24.6206L197.075 27.4705L197.075 27.4698L194.034 24.6206ZM231.08 16.885L227.52 14.7265L227.498 14.7628L227.477 14.7995L231.08 16.885ZM231.085 16.8864L235.232 17.1864L235.243 17.0366V16.8864H231.085ZM220.614 15.3627L220.608 19.5413H220.611L220.614 15.3627ZM220.654 15.3627L220.651 19.5413H220.652L220.654 15.3627ZM86.4495 15.1947L86.4443 19.3732H86.447L86.4495 15.1947ZM87.8863 15.9136L91.9547 15.0534L91.9544 15.0517L87.8863 15.9136ZM87.4949 15.3599L89.5118 11.706L89.5108 11.7055L87.4949 15.3599ZM86.4892 15.1947L86.4867 19.3732H86.4877L86.4892 15.1947ZM96.9708 16.8645L100.574 18.9499L100.588 18.9246L100.603 18.8992L96.9708 16.8645ZM97.0549 16.8713L101.201 17.1713L101.208 17.0816L101.21 16.9916L97.0549 16.8713ZM127.102 16.7698L131.236 17.2161V17.2147L127.102 16.7698ZM127.097 15.9299L122.988 16.5645L122.989 16.5668L127.097 15.9299ZM123.336 15.6215L120.58 12.4934L120.58 12.4938L123.336 15.6215ZM120.325 21.9183L116.252 21.0808V21.0821L120.325 21.9183ZM122.003 25.5102L122.009 21.3316H122.008L122.003 25.5102ZM122.891 25.3972L121.772 21.3727L121.771 21.373L122.891 25.3972ZM246.214 17.2501L249.759 19.4324L249.838 19.3021L249.908 19.1663L246.214 17.2501ZM246.336 17.2513L242.382 15.9563V15.9578L246.336 17.2513ZM31.5731 5.81903L30.9433 5.37575L26.174 12.2215L26.8039 12.6648L31.5731 5.81903ZM30.9433 5.37575C28.3942 3.58229 25.364 2.58212 22.1976 2.58212V10.9393C23.6033 10.9393 24.977 11.3792 26.174 12.2215L30.9433 5.37575ZM22.1976 2.58212C13.8268 2.58212 7.04417 9.40538 7.04417 17.8181H15.3591C15.3591 14.017 18.4228 10.9393 22.1976 10.9393V2.58212ZM7.04417 17.8181C7.04417 24.3896 11.2367 30.2215 17.432 32.2839L20.0463 24.3506C17.256 23.4217 15.3591 20.7885 15.3591 17.8181H7.04417ZM17.5052 24.3346C12.0984 26.0235 7.05358 27.1148 5.29025 27.1795L5.59391 35.5311C8.57174 35.4217 14.5556 34.0074 19.9729 32.3152L17.5052 24.3346ZM5.32127 27.1785L4.67697 27.1974L4.91859 35.551L5.56289 35.5321L5.32127 27.1785ZM0.460938 31.5598V34.1715H8.77582V31.5598H0.460938ZM4.80315 38.5358H62.6835V30.1786H4.80315V38.5358ZM62.6835 38.5358H259.379V30.1786H62.6835V38.5358ZM263.721 34.1715V31.5675H255.406V34.1715H263.721ZM259.379 27.2032H62.66V35.5604H259.379V27.2032ZM66.6051 30.7297C66.377 28.7763 66.0065 27.0312 65.582 25.4666L57.5599 27.665C57.8928 28.8916 58.1741 30.2251 58.3469 31.7039L66.6051 30.7297ZM65.582 25.4666C64.5104 21.5157 61.4373 18.1757 57.3944 16.3482L53.9839 23.9701C56.1023 24.9276 57.2346 26.4654 57.5599 27.665L65.582 25.4666ZM57.3944 16.3482C54.1001 14.8593 50.496 13.9519 47.5524 13.2017L45.5085 21.3023C48.5849 22.0865 51.4666 22.8323 53.9839 23.9701L57.3944 16.3482ZM47.5524 13.2017C45.2722 12.6205 43.4478 12.1493 41.9908 11.5872C40.4671 10.9992 40.0243 10.5539 39.9455 10.4448L33.2174 15.3554C34.7468 17.4722 37.0676 18.6393 39.0109 19.3891C41.0209 20.1646 43.3669 20.7565 45.5085 21.3023L47.5524 13.2017ZM40.365 14.4232C39.9958 15.2653 39.4622 15.4472 39.8614 15.2127C40.1268 15.0567 40.6292 14.8258 41.4251 14.5579C42.998 14.0286 45.1606 13.5372 47.5491 13.1363C49.9115 12.7398 52.363 12.4534 54.457 12.3005C56.6531 12.14 58.1507 12.1504 58.7551 12.23L59.8361 3.94383C58.3272 3.74499 56.1 3.80122 53.8542 3.96531C51.5064 4.13684 48.7989 4.45367 46.1796 4.89333C43.5863 5.32857 40.9445 5.90641 38.7847 6.63338C37.7142 6.99369 36.6181 7.43783 35.6648 7.998C34.8453 8.47959 33.4727 9.41876 32.756 11.0534L40.365 14.4232ZM63.643 8.27506L63.8802 5.52144L55.5962 4.80084L55.3591 7.55445L63.643 8.27506ZM59.9513 0.799401C55.1154 0.356206 48.9538 0.301202 43.0841 0.94945C37.3721 1.5803 31.2759 2.94185 27.0792 5.77608L31.7166 12.7128C34.1699 11.0559 38.5732 9.85509 43.9924 9.25659C49.2539 8.6755 54.8553 8.72418 59.1963 9.12202L59.9513 0.799401ZM18.9756 35.6298H59.3832V27.2727H18.9756V35.6298ZM17.8696 27.265C16.0326 27.7615 14.6559 29.4758 14.7242 31.5279C14.7626 32.6817 15.2857 33.9264 16.3996 34.7709C17.4481 35.5658 18.564 35.6671 19.2544 35.6203L18.6967 27.2821C19.3209 27.2399 20.3893 27.3276 21.4066 28.0987C22.4892 28.9195 22.9972 30.1304 23.0344 31.2484C23.1004 33.2287 21.7767 34.8631 20.0286 35.3355L17.8696 27.265ZM18.519 27.0607C18.2579 27.1426 17.9972 27.2235 17.7366 27.3033L20.1617 35.2971C20.4409 35.2116 20.7192 35.1252 20.9964 35.0382L18.519 27.0607ZM25.4524 24.5626C23.2329 25.4983 20.9017 26.3123 18.5177 27.0611L20.9977 35.0379C23.536 34.2407 26.1306 33.3391 28.6681 32.2695L25.4524 24.5626ZM30.1689 22.0655C29.0099 22.9595 27.3105 23.7795 25.4524 24.5626L28.6681 32.2695C30.57 31.4679 33.1474 30.3026 35.2311 28.6953L30.1689 22.0655ZM29.4541 22.7816C29.8371 23.2984 29.977 23.5699 30.0148 23.6569C30.044 23.7241 29.9175 23.4653 29.9501 22.9974C29.9662 22.7662 30.0177 22.5444 30.0931 22.347C30.1661 22.1558 30.2472 22.0251 30.2945 21.9576C30.3393 21.8938 30.3567 21.8823 30.3143 21.9252C30.2718 21.9683 30.1921 22.043 30.0553 22.1563L35.3446 28.6045C36.3177 27.7982 38.0624 26.1979 38.2447 23.5811C38.4112 21.1903 37.1617 19.1914 36.1221 17.7889L29.4541 22.7816ZM27.3926 20.2825C28.1136 21.0682 28.8115 21.9146 29.4541 22.7816L36.1221 17.7889C35.3093 16.6923 34.4265 15.621 33.5048 14.6166L27.3926 20.2825ZM27.2777 20.1674C27.3284 20.2182 27.36 20.2498 27.3855 20.2759C27.3972 20.2877 27.4034 20.2941 27.4057 20.2965C27.4083 20.2993 27.4032 20.2939 27.3926 20.2825L33.5048 14.6166C33.3728 14.4727 33.2184 14.3193 33.1482 14.2489L27.2777 20.1674ZM25.3405 17.6706C25.9731 18.9166 27.0473 19.9366 27.2777 20.1674L33.1482 14.2489C32.9621 14.0624 32.8396 13.9376 32.7371 13.819C32.6904 13.7649 32.6691 13.7362 32.6656 13.7313C32.6598 13.7232 32.6958 13.7714 32.7469 13.8721L25.3405 17.6706ZM25.1911 12.4623C24.9175 13.1284 24.6271 14.0435 24.6605 15.1315C24.6952 16.2659 25.0682 17.134 25.3405 17.6706L32.7469 13.8721C32.7446 13.8675 32.9528 14.2675 32.9714 14.8744C32.9886 15.4351 32.8307 15.7638 32.8764 15.6524L25.1911 12.4623ZM33.117 6.02734C29.4618 7.48845 26.6214 9.48264 25.2935 12.2331L32.7741 15.8816C32.7628 15.9051 33.2846 14.9542 36.1899 13.7928L33.117 6.02734ZM37.8458 13.1095C38.0639 12.8963 38.6733 12.2771 39.0027 11.279C39.1861 10.7232 39.3518 9.83048 39.0671 8.79631C38.7622 7.68878 38.0665 6.8779 37.3163 6.38223C36.0791 5.56488 34.8409 5.66371 34.5324 5.69063C34.0256 5.73487 33.5986 5.85574 33.2995 5.9593L36.0072 13.8609C35.896 13.8994 35.6302 13.9834 35.2518 14.0165C35.0716 14.0322 33.9291 14.1455 32.7488 13.3656C32.0271 12.8887 31.35 12.1024 31.0534 11.0249C30.7769 10.0207 30.9405 9.16359 31.1105 8.64843C31.413 7.73159 31.9509 7.21427 32.0463 7.12088L37.8458 13.1095ZM37.7241 13.2427C37.7185 13.2589 37.7147 13.2613 37.7252 13.2457C37.737 13.2278 37.7692 13.1842 37.8373 13.1179L32.0548 7.11257C31.1729 7.97046 30.3623 9.08255 29.8741 10.4876L37.7241 13.2427ZM37.5098 12.0145C37.5811 12.1126 37.6557 12.2527 37.7077 12.4256C37.7582 12.5934 37.7747 12.7491 37.7744 12.8766C37.7742 13.0002 37.7585 13.0969 37.7443 13.1613C37.7294 13.2286 37.7122 13.2763 37.7139 13.2717L29.8842 10.4587C29.6471 11.1256 28.6851 14.0408 30.796 16.9447L37.5098 12.0145ZM42.985 14.9824C40.144 14.1328 38.3677 13.2558 37.5694 12.0986L30.7364 16.8606C33.3734 20.683 37.9031 22.182 40.6138 22.9925L42.985 14.9824ZM47.0422 16.074C45.6158 15.7108 44.2864 15.3716 42.985 14.9824L40.6138 22.9925C42.1062 23.4389 43.6013 23.8189 45.0001 24.1751L47.0422 16.074ZM52.241 17.5063C50.4682 16.9452 48.688 16.4931 47.0422 16.074L45.0001 24.1751C46.6839 24.604 48.2341 24.9998 49.7434 25.4776L52.241 17.5063ZM56.2098 18.9987C54.8757 18.3957 53.5309 17.9145 52.241 17.5063L49.7434 25.4776C50.8356 25.8232 51.8543 26.1934 52.7992 26.6205L56.2098 18.9987ZM62.7943 26.2316C61.7896 22.5282 58.74 20.1423 56.2098 18.9987L52.7992 26.6205C54.0304 27.177 54.6569 28.0044 54.7723 28.43L62.7943 26.2316ZM63.689 30.7073C63.4945 29.1961 63.195 27.7084 62.7943 26.2316L54.7723 28.43C55.0762 29.5502 55.299 30.6616 55.4428 31.779L63.689 30.7073ZM254.88 25.5032L256.653 25.5054L256.664 17.1483L254.89 17.146L254.88 25.5032ZM257.532 26.2537L258.664 22.7406L250.754 20.1656L249.622 23.6787L257.532 26.2537ZM255.636 21.0329L253.757 21.0305L253.747 29.3877L255.626 29.39L255.636 21.0329ZM255.048 21.2306C255.256 21.1241 255.449 21.0706 255.585 21.0465C255.701 21.0263 255.745 21.033 255.637 21.0329L255.625 29.39C256.349 29.391 257.55 29.3309 258.832 28.6723L255.048 21.2306ZM254.265 21.9576C254.241 22.0316 254.252 21.9621 254.351 21.8211C254.464 21.6618 254.687 21.4161 255.049 21.2304L258.831 28.6726C260.917 27.6017 261.797 25.7081 262.175 24.5333L254.265 21.9576ZM255.234 24.5917C254.68 24.0256 254.432 23.4015 254.33 22.9617C254.233 22.547 254.246 22.2342 254.256 22.1071C254.274 21.8831 254.318 21.7942 254.265 21.9576L262.175 24.5333C262.265 24.2527 262.484 23.5605 262.546 22.7486C262.599 22.0716 262.63 20.2275 261.156 18.7253L255.234 24.5917ZM256.849 25.4979C256.793 25.4876 256.6 25.4505 256.343 25.3453C256.085 25.2394 255.656 25.0208 255.233 24.5904L261.158 18.7266C260.059 17.605 258.738 17.3482 258.327 17.2736L256.849 25.4979ZM256.653 25.5054C256.726 25.5055 256.779 25.5057 256.826 25.5064C256.871 25.5072 256.9 25.5082 256.919 25.5091C256.959 25.5112 256.926 25.5117 256.848 25.4976L258.328 17.2738C257.611 17.1434 256.943 17.1486 256.665 17.1483L256.653 25.5054ZM257.484 7.89223L254.312 7.88825L254.302 16.2454L257.473 16.2493L257.484 7.89223ZM259.859 19.0326L261.609 13.6013L253.699 11.0261L251.948 16.4574L259.859 19.0326ZM258.589 13.8127L256.084 13.8094L256.074 22.1666L258.579 22.1698L258.589 13.8127ZM265.74 17.6244C263.884 14.0243 259.98 13.8143 258.589 13.8127L258.579 22.1698C258.762 22.17 258.907 22.1803 259.013 22.1952C259.123 22.2103 259.153 22.2248 259.124 22.2141C259.092 22.2024 258.967 22.1516 258.806 22.0217C258.634 21.8824 258.472 21.6921 258.357 21.4689L265.74 17.6244ZM265.905 24.7298C266.147 23.9768 266.423 22.9418 266.509 21.8018C266.594 20.6867 266.522 19.1417 265.74 17.6244L258.357 21.4689C258.259 21.2788 258.231 21.1357 258.224 21.0888C258.218 21.0458 258.227 21.0671 258.218 21.1693C258.211 21.2692 258.192 21.4086 258.151 21.5876C258.112 21.7645 258.059 21.9553 257.995 22.1549L265.905 24.7298ZM255.208 32.7277C257.679 32.7307 260.067 32.1503 262.078 30.586C264.051 29.0506 265.197 26.9248 265.905 24.7298L257.995 22.1549C257.599 23.3851 257.197 23.8149 256.987 23.9776C256.815 24.1116 256.386 24.372 255.218 24.3705L255.208 32.7277ZM249.112 32.72L255.208 32.7277L255.218 24.3705L249.123 24.3628L249.112 32.72ZM250.176 10.9077L244.987 27.0109L252.897 29.5859L258.086 13.4828L250.176 10.9077ZM135.253 32.5774L137.501 32.5802L137.512 24.2231L135.265 24.2203L135.253 32.5774ZM131.351 18.1752L130.921 28.0217L139.228 28.3883L139.658 18.5418L131.351 18.1752ZM139.481 19.5043C139.276 20.2304 138.195 22.6437 135.321 22.5217C132.503 22.4021 131.232 19.8925 131.357 18.0694L139.652 18.6475C139.779 16.8113 138.499 14.292 135.671 14.172C132.787 14.0496 131.695 16.4715 131.482 17.2208L139.481 19.5043ZM136.246 29.5539L139.437 19.6501L131.527 17.075L128.335 26.9789L136.246 29.5539ZM128.938 32.5694L132.109 32.5734L132.12 24.2163L128.948 24.2124L128.938 32.5694ZM130.001 10.7572L124.812 26.8605L132.723 29.4355L137.911 13.3323L130.001 10.7572ZM138.57 7.74319L134.137 7.73767L134.127 16.0948L138.56 16.1003L138.57 7.74319ZM142.469 21.7855L142.902 12.308L134.597 11.9239L134.162 21.4013L142.469 21.7855ZM140.893 9.86428L135.096 19.5427L142.22 23.8527L148.017 14.1742L140.893 9.86428ZM149.034 7.75638L144.619 7.75079L144.609 16.1079L149.024 16.1135L149.034 7.75638ZM147.971 29.5685L153.16 13.4654L145.25 10.8904L140.06 26.9935L147.971 29.5685ZM140.663 32.5841L143.834 32.5881L143.845 24.231L140.674 24.227L140.663 32.5841ZM139.501 17.6762L136.538 26.8751L144.448 29.4501L147.413 20.2512L139.501 17.6762ZM146.84 21.1265C146.445 21.7573 145.734 22.4871 144.633 22.8392C143.522 23.1942 142.375 23.0422 141.446 22.538C139.589 21.5292 138.92 19.3885 139.522 17.6153L147.392 20.312C148.024 18.4482 147.317 16.2278 145.4 15.1861C144.442 14.6655 143.258 14.5087 142.112 14.8753C140.975 15.2389 140.228 15.9964 139.803 16.6757L146.84 21.1265ZM141.224 30.4724L146.879 21.0616L139.762 16.7406L134.107 26.1514L141.224 30.4724ZM156.359 24.2333L159.413 18.9051L152.207 14.7342L149.154 20.0623L156.359 24.2333ZM155.266 18.2506L152.922 18.2476L152.911 26.6048L155.256 26.6077L155.266 18.2506ZM151.688 16.5195L151.299 21.9567L159.592 22.5568L159.982 17.1197L151.688 16.5195ZM159.501 18.7431C159.326 19.0828 158.992 19.6126 158.398 20.0852C157.799 20.5624 156.716 21.1285 155.311 20.952C152.129 20.5522 151.684 17.5618 151.678 16.8525L159.992 16.7867C159.986 16.0613 159.534 13.0603 156.343 12.6594C154.932 12.4822 153.845 13.05 153.239 13.5318C152.639 14.0089 152.3 14.546 152.12 14.8961L159.501 18.7431ZM155.241 32.6024L158.582 32.6066L158.593 24.2494L155.252 24.2453L155.241 32.6024ZM151.04 25.3606L150.909 28.024L159.215 28.434L159.344 25.7706L151.04 25.3606ZM151.035 29.5444L155.003 29.5493L155.013 21.1922L151.045 21.1873L151.035 29.5444ZM152.738 30.4725L154.448 27.603L147.315 23.3093L145.605 26.1788L152.738 30.4725ZM145.701 32.5905L149.007 32.5945L149.017 24.2374L145.711 24.2334L145.701 32.5905ZM152.017 9.81841L142.023 25.9156L149.076 30.3401L159.071 14.243L152.017 9.81841ZM158.977 7.76883L155.706 7.76473L155.696 16.1218L158.967 16.126L158.977 7.76883ZM162.929 28.3466L163.312 12.2374L154.999 12.0376L154.616 28.1468L162.929 28.3466ZM177.571 16.4627L178.526 13.4971L170.616 10.922L169.66 13.8875L177.571 16.4627ZM168.095 19.4754L173.434 19.4821L173.445 11.125L168.106 11.1182L168.095 19.4754ZM167.729 29.5934L171.88 16.7129L163.969 14.1378L159.819 27.0183L167.729 29.5934ZM160.422 32.6089L163.593 32.6129L163.603 24.2557L160.432 24.2518L160.422 32.6089ZM161.485 10.7967L156.296 26.9L164.207 29.475L169.395 13.3717L161.485 10.7967ZM174.401 7.78808L165.621 7.77712L165.611 16.1343L174.391 16.1452L174.401 7.78808ZM179.522 7.79453L176.35 7.79054L176.34 16.1476L179.512 16.1516L179.522 7.79453ZM180.538 23.1534L183.648 13.5035L175.737 10.9285L172.628 20.5783L180.538 23.1534ZM173.563 19.0678C173.797 18.8098 174.156 18.4807 174.666 18.2094C175.08 17.9888 176.122 17.5284 177.473 17.8236C179.239 18.2094 180.333 19.6026 180.639 20.9936C180.876 22.0756 180.618 22.9297 180.505 23.2523L172.661 20.4794C172.539 20.8269 172.279 21.7003 172.519 22.7959C172.827 24.2006 173.93 25.6019 175.707 25.9901C177.07 26.2877 178.126 25.8243 178.557 25.5949C179.083 25.315 179.46 24.9716 179.712 24.6937L173.563 19.0678ZM181.173 9.44671L173.385 19.278L179.89 24.4834L187.678 14.6522L181.173 9.44671ZM187.748 7.80479L184.575 7.80087L184.565 16.158L187.738 16.1619L187.748 7.80479ZM186.685 29.617L191.874 13.5138L183.964 10.9387L178.774 27.042L186.685 29.617ZM179.377 32.6326L182.548 32.6366L182.559 24.2794L179.387 24.2754L179.377 32.6326ZM178.438 17.0339L175.252 26.9235L183.162 29.4986L186.348 19.6089L178.438 17.0339ZM177.734 30.9694L185.643 20.9205L179.121 15.7362L171.213 25.785L177.734 30.9694ZM171.151 32.6224L174.323 32.6263L174.333 24.2691L171.161 24.2652L171.151 32.6224ZM172.214 10.8101L167.026 26.9133L174.936 29.4883L180.124 13.3851L172.214 10.8101ZM198.711 18.3749L195.351 18.3707L195.34 26.7279L198.701 26.7321L198.711 18.3749ZM190.625 33.1128C193.661 33.1166 196.269 32.1676 198.373 30.4033C200.386 28.7154 201.695 26.4863 202.614 24.2922L194.951 21.049C194.317 22.5626 193.665 23.4679 193.046 23.9863C192.519 24.4281 191.827 24.7572 190.635 24.7557L190.625 33.1128ZM184.053 30.724C186.216 32.8858 189.099 33.1109 190.625 33.1128L190.635 24.7557C190.219 24.7551 189.942 24.7145 189.785 24.6711C189.64 24.631 189.748 24.6307 189.914 24.7965L184.053 30.724ZM181.779 25.2189C181.852 26.789 182.3 28.9732 184.053 30.724L189.914 24.7965C189.975 24.858 190.024 24.9226 190.06 24.9814C190.096 25.0386 190.111 25.0795 190.116 25.093C190.121 25.1056 190.115 25.0925 190.107 25.0468C190.098 25.0009 190.09 24.9309 190.085 24.8334L181.779 25.2189ZM181.987 22.2899C181.839 23.145 181.73 24.1467 181.779 25.2189L190.085 24.8334C190.072 24.5537 190.097 24.1905 190.18 23.7139L181.987 22.2899ZM182.763 19.212C182.46 20.1533 182.176 21.1886 181.987 22.2899L190.18 23.7139C190.282 23.1182 190.449 22.483 190.674 21.7869L182.763 19.212ZM196.097 7.34917C192.124 7.3442 189.071 9.17306 186.922 11.5631C184.857 13.8602 183.567 16.715 182.763 19.212L190.673 21.7872C191.284 19.893 192.11 18.2587 193.092 17.1659C193.991 16.1663 194.917 15.7048 196.087 15.7063L196.097 7.34917ZM204.434 12.8657C203.775 10.6059 202.268 9.10317 200.546 8.27165C198.977 7.51284 197.334 7.35075 196.097 7.34917L196.087 15.7063C196.366 15.7067 196.586 15.7269 196.748 15.7557C196.912 15.7849 196.966 15.8138 196.944 15.8035C196.913 15.7885 196.797 15.7248 196.671 15.5819C196.538 15.4308 196.475 15.285 196.455 15.2159L204.434 12.8657ZM204.759 14.8029C204.726 14.2052 204.633 13.5465 204.434 12.8657L196.455 15.2159C196.449 15.1973 196.449 15.1911 196.451 15.2002C196.452 15.2095 196.455 15.2311 196.456 15.2663L204.759 14.8029ZM204.705 16.5421C204.765 16.005 204.794 15.4193 204.759 14.8029L196.456 15.2663C196.461 15.3416 196.459 15.4521 196.443 15.6029L204.705 16.5421ZM204.211 18.8848C204.431 18.1638 204.612 17.3755 204.705 16.5421L196.443 15.6029C196.416 15.84 196.359 16.1162 196.264 16.424L204.211 18.8848ZM196.838 21.8884L200.152 21.8924L200.162 13.5353L196.848 13.5312L196.838 21.8884ZM192.755 16.4128C192.75 16.4609 192.737 16.5483 192.704 16.697L200.819 18.5172C200.896 18.1711 200.974 17.7576 201.022 17.3016L192.755 16.4128ZM192.775 16.6523C192.757 16.5362 192.756 16.4557 192.756 16.4228C192.756 16.3895 192.758 16.3834 192.755 16.4126L201.022 17.3016C201.073 16.8278 201.11 16.1463 200.994 15.3822L192.775 16.6523ZM193.839 18.4356C193.007 17.7556 192.816 16.9187 192.776 16.6536L200.994 15.381C200.855 14.4779 200.426 13.0477 199.085 11.9512L193.839 18.4356ZM195.205 19.0434C195.269 19.0435 195.17 19.05 194.985 19.0094C194.804 18.9699 194.337 18.8429 193.839 18.4356L199.085 11.9512C197.53 10.6808 195.701 10.6868 195.215 10.6863L195.205 19.0434ZM195.881 18.8367C195.907 18.8134 195.841 18.8774 195.685 18.9429C195.515 19.014 195.34 19.0436 195.205 19.0434L195.215 10.6863C193.199 10.6837 191.582 11.499 190.366 12.5815L195.881 18.8367ZM194.493 21.7039C195.004 20.1177 195.548 19.1325 195.881 18.8367L190.367 12.5812C188.178 14.5303 187.092 17.5475 186.583 19.1291L194.493 21.7039ZM194.186 22.8432C194.255 22.5012 194.357 22.1272 194.493 21.7039L186.583 19.1291C186.383 19.7498 186.188 20.4357 186.039 21.1692L194.186 22.8432ZM194.104 23.4133C194.11 23.2891 194.131 23.1085 194.186 22.8432L186.039 21.1692C185.928 21.7134 185.827 22.3552 185.798 23.0572L194.104 23.4133ZM193.875 22.7933C194.047 23.1111 194.088 23.3537 194.098 23.4185C194.108 23.4898 194.102 23.4953 194.104 23.4133L185.798 23.0572C185.766 23.7954 185.773 25.3083 186.566 26.779L193.875 22.7933ZM191.795 21.419C191.864 21.4191 192.202 21.4261 192.646 21.6355C193.157 21.8762 193.603 22.2892 193.874 22.7921L186.567 26.7802C187.9 29.2484 190.298 29.7743 191.784 29.7761L191.795 21.419ZM191.559 21.4603C191.711 21.4177 191.801 21.419 191.796 21.419L191.784 29.7761C192.378 29.7769 193.067 29.7141 193.798 29.5089L191.559 21.4603ZM190.994 21.7708C190.999 21.7656 191.052 21.7099 191.157 21.6414C191.268 21.5692 191.406 21.5034 191.558 21.4605L193.798 29.5089C195.219 29.1091 196.29 28.3158 197.075 27.4705L190.994 21.7708ZM191.467 20.9081C191.351 21.1699 191.249 21.3748 191.155 21.534C191.06 21.6955 191.002 21.7617 190.994 21.7708L197.075 27.4698C198.082 26.3852 198.698 25.1356 199.07 24.2909L191.467 20.9081ZM201.796 32.6607L204.968 32.6647L204.978 24.3076L201.807 24.3036L201.796 32.6607ZM201.748 14.299L197.671 26.9517L205.582 29.5268L209.659 16.8742L201.748 14.299ZM202.091 19.518L205.522 19.5223L205.533 11.1651L202.101 11.1608L202.091 19.518ZM198.92 10.8436L197.965 13.8091L205.875 16.384L206.832 13.4184L198.92 10.8436ZM214.107 7.83779L203.058 7.82394L203.046 16.1811L214.097 16.1949L214.107 7.83779ZM217.277 16.5124L218.233 13.5468L210.322 10.9718L209.367 13.9373L217.277 16.5124ZM209.47 19.5272L213.141 19.5319L213.151 11.1748L209.481 11.17L209.47 19.5272ZM209.104 29.6452L213.255 16.7647L205.345 14.1897L201.194 27.0702L209.104 29.6452ZM231.607 24.3363L234.682 18.9704L227.477 14.7995L224.402 20.1655L231.607 24.3363ZM230.514 18.3537L228.169 18.3508L228.159 26.7078L230.503 26.7108L230.514 18.3537ZM226.939 16.5864L226.546 22.0599L234.84 22.6598L235.232 17.1864L226.939 16.5864ZM234.639 19.0435C233.993 20.1212 232.373 21.4755 230.14 20.9525C227.733 20.3891 226.928 18.2272 226.928 16.8864H235.243C235.243 15.5418 234.435 13.3774 232.027 12.8134C229.791 12.2899 228.169 13.6455 227.52 14.7265L234.639 19.0435ZM238.253 28.4334L238.561 12.3201L230.248 12.1592L229.94 28.2725L238.253 28.4334ZM230.485 32.7057L233.901 32.7136L233.921 24.3565L230.504 24.3486L230.485 32.7057ZM226.288 25.4638L226.157 28.1275L234.463 28.5372L234.592 25.8735L226.288 25.4638ZM226.282 29.6474L230.251 29.6524L230.261 21.2953L226.293 21.2903L226.282 29.6474ZM227.986 30.5756L229.696 27.7059L222.562 23.4123L220.852 26.282L227.986 30.5756ZM220.948 32.6935L224.255 32.6977L224.265 24.3405L220.959 24.3363L220.948 32.6935ZM227.265 9.92139L217.27 26.0185L224.324 30.4431L234.319 14.3459L227.265 9.92139ZM234.225 7.8718L230.954 7.8677L230.944 16.2248L234.215 16.2289L234.225 7.8718ZM218.58 19.5387L220.608 19.5413L220.62 11.1842L218.591 11.1816L218.58 19.5387ZM221.134 20.5922L222.364 16.7762L214.454 14.201L213.224 18.017L221.134 20.5922ZM219.215 15.3713L217.36 15.3689L217.35 23.7261L219.205 23.7283L219.215 15.3713ZM217.936 16.0868C217.828 16.4212 217.843 16.155 218.223 15.8239C218.426 15.6463 218.66 15.5164 218.885 15.4406C219.097 15.3697 219.226 15.3713 219.215 15.3713L219.205 23.7283C220.748 23.7303 222.343 23.2958 223.676 22.133C224.907 21.0578 225.51 19.703 225.846 18.6623L217.936 16.0868ZM217.983 16.9417C217.928 16.6822 217.92 16.4756 217.922 16.3478C217.924 16.2178 217.936 16.1272 217.942 16.0855C217.953 16.013 217.961 16.0071 217.935 16.0876L225.846 18.6623C225.976 18.256 226.451 16.8066 226.119 15.2216L217.983 16.9417ZM219.643 19.1824C219.222 18.9476 218.82 18.6004 218.504 18.1444C218.198 17.7014 218.05 17.2681 217.983 16.9417L226.119 15.2216C225.857 13.9674 225.096 12.6651 223.676 11.8736L219.643 19.1824ZM220.652 19.5413C220.745 19.5413 220.77 19.5416 220.786 19.542C220.796 19.5424 220.753 19.5417 220.679 19.5328C220.551 19.5175 220.137 19.4574 219.643 19.1824L223.676 11.8736C222.267 11.088 220.723 11.1842 220.655 11.1842L220.652 19.5413ZM220.611 19.5413H220.651L220.656 11.1842H220.617L220.611 19.5413ZM211.969 10.8599L206.781 26.963L214.691 29.5381L219.88 13.435L211.969 10.8599ZM222.243 7.84797L216.105 7.84038L216.095 16.1975L222.233 16.2051L222.243 7.84797ZM228.294 10.0534C226.244 7.98114 223.445 7.84961 222.243 7.84797L222.233 16.2051C222.387 16.2053 222.519 16.2121 222.631 16.2237C222.743 16.2355 222.812 16.2502 222.841 16.2581C222.873 16.2662 222.837 16.2605 222.758 16.2193C222.676 16.1762 222.542 16.0916 222.397 15.9454L228.294 10.0534ZM229.627 18.6954C229.901 17.8473 230.247 16.5572 230.255 15.1415C230.262 13.7018 229.911 11.6879 228.294 10.0534L222.397 15.9454C222.175 15.7209 222.047 15.4721 221.986 15.2838C221.931 15.1169 221.94 15.037 221.94 15.0959C221.94 15.1532 221.93 15.277 221.891 15.4743C221.852 15.6673 221.793 15.8845 221.717 16.1203L229.627 18.6954ZM224.212 25.7332C227.29 24.033 228.839 21.1433 229.627 18.6954L221.717 16.1203C221.276 17.4881 220.714 18.1298 220.207 18.4096L224.212 25.7332ZM218.717 27.0658C220.445 27.068 222.353 26.7605 224.212 25.7332L220.207 18.4096C219.892 18.5836 219.461 18.7096 218.727 18.7086L218.717 27.0658ZM216.155 27.0625L218.717 27.0658L218.727 18.7086L216.166 18.7054L216.155 27.0625ZM218.214 29.6565L219.94 24.3L212.029 21.7249L210.304 27.0815L218.214 29.6565ZM210.906 32.672L214.078 32.676L214.088 24.3189L210.916 24.3149L210.906 32.672ZM67.2838 32.4922L70.4551 32.4962L70.4656 24.139L67.2942 24.135L67.2838 32.4922ZM67.2355 14.1306L63.1583 26.7831L71.0687 29.3582L75.1458 16.7057L67.2355 14.1306ZM67.5782 19.3495L71.01 19.3538L71.0203 10.9967L67.5883 10.9924L67.5782 19.3495ZM64.4082 10.675L63.4525 13.6405L71.3628 16.2156L72.3185 13.2501L64.4082 10.675ZM79.5945 7.66934L68.5445 7.65548L68.5342 16.0126L79.5841 16.0265L79.5945 7.66934ZM82.7644 16.3439L83.7199 13.3784L75.8097 10.8033L74.8541 13.7688L82.7644 16.3439ZM74.9578 19.3587L78.6279 19.3634L78.6384 11.0062L74.9683 11.0016L74.9578 19.3587ZM74.5915 29.4766L78.7422 16.5962L70.8319 14.0211L66.6812 26.9015L74.5915 29.4766ZM84.4153 19.3706L86.4443 19.3732L86.4548 11.0161L84.426 11.0135L84.4153 19.3706ZM86.97 20.4241L88.1998 16.6081L80.2895 14.0329L79.0597 17.8489L86.97 20.4241ZM85.0512 15.2032L83.1956 15.2009L83.1853 23.558L85.0408 23.5603L85.0512 15.2032ZM83.7706 15.9191C83.6629 16.2533 83.679 15.987 84.0583 15.656C84.2617 15.4783 84.4954 15.3483 84.7211 15.2726C84.9326 15.2016 85.062 15.2032 85.0512 15.2032L85.0408 23.5603C86.5829 23.5622 88.1795 23.1277 89.5113 21.965C90.743 20.8895 91.3457 19.5347 91.681 18.4939L83.7706 15.9191ZM83.818 16.774C83.7636 16.5143 83.7557 16.3072 83.7574 16.1793C83.7589 16.0493 83.771 15.9585 83.7776 15.9169C83.7889 15.8445 83.7966 15.8382 83.7706 15.9191L91.681 18.4939C91.8114 18.0886 92.2867 16.639 91.9547 15.0534L83.818 16.774ZM85.4779 19.0138C85.0566 18.7788 84.6547 18.4318 84.3398 17.9765C84.0338 17.5341 83.8867 17.1014 83.8183 16.7755L91.9544 15.0517C91.6917 13.7993 90.9314 12.4976 89.5118 11.706L85.4779 19.0138ZM86.4877 19.3732C86.5803 19.3732 86.6055 19.3735 86.6209 19.374C86.6313 19.3743 86.5886 19.3736 86.5143 19.3647C86.3869 19.3495 85.9725 19.2895 85.4789 19.0143L89.5108 11.7055C88.1011 10.9199 86.5584 11.0161 86.4906 11.0161L86.4877 19.3732ZM86.447 19.3732H86.4867L86.4917 11.0161H86.452L86.447 19.3732ZM77.805 10.6918L72.6158 26.7951L80.5261 29.3701L85.7153 13.2669L77.805 10.6918ZM88.0782 7.68004L81.9414 7.67232L81.931 16.0294L88.0678 16.0371L88.0782 7.68004ZM94.1299 9.88555C92.0799 7.81316 89.2801 7.68153 88.0782 7.68004L88.0678 16.0371C88.2217 16.0373 88.3548 16.0441 88.4663 16.0557C88.579 16.0675 88.6472 16.0821 88.6775 16.0901C88.7083 16.0982 88.6729 16.0924 88.5944 16.0514C88.5119 16.0082 88.3776 15.9236 88.233 15.7773L94.1299 9.88555ZM95.463 18.5274C95.7365 17.6792 96.082 16.3891 96.0904 14.9734C96.0977 13.5337 95.7467 11.5199 94.1299 9.88555L88.233 15.7773C88.0109 15.5528 87.8828 15.3039 87.8211 15.1156C87.7665 14.9489 87.7757 14.869 87.7754 14.928C87.7751 14.9853 87.7662 15.109 87.7264 15.3064C87.6876 15.4993 87.6288 15.7165 87.5528 15.9523L95.463 18.5274ZM90.0482 25.5651C93.1254 23.8648 94.6741 20.9751 95.463 18.5274L87.5528 15.9523C87.1119 17.3203 86.5491 17.9617 86.0426 18.2417L90.0482 25.5651ZM84.5525 26.8977C86.2807 26.8999 88.1887 26.5925 90.0482 25.5651L86.0426 18.2417C85.728 18.4155 85.2963 18.5416 84.5632 18.5406L84.5525 26.8977ZM81.9907 26.8945L84.5525 26.8977L84.5632 18.5406L82.0013 18.5373L81.9907 26.8945ZM84.049 29.4885L85.7751 24.132L77.8648 21.5569L76.1387 26.9135L84.049 29.4885ZM76.7414 32.5042L79.9127 32.5082L79.923 24.151L76.7517 24.147L76.7414 32.5042ZM97.588 24.1597L100.574 18.9499L93.3686 14.779L90.3829 19.9889L97.588 24.1597ZM96.495 18.177L94.1511 18.1742L94.1401 26.5312L96.4848 26.5342L96.495 18.177ZM92.9076 16.5713L92.5279 21.8832L100.821 22.4833L101.201 17.1713L92.9076 16.5713ZM100.603 18.8992C100.479 19.122 100.251 19.4826 99.8699 19.8477C99.6048 20.101 98.6393 20.9694 97.0743 20.9868C94.9586 21.0103 93.7151 19.5573 93.2596 18.5444C92.8864 17.7131 92.8919 16.9905 92.8993 16.7509L101.21 16.9916C101.219 16.7087 101.22 15.9546 100.837 15.1027C100.373 14.0691 99.1151 12.6064 96.9828 12.6301C95.4011 12.6477 94.4172 13.5261 94.1327 13.7985C93.7317 14.1826 93.4832 14.5712 93.34 14.8297L100.603 18.8992ZM96.4701 32.5288L99.8108 32.5329L99.8219 24.1758L96.4802 24.1716L96.4701 32.5288ZM92.2687 25.287L92.1385 27.9503L100.444 28.3604L100.574 25.6971L92.2687 25.287ZM92.263 29.4708L96.2317 29.4758L96.2419 21.1187L92.2735 21.1136L92.263 29.4708ZM93.9664 30.399L95.6765 27.5293L88.5428 23.2357L86.8329 26.1054L93.9664 30.399ZM86.9291 32.5169L90.2358 32.5211L90.2462 24.1639L86.9396 24.1597L86.9291 32.5169ZM93.2457 9.74478L83.2509 25.8419L90.3048 30.2665L100.3 14.1693L93.2457 9.74478ZM100.205 7.69519L96.9348 7.69108L96.9246 16.0482L100.195 16.0523L100.205 7.69519ZM104.158 28.2729L104.541 12.1638L96.228 11.964L95.8446 28.0732L104.158 28.2729ZM109.407 32.545L112.579 32.549L112.589 24.1919L109.418 24.1879L109.407 32.545ZM107.385 20.3098L105.282 26.836L113.192 29.4111L115.295 22.8848L107.385 20.3098ZM107.344 25.5281L111.159 25.5329L111.17 17.1758L107.355 17.1709L107.344 25.5281ZM108.953 29.5197L111.128 22.7655L103.218 20.1905L101.041 26.9447L108.953 29.5197ZM101.645 32.5353L104.815 32.5393L104.827 24.1821L101.655 24.1781L101.645 32.5353ZM102.708 10.723L97.5187 26.8262L105.429 29.4013L110.618 13.298L102.708 10.723ZM110.016 7.70746L106.844 7.70349L106.834 16.0606L110.006 16.0646L110.016 7.70746ZM112.324 19.0575L114.141 13.4165L106.231 10.8414L104.414 16.4825L112.324 19.0575ZM112.364 13.8391L108.549 13.8344L108.539 22.1915L112.353 22.1963L112.364 13.8391ZM110.47 10.7328L108.58 16.6018L116.49 19.1766L118.382 13.3077L110.47 10.7328ZM117.778 7.71719L114.608 7.71322L114.597 16.0704L117.768 16.0743L117.778 7.71719ZM116.715 29.5295L121.904 13.4262L113.994 10.8512L108.805 26.9545L116.715 29.5295ZM128.924 18.2875L125.564 18.2834L125.554 26.6405L128.913 26.6447L128.924 18.2875ZM120.837 33.0254C123.874 33.0292 126.482 32.0803 128.586 30.3159C130.599 28.6281 131.908 26.399 132.827 24.205L125.164 20.9617C124.53 22.4752 123.878 23.3804 123.26 23.8988C122.732 24.3406 122.04 24.6697 120.848 24.6682L120.837 33.0254ZM114.266 30.6369C116.429 32.7983 119.312 33.0235 120.837 33.0254L120.848 24.6682C120.433 24.6677 120.155 24.627 119.998 24.5837C119.853 24.5435 119.961 24.5431 120.127 24.7091L114.266 30.6369ZM111.992 25.1315C112.064 26.7021 112.513 28.886 114.266 30.6369L120.127 24.7091C120.189 24.7705 120.238 24.8351 120.274 24.8939C120.308 24.9512 120.325 24.9921 120.329 25.0058C120.334 25.0184 120.328 25.0054 120.32 24.9598C120.312 24.914 120.303 24.8439 120.299 24.7465L111.992 25.1315ZM112.2 22.2025C112.052 23.0575 111.943 24.0594 111.992 25.1315L120.299 24.7465C120.286 24.4668 120.311 24.103 120.393 23.6267L112.2 22.2025ZM112.976 19.1249C112.673 20.0662 112.389 21.1009 112.2 22.2025L120.393 23.6267C120.495 23.0311 120.663 22.3956 120.886 21.6997L112.976 19.1249ZM126.31 7.26185C122.337 7.25687 119.284 9.08569 117.135 11.4757C115.07 13.7728 113.781 16.6276 112.976 19.1249L120.886 21.6997C121.497 19.8055 122.323 18.1712 123.305 17.0785C124.204 16.0789 125.131 15.6175 126.3 15.619L126.31 7.26185ZM134.647 12.7784C133.989 10.5186 132.481 9.01579 130.76 8.18427C129.19 7.42544 127.546 7.26335 126.31 7.26185L126.3 15.619C126.579 15.6193 126.799 15.6395 126.961 15.6683C127.125 15.6975 127.179 15.7264 127.158 15.7161C127.126 15.7011 127.011 15.6374 126.884 15.4944C126.751 15.3433 126.688 15.1974 126.668 15.1283L134.647 12.7784ZM134.973 14.7156C134.939 14.1169 134.846 13.4582 134.647 12.7784L126.668 15.1283C126.662 15.1102 126.662 15.1043 126.664 15.1136C126.665 15.123 126.668 15.1443 126.67 15.179L134.973 14.7156ZM134.918 16.4546C134.978 15.9175 135.006 15.332 134.973 14.7156L126.67 15.179C126.674 15.2543 126.672 15.3646 126.656 15.5158L134.918 16.4546ZM134.424 18.7976C134.645 18.0765 134.825 17.2878 134.918 16.4546L126.656 15.5158C126.629 15.7528 126.572 16.0289 126.478 16.3362L134.424 18.7976ZM127.051 21.8011L130.364 21.8052L130.375 13.448L127.061 13.4439L127.051 21.8011ZM122.969 16.3235C122.963 16.3729 122.949 16.4615 122.916 16.6115L131.032 18.4278C131.109 18.083 131.187 17.6709 131.236 17.2161L122.969 16.3235ZM122.989 16.5668C122.971 16.4499 122.969 16.3688 122.97 16.3358C122.97 16.3022 122.971 16.2959 122.969 16.3249L131.236 17.2147C131.286 16.7411 131.324 16.0581 131.206 15.2929L122.989 16.5668ZM124.052 18.3481C123.221 17.6684 123.029 16.8318 122.988 16.5645L131.207 15.2952C131.068 14.3898 130.639 12.96 129.298 11.864L124.052 18.3481ZM125.418 18.9559C125.483 18.956 125.384 18.9626 125.198 18.9219C125.017 18.8824 124.55 18.7552 124.052 18.3481L129.298 11.864C127.743 10.5934 125.915 10.5994 125.428 10.5988L125.418 18.9559ZM126.093 18.7496C126.12 18.7259 126.054 18.7901 125.898 18.8555C125.728 18.9264 125.554 18.9561 125.418 18.9559L125.428 10.5988C123.412 10.5962 121.795 11.412 120.58 12.4934L126.093 18.7496ZM124.706 21.6168C125.217 20.0303 125.762 19.0449 126.094 18.7491L120.58 12.4938C118.391 14.4429 117.305 17.46 116.796 19.0414L124.706 21.6168ZM124.398 22.7558C124.468 22.4128 124.57 22.0394 124.706 21.6168L116.796 19.0414C116.596 19.6628 116.401 20.3484 116.252 21.0808L124.398 22.7558ZM124.318 23.3268C124.323 23.2023 124.344 23.0206 124.399 22.7545L116.252 21.0821C116.141 21.6257 116.041 22.268 116.011 22.97L124.318 23.3268ZM124.088 22.7054C124.259 23.0233 124.301 23.266 124.311 23.331C124.321 23.4024 124.315 23.408 124.318 23.3268L116.011 22.9689C115.979 23.7086 115.986 25.2214 116.781 26.692L124.088 22.7054ZM122.008 21.3316C122.077 21.3316 122.415 21.3386 122.86 21.548C123.371 21.7886 123.816 22.2018 124.088 22.7054L116.781 26.692C118.114 29.1612 120.512 29.6869 121.998 29.6886L122.008 21.3316ZM121.771 21.373C121.924 21.3302 122.015 21.3316 122.009 21.3316L121.998 29.6886C122.591 29.6895 123.28 29.6266 124.011 29.4213L121.771 21.373ZM121.207 21.6831C121.211 21.6779 121.264 21.6228 121.369 21.5541C121.481 21.4817 121.619 21.4157 121.772 21.3727L124.01 29.4216C125.433 29.0219 126.504 28.2278 127.289 27.3824L121.207 21.6831ZM121.68 20.8206C121.564 21.0826 121.462 21.2874 121.369 21.4465C121.273 21.6079 121.215 21.6743 121.207 21.6831L127.288 27.3832C128.295 26.2981 128.911 25.0477 129.283 24.2035L121.68 20.8206ZM245.416 16.1356L251.522 16.1431L251.532 7.78598L245.426 7.77841L245.416 16.1356ZM238.949 30.4339L248.811 14.2257L241.717 9.86586L231.856 26.0741L238.949 30.4339ZM239.231 24.3536L235.556 24.358L235.565 32.7151L239.241 32.7108L239.231 24.3536ZM242.668 15.068L235.848 26.2613L242.939 30.6257L249.759 19.4324L242.668 15.068ZM250.288 18.5462C250.518 17.8374 250.834 16.0679 249.492 14.4909C248.263 13.0474 246.65 12.9804 245.997 13.028C244.713 13.1214 243.282 13.8461 242.519 15.334L249.908 19.1663C249.177 20.5906 247.82 21.2743 246.597 21.3633C245.973 21.4087 244.386 21.3488 243.173 19.9232C241.846 18.3641 242.166 16.6235 242.382 15.9563L250.288 18.5462ZM246.713 29.5825L250.289 18.5446L242.382 15.9578L238.807 26.9957L246.713 29.5825ZM246.288 24.358L242.941 24.3537L242.931 32.7109L246.278 32.7151L246.288 24.358ZM247.749 10.9151L242.506 27.1157L250.413 29.7008L255.656 13.5002L247.749 10.9151ZM238.807 26.9957C237.894 29.8138 239.982 32.7071 242.931 32.7109L242.941 24.3537C245.639 24.3571 247.549 27.0042 246.713 29.5825L238.807 26.9957ZM239.241 32.7108C240.751 32.709 242.15 31.9194 242.939 30.6257L235.848 26.2613C236.569 25.0776 237.85 24.3553 239.231 24.3536L239.241 32.7108ZM127.061 13.4439C129.666 13.4472 131.599 15.8725 131.032 18.4278L122.917 16.6115C122.327 19.2721 124.34 21.7976 127.051 21.8011L127.061 13.4439ZM126.478 16.3362C127.004 14.6173 128.586 13.4458 130.375 13.448L130.364 21.8052C132.228 21.8075 133.875 20.5875 134.424 18.7976L126.478 16.3362ZM112.353 22.1963C114.238 22.1987 115.909 20.9788 116.49 19.1766L108.58 16.6018C109.111 14.953 110.64 13.837 112.364 13.8391L112.353 22.1963ZM104.414 16.4825C103.505 19.2994 105.592 22.1878 108.539 22.1915L108.549 13.8344C111.245 13.8377 113.154 16.4804 112.324 19.0575L104.414 16.4825ZM110.006 16.0646C107.31 16.0612 105.4 13.4186 106.231 10.8414L114.141 13.4165C115.049 10.5996 112.962 7.71117 110.016 7.70746L110.006 16.0646ZM107.355 17.1709C105.47 17.1685 103.799 18.3884 103.218 20.1905L111.128 22.7655C110.597 24.4143 109.069 25.5302 107.344 25.5281L107.355 17.1709ZM109.418 24.1879C112.113 24.1913 114.023 26.8338 113.192 29.4111L105.282 26.836C104.374 29.6529 106.462 32.5413 109.407 32.545L109.418 24.1879ZM100.3 14.1693C99.5734 15.3395 98.2975 16.05 96.9246 16.0482L96.9348 7.69108C95.4353 7.6892 94.0403 8.46567 93.2457 9.74478L100.3 14.1693ZM86.9396 24.1597C90.0564 24.1636 91.9549 27.6089 90.3048 30.2665L83.2509 25.8419C81.4472 28.7468 83.5223 32.5125 86.9291 32.5169L86.9396 24.1597ZM86.8329 26.1054C87.5514 24.8995 88.8477 24.1621 90.2462 24.1639L90.2358 32.5211C91.7643 32.523 93.1811 31.717 93.9664 30.399L86.8329 26.1054ZM92.2735 21.1136C90.745 21.1117 89.328 21.9177 88.5428 23.2357L95.6765 27.5293C94.9577 28.7352 93.6615 29.4726 92.263 29.4708L92.2735 21.1136ZM99.8108 32.5329C102.171 32.5358 104.101 30.644 104.158 28.2729L95.8446 28.0732C95.8963 25.9039 97.6628 24.1731 99.8219 24.1758L99.8108 32.5329ZM96.4802 24.1716C98.7493 24.1744 100.555 26.083 100.444 28.3604L92.1385 27.9503C92.0168 30.4397 93.9904 32.5257 96.4701 32.5288L96.4802 24.1716ZM96.4848 26.5342C98.764 26.5371 100.657 24.7682 100.821 22.4833L92.5279 21.8832C92.6776 19.7928 94.4098 18.1744 96.495 18.177L96.4848 26.5342ZM72.3185 13.2501C71.7872 14.8988 70.2584 16.0148 68.5342 16.0126L68.5445 7.65548C66.6599 7.65312 64.9889 8.87292 64.4082 10.675L72.3185 13.2501ZM75.1458 16.7057C76.0536 13.8888 73.9662 11.0003 71.0203 10.9967L71.01 19.3538C68.3147 19.3505 66.405 16.7079 67.2355 14.1306L75.1458 16.7057ZM67.2942 24.135C69.9895 24.1384 71.8991 26.781 71.0687 29.3582L63.1583 26.7831C62.2506 29.6 64.3379 32.4885 67.2838 32.4922L67.2942 24.135ZM210.304 27.0815C210.835 25.4327 212.364 24.3168 214.088 24.3189L214.078 32.676C215.962 32.6784 217.633 31.4586 218.214 29.6565L210.304 27.0815ZM218.591 11.1816C216.706 11.1791 215.035 12.3989 214.454 14.201L222.364 16.7762C221.833 18.4249 220.304 19.5408 218.58 19.5387L218.591 11.1816ZM234.319 14.3459C233.593 15.5161 232.316 16.2266 230.944 16.2248L230.954 7.8677C229.454 7.86581 228.059 8.64229 227.265 9.92139L234.319 14.3459ZM220.959 24.3363C224.076 24.3402 225.974 27.7855 224.324 30.4431L217.27 26.0185C215.466 28.9234 217.541 32.6891 220.948 32.6935L220.959 24.3363ZM230.504 24.3486C232.77 24.3539 234.574 26.2615 234.463 28.5372L226.157 28.1275C226.036 30.6149 228.007 32.7 230.485 32.7057L230.504 24.3486ZM238.561 12.3201C238.608 9.87951 236.654 7.87485 234.225 7.8718L234.215 16.2289C231.993 16.2261 230.206 14.3921 230.248 12.1592L238.561 12.3201ZM229.94 28.2725C229.981 26.094 231.753 24.3515 233.921 24.3565L233.901 32.7136C236.271 32.7191 238.207 30.8144 238.253 28.4334L229.94 28.2725ZM230.503 26.7108C232.782 26.7137 234.676 24.9447 234.84 22.6598L226.546 22.0599C226.696 19.9694 228.429 18.3511 230.514 18.3537L230.503 26.7108ZM224.402 20.1655C222.736 23.0728 224.821 26.7036 228.159 26.7078L228.169 18.3508C231.224 18.3546 233.132 21.6764 231.607 24.3363L224.402 20.1655ZM209.367 13.9373C209.898 12.2886 211.427 11.1725 213.151 11.1748L213.141 19.5319C215.025 19.5342 216.697 18.3145 217.277 16.5124L209.367 13.9373ZM214.097 16.1949C211.402 16.1916 209.492 13.5489 210.322 10.9718L218.233 13.5468C219.14 10.7299 217.053 7.84148 214.107 7.83779L214.097 16.1949ZM206.832 13.4184C206.3 15.0672 204.771 16.1832 203.046 16.1811L203.058 7.82394C201.173 7.82158 199.502 9.04146 198.92 10.8436L206.832 13.4184ZM202.101 11.1608C204.796 11.1642 206.706 13.8068 205.875 16.384L197.965 13.8091C197.058 16.626 199.145 19.5144 202.091 19.518L202.101 11.1608ZM209.659 16.8742C210.567 14.0572 208.479 11.1687 205.533 11.1651L205.522 19.5223C202.828 19.5189 200.918 16.8763 201.748 14.299L209.659 16.8742ZM204.968 32.6647C206.853 32.6671 208.523 31.4473 209.104 29.6452L201.194 27.0702C201.725 25.4214 203.254 24.3054 204.978 24.3076L204.968 32.6647ZM201.807 24.3036C204.503 24.307 206.412 26.9496 205.582 29.5268L197.671 26.9517C196.763 29.7686 198.85 32.657 201.796 32.6607L201.807 24.3036ZM199.067 24.2968C198.413 25.7768 196.952 26.7299 195.34 26.7279L195.351 18.3707C193.673 18.3687 192.151 19.3612 191.469 20.9022L199.067 24.2968ZM171.161 24.2652C173.857 24.2686 175.766 26.9112 174.936 29.4883L167.026 26.9133C166.117 29.7302 168.204 32.6187 171.151 32.6224L171.161 24.2652ZM171.213 25.785C171.967 24.8262 173.118 24.2676 174.333 24.2691L174.323 32.6263C175.653 32.6279 176.91 32.0174 177.734 30.9694L171.213 25.785ZM179.387 24.2754C182.083 24.2789 183.992 26.9215 183.162 29.4986L175.252 26.9235C174.344 29.7404 176.431 32.6289 179.377 32.6326L179.387 24.2754ZM90.3829 19.9889C88.717 22.8963 90.8022 26.527 94.1401 26.5312L94.1511 18.1742C97.2046 18.178 99.1124 21.4997 97.588 24.1597L90.3829 19.9889ZM178.774 27.042C179.306 25.3932 180.835 24.2773 182.559 24.2794L182.548 32.6366C184.433 32.639 186.104 31.4191 186.685 29.617L178.774 27.042ZM76.1387 26.9135C76.6699 25.2648 78.1988 24.1488 79.923 24.151L79.9127 32.5082C81.7973 32.5105 83.4683 31.2906 84.049 29.4885L76.1387 26.9135ZM187.738 16.1619C185.043 16.1586 183.133 13.516 183.964 10.9387L191.874 13.5138C192.781 10.6968 190.694 7.80843 187.748 7.80479L187.738 16.1619ZM82.0013 18.5373C80.1166 18.535 78.4455 19.7549 77.8648 21.5569L85.7751 24.132C85.2439 25.7806 83.715 26.8967 81.9907 26.8945L82.0013 18.5373ZM187.678 14.6522C186.923 15.605 185.776 16.1595 184.565 16.158L184.575 7.80087C183.251 7.79923 181.998 8.40528 181.173 9.44671L187.678 14.6522ZM176.35 7.79054C174.466 7.78817 172.795 9.008 172.214 10.8101L180.124 13.3851C179.593 15.0338 178.065 16.1499 176.34 16.1476L176.35 7.79054ZM169.395 13.3717C168.864 15.0204 167.335 16.1364 165.611 16.1343L165.621 7.77712C163.737 7.77478 162.066 8.9946 161.485 10.7967L169.395 13.3717ZM85.7153 13.2669C85.1841 14.9156 83.6553 16.0317 81.931 16.0294L81.9414 7.67232C80.0568 7.66995 78.3858 8.88977 77.805 10.6918L85.7153 13.2669ZM159.819 27.0183C160.351 25.3696 161.879 24.2536 163.603 24.2557L163.593 32.6129C165.478 32.6153 167.148 31.3954 167.729 29.5934L159.819 27.0183ZM168.106 11.1182C166.222 11.1159 164.55 12.3357 163.969 14.1378L171.88 16.7129C171.348 18.3615 169.82 19.4776 168.095 19.4754L168.106 11.1182ZM178.526 13.4971C179.434 10.6802 177.347 7.79176 174.401 7.78808L174.391 16.1452C171.695 16.1419 169.785 13.4992 170.616 10.922L178.526 13.4971ZM169.66 13.8875C170.192 12.2388 171.721 11.1229 173.445 11.125L173.434 19.4821C175.319 19.4846 176.99 18.2648 177.571 16.4627L169.66 13.8875ZM158.967 16.126C156.737 16.1231 154.947 14.2776 154.999 12.0376L163.312 12.2374C163.371 9.78907 161.413 7.77189 158.977 7.76883L158.967 16.126ZM159.071 14.243C158.345 15.4132 157.068 16.1236 155.696 16.1218L155.706 7.76473C154.207 7.76284 152.812 8.53932 152.017 9.81841L159.071 14.243ZM79.0597 17.8489C78.152 20.6658 80.2393 23.5543 83.1853 23.558L83.1956 15.2009C85.8909 15.2042 87.8006 17.8468 86.97 20.4241L79.0597 17.8489ZM145.711 24.2334C148.828 24.2372 150.726 27.6825 149.076 30.3401L142.023 25.9156C140.218 28.8205 142.293 32.5863 145.701 32.5905L145.711 24.2334ZM145.605 26.1788C146.323 24.9731 147.62 24.2357 149.017 24.2374L149.007 32.5945C150.536 32.5965 151.952 31.7905 152.738 30.4725L145.605 26.1788ZM84.426 11.0135C82.5413 11.0111 80.8702 12.2308 80.2895 14.0329L88.1998 16.6081C87.6685 18.2568 86.1397 19.3728 84.4153 19.3706L84.426 11.0135ZM151.045 21.1873C149.516 21.1854 148.1 21.9913 147.315 23.3093L154.448 27.603C153.729 28.8088 152.433 29.5461 151.035 29.5444L151.045 21.1873ZM74.9683 11.0016C73.0836 10.9993 71.4126 12.219 70.8319 14.0211L78.7422 16.5962C78.2109 18.2449 76.6821 19.361 74.9578 19.3587L74.9683 11.0016ZM159.344 25.7706C159.466 23.2813 157.493 21.1953 155.013 21.1922L155.003 29.5493C152.734 29.5465 150.929 27.638 151.04 25.3606L159.344 25.7706ZM74.8541 13.7688C75.3853 12.1201 76.9141 11.0041 78.6384 11.0062L78.6279 19.3634C80.5126 19.3658 82.1836 18.146 82.7644 16.3439L74.8541 13.7688ZM158.582 32.6066C160.943 32.6095 162.873 30.7177 162.929 28.3466L154.616 28.1468C154.668 25.9775 156.434 24.2467 158.593 24.2494L158.582 32.6066ZM79.5841 16.0265C76.8888 16.0231 74.9792 13.3804 75.8097 10.8033L83.7199 13.3784C84.6277 10.5615 82.5404 7.67302 79.5945 7.66934L79.5841 16.0265ZM155.252 24.2453C157.521 24.248 159.326 26.1566 159.215 28.434L150.909 28.024C150.788 30.5133 152.762 32.5993 155.241 32.6024L155.252 24.2453ZM67.5883 10.9924C70.2837 10.9957 72.1934 13.6385 71.3628 16.2156L63.4525 13.6405C62.5448 16.4574 64.6321 19.3459 67.5782 19.3495L67.5883 10.9924ZM155.256 26.6077C157.535 26.6105 159.428 24.8418 159.592 22.5568L151.299 21.9567C151.449 19.8662 153.181 18.248 155.266 18.2506L155.256 26.6077ZM70.4551 32.4962C72.3398 32.4985 74.0108 31.2787 74.5915 29.4766L66.6812 26.9015C67.2125 25.2528 68.7412 24.1368 70.4656 24.139L70.4551 32.4962ZM149.154 20.0623C147.488 22.9698 149.574 26.6006 152.911 26.6048L152.922 18.2476C155.976 18.2514 157.884 21.5733 156.359 24.2333L149.154 20.0623ZM140.06 26.9935C140.592 25.3448 142.121 24.2287 143.845 24.231L143.834 32.5881C145.719 32.5904 147.39 31.3706 147.971 29.5685L140.06 26.9935ZM206.781 26.963C205.873 29.7799 207.96 32.6683 210.906 32.672L210.916 24.3149C213.612 24.3183 215.522 26.9609 214.691 29.5381L206.781 26.963ZM137.911 13.3323C137.38 14.981 135.852 16.0969 134.127 16.0948L134.137 7.73767C132.253 7.73533 130.582 8.95515 130.001 10.7572L137.911 13.3323ZM219.88 13.435C219.348 15.0837 217.82 16.1996 216.095 16.1975L216.105 7.84038C214.222 7.83805 212.55 9.05785 211.969 10.8599L219.88 13.435ZM128.948 24.2124C131.643 24.2157 133.553 26.8583 132.723 29.4355L124.812 26.8605C123.905 29.6773 125.992 32.5658 128.938 32.5694L128.948 24.2124ZM110.618 13.298C110.087 14.9468 108.558 16.0628 106.834 16.0606L106.844 7.70349C104.96 7.70112 103.289 8.92094 102.708 10.723L110.618 13.298ZM62.66 27.2032C64.6888 27.2032 66.3719 28.7329 66.6051 30.7297L58.3469 31.7039C58.602 33.8884 60.4431 35.5604 62.66 35.5604V27.2032ZM128.335 26.9789C128.867 25.3302 130.395 24.2141 132.12 24.2163L132.109 32.5734C133.993 32.5758 135.665 31.356 136.246 29.5539L128.335 26.9789ZM115.295 22.8848C116.203 20.068 114.116 17.1796 111.17 17.1758L111.159 25.5329C108.464 25.5295 106.554 22.8868 107.385 20.3098L115.295 22.8848ZM0.460938 34.1715C0.460938 36.5818 2.405 38.5358 4.80315 38.5358V30.1786C6.9972 30.1786 8.77582 31.9663 8.77582 34.1715H0.460938ZM135.265 24.2203C137.524 24.2231 139.327 26.1185 139.228 28.3883L130.921 28.0217C130.812 30.5026 132.783 32.5744 135.253 32.5774L135.265 24.2203ZM220.852 26.282C221.57 25.0761 222.867 24.3388 224.265 24.3405L224.255 32.6977C225.783 32.6996 227.2 31.8936 227.986 30.5756L220.852 26.282ZM231.856 26.0741C230.086 28.9841 232.172 32.7191 235.565 32.7151L235.556 24.358C238.661 24.3544 240.57 27.7714 238.949 30.4339L231.856 26.0741ZM251.948 16.4574C251.041 19.2742 253.128 22.1627 256.074 22.1666L256.084 13.8094C258.78 13.8128 260.689 16.4556 259.859 19.0326L251.948 16.4574ZM226.293 21.2903C224.764 21.2883 223.347 22.0943 222.562 23.4123L229.696 27.7059C228.977 28.9118 227.681 29.6492 226.282 29.6474L226.293 21.2903ZM251.522 16.1431C248.824 16.1398 246.915 13.4933 247.749 10.9151L255.656 13.5002C256.568 10.6823 254.48 7.78964 251.532 7.78598L251.522 16.1431ZM254.312 7.88825C252.428 7.88588 250.756 9.1057 250.176 10.9077L258.086 13.4828C257.555 15.1315 256.026 16.2476 254.302 16.2454L254.312 7.88825ZM186.408 19.4082C186.456 19.225 186.747 18.1925 186.323 16.9569C186.067 16.207 185.546 15.4021 184.676 14.8275C183.85 14.2815 183.021 14.1508 182.463 14.1413C181.486 14.1247 180.778 14.4641 180.612 14.543C180.338 14.6737 180.134 14.8078 180.027 14.8823C179.672 15.1288 179.368 15.4209 179.121 15.7362L185.643 20.9205C185.398 21.2309 185.101 21.5166 184.752 21.7593C184.646 21.8328 184.444 21.9662 184.17 22.0964C184.005 22.1748 183.299 22.5138 182.322 22.4972C181.764 22.4877 180.936 22.3571 180.109 21.8113C179.24 21.2369 178.721 20.4323 178.463 19.6826C178.04 18.4477 178.33 17.4164 178.379 17.2346L186.408 19.4082ZM100.574 25.6971C100.695 23.2079 98.7215 21.1218 96.2419 21.1187L96.2317 29.4758C93.9627 29.4729 92.1573 27.5644 92.2687 25.287L100.574 25.6971ZM26.8039 12.6648C28.2563 13.687 30.2077 13.7318 31.7166 12.7128L27.0792 5.77608C28.4602 4.84343 30.2468 4.88563 31.5731 5.81903L26.8039 12.6648ZM234.592 25.8735C234.714 23.3843 232.741 21.2984 230.261 21.2953L230.251 29.6524C227.982 29.6495 226.177 27.7411 226.288 25.4638L234.592 25.8735ZM245.426 7.77841C243.912 7.77652 242.507 8.56754 241.717 9.86586L248.811 14.2257C248.088 15.4135 246.802 16.1372 245.416 16.1356L245.426 7.77841ZM257.473 16.2493C254.778 16.246 252.868 13.6033 253.699 11.0261L261.609 13.6013C262.517 10.7844 260.429 7.89594 257.484 7.89223L257.473 16.2493ZM216.166 18.7054C214.281 18.7031 212.61 19.9228 212.029 21.7249L219.94 24.3C219.408 25.9487 217.879 27.0648 216.155 27.0625L216.166 18.7054ZM140.674 24.227C143.369 24.2303 145.278 26.8729 144.448 29.4501L136.538 26.8751C135.629 29.692 137.717 32.5804 140.663 32.5841L140.674 24.227ZM128.913 26.6447C126.003 26.6411 124.035 23.6583 125.164 20.9617L132.827 24.205C134.003 21.3971 131.955 18.2914 128.924 18.2875L128.913 26.6447ZM59.3832 35.6298C61.9806 35.6298 64.0275 33.3388 63.689 30.7073L55.4428 31.779C55.1326 29.3686 57.0077 27.2727 59.3832 27.2727V35.6298ZM148.017 14.1742C147.297 15.3757 146.004 16.1097 144.609 16.1079L144.619 7.75079C143.093 7.74886 141.68 8.55112 140.893 9.86428L148.017 14.1742ZM196.265 16.4209C196.793 14.7035 198.374 13.5331 200.162 13.5353L200.152 21.8924C202.014 21.8948 203.66 20.6761 204.21 18.8879L196.265 16.4209ZM117.768 16.0743C115.073 16.0709 113.164 13.4283 113.994 10.8512L121.904 13.4262C122.812 10.6094 120.725 7.7209 117.778 7.71719L117.768 16.0743ZM58.7551 12.23C61.4031 12.5791 63.4468 10.5542 63.643 8.27506L55.3591 7.55445C55.5368 5.49116 57.4018 3.62301 59.8361 3.94383L58.7551 12.23ZM112.579 32.549C114.463 32.5513 116.135 31.3316 116.715 29.5295L108.805 26.9545C109.336 25.3057 110.865 24.1897 112.589 24.1919L112.579 32.549ZM4.67697 27.1974C2.32896 27.266 0.460938 29.1989 0.460938 31.5598H8.77582C8.77582 33.7198 7.06678 35.4882 4.91859 35.551L4.67697 27.1974ZM213.224 18.017C212.317 20.8339 214.404 23.7224 217.35 23.7261L217.36 15.3689C220.055 15.3723 221.965 18.0149 221.134 20.5922L213.224 18.017ZM246.278 32.7151C248.161 32.7175 249.831 31.5002 250.413 29.7008L242.506 27.1157C243.038 25.4695 244.566 24.3558 246.288 24.358L246.278 32.7151ZM249.123 24.3628C251.818 24.3662 253.728 27.0088 252.897 29.5859L244.987 27.0109C244.079 29.8277 246.167 32.7162 249.112 32.72L249.123 24.3628ZM179.512 16.1516C176.816 16.1483 174.907 13.5056 175.737 10.9285L183.648 13.5035C184.555 10.6867 182.468 7.79823 179.522 7.79453L179.512 16.1516ZM249.622 23.6787C248.714 26.4956 250.802 29.3841 253.747 29.3877L253.757 21.0305C256.453 21.0339 258.363 23.6765 257.532 26.2537L249.622 23.6787ZM149.024 16.1135C146.329 16.1101 144.419 13.4675 145.25 10.8904L153.16 13.4654C154.067 10.6486 151.98 7.76011 149.034 7.75638L149.024 16.1135ZM196.848 13.5312C199.454 13.5345 201.385 15.9604 200.819 18.5158L192.704 16.6984C192.113 19.3591 194.126 21.8849 196.838 21.8884L196.848 13.5312ZM129.284 24.2022C128.631 25.6861 127.168 26.6425 125.554 26.6405L125.564 18.2834C123.883 18.2812 122.359 19.2769 121.68 20.822L129.284 24.2022ZM63.8802 5.52144C64.0794 3.20819 62.4105 1.02477 59.9513 0.799401L59.1963 9.12202C56.9394 8.91518 55.4145 6.91079 55.5962 4.80084L63.8802 5.52144ZM137.501 32.5802C139.024 32.5821 140.436 31.7823 141.224 30.4724L134.107 26.1514C134.827 24.953 136.119 24.2213 137.512 24.2231L137.501 32.5802ZM101.041 26.9447C101.574 25.296 103.102 24.18 104.827 24.1821L104.815 32.5393C106.7 32.5417 108.371 31.3218 108.953 29.5197L101.041 26.9447ZM259.379 38.5358C261.777 38.5358 263.721 36.5816 263.721 34.1715H255.406C255.406 31.9665 257.185 30.1786 259.379 30.1786V38.5358ZM138.56 16.1003C136.296 16.0975 134.492 14.1968 134.597 11.9239L142.902 12.308C143.016 9.82371 141.044 7.74626 138.57 7.74319L138.56 16.1003ZM72.6158 26.7951C71.7081 29.6119 73.7953 32.5004 76.7414 32.5042L76.7517 24.147C79.4469 24.1504 81.3566 26.793 80.5261 29.3701L72.6158 26.7951ZM160.432 24.2518C163.128 24.2552 165.037 26.8978 164.207 29.475L156.296 26.9C155.388 29.7168 157.475 32.6052 160.422 32.6089L160.432 24.2518ZM209.481 11.17C207.597 11.1677 205.925 12.3875 205.345 14.1897L213.255 16.7647C212.724 18.4134 211.195 19.5294 209.47 19.5272L209.481 11.17ZM254.89 17.146C253.005 17.1437 251.335 18.3635 250.754 20.1656L258.664 22.7406C258.133 24.3893 256.604 25.5053 254.88 25.5032L254.89 17.146ZM134.162 21.4013C133.955 25.9262 139.896 27.7333 142.22 23.8527L135.096 19.5427C137.223 15.9924 142.658 17.6457 142.469 21.7855L134.162 21.4013ZM118.382 13.3077C117.85 14.9565 116.321 16.0725 114.597 16.0704L114.608 7.71322C112.723 7.71085 111.052 8.93071 110.47 10.7328L118.382 13.3077ZM39.9455 10.4448C40.6493 11.419 41.0221 12.9243 40.365 14.4232L32.756 11.0534C32.0512 12.6611 32.4441 14.285 33.2174 15.3554L39.9455 10.4448ZM198.701 26.7321C195.789 26.7284 193.821 23.7454 194.951 21.0487L202.614 24.2922C203.791 21.4843 201.742 18.3786 198.711 18.3749L198.701 26.7321ZM100.195 16.0523C97.9658 16.0495 96.1753 14.204 96.228 11.964L104.541 12.1638C104.599 9.71543 102.642 7.69825 100.205 7.69519L100.195 16.0523ZM17.4473 32.2889C13.5902 31.0216 13.6512 25.5385 17.5052 24.3346L19.9729 32.3152C23.8344 31.109 23.8955 25.6153 20.031 24.3454L17.4473 32.2889ZM101.655 24.1781C104.35 24.1816 106.259 26.8242 105.429 29.4013L97.5187 26.8262C96.6114 29.6431 98.6985 32.5315 101.645 32.5353L101.655 24.1781ZM263.721 31.5675C263.721 29.1572 261.777 27.2032 259.379 27.2032V35.5604C257.185 35.5604 255.406 33.7727 255.406 31.5675H263.721Z" fill="white"/>
<path d="M54.5088 19.0356H35.1074V30.1785H54.5088V19.0356Z" fill="white"/>
<path d="M98.8545 12.5356H79.4531V23.6785H98.8545V12.5356Z" fill="white"/>
<path d="M227.272 13.4644H207.871V24.6072H227.272V13.4644Z" fill="white"/>
<path d="M259.608 16.25H240.207V27.3929H259.608V16.25Z" fill="white"/>
<path fill-rule="evenodd" clip-rule="evenodd" d="M259.565 31.3818H61.1692L61.1562 34.3573H259.565V31.3818Z" fill="#FFED00"/>
<path fill-rule="evenodd" clip-rule="evenodd" d="M254.752 21.3243L256.661 21.3266C256.969 21.327 257.286 21.3303 257.59 21.3856C257.806 21.4248 258.04 21.4972 258.198 21.6583C258.57 22.0375 258.365 22.8015 258.222 23.2457C257.997 23.9449 257.614 24.6063 256.942 24.9513C256.523 25.1668 256.097 25.2119 255.633 25.2113L253.501 25.2086L254.752 21.3243ZM257.734 12.0709L254.174 12.0664L248.865 28.5409L255.214 28.5488C258.854 28.5535 260.848 26.8673 261.951 23.442C262.331 22.265 262.645 20.6997 262.05 19.5464C261.393 18.272 259.885 17.9926 258.586 17.991L255.828 17.9875L257.734 12.0709ZM135.068 28.3984L137.613 28.4016C139.517 25.2347 141.42 22.0678 143.323 18.9009C143.384 18.8039 143.489 18.8728 143.459 18.9635L140.416 28.405L143.976 28.4095L149.285 11.935L144.511 11.929L138.284 22.326L138.76 11.9217L134 11.9159L128.691 28.3903L132.25 28.3949C133.328 25.0507 134.406 21.7065 135.484 18.3623C135.49 18.3392 135.508 18.345 135.507 18.3582L135.068 28.3984ZM152.6 22.4256L155.812 16.8194C155.823 16.7983 155.837 16.8032 155.837 16.8194L155.435 22.4291L152.6 22.4256ZM155.054 28.4234L158.77 28.4279L159.163 11.9475L155.6 11.9429L145.375 28.4113L149.119 28.4159L150.937 25.3655L155.204 25.3708L155.054 28.4234ZM173.576 15.3035L174.652 11.9668L165.484 11.9553L160.175 28.4298L163.735 28.4343L167.968 15.2965L173.576 15.3035ZM179.773 11.9732L176.213 11.9687L170.904 28.4433L174.42 28.4476L182.389 18.3208C182.392 18.3168 182.396 18.3177 182.395 18.3212L179.13 28.4535L182.69 28.4579L187.999 11.9835L184.482 11.9791L176.64 21.8805C176.604 21.9203 176.567 21.9153 176.584 21.8656L179.773 11.9732ZM195.293 22.5491L195.271 22.5993C194.958 23.3089 194.566 24.0498 194.036 24.6204C193.657 25.029 193.219 25.3329 192.68 25.4844C192.391 25.5656 192.091 25.5977 191.791 25.5974C191.136 25.5965 190.55 25.3933 190.223 24.786C189.976 24.3279 189.931 23.7474 189.953 23.235C189.97 22.822 190.031 22.4103 190.114 22.0056C190.223 21.4678 190.371 20.9383 190.54 20.4163C191.05 18.8324 191.865 16.8311 193.125 15.7087C193.729 15.1713 194.397 14.8636 195.211 14.8646C195.632 14.8651 196.127 14.9177 196.464 15.1932C196.718 15.4014 196.837 15.6981 196.886 16.0171C196.928 16.2923 196.92 16.5808 196.891 16.857C196.864 17.109 196.818 17.3595 196.764 17.6068L196.74 17.7094L200.221 17.7138L200.239 17.6542C200.397 17.1398 200.515 16.6076 200.575 16.0724C200.614 15.7283 200.629 15.3801 200.61 15.0342C200.591 14.6985 200.54 14.3634 200.446 14.0405C199.865 12.0471 197.947 11.5299 196.094 11.5276C190.951 11.5211 188.135 16.1081 186.72 20.4994C186.457 21.3182 186.231 22.1532 186.085 23.0017C185.971 23.6675 185.903 24.3504 185.934 25.0264C185.981 26.0373 186.254 27.0294 186.985 27.7601C187.928 28.7017 189.357 28.9324 190.632 28.934C194.86 28.9393 197.231 26.3779 198.784 22.6704L198.834 22.5534L195.293 22.5491ZM201.55 28.4816L205.11 28.4862L209.343 15.3483L213.282 15.3533L214.358 12.0165L202.919 12.0022L201.844 15.3389L205.783 15.3438L201.55 28.4816ZM227.847 22.5287L231.082 16.8848C231.084 16.8815 231.087 16.8823 231.087 16.8862L230.683 22.5323L227.847 22.5287ZM234.095 28.5353L234.411 12.0504L230.848 12.0459L220.623 28.5143L224.367 28.519L226.184 25.4685L230.452 25.4739L230.302 28.5265L234.095 28.5353ZM218.452 15.3597L220.616 15.3625C220.959 15.3628 221.353 15.3562 221.661 15.5278C221.88 15.6496 222.002 15.8384 222.053 16.0816C222.137 16.4851 222.017 16.9878 221.892 17.3743C221.449 18.7493 220.719 19.5514 219.212 19.5496L217.103 19.547L218.452 15.3597ZM215.968 12.0186L210.66 28.4929L214.219 28.4974L216.028 22.8836L218.724 22.8871C219.955 22.8886 221.125 22.6717 222.212 22.0712C224.004 21.0811 225.059 19.3155 225.674 17.4077C226.115 16.0409 226.475 14.1396 225.347 12.9992C224.563 12.2063 223.303 12.0278 222.239 12.0263L215.968 12.0186ZM67.0371 28.3131L70.5968 28.3175L74.8304 15.1798L78.7696 15.1848L79.8449 11.848L68.4067 11.8336L67.3314 15.1704L71.2708 15.1754L67.0371 28.3131ZM84.288 15.1916L86.4513 15.1944C86.794 15.1948 87.1888 15.1881 87.4967 15.3597C87.7151 15.4815 87.8372 15.6703 87.8882 15.9135C87.9727 16.317 87.8521 16.8198 87.7277 17.2063C87.2847 18.5813 86.5545 19.3834 85.0479 19.3815L82.9386 19.3789L84.288 15.1916ZM81.8035 11.8505L76.4946 28.3251L80.0542 28.3295L81.8633 22.7156L84.5597 22.719C85.7904 22.7206 86.9603 22.5037 88.0474 21.9031C89.8392 20.913 90.895 19.1474 91.5098 17.2396C91.9502 15.8728 92.311 13.9716 91.1831 12.8311C90.3989 12.0382 89.138 11.8597 88.0749 11.8584L81.8035 11.8505ZM93.8281 22.3521L96.973 16.8643C97.0127 16.7926 97.0589 16.7843 97.0571 16.8711L96.6635 22.3556L93.8281 22.3521ZM96.2829 28.3498L99.9987 28.3543L100.391 11.8737L96.8289 11.8693L86.6036 28.3377L90.3477 28.3424L92.1652 25.2919L96.4325 25.2973L96.2829 28.3498ZM109.161 28.3659L112.72 28.3704L118.029 11.8958L114.469 11.8914L112.495 18.0176L108.292 18.0124L110.267 11.8862L106.707 11.8816L101.397 28.3562L104.957 28.3606L107.217 21.3491L111.42 21.3545L109.161 28.3659ZM125.506 22.4616L125.484 22.5118C125.171 23.2214 124.779 23.9624 124.249 24.533C123.871 24.9415 123.432 25.2455 122.893 25.3969C122.604 25.4782 122.305 25.5103 122.004 25.5099C121.349 25.5091 120.764 25.3058 120.436 24.6985C120.189 24.2406 120.144 23.6599 120.166 23.1477C120.184 22.7345 120.244 22.3229 120.327 21.9181C120.437 21.3804 120.584 20.8508 120.753 20.3288C121.264 18.7449 122.078 16.7436 123.339 15.6213C123.942 15.0839 124.611 14.7761 125.425 14.7771C125.845 14.7777 126.339 14.8303 126.677 15.1059C126.931 15.3141 127.051 15.6106 127.1 15.9296C127.141 16.2049 127.133 16.4934 127.104 16.7695C127.077 17.0216 127.031 17.2721 126.977 17.5195L126.954 17.6222L130.434 17.6264L130.452 17.5667C130.609 17.0525 130.729 16.5201 130.789 15.985C130.827 15.6409 130.842 15.2926 130.823 14.9468C130.804 14.6112 130.754 14.276 130.659 13.953C130.078 11.9598 128.16 11.4424 126.307 11.4402C121.164 11.4338 118.349 16.0207 116.933 20.4121C116.67 21.2308 116.445 22.0658 116.299 22.9144C116.184 23.5801 116.117 24.2629 116.147 24.9389C116.193 25.9501 116.467 26.9421 117.198 27.6727C118.141 28.6142 119.57 28.845 120.845 28.8465C125.074 28.8518 127.444 26.2906 128.997 22.5831L129.047 22.466L125.506 22.4616ZM245.32 11.9567L251.783 11.9646L246.42 28.5365L242.684 28.5318C243.902 24.7715 245.119 21.0113 246.337 17.251C246.365 17.1679 246.248 17.1863 246.215 17.25L239.341 28.5318L235.233 28.5368L245.32 11.9567Z" fill="#E31E24"/>
<path fill-rule="evenodd" clip-rule="evenodd" d="M18.7387 28.3173C14.246 26.8216 11.2012 22.589 11.2012 17.8182C11.2012 11.7113 16.1244 6.76074 22.1971 6.76074C24.4832 6.76074 26.6852 7.48087 28.5582 8.79867L29.4782 9.44621C28.076 10.5525 27.15 11.6248 26.6637 12.6866C24.2638 17.4326 29.8177 18.9383 31.2452 23.0868C27.6368 25.707 23.1733 27.0501 18.9776 28.3958L18.7387 28.3173Z" fill="#FFED00"/>
<path fill-rule="evenodd" clip-rule="evenodd" d="M25.8355 14.4288C25.2186 17.6561 30.0957 20.202 30.942 23.0745C26.2547 26.6903 10.0112 31.1874 5.44284 31.3552L4.61914 31.3793V34.3571H62.6842C62.6333 31.3169 62.1681 28.7636 61.5718 26.566C60.8734 23.9907 58.7705 21.5515 55.6899 20.1591C48.4665 16.894 39.1593 16.6375 36.5279 12.8231C37.6629 9.5544 55.574 7.46084 59.4846 8.1148L59.7548 4.97737C47.8381 3.85182 26.924 5.22368 25.8355 14.4288ZM18.9763 31.4511H59.5926C59.4248 30.0658 59.1549 28.6976 58.7841 27.3307C58.2241 25.2662 56.386 23.6596 54.5053 22.8096C53.3658 22.2944 52.184 21.8687 50.993 21.4918C47.9593 20.5316 44.8434 19.8975 41.8 18.9874C39.0243 18.1573 35.8714 16.9693 34.1537 14.4795C33.3181 13.33 33.6781 12.2073 33.7998 11.8651C34.036 11.1853 34.4397 10.6084 34.9468 10.1152C35.192 9.87523 35.0299 9.77995 34.6541 9.90996C31.374 11.2212 29.6928 12.6938 29.0346 14.0572C28.7151 14.8347 28.7698 15.2301 29.0445 15.7713C29.3923 16.4564 30.1714 17.1464 30.4496 17.4496C31.2709 18.3445 32.0612 19.3034 32.7888 20.2852C34.7209 22.8918 34.3775 23.9908 32.7008 25.3803C31.0794 26.6309 28.9411 27.6236 27.061 28.416C24.6825 29.4186 22.2196 30.2764 19.7584 31.0493C19.4894 31.1338 19.2198 31.2174 18.9499 31.3002C18.8609 31.3242 18.844 31.4601 18.9763 31.4511Z" fill="#393185"/>
</g>
<defs>
<clipPath id="clip0_3001_581">
<rect width="267" height="39" fill="white"/>
</clipPath>
</defs>
</svg>
