<svg width="95" height="41" viewBox="0 0 95 41" fill="none" xmlns="http://www.w3.org/2000/svg">
<g clip-path="url(#clip0_3001_208)">
<path d="M91.4438 36.4876H3.55719C3.07752 36.4876 2.61113 36.3909 2.17236 36.1996C1.74894 36.0157 1.36847 35.752 1.0422 35.4167C0.715939 35.0815 0.459224 34.6905 0.280239 34.2554C0.0940948 33.8057 0 33.3264 0 32.8336C0 32.3407 0.0940948 31.8615 0.280239 31.4106C0.459224 30.9755 0.715939 30.5846 1.0422 30.2494C1.36847 29.9141 1.74894 29.6503 2.17236 29.4664C2.61113 29.2752 3.07752 29.1785 3.55719 29.1785H91.4438C91.9235 29.1785 92.3899 29.2752 92.8287 29.4664C93.2521 29.6503 93.6326 29.9141 93.9588 30.2494C94.2851 30.5846 94.5418 30.9755 94.7208 31.4106C94.9069 31.8615 95.001 32.3407 95.001 32.8336C95.001 33.3264 94.9069 33.8057 94.7208 34.2565C94.5418 34.6916 94.2851 35.0825 93.9588 35.4178C93.6326 35.753 93.2521 36.0168 92.8287 36.2007C92.3889 36.3909 91.9235 36.4876 91.4438 36.4876ZM3.55719 30.7128C2.41885 30.7128 1.49324 31.6639 1.49324 32.8336C1.49324 34.0032 2.41885 34.9543 3.55719 34.9543H91.4438C92.5822 34.9543 93.5078 34.0032 93.5078 32.8336C93.5078 31.6639 92.5822 30.7128 91.4438 30.7128H3.55719Z" fill="#0D235A"/>
<path d="M69.5692 27.1722H6.40603C5.73918 27.1722 5.09075 27.0377 4.48118 26.7729C3.89206 26.5164 3.36329 26.1507 2.90918 25.6841C2.45507 25.2175 2.09915 24.6742 1.84959 24.0689C1.59185 23.4415 1.46094 22.7762 1.46094 22.091V2.99377C1.46094 2.36111 1.70027 1.7663 2.13597 1.31861C2.57167 0.870915 3.15055 0.625 3.76626 0.625H69.5692C70.2361 0.625 70.8845 0.759517 71.4941 1.02435C72.0832 1.28077 72.612 1.64649 73.0661 2.1131C73.5202 2.57971 73.8761 3.12303 74.1257 3.72836C74.3834 4.35576 74.5143 5.02099 74.5143 5.70618V22.09C74.5143 22.7752 74.3834 23.4415 74.1257 24.0678C73.8761 24.6731 73.5202 25.2165 73.0661 25.6831C72.612 26.1497 72.0832 26.5154 71.4941 26.7718C70.8845 27.0377 70.2361 27.1722 69.5692 27.1722ZM3.76626 2.15934C3.31829 2.15934 2.95418 2.53347 2.95418 2.99377V22.09C2.95418 24.0457 4.50266 25.6379 6.40705 25.6379H69.5703C71.4736 25.6379 73.0231 24.0468 73.0231 22.09V5.70618C73.0231 3.75043 71.4747 2.15829 69.5703 2.15829H3.76626V2.15934Z" fill="#0D235A"/>
<path d="M93.6156 30.4332H73.0293V5.30786H73.7759C75.1219 5.30786 76.4668 5.44763 77.7739 5.72192C79.0483 5.98991 80.3012 6.38925 81.4989 6.91051C82.675 7.42125 83.8083 8.05391 84.8689 8.7906C85.9193 9.51994 86.9073 10.3575 87.8042 11.2792C88.7012 12.2008 89.5164 13.216 90.2262 14.2953C90.9431 15.3851 91.5578 16.5506 92.0559 17.7581C92.5622 18.9887 92.9518 20.2771 93.2126 21.5855C93.4806 22.9286 93.6156 24.3105 93.6156 25.6935V30.4332ZM74.5225 28.8988H92.1234V25.6946C92.1234 15.5564 84.2951 7.26152 74.5225 6.85796V28.8988Z" fill="#0D235A"/>
<path d="M15.3169 39.8579C18.7247 39.8579 21.4872 37.0193 21.4872 33.5177C21.4872 30.0161 18.7247 27.1775 15.3169 27.1775C11.9091 27.1775 9.14648 30.0161 9.14648 33.5177C9.14648 37.0193 11.9091 39.8579 15.3169 39.8579Z" fill="white"/>
<path d="M15.3174 40.625C14.3836 40.625 13.4784 40.4369 12.6244 40.0659C11.8011 39.7075 11.0606 39.1957 10.4265 38.5431C9.79238 37.8905 9.29327 37.1307 8.9445 36.2847C8.58347 35.4082 8.40039 34.4771 8.40039 33.5176C8.40039 32.5581 8.58347 31.6281 8.9445 30.7506C9.29327 29.9046 9.79136 29.1437 10.4265 28.4921C11.0616 27.8395 11.8011 27.3277 12.6244 26.9694C13.4774 26.5984 14.3836 26.4103 15.3174 26.4103C16.2512 26.4103 17.1563 26.5984 18.0103 26.9694C18.8337 27.3277 19.5742 27.8395 20.2083 28.4921C20.8434 29.1448 21.3415 29.9046 21.6903 30.7506C22.0513 31.627 22.2344 32.5581 22.2344 33.5176C22.2344 34.4771 22.0513 35.4072 21.6903 36.2847C21.3415 37.1307 20.8434 37.8915 20.2083 38.5431C19.5731 39.1957 18.8337 39.7075 18.0103 40.0659C17.1563 40.4369 16.2512 40.625 15.3174 40.625ZM15.3174 27.9446C12.3268 27.9446 9.89363 30.4447 9.89363 33.5176C9.89363 36.5905 12.3268 39.0906 15.3174 39.0906C18.308 39.0906 20.7411 36.5905 20.7411 33.5176C20.7411 30.4447 18.308 27.9446 15.3174 27.9446Z" fill="#0D235A"/>
<path d="M15.3178 36.4812C16.9107 36.4812 18.202 35.1544 18.202 33.5177C18.202 31.8809 16.9107 30.5541 15.3178 30.5541C13.7249 30.5541 12.4336 31.8809 12.4336 33.5177C12.4336 35.1544 13.7249 36.4812 15.3178 36.4812Z" fill="white"/>
<path d="M15.3183 37.2484C14.8284 37.2484 14.3528 37.1496 13.9049 36.9552C13.4722 36.7671 13.0846 36.498 12.7512 36.1554C12.4178 35.8128 12.1559 35.4145 11.9729 34.97C11.7836 34.5097 11.6875 34.021 11.6875 33.5176C11.6875 33.0142 11.7836 32.5256 11.9729 32.0653C12.1559 31.6207 12.4178 31.2224 12.7512 30.8798C13.0846 30.5372 13.4722 30.2682 13.9049 30.0801C14.3528 29.8857 14.8284 29.7869 15.3183 29.7869C15.8082 29.7869 16.2838 29.8857 16.7318 30.0801C17.1644 30.2682 17.5521 30.5372 17.8855 30.8798C18.2189 31.2224 18.4807 31.6207 18.6638 32.0653C18.853 32.5256 18.9492 33.0142 18.9492 33.5176C18.9492 34.021 18.853 34.5097 18.6638 34.97C18.4807 35.4145 18.2189 35.8128 17.8855 36.1554C17.5521 36.498 17.1644 36.7671 16.7318 36.9552C16.2838 37.1496 15.8082 37.2484 15.3183 37.2484ZM15.3183 31.3202C14.1391 31.3202 13.1807 32.3059 13.1807 33.5166C13.1807 34.7272 14.1401 35.713 15.3183 35.713C16.4966 35.713 17.4559 34.7272 17.4559 33.5166C17.4559 32.3059 16.4976 31.3202 15.3183 31.3202Z" fill="#0D235A"/>
<path d="M83.9419 39.8579C87.3497 39.8579 90.1122 37.0193 90.1122 33.5177C90.1122 30.0161 87.3497 27.1775 83.9419 27.1775C80.5341 27.1775 77.7715 30.0161 77.7715 33.5177C77.7715 37.0193 80.5341 39.8579 83.9419 39.8579Z" fill="white"/>
<path d="M83.9424 40.625C83.0086 40.625 82.1034 40.4369 81.2494 40.0659C80.4261 39.7075 79.6856 39.1957 79.0515 38.5431C78.4174 37.8905 77.9183 37.1307 77.5695 36.2847C77.2085 35.4082 77.0254 34.4771 77.0254 33.5176C77.0254 32.5581 77.2085 31.6281 77.5695 30.7506C77.9183 29.9046 78.4164 29.1437 79.0515 28.4921C79.6866 27.8395 80.4261 27.3277 81.2494 26.9694C82.1024 26.5984 83.0086 26.4103 83.9424 26.4103C84.8762 26.4103 85.7813 26.5984 86.6353 26.9694C87.4587 27.3277 88.1991 27.8395 88.8333 28.4921C89.4674 29.1448 89.9665 29.9046 90.3153 30.7506C90.6763 31.627 90.8594 32.5581 90.8594 33.5176C90.8594 34.4771 90.6763 35.4072 90.3153 36.2847C89.9665 37.1307 89.4684 37.8915 88.8333 38.5431C88.1981 39.1947 87.4587 39.7075 86.6353 40.0659C85.7813 40.4369 84.8752 40.625 83.9424 40.625ZM83.9424 27.9446C80.9518 27.9446 78.5186 30.4447 78.5186 33.5176C78.5186 36.5905 80.9518 39.0906 83.9424 39.0906C86.933 39.0906 89.3661 36.5905 89.3661 33.5176C89.3651 30.4447 86.933 27.9446 83.9424 27.9446Z" fill="#0D235A"/>
<path d="M83.9428 36.4812C85.5357 36.4812 86.827 35.1544 86.827 33.5177C86.827 31.8809 85.5357 30.5541 83.9428 30.5541C82.3499 30.5541 81.0586 31.8809 81.0586 33.5177C81.0586 35.1544 82.3499 36.4812 83.9428 36.4812Z" fill="white"/>
<path d="M83.9433 37.2484C83.4534 37.2484 82.9778 37.1496 82.5299 36.9552C82.0972 36.7671 81.7096 36.498 81.3762 36.1554C81.0428 35.8128 80.7809 35.4145 80.5979 34.97C80.4086 34.5097 80.3125 34.021 80.3125 33.5176C80.3125 33.0142 80.4086 32.5256 80.5979 32.0653C80.7809 31.6207 81.0428 31.2224 81.3762 30.8798C81.7096 30.5372 82.0972 30.2682 82.5299 30.0801C82.9778 29.8857 83.4534 29.7869 83.9433 29.7869C84.4332 29.7869 84.9088 29.8857 85.3568 30.0801C85.7894 30.2682 86.1771 30.5372 86.5105 30.8798C86.8439 31.2224 87.1057 31.6207 87.2888 32.0653C87.478 32.5256 87.5742 33.0142 87.5742 33.5176C87.5742 34.021 87.478 34.5097 87.2888 34.97C87.1057 35.4145 86.8439 35.8139 86.5105 36.1554C86.1771 36.498 85.7894 36.7671 85.3568 36.9552C84.9088 37.1496 84.4332 37.2484 83.9433 37.2484ZM83.9433 31.3202C82.7641 31.3202 81.8057 32.3059 81.8057 33.5166C81.8057 34.7272 82.7651 35.713 83.9433 35.713C85.1226 35.713 86.0809 34.7272 86.0809 33.5166C86.0809 32.3059 85.1216 31.3202 83.9433 31.3202Z" fill="#0D235A"/>
<path d="M7.1534 26.405H5.66016V29.666H7.1534V26.405Z" fill="#0D235A"/>
<path d="M74.5167 22.09H73.0234V29.6986H74.5167V22.09Z" fill="#0D235A"/>
<path d="M87.1436 22.4347H78.2762C77.4682 22.4347 76.8105 21.759 76.8105 20.9287V13.3264C76.8105 12.4962 77.4682 11.8204 78.2762 11.8204H79.7449C80.9415 11.8204 82.1024 12.0611 83.1957 12.5361C84.2512 12.9954 85.1993 13.6511 86.0134 14.4877C86.8276 15.3242 87.4668 16.2984 87.9127 17.3829C88.375 18.5064 88.6092 19.6992 88.6092 20.9287C88.6092 21.759 87.9516 22.4347 87.1436 22.4347ZM78.3038 20.9004H87.115C87.0996 16.7366 83.7991 13.3548 79.7438 13.3548H78.3038V20.9004Z" fill="#0D235A"/>
</g>
<defs>
<clipPath id="clip0_3001_208">
<rect width="95" height="40" fill="white" transform="translate(0 0.625)"/>
</clipPath>
</defs>
</svg>
