<svg width="95" height="41" viewBox="0 0 95 41" fill="none" xmlns="http://www.w3.org/2000/svg">
<g clip-path="url(#clip0_1008_222)">
<path d="M91.4438 36.6309H3.55719C3.07752 36.6309 2.61113 36.5342 2.17236 36.343C1.74894 36.159 1.36847 35.8953 1.0422 35.56C0.715939 35.2248 0.459224 34.8338 0.280239 34.3988C0.0940948 33.949 0 33.4697 0 32.9769C0 32.484 0.0940948 32.0048 0.280239 31.5539C0.459224 31.1188 0.715939 30.7279 1.0422 30.3927C1.36847 30.0574 1.74894 29.7936 2.17236 29.6097C2.61113 29.4185 3.07752 29.3218 3.55719 29.3218H91.4438C91.9235 29.3218 92.3899 29.4185 92.8287 29.6097C93.2521 29.7936 93.6326 30.0574 93.9588 30.3927C94.2851 30.7279 94.5418 31.1188 94.7208 31.5539C94.9069 32.0048 95.001 32.484 95.001 32.9769C95.001 33.4697 94.9069 33.949 94.7208 34.3998C94.5418 34.8349 94.2851 35.2258 93.9588 35.5611C93.6326 35.8963 93.2521 36.1601 92.8287 36.344C92.3889 36.5342 91.9235 36.6309 91.4438 36.6309ZM3.55719 30.8561C2.41885 30.8561 1.49324 31.8072 1.49324 32.9769C1.49324 34.1465 2.41885 35.0976 3.55719 35.0976H91.4438C92.5822 35.0976 93.5078 34.1465 93.5078 32.9769C93.5078 31.8072 92.5822 30.8561 91.4438 30.8561H3.55719Z" fill="#0D235A"/>
<path d="M69.5692 27.3155H6.40603C5.73918 27.3155 5.09075 27.181 4.48118 26.9162C3.89206 26.6598 3.36329 26.294 2.90918 25.8274C2.45507 25.3608 2.09915 24.8175 1.84959 24.2122C1.59185 23.5848 1.46094 22.9195 1.46094 22.2343V3.13708C1.46094 2.50443 1.70027 1.90961 2.13597 1.46192C2.57167 1.01423 3.15055 0.768311 3.76626 0.768311H69.5692C70.2361 0.768311 70.8845 0.902828 71.4941 1.16766C72.0832 1.42408 72.612 1.7898 73.0661 2.25641C73.5202 2.72302 73.8761 3.26634 74.1257 3.87167C74.3834 4.49907 74.5143 5.1643 74.5143 5.84949V22.2333C74.5143 22.9185 74.3834 23.5848 74.1257 24.2111C73.8761 24.8164 73.5202 25.3598 73.0661 25.8264C72.612 26.293 72.0832 26.6587 71.4941 26.9151C70.8845 27.181 70.2361 27.3155 69.5692 27.3155ZM3.76626 2.30265C3.31829 2.30265 2.95418 2.67678 2.95418 3.13708V22.2333C2.95418 24.189 4.50266 25.7812 6.40705 25.7812H69.5703C71.4736 25.7812 73.0231 24.1901 73.0231 22.2333V5.84949C73.0231 3.89374 71.4747 2.3016 69.5703 2.3016H3.76626V2.30265Z" fill="#0D235A"/>
<path d="M93.6156 30.5765H73.0293V5.45117H73.7759C75.1219 5.45117 76.4668 5.59094 77.7739 5.86523C79.0483 6.13322 80.3012 6.53256 81.4989 7.05382C82.675 7.56457 83.8083 8.19722 84.8689 8.93391C85.9193 9.66325 86.9073 10.5008 87.8042 11.4225C88.7012 12.3441 89.5164 13.3593 90.2262 14.4386C90.9431 15.5284 91.5578 16.6939 92.0559 17.9014C92.5622 19.132 92.9518 20.4204 93.2126 21.7288C93.4806 23.0719 93.6156 24.4538 93.6156 25.8369V30.5765ZM74.5225 29.0422H92.1234V25.8379C92.1234 15.6997 84.2951 7.40483 74.5225 7.00127V29.0422Z" fill="#0D235A"/>
<path d="M15.3169 40.0012C18.7247 40.0012 21.4872 37.1626 21.4872 33.661C21.4872 30.1594 18.7247 27.3208 15.3169 27.3208C11.9091 27.3208 9.14648 30.1594 9.14648 33.661C9.14648 37.1626 11.9091 40.0012 15.3169 40.0012Z" fill="white"/>
<path d="M15.3174 40.7683C14.3836 40.7683 13.4784 40.5802 12.6244 40.2092C11.8011 39.8508 11.0606 39.339 10.4265 38.6864C9.79238 38.0338 9.29327 37.274 8.9445 36.428C8.58347 35.5515 8.40039 34.6204 8.40039 33.6609C8.40039 32.7015 8.58347 31.7714 8.9445 30.8939C9.29327 30.0479 9.79136 29.287 10.4265 28.6355C11.0616 27.9828 11.8011 27.471 12.6244 27.1127C13.4774 26.7417 14.3836 26.5536 15.3174 26.5536C16.2512 26.5536 17.1563 26.7417 18.0103 27.1127C18.8337 27.471 19.5742 27.9828 20.2083 28.6355C20.8434 29.2881 21.3415 30.0479 21.6903 30.8939C22.0513 31.7703 22.2344 32.7015 22.2344 33.6609C22.2344 34.6204 22.0513 35.5505 21.6903 36.428C21.3415 37.274 20.8434 38.0349 20.2083 38.6864C19.5731 39.339 18.8337 39.8508 18.0103 40.2092C17.1563 40.5802 16.2512 40.7683 15.3174 40.7683ZM15.3174 28.0879C12.3268 28.0879 9.89363 30.5881 9.89363 33.6609C9.89363 36.7338 12.3268 39.234 15.3174 39.234C18.308 39.234 20.7411 36.7338 20.7411 33.6609C20.7411 30.5881 18.308 28.0879 15.3174 28.0879Z" fill="#0D235A"/>
<path d="M15.3178 36.6246C16.9107 36.6246 18.202 35.2977 18.202 33.661C18.202 32.0242 16.9107 30.6974 15.3178 30.6974C13.7249 30.6974 12.4336 32.0242 12.4336 33.661C12.4336 35.2977 13.7249 36.6246 15.3178 36.6246Z" fill="white"/>
<path d="M15.3183 37.3917C14.8284 37.3917 14.3528 37.2929 13.9049 37.0985C13.4722 36.9104 13.0846 36.6413 12.7512 36.2987C12.4178 35.9561 12.1559 35.5578 11.9729 35.1133C11.7836 34.653 11.6875 34.1643 11.6875 33.6609C11.6875 33.1575 11.7836 32.6689 11.9729 32.2086C12.1559 31.764 12.4178 31.3657 12.7512 31.0231C13.0846 30.6805 13.4722 30.4115 13.9049 30.2234C14.3528 30.029 14.8284 29.9302 15.3183 29.9302C15.8082 29.9302 16.2838 30.029 16.7318 30.2234C17.1644 30.4115 17.5521 30.6805 17.8855 31.0231C18.2189 31.3657 18.4807 31.764 18.6638 32.2086C18.853 32.6689 18.9492 33.1575 18.9492 33.6609C18.9492 34.1643 18.853 34.653 18.6638 35.1133C18.4807 35.5578 18.2189 35.9561 17.8855 36.2987C17.5521 36.6413 17.1644 36.9104 16.7318 37.0985C16.2838 37.2929 15.8082 37.3917 15.3183 37.3917ZM15.3183 31.4635C14.1391 31.4635 13.1807 32.4492 13.1807 33.6599C13.1807 34.8705 14.1401 35.8563 15.3183 35.8563C16.4966 35.8563 17.4559 34.8705 17.4559 33.6599C17.4559 32.4492 16.4976 31.4635 15.3183 31.4635Z" fill="#0D235A"/>
<path d="M83.9419 40.0012C87.3497 40.0012 90.1122 37.1626 90.1122 33.661C90.1122 30.1594 87.3497 27.3208 83.9419 27.3208C80.5341 27.3208 77.7715 30.1594 77.7715 33.661C77.7715 37.1626 80.5341 40.0012 83.9419 40.0012Z" fill="white"/>
<path d="M83.9424 40.7683C83.0086 40.7683 82.1034 40.5802 81.2494 40.2092C80.4261 39.8508 79.6856 39.339 79.0515 38.6864C78.4174 38.0338 77.9183 37.274 77.5695 36.428C77.2085 35.5515 77.0254 34.6204 77.0254 33.6609C77.0254 32.7015 77.2085 31.7714 77.5695 30.8939C77.9183 30.0479 78.4164 29.287 79.0515 28.6355C79.6866 27.9828 80.4261 27.471 81.2494 27.1127C82.1024 26.7417 83.0086 26.5536 83.9424 26.5536C84.8762 26.5536 85.7813 26.7417 86.6353 27.1127C87.4587 27.471 88.1991 27.9828 88.8333 28.6355C89.4674 29.2881 89.9665 30.0479 90.3153 30.8939C90.6763 31.7703 90.8594 32.7015 90.8594 33.6609C90.8594 34.6204 90.6763 35.5505 90.3153 36.428C89.9665 37.274 89.4684 38.0349 88.8333 38.6864C88.1981 39.338 87.4587 39.8508 86.6353 40.2092C85.7813 40.5802 84.8752 40.7683 83.9424 40.7683ZM83.9424 28.0879C80.9518 28.0879 78.5186 30.5881 78.5186 33.6609C78.5186 36.7338 80.9518 39.234 83.9424 39.234C86.933 39.234 89.3661 36.7338 89.3661 33.6609C89.3651 30.5881 86.933 28.0879 83.9424 28.0879Z" fill="#0D235A"/>
<path d="M83.9428 36.6246C85.5357 36.6246 86.827 35.2977 86.827 33.661C86.827 32.0242 85.5357 30.6974 83.9428 30.6974C82.3499 30.6974 81.0586 32.0242 81.0586 33.661C81.0586 35.2977 82.3499 36.6246 83.9428 36.6246Z" fill="white"/>
<path d="M83.9433 37.3917C83.4534 37.3917 82.9778 37.2929 82.5299 37.0985C82.0972 36.9104 81.7096 36.6413 81.3762 36.2987C81.0428 35.9561 80.7809 35.5578 80.5979 35.1133C80.4086 34.653 80.3125 34.1643 80.3125 33.6609C80.3125 33.1575 80.4086 32.6689 80.5979 32.2086C80.7809 31.764 81.0428 31.3657 81.3762 31.0231C81.7096 30.6805 82.0972 30.4115 82.5299 30.2234C82.9778 30.029 83.4534 29.9302 83.9433 29.9302C84.4332 29.9302 84.9088 30.029 85.3568 30.2234C85.7894 30.4115 86.1771 30.6805 86.5105 31.0231C86.8439 31.3657 87.1057 31.764 87.2888 32.2086C87.478 32.6689 87.5742 33.1575 87.5742 33.6609C87.5742 34.1643 87.478 34.653 87.2888 35.1133C87.1057 35.5578 86.8439 35.9572 86.5105 36.2987C86.1771 36.6413 85.7894 36.9104 85.3568 37.0985C84.9088 37.2929 84.4332 37.3917 83.9433 37.3917ZM83.9433 31.4635C82.7641 31.4635 81.8057 32.4492 81.8057 33.6599C81.8057 34.8705 82.7651 35.8563 83.9433 35.8563C85.1226 35.8563 86.0809 34.8705 86.0809 33.6599C86.0809 32.4492 85.1216 31.4635 83.9433 31.4635Z" fill="#0D235A"/>
<path d="M7.1534 26.5483H5.66016V29.8093H7.1534V26.5483Z" fill="#0D235A"/>
<path d="M74.5167 22.2333H73.0234V29.8419H74.5167V22.2333Z" fill="#0D235A"/>
<path d="M87.1436 22.578H78.2762C77.4682 22.578 76.8105 21.9023 76.8105 21.072V13.4697C76.8105 12.6395 77.4682 11.9637 78.2762 11.9637H79.7449C80.9415 11.9637 82.1024 12.2044 83.1957 12.6794C84.2512 13.1387 85.1993 13.7944 86.0134 14.631C86.8276 15.4675 87.4668 16.4417 87.9127 17.5262C88.375 18.6497 88.6092 19.8425 88.6092 21.072C88.6092 21.9023 87.9516 22.578 87.1436 22.578ZM78.3038 21.0437H87.115C87.0996 16.8799 83.7991 13.4981 79.7438 13.4981H78.3038V21.0437Z" fill="#0D235A"/>
<line x1="2" y1="14.35" x2="74" y2="14.35" stroke="#0D235A" stroke-width="1.3"/>
</g>
<defs>
<clipPath id="clip0_1008_222">
<rect width="95" height="40" fill="white" transform="translate(0 0.768311)"/>
</clipPath>
</defs>
</svg>
