<svg width="76" height="41" viewBox="0 0 76 41" fill="none" xmlns="http://www.w3.org/2000/svg">
<g clip-path="url(#clip0_1011_266)">
<path d="M73.1543 36.7683H2.84572C2.46199 36.7683 2.08888 36.6625 1.73787 36.4531C1.39913 36.2518 1.09476 35.9631 0.833753 35.5962C0.572745 35.2293 0.367375 34.8014 0.224189 34.3252C0.0752751 33.8329 0 33.3084 0 32.7689C0 32.2294 0.0752751 31.7049 0.224189 31.2114C0.367375 30.7352 0.572745 30.3073 0.833753 29.9404C1.09476 29.5735 1.39913 29.2848 1.73787 29.0835C2.08888 28.8741 2.46199 28.7683 2.84572 28.7683H73.1543C73.538 28.7683 73.9111 28.8741 74.2621 29.0835C74.6009 29.2848 74.9052 29.5735 75.1663 29.9404C75.4273 30.3073 75.6326 30.7352 75.7758 31.2114C75.9247 31.7049 76 32.2294 76 32.7689C76 33.3084 75.9247 33.8329 75.7758 34.3263C75.6326 34.8025 75.4273 35.2304 75.1663 35.5974C74.9052 35.9643 74.6009 36.253 74.2621 36.4543C73.9103 36.6625 73.538 36.7683 73.1543 36.7683ZM2.84572 30.4477C1.93506 30.4477 1.19458 31.4887 1.19458 32.7689C1.19458 34.0491 1.93506 35.0901 2.84572 35.0901H73.1543C74.0649 35.0901 74.8054 34.0491 74.8054 32.7689C74.8054 31.4887 74.0649 30.4477 73.1543 30.4477H2.84572Z" fill="#0D235A"/>
<path d="M51.4124 26.7683H5.58765C5.10385 26.7683 4.63342 26.6366 4.19117 26.3772C3.76377 26.1261 3.38015 25.7679 3.0507 25.3109C2.72124 24.8539 2.46302 24.3218 2.28197 23.7289C2.09498 23.1145 2 22.4629 2 21.7919V3.08825C2 2.46864 2.17363 1.88608 2.48973 1.44762C2.80583 1.00916 3.22581 0.768311 3.6725 0.768311H51.4124C51.8961 0.768311 52.3666 0.900055 52.8088 1.15943C53.2362 1.41057 53.6199 1.76875 53.9493 2.22573C54.2788 2.68272 54.537 3.21485 54.718 3.8077C54.905 4.42216 55 5.07368 55 5.74476V21.7908C55 22.4619 54.905 23.1145 54.718 23.7279C54.537 24.3207 54.2788 24.8529 53.9493 25.3099C53.6199 25.7668 53.2362 26.125 52.8088 26.3762C52.3666 26.6366 51.8961 26.7683 51.4124 26.7683ZM3.6725 2.27102C3.3475 2.27102 3.08334 2.63744 3.08334 3.08825V21.7908C3.08334 23.7063 4.20676 25.2656 5.58839 25.2656H51.4131C52.794 25.2656 53.9181 23.7073 53.9181 21.7908V5.74476C53.9181 3.82931 52.7947 2.26999 51.4131 2.26999H3.6725V2.27102Z" fill="#0D235A"/>
<path d="M74.6156 30.3448H54.0293V5.21948H54.7759C56.1219 5.21948 57.4668 5.35925 58.7739 5.63354C60.0483 5.90153 61.3012 6.30088 62.4989 6.82213C63.675 7.33288 64.8083 7.96553 65.8689 8.70222C66.9193 9.43156 67.9073 10.2691 68.8042 11.1908C69.7012 12.1124 70.5164 13.1276 71.2262 14.2069C71.9431 15.2967 72.5578 16.4622 73.0559 17.6697C73.5622 18.9003 73.9518 20.1887 74.2126 21.4971C74.4806 22.8402 74.6156 24.2222 74.6156 25.6052V30.3448ZM55.5225 28.8105H73.1234V25.6062C73.1234 15.468 65.2951 7.17314 55.5225 6.76958V28.8105Z" fill="#0D235A"/>
<path d="M11.9174 39.7695C15.3252 39.7695 18.0878 36.9309 18.0878 33.4293C18.0878 29.9277 15.3252 27.0891 11.9174 27.0891C8.50964 27.0891 5.74707 29.9277 5.74707 33.4293C5.74707 36.9309 8.50964 39.7695 11.9174 39.7695Z" fill="white"/>
<path d="M11.917 40.5366C10.9832 40.5366 10.0781 40.3485 9.22404 39.9775C8.40071 39.6191 7.66023 39.1074 7.02611 38.4547C6.39199 37.8021 5.89288 37.0423 5.54411 36.1963C5.18308 35.3198 5 34.3887 5 33.4292C5 32.4698 5.18308 31.5397 5.54411 30.6622C5.89288 29.8162 6.39097 29.0553 7.02611 28.4038C7.66125 27.7511 8.40071 27.2393 9.22404 26.881C10.077 26.51 10.9832 26.3219 11.917 26.3219C12.8508 26.3219 13.7559 26.51 14.6099 26.881C15.4333 27.2393 16.1738 27.7511 16.8079 28.4038C17.443 29.0564 17.9411 29.8162 18.2899 30.6622C18.6509 31.5387 18.834 32.4698 18.834 33.4292C18.834 34.3887 18.6509 35.3188 18.2899 36.1963C17.9411 37.0423 17.443 37.8032 16.8079 38.4547C16.1727 39.1074 15.4333 39.6191 14.6099 39.9775C13.7559 40.3485 12.8508 40.5366 11.917 40.5366ZM11.917 27.8562C8.92641 27.8562 6.49324 30.3564 6.49324 33.4292C6.49324 36.5021 8.92641 39.0023 11.917 39.0023C14.9076 39.0023 17.3407 36.5021 17.3407 33.4292C17.3407 30.3564 14.9076 27.8562 11.917 27.8562Z" fill="#0D235A"/>
<path d="M11.9174 36.3929C13.5103 36.3929 14.8016 35.066 14.8016 33.4293C14.8016 31.7925 13.5103 30.4657 11.9174 30.4657C10.3245 30.4657 9.0332 31.7925 9.0332 33.4293C9.0332 35.066 10.3245 36.3929 11.9174 36.3929Z" fill="white"/>
<path d="M11.917 37.16C11.4271 37.16 10.9515 37.0612 10.5035 36.8668C10.0709 36.6787 9.68324 36.4096 9.34981 36.067C9.01639 35.7244 8.75456 35.3261 8.57149 34.8816C8.38227 34.4213 8.28613 33.9326 8.28613 33.4292C8.28613 32.9259 8.38227 32.4372 8.57149 31.9769C8.75456 31.5323 9.01639 31.134 9.34981 30.7914C9.68324 30.4488 10.0709 30.1798 10.5035 29.9917C10.9515 29.7973 11.4271 29.6985 11.917 29.6985C12.4069 29.6985 12.8825 29.7973 13.3304 29.9917C13.7631 30.1798 14.1507 30.4488 14.4841 30.7914C14.8175 31.134 15.0794 31.5323 15.2624 31.9769C15.4517 32.4372 15.5478 32.9259 15.5478 33.4292C15.5478 33.9326 15.4517 34.4213 15.2624 34.8816C15.0794 35.3261 14.8175 35.7244 14.4841 36.067C14.1507 36.4096 13.7631 36.6787 13.3304 36.8668C12.8825 37.0612 12.4069 37.16 11.917 37.16ZM11.917 31.2318C10.7377 31.2318 9.77938 32.2175 9.77938 33.4282C9.77938 34.6388 10.7387 35.6246 11.917 35.6246C13.0952 35.6246 14.0546 34.6388 14.0546 33.4282C14.0546 32.2175 13.0962 31.2318 11.917 31.2318Z" fill="#0D235A"/>
<path d="M64.9428 39.7695C68.3506 39.7695 71.1132 36.9309 71.1132 33.4293C71.1132 29.9277 68.3506 27.0891 64.9428 27.0891C61.535 27.0891 58.7725 29.9277 58.7725 33.4293C58.7725 36.9309 61.535 39.7695 64.9428 39.7695Z" fill="white"/>
<path d="M64.9424 40.5366C64.0086 40.5366 63.1034 40.3485 62.2494 39.9775C61.4261 39.6191 60.6856 39.1074 60.0515 38.4547C59.4174 37.8021 58.9183 37.0423 58.5695 36.1963C58.2085 35.3198 58.0254 34.3887 58.0254 33.4292C58.0254 32.4698 58.2085 31.5397 58.5695 30.6622C58.9183 29.8162 59.4164 29.0553 60.0515 28.4038C60.6866 27.7511 61.4261 27.2393 62.2494 26.881C63.1024 26.51 64.0086 26.3219 64.9424 26.3219C65.8762 26.3219 66.7813 26.51 67.6353 26.881C68.4587 27.2393 69.1991 27.7511 69.8333 28.4038C70.4674 29.0564 70.9665 29.8162 71.3153 30.6622C71.6763 31.5387 71.8594 32.4698 71.8594 33.4292C71.8594 34.3887 71.6763 35.3188 71.3153 36.1963C70.9665 37.0423 70.4684 37.8032 69.8333 38.4547C69.1981 39.1063 68.4587 39.6191 67.6353 39.9775C66.7813 40.3485 65.8752 40.5366 64.9424 40.5366ZM64.9424 27.8562C61.9518 27.8562 59.5186 30.3564 59.5186 33.4292C59.5186 36.5021 61.9518 39.0023 64.9424 39.0023C67.933 39.0023 70.3661 36.5021 70.3661 33.4292C70.3651 30.3564 67.933 27.8562 64.9424 27.8562Z" fill="#0D235A"/>
<path d="M64.9428 36.3929C66.5357 36.3929 67.827 35.066 67.827 33.4293C67.827 31.7925 66.5357 30.4657 64.9428 30.4657C63.3499 30.4657 62.0586 31.7925 62.0586 33.4293C62.0586 35.066 63.3499 36.3929 64.9428 36.3929Z" fill="white"/>
<path d="M64.9424 37.16C64.4525 37.16 63.9769 37.0612 63.5289 36.8668C63.0963 36.6787 62.7086 36.4096 62.3752 36.067C62.0418 35.7244 61.78 35.3261 61.5969 34.8816C61.4077 34.4213 61.3115 33.9326 61.3115 33.4292C61.3115 32.9259 61.4077 32.4372 61.5969 31.9769C61.78 31.5323 62.0418 31.134 62.3752 30.7914C62.7086 30.4488 63.0963 30.1798 63.5289 29.9917C63.9769 29.7973 64.4525 29.6985 64.9424 29.6985C65.4323 29.6985 65.9078 29.7973 66.3558 29.9917C66.7885 30.1798 67.1761 30.4488 67.5095 30.7914C67.8429 31.134 68.1048 31.5323 68.2878 31.9769C68.4771 32.4372 68.5732 32.9259 68.5732 33.4292C68.5732 33.9326 68.4771 34.4213 68.2878 34.8816C68.1048 35.3261 67.8429 35.7255 67.5095 36.067C67.1761 36.4096 66.7885 36.6787 66.3558 36.8668C65.9078 37.0612 65.4323 37.16 64.9424 37.16ZM64.9424 31.2318C63.7631 31.2318 62.8048 32.2175 62.8048 33.4282C62.8048 34.6388 63.7641 35.6246 64.9424 35.6246C66.1216 35.6246 67.08 34.6388 67.08 33.4282C67.08 32.2175 66.1206 31.2318 64.9424 31.2318Z" fill="#0D235A"/>
<path d="M7.49324 26.3167H6V29.5776H7.49324V26.3167Z" fill="#0D235A"/>
<path d="M55.5157 22.0016H54.0225V29.6102H55.5157V22.0016Z" fill="#0D235A"/>
<path d="M68.1426 22.3463H59.2752C58.4672 22.3463 57.8096 21.6706 57.8096 20.8404V13.238C57.8096 12.4078 58.4672 11.7321 59.2752 11.7321H60.7439C61.9405 11.7321 63.1014 11.9727 64.1947 12.4477C65.2502 12.907 66.1983 13.5628 67.0125 14.3993C67.8266 15.2358 68.4658 16.21 68.9117 17.2946C69.374 18.418 69.6082 19.6108 69.6082 20.8404C69.6082 21.6706 68.9506 22.3463 68.1426 22.3463ZM59.3028 20.812H68.114C68.0986 16.6482 64.7982 13.2664 60.7429 13.2664H59.3028V20.812Z" fill="#0D235A"/>
</g>
<defs>
<clipPath id="clip0_1011_266">
<rect width="76" height="40" fill="white" transform="translate(0 0.768311)"/>
</clipPath>
</defs>
</svg>
