<svg width="174" height="41" viewBox="0 0 174 41" fill="none" xmlns="http://www.w3.org/2000/svg">
<g clip-path="url(#clip0_1011_288)">
<path d="M75.0439 36.6309H3.35032C2.89843 36.6309 2.45915 36.5426 2.04614 36.3671C1.64679 36.1979 1.28948 35.9573 0.981556 35.6493C0.673638 35.3414 0.432978 34.9841 0.26378 34.5848C0.088277 34.1718 0 33.7335 0 33.2816V32.6721C0 32.2202 0.088277 31.7809 0.26378 31.3679C0.432978 30.9686 0.673638 30.6113 0.981556 30.3033C1.28948 29.9965 1.64679 29.7548 2.04614 29.5856C2.45915 29.4111 2.89843 29.3218 3.35032 29.3218H75.0439C75.4958 29.3218 75.9351 29.4101 76.3481 29.5856C76.7474 29.7548 77.1047 29.9954 77.4127 30.3033C77.7206 30.6102 77.9612 30.9686 78.1304 31.3679C78.3049 31.7809 78.3942 32.2202 78.3942 32.6721V33.2816C78.3942 33.7335 78.3059 34.1728 78.1304 34.5858C77.9612 34.9852 77.7206 35.3425 77.4127 35.6504C77.1047 35.9583 76.7474 36.199 76.3481 36.3682C75.934 36.5426 75.4958 36.6309 75.0439 36.6309ZM3.35032 30.8561C2.3488 30.8561 1.53434 31.6706 1.53434 32.6721V33.2816C1.53434 34.2832 2.3488 35.0976 3.35032 35.0976H75.0439C76.0454 35.0976 76.8599 34.2832 76.8599 33.2816V32.6721C76.8599 31.6706 76.0454 30.8561 75.0439 30.8561H3.35032Z" fill="#0D235A"/>
<path d="M71.4846 27.3155H6.58314C5.89794 27.3155 5.23166 27.181 4.60531 26.9162C3.99998 26.6598 3.45666 26.294 2.99005 25.8274C2.52344 25.3608 2.15773 24.8175 1.9013 24.2122C1.63647 23.5848 1.50195 22.9195 1.50195 22.2343V3.13708C1.50195 2.50443 1.74787 1.90961 2.19556 1.46192C2.64325 1.01423 3.23807 0.768311 3.87072 0.768311H71.4846C72.1698 0.768311 72.8361 0.902828 73.4624 1.16766C74.0678 1.42408 74.6111 1.7898 75.0777 2.25641C75.5443 2.72302 75.91 3.26634 76.1665 3.87167C76.4313 4.49907 76.5658 5.1643 76.5658 5.84949V22.2333C76.5658 22.9185 76.4313 23.5848 76.1665 24.2111C75.91 24.8164 75.5443 25.3598 75.0777 25.8264C74.6111 26.293 74.0678 26.6587 73.4624 26.9151C72.8361 27.181 72.1709 27.3155 71.4846 27.3155ZM3.87072 2.30265C3.41042 2.30265 3.03629 2.67678 3.03629 3.13708V22.2333C3.03629 24.189 4.62738 25.7812 6.58419 25.7812H71.4857C73.4414 25.7812 75.0336 24.1901 75.0336 22.2333V5.84949C75.0336 3.89374 73.4425 2.3016 71.4857 2.3016H3.87072V2.30265Z" fill="#0D235A"/>
<path d="M15.7386 40.0012C19.2402 40.0012 22.0788 37.1626 22.0788 33.661C22.0788 30.1594 19.2402 27.3208 15.7386 27.3208C12.237 27.3208 9.39844 30.1594 9.39844 33.661C9.39844 37.1626 12.237 40.0012 15.7386 40.0012Z" fill="white"/>
<path d="M15.7382 40.7683C14.7787 40.7683 13.8487 40.5802 12.9711 40.2092C12.1252 39.8508 11.3643 39.339 10.7127 38.6864C10.0612 38.0338 9.54831 37.274 9.18995 36.428C8.81897 35.5515 8.63086 34.6204 8.63086 33.6609C8.63086 32.7015 8.81897 31.7714 9.18995 30.8939C9.54831 30.0479 10.0601 29.287 10.7127 28.6355C11.3653 27.9839 12.1252 27.471 12.9711 27.1127C13.8476 26.7417 14.7787 26.5536 15.7382 26.5536C16.6977 26.5536 17.6278 26.7417 18.5053 27.1127C19.3513 27.471 20.1121 27.9828 20.7637 28.6355C21.4163 29.2881 21.9281 30.0479 22.2865 30.8939C22.6574 31.7703 22.8456 32.7015 22.8456 33.6609C22.8456 34.6204 22.6574 35.5505 22.2865 36.428C21.9281 37.274 21.4163 38.0349 20.7637 38.6864C20.1111 39.339 19.3513 39.8508 18.5053 40.2092C17.6278 40.5802 16.6977 40.7683 15.7382 40.7683ZM15.7382 28.0879C12.6653 28.0879 10.1652 30.5881 10.1652 33.6609C10.1652 36.7338 12.6653 39.234 15.7382 39.234C18.8111 39.234 21.3112 36.7338 21.3112 33.6609C21.3112 30.5881 18.8111 28.0879 15.7382 28.0879Z" fill="#0D235A"/>
<path d="M15.739 36.6246C17.3757 36.6246 18.7026 35.2977 18.7026 33.661C18.7026 32.0242 17.3757 30.6974 15.739 30.6974C14.1022 30.6974 12.7754 32.0242 12.7754 33.661C12.7754 35.2977 14.1022 36.6246 15.739 36.6246Z" fill="white"/>
<path d="M15.7386 37.3917C15.2352 37.3917 14.7465 37.2929 14.2862 37.0985C13.8417 36.9104 13.4434 36.6413 13.1008 36.2987C12.7582 35.9561 12.4891 35.5578 12.301 35.1133C12.1066 34.653 12.0078 34.1643 12.0078 33.6609C12.0078 33.1575 12.1066 32.6689 12.301 32.2086C12.4891 31.764 12.7582 31.3657 13.1008 31.0231C13.4434 30.6805 13.8417 30.4115 14.2862 30.2234C14.7465 30.029 15.2352 29.9302 15.7386 29.9302C16.242 29.9302 16.7306 30.029 17.1909 30.2234C17.6355 30.4115 18.0338 30.6805 18.3764 31.0231C18.719 31.3657 18.988 31.764 19.1761 32.2086C19.3705 32.6689 19.4693 33.1575 19.4693 33.6609C19.4693 34.1643 19.3705 34.653 19.1761 35.1133C18.988 35.5578 18.719 35.9561 18.3764 36.2987C18.0338 36.6413 17.6355 36.9104 17.1909 37.0985C16.7306 37.2929 16.242 37.3917 15.7386 37.3917ZM15.7386 31.4635C14.5269 31.4635 13.5422 32.4492 13.5422 33.6599C13.5422 34.8705 14.5279 35.8563 15.7386 35.8563C16.9492 35.8563 17.935 34.8705 17.935 33.6599C17.935 32.4492 16.9503 31.4635 15.7386 31.4635Z" fill="#0D235A"/>
<path d="M64.7972 40.0012C68.2988 40.0012 71.1374 37.1626 71.1374 33.661C71.1374 30.1594 68.2988 27.3208 64.7972 27.3208C61.2956 27.3208 58.457 30.1594 58.457 33.661C58.457 37.1626 61.2956 40.0012 64.7972 40.0012Z" fill="white"/>
<path d="M64.7968 40.7683C63.8373 40.7683 62.9073 40.5802 62.0297 40.2092C61.1838 39.8508 60.4229 39.339 59.7713 38.6864C59.1198 38.0338 58.6069 37.274 58.2485 36.428C57.8776 35.5515 57.6895 34.6204 57.6895 33.6609C57.6895 32.7015 57.8776 31.7714 58.2485 30.8939C58.6069 30.0479 59.1187 29.287 59.7713 28.6355C60.4239 27.9839 61.1838 27.471 62.0297 27.1127C62.9062 26.7417 63.8373 26.5536 64.7968 26.5536C65.7563 26.5536 66.6864 26.7417 67.5639 27.1127C68.4099 27.471 69.1707 27.9828 69.8223 28.6355C70.4739 29.2881 70.9867 30.0479 71.3451 30.8939C71.716 31.7703 71.9042 32.7015 71.9042 33.6609C71.9042 34.6204 71.716 35.5505 71.3451 36.428C70.9867 37.274 70.4749 38.0349 69.8223 38.6864C69.1697 39.338 68.4099 39.8508 67.5639 40.2092C66.6864 40.5802 65.7552 40.7683 64.7968 40.7683ZM64.7968 28.0879C61.7239 28.0879 59.2238 30.5881 59.2238 33.6609C59.2238 36.7338 61.7239 39.234 64.7968 39.234C67.8697 39.234 70.3698 36.7338 70.3698 33.6609C70.3688 30.5881 67.8697 28.0879 64.7968 28.0879Z" fill="#0D235A"/>
<path d="M64.7976 36.6246C66.4343 36.6246 67.7612 35.2977 67.7612 33.661C67.7612 32.0242 66.4343 30.6974 64.7976 30.6974C63.1608 30.6974 61.834 32.0242 61.834 33.661C61.834 35.2977 63.1608 36.6246 64.7976 36.6246Z" fill="white"/>
<path d="M64.7972 37.3917C64.2938 37.3917 63.8051 37.2929 63.3448 37.0985C62.9003 36.9104 62.502 36.6413 62.1594 36.2987C61.8168 35.9561 61.5477 35.5578 61.3596 35.1133C61.1652 34.653 61.0664 34.1643 61.0664 33.6609C61.0664 33.1575 61.1652 32.6689 61.3596 32.2086C61.5477 31.764 61.8168 31.3657 62.1594 31.0231C62.502 30.6805 62.9003 30.4115 63.3448 30.2234C63.8051 30.029 64.2938 29.9302 64.7972 29.9302C65.3006 29.9302 65.7892 30.029 66.2495 30.2234C66.6941 30.4115 67.0924 30.6805 67.435 31.0231C67.7776 31.3657 68.0466 31.764 68.2347 32.2086C68.4291 32.6689 68.5279 33.1575 68.5279 33.6609C68.5279 34.1643 68.4291 34.653 68.2347 35.1133C68.0466 35.5578 67.7776 35.9561 67.435 36.2987C67.0924 36.6413 66.6941 36.9104 66.2495 37.0985C65.7892 37.2929 65.3006 37.3917 64.7972 37.3917ZM64.7972 31.4635C63.5855 31.4635 62.6007 32.4492 62.6007 33.6599C62.6007 34.8705 63.5865 35.8563 64.7972 35.8563C66.0078 35.8563 66.9936 34.8705 66.9936 33.6599C66.9936 32.4492 66.0078 31.4635 64.7972 31.4635Z" fill="#0D235A"/>
<path d="M7.34977 26.5483H5.81543V29.8093H7.34977V26.5483Z" fill="#0D235A"/>
<path d="M73.2111 26.5483H71.6768V29.843H73.2111V26.5483Z" fill="#0D235A"/>
</g>
<g clip-path="url(#clip1_1011_288)">
<path d="M169.837 36.6309H81.9507C81.4711 36.6309 81.0047 36.5342 80.5659 36.343C80.1425 36.159 79.762 35.8953 79.4358 35.56C79.1095 35.2248 78.8528 34.8338 78.6738 34.3988C78.4876 33.949 78.3936 33.4697 78.3936 32.9769C78.3936 32.484 78.4876 32.0048 78.6738 31.5539C78.8528 31.1188 79.1095 30.7279 79.4358 30.3927C79.762 30.0574 80.1425 29.7936 80.5659 29.6097C81.0047 29.4185 81.4711 29.3218 81.9507 29.3218H169.837C170.317 29.3218 170.783 29.4185 171.222 29.6097C171.646 29.7936 172.026 30.0574 172.352 30.3927C172.679 30.7279 172.935 31.1188 173.114 31.5539C173.3 32.0048 173.395 32.484 173.395 32.9769C173.395 33.4697 173.3 33.949 173.114 34.3998C172.935 34.8349 172.679 35.2258 172.352 35.5611C172.026 35.8963 171.646 36.1601 171.222 36.344C170.782 36.5342 170.317 36.6309 169.837 36.6309ZM81.9507 30.8561C80.8124 30.8561 79.8868 31.8072 79.8868 32.9769C79.8868 34.1465 80.8124 35.0976 81.9507 35.0976H169.837C170.976 35.0976 171.901 34.1465 171.901 32.9769C171.901 31.8072 170.976 30.8561 169.837 30.8561H81.9507Z" fill="#0D235A"/>
<path d="M147.964 27.3155H84.8006C84.1337 27.3155 83.4853 27.181 82.8757 26.9162C82.2866 26.6598 81.7578 26.294 81.3037 25.8274C80.8496 25.3608 80.4937 24.8175 80.2441 24.2122C79.9864 23.5848 79.8555 22.9195 79.8555 22.2343V3.13708C79.8555 2.50443 80.0948 1.90961 80.5305 1.46192C80.9662 1.01423 81.5451 0.768311 82.1608 0.768311H147.964C148.631 0.768311 149.279 0.902828 149.889 1.16766C150.478 1.42408 151.007 1.7898 151.461 2.25641C151.915 2.72302 152.271 3.26634 152.52 3.87167C152.778 4.49907 152.909 5.1643 152.909 5.84949V22.2333C152.909 22.9185 152.778 23.5848 152.52 24.2111C152.271 24.8164 151.915 25.3598 151.461 25.8264C151.007 26.293 150.478 26.6587 149.889 26.9151C149.279 27.181 148.631 27.3155 147.964 27.3155ZM82.1608 2.30265C81.7128 2.30265 81.3487 2.67678 81.3487 3.13708V22.2333C81.3487 24.189 82.8972 25.7812 84.8016 25.7812H147.965C149.868 25.7812 151.418 24.1901 151.418 22.2333V5.84949C151.418 3.89374 149.869 2.3016 147.965 2.3016H82.1608V2.30265Z" fill="#0D235A"/>
<path d="M172.009 30.5765H151.423V5.45117H152.169C153.515 5.45117 154.86 5.59094 156.167 5.86523C157.442 6.13322 158.695 6.53256 159.892 7.05382C161.069 7.56457 162.202 8.19722 163.262 8.93391C164.313 9.66325 165.301 10.5008 166.198 11.4225C167.095 12.3441 167.91 13.3593 168.62 14.4386C169.337 15.5284 169.951 16.6939 170.449 17.9014C170.956 19.132 171.345 20.4204 171.606 21.7288C171.874 23.0719 172.009 24.4538 172.009 25.8369V30.5765ZM152.916 29.0422H170.517V25.8379C170.517 15.6997 162.689 7.40483 152.916 7.00127V29.0422Z" fill="#0D235A"/>
<path d="M93.7114 40.0012C97.1192 40.0012 99.8818 37.1626 99.8818 33.661C99.8818 30.1594 97.1192 27.3208 93.7114 27.3208C90.3036 27.3208 87.541 30.1594 87.541 33.661C87.541 37.1626 90.3036 40.0012 93.7114 40.0012Z" fill="white"/>
<path d="M93.7109 40.7683C92.7772 40.7683 91.872 40.5802 91.018 40.2092C90.1947 39.8508 89.4542 39.339 88.8201 38.6864C88.1859 38.0338 87.6868 37.274 87.3381 36.428C86.977 35.5515 86.7939 34.6204 86.7939 33.6609C86.7939 32.7015 86.977 31.7714 87.3381 30.8939C87.6868 30.0479 88.1849 29.287 88.8201 28.6355C89.4552 27.9828 90.1947 27.471 91.018 27.1127C91.871 26.7417 92.7772 26.5536 93.7109 26.5536C94.6447 26.5536 95.5499 26.7417 96.4039 27.1127C97.2272 27.471 97.9677 27.9828 98.6018 28.6355C99.237 29.2881 99.7351 30.0479 100.084 30.8939C100.445 31.7703 100.628 32.7015 100.628 33.6609C100.628 34.6204 100.445 35.5505 100.084 36.428C99.7351 37.274 99.237 38.0349 98.6018 38.6864C97.9667 39.339 97.2272 39.8508 96.4039 40.2092C95.5499 40.5802 94.6447 40.7683 93.7109 40.7683ZM93.7109 28.0879C90.7204 28.0879 88.2872 30.5881 88.2872 33.6609C88.2872 36.7338 90.7204 39.234 93.7109 39.234C96.7015 39.234 99.1347 36.7338 99.1347 33.6609C99.1347 30.5881 96.7015 28.0879 93.7109 28.0879Z" fill="#0D235A"/>
<path d="M93.7114 36.6246C95.3043 36.6246 96.5956 35.2977 96.5956 33.661C96.5956 32.0242 95.3043 30.6974 93.7114 30.6974C92.1185 30.6974 90.8271 32.0242 90.8271 33.661C90.8271 35.2977 92.1185 36.6246 93.7114 36.6246Z" fill="white"/>
<path d="M93.7109 37.3917C93.221 37.3917 92.7454 37.2929 92.2974 37.0985C91.8648 36.9104 91.4772 36.6413 91.1438 36.2987C90.8103 35.9561 90.5485 35.5578 90.3654 35.1133C90.1762 34.653 90.0801 34.1643 90.0801 33.6609C90.0801 33.1575 90.1762 32.6689 90.3654 32.2086C90.5485 31.764 90.8103 31.3657 91.1438 31.0231C91.4772 30.6805 91.8648 30.4115 92.2974 30.2234C92.7454 30.029 93.221 29.9302 93.7109 29.9302C94.2008 29.9302 94.6764 30.029 95.1244 30.2234C95.557 30.4115 95.9446 30.6805 96.2781 31.0231C96.6115 31.3657 96.8733 31.764 97.0564 32.2086C97.2456 32.6689 97.3417 33.1575 97.3417 33.6609C97.3417 34.1643 97.2456 34.653 97.0564 35.1133C96.8733 35.5578 96.6115 35.9561 96.2781 36.2987C95.9446 36.6413 95.557 36.9104 95.1244 37.0985C94.6764 37.2929 94.2008 37.3917 93.7109 37.3917ZM93.7109 31.4635C92.5317 31.4635 91.5733 32.4492 91.5733 33.6599C91.5733 34.8705 92.5327 35.8563 93.7109 35.8563C94.8891 35.8563 95.8485 34.8705 95.8485 33.6599C95.8485 32.4492 94.8902 31.4635 93.7109 31.4635Z" fill="#0D235A"/>
<path d="M162.336 40.0012C165.744 40.0012 168.507 37.1626 168.507 33.661C168.507 30.1594 165.744 27.3208 162.336 27.3208C158.929 27.3208 156.166 30.1594 156.166 33.661C156.166 37.1626 158.929 40.0012 162.336 40.0012Z" fill="white"/>
<path d="M162.336 40.7683C161.402 40.7683 160.497 40.5802 159.643 40.2092C158.82 39.8508 158.079 39.339 157.445 38.6864C156.811 38.0338 156.312 37.274 155.963 36.428C155.602 35.5515 155.419 34.6204 155.419 33.6609C155.419 32.7015 155.602 31.7714 155.963 30.8939C156.312 30.0479 156.81 29.287 157.445 28.6355C158.08 27.9828 158.82 27.471 159.643 27.1127C160.496 26.7417 161.402 26.5536 162.336 26.5536C163.27 26.5536 164.175 26.7417 165.029 27.1127C165.852 27.471 166.593 27.9828 167.227 28.6355C167.861 29.2881 168.36 30.0479 168.709 30.8939C169.07 31.7703 169.253 32.7015 169.253 33.6609C169.253 34.6204 169.07 35.5505 168.709 36.428C168.36 37.274 167.862 38.0349 167.227 38.6864C166.592 39.338 165.852 39.8508 165.029 40.2092C164.175 40.5802 163.269 40.7683 162.336 40.7683ZM162.336 28.0879C159.345 28.0879 156.912 30.5881 156.912 33.6609C156.912 36.7338 159.345 39.234 162.336 39.234C165.327 39.234 167.76 36.7338 167.76 33.6609C167.759 30.5881 165.327 28.0879 162.336 28.0879Z" fill="#0D235A"/>
<path d="M162.336 36.6246C163.929 36.6246 165.221 35.2977 165.221 33.661C165.221 32.0242 163.929 30.6974 162.336 30.6974C160.743 30.6974 159.452 32.0242 159.452 33.661C159.452 35.2977 160.743 36.6246 162.336 36.6246Z" fill="white"/>
<path d="M162.336 37.3917C161.846 37.3917 161.37 37.2929 160.922 37.0985C160.49 36.9104 160.102 36.6413 159.769 36.2987C159.435 35.9561 159.174 35.5578 158.99 35.1133C158.801 34.653 158.705 34.1643 158.705 33.6609C158.705 33.1575 158.801 32.6689 158.99 32.2086C159.174 31.764 159.435 31.3657 159.769 31.0231C160.102 30.6805 160.49 30.4115 160.922 30.2234C161.37 30.029 161.846 29.9302 162.336 29.9302C162.826 29.9302 163.301 30.029 163.749 30.2234C164.182 30.4115 164.57 30.6805 164.903 31.0231C165.236 31.3657 165.498 31.764 165.681 32.2086C165.871 32.6689 165.967 33.1575 165.967 33.6609C165.967 34.1643 165.871 34.653 165.681 35.1133C165.498 35.5578 165.236 35.9572 164.903 36.2987C164.57 36.6413 164.182 36.9104 163.749 37.0985C163.301 37.2929 162.826 37.3917 162.336 37.3917ZM162.336 31.4635C161.157 31.4635 160.198 32.4492 160.198 33.6599C160.198 34.8705 161.158 35.8563 162.336 35.8563C163.515 35.8563 164.474 34.8705 164.474 33.6599C164.474 32.4492 163.514 31.4635 162.336 31.4635Z" fill="#0D235A"/>
<path d="M85.547 26.5483H84.0537V29.8093H85.547V26.5483Z" fill="#0D235A"/>
<path d="M152.909 22.2333H151.416V29.8419H152.909V22.2333Z" fill="#0D235A"/>
<path d="M165.536 22.578H156.669C155.861 22.578 155.203 21.9023 155.203 21.072V13.4697C155.203 12.6395 155.861 11.9637 156.669 11.9637H158.137C159.334 11.9637 160.495 12.2044 161.588 12.6794C162.644 13.1387 163.592 13.7944 164.406 14.631C165.22 15.4675 165.859 16.4417 166.305 17.5262C166.768 18.6497 167.002 19.8425 167.002 21.072C167.002 21.9023 166.344 22.578 165.536 22.578ZM156.696 21.0437H165.508C165.492 16.8799 162.192 13.4981 158.136 13.4981H156.696V21.0437Z" fill="#0D235A"/>
</g>
<defs>
<clipPath id="clip0_1011_288">
<rect width="78.3932" height="40" fill="white" transform="translate(0 0.768311)"/>
</clipPath>
<clipPath id="clip1_1011_288">
<rect width="95" height="40" fill="white" transform="translate(78.3936 0.768311)"/>
</clipPath>
</defs>
</svg>
