<svg width="40" height="40" viewBox="0 0 40 40" fill="none" xmlns="http://www.w3.org/2000/svg">
<rect width="40" height="40" rx="2" fill="white"/>
<mask id="mask0_1127_1065" style="mask-type:luminance" maskUnits="userSpaceOnUse" x="0" y="7" width="40" height="25">
<path d="M40 7H0V32H40V7Z" fill="white"/>
</mask>
<g mask="url(#mask0_1127_1065)">
<mask id="mask1_1127_1065" style="mask-type:luminance" maskUnits="userSpaceOnUse" x="0" y="7" width="40" height="25">
<path d="M39.5773 7.39185H0.359131V31.6079H39.5773V7.39185Z" fill="white"/>
</mask>
<g mask="url(#mask1_1127_1065)">
<path fill-rule="evenodd" clip-rule="evenodd" d="M11.4434 24.8762C8.83883 23.9642 7.07373 21.3833 7.07373 18.4743C7.07373 14.7506 9.92782 11.7319 13.4482 11.7319C14.7734 11.7319 16.05 12.171 17.1358 12.9746C17.4018 13.1715 17.4115 13.5817 17.1715 13.8127C16.632 14.332 16.2573 14.8406 16.0376 15.3453C15.0501 17.3991 16.3853 18.4578 17.5394 19.8036C18.393 20.799 17.9966 22.2472 16.8583 22.8501C15.2265 23.7142 13.4381 24.299 11.7206 24.8773C11.6303 24.9076 11.5333 24.9073 11.4434 24.8762Z" fill="white"/>
<path fill-rule="evenodd" clip-rule="evenodd" d="M18.6799 16.6C18.7082 16.5447 18.8171 16.3615 19.128 16.0622C20.6167 14.6295 20.7119 11.8941 18.804 10.4816C17.2467 9.32914 15.3906 8.68335 13.4481 8.68335C8.31167 8.68335 4.17505 13.083 4.17505 18.4745C4.17505 22.6873 6.73097 26.4396 10.5276 27.7691L11.4432 24.8764L10.5387 27.773C11.2093 28.0046 11.9321 28.0074 12.604 27.7811C12.7042 27.7474 12.8058 27.7133 12.9087 27.6788C14.5037 27.1433 16.3989 26.5069 18.1617 25.5733C20.6485 24.2563 22.0837 20.5512 19.6916 17.7617C19.5308 17.5743 19.3696 17.3945 19.2345 17.2438L19.2116 17.2183C19.0634 17.0531 18.9469 16.9225 18.8413 16.7981C18.7746 16.7194 18.7216 16.654 18.6799 16.6ZM16.0374 15.3455C16.2572 14.8408 16.6318 14.3322 17.1714 13.8129C17.4114 13.5819 17.4017 13.1717 17.1357 12.9748C16.7058 12.6567 16.246 12.3957 15.7652 12.1964C15.4885 12.0818 15.2049 11.9876 14.9158 11.9147C14.9026 11.9113 14.8894 11.9081 14.8761 11.9048C14.4113 11.7909 13.9329 11.7321 13.4481 11.7321C9.92767 11.7321 7.07358 14.7508 7.07358 18.4745C7.07358 21.3835 8.83868 23.9644 11.4432 24.8764C11.5332 24.9075 11.6302 24.9078 11.7204 24.8775C11.8053 24.8489 11.8905 24.8203 11.9757 24.7916C13.6145 24.2407 15.3071 23.6717 16.8582 22.8503C17.9965 22.2474 18.3929 20.7992 17.5393 19.8038C17.4007 19.6423 17.2596 19.4848 17.1202 19.3294C16.098 18.1895 15.1685 17.1528 16.0374 15.3455Z" fill="white"/>
<path fill-rule="evenodd" clip-rule="evenodd" d="M15.5569 16.4077C15.32 17.7116 16.4813 18.8332 17.4347 19.951C18.2332 20.8873 17.8859 22.1857 16.811 22.7368C13.031 24.6744 5.97091 26.6424 3.73508 26.7287C3.46913 26.7369 3.25757 26.966 3.25757 27.2458V27.638C3.25757 28.1468 3.64966 28.5591 4.13331 28.5591H33.971C35.5908 28.5591 36.9215 27.1533 36.6331 25.4767C36.5312 24.8846 36.4082 24.3301 36.2736 23.8085C35.8687 22.2382 34.6497 20.7508 32.8638 19.9018C29.3884 18.2494 25.0809 17.8607 22.8444 16.4466C22.0529 15.9463 22.027 14.8851 22.8623 14.4711C25.3771 13.225 31.3943 12.4418 34.1177 12.4867C34.6312 12.4951 35.1013 12.0973 35.1454 11.5591C35.1869 11.0529 34.8352 10.6055 34.3534 10.5688C27.3456 10.0342 16.1623 11.0229 15.5569 16.4077ZM11.5806 26.7872H32.6899C33.9853 26.7872 34.9967 25.5897 34.6576 24.2747C34.3329 23.0159 33.2673 22.0363 32.1771 21.518C31.5165 21.2038 30.8314 20.9443 30.1409 20.7144C28.3823 20.129 26.576 19.7423 24.8117 19.1874C23.2026 18.6812 21.3748 17.9568 20.379 16.4386C19.8947 15.7377 20.1033 15.0532 20.1739 14.8445C20.3108 14.43 20.5449 14.0782 20.8389 13.7775C20.981 13.6311 20.887 13.5731 20.6692 13.6524C18.7677 14.4519 17.7931 15.3498 17.4114 16.1811C17.2262 16.6552 17.2579 16.8963 17.4172 17.2263C17.6188 17.6441 18.0705 18.0648 18.2317 18.2497C18.7079 18.7954 19.166 19.3801 19.5878 19.9787C20.7079 21.5681 20.5088 22.2382 19.5368 23.0855C18.5968 23.848 17.3572 24.4533 16.2673 24.9365C14.8885 25.5479 13.4608 26.0709 12.034 26.5422C11.878 26.5937 11.7217 26.6447 11.5653 26.6952C11.5136 26.7098 11.5038 26.7927 11.5806 26.7872Z" fill="white"/>
<path fill-rule="evenodd" clip-rule="evenodd" d="M18.0915 18.0986C17.9722 17.9728 17.8169 17.8088 17.6768 17.6291C17.5761 17.5001 17.4833 17.3631 17.4173 17.2263C17.3372 17.0604 17.2894 16.917 17.2852 16.7551C17.2841 16.7127 17.286 16.669 17.291 16.6233C17.2925 16.61 17.2943 16.5965 17.2963 16.5829C17.3136 16.4664 17.351 16.3362 17.4115 16.1811C17.5837 15.8062 17.8763 15.4177 18.3202 15.0309C18.5423 14.8374 18.8022 14.6442 19.1038 14.4534C19.107 14.4514 19.1101 14.4494 19.1132 14.4474C19.242 14.3662 19.3784 14.2854 19.5226 14.2051C19.8604 14.0171 20.2414 13.8322 20.6693 13.6523C20.6833 13.6471 20.6969 13.6426 20.7099 13.6387C20.71 13.6386 20.7103 13.6385 20.7104 13.6385C20.8984 13.581 20.9718 13.6407 20.839 13.7774C20.8093 13.8077 20.7804 13.8385 20.752 13.8699C20.7492 13.8729 20.7466 13.8759 20.7438 13.8789C20.4945 14.1566 20.2958 14.4757 20.174 14.8444C20.1463 14.9265 20.0972 15.082 20.0773 15.2832C20.0588 15.4699 20.0653 15.6959 20.1374 15.9388C20.1698 16.048 20.2154 16.1606 20.2778 16.2746C20.2778 16.2746 20.2779 16.2748 20.2778 16.2746C20.3076 16.329 20.3413 16.3838 20.3791 16.4386C20.4259 16.5099 20.4745 16.5794 20.5248 16.6473C20.6046 16.7549 20.6888 16.8582 20.7768 16.9576C21.0143 17.2255 21.2802 17.4643 21.5661 17.6784C21.6994 17.7783 21.837 17.8729 21.978 17.9625C22.8577 18.5216 23.8721 18.8917 24.8118 19.1873C25.6216 19.442 26.4402 19.6613 27.2591 19.8806C28.2242 20.1391 29.1896 20.3976 30.1411 20.7144C30.8293 20.9435 31.5121 21.2021 32.1707 21.5148C32.1729 21.5159 32.175 21.5169 32.1772 21.5179C33.266 22.0356 34.3302 23.0133 34.6564 24.2698C34.6564 24.2697 34.6564 24.2698 34.6564 24.2698C34.6568 24.2713 34.6573 24.2731 34.6577 24.2747C34.8133 24.8782 34.6845 25.457 34.3743 25.9066C34.262 26.0693 34.126 26.2151 33.9711 26.339C33.6215 26.6188 33.1757 26.7871 32.69 26.7871H11.5807C11.504 26.7926 11.5137 26.7098 11.5654 26.6951C11.5685 26.6941 11.5715 26.6931 11.5746 26.6921C11.5766 26.6915 11.5787 26.6908 11.5807 26.6901C11.732 26.6413 11.8832 26.592 12.0341 26.5421C12.7793 26.296 13.5246 26.0357 14.2633 25.7562C14.4754 25.6759 14.687 25.5939 14.8979 25.5103C15.3585 25.3276 15.8156 25.1368 16.2674 24.9365C16.6815 24.7529 17.1172 24.5517 17.5497 24.331C17.9097 24.1473 18.2675 23.9502 18.6091 23.7384C18.9376 23.5346 19.2511 23.3173 19.5369 23.0854C20.5089 22.2382 20.708 21.568 19.588 19.9786C19.5586 19.9369 19.529 19.8953 19.4993 19.8537C19.2372 19.4874 18.9619 19.127 18.6776 18.7783C18.5313 18.5987 18.3824 18.4222 18.2318 18.2496C18.2074 18.2216 18.1763 18.1882 18.1404 18.1501C18.126 18.1349 18.1109 18.119 18.0951 18.1023C18.0939 18.101 18.0928 18.0998 18.0915 18.0986ZM20.4348 19.3184L21.0424 18.8448C21.1423 18.921 21.2453 18.9927 21.3511 19.0596M23.2461 21.8671C23.2445 21.9185 23.2419 21.9702 23.2385 22.0221C23.1943 22.6896 23.0102 23.2595 22.7661 23.7384H29.6095C29.4969 23.6988 29.3826 23.6598 29.2666 23.6211C28.475 23.3576 27.6566 23.1335 26.7624 22.8937C26.6878 22.8736 26.6125 22.8535 26.5367 22.8332C25.7275 22.6165 24.8516 22.382 23.9813 22.1082M23.2461 21.8671C23.5113 21.9589 23.7587 22.0382 23.9813 22.1082L23.2461 21.8671ZM19.8318 17.4102C20.1294 17.9785 20.5477 18.4673 21.0424 18.8448L19.8318 17.4102ZM17.8667 20.9656C17.8617 20.9009 17.8529 20.8362 17.8402 20.7716C17.784 20.4862 17.6517 20.2052 17.4348 19.951C17.324 19.821 17.2104 19.6911 17.0965 19.5608C17.0625 19.5219 17.0285 19.483 16.9945 19.444C16.9944 19.444 16.9946 19.444 16.9945 19.444C16.5913 18.9817 16.1937 18.5141 15.9143 18.0289C15.9142 18.0288 15.9143 18.029 15.9143 18.0289C15.6173 17.5135 15.4534 16.9779 15.557 16.4076C15.5937 16.0812 15.6693 15.7709 15.7805 15.4762C15.7935 15.4416 15.807 15.4074 15.8209 15.3734C16.1709 14.5202 16.8233 13.7996 17.6951 13.1956C17.8233 13.1068 17.9561 13.0205 18.0935 12.9367C18.5 12.6887 18.9456 12.4624 19.4237 12.2562C19.4257 12.2554 19.4278 12.2545 19.4298 12.2536C19.6291 12.1678 19.8339 12.0856 20.0439 12.0067C20.0688 11.9974 20.0938 11.9881 20.1189 11.9788C20.912 11.6858 21.7766 11.4407 22.6869 11.2386C22.7368 11.2275 22.787 11.2166 22.8372 11.2057C25.8866 10.5481 29.4249 10.3644 32.4892 10.4673C33.0602 10.4865 33.6148 10.5156 34.1466 10.5534C34.216 10.5584 34.2849 10.5635 34.3535 10.5687C34.8353 10.6054 35.187 11.0528 35.1455 11.559C35.1044 12.0607 34.6931 12.4405 34.2215 12.4828C34.1873 12.4859 34.1526 12.4872 34.1178 12.4866C33.6649 12.4791 33.1209 12.4946 32.5171 12.5312C30.1059 12.6776 26.7406 13.1624 24.4114 13.8787C24.4098 13.8791 24.4082 13.8796 24.4066 13.8801C24.3676 13.8921 24.3289 13.9042 24.2904 13.9163C24.1126 13.9725 23.9412 14.0301 23.7772 14.089C23.7172 14.1106 23.6583 14.1322 23.6005 14.1541C23.3306 14.256 23.083 14.3618 22.8624 14.4711C22.6437 14.5795 22.484 14.7322 22.3817 14.9077C22.3586 14.9471 22.3385 14.9878 22.3213 15.0293C22.2857 15.1149 22.2624 15.2043 22.2513 15.2954C22.2509 15.2981 22.2506 15.3009 22.2503 15.3036C22.2388 15.4035 22.2418 15.5054 22.259 15.6063C22.2602 15.6129 22.2613 15.6194 22.2626 15.6259C22.3218 15.9384 22.518 16.2402 22.8445 16.4465C23.1877 16.6636 23.5797 16.8565 24.0101 17.0335C24.0929 17.0676 24.1772 17.101 24.2627 17.134C24.27 17.1368 24.2773 17.1396 24.2846 17.1424C24.6039 17.2646 24.9417 17.3796 25.2943 17.4904C25.9993 17.7121 26.763 17.9168 27.5545 18.129C28.5622 18.3992 29.6149 18.6814 30.6491 19.0259C30.649 19.0259 30.6491 19.026 30.6491 19.0259C31.4056 19.278 32.1522 19.5634 32.8639 19.9017C32.866 19.9027 32.8682 19.9038 32.8703 19.9048C32.8703 19.9048 32.8704 19.9048 32.8703 19.9048C34.6526 20.7544 35.8693 22.2401 36.2738 23.8084C36.2742 23.81 36.2746 23.8116 36.275 23.8132C36.4091 24.3334 36.5317 24.8863 36.6332 25.4766C36.9216 27.1532 35.5909 28.5591 33.9711 28.5591H4.13342C4.01408 28.5591 3.90032 28.534 3.79664 28.4885L3.84158 29.7754C3.83432 29.7757 3.82705 29.7759 3.81978 29.7762L3.78388 28.4827C3.47418 28.3408 3.25768 28.016 3.25768 27.6379V27.2458C3.25768 26.9659 3.46924 26.7368 3.73519 26.7287C3.85459 26.724 3.98774 26.7141 4.13342 26.699C4.58111 26.6527 5.14707 26.5585 5.79549 26.4249C6.67624 26.2434 7.70917 25.9889 8.80447 25.6829C9.0043 25.627 9.20627 25.5695 9.40975 25.5103C9.95624 25.3514 10.5138 25.181 11.0718 25.0016C11.0899 24.9959 11.108 24.99 11.1262 24.9841C11.2369 24.9484 11.3477 24.9124 11.4583 24.876C11.4821 24.8682 11.5059 24.8604 11.5296 24.8525C11.5295 24.8526 11.5297 24.8524 11.5296 24.8525C11.5465 24.8469 11.5638 24.8412 11.5807 24.8356C12.1243 24.6556 12.6653 24.4677 13.1939 24.2743C13.6714 24.0996 14.1387 23.9204 14.5887 23.7384C14.9423 23.5954 15.2851 23.4507 15.6137 23.3051C16.0392 23.1165 16.4409 22.9264 16.8111 22.7366C17.0931 22.5921 17.3251 22.3961 17.4994 22.1687C17.5019 22.1654 17.5044 22.1621 17.5069 22.1588C17.6946 21.9106 17.814 21.6255 17.8554 21.3294C17.8554 21.3293 17.8554 21.3295 17.8554 21.3294C17.8722 21.2094 17.8762 21.0874 17.8667 20.9656ZM12.6902 15.9515C12.4106 17.7131 13.1054 19.1235 13.6586 19.9725C13.8056 20.1983 13.9723 20.4262 14.1431 20.6457C12.618 21.2974 10.7427 21.9493 8.90894 22.4921C6.39247 23.2369 4.37217 23.6518 3.63351 23.6817C1.80838 23.7473 0.359131 25.3228 0.359131 27.2458V27.6379C0.359131 29.8305 2.04894 31.6079 4.13342 31.6079H33.9711C37.0512 31.6079 40.1546 28.8239 39.4855 24.9338C39.3671 24.2462 39.2249 23.6061 39.0712 23.0104M12.6902 15.9515C13.0056 13.4483 14.5343 11.7092 16.1951 10.5848C17.8511 9.46363 19.9041 8.75257 21.941 8.2887C26.0399 7.35521 30.881 7.24703 34.5631 7.5279C36.7087 7.69156 38.209 9.67575 38.0334 11.8207C37.8431 14.1446 35.9183 15.5655 34.0724 15.535C33.2284 15.5211 31.9138 15.6052 30.4547 15.7826C31.6323 16.1345 32.8786 16.5629 34.0578 17.1236C36.5172 18.2929 38.4085 20.4407 39.0712 23.0104M11.5852 29.8359H32.69C33.1233 29.8359 33.5544 29.7731 33.9711 29.6541C35.8411 29.1207 37.4212 27.4594 37.6135 25.2901C37.6642 24.7172 37.6182 24.1088 37.4551 23.4765" fill="white"/>
<path d="M21.4495 21.0242H29.5654V25.2925H21.4495V21.0242Z" fill="white"/>
<path d="M23.7682 19.4998C23.7682 21.0152 22.6002 22.2437 21.1595 22.2437C19.7187 22.2437 18.5508 21.0152 18.5508 19.4998C18.5508 17.9843 19.7187 16.7559 21.1595 16.7559C22.6002 16.7559 23.7682 17.9843 23.7682 19.4998Z" fill="white"/>
<path d="M9.85522 20.4146H37.6813V30.1706H9.85522V20.4146Z" fill="white"/>
</g>
<mask id="mask2_1127_1065" style="mask-type:luminance" maskUnits="userSpaceOnUse" x="3" y="10" width="34" height="19">
<path d="M36.9185 10.4407H3.25757V28.5591H36.9185V10.4407Z" fill="white"/>
</mask>
<g mask="url(#mask2_1127_1065)">
<path fill-rule="evenodd" clip-rule="evenodd" d="M11.4431 24.8764C8.83859 23.9644 7.07349 21.3836 7.07349 18.4745C7.07349 14.7508 9.92757 11.7322 13.448 11.7322C14.7732 11.7322 16.0498 12.1713 17.1356 12.9748L17.6689 13.3697C16.856 14.0442 16.3192 14.6981 16.0373 15.3455C14.646 18.2394 17.8657 19.1575 18.6933 21.6871C16.6014 23.2848 14.0139 24.1037 11.5816 24.9243L11.4431 24.8764Z" fill="#FFED00"/>
<path fill-rule="evenodd" clip-rule="evenodd" d="M15.5569 16.4077C15.1993 18.3756 18.0266 19.928 18.5172 21.6795C15.8 23.8843 6.38338 26.6264 3.73508 26.7287L3.25757 26.7434V28.5591H36.9185C36.889 26.7054 36.6193 25.1485 36.2736 23.8085C35.8687 22.2382 34.6497 20.7508 32.8638 19.9018C28.6763 17.9109 23.2809 17.7545 21.7554 15.4286C22.4134 13.4355 32.7967 12.159 35.0636 12.5577L35.2203 10.6447C28.3121 9.95836 16.1879 10.7949 15.5569 16.4077ZM11.5806 26.7872H35.1262C35.029 25.9425 34.8725 25.1082 34.6575 24.2747C34.3329 23.0159 33.2673 22.0363 32.1771 21.518C31.5165 21.2038 30.8314 20.9443 30.1409 20.7144C28.3823 20.129 26.576 19.7423 24.8117 19.1874C23.2026 18.6812 21.3748 17.9568 20.379 16.4386C19.8947 15.7377 20.1033 15.0532 20.1739 14.8445C20.3108 14.43 20.5449 14.0782 20.8389 13.7775C20.981 13.6312 20.887 13.5731 20.6692 13.6524C18.7677 14.4519 17.7931 15.3498 17.4114 16.1812C17.2262 16.6552 17.2579 16.8963 17.4172 17.2263C17.6188 17.6441 18.0705 18.0648 18.2317 18.2497C18.7079 18.7954 19.166 19.3801 19.5878 19.9787C20.7079 21.5681 20.5088 22.2382 19.5368 23.0855C18.5968 23.848 17.3572 24.4533 16.2673 24.9365C14.8885 25.5479 13.4608 26.0709 12.034 26.5422C11.878 26.5937 11.7217 26.6447 11.5653 26.6952C11.5136 26.7098 11.5038 26.7927 11.5806 26.7872Z" fill="#393185"/>
</g>
</g>
</svg>
