<svg width="72" height="72" viewBox="0 0 72 72" fill="none" xmlns="http://www.w3.org/2000/svg">
<path fill-rule="evenodd" clip-rule="evenodd" d="M36 0C16.1178 0 0 16.1178 0 36C0 55.8823 16.1178 72 36 72C55.8823 72 72 55.8823 72 36C72 16.1178 55.8823 0 36 0ZM34.7706 22.2596C34.3733 22.657 34.3733 23.3011 34.7706 23.6984L46.0156 34.9434H22.5083C21.9464 34.9434 21.4909 35.3989 21.4909 35.9608C21.4909 36.5227 21.9464 36.9782 22.5083 36.9782H46.0156L34.7706 48.2231C34.3733 48.6204 34.3733 49.2646 34.7706 49.6619C35.1679 50.0592 35.8121 50.0592 36.2094 49.6619L49.1912 36.6802C49.5885 36.2829 49.5885 35.6387 49.1912 35.2414L36.2094 22.2596C35.8121 21.8623 35.1679 21.8623 34.7706 22.2596Z" fill="white"/>
</svg>
