<svg width="72" height="72" viewBox="0 0 72 72" fill="none" xmlns="http://www.w3.org/2000/svg">
<path fill-rule="evenodd" clip-rule="evenodd" d="M36 0C16.1178 0 0 16.1178 0 36C0 55.8823 16.1178 72 36 72C55.8823 72 72 55.8823 72 36C72 16.1178 55.8823 0 36 0ZM36.2094 22.2596C36.6068 22.657 36.6068 23.3011 36.2094 23.6984L24.9645 34.9434H48.4718C49.0337 34.9434 49.4892 35.3989 49.4892 35.9608C49.4892 36.5227 49.0337 36.9782 48.4718 36.9782H24.9645L36.2094 48.2231C36.6068 48.6204 36.6068 49.2646 36.2094 49.6619C35.8121 50.0592 35.1679 50.0592 34.7706 49.6619L21.7889 36.6802C21.3916 36.2829 21.3916 35.6387 21.7889 35.2414L34.7706 22.2596C35.1679 21.8623 35.8121 21.8623 36.2094 22.2596Z" fill="white"/>
</svg>
