<svg width="46" height="46" viewBox="0 0 46 46" fill="none" xmlns="http://www.w3.org/2000/svg">
<path fill-rule="evenodd" clip-rule="evenodd" d="M23 0C10.2975 0 0 10.2975 0 23C0 35.7025 10.2975 46 23 46C35.7025 46 46 35.7025 46 23C46 10.2975 35.7025 0 23 0ZM16.35 17C16.35 17.359 16.641 17.65 17 17.65H27.7465L16.5404 28.8562C16.2865 29.11 16.2865 29.5216 16.5404 29.7754C16.7942 30.0292 17.2058 30.0292 17.4596 29.7754L28.6658 18.5692V29.3158C28.6658 29.6748 28.9568 29.9658 29.3158 29.9658C29.6748 29.9658 29.9658 29.6748 29.9658 29.3158V17C29.9658 16.641 29.6748 16.35 29.3158 16.35H17C16.641 16.35 16.35 16.641 16.35 17Z" fill="#0D235A"/>
</svg>
