<svg width="48" height="48" viewBox="0 0 48 48" fill="none" xmlns="http://www.w3.org/2000/svg">
<path fill-rule="evenodd" clip-rule="evenodd" d="M24.3684 1C11.4624 1 1 11.4624 1 24.3684C1 37.2744 11.4624 47.7368 24.3684 47.7368C37.2744 47.7368 47.7368 37.2744 47.7368 24.3684C47.7368 11.4624 37.2744 1 24.3684 1ZM15.5534 24.4466C15.8001 24.6932 16.1999 24.6932 16.4466 24.4466L24.077 16.8162V32.7086C24.077 33.0574 24.3598 33.3402 24.7086 33.3402C25.0574 33.3402 25.3402 33.0574 25.3402 32.7086V16.8162L32.9706 24.4466C33.2172 24.6932 33.6171 24.6932 33.8638 24.4466C34.1104 24.1999 34.1104 23.8001 33.8638 23.5534L25.1552 14.8448C24.9085 14.5982 24.5086 14.5982 24.262 14.8448L15.5534 23.5534C15.3068 23.8001 15.3068 24.1999 15.5534 24.4466Z" fill="#0D235A"/>
</svg>
