<svg width="61" height="61" viewBox="0 0 61 61" fill="none" xmlns="http://www.w3.org/2000/svg">
<path d="M40.2055 27.8796C40.1481 27.7022 40.0418 27.5445 39.899 27.4246C39.7562 27.3047 39.5825 27.2274 39.3978 27.2015L33.9033 26.4037L31.4403 21.4178C31.2708 21.0788 30.9218 20.8594 30.5428 20.8594C30.1639 20.8594 29.8149 21.0788 29.6454 21.4178L28.6781 23.3823C28.6581 23.4122 28.6382 23.4521 28.6183 23.4919L27.1823 26.4037L21.6878 27.2015C21.3089 27.2513 20.9998 27.5206 20.8801 27.8796C20.7604 28.2385 20.8601 28.6374 21.1294 28.9067L25.1082 32.7857L24.1708 38.2702C24.111 38.6492 24.2606 39.0181 24.5697 39.2475C24.7392 39.3771 24.9486 39.4369 25.158 39.4369C25.3176 39.4369 25.4771 39.3971 25.6267 39.3173L30.5428 36.7346L35.4589 39.3173C35.798 39.4968 36.1969 39.4669 36.506 39.2375C36.8151 39.0181 36.9647 38.6392 36.9049 38.2603L35.9675 32.7757L39.9463 28.8967C40.2255 28.6374 40.3152 28.2385 40.2055 27.8796ZM34.2025 31.7187C34.0871 31.8308 34.0005 31.9692 33.9501 32.122C33.8998 32.2748 33.8871 32.4375 33.9133 32.5962L34.6014 36.6049L31.0115 34.7103C30.8619 34.6305 30.7024 34.5906 30.5428 34.5906C30.3833 34.5906 30.2237 34.6305 30.0741 34.7003L26.4843 36.595L27.1723 32.5863C27.2017 32.4275 27.1906 32.2639 27.1401 32.1105C27.0895 31.9571 27.0012 31.819 26.8832 31.7088L23.9714 28.8767L27.99 28.2984C28.3191 28.2485 28.5983 28.0491 28.7379 27.7499L30.3534 24.4792C30.3733 24.4393 30.3932 24.4094 30.4132 24.3695L30.5428 24.1102L32.3378 27.7499C32.4873 28.0391 32.7665 28.2485 33.0856 28.2984L37.1043 28.8767L34.2025 31.7187Z" fill="white"/>
<path d="M13.0617 34.0423C13.2213 34.6306 13.4008 35.209 13.6201 35.7774C11.0275 35.0494 8.48464 36.1164 8.37495 36.1663C8.24686 36.2221 8.13194 36.3043 8.03765 36.4074C7.94336 36.5106 7.8718 36.6324 7.82761 36.765C7.78342 36.8975 7.76759 37.0379 7.78114 37.177C7.79469 37.3161 7.83732 37.4508 7.90627 37.5723C7.9661 37.682 9.45191 40.2647 12.1443 41.1721C12.8922 41.4214 13.6401 41.5112 14.3481 41.5112C15.3353 41.5112 16.2029 41.3317 16.8111 41.1622C17.21 41.6308 17.6388 42.0796 18.0875 42.4984C15.445 42.9571 13.5803 45.0213 13.5005 45.111C13.311 45.3204 13.2312 45.6096 13.2612 45.8888C13.2911 46.168 13.4506 46.4273 13.68 46.5869C13.7697 46.6467 15.804 48.0328 18.267 48.0328C18.5263 48.0328 18.7856 48.0128 19.0548 47.9829C20.9495 47.7536 22.4552 46.6666 23.253 45.9686C23.8014 46.2079 24.3698 46.4273 24.9482 46.6168C22.7843 48.1824 22.0164 50.8349 21.9865 50.9446C21.9491 51.0797 21.9405 51.2212 21.9611 51.3599C21.9818 51.4987 22.0313 51.6315 22.1065 51.7499C22.1816 51.8683 22.2808 51.9696 22.3975 52.0473C22.5143 52.125 22.646 52.1774 22.7843 52.201C22.8341 52.211 23.2829 52.2808 23.961 52.2808C25.0678 52.2808 26.773 52.0913 28.2489 51.144C29.3557 50.426 30.1236 49.4189 30.6222 48.5513C31.1307 49.4189 31.8986 50.416 33.0154 51.1241C34.4713 52.0415 36.1266 52.2309 37.2335 52.2309C37.9515 52.2309 38.4401 52.1511 38.49 52.1412C38.7692 52.0913 39.0185 51.9318 39.168 51.6924C39.3176 51.4531 39.3575 51.154 39.2777 50.8847C39.2478 50.7651 38.46 48.1225 36.2762 46.5769C36.8546 46.3874 37.413 46.1581 37.9714 45.9088C38.7791 46.6068 40.2949 47.6738 42.1895 47.8932C42.4388 47.9231 42.6881 47.9331 42.9274 47.9331C45.4204 47.9331 47.4646 46.5171 47.5643 46.4473C47.7937 46.2877 47.9433 46.0284 47.9832 45.7492C48.0131 45.47 47.9233 45.1808 47.7339 44.9714C47.6541 44.8817 45.7794 42.8275 43.1269 42.3987C43.5656 41.9699 43.9944 41.5212 44.3833 41.0525C44.9717 41.212 45.8193 41.3815 46.7865 41.3815C47.5045 41.3815 48.2823 41.2918 49.0601 41.0226C51.7425 40.0952 53.1984 37.5025 53.2583 37.3928C53.3267 37.2708 53.3684 37.1356 53.3806 36.9963C53.3928 36.8569 53.3752 36.7166 53.329 36.5845C53.2828 36.4525 53.209 36.3318 53.1126 36.2304C53.0161 36.1291 52.8992 36.0494 52.7696 35.9967C52.66 35.9469 50.0972 34.8998 47.5145 35.6577C47.7239 35.0893 47.9034 34.5109 48.053 33.9226C49.11 33.7232 50.885 33.2046 52.2511 31.8584C54.2555 29.8641 54.4549 26.8825 54.4549 26.7528C54.4748 26.4736 54.3651 26.1944 54.1657 25.995C53.9663 25.7955 53.6871 25.6958 53.4078 25.7058C53.2882 25.7158 50.536 25.8953 48.5416 27.6802C48.4818 27.0719 48.392 26.4637 48.2723 25.8753C49.1399 25.2371 50.516 24.0006 51.1442 22.2057C52.0916 19.5432 50.9747 16.771 50.9249 16.6613C50.8722 16.5317 50.7925 16.4148 50.6912 16.3184C50.5898 16.222 50.4691 16.1482 50.3371 16.102C50.205 16.0558 50.0647 16.0382 49.9253 16.0504C49.786 16.0626 49.6508 16.1043 49.5288 16.1727C49.4191 16.2325 47.0159 17.5787 45.9888 20.0617C45.6697 19.5432 45.3406 19.0346 44.9717 18.556C45.4702 17.6086 46.1683 15.9035 45.9589 13.9988C45.6497 11.1768 43.446 9.17245 43.3562 9.08271C43.252 8.98913 43.1293 8.91855 42.996 8.87555C42.8628 8.83256 42.7219 8.81812 42.5827 8.83317C42.4435 8.84822 42.309 8.89243 42.188 8.96291C42.067 9.0334 41.9622 9.12858 41.8804 9.24226C41.8106 9.34198 40.245 11.5956 40.3946 14.278C39.5968 13.7595 38.7592 13.2908 37.8717 12.9019C37.3631 12.6825 36.7748 12.9019 36.5554 13.4105C36.336 13.9191 36.5554 14.5074 37.064 14.7268C42.8676 17.2995 46.627 23.0533 46.6569 29.3954C46.6968 38.2703 39.4971 45.5298 30.6222 45.5697H30.5524C21.7073 45.5697 14.4877 38.39 14.4478 29.535C14.4179 23.1929 18.1374 17.4092 23.9211 14.7866C24.1456 14.6683 24.3166 14.4688 24.3992 14.2287C24.4817 13.9887 24.4696 13.7262 24.3653 13.4948C24.2611 13.2634 24.0725 13.0804 23.838 12.9832C23.6035 12.886 23.3408 12.8819 23.1034 12.9717C22.2159 13.3706 21.3782 13.8493 20.5905 14.3678C20.7201 11.6953 19.1346 9.4417 19.0648 9.34198C18.8953 9.11262 18.646 8.96305 18.3568 8.93313C18.0576 8.86333 17.7784 8.95307 17.569 9.14254C17.4792 9.23229 15.2854 11.2566 15.0062 14.0686C14.8068 15.9832 15.5148 17.6784 16.0234 18.6158C15.6644 19.1044 15.3353 19.613 15.0262 20.1315C13.9791 17.6585 11.5659 16.3322 11.4562 16.2724C11.3342 16.204 11.1986 16.1632 11.059 16.1529C10.9195 16.1425 10.7794 16.1629 10.6485 16.2126C10.3793 16.3123 10.1699 16.5117 10.0602 16.781C10.0103 16.9006 8.9234 19.6728 9.89067 22.3253C10.5388 24.1203 11.9249 25.3468 12.7925 25.975C12.6728 26.5733 12.593 27.1717 12.5332 27.7799C10.5289 26.0049 7.76666 25.8554 7.647 25.8454C7.34784 25.8354 7.08858 25.9351 6.88914 26.1446C6.6897 26.344 6.58998 26.6232 6.60993 26.9124C6.6199 27.042 6.83928 30.0136 8.86357 31.998C10.2297 33.3442 12.0147 33.8528 13.0617 34.0423ZM12.7725 39.2775C11.7654 38.9384 10.9676 38.2404 10.4291 37.6321C11.2269 37.4826 12.2839 37.4028 13.2911 37.7518C13.9492 37.9712 14.5974 38.38 15.1957 38.9584C15.2954 39.108 15.3752 39.2675 15.4749 39.4171C14.6971 39.5467 13.7199 39.5966 12.7725 39.2775ZM18.8055 46.0085C17.7485 46.1381 16.7314 45.8589 15.9835 45.5498C16.6316 45.0711 17.559 44.5426 18.616 44.413C19.2941 44.3232 20.042 44.413 20.8398 44.6623C20.9993 44.762 21.1589 44.8617 21.3184 44.9515C20.6702 45.4102 19.8027 45.8789 18.8055 46.0085ZM27.1719 49.4588C26.2844 50.0371 25.2374 50.2166 24.4296 50.2665C24.8086 49.5485 25.4168 48.671 26.3043 48.1026C26.8827 47.7336 27.5807 47.4943 28.3785 47.3746C28.5779 47.3946 28.7674 47.4245 28.9668 47.4345C28.5879 48.1126 28.0095 48.9203 27.1719 49.4588ZM34.94 48.0727C35.8374 48.6411 36.4557 49.5086 36.8346 50.2266C36.0269 50.1867 34.9799 50.0072 34.0824 49.4388C33.2348 48.9003 32.6564 48.1026 32.2675 47.4245C32.4669 47.4045 32.6564 47.3746 32.8459 47.3547C33.6536 47.4644 34.3616 47.7037 34.94 48.0727ZM42.6083 44.3232C43.6554 44.4429 44.5927 44.9614 45.2409 45.4401C44.493 45.7492 43.4759 46.0384 42.4189 45.9187C41.4217 45.8091 40.5442 45.3404 39.906 44.8916C40.0655 44.7919 40.235 44.7022 40.3846 44.5925C41.1724 44.3332 41.9203 44.2435 42.6083 44.3232ZM47.8735 37.6122C48.8806 37.2632 49.9376 37.323 50.7354 37.4726C50.1969 38.0809 49.4091 38.7889 48.4119 39.1379C47.4646 39.457 46.4774 39.4271 45.6996 39.2974C45.7993 39.1479 45.8791 38.9883 45.9788 38.8387C46.5771 38.2504 47.2153 37.8415 47.8735 37.6122ZM52.2312 27.9096C52.0118 28.6874 51.6029 29.6746 50.8551 30.4125C50.1371 31.1205 49.2296 31.5094 48.4818 31.7388C48.5117 31.5393 48.5416 31.3499 48.5615 31.1504C48.8507 30.3926 49.2296 29.7643 49.7183 29.2757C50.4662 28.5278 51.4434 28.129 52.2312 27.9096ZM47.7538 20.9791C48.1028 19.9819 48.8208 19.1842 49.4291 18.6557C49.5687 19.4534 49.6285 20.5105 49.2695 21.5076C48.9405 22.455 48.2923 23.2029 47.7139 23.7214C47.6541 23.5319 47.5843 23.3425 47.5145 23.153C47.4447 22.3552 47.5245 21.6173 47.7538 20.9791ZM42.379 14.3478C42.2593 13.2908 42.5585 12.2737 42.8776 11.5258C43.3462 12.184 43.8648 13.1213 43.9745 14.1783C44.0842 15.1755 43.8349 16.1328 43.5457 16.8508C43.4061 16.7012 43.2665 16.5516 43.1169 16.412C42.8277 15.9334 42.4787 15.2054 42.379 14.3478ZM16.9807 14.278C17.0903 13.221 17.5889 12.2837 18.0576 11.6255C18.3767 12.3634 18.6858 13.3806 18.5762 14.4376C18.4864 15.3051 18.1374 16.0331 17.8582 16.5217C17.7086 16.6613 17.579 16.8109 17.4294 16.9605C17.1402 16.2325 16.8809 15.2852 16.9807 14.278ZM11.7554 21.6572C11.3964 20.66 11.4463 19.603 11.5759 18.8053C12.1842 19.3338 12.9022 20.1216 13.2711 21.1088C13.5005 21.747 13.5902 22.4749 13.5304 23.2826C13.4606 23.4721 13.4008 23.6616 13.3409 23.851C12.7526 23.3425 12.0944 22.6045 11.7554 21.6572ZM11.3765 29.4353C11.8651 29.9139 12.254 30.5421 12.5432 31.3C12.5631 31.4994 12.603 31.6889 12.6329 31.8883C11.885 31.669 10.9676 31.29 10.2497 30.582C9.49179 29.8441 9.07297 28.8569 8.85359 28.0791C9.6314 28.2985 10.6186 28.6973 11.3765 29.4353Z" fill="white"/>
</svg>
