<svg width="46" height="46" viewBox="0 0 46 46" fill="none" xmlns="http://www.w3.org/2000/svg">
<path fill-rule="evenodd" clip-rule="evenodd" d="M0 23C0 10.2975 10.2975 0 23 0C35.7025 0 46 10.2975 46 23C46 35.7025 35.7025 46 23 46C10.2975 46 0 35.7025 0 23ZM15.65 24.1667C15.291 24.1667 15 24.4577 15 24.8167V28.15C15 28.7644 15.2441 29.3537 15.6785 29.7881C16.113 30.2226 16.7023 30.4667 17.3167 30.4667H28.9833C29.5978 30.4667 30.187 30.2226 30.6215 29.7881C31.0559 29.3537 31.3 28.7644 31.3 28.15V24.8167C31.3 24.4577 31.009 24.1667 30.65 24.1667C30.291 24.1667 30 24.4577 30 24.8167V28.15C30 28.4196 29.8929 28.6782 29.7022 28.8689C29.5116 29.0596 29.253 29.1667 28.9833 29.1667H17.3167C17.047 29.1667 16.7884 29.0596 16.5978 28.8689C16.4071 28.6782 16.3 28.4196 16.3 28.15V24.8167C16.3 24.4577 16.009 24.1667 15.65 24.1667ZM18.5263 21.0239C18.2725 21.2777 18.2725 21.6893 18.5263 21.9431L22.658 26.0748C22.7698 26.2041 22.9316 26.2889 23.1134 26.299C23.2925 26.3098 23.4753 26.2467 23.6122 26.1098L27.7789 21.9431C28.0327 21.6893 28.0327 21.2777 27.7789 21.0239C27.5251 20.7701 27.1135 20.7701 26.8597 21.0239L23.8 24.0835V15.65C23.8 15.291 23.509 15 23.15 15C22.791 15 22.5 15.291 22.5 15.65V24.0783L19.4456 21.0239C19.1917 20.7701 18.7802 20.7701 18.5263 21.0239Z" fill="white"/>
</svg>
