<svg width="24" height="24" viewBox="0 0 24 24" fill="none" xmlns="http://www.w3.org/2000/svg">
<path fill-rule="evenodd" clip-rule="evenodd" d="M20.4596 3.54036C20.7135 3.7942 20.7135 4.20575 20.4596 4.45959L4.45962 20.4596C4.20578 20.7134 3.79422 20.7134 3.54038 20.4596C3.28654 20.2058 3.28654 19.7942 3.54038 19.5404L19.5404 3.54036C19.7942 3.28652 20.2058 3.28652 20.4596 3.54036Z" fill="#0D235A"/>
<path fill-rule="evenodd" clip-rule="evenodd" d="M3.54038 3.54036C3.79422 3.28652 4.20578 3.28652 4.45962 3.54036L20.4596 19.5404C20.7135 19.7942 20.7135 20.2058 20.4596 20.4596C20.2058 20.7134 19.7942 20.7134 19.5404 20.4596L3.54038 4.45959C3.28654 4.20575 3.28654 3.7942 3.54038 3.54036Z" fill="#0D235A"/>
</svg>
