<svg width="46" height="46" viewBox="0 0 46 46" fill="none" xmlns="http://www.w3.org/2000/svg">
<path fill-rule="evenodd" clip-rule="evenodd" d="M0 23C0 10.2975 10.2975 0 23 0C35.7025 0 46 10.2975 46 23C46 35.7025 35.7025 46 23 46C10.2975 46 0 35.7025 0 23ZM18.8333 15.3167C18.2718 15.3167 17.8167 15.7718 17.8167 16.3333V29.6667C17.8167 30.2282 18.2718 30.6833 18.8333 30.6833H27.1667C27.7282 30.6833 28.1833 30.2282 28.1833 29.6667V16.3333C28.1833 15.7718 27.7282 15.3167 27.1667 15.3167H18.8333ZM16.5167 16.3333C16.5167 15.0539 17.5539 14.0167 18.8333 14.0167H27.1667C28.4461 14.0167 29.4833 15.0539 29.4833 16.3333V29.6667C29.4833 30.9461 28.4461 31.9833 27.1667 31.9833H18.8333C17.5539 31.9833 16.5167 30.9461 16.5167 29.6667V16.3333ZM23 27.35C22.641 27.35 22.35 27.641 22.35 28C22.35 28.359 22.641 28.65 23 28.65H23.0083C23.3673 28.65 23.6583 28.359 23.6583 28C23.6583 27.641 23.3673 27.35 23.0083 27.35H23Z" fill="white"/>
</svg>
