<svg width="72" height="72" viewBox="0 0 72 72" fill="none" xmlns="http://www.w3.org/2000/svg">
<path d="M63 30C63 48.4663 42.1223 64.6128 37.0843 68.2402C36.4291 68.712 35.5709 68.712 34.9157 68.2402C29.8777 64.6128 9 48.4662 9 30C9 22.8392 11.8446 15.9716 16.9081 10.9081C21.9716 5.84463 28.8392 3 36 3C43.1608 3 50.0284 5.84463 55.0919 10.9081C60.1554 15.9716 63 22.8392 63 30Z" fill="#0D235A"/>
<rect x="18" y="12" width="36" height="36" rx="18" fill="white"/>
<path fill-rule="evenodd" clip-rule="evenodd" d="M29.9766 33.561C28.1617 32.957 26.9316 31.2477 26.9316 29.321C26.9316 26.8547 28.9205 24.8555 31.3737 24.8555C32.2972 24.8555 33.1868 25.1463 33.9434 25.6785L34.3151 25.94C33.7487 26.3868 33.3746 26.8198 33.1781 27.2486C32.2086 29.1653 34.4523 29.7733 35.0289 31.4487C33.5712 32.5069 31.7681 33.0492 30.0731 33.5927L29.9766 33.561Z" fill="#FFED00"/>
<path fill-rule="evenodd" clip-rule="evenodd" d="M32.8423 27.952C32.5932 29.2554 34.5634 30.2835 34.9053 31.4436C33.0117 32.9038 26.4497 34.7199 24.6042 34.7877L24.2715 34.7974V36H47.7283C47.7078 34.7722 47.5198 33.7411 47.2789 32.8536C46.9968 31.8136 46.1473 30.8285 44.9028 30.2662C41.9847 28.9476 38.2249 28.844 37.1618 27.3036C37.6204 25.9835 44.856 25.138 46.4358 25.4021L46.5449 24.1351C41.7309 23.6806 33.2821 24.2346 32.8423 27.952ZM30.0714 34.8264H46.4794C46.4116 34.267 46.3026 33.7145 46.1528 33.1624C45.9265 32.3287 45.184 31.6798 44.4242 31.3366C43.9639 31.1285 43.4865 30.9566 43.0054 30.8044C41.7798 30.4166 40.5211 30.1605 39.2916 29.793C38.1703 29.4578 36.8966 28.978 36.2027 27.9725C35.8651 27.5083 36.0106 27.0549 36.0598 26.9167C36.1552 26.6422 36.3182 26.4092 36.5231 26.21C36.6221 26.1131 36.5566 26.0746 36.4049 26.1271C35.0798 26.6567 34.4006 27.2514 34.1347 27.802C34.0056 28.116 34.0277 28.2756 34.1387 28.4942C34.2792 28.7709 34.594 29.0495 34.7063 29.1719C35.0381 29.5334 35.3574 29.9206 35.6513 30.3171C36.4319 31.3698 36.2931 31.8136 35.6157 32.3748C34.9607 32.8798 34.0969 33.2807 33.3374 33.6007C32.3766 34.0056 31.3816 34.352 30.3874 34.6642C30.2787 34.6983 30.1698 34.7321 30.0608 34.7655C30.0248 34.7752 30.018 34.83 30.0714 34.8264Z" fill="#393185"/>
</svg>
