<svg width="132" height="136" viewBox="0 0 132 136" fill="none" xmlns="http://www.w3.org/2000/svg">
<g clip-path="url(#clip0_936_1419)">
<path fill-rule="evenodd" clip-rule="evenodd" d="M42.8589 134.294C46.3611 133.908 50.0625 133.135 53.7534 132.55L56.666 132.936L59.7786 133.322L62.8912 133.52L66.0038 133.708L69.0947 133.52L72.2073 133.322L75.3199 132.936L78.2325 132.55C82.7018 133.323 87.3711 134.096 92.0404 134.482C93.9859 134.868 95.9314 135.068 98.0656 135.255C99.4215 135.255 100.789 135.255 102.145 135.453C103.125 135.453 104.091 135.453 105.259 135.453C107.204 135.453 109.15 135.255 111.095 135.068C112.841 134.869 114.787 134.483 116.532 134.096C117.31 133.908 118.088 133.71 118.867 133.323C119.645 133.135 120.235 132.748 121.012 132.55L121.979 131.975L124.703 130.043L126.059 128.686L127.038 127.151L127.817 125.019C128.005 124.246 128.005 123.473 128.205 122.701C128.205 122.315 128.205 121.928 128.005 121.354C127.817 119.808 127.616 118.262 127.226 116.53L127.615 116.33L128.394 115.757L128.983 114.784L129.75 114.011L130.139 113.238L130.727 112.277L130.916 111.118L131.305 110.158C131.305 109.573 131.305 108.999 131.305 108.612C131.305 108.027 131.305 107.453 131.116 107.066L130.916 106.094L130.527 104.935C130.139 103.787 129.56 102.429 128.982 101.268L128.782 100.309L128.393 99.5357L128.204 98.5633C128.204 97.2167 128.204 96.0576 128.204 94.7102L128.004 92.5803L127.816 91.619L127.615 90.846C128.204 89.3 128.783 87.7548 129.172 86.0205C129.56 85.0497 129.75 83.8906 130.139 82.9293C130.527 81.1855 130.727 79.452 131.117 77.5199C131.306 76.1725 131.306 74.8148 131.506 73.2696C131.506 71.9222 131.695 70.5757 131.695 69.0305C131.695 68.058 131.695 66.8989 131.695 65.7398C131.506 64.0063 131.306 62.284 131.116 60.5394C131.116 59.3803 130.916 58.4198 130.727 57.4482C131.116 56.4877 131.116 55.5272 131.306 54.5556V52.0483C131.117 51.4636 130.917 50.8892 130.727 50.3045C130.527 49.7301 130.339 48.9571 129.949 48.3827L129.56 47.798L128.982 46.8375C128.593 46.2528 128.004 45.6784 127.425 45.0929C127.037 44.1324 126.646 43.1608 126.258 42.2003C125.479 40.6543 124.891 39.1091 123.924 37.5631C124.112 36.9887 124.312 36.2165 124.312 35.4427V34.2836L123.924 32.7376L123.723 31.9646L123.334 31.1916L122.756 30.4186L121.978 28.8726L121.011 27.5252C119.643 25.9792 118.476 24.434 117.12 23.0875C115.952 21.7297 114.785 20.5698 113.618 19.2232L110.505 16.5181C109.538 15.7451 108.559 14.9721 107.392 14.1991C106.225 13.2387 104.868 12.267 103.312 11.3066C102.345 10.7218 101.367 10.1475 100.199 9.37445C99.032 8.80008 98.0648 8.21534 96.8977 7.64098C95.7306 7.05544 94.7635 6.66934 93.5963 6.09497C92.4292 5.70807 91.2621 5.12333 90.2829 4.73643C88.3487 4.16207 86.4032 3.38986 84.6465 3.00296L82.3122 2.22996C79.7884 1.65559 77.2654 1.26869 74.7303 0.883387C73.3745 0.683954 71.8178 0.496487 70.2619 0.496487C68.5276 0.297852 66.9709 0.297852 65.2255 0.297852C63.4687 0.297852 61.7233 0.496487 60.1666 0.496487C58.4099 0.683954 56.6652 0.883387 55.1085 1.26949C53.363 1.45775 51.8071 1.84386 50.0609 2.23076C48.5042 2.61686 46.7482 3.00376 45.1915 3.57733C41.8894 4.54897 38.5872 6.09497 35.2746 7.64018C34.1187 8.21455 32.7508 8.98675 31.5836 9.57228C29.6382 10.7202 27.6919 11.8801 25.9472 13.2379L24.7825 14.2031C21.6699 16.3339 18.9461 18.8403 16.4222 21.5454C14.4768 23.4776 12.5313 25.5979 10.9746 27.9161C10.3962 28.6891 9.8187 29.6496 9.22911 30.4226L8.83954 31.0081L8.45076 31.9686L8.262 32.7416L8.06119 33.5146L7.87242 34.2876V35.0606V35.8336V36.6058L8.06119 37.7657C7.48365 38.9248 6.89406 40.0839 6.31572 41.243C5.72693 42.391 5.14859 43.7495 4.75901 44.9086L4.37104 45.483L3.78146 46.0677L3.20311 46.6421L2.62477 47.4151L2.236 48.1881L1.64721 49.545L1.25844 50.5055L1.06887 51.466C0.868863 52.6251 0.680098 53.7842 0.868863 54.9433C1.06887 55.7163 1.06887 56.4893 1.25844 57.2623C1.06887 58.6089 0.868863 59.9674 0.680098 61.5134C0.680098 62.86 0.480088 64.3948 0.480088 65.9408C0.291324 69.2195 0.480088 72.5102 0.868863 75.9771C1.06887 77.334 1.25844 78.6822 1.45765 80.0408C1.64641 81.3873 2.03599 82.7347 2.42476 84.2799C2.62477 85.2507 2.81434 86.212 3.20311 87.1828C3.59189 88.5302 3.98066 89.6901 4.37104 90.8492C4.17023 91.6222 4.17023 92.3952 4.17023 92.968C3.98147 94.9017 3.98147 96.6447 3.78146 98.379C3.78146 98.9526 3.59269 99.3387 3.59269 99.925C3.20392 100.886 2.81434 101.857 2.42476 102.63C2.03599 103.59 1.84722 104.364 1.45765 105.136L1.25764 105.91L0.86806 106.87V107.643V108.416V109.189V109.962L1.06807 110.735V111.321L1.45684 112.094L1.64561 112.669L2.03519 113.44L2.42396 114.015L2.81354 114.599L3.20231 115.174C3.78065 115.76 4.37024 116.334 4.94778 116.72C4.75821 118.079 4.37024 119.426 4.16943 120.585L3.98066 121.358V122.904L4.16943 124.638L4.75821 126.57L5.72613 128.304L8.06038 130.623L10.2059 131.979L11.9513 132.941C12.7297 133.327 13.6968 133.525 14.4752 133.912C15.4535 134.1 16.2319 134.298 17.199 134.487C18.1773 134.685 18.9445 134.685 19.9228 134.873C21.0899 135.072 22.2571 135.259 23.4242 135.259C26.7264 135.645 29.839 135.457 32.9516 135.259C36.2553 135.068 39.5575 134.681 42.8589 134.294Z" fill="black"/>
<path fill-rule="evenodd" clip-rule="evenodd" d="M33.7409 134.272C40.3557 133.886 46.9592 132.726 53.574 131.567C61.7447 132.926 69.8937 132.926 78.0652 131.567C88.5597 133.499 99.4429 135.233 110.138 134.272C111.884 134.074 113.64 133.886 115.197 133.499C117.331 132.926 119.277 132.153 121.222 131.181L123.747 129.447L124.914 128.09L125.892 126.742L126.66 124.81C126.86 123.651 126.86 122.692 126.86 121.532C126.66 119.787 126.081 118.055 125.892 116.121C128.216 114.575 129.583 112.644 129.972 109.95C130.162 108.791 130.162 107.632 129.772 106.473C128.994 103.955 127.438 101.647 127.048 98.9431C126.659 96.2388 127.048 93.5336 126.47 90.8285C130.361 80.2075 131.328 68.8239 129.583 57.6285C129.771 56.4686 129.971 55.6964 130.162 54.5485L129.972 52.4177C129.583 50.8717 129.194 49.7126 128.605 48.3653C127.827 47.4048 127.249 46.6318 126.271 45.8588C125.304 43.1537 124.137 40.4486 122.779 37.9421C123.168 36.1975 123.168 35.0383 122.779 33.3049C122.001 31.1853 120.634 29.4407 119.466 27.7072C117.332 25.0021 115.198 22.6839 112.663 20.1774L109.562 17.4723C104.503 13.4198 99.0558 9.9425 93.0298 7.23739C87.1925 4.73091 81.3673 3.18491 75.1413 2.21407C73.7854 2.0266 72.4183 1.82797 71.0616 1.6397C61.9343 1.05497 53.1852 2.21407 44.6362 4.91838C41.3228 6.07749 38.0214 7.43602 34.908 8.97086C32.1842 10.5169 29.4716 12.0621 26.9373 13.8067C23.636 16.3132 20.5226 18.8197 17.61 21.7226C15.6645 23.6547 13.919 25.5765 12.3623 27.7064C11.384 29.0538 10.4168 30.4115 9.63849 31.7589C8.66013 33.691 8.47136 35.237 8.86014 37.3566L9.0497 37.9413C7.69301 40.4478 6.33712 43.1529 5.35876 45.858C3.80205 47.2046 2.83494 48.7506 2.05659 50.8701C1.85658 52.2287 1.66781 53.1884 1.66781 54.5469C1.85658 55.5074 1.85658 56.2804 2.24615 57.2408C1.27904 63.2246 1.07903 68.8231 1.4678 74.8077C2.24615 80.4046 3.41408 85.8156 5.35956 91.0272L5.1708 91.4117C4.58121 94.6912 5.1708 97.9714 4.19244 100.874C3.41489 102.994 2.24696 104.926 1.85818 107.244C1.07983 111.097 2.83654 114.189 5.94915 116.32C5.74914 118.054 5.1708 119.787 4.78202 121.719V123.078L4.97079 124.624L5.55957 126.17L6.33792 127.704L8.47297 129.836L10.4184 131.183C14.8869 133.501 19.3562 134.274 24.2143 134.66C27.5269 134.658 30.6395 134.658 33.7409 134.272Z" fill="white"/>
<path fill-rule="evenodd" clip-rule="evenodd" d="M55.1434 54.1487C57.1338 56.8873 62.0473 56.8546 65.9158 52.7136C68.0171 52.128 69.9409 51.698 71.4414 51.9517C73.2085 52.2493 73.3989 52.3043 74.4656 52.6138L73.3306 48.0213C71.7739 44.3557 67.8058 45.8682 63.637 48.1761C60.9798 52.7582 56.0888 54.2045 53.3762 52.5476C53.1866 52.4375 55.1434 54.1487 55.1434 54.1487Z" fill="#FDB827"/>
<path fill-rule="evenodd" clip-rule="evenodd" d="M68.3259 95.9713C65.2253 96.1923 62.1457 97.1743 61.6557 98.3334L54.5742 95.8389L55.3967 99.2165L54.7517 104.56C57.3977 104.085 60.1881 102.915 61.7449 100.796C63.9458 102.674 66.8029 104.041 70.2826 104.098C70.416 101.812 69.6489 100.178 68.9605 99.735L68.3259 95.9713Z" fill="#FDB827"/>
<path fill-rule="evenodd" clip-rule="evenodd" d="M81.7907 28.347C80.2461 26.0056 76.5439 23.9419 71.7525 25.598C65.8823 19.9453 58.0562 22.0752 53.6423 27.2764C48.6284 27.8835 46.1825 28.6118 42.102 32.5542C37.0994 35.8441 32.7971 40.1167 29.6291 45.0523C29.6291 45.0523 29.3849 45.428 29.262 45.6155L26.894 44.1365C26.3936 44.9199 25.8819 45.7479 25.4819 46.5433C19.2238 46.091 13.9424 47.0841 10.7631 49.0936C12.1969 45.0411 14.087 41.1881 16.3441 37.6111L15.977 37.3789C14.8991 36.7383 14.6653 35.0711 15.2099 34.2542C25.7261 18.1456 45.7263 7.46875 66.0157 7.46875C86.293 7.46875 106.294 18.1448 116.821 34.2542C117.343 35.0711 117.122 36.7383 116.043 37.3789L115.665 37.6111C117.944 41.2216 119.822 45.0635 121.257 49.1271C118.311 47.3936 113.608 45.8149 106.638 46.698C106.204 45.87 105.716 45.0635 105.237 44.2801L102.858 45.7599C102.813 45.7152 102.78 45.6602 102.758 45.6163C97.8558 37.8528 90.4964 31.7358 81.7907 28.347ZM123.347 56.6218C124.159 60.4421 124.57 64.3837 124.57 68.3923C124.57 80.8681 120.368 92.5158 113.664 101.935C108.05 100.775 102.558 100.897 98.055 101.349C104.681 94.9784 109.427 86.6205 111.285 77.2472C112.207 75.469 114.831 67.2987 116.931 63.9753C118.834 61.0165 122.458 58.6752 123.347 56.6218ZM97.3883 117.425C88.0055 123.299 77.4331 126.512 66.0157 126.566C62.1914 126.577 59.0675 126.202 55.2874 125.44C57.755 124.678 88.1171 117.955 97.3883 117.425ZM28.1391 112.688C15.4645 102.022 7.46094 86.1227 7.46094 68.3923C7.46094 64.3064 7.89469 60.2874 8.72847 56.3793C9.4514 57.8479 13.5865 59.1179 15.377 62.4293C17.3 64.7036 19.6905 71.5163 20.0463 72.2669C21.4689 89.3352 32.4863 104.009 47.728 110.446C44.7479 111.086 36.2656 112.446 28.1391 112.688Z" fill="#007AC2"/>
<path fill-rule="evenodd" clip-rule="evenodd" d="M97.7879 101.271C104.047 95.2878 108.605 87.5817 110.639 78.9359C108.36 83.1646 105.803 86.9291 101.479 89.0056C98.8883 90.5732 93.1957 91.4786 89.2614 91.2241C88.1601 91.1571 85.0587 90.495 83.6466 89.6454C85.7921 93.1451 88.4051 98.036 89.0388 102.386C92.1515 101.9 95.3749 101.548 97.7879 101.271ZM81.6232 28.4458C84.5471 32.7958 84.1021 37.2232 79.1556 41.176C79.534 45.9903 76.9097 49.3791 73.9417 49.9096C74.32 51.367 74.6976 52.57 75.0309 53.7738C80.9011 48.1211 87.6484 51.7858 92.1627 51.1237C98.2096 50.2733 98.9333 47.9216 106.259 46.8184C105.87 45.9903 105.391 45.1623 105.014 44.3558L102.635 45.8244C102.602 45.7797 102.568 45.7247 102.534 45.6808C97.6545 37.93 90.3168 31.8354 81.6232 28.4458ZM42.6687 32.2765C37.899 35.3901 32.9188 40.0161 29.6391 45.1168C29.5941 45.1718 29.4054 45.4925 29.272 45.68L26.904 44.2122C26.3594 45.0841 25.8261 45.9895 25.3256 46.9053C31.2737 47.0377 34.4305 49.3783 38.7994 50.6594C42.2349 51.73 44.7033 51.1453 45.77 50.6594C41.5899 49.2897 39.5673 45.9895 39.1223 43.1847C38.3319 38.1175 41.0228 33.1604 42.6687 32.2765ZM20.1888 72.7534C21.6339 89.8999 32.8513 103.448 47.3372 110.181C47.8039 108.603 49.2272 105.732 50.9277 104.143C46.203 102.387 43.3571 96.0608 44.4125 91.8216C40.7553 92.5276 35.2185 91.2034 32.6955 89.7013C28.8375 87.5825 24.9023 82.9548 23.2235 79.2797C21.846 76.9814 20.1326 72.6537 20.1888 72.7534Z" fill="#ED1C2E"/>
<path fill-rule="evenodd" clip-rule="evenodd" d="M14.4537 96.4467C12.5966 95.3985 11.8962 94.7124 11.0407 93.874C10.9403 95.7391 11.0407 98.4004 10.5065 100.962C9.89525 103.899 8.07187 106.825 7.76101 108.316C7.42766 109.905 8.9177 111.373 11.6407 112.423C11.2961 109.806 10.4736 107.409 10.8961 106.295C11.7307 103.854 15.7437 102.64 18.0338 102.077C16.8996 100.387 15.6763 98.654 14.4537 96.4467Z" fill="#FDB827"/>
<path fill-rule="evenodd" clip-rule="evenodd" d="M121.335 100.962C120.813 98.4004 120.902 95.7391 120.813 93.874C119.846 94.8895 118.99 95.6625 117.189 96.4794C116.155 98.3573 114.987 100.179 113.742 101.923C116.177 102.574 119.947 103.888 120.88 105.93C121.402 107.509 120.725 109.904 120.202 112.423C122.926 111.373 124.415 109.905 124.082 108.316C123.77 106.825 121.947 103.899 121.335 100.962Z" fill="#FDB827"/>
<path fill-rule="evenodd" clip-rule="evenodd" d="M18.2219 102.154H18.1995C13.8193 103.192 10.918 104.969 10.918 106.99C10.918 110.203 18.2219 112.81 27.2272 112.81C27.5164 112.81 27.7943 112.81 28.0947 112.797C24.3813 109.662 21.0566 106.096 18.2219 102.154Z" fill="#ED1C2E"/>
<path fill-rule="evenodd" clip-rule="evenodd" d="M104.607 116.928C102.416 116.928 100.105 117.049 97.7021 117.247C93.0778 120.459 88.0856 122.867 78.9141 125.352C87.986 127.117 96.7575 128.564 104.606 128.564C113.599 128.564 120.903 125.957 120.903 122.745C120.903 119.532 113.6 116.928 104.607 116.928Z" fill="#ED1C2E"/>
<path fill-rule="evenodd" clip-rule="evenodd" d="M56.7668 96.2919C56.5555 96.2137 54.6213 95.5628 54.365 95.4303C54.3538 95.7064 54.5096 96.027 54.5988 96.5894C54.0984 96.6549 53.5763 96.7219 53.2204 96.6892C51.4966 96.5456 50.6082 94.5465 50.9078 93.3443C51.2083 92.2394 50.6187 91.389 49.8853 91.3452C49.274 91.3013 48.6515 91.5885 48.3511 92.2394C48.1398 91.6427 47.9503 91.0915 47.6836 90.6934C48.8178 90.1749 49.6741 89.5128 50.1078 88.8379C51.3304 90.4054 53.2204 91.9522 56.6222 92.9789C56.8776 94.2266 57.0776 94.9118 56.7668 96.2919Z" fill="#ED1C24"/>
<path fill-rule="evenodd" clip-rule="evenodd" d="M59.0243 74.1878C59.4468 74.1096 59.9584 74.6066 60.0356 75.1818C60.1022 75.7442 59.8131 76.1742 59.2347 76.2412C58.6676 76.3178 58.1672 75.9652 58.1005 75.4012C58.0347 74.818 58.4572 74.254 59.0243 74.1878Z" fill="#FDB827"/>
<path fill-rule="evenodd" clip-rule="evenodd" d="M58.8799 77.1036C59.3803 76.9497 59.8141 77.3126 59.892 77.8096C59.9587 78.2284 59.6583 78.6496 59.1691 78.7254C58.6687 78.7924 58.2461 78.5164 58.1682 78.0194C58.1016 77.5225 58.4574 77.1691 58.8799 77.1036Z" fill="#FDB827"/>
<path fill-rule="evenodd" clip-rule="evenodd" d="M75.2872 76.2419C75.8535 76.1749 76.3659 76.5953 76.5097 77.1689C76.5764 77.7328 76.1539 78.1628 75.5755 78.2282C75.0085 78.3064 74.5088 77.9522 74.5088 77.3898C74.3642 76.8043 74.7201 76.3177 75.2872 76.2419Z" fill="#FDB827"/>
<path fill-rule="evenodd" clip-rule="evenodd" d="M64.3167 75.7451C64.8179 75.7451 65.3175 76.0315 65.3175 76.4527C65.3842 76.8827 65.095 77.3908 64.6058 77.3908C64.1721 77.4563 63.7383 77.1699 63.5938 76.6617C63.5938 76.2421 63.9608 75.8225 64.3167 75.7451Z" fill="#FDB827"/>
<path fill-rule="evenodd" clip-rule="evenodd" d="M66.8719 82.8432C67.2944 82.7667 67.7949 83.1312 67.8607 83.5612C67.8607 83.98 67.5057 84.477 67.149 84.477C66.6607 84.544 66.1602 84.1906 66.1602 83.771C66.0944 83.353 66.4502 82.8432 66.8719 82.8432Z" fill="#FDB827"/>
<path fill-rule="evenodd" clip-rule="evenodd" d="M64.7378 80.5034C65.3828 80.4268 66.0165 80.8568 66.1603 81.5756C66.227 82.2815 65.8045 82.9764 65.0928 83.1319C64.3144 83.2085 63.7361 82.7004 63.5915 81.9274C63.5265 81.2868 64.0373 80.5696 64.7378 80.5034Z" fill="#FDB827"/>
<path fill-rule="evenodd" clip-rule="evenodd" d="M65.5937 77.9523C66.1608 77.8757 66.7279 78.2283 66.805 78.7923C66.8717 79.3779 66.5158 79.9403 65.8829 80.0057C65.3158 80.0727 64.8153 79.7193 64.7374 79.1569C64.6707 78.5163 65.0933 78.0193 65.5937 77.9523Z" fill="#FDB827"/>
<path fill-rule="evenodd" clip-rule="evenodd" d="M56.6666 75.5342C57.0891 75.4688 57.4449 75.8222 57.5221 76.1748C57.6554 76.6606 57.2996 77.1034 56.8104 77.1688C56.4545 77.1688 56.032 76.8824 55.9549 76.4524C55.889 76.0312 56.1662 75.6124 56.6666 75.5342Z" fill="#FDB827"/>
<path fill-rule="evenodd" clip-rule="evenodd" d="M70.5767 77.5223C71.0763 77.4553 71.5767 77.8087 71.6434 78.3057C71.788 78.7915 71.2884 79.2327 70.7984 79.2997C70.298 79.3778 69.9429 79.0891 69.853 78.5817C69.7863 78.0847 70.0867 77.5989 70.5767 77.5223Z" fill="#FDB827"/>
<path fill-rule="evenodd" clip-rule="evenodd" d="M63.0923 78.7252C63.5928 78.6486 64.037 78.9358 64.1036 79.4431C64.1703 79.9401 63.8032 80.2935 63.3148 80.4259C62.8144 80.5025 62.4586 80.0725 62.3919 79.7183C62.2473 79.2333 62.6032 78.7252 63.0923 78.7252Z" fill="#FDB827"/>
<path fill-rule="evenodd" clip-rule="evenodd" d="M71.1422 81.4304C71.6426 81.365 72.0876 81.708 72.1543 82.138C72.2322 82.7004 71.943 83.132 71.3655 83.2085C70.865 83.2756 70.5092 82.911 70.4433 82.4922C70.2971 81.9274 70.653 81.4974 71.1422 81.4304Z" fill="#FDB827"/>
<path fill-rule="evenodd" clip-rule="evenodd" d="M74.0093 80.2162C74.6543 80.1508 75.1547 80.5696 75.2214 81.2213C75.366 81.7837 74.8656 82.2807 74.2985 82.4913C73.7868 82.5567 73.2205 82.0597 73.1538 81.4303C73.0085 80.8568 73.431 80.2944 74.0093 80.2162Z" fill="#FDB827"/>
<path fill-rule="evenodd" clip-rule="evenodd" d="M61.7361 74.9606C62.1032 74.8936 62.5249 75.2581 62.6036 75.744C62.6036 76.0974 62.3924 76.5273 61.8919 76.5944C61.4469 76.6598 61.0911 76.3167 61.0244 75.8868C60.8806 75.4687 61.2357 75.1154 61.7361 74.9606Z" fill="#FDB827"/>
<path fill-rule="evenodd" clip-rule="evenodd" d="M61.3797 77.1035C61.8914 76.9495 62.2472 77.3125 62.391 77.7329C62.4577 78.1629 62.1018 78.5817 61.6568 78.5817C61.2343 78.6487 60.8118 78.3056 60.7347 77.9523C60.668 77.4553 61.0231 77.1035 61.3797 77.1035Z" fill="#FDB827"/>
<path fill-rule="evenodd" clip-rule="evenodd" d="M69.7865 83.353C70.5087 83.2748 71.1424 83.8372 71.2878 84.5448C71.3657 85.1957 70.7986 85.9017 70.087 85.9687C69.3648 86.0357 68.7311 85.5499 68.6644 84.8312C68.5865 84.126 69.0757 83.4838 69.7865 83.353Z" fill="#FDB827"/>
<path fill-rule="evenodd" clip-rule="evenodd" d="M75.8538 78.7922C76.2988 78.7252 76.7213 79.0897 76.7213 79.5085C76.7992 79.9401 76.51 80.2935 76.0875 80.4259C75.5758 80.4259 75.2208 80.1499 75.2208 79.7183C75.1541 79.3003 75.4321 78.8688 75.8538 78.7922Z" fill="#FDB827"/>
<path fill-rule="evenodd" clip-rule="evenodd" d="M73.0086 78.1631C73.4978 78.1631 73.9315 78.4391 73.9315 78.8691C74.0094 79.3007 73.6423 79.7195 73.2857 79.7976C72.7973 79.8631 72.3636 79.5097 72.3636 79.1571C72.2969 78.6489 72.6535 78.2285 73.0086 78.1631Z" fill="#FDB827"/>
<path fill-rule="evenodd" clip-rule="evenodd" d="M68.4501 79.3003C69.2839 79.2333 70.0847 79.7973 70.1514 80.6357C70.296 81.4973 69.7185 82.4912 68.806 82.5567C67.9505 82.7002 67.1488 81.9943 66.9384 81.1439C66.8717 80.2161 67.5055 79.4431 68.4501 79.3003Z" fill="#FDB827"/>
<path fill-rule="evenodd" clip-rule="evenodd" d="M78.3004 76.2419C79.2225 76.0983 80.09 76.7388 80.2338 77.5988C80.3013 78.5162 79.6458 79.3004 78.7221 79.444C77.8545 79.5094 77.0103 78.9358 76.9316 78.02C76.7991 77.1688 77.4328 76.3176 78.3004 76.2419Z" fill="#FDB827"/>
<path fill-rule="evenodd" clip-rule="evenodd" d="M25.6691 68.8662C25.102 68.8662 24.6016 69.3632 24.6016 69.9272C24.6016 70.4338 25.102 70.9307 25.6691 70.9307C26.2474 70.9307 26.6033 70.4338 26.6033 69.9272C26.6033 69.3632 26.2474 68.8662 25.6691 68.8662Z" fill="#FDB827"/>
<path fill-rule="evenodd" clip-rule="evenodd" d="M25.8287 62.1543C25.2504 62.1543 24.8945 62.6505 24.8945 63.2137C24.8945 63.7107 25.2496 64.2069 25.8287 64.2069C26.3958 64.2069 26.8962 63.7099 26.8962 63.2137C26.8962 62.6505 26.3958 62.1543 25.8287 62.1543Z" fill="#FDB827"/>
<path fill-rule="evenodd" clip-rule="evenodd" d="M16.4576 58.1123C15.8905 58.1123 15.5234 58.6093 15.5234 59.0943C15.5234 59.6687 15.8905 60.0995 16.4576 60.0995C17.0247 60.0995 17.5251 59.6687 17.5251 59.0943C17.5243 58.6093 17.0239 58.1123 16.4576 58.1123Z" fill="#FDB827"/>
<path fill-rule="evenodd" clip-rule="evenodd" d="M27.4581 72.708C26.8911 72.708 26.3906 73.1938 26.3906 73.6908C26.3906 74.4088 26.8911 74.8284 27.4581 74.8284C28.0365 74.8284 28.5369 74.4096 28.5369 73.6908C28.5369 73.1938 28.0365 72.708 27.4581 72.708Z" fill="#FDB827"/>
<path fill-rule="evenodd" clip-rule="evenodd" d="M32.5447 76.4742C33.1117 76.6832 33.3897 77.1036 33.2563 77.666C33.1784 78.2412 32.6113 78.593 32.0442 78.384C31.6 78.317 31.1775 77.733 31.2554 77.2464C31.5326 76.7494 31.9776 76.396 32.5447 76.4742Z" fill="#FDB827"/>
<path fill-rule="evenodd" clip-rule="evenodd" d="M28.6076 67.608C29.108 67.7404 29.4638 68.2366 29.3193 68.8006C29.1747 69.363 28.6743 69.6494 28.1851 69.5066C27.6734 69.4412 27.3176 68.866 27.4621 68.3036C27.5955 67.817 28.0405 67.5298 28.6076 67.608Z" fill="#FDB827"/>
<path fill-rule="evenodd" clip-rule="evenodd" d="M30.0714 80.4483C30.5389 80.5464 30.8168 80.978 30.7052 81.4295C30.6048 81.8938 30.183 82.1801 29.7156 82.0804C29.2489 81.9592 28.9597 81.5396 29.0705 81.0769C29.1709 80.6134 29.5935 80.327 30.0714 80.4483Z" fill="#FDB827"/>
<path fill-rule="evenodd" clip-rule="evenodd" d="M28.0736 79.0898C28.6407 79.2334 28.9629 79.7647 28.852 80.3047C28.7074 80.8671 28.1845 81.1878 27.6399 81.0777C27.0728 80.9325 26.7507 80.4028 26.8615 79.8628C27.0069 79.3004 27.529 78.9901 28.0736 79.0898Z" fill="#FDB827"/>
<path fill-rule="evenodd" clip-rule="evenodd" d="M34.9661 83.353C35.5999 83.4184 36.0441 84.1363 35.8883 84.8423C35.7445 85.4717 35.0328 85.9799 34.399 85.7581C33.6769 85.6145 33.2544 84.9093 33.3877 84.2791C33.599 83.5612 34.2544 83.1312 34.9661 83.353Z" fill="#FDB827"/>
<path fill-rule="evenodd" clip-rule="evenodd" d="M28.5378 81.784C28.9603 82.005 29.2495 82.3592 29.1049 82.7891C29.0278 83.1322 28.6045 83.484 28.2495 83.3531C27.8269 83.275 27.5932 82.8561 27.6711 82.4357C27.7482 82.0815 28.182 81.7074 28.5378 81.784Z" fill="#FDB827"/>
<path fill-rule="evenodd" clip-rule="evenodd" d="M29.7414 75.4021C30.2531 75.4691 30.4636 75.9661 30.3977 76.3306C30.2531 76.8149 29.8194 77.0366 29.4635 76.9601C28.9631 76.8149 28.6739 76.3961 28.8185 76.0443C28.8964 75.5345 29.3189 75.3255 29.7414 75.4021Z" fill="#FDB827"/>
<path fill-rule="evenodd" clip-rule="evenodd" d="M23.2504 62.297C23.8287 62.4406 24.04 62.8602 23.9733 63.291C23.8954 63.7106 23.4624 63.9978 22.962 63.9093C22.4616 63.7768 22.2503 63.3572 22.3282 62.9376C22.4608 62.4406 22.8945 62.2308 23.2504 62.297Z" fill="#FDB827"/>
<path fill-rule="evenodd" clip-rule="evenodd" d="M32.1055 79.3005C32.6059 79.3786 32.9617 79.7975 32.8951 80.3056C32.6734 80.868 32.25 81.0786 31.7392 81.0116C31.1721 80.868 30.9608 80.4492 31.0275 80.0176C31.1046 79.5087 31.6717 79.2335 32.1055 79.3005Z" fill="#FDB827"/>
<path fill-rule="evenodd" clip-rule="evenodd" d="M32.7549 85.6151C33.2553 85.4715 33.7437 85.7587 33.8224 86.266C33.9004 86.763 33.6779 87.2488 33.1108 87.327C32.6103 87.4594 32.2553 87.106 32.0432 86.6864C31.9766 86.1894 32.3324 85.6924 32.7549 85.6151Z" fill="#FDB827"/>
<path fill-rule="evenodd" clip-rule="evenodd" d="M30.0437 78.0303C30.4654 78.1069 30.6775 78.3837 30.6108 78.8033C30.5441 79.2333 30.1883 79.4439 29.7433 79.3785C29.3208 79.3003 29.1095 78.8815 29.1762 78.4611C29.3208 78.1739 29.6766 77.8093 30.0437 78.0303Z" fill="#FDB827"/>
<path fill-rule="evenodd" clip-rule="evenodd" d="M36.336 85.7581C36.9031 85.979 37.259 86.476 37.1144 87.0384C36.9698 87.6024 36.4027 88.0436 35.8252 87.8114C35.2581 87.679 34.903 87.249 35.0356 86.6196C35.1802 86.0572 35.7472 85.6926 36.336 85.7581Z" fill="#FDB827"/>
<path fill-rule="evenodd" clip-rule="evenodd" d="M31.0315 70.4327C31.8211 70.6433 32.3328 71.4267 32.1095 72.0673C31.9761 72.7749 31.1761 73.2719 30.4644 73.0613C29.7423 72.9177 29.3198 72.2109 29.531 71.4937C29.6756 70.7869 30.3985 70.2899 31.0315 70.4327Z" fill="#FDB827"/>
<path fill-rule="evenodd" clip-rule="evenodd" d="M11.5192 55.0543C11.8863 55.1987 12.1754 55.5513 12.0975 55.9821C12.0309 56.3354 11.5858 56.6218 11.1633 56.5453C10.8075 56.4128 10.5296 56.0594 10.6629 55.6183C10.7416 55.2641 11.0975 54.9881 11.5192 55.0543Z" fill="#FDB827"/>
<path fill-rule="evenodd" clip-rule="evenodd" d="M32.8998 74.0553C33.2556 74.1335 33.5336 74.4853 33.389 74.9057C33.3223 75.3245 32.9665 75.5335 32.5439 75.4681C32.1102 75.4011 31.8989 74.9711 31.9768 74.6177C32.0435 74.1989 32.466 73.9014 32.8998 74.0553Z" fill="#FDB827"/>
<path fill-rule="evenodd" clip-rule="evenodd" d="M25.4617 71.4946C25.028 71.4946 24.6055 71.7706 24.6055 72.278C24.6055 72.708 25.028 73.0614 25.4617 73.0614C25.8947 73.0614 26.2505 72.708 26.2505 72.278C26.2505 71.7698 25.8947 71.4946 25.4617 71.4946Z" fill="#FDB827"/>
<path fill-rule="evenodd" clip-rule="evenodd" d="M27.1729 75.9658C26.6725 75.9658 26.3945 76.2522 26.3945 76.7492C26.3945 77.2462 26.6725 77.5222 27.1729 77.5222C27.5946 77.5222 27.9729 77.2462 27.9729 76.7492C27.9729 76.2522 27.5946 75.9658 27.1729 75.9658Z" fill="#FDB827"/>
<path fill-rule="evenodd" clip-rule="evenodd" d="M18.1758 60.2437C17.665 60.2437 17.375 60.6633 17.375 61.0167C17.375 61.5136 17.6642 61.7897 18.1758 61.7897C18.5317 61.7897 18.9542 61.5136 18.9542 61.0167C18.9542 60.6633 18.5317 60.2437 18.1758 60.2437Z" fill="#FDB827"/>
<path fill-rule="evenodd" clip-rule="evenodd" d="M28.1839 70.4326C27.6722 70.4326 27.3164 70.853 27.3164 71.283C27.3164 71.7034 27.6722 72.0664 28.1839 72.0664C28.6064 72.0664 28.9623 71.7034 28.9623 71.283C28.9623 70.8538 28.6064 70.4326 28.1839 70.4326Z" fill="#FDB827"/>
<path fill-rule="evenodd" clip-rule="evenodd" d="M31.0281 82.502C30.1831 82.502 29.4609 83.275 29.4609 84.2019C29.4609 85.0523 30.1831 85.7583 31.0281 85.7583C32.0394 85.7583 32.7519 85.0523 32.7519 84.2019C32.7519 83.275 32.0402 82.502 31.0281 82.502Z" fill="#FDB827"/>
<path fill-rule="evenodd" clip-rule="evenodd" d="M23.9732 64.627C23.0278 64.627 22.3281 65.3337 22.3281 66.3381C22.3281 67.2547 23.0286 67.9503 23.9732 67.9503C24.8961 67.9503 25.5966 67.2547 25.5966 66.3381C25.5958 65.3329 24.8961 64.627 23.9732 64.627Z" fill="#FDB827"/>
<path fill-rule="evenodd" clip-rule="evenodd" d="M14.2425 54.9878C13.3749 54.9878 12.6641 55.6946 12.6641 56.6215C12.6641 57.4608 13.3757 58.2561 14.2425 58.2561C15.0987 58.2561 15.8875 57.4608 15.8875 56.6215C15.8883 55.6946 15.0987 54.9878 14.2425 54.9878Z" fill="#FDB827"/>
<path fill-rule="evenodd" clip-rule="evenodd" d="M108.051 67.7397C108.629 67.7397 109.13 68.2367 109.13 68.7999C109.13 69.3623 108.629 69.7827 108.051 69.7827C107.551 69.7827 107.129 69.3623 107.129 68.7999C107.129 68.2367 107.551 67.7397 108.051 67.7397Z" fill="#FDB827"/>
<path fill-rule="evenodd" clip-rule="evenodd" d="M107.904 61.0166C108.482 61.0166 108.916 61.5136 108.916 62.088C108.916 62.6512 108.482 63.07 107.904 63.07C107.337 63.07 106.914 62.6504 106.914 62.088C106.914 61.5136 107.337 61.0166 107.904 61.0166Z" fill="#FDB827"/>
<path fill-rule="evenodd" clip-rule="evenodd" d="M116.633 55.0542C117.2 55.0542 117.701 55.5512 117.701 56.1255C117.701 56.6887 117.2 57.1857 116.633 57.1857C116.055 57.1857 115.699 56.6887 115.699 56.1255C115.699 55.5512 116.055 55.0542 116.633 55.0542Z" fill="#FDB827"/>
<path fill-rule="evenodd" clip-rule="evenodd" d="M99.9029 67.9492C100.482 67.9492 100.982 68.3026 100.982 68.865C100.982 69.4402 100.482 69.926 99.9029 69.926C99.3366 69.926 98.9141 69.4402 98.9141 68.865C98.9133 68.3034 99.3358 67.9492 99.9029 67.9492Z" fill="#FDB827"/>
<path fill-rule="evenodd" clip-rule="evenodd" d="M106.329 71.5601C106.917 71.5601 107.341 72.0682 107.341 72.6322C107.341 73.2728 106.918 73.6916 106.329 73.6916C105.695 73.6916 105.195 73.2728 105.195 72.6322C105.195 72.0674 105.694 71.5601 106.329 71.5601Z" fill="#FDB827"/>
<path fill-rule="evenodd" clip-rule="evenodd" d="M98.1144 71.6372C98.6927 71.6372 99.1924 72.1454 99.1924 72.7748C99.1924 73.3372 98.6927 73.7576 98.1144 73.7576C97.5473 73.7576 97.0469 73.3372 97.0469 72.7748C97.0469 72.1454 97.5473 71.6372 98.1144 71.6372Z" fill="#FDB827"/>
<path fill-rule="evenodd" clip-rule="evenodd" d="M101.19 75.4687C100.623 75.5341 100.323 76.0439 100.478 76.6063C100.556 77.1033 101.123 77.4551 101.691 77.3123C102.19 77.2469 102.479 76.6829 102.413 76.1875C102.257 75.6123 101.756 75.3251 101.19 75.4687Z" fill="#FDB827"/>
<path fill-rule="evenodd" clip-rule="evenodd" d="M87.8962 86.9738C87.33 87.1062 86.9741 87.6032 87.1179 88.1767C87.1846 88.7519 87.8296 89.0271 88.4071 88.8843C88.9075 88.8173 89.1855 88.2549 89.1188 87.6798C88.975 87.2498 88.4746 86.8956 87.8962 86.9738Z" fill="#FDB827"/>
<path fill-rule="evenodd" clip-rule="evenodd" d="M103.658 79.3006C103.19 79.4115 102.912 79.8414 103.013 80.3057C103.124 80.7572 103.546 81.0444 104.013 80.9335C104.48 80.8242 104.769 80.4038 104.658 79.9412C104.558 79.4872 104.114 79.2009 103.658 79.3006Z" fill="#FDB827"/>
<path fill-rule="evenodd" clip-rule="evenodd" d="M105.659 78.0305C105.081 78.1741 104.77 78.6927 104.87 79.2335C105.015 79.7975 105.548 80.1166 106.093 80.0169C106.659 79.8629 106.981 79.3436 106.871 78.8035C106.727 78.2411 106.193 77.9197 105.659 78.0305Z" fill="#FDB827"/>
<path fill-rule="evenodd" clip-rule="evenodd" d="M100.259 79.7976C99.7581 79.9412 99.5469 80.3712 99.6135 80.8682C99.6915 81.287 100.192 81.5758 100.626 81.4976C101.047 81.3652 101.337 80.9336 101.271 80.4494C101.126 80.017 100.692 79.7195 100.259 79.7976Z" fill="#FDB827"/>
<path fill-rule="evenodd" clip-rule="evenodd" d="M98.834 82.2155C98.1889 82.3591 97.6885 82.9989 97.8339 83.6945C97.9672 84.3455 98.6894 84.8425 99.3344 84.6997C100.113 84.4891 100.48 83.7727 100.323 83.1321C100.191 82.4349 99.5456 82.0815 98.834 82.2155Z" fill="#FDB827"/>
<path fill-rule="evenodd" clip-rule="evenodd" d="M92.1762 83.6283C91.5424 83.6937 91.1866 84.2792 91.2645 84.9087C91.4758 85.4711 92.0429 85.7574 92.5537 85.692C93.1867 85.5484 93.5425 84.9844 93.398 84.422C93.2654 83.7719 92.7658 83.4839 92.1762 83.6283Z" fill="#FDB827"/>
<path fill-rule="evenodd" clip-rule="evenodd" d="M105.191 80.7242C104.768 80.8023 104.479 81.2866 104.624 81.64C104.702 82.1481 105.123 82.3579 105.546 82.2909C105.902 82.2143 106.191 81.64 106.046 81.2858C105.969 80.8678 105.613 80.6572 105.191 80.7242Z" fill="#FDB827"/>
<path fill-rule="evenodd" clip-rule="evenodd" d="M103.971 74.266C103.482 74.4096 103.192 74.8284 103.271 75.2584C103.482 75.6772 103.904 75.966 104.326 75.8224C104.771 75.7442 105.048 75.3254 104.982 74.9066C104.916 74.4096 104.404 74.199 103.971 74.266Z" fill="#FDB827"/>
<path fill-rule="evenodd" clip-rule="evenodd" d="M90.6168 85.8253C90.1718 85.9793 89.8939 86.4093 90.0385 86.8305C90.1718 87.3274 90.5494 87.5364 90.9719 87.4599C91.4723 87.3274 91.6836 86.8959 91.6056 86.4771C91.539 86.0575 91.0385 85.7583 90.6168 85.8253Z" fill="#FDB827"/>
<path fill-rule="evenodd" clip-rule="evenodd" d="M102.328 66.9675C101.84 67.0337 101.616 67.5307 101.695 67.9495C101.84 68.3029 102.261 68.6571 102.629 68.5901C103.129 68.3811 103.34 68.0269 103.274 67.6081C103.195 67.1103 102.695 66.9013 102.328 66.9675Z" fill="#FDB827"/>
<path fill-rule="evenodd" clip-rule="evenodd" d="M110.563 61.0827C110.196 61.3029 109.841 61.6563 109.974 62.0871C110.052 62.5841 110.486 62.7931 110.985 62.7269C111.341 62.6495 111.697 62.1533 111.552 61.7225C111.408 61.3037 111.051 61.0165 110.563 61.0827Z" fill="#FDB827"/>
<path fill-rule="evenodd" clip-rule="evenodd" d="M101.611 78.174C101.123 78.3175 100.833 78.8034 100.911 79.3004C101.044 79.7192 101.545 80.0167 101.967 79.9409C102.479 79.7973 102.689 79.3785 102.623 78.8815C102.556 78.3846 102.112 78.1069 101.611 78.174Z" fill="#FDB827"/>
<path fill-rule="evenodd" clip-rule="evenodd" d="M103.692 76.893C103.192 76.96 102.981 77.3899 103.047 77.733C103.126 78.1071 103.547 78.3169 103.97 78.2411C104.403 78.1741 104.625 77.733 104.559 77.4562C104.404 77.0365 104.049 76.8148 103.692 76.893Z" fill="#FDB827"/>
<path fill-rule="evenodd" clip-rule="evenodd" d="M96.4318 77.8098C95.9643 77.9207 95.6864 78.3395 95.7981 78.8038C95.8977 79.2792 96.3202 79.5544 96.7869 79.4443C97.2656 79.3446 97.5427 78.9035 97.4423 78.4615C97.3323 77.9869 96.9098 77.7101 96.4318 77.8098Z" fill="#FDB827"/>
<path fill-rule="evenodd" clip-rule="evenodd" d="M98.8362 78.2412C98.3254 78.3177 98.1141 78.8036 98.1912 79.2335C98.2579 79.5869 98.6916 79.9411 99.1246 79.7975C99.6138 79.6539 99.8371 79.3005 99.7584 78.8817C99.6146 78.3839 99.1921 78.1741 98.8362 78.2412Z" fill="#FDB827"/>
<path fill-rule="evenodd" clip-rule="evenodd" d="M95.2693 82.3588C94.5577 82.5024 94.1906 83.3527 94.3239 83.9917C94.4123 84.6993 95.1906 85.1181 95.9023 84.9857C96.6244 84.8421 97.1248 84.1369 96.9811 83.4182C96.8365 82.7122 96.1144 82.2152 95.2693 82.3588Z" fill="#FDB827"/>
<path fill-rule="evenodd" clip-rule="evenodd" d="M102.622 69.4405C101.9 69.5729 101.477 70.2893 101.61 70.9969C101.755 71.6375 102.478 72.1448 103.189 71.9908C103.968 71.7699 104.401 71.0751 104.256 70.3675C104.046 69.6495 103.267 69.2977 102.622 69.4405Z" fill="#FDB827"/>
<path fill-rule="evenodd" clip-rule="evenodd" d="M95.265 80.017C94.9092 80.0952 94.62 80.4486 94.7646 80.8674C94.8313 81.2862 95.1863 81.4298 95.6868 81.3644C96.1093 81.2862 96.3205 80.8674 96.1872 80.581C96.1101 80.1606 95.7534 79.9404 95.265 80.017Z" fill="#FDB827"/>
<path fill-rule="evenodd" clip-rule="evenodd" d="M100.913 72.8404C100.48 72.984 100.257 73.4156 100.324 73.6908C100.413 74.199 100.836 74.4088 101.192 74.3417C101.613 74.2652 101.837 73.7578 101.758 73.4148C101.692 73.0614 101.27 72.775 100.913 72.8404Z" fill="#FDB827"/>
<path fill-rule="evenodd" clip-rule="evenodd" d="M97.1892 80.6573C96.9113 80.7244 96.6221 81.0107 96.6896 81.4303C96.8342 81.708 97.1226 82.0813 97.5451 82.0055C97.8342 81.7845 98.1122 81.4974 97.9676 81.0785C97.9009 80.8025 97.5451 80.4483 97.1892 80.6573Z" fill="#FDB827"/>
<path fill-rule="evenodd" clip-rule="evenodd" d="M85.5363 85.9796C85.1146 86.0577 84.8254 86.4765 84.9033 86.8953C85.0367 87.3269 85.4704 87.5359 85.8255 87.4593C86.248 87.3923 86.4705 86.9735 86.4038 86.6193C86.3371 86.1224 85.9596 85.8248 85.5363 85.9796Z" fill="#FDB827"/>
<path fill-rule="evenodd" clip-rule="evenodd" d="M92.9068 81.5747C92.473 81.6401 92.1734 82.2153 92.318 82.6453C92.4064 82.9986 92.8297 83.2747 93.1847 83.1311C93.6072 83.0641 93.8305 82.6452 93.7518 82.2153C93.6851 81.7071 93.2626 81.4973 92.9068 81.5747Z" fill="#FDB827"/>
<path fill-rule="evenodd" clip-rule="evenodd" d="M108.329 70.3677C108.707 70.3677 109.13 70.7211 109.13 71.2077C109.13 71.6377 108.707 71.9911 108.329 71.9911C107.841 71.9911 107.551 71.6377 107.551 71.2077C107.551 70.7219 107.84 70.3677 108.329 70.3677Z" fill="#FDB827"/>
<path fill-rule="evenodd" clip-rule="evenodd" d="M106.562 74.8281C107.051 74.8281 107.34 75.2581 107.34 75.6115C107.34 76.1197 107.052 76.3949 106.562 76.3949C106.195 76.3949 105.762 76.1189 105.762 75.6115C105.761 75.2581 106.195 74.8281 106.562 74.8281Z" fill="#FDB827"/>
<path fill-rule="evenodd" clip-rule="evenodd" d="M115.055 57.3286C115.488 57.3286 115.844 57.6046 115.844 58.1782C115.844 58.6752 115.488 58.9624 115.055 58.9624C114.566 58.9624 114.266 58.6752 114.266 58.1782C114.265 57.6046 114.565 57.3286 115.055 57.3286Z" fill="#FDB827"/>
<path fill-rule="evenodd" clip-rule="evenodd" d="M105.618 69.4404C106.052 69.4404 106.408 69.7164 106.408 70.2238C106.408 70.6426 106.052 70.9968 105.618 70.9968C105.129 70.9968 104.773 70.6434 104.773 70.2238C104.773 69.7164 105.128 69.4404 105.618 69.4404Z" fill="#FDB827"/>
<path fill-rule="evenodd" clip-rule="evenodd" d="M102.622 81.4302C103.545 81.4302 104.323 82.2151 104.323 83.0647C104.323 83.9917 103.545 84.6993 102.622 84.6993C101.689 84.6993 100.977 83.9917 100.977 83.0647C100.977 82.2151 101.689 81.4302 102.622 81.4302Z" fill="#FDB827"/>
<path fill-rule="evenodd" clip-rule="evenodd" d="M109.763 63.5664C110.63 63.5664 111.342 64.2732 111.342 65.189C111.342 66.1279 110.63 66.8227 109.763 66.8227C108.918 66.8227 108.195 66.1271 108.195 65.189C108.195 64.2732 108.918 63.5664 109.763 63.5664Z" fill="#FDB827"/>
<path fill-rule="evenodd" clip-rule="evenodd" d="M118.782 52.1504C119.849 52.1504 120.561 52.8572 120.561 53.6964C120.561 54.6353 119.849 55.3421 118.782 55.3421C117.915 55.3421 117.203 54.6353 117.203 53.6964C117.203 52.8572 117.914 52.1504 118.782 52.1504Z" fill="#FDB827"/>
<path fill-rule="evenodd" clip-rule="evenodd" d="M98.4773 74.1338C99.4782 74.1338 100.19 74.8286 100.19 75.6782C100.19 76.6068 99.4782 77.3128 98.4773 77.3128C97.6106 77.3128 96.9102 76.6068 96.9102 75.6782C96.9102 74.8286 97.6106 74.1338 98.4773 74.1338Z" fill="#FDB827"/>
<path fill-rule="evenodd" clip-rule="evenodd" d="M114.824 50.5832C114.725 50.2186 114.358 50.0088 113.979 50.0974C110.1 50.7379 106.875 52.8798 103.396 54.713C103.029 54.9117 102.762 55.21 102.517 55.5299C102.528 55.4637 102.528 55.3752 102.528 55.2978C102.528 55.2978 102.539 55.1207 102.506 54.9667C102.406 54.8455 102.173 54.5471 101.751 54.4809C101.44 54.7019 101.44 54.7019 100.917 55.0991C100.917 55.0991 100.216 55.6958 99.9168 56.5343C99.7168 56.8326 99.6051 56.9985 99.4943 57.1852C99.483 57.1525 99.483 57.1086 99.4613 57.0751C99.3392 56.6005 99.3392 56.6005 98.9392 56.0269C98.9392 56.0269 98.8942 55.9822 98.8605 55.9607C98.8276 55.9383 98.5159 55.7174 98.0942 55.8059C97.8605 56.1154 97.8605 56.1154 97.56 56.5893C97.56 56.5893 97.2379 57.4509 97.0821 58.3674C97.0709 58.3786 97.0709 58.401 97.0709 58.4225C96.9921 58.1576 96.8925 57.7931 96.6371 56.8765C96.6371 56.8765 96.6146 56.7441 96.5254 56.6332C96.4258 56.5335 96.4259 56.5335 96.1584 56.3133C96.1584 56.3133 96.0917 56.2359 96.0138 56.2136C95.9471 56.1697 95.5921 56.0261 95.1912 56.2136C95.0467 56.5781 95.0467 56.5781 94.825 57.174C94.825 57.174 94.6579 57.8697 94.4796 58.7639C94.4354 58.4656 94.3687 58.0571 94.2796 57.4501C94.2796 57.4501 94.2579 57.3288 94.1912 57.2402C94.102 57.1405 93.8129 56.8757 93.3904 56.8757C93.1237 57.1405 93.1237 57.1405 92.9791 57.2953C92.9791 57.2953 92.8795 57.3838 92.8241 57.5051C92.7903 57.6375 92.7903 57.6375 92.6907 58.1233C92.6907 58.1233 92.6353 58.3555 92.5686 58.7081C92.4795 57.8362 92.4353 57.5928 92.1686 56.0692C92.1686 56.0692 92.1011 55.7605 91.8345 55.5618C91.5011 55.5618 91.5011 55.5618 91.2794 55.5618C91.2794 55.5618 90.9902 55.5507 90.734 55.7158C90.6344 55.9814 90.6344 55.9814 90.3452 56.776C90.3452 56.776 90.1123 57.8912 89.8673 59.3367C89.7894 57.0735 89.7669 57.0296 89.5452 54.9867C89.5452 54.9867 89.5339 54.733 89.3452 54.5224C89.1227 54.4346 88.7668 54.2902 88.3556 54.4562C88.211 54.8319 88.211 54.8319 88.0222 55.3616C88.0222 55.3616 87.7443 57.04 87.3443 59.1923C87.1884 56.2558 87.1884 56.2335 87.1443 55.0959C87.1443 55.0959 87.0993 54.7976 86.8888 54.5774C86.6101 54.5224 86.2438 54.4338 85.8663 54.6548C85.7876 55.0417 85.7876 55.0417 85.6767 55.7589C85.6767 55.7589 85.1771 58.6076 84.7771 62.0857C84.7546 61.6772 84.7217 61.2568 84.7104 60.8492C84.7883 56.0572 84.7883 56.0572 84.6654 55.064C84.6654 55.064 84.61 54.8319 84.4204 54.6444C84.4092 54.6333 84.3754 54.6333 84.3538 54.6109C84.4654 54.4897 84.5208 54.3572 84.5658 54.2025C84.3433 53.8938 84.1096 53.5842 83.6983 53.5069C83.3762 53.7167 83.3762 53.7167 83.3762 53.7167C82.2533 54.4458 81.6307 55.6599 81.2757 56.9188C80.0082 61.3127 80.2532 65.7736 80.8861 70.1667L80.9086 70.3334C80.9303 70.564 81.042 70.7634 81.2532 70.8847C81.5866 71.0729 82.0091 70.9405 82.1986 70.6198L82.3649 70.2114C82.6316 66.9981 82.8766 63.7633 83.4437 60.5835C83.5441 64.0393 83.7995 67.5174 84.3771 70.9277L84.4558 71.1814C84.5554 71.4351 84.7891 71.613 85.0775 71.6345C85.4566 71.6457 85.7892 71.3481 85.7892 70.9724L85.8004 70.3103C85.8125 67.4058 85.9683 64.4693 86.2679 61.5759C86.4229 63.1108 86.6238 64.6568 86.835 66.1916L86.9234 66.5665C86.9788 66.8426 87.1901 67.0524 87.4792 67.097C87.8455 67.1632 88.2013 66.9207 88.268 66.5562L88.3234 66.2028C88.2785 64.0609 88.4343 61.9636 88.7122 59.8544C88.9676 61.5544 89.3235 63.244 89.6793 64.9112L90.0681 65.3963C90.1798 65.4736 90.3131 65.4848 90.4569 65.4848C90.8232 65.4736 91.1011 65.1314 91.0906 64.7557L91.0352 64.005C90.9685 62.4486 91.0802 60.8915 91.2907 59.3351C91.4569 60.495 91.6577 61.6318 91.9574 62.7797L92.1461 63.0669C92.224 63.1993 92.3461 63.299 92.4795 63.3533C92.8466 63.4642 93.2466 63.2655 93.347 62.9121L93.5357 62.3489C93.547 62.1391 93.5574 61.9181 93.5799 61.686C93.6353 61.9732 93.702 62.2492 93.7687 62.5252L93.8466 62.8012C93.8916 62.9887 93.992 63.1435 94.147 63.2432C94.4691 63.453 94.8812 63.3533 95.0924 63.0438L95.4041 62.4694C95.5929 61.3765 95.682 60.2836 95.8371 59.1907C95.9592 59.7427 96.0925 60.3059 96.2708 60.8468L96.6259 61.3653C96.715 61.5089 96.8821 61.619 97.0484 61.6637C97.4267 61.7634 97.7938 61.5312 97.8709 61.1667L98.0259 60.5373C98.1151 59.8417 98.2709 59.1572 98.4484 58.4735L98.5818 59.0032C98.6268 59.1803 98.7705 59.3455 98.9376 59.434L99.0485 59.4891C99.3939 59.6765 99.7939 59.5441 99.9706 59.1907L100.204 58.7599C100.505 58.2406 100.76 57.6886 101.049 57.1701C101.049 57.2036 101.049 57.2363 101.049 57.2809L101.038 57.5458C101.016 57.9215 101.294 58.2414 101.661 58.2629L101.839 58.2741C102.016 58.2956 102.206 58.2191 102.351 58.097L102.684 57.7444C103.206 57.048 103.539 56.1537 104.351 55.7461C107.642 54.0453 110.632 51.992 114.312 51.4176C114.68 51.3227 114.901 50.9581 114.824 50.5832Z" fill="black"/>
<path fill-rule="evenodd" clip-rule="evenodd" d="M49.0157 63.0697C48.8711 61.1049 48.6607 59.117 48.549 56.9423C48.4599 55.4737 47.0702 55.9045 46.8253 57.2622C46.4582 59.393 46.1361 61.3586 45.8911 63.3122C45.724 61.8213 45.5802 60.3423 45.5127 58.8409L45.4686 58.1126C45.4686 57.9579 45.3906 57.8135 45.2902 57.693L45.1023 57.4609C45.0244 57.3947 44.9464 57.3396 44.8468 57.2949C44.5022 57.1513 44.1022 57.3061 43.9464 57.6595L43.6355 58.4548C43.5134 58.9622 43.4243 59.4704 43.3576 59.9889C43.2684 59.4368 43.1801 58.9072 43.0797 58.3663L42.8459 57.7919C42.7014 57.4497 42.3343 57.2838 41.9897 57.4058L41.6788 57.5159C41.5117 57.5821 41.3559 57.7034 41.278 57.8916L40.8997 58.8194C40.8555 59.0069 40.8217 59.1943 40.7993 59.3826C40.7776 59.0954 40.7551 58.8306 40.7438 58.5546L40.4996 57.8478C40.4659 57.7927 40.4442 57.7369 40.4105 57.693C40.188 57.3947 39.7655 57.3284 39.4434 57.5494L39.1213 57.7704C39.0209 57.8478 38.9325 57.9579 38.8996 58.0576L38.6104 58.7644C38.5437 59.1393 38.4883 59.5374 38.4433 59.9346C38.3991 59.184 38.3879 58.4221 38.3654 57.6826L38.2321 57.1745C38.1541 56.9758 37.9983 56.8323 37.8208 56.766C37.465 56.6336 37.0537 56.8211 36.9203 57.1745L36.8762 57.3292C36.7428 57.1306 36.5091 56.9982 36.2649 57.0309L35.8866 57.0421C35.7203 57.0532 35.5428 57.1306 35.4199 57.263C35.4311 56.7772 35.4311 56.2802 35.4199 55.8056L35.1757 55.11C35.1644 55.0876 35.1532 55.0437 35.1203 55.0102C34.9202 54.6903 34.4977 54.5906 34.1756 54.8004L33.5306 55.2974C33.3635 55.6069 33.2085 55.9157 33.0527 56.2252C33.0752 55.8718 33.1081 55.5184 33.1306 55.1546L33.186 54.4813C33.2085 54.305 33.1643 54.1279 33.0639 53.9955L32.8414 53.7195C32.6527 53.477 32.3081 53.3773 32.0406 53.5097L31.4406 53.8296C31.2735 54.029 31.1064 54.2388 30.9289 54.4478C30.9289 54.1168 30.8951 53.7634 30.7739 53.3876L30.6735 53.1116V53.1005C30.5401 52.7582 30.1393 52.57 29.7842 52.7144L28.9505 53.0566C28.8396 53.134 28.7167 53.2225 28.6171 53.3103L28.6613 53.1005C28.7063 52.9569 28.695 52.8133 28.6396 52.6697L28.5392 52.4375C28.4388 52.195 28.1946 52.0291 27.9384 52.0068C27.9384 51.797 27.8163 51.576 27.6163 51.4436L27.3608 51.3L27.2163 51.1891C27.0717 51.1125 26.9046 51.079 26.7383 51.1125L25.7262 51.2784C23.6249 51.588 21.5244 51.1125 19.4343 50.8588C19.0568 50.8038 18.7122 51.0463 18.656 51.4332C18.6006 51.8081 18.856 52.1504 19.2343 52.195C21.0135 52.4711 22.7694 52.7471 24.5816 52.7582L26.1712 52.5596C26.1045 52.6697 26.0491 52.7917 25.9825 52.9457C25.9825 52.9457 25.9158 53.2879 26.1487 53.6302C26.4933 53.7187 26.4933 53.7187 26.5937 53.7299C26.5937 53.7299 26.7496 53.7737 26.9271 53.7626C26.9713 53.7299 27.005 53.7187 27.0604 53.6852C27.0267 53.7737 27.005 53.8846 26.9488 54.0171C26.8709 54.2269 26.8709 54.2269 26.6379 55.2759C26.6379 55.2759 26.6154 55.3756 26.6492 55.4969C26.6941 55.6077 26.8604 55.9388 27.2604 56.0816C27.6163 55.9268 27.6163 55.9268 28.25 55.4745C28.25 55.4745 28.5505 55.2097 28.8388 54.9337C29.0501 54.735 29.1167 54.68 29.5842 54.3928C29.5288 54.735 29.4172 55.2432 29.1722 55.7067C28.9055 56.5347 28.9055 56.5347 28.5055 57.6611C28.5055 57.6611 28.45 57.8932 28.5497 58.1254C28.7167 58.2801 29.0051 58.5227 29.4389 58.5115C29.6838 58.2458 29.6838 58.2458 30.1835 57.7385C30.1835 57.7385 30.7947 56.9551 31.2839 56.1159C31.4727 55.9173 31.5956 55.7625 31.7177 55.6516C31.6727 56.1159 31.6173 56.778 31.5618 57.4513C31.4727 58.6543 31.4727 58.6543 31.3393 60.6749C31.3393 60.6749 31.3393 60.8185 31.406 60.9621C31.4727 61.0722 31.6952 61.4033 32.1281 61.4695C32.4398 61.2708 32.4398 61.2708 32.5169 61.2046C32.5169 61.2046 32.6503 61.1161 32.7507 60.9948C32.7948 60.8512 32.7948 60.8512 33.0061 60.2114C33.0061 60.2114 33.2503 59.0739 33.7949 58.0472C33.8953 57.7608 33.9732 57.5502 34.0391 57.3851C34.0053 58.0695 33.9837 59.251 33.9724 60.454C33.7836 62.276 33.7836 62.276 33.4615 64.804C33.4615 64.804 33.3828 65.1789 33.6615 65.5331C34.0391 65.577 34.3949 65.632 34.762 65.3895C34.7949 65.2132 34.8062 65.1135 34.8174 65.0138C34.8399 64.9141 34.8512 64.8152 34.8737 64.6277C34.8737 64.6277 35.1291 62.9939 35.3403 61.337C35.5412 60.4428 35.6295 60.0343 35.8191 59.5924C35.7966 60.288 35.7741 61.2046 35.6745 62.0989C35.8191 63.9983 35.8191 63.9983 35.9966 65.6209C35.9966 65.6209 36.0416 65.853 36.2079 66.0628C36.452 66.1514 36.8191 66.2614 37.2087 66.0628C37.3196 65.7429 37.3196 65.7094 37.5091 64.8367C37.7204 66.007 37.7983 66.338 38.1766 67.6854C38.1766 67.6854 38.2433 67.9391 38.4546 68.1273C38.722 68.1712 39.1108 68.2271 39.4442 67.9734C39.5221 67.6088 39.5221 67.6088 39.5108 66.6922C39.5108 66.6922 39.6 64.7051 39.5446 62.7395C39.5783 62.3749 39.5896 62.0765 39.6225 61.8229C39.6892 62.5735 39.7783 63.4463 39.8779 64.2966C40.245 66.6595 40.245 66.6595 40.645 68.7903C40.645 68.7903 40.645 68.8341 40.6563 68.8668C40.69 68.9123 40.8009 69.2641 41.2121 69.4524C41.5238 69.3415 41.568 69.32 41.8788 68.4911L42.0017 68.5797L41.9567 68.2813C41.9905 68.2263 42.0234 68.1489 42.0459 68.0827C42.0459 68.0827 41.9455 65.5539 41.8009 63.0147C41.923 61.8667 41.9792 61.2262 42.0563 60.6957C42.1784 61.6234 42.3455 62.9812 42.4901 64.3174C42.8234 66.7241 42.8459 66.7465 43.2572 69.4731V69.5058H43.2684C43.2684 69.5186 43.2684 69.529 43.2684 69.5513C43.2684 69.5513 43.3239 69.9159 43.6468 70.1576C44.0243 70.1249 44.3914 70.081 44.6693 69.7491C44.6251 69.363 44.6251 69.363 44.6476 68.7009C44.6476 68.7009 44.7585 65.8418 44.2805 62.9596C44.3143 62.7395 44.3472 62.5297 44.3689 62.3302C44.4468 63.0474 44.5135 63.8316 44.6027 64.6157C45.0364 67.4317 45.0364 67.4317 45.4477 69.7499C45.4477 69.7499 45.5368 70.0602 45.8027 70.2685C46.1144 70.2685 46.504 70.2812 46.8036 69.9597C46.8148 69.5736 46.8148 69.5736 46.8036 69.0439C46.8036 69.0439 46.8815 65.5539 47.4148 62.1212C47.4486 61.8779 47.4815 61.6681 47.5257 61.4695C47.6703 62.9596 47.8703 64.7705 48.0928 66.5925C47.6815 70.9872 47.6815 70.9872 47.6486 71.5169C47.6486 71.5169 47.6149 71.8703 47.8711 72.2006C48.2157 72.2564 48.5932 72.3114 48.9491 72.057C49.0157 71.6924 49.0157 71.6924 49.1049 71.2082C49.1049 71.2082 50.4053 66.6699 50.0391 61.779C49.9274 60.6957 49.0711 60.5632 49.0157 63.0697Z" fill="black"/>
<path fill-rule="evenodd" clip-rule="evenodd" d="M67.3483 57.5493C62.9674 58.2664 62.6228 66.349 63.0236 72.6639C65.8358 75.4902 70.0834 75.9657 73.3068 74.3638C73.4956 66.1392 72.1068 56.7763 67.3483 57.5493Z" fill="#007AC2"/>
<path fill-rule="evenodd" clip-rule="evenodd" d="M67.216 75.0159C66.1043 68.9332 67.3164 62.8936 70.0073 62.8936C72.3865 62.8936 73.242 67.7956 73.242 74.2317C71.286 75.1483 69.9735 75.5344 67.216 75.0159Z" fill="black"/>
<path fill-rule="evenodd" clip-rule="evenodd" d="M72.5508 74.1878C72.7733 71.0407 72.0624 67.585 70.8936 67.585C69.6936 67.585 68.8036 70.5772 69.0486 74.7502C70.0599 74.818 71.3941 74.7071 72.5508 74.1878Z" fill="white"/>
<path fill-rule="evenodd" clip-rule="evenodd" d="M63.7285 72.3326C63.2168 63.6996 64.551 58.6866 67.4853 58.212C71.21 57.5825 72.7996 65.2344 72.6446 73.9129C69.732 75.1486 66.0965 74.6077 63.7285 72.3326ZM75.6239 72.7211C75.3684 72.4331 74.9451 72.4004 74.6568 72.6541C74.468 72.8304 74.2447 72.9955 74.0342 73.1399C74.0672 66.8681 73.1458 60.1999 70.4325 57.782C69.5103 56.9651 68.442 56.6556 67.2644 56.855C63.4064 57.4836 61.7397 62.8165 62.3734 72.6868C62.3734 72.8519 62.4401 73.0075 62.5509 73.1295C65.2306 75.8347 69.222 76.618 72.6012 75.4246C72.6012 75.5802 72.59 75.7126 72.59 75.8674C72.5787 76.2535 72.8567 76.5733 73.2454 76.5965C73.6238 76.6077 73.9571 76.3189 73.9684 75.9455C73.9788 75.5594 73.9901 75.1725 74.0126 74.7864C74.5572 74.4761 75.0905 74.1115 75.5693 73.6712C75.8568 73.4159 75.8793 72.9947 75.6239 72.7211Z" fill="black"/>
<path fill-rule="evenodd" clip-rule="evenodd" d="M60.2025 71.6814C60.4692 64.6382 59.6571 58.9847 56.7783 58.5212C52.9315 57.9141 52.031 68.4577 52.3764 75.0502L60.2025 71.6814Z" fill="#007AC2"/>
<path fill-rule="evenodd" clip-rule="evenodd" d="M54.4761 74.2317C53.7539 68.6006 54.9652 63.4121 57.4891 63.4121C59.3791 63.4121 60.3125 66.5137 60.6129 71.0296L54.4761 74.2317Z" fill="black"/>
<path fill-rule="evenodd" clip-rule="evenodd" d="M59.5459 69.6058C59.3789 68.7115 58.8342 68.0933 58.3563 68.0933C57.4671 68.0933 56.6775 69.8818 56.5 72.5861C57.4888 72.1561 59.5347 71.2395 59.5347 71.2395L59.5459 69.6058Z" fill="white"/>
<path fill-rule="evenodd" clip-rule="evenodd" d="M69.9073 91.7101C73.4207 89.6894 75.4883 86.5312 75.4883 84.0151C77.1221 89.2818 74.8208 94.8451 72.064 94.8451C70.8961 94.8451 69.3844 93.9294 69.9073 91.7101Z" fill="#ED1C2E"/>
<path fill-rule="evenodd" clip-rule="evenodd" d="M29.5753 38.2173C29.8974 37.4993 30.0974 36.2629 28.6194 35.0926C27.4515 34.176 26.3181 34.2757 25.5952 34.7615L25.5398 34.7168C25.7068 34.2534 25.8619 33.3152 24.7277 32.421C24.016 31.8466 23.0376 31.4055 22.1155 31.8905C21.3155 32.851 20.5259 33.8338 19.7812 34.8493L27.4411 40.9328C28.119 40.005 28.8307 39.1108 29.5753 38.2173ZM24.2168 35.3135L23.9831 35.6223L22.4489 34.397L22.6826 34.0986C23.0264 33.6902 23.5043 33.8338 23.9164 34.1536C24.6506 34.7392 24.306 35.2027 24.2168 35.3135ZM25.8402 36.495C25.996 36.2964 26.3631 35.8544 27.1406 36.4838C27.9969 37.1571 27.5744 37.6541 27.4515 37.7865L27.1631 38.1511L25.5398 36.8707L25.8402 36.495Z" fill="white"/>
<path fill-rule="evenodd" clip-rule="evenodd" d="M32.3859 35.0366L30.0733 29.8921L33.7755 33.7228C34.2534 33.2816 34.7538 32.8508 35.2543 32.4312L28.4507 25.3984C27.9391 25.8404 27.4282 26.2815 26.9278 26.757L29.2178 31.825L25.5711 28.0493C25.1036 28.5024 24.6481 28.9771 24.2031 29.4405L30.9962 36.4734C31.4412 35.9979 31.9192 35.5233 32.3859 35.0366Z" fill="white"/>
<path fill-rule="evenodd" clip-rule="evenodd" d="M36.1552 31.6806C36.511 31.3934 36.8781 31.1062 37.2564 30.8414L34.8547 26.8783L38.1006 30.2016C38.5015 29.9248 38.9015 29.6384 39.2903 29.3728L37.2564 25.2102L40.1907 28.7992C40.569 28.5447 40.9803 28.291 41.3803 28.0485L41.8253 27.7398L41.8028 27.751L41.7811 27.6848L35.4893 20.2212C34.9109 20.5746 34.3326 20.9615 33.7655 21.3364L36.0772 26.0941L32.3863 22.3073C31.8192 22.7045 31.2746 23.113 30.7188 23.5326L35.6885 32.0117L36.1552 31.6806Z" fill="white"/>
<path fill-rule="evenodd" clip-rule="evenodd" d="M41.8231 27.7392L42.2898 27.507C42.701 27.2749 43.1123 27.0428 43.5348 26.833L41.7894 22.5491L44.4682 26.3471C44.9132 26.115 45.3357 25.9164 45.7799 25.7066L44.4345 21.2688L46.7583 25.2654C47.1695 25.0883 47.5808 24.9224 48.0033 24.7349L48.5479 24.4812L43.4673 16.0684C42.8448 16.3332 42.2111 16.6204 41.5885 16.9076L43.1228 21.9532L40.0768 17.6479C39.4431 17.9574 38.8543 18.2773 38.2422 18.6083L41.7773 27.6841L41.8231 27.7392Z" fill="white"/>
<path fill-rule="evenodd" clip-rule="evenodd" d="M55.1355 22.3737C55.9805 21.9317 56.7476 21.0159 56.2134 18.9953C55.5363 16.3675 53.8792 16.5 52.7787 16.7648L52.345 16.8757L51.9779 15.4294L54.6126 14.7449L54.0567 12.6357C52.5113 12.9556 50.977 13.3529 49.4766 13.806L51.9217 23.2456C52.9675 22.9145 54.0463 22.6273 55.1355 22.3737ZM53.2567 18.7081C53.4896 18.653 54.0013 18.5422 54.2575 19.5361C54.5242 20.5516 54.0238 20.6952 53.7788 20.7503L53.3788 20.85L52.8558 18.8182L53.2567 18.7081Z" fill="white"/>
<path fill-rule="evenodd" clip-rule="evenodd" d="M59.6379 21.6779L60.9601 16.1911L61.5497 21.4681C62.2051 21.413 62.8614 21.358 63.5064 21.3245L62.4172 11.6416C61.7392 11.6855 61.0717 11.7294 60.3938 11.7956L59.0933 17.2058L58.515 12.0054C57.8595 12.0931 57.2145 12.1928 56.5703 12.2926L57.6595 21.9754C58.315 21.8653 58.9817 21.7664 59.6379 21.6779Z" fill="white"/>
<path fill-rule="evenodd" clip-rule="evenodd" d="M64.5505 18.9953C64.4172 18.9953 64.1947 18.9618 64.0389 18.8956L63.9609 21.2361C64.0164 21.2697 64.0613 21.28 64.1055 21.3135C64.6839 21.28 65.2734 21.2697 65.851 21.2697C67.141 20.6953 67.2302 18.8621 67.2744 17.7253L67.3852 13.7837L68.219 13.8172L67.9973 21.3143C68.664 21.3367 69.3194 21.3805 69.9869 21.4356L70.2874 11.6977C68.8311 11.5876 67.386 11.5317 65.9185 11.5317C65.7634 11.5317 65.6076 11.5429 65.4518 11.5429L65.2967 16.843C65.2397 18.6308 65.0172 19.0169 64.5505 18.9953Z" fill="white"/>
<path fill-rule="evenodd" clip-rule="evenodd" d="M71.3311 19.2814C71.209 19.2479 70.9865 19.1817 70.8531 19.1155L70.4531 21.4233C70.5077 21.4568 70.5527 21.4672 70.5977 21.4895C71.1761 21.5446 71.7431 21.622 72.3094 21.6882C73.6886 21.3132 74.0332 19.4912 74.2107 18.376L74.8774 14.4894L75.7 14.633L74.4445 22.0304C75.1112 22.1517 75.7779 22.2841 76.4229 22.4388L78.0463 12.811C76.4671 12.4911 74.8774 12.2039 73.2653 11.9941L72.3649 17.2384C72.0653 18.995 71.7978 19.3476 71.3311 19.2814Z" fill="white"/>
<path fill-rule="evenodd" clip-rule="evenodd" d="M80.9027 23.5875C82.759 23.7311 83.3703 22.0742 83.5936 21.3132C83.8603 20.4628 84.4049 18.3759 81.8594 17.6029L81.4473 17.4593L82.559 13.8935C81.9261 13.706 81.2706 13.5289 80.6136 13.3638L77.7227 22.6597C78.8014 22.9477 79.8577 23.2564 80.9027 23.5875ZM81.2361 19.4919C81.6811 19.6355 81.9478 19.8677 81.6811 20.7284C81.4144 21.59 81.0361 21.6339 80.6136 21.5014L80.2352 21.3802L80.8578 19.3819L81.2361 19.4919Z" fill="white"/>
<path fill-rule="evenodd" clip-rule="evenodd" d="M98.2777 21.3571L91.5737 27.463L92.2525 26.193L91.63 25.8508L95.1313 19.3365C93.7867 18.5523 92.3971 17.8016 90.9737 17.1172L88.9832 20.7931C88.8499 21.058 88.6836 21.3452 88.5278 21.61C87.9936 22.4931 87.0827 23.531 86.404 23.089L84.5469 26.5001L86.159 27.2516L86.8602 25.9592C87.7824 26.4116 88.6836 26.8982 89.572 27.4055L88.8716 28.6867L90.4058 29.6137L91.1062 28.2998C91.6284 28.6317 92.1183 28.9507 92.6188 29.3049L93.8405 28.145L95.1972 29.1055L94.4968 30.6292C94.9851 31.0161 95.4856 31.3918 95.9635 31.7891L96.186 31.943L100.266 22.7691C99.6119 22.2737 98.9669 21.8102 98.2777 21.3571ZM89.8395 24.9126L88.5174 24.2058C89.4507 23.9075 89.9295 22.9917 90.4516 22.0193L91.5737 19.9324L92.3079 20.3193L89.8395 24.9126ZM96.0993 27.4079L95.1651 26.8009L97.9114 23.9522L96.0993 27.4079Z" fill="white"/>
<path fill-rule="evenodd" clip-rule="evenodd" d="M97.9566 33.6463L100.836 30.6548L102.048 31.8028L99.1687 34.7839C99.6466 35.2474 100.114 35.7332 100.57 36.219L107.34 29.1535C106.873 28.6565 106.407 28.1923 105.918 27.7288L103.394 30.3565L102.192 29.2189L104.705 26.58C104.216 26.1277 103.705 25.6858 103.192 25.2446L96.4336 32.3325C96.9453 32.7521 97.4561 33.1932 97.9566 33.6463Z" fill="white"/>
<path fill-rule="evenodd" clip-rule="evenodd" d="M102.503 38.3934L105.583 35.9531L106.628 37.2558L103.548 39.6961C103.949 40.2266 104.349 40.7674 104.738 41.3083L112.42 35.2248C112.02 34.6839 111.63 34.1542 111.207 33.6126L108.517 35.7545L107.483 34.4629L110.174 32.321C109.751 31.8129 109.306 31.3055 108.862 30.7974L101.18 36.8809C101.636 37.3779 102.07 37.8852 102.503 38.3934Z" fill="white"/>
<path fill-rule="evenodd" clip-rule="evenodd" d="M110.745 41.5181C111.412 41.0874 111.601 40.1931 111.156 39.531C110.723 38.8681 109.823 38.6918 109.155 39.1114C108.489 39.5533 108.31 40.4476 108.744 41.1097C109.188 41.7718 110.078 41.9601 110.745 41.5181Z" fill="white"/>
<path fill-rule="evenodd" clip-rule="evenodd" d="M47.0079 19.9996C46.7637 19.2377 47.175 18.432 47.93 18.1783C48.6971 17.9462 49.498 18.3546 49.7534 19.0941C49.9976 19.856 49.5863 20.6617 48.8192 20.9162C48.0642 21.1587 47.2416 20.7502 47.0079 19.9996Z" fill="white"/>
<path fill-rule="evenodd" clip-rule="evenodd" d="M20.7139 40.4475C20.4801 39.6745 20.8922 38.8569 21.636 38.6032C22.3919 38.3487 23.204 38.7795 23.4369 39.5309C23.6923 40.3143 23.2819 41.132 22.5365 41.3857C21.7814 41.6394 20.9581 41.2086 20.7139 40.4475Z" fill="white"/>
<path fill-rule="evenodd" clip-rule="evenodd" d="M84.828 20.0104C85.1614 19.2813 86.0168 18.9725 86.7518 19.2932C87.4739 19.6243 87.7969 20.4739 87.4739 21.2038C87.1285 21.921 86.2731 22.2416 85.5502 21.8994C84.828 21.5779 84.5059 20.7276 84.828 20.0104Z" fill="white"/>
<path fill-rule="evenodd" clip-rule="evenodd" d="M123.795 105.401C123.173 104.021 122.406 102.331 122.039 100.664C121.671 98.8298 121.638 96.9974 121.605 95.3629C121.583 94.1822 121.549 93.1332 121.383 92.3498C121.295 91.864 121.104 91.3886 120.671 90.8477C123.651 83.7822 125.185 76.1407 125.185 68.2471C125.185 64.3271 124.785 60.474 124.051 56.7207C124.529 55.8265 124.852 54.8101 124.852 53.6183C124.852 51.7301 123.795 50.0963 121.894 48.804C120.527 44.9175 118.748 41.1641 116.591 37.6422C117.157 37.2114 117.58 36.5931 117.724 35.8863C117.924 35.1357 117.78 34.3403 117.346 33.6894C111.987 25.6076 104.349 18.7846 95.2677 13.9926C86.1291 9.16791 75.9897 6.62793 65.9843 6.62793C55.9348 6.62793 45.8066 9.16791 36.6576 13.9926C27.5744 18.7846 19.9483 25.6076 14.5786 33.6894C14.1569 34.3411 14.0115 35.1357 14.2115 35.8863C14.3561 36.5931 14.7786 37.2114 15.3457 37.6422C13.189 41.1641 11.3993 44.8848 10.0314 48.749C8.21923 49.9855 7.10752 51.5977 7.10752 53.596C7.10752 54.7216 7.43043 55.627 7.90837 56.3338C7.10752 60.2204 6.71875 64.217 6.71875 68.2471C6.71875 76.1415 8.27545 83.8037 11.2322 90.8804C10.8876 91.3559 10.5985 92.0395 10.543 92.3498C10.376 93.1332 10.3543 94.1822 10.3543 95.3629C10.2876 96.9974 10.2651 98.8298 9.89802 100.664C9.52049 102.331 8.76383 104.02 8.13007 105.401C7.67462 106.416 7.28504 107.322 7.14126 108.016C6.94045 108.9 7.175 109.795 7.81921 110.589C8.53089 111.462 9.69801 112.191 11.2322 112.809C11.3431 113.625 11.3993 114.455 11.4322 115.271C11.4322 116.904 11.0539 118.539 10.7206 119.941C10.2651 121.919 9.7197 123.353 11.4322 125.053C13.9006 127.503 20.1154 129.105 27.2627 129.105C35.1563 129.105 44.7841 127.582 53.7219 125.836C57.6908 126.654 61.8155 127.074 65.9514 127.074C70.1195 127.074 74.2008 126.655 78.1809 125.836C89.5871 128.067 97.9915 129.083 104.639 129.083C113.922 129.083 121.604 126.433 121.671 122.59C121.671 121.774 121.438 120.736 121.215 119.499C120.871 117.853 120.504 115.999 120.504 114.165C120.504 113.802 120.559 113.349 120.648 112.841C122.205 112.223 123.394 111.461 124.106 110.588C124.762 109.794 124.984 108.9 124.818 108.016C124.652 107.322 124.251 106.417 123.795 105.401ZM113.378 101.194C110.799 100.63 107.819 100.322 104.64 100.322C102.984 100.322 101.261 100.376 99.4703 100.521C105.596 94.2389 109.742 86.4873 111.567 78.0848C111.844 77.5224 112.078 76.9041 112.334 76.2739C114.29 71.2291 115.935 66.0175 118.148 63.1576C119.593 61.2917 121.527 59.9116 122.939 58.2779C123.517 61.5462 123.828 64.8584 123.828 68.2479C123.829 80.1948 120.16 91.6103 113.378 101.194ZM87.297 97.4521C87.775 98.7987 88.1421 100.244 88.3421 101.791C87.6866 101.9 87.0087 101.989 86.3299 102.1C87.0416 100.665 87.4087 99.0516 87.297 97.4521ZM85.3291 90.8485C86.897 91.4452 88.5646 91.6989 90.0209 91.6989C96.6919 91.6989 103.473 90.5398 108.61 83.3522C106.231 89.9758 102.305 95.9277 97.3136 100.696C94.846 100.917 92.311 101.193 89.7325 101.591C89.1317 97.2527 87.3195 93.7299 85.3291 90.8485ZM75.0241 103.259C75.0571 102.84 75.4571 102.497 76.1126 102.464C77.8701 102.386 79.6589 100.918 79.5376 98.7436C79.5151 98.1031 78.8364 96.9655 78.7818 96.0712C78.7151 94.8236 80.0268 93.6206 81.8165 93.3661C83.8623 93.0781 85.5074 94.5691 85.8745 97.1083C86.6416 102.21 80.9377 107.508 76.8475 107.686C75.5687 107.74 74.6354 107.322 74.457 106.614C74.3791 106.184 74.5237 105.741 75.7133 105.035C76.3905 104.671 76.813 104.274 76.8467 104.041C75.9688 104.274 75.0016 104.021 75.0241 103.259ZM123.451 53.6191C123.451 57.2624 119.626 58.9847 117.07 62.308C114.968 65.057 113.579 69.2308 111.055 75.7666C106.397 87.8897 99.2157 90.3411 90.0209 90.3411C87.5195 90.3411 84.2511 89.525 82.6398 87.2172C81.4719 85.5499 81.361 83.3857 82.3281 80.7572C82.439 80.3926 82.2727 79.9953 81.8944 79.8845C81.561 79.7409 81.161 79.9188 81.0156 80.2833C79.3705 84.7873 81.0493 87.636 81.7273 88.4521C82.8061 89.7221 83.974 91.1915 84.9957 92.858C84.0511 92.1504 82.8952 91.8098 81.6156 92.0076C79.0589 92.3506 77.2476 94.1503 77.4146 96.1813C77.4692 96.8873 77.6926 97.5056 77.8926 98.0137C78.1817 98.7428 78.4042 99.4488 77.7592 100.211C77.2475 100.807 76.5037 101.083 76.0467 101.116C74.6908 101.172 73.6899 102.022 73.6345 103.169C73.6128 103.623 73.7566 104.042 74.0345 104.417C71.2224 104.98 68.4873 105.598 65.8189 106.163C60.1937 107.398 54.2014 108.668 48.3313 109.716C48.2975 109.716 48.2975 109.716 48.2758 109.684C48.2983 109.63 48.3313 109.573 48.3538 109.519C49.2654 106.526 51.333 104.528 53.3564 102.607C53.7781 102.21 54.1789 101.824 54.546 101.448L54.1789 104.329L54.0681 105.169L54.9131 105.036C56.7028 104.726 59.8491 103.843 61.895 101.537C64.3626 103.48 67.2647 104.528 70.3444 104.582H70.9444L70.9661 103.987C71.1115 101.767 70.4328 99.9889 69.6102 99.2502L69.0094 95.7274L68.8985 95.165L68.3427 95.2193C65.6189 95.3844 62.5842 96.2132 61.4725 97.4505L57.6707 96.092C57.7815 95.2193 57.6932 94.4359 57.6153 93.895C58.894 94.1814 60.2499 94.3138 61.6395 94.3138C64.3409 94.3138 66.9201 93.7283 69.1877 92.6793C69.2656 94.1264 70.4328 95.3621 72.134 95.3621C75.6579 95.3621 77.8926 89.0799 76.225 83.6378C76.1696 83.4384 75.8804 83.152 75.5695 83.152C75.225 83.152 74.8579 83.4384 74.8579 83.8356C74.8579 87.5563 69.7219 92.933 61.6395 92.933C57.5261 92.933 53.8127 91.6414 51.4784 89.3336C51.0109 88.8478 50.4446 88.1857 49.9329 87.2691C49.9996 87.2475 50.0775 87.2021 50.1442 87.1478C50.1884 86.7178 50.2446 86.453 50.6559 86.3078C51.0117 86.1881 51.2671 86.2312 51.6567 86.6612C52.0013 87.0585 52.2576 87.2691 52.7572 87.147L56.5373 86.6061L54.7701 85.8004L58.8948 85.0171L56.0931 84.1994L59.9953 83.4487L56.5373 82.6757L58.9165 81.7599L54.7364 80.6551C54.636 77.2878 54.391 76.0418 52.913 76.3282C52.3459 76.4606 51.6567 76.6257 50.9226 76.869C52.4455 75.6988 54.636 74.7933 57.2152 73.6566C58.2603 73.1708 59.372 72.6953 60.5616 72.1329C60.7953 72.022 60.9616 71.9119 60.9616 71.5362C61.3062 62.8138 59.9391 58.1662 56.9598 57.6804C54.236 57.2281 52.9026 60.8378 52.3017 64.4045C52.2463 60.2196 53.6914 57.118 56.1373 55.7371C56.9044 56.2118 57.8386 56.4654 58.8386 56.554C61.4178 56.6976 64.1417 55.4499 66.3538 53.1756C70.8561 51.9056 73.302 52.1816 74.3253 54.1026C73.8361 54.9194 73.4466 55.8249 73.1911 56.8077C73.1028 57.1722 73.3028 57.536 73.6691 57.6573C74.0361 57.7346 74.4032 57.536 74.5253 57.1714C75.6812 52.7775 79.4838 50.3261 85.5644 51.2539C90.5341 52.0157 94.4805 51.707 97.2823 50.2934C102.307 47.7869 108.922 46.6278 113.747 47.3896C118.458 48.1315 123.451 50.1522 123.451 53.6191ZM49.8317 104.242C48.6646 105.599 47.6533 107.145 47.0195 109.121V109.154C34.0237 103.204 24.3742 91.3559 21.5388 77.0685C25.3968 85.2955 30.9328 92.4934 42.5944 92.4934C42.9615 92.4934 43.3286 92.4934 43.6732 92.4607C43.6515 92.515 43.6515 92.5716 43.6515 92.6258C42.9944 96.2922 45.5737 101.935 49.8317 104.242ZM56.0802 98.9191L55.5131 96.6895L61.5279 98.7756L62.095 98.9965L62.3287 98.4325C62.5842 97.7919 64.7971 96.7996 67.8535 96.522L68.3989 99.7017L68.4535 99.9881L68.6873 100.122C69.0656 100.374 69.6881 101.512 69.7219 103.279C66.9531 103.114 64.4517 102.076 62.2058 100.188L61.6942 99.7344L61.3054 100.266C59.8266 102.298 57.3036 103.203 55.5364 103.622L56.081 99.1393L56.1027 99.0284L56.0802 98.9191ZM56.3019 95.6181L54.8569 95.11L53.7564 94.7127L54.0344 95.8391L54.0898 96.0154C53.301 96.1263 52.5885 96.0385 52.0447 95.2552C51.6776 94.7454 51.5113 94.0402 51.6222 93.5863C52.023 92.0403 51.1667 90.7942 49.9771 90.7161C49.5763 90.7161 49.1763 90.7703 48.8429 90.937C49.3771 90.6267 49.8317 90.2861 50.1771 89.9542C51.0551 90.9155 52.868 92.5157 56.1027 93.4986C56.3019 94.2939 56.3582 94.9664 56.3019 95.6181ZM49.8872 92.0969C50.288 92.2078 50.4318 92.7152 50.288 93.2449C50.0655 94.0937 50.3209 95.1985 50.9105 96.0385C51.933 97.5064 53.2448 97.5391 54.4014 97.3628L54.8352 99.0843C54.146 99.9347 53.3235 100.752 52.3893 101.624C51.8776 102.132 51.333 102.64 50.7997 103.204C46.8525 101.259 44.4403 95.9604 45.0074 92.8803C45.2082 91.7539 45.6853 90.7942 46.5416 90.7942C47.0758 90.827 47.6533 91.103 47.8429 92.4615C47.8429 92.4615 47.965 93.4427 48.2983 94.1288C48.4758 93.1675 49.0429 91.8425 49.8872 92.0969ZM70.6328 91.8975C72.5333 90.7711 74.3237 89.1038 75.4025 86.9954C75.5687 90.7703 73.8683 93.9836 72.134 93.9836C71.1661 93.9836 70.3436 93.3326 70.6328 91.8975ZM56.7582 59.0397C58.8041 59.3492 59.8266 63.7431 59.5929 71.0623C58.5478 71.5378 54.1789 73.493 53.1002 74.0227C52.8447 67.0003 54.0898 58.6424 56.7582 59.0397ZM67.0639 39.3326C67.031 38.9345 66.6968 38.6808 66.3297 38.6808C65.9851 38.7143 65.696 39.023 65.696 39.4203C65.7843 40.944 64.4839 42.6001 62.5496 43.3619C60.1929 44.3224 57.7245 43.6714 55.9903 41.6723C55.8232 41.4729 55.5123 41.3851 55.2232 41.4729C54.9677 41.5838 54.8015 41.8374 54.8015 42.1246C55.0015 47.0817 51.6214 49.7645 47.4533 49.7645C43.2178 49.7645 39.726 46.2648 39.726 41.5838C39.726 33.6671 45.1512 28.422 53.8119 27.8596C54.0006 27.8596 54.2006 27.7487 54.3227 27.5724C56.5574 24.5585 59.9375 22.8354 63.573 22.7804C66.6414 22.7589 69.4094 23.9068 70.999 25.9378C71.1991 26.1915 71.5661 26.3024 71.8545 26.17C76.5905 24.0273 82.749 27.1751 82.749 33.49C82.749 36.0842 81.0485 39.0214 78.748 40.3465C78.5255 40.4901 78.4026 40.7661 78.4356 41.0533C78.8581 43.6698 77.8355 47.8436 74.4008 48.8591C73.3004 44.5417 72.1332 39.1658 73.4666 38.2269C73.6337 38.1168 73.7558 37.9174 73.7558 37.7187C73.7558 37.5528 73.6891 37.3326 73.5558 37.189C72.077 35.7204 69.8649 35.4109 68.7636 35.5545C68.3973 35.6095 68.1419 35.9741 68.1756 36.3387C68.1973 36.7144 68.5973 36.9569 68.954 36.9019C69.554 36.8245 70.9436 36.9569 72.0778 37.7514C71.1991 39.165 71.4224 41.8701 72.1662 45.3921C72.0216 45.3036 71.8778 45.2485 71.7107 45.1927C69.354 44.4093 66.1522 45.8668 63.373 47.3896C63.2838 47.4447 63.1721 47.5667 63.1167 47.6433C61.7825 49.9623 59.715 51.6184 57.5028 52.1593C56.0802 52.5238 54.746 52.413 53.7781 51.8171C53.011 51.3089 52.0222 50.8566 50.8543 50.5479C53.411 49.6424 55.7348 47.6433 56.1349 43.669C58.4032 45.4799 61.1263 45.4137 63.0613 44.6295C65.5626 43.6491 67.2077 41.441 67.0639 39.3326ZM43.8395 50.3843C40.0706 50.4952 37.8809 49.5675 35.4125 48.5184C33.145 47.5356 30.6428 46.4651 26.6185 45.9904C26.7856 45.6482 26.9856 45.3387 27.1856 44.9964L29.5649 46.4651L29.932 45.8684C32.4333 41.8941 35.7242 38.2277 39.6152 35.1588C38.7926 37.0462 38.3701 39.1882 38.3701 41.5845C38.3701 46.122 41.0377 49.1143 43.8395 50.3843ZM83.4286 29.7486C91.3213 33.3256 97.7369 39.1331 102.027 45.8684L102.394 46.4651L104.752 44.9964L104.83 45.14C105.063 45.5046 105.263 45.8692 105.485 46.2441C102.417 46.7738 99.3258 47.7343 96.6581 49.0593C94.1343 50.3293 90.388 50.6053 85.7853 49.8985C81.3273 49.2252 77.7255 50.2407 75.425 52.6698C75.425 52.6698 74.9133 50.7489 74.78 50.1857C78.8043 49.0051 80.1714 44.434 79.8605 41.2758C82.3506 39.6421 84.1403 36.4288 84.1403 33.4924C84.1403 32.1115 83.884 30.875 83.4286 29.7486ZM57.8361 53.5082C60.36 52.89 62.6613 51.0576 64.1955 48.5184C66.5522 47.2269 69.4319 45.9019 71.2553 46.4978C71.7886 46.6637 72.3003 47.061 72.6778 47.5907C72.9895 48.8607 73.3566 50.2184 73.7237 51.6208C71.5991 50.5271 68.509 51.1127 65.8189 51.8745C65.6743 51.9072 65.5634 51.9846 65.4743 52.0731C63.5175 54.1935 61.1271 55.3191 58.9149 55.1755C57.6369 55.1205 56.5911 54.5796 55.8802 53.7404C56.5582 53.7954 57.3028 53.6518 57.8361 53.5082ZM106.452 45.1392C106.797 45.4488 107.186 45.7359 107.619 45.9561C107.386 45.9561 107.164 45.9896 106.931 46.012C106.764 45.7359 106.597 45.4161 106.452 45.1392ZM120.049 47.7566C118.404 46.9948 116.358 46.41 113.979 46.0447C113.69 45.9896 113.378 45.9234 113.067 45.9011C113.179 45.846 113.289 45.7902 113.412 45.7016C115.991 44.0894 116.503 41.2192 115.935 39.2209C117.547 41.9491 118.915 44.797 120.049 47.7566ZM15.7465 34.452C25.6185 19.5137 44.4066 7.98647 65.9851 7.98647C86.697 7.98647 105.908 18.8955 116.192 34.452C116.613 35.0703 116.525 36.0858 115.646 36.6274C115.625 36.6274 113.722 37.8416 113.722 37.8416L114.09 38.4271L114.111 38.4598C115.257 40.2595 115 43.1082 112.666 44.5433C110.565 45.846 107.819 45.1943 106.507 43.1417L106.14 42.5123L102.816 44.5768C98.1353 37.4451 91.0643 31.2946 82.2928 27.8061C79.969 24.6152 75.7125 23.1801 71.7654 24.7037C69.8649 22.5834 66.8406 21.3804 63.5384 21.4019C59.5696 21.457 55.8786 23.3229 53.4102 26.5026C48.2967 26.8672 44.1278 28.844 41.4819 32.0891C36.4343 35.4675 32.2317 39.8072 29.1416 44.576L25.7952 42.5115L25.4169 43.1409C24.1164 45.1943 21.3588 45.846 19.2583 44.5425C16.9345 43.1074 16.6791 40.2587 17.8462 38.4263L18.235 37.8408L16.3112 36.6266C15.4573 36.1193 15.3465 35.0703 15.7465 34.452ZM25.5076 45.1392C25.3631 45.3594 25.2185 45.6139 25.0851 45.846C24.9068 45.846 24.7405 45.8125 24.5397 45.8125C24.8851 45.6147 25.196 45.3937 25.5076 45.1392ZM16.0019 39.244C15.4903 41.0213 15.8011 44.0136 18.5258 45.7024C18.6374 45.791 18.7483 45.846 18.8591 45.9234C16.3136 46.1771 13.8677 46.8065 11.878 47.7008C13.0227 44.7755 14.3794 41.9491 16.0019 39.244ZM22.1059 47.1384C28.7094 47.1384 31.9778 48.5511 34.88 49.7653C37.8038 51.0353 40.5493 52.2167 45.8862 51.5985C48.6983 51.289 52.668 51.8195 54.6577 54.4137C54.7685 54.5573 54.8914 54.7009 55.0023 54.8333C50.578 57.7921 50.5996 64.8911 50.7105 75.3797C49.5217 76.163 48.5867 77.0358 47.9867 78.1294C46.3304 79.0564 44.9962 80.3376 45.0074 81.9482C45.0074 82.8425 45.1624 84.1467 45.4741 85.1734C45.9078 86.6085 47.2645 87.1271 48.3538 87.2595C48.6317 87.8219 48.9425 88.3532 49.2984 88.8829C48.9538 89.2474 48.4758 89.6104 47.8758 89.9207C47.5312 89.6447 47.1416 89.4453 46.5753 89.4453C45.5745 89.4453 44.7295 90.0308 44.1849 91.0248C43.6732 91.1014 43.1398 91.1341 42.5952 91.1341C28.3985 91.1341 23.8071 79.6292 19.5716 68.8646C17.1594 62.671 14.9802 59.6237 11.5447 57.5703C9.81047 56.5548 8.51 55.5935 8.51 53.596C8.5092 50.0748 14.2123 47.1384 22.1059 47.1384ZM8.07544 68.2479C8.07544 64.6382 8.42004 61.0715 9.0771 57.5719C9.66588 58.0465 10.2884 58.4215 10.8338 58.7533C13.9802 60.6192 16.0035 63.4895 18.2936 69.3408C18.6712 70.3021 19.0607 71.2618 19.4383 72.2454C20.3724 83.0977 25.0859 93.2233 32.9458 101.029C36.7813 104.804 41.1502 107.885 45.8862 110.103C39.6714 111.153 33.6791 111.859 28.3769 111.97C27.2427 110.976 26.131 109.971 25.053 108.9C14.1239 98.0145 8.07544 83.5835 8.07544 68.2479ZM10.2322 106.814C10.2322 107.598 10.4659 108.725 10.6884 109.938C10.7776 110.357 10.8555 110.789 10.9439 111.208C10.0322 110.757 9.33173 110.281 8.89878 109.74C8.53169 109.265 8.38711 108.779 8.47627 108.304C8.58712 107.763 9.00963 106.924 9.40965 105.963C10.0322 104.55 10.8547 102.751 11.233 100.94C11.6555 98.9965 11.711 96.9982 11.711 95.3852C11.711 95.3852 11.711 95.3309 11.711 95.3086C12.3664 95.9269 13.0781 96.3241 14.1569 96.8323C15.0573 98.4668 16.0574 100.045 17.1024 101.569C12.7335 102.773 10.2322 104.672 10.2322 106.814ZM17.9812 102.773C19.8045 105.258 21.8496 107.653 24.0618 109.85C24.796 110.59 25.5406 111.262 26.2964 111.97C17.047 111.772 11.6218 108.979 11.6218 106.836C11.6226 105.345 14.1786 103.767 17.9812 102.773ZM27.2635 127.725C20.5708 127.725 14.6011 126.257 12.3889 124.06C11.911 123.585 11.6547 123.078 11.6547 122.591C11.6547 122.061 11.8556 121.211 12.0548 120.262C12.3889 118.849 12.8219 117.071 12.7889 115.237C12.7889 113.35 12.4218 111.429 12.0772 109.849C14.9232 111.992 20.7042 113.317 27.2635 113.317C38.5364 113.317 53.2118 110.335 66.096 107.509C68.3636 107.001 70.7091 106.504 73.1004 105.997C73.0449 106.307 73.0449 106.582 73.122 106.925C73.4441 108.328 74.8892 109.155 76.9022 109.066C79.826 108.923 83.3161 106.726 85.452 103.657C92.2885 102.498 98.9249 101.703 104.64 101.703C111.333 101.703 117.291 103.171 119.516 105.346C119.994 105.854 120.249 106.328 120.249 106.837C120.249 108.304 119.904 109.795 119.593 111.12C119.338 112.302 119.115 113.318 119.115 114.167C119.115 116.055 119.516 117.999 119.826 119.555C116.98 117.436 111.189 116.088 104.641 116.088C92.8901 116.088 77.2138 119.467 65.8189 121.919C54.4569 124.369 38.8818 127.725 27.2635 127.725ZM65.9522 125.728C63.095 125.728 60.2266 125.496 57.4144 125.109C60.4829 124.491 63.4621 123.862 66.0968 123.275C74.457 121.465 85.1291 119.158 94.8123 118.087C86.1299 123.043 76.2467 125.728 65.9522 125.728ZM104.64 127.725C98.7595 127.725 91.1213 126.798 81.5281 125.053C87.3533 123.474 92.8901 121.013 97.9924 117.777C100.294 117.579 102.539 117.468 104.64 117.468C113.49 117.468 120.271 120.03 120.271 122.591C120.271 125.164 113.289 127.725 104.64 127.725ZM123.028 109.74C122.606 110.281 121.928 110.756 121.016 111.208C121.328 109.85 121.638 108.36 121.638 106.837C121.638 105.964 121.238 105.148 120.471 104.386C119.315 103.227 117.325 102.276 114.801 101.571C115.846 100.047 116.846 98.4684 117.747 96.8562C118.936 96.3481 119.76 95.7298 120.215 95.3102C120.215 95.3317 120.215 95.3868 120.215 95.3868C120.248 96.999 120.27 99.0308 120.704 100.941C121.104 102.752 121.893 104.551 122.516 105.965C122.938 106.926 123.338 107.764 123.45 108.305C123.573 108.779 123.428 109.265 123.028 109.74Z" fill="black"/>
<path fill-rule="evenodd" clip-rule="evenodd" d="M50.3651 79.8843C51.1876 79.9513 51.8768 80.1508 52.2993 80.8344C52.811 81.6728 52.0881 82.2368 51.8543 82.3693C51.6318 82.5129 50.9097 82.8104 50.4093 81.9265C49.9313 81.0211 49.4422 80.8887 48.9755 80.7674C48.508 80.635 48.2196 80.5241 48.2526 80.205C48.2855 79.641 49.4759 79.8077 50.3651 79.8843Z" fill="white"/>
<path fill-rule="evenodd" clip-rule="evenodd" d="M19.4035 122.756C19.4035 123.618 19.4148 124.314 19.8919 125.031V125.085L16.813 124.391V124.336C17.3801 123.993 17.3022 123.11 17.3022 122.304V116.077C17.1014 115.966 16.9239 115.933 16.7351 115.877C16.201 115.766 15.8797 115.866 15.4339 116.165L15.3672 116.219L15.8122 113.979L16.0234 114.055L16.9681 114.354L17.8798 114.596L18.9473 114.839L19.9369 115.028L21.304 115.249L20.9153 117.457C20.7377 116.904 20.3931 116.673 19.9811 116.584C19.7698 116.54 19.5923 116.517 19.4035 116.54V122.756Z" fill="#ED1C2E"/>
<path fill-rule="evenodd" clip-rule="evenodd" d="M25.0693 115.194C27.4477 115.293 29.2165 117.237 29.2165 120.593C29.2165 123.916 27.238 125.783 24.9359 125.683C22.6121 125.572 20.8008 123.475 20.8008 120.239C20.8 116.982 22.7679 115.094 25.0693 115.194ZM23.5351 122.779C23.8572 123.529 24.4243 124.137 25.0693 124.159C25.6805 124.193 26.2139 123.794 26.581 123.153C26.9256 122.558 26.9923 121.774 26.9923 121.035C26.9923 119.3 26.4806 116.784 24.9351 116.717C23.5897 116.663 23.0113 118.352 23.0113 119.93C23.0121 120.824 23.2242 122.006 23.5351 122.779Z" fill="#ED1C2E"/>
<path fill-rule="evenodd" clip-rule="evenodd" d="M29.0625 127.284C29.5075 126.732 29.93 126.124 30.085 125.418C29.5404 125.418 29.1179 124.844 29.1179 124.126C29.1179 123.332 29.6184 122.713 30.1959 122.713C30.8409 122.713 31.2634 123.408 31.2634 124.248C31.2634 125.043 30.8521 126.048 30.4851 126.633C30.1846 127.152 30.0842 127.328 29.5846 127.328L29.0625 127.284Z" fill="#ED1C2E"/>
<path fill-rule="evenodd" clip-rule="evenodd" d="M42.3563 122.161C42.3563 123.042 42.3676 123.717 42.8568 124.269V124.315L41.3675 124.545L39.7891 124.745V124.689C40.345 124.138 40.2558 123.276 40.2558 122.492V116.342C40.0783 116.321 39.9 116.342 39.6887 116.375C39.1658 116.442 38.8437 116.652 38.4099 117.115L38.332 117.204L38.7995 114.708L38.9995 114.807L39.8558 114.719L41.2229 114.542L43.0688 114.278L44.2576 114.057L43.8801 116.431C43.7018 115.935 43.358 115.824 42.9459 115.879C42.7451 115.913 42.5571 115.946 42.3563 116.067V122.161Z" fill="#ED1C2E"/>
<path fill-rule="evenodd" clip-rule="evenodd" d="M48.3873 113.162C50.7778 112.732 52.5224 114.277 52.5224 117.644C52.5224 120.968 50.5657 123.253 48.2419 123.683C45.9181 124.093 44.1172 122.38 44.1172 119.157C44.118 115.911 46.0747 113.572 48.3873 113.162ZM46.8531 121.089C47.1639 121.762 47.7423 122.237 48.3873 122.127C48.9881 122.016 49.5432 121.51 49.899 120.791C50.2332 120.118 50.3215 119.322 50.3215 118.573C50.3215 116.827 49.8098 114.432 48.2427 114.718C46.9085 114.95 46.3197 116.784 46.3197 118.352C46.3197 119.235 46.531 120.384 46.8531 121.089Z" fill="#ED1C2E"/>
<path fill-rule="evenodd" clip-rule="evenodd" d="M58.7144 119.235C58.7144 120.096 58.7257 120.781 59.2148 121.288V121.343L56.136 121.983V121.929C56.6806 121.343 56.6139 120.494 56.6139 119.698V113.548C56.4139 113.537 56.2468 113.571 56.0468 113.615C55.5247 113.726 55.1914 113.945 54.7576 114.444L54.6797 114.542L55.1247 112.091H55.3359L60.6061 110.998L60.2173 113.383C60.0502 112.907 59.6944 112.82 59.2944 112.907C59.0831 112.953 58.8943 113.007 58.716 113.118V119.235H58.7144Z" fill="#ED1C2E"/>
<path fill-rule="evenodd" clip-rule="evenodd" d="M63.2268 118.948C64.1048 118.716 64.3939 117.801 64.3939 116.706C64.3939 115.691 63.9931 114.972 63.2822 114.718C63.4268 114.664 63.5602 114.641 63.6935 114.609C65.1169 114.298 66.4615 114.839 66.4615 117.004C66.4615 118.053 66.0727 119.014 65.394 119.632C64.8269 120.14 64.0043 120.294 63.3706 120.427L60.6797 121.023V120.978C61.2355 120.394 61.1689 119.532 61.1689 118.737V113.063C61.1689 112.267 61.2355 111.384 60.6797 111.031V110.975L63.7256 110.313V110.357C63.2252 111.075 63.2252 111.759 63.2252 112.632V118.948H63.2268Z" fill="#ED1C2E"/>
<path fill-rule="evenodd" clip-rule="evenodd" d="M69.2042 117.003C69.2042 117.799 69.1159 118.67 69.6717 119.024V119.069L66.625 119.743V119.697C67.1809 119.091 67.1142 118.262 67.1142 117.467V111.782C67.1142 110.975 67.1809 110.081 66.625 109.727V109.694L69.6717 109.011V109.065C69.1159 109.662 69.2042 110.523 69.2042 111.307V117.003Z" fill="#ED1C2E"/>
<path fill-rule="evenodd" clip-rule="evenodd" d="M79.3822 107.885L77.4255 112.037L78.8705 114.95C79.2264 115.658 79.6047 116.452 80.1493 116.904V116.938V116.949L77.4255 117.468V117.435L75.8021 113.891L74.8687 116.034C74.7571 116.331 74.6133 116.641 74.6133 116.982C74.6133 117.368 74.7249 117.755 74.9579 117.92V117.976L72.4453 118.506V118.462L75.1362 112.675L73.7249 109.672C73.4687 109.11 73.2357 108.679 72.8124 108.402V108.37L74.3466 108.04L75.8029 108.635L76.7821 110.788L77.3492 109.496C77.4938 109.186 77.6825 108.734 77.7267 108.37L79.3822 107.885Z" fill="#ED1C2E"/>
<path fill-rule="evenodd" clip-rule="evenodd" d="M83.5575 106.052C85.9368 105.632 87.6822 107.179 87.6822 110.535C87.6822 113.88 85.7255 116.166 83.4138 116.574C81.09 116.982 79.2891 115.271 79.2891 112.059C79.2883 108.801 81.2562 106.461 83.5575 106.052ZM82.0233 113.979C82.335 114.653 82.9021 115.127 83.5575 115.017C84.1688 114.906 84.703 114.399 85.0693 113.68C85.4147 113.018 85.4813 112.213 85.4813 111.462C85.4813 109.728 84.9697 107.333 83.4138 107.609C82.0796 107.841 81.4795 109.673 81.4795 111.251C81.4787 112.124 81.7117 113.273 82.0233 113.979Z" fill="#ED1C2E"/>
<path fill-rule="evenodd" clip-rule="evenodd" d="M97.6891 112.71C98.0674 112.875 98.4779 112.864 98.8787 112.831C99.5237 112.775 100.113 112.599 100.536 111.859L100.602 111.848L100.146 114.2L97.7003 114.365L95.1211 114.609V114.563C95.6769 114.045 95.5886 113.206 95.5886 112.399V106.714C95.5886 105.93 95.6769 105.035 95.1211 104.627V104.582L97.4449 104.363L99.0908 104.241C99.2691 104.22 99.4458 104.153 99.5575 103.998H99.6024V106.339H99.5575C99.2691 105.644 98.6128 105.776 98.057 105.82L97.6899 105.842V108.327L98.7574 108.238C98.9124 108.227 99.0683 108.194 99.1687 108.127L99.2241 108.116V110.259H99.1687C99.0137 109.662 98.4795 109.762 98.0682 109.806L97.6899 109.827L97.6891 112.71Z" fill="#ED1C2E"/>
<path fill-rule="evenodd" clip-rule="evenodd" d="M113.211 113.461C114.111 113.572 114.389 112.765 114.389 111.683C114.389 110.645 114 109.773 113.288 109.254C113.433 109.243 113.555 109.265 113.7 109.298C115.123 109.552 116.48 110.635 116.48 112.81C116.48 113.847 116.101 114.653 115.401 114.995C114.834 115.271 114.011 115.106 113.377 114.995L112.11 114.718L110.688 114.487V114.443C111.243 114.056 111.177 113.172 111.177 112.377V106.736C111.177 105.941 111.243 105.079 110.688 104.506V104.46L112.121 104.704L113.722 105.014V105.058C113.233 105.576 113.211 106.261 113.211 107.122V113.461Z" fill="#ED1C2E"/>
<path fill-rule="evenodd" clip-rule="evenodd" d="M110.384 104.451V104.407L108.772 104.253L107.338 104.109V104.153C107.894 104.629 107.816 105.489 107.816 106.296C107.816 106.296 107.816 112.424 107.816 112.632L106.504 112.556C106.504 112.356 106.516 106.261 106.516 106.261C106.516 105.477 106.427 104.605 106.982 104.12V104.085L104.604 104.009H103.936V104.053C104.482 104.528 104.415 105.411 104.415 106.195C104.415 106.195 104.415 112.301 104.415 112.51L103.092 112.545C103.092 112.324 103.114 106.228 103.114 106.228C103.114 105.422 103.026 104.55 103.581 104.085V104.041L100.523 104.141V104.174C101.079 104.649 101.013 105.521 101.013 106.327V112.012C101.013 112.809 101.079 113.67 100.523 114.133V114.177L102.603 114.088L104.604 114.055L107.128 114.134L108.985 114.277L110.385 114.455V114.399C109.84 113.935 109.918 113.075 109.918 112.289V106.593C109.917 105.788 109.84 104.926 110.384 104.451Z" fill="#ED1C2E"/>
<path fill-rule="evenodd" clip-rule="evenodd" d="M94.6539 104.683V104.65L91.608 105.014L91.5967 105.026V105.07C92.0522 105.367 92.0851 106.34 92.0851 107.145V107.688C92.0851 108.659 91.8072 109.763 90.9734 109.873C90.6851 109.917 90.4063 109.795 90.24 109.509C89.9613 109.045 89.9951 108.45 89.9951 107.863V107.422C89.9951 106.637 89.9059 105.776 90.4617 105.223V105.18L87.4375 105.644V105.688C88.0046 106.085 87.9267 106.968 87.9267 107.763V108.79C87.9267 109.717 87.9484 110.469 88.46 111.098C88.905 111.651 89.4938 111.816 90.1059 111.739C90.9389 111.628 91.7839 110.944 92.0843 110.06V112.832C92.0843 113.627 92.1518 114.467 91.5959 115.018V115.062L94.6531 114.697V114.653C94.0973 114.256 94.1639 113.373 94.1639 112.578V106.903C94.1647 106.096 94.0981 105.234 94.6539 104.683Z" fill="#ED1C2E"/>
<path fill-rule="evenodd" clip-rule="evenodd" d="M38.2994 114.961V114.917L35.2752 115.215H35.2639V115.26C35.8198 115.679 35.7306 116.574 35.7306 117.358V117.822C35.7306 118.782 35.4752 119.865 34.6414 119.941C34.3522 119.964 34.0743 119.83 33.8968 119.544C33.6188 119.07 33.6413 118.473 33.6413 117.876V117.568C33.6413 116.784 33.5634 115.911 34.1297 115.382V115.347L31.1055 115.536V115.58C31.6613 116.011 31.573 116.882 31.573 117.69V118.716C31.573 119.643 31.6171 120.395 32.1063 121.034C32.5513 121.618 33.1626 121.818 33.7739 121.751C34.5964 121.685 35.3635 121.089 35.7306 120.172V123.054C35.7306 123.838 35.8198 124.698 35.2639 125.23V125.262L38.2986 124.942V124.898C37.7427 124.479 37.8319 123.606 37.8319 122.801V117.146C37.8327 116.353 37.7436 115.48 38.2994 114.961Z" fill="#ED1C2E"/>
<path fill-rule="evenodd" clip-rule="evenodd" d="M29.2609 112.875C29.1051 112.754 28.9605 112.622 28.8047 112.5L29.2609 112.875Z" fill="#ED1C2E"/>
</g>
<defs>
<clipPath id="clip0_936_1419">
<rect width="132" height="136" fill="white"/>
</clipPath>
</defs>
</svg>
