<svg width="102" height="46" viewBox="0 0 102 46" fill="none" xmlns="http://www.w3.org/2000/svg">
<g clip-path="url(#clip0_1115_2125)">
<path d="M3.71638 35.0139C19.7834 41.6461 37.7316 45.5878 55.1429 44.8474C70.2577 44.206 85.3725 40.0806 99.2631 34.295C100.628 33.7258 101.277 32.7568 101.209 31.3878C101.184 30.8588 101.172 30.5905 101.172 30.5829C101.169 24.825 101.169 19.0662 101.173 13.3064C101.175 11.4195 101.332 10.1941 99.648 9.38624C98.02 8.60421 95.9565 7.86809 94.0377 7.25395C88.121 5.36272 82.0297 3.92637 75.7639 2.94489C58.3747 0.219499 41.0454 0.350556 23.7759 3.33806C16.6548 4.57065 9.31804 6.34564 2.63251 9.07055C1.17963 9.66318 0.777344 10.7064 0.777344 12.2202C0.779273 18.5951 0.779756 24.9714 0.778791 31.3491C0.777344 33.7225 1.53562 34.1142 3.71638 35.0139Z" stroke="#8597C0" stroke-width="2"/>
<path d="M23.0718 19.4771C22.3473 21.9001 21.8302 24.3711 21.5205 26.8898C21.5147 26.9329 21.534 26.9549 21.5784 26.9558L24.6679 27.0032C24.7121 27.0038 24.7549 26.9882 24.7881 26.9593C24.8212 26.9304 24.8424 26.8903 24.8474 26.8468L25.1875 23.7904C25.1961 23.7081 25.2424 23.667 25.3264 23.667H32.0814C32.1047 23.6671 32.1273 23.6754 32.1448 23.6904C32.1623 23.7055 32.1737 23.7262 32.1769 23.7488L32.323 24.7819" stroke="#8597C0" stroke-width="2"/>
<path d="M32.3231 24.7812C32.2894 24.8253 32.2064 24.8372 32.0742 24.8171" stroke="#063F91" stroke-width="2"/>
<path d="M32.0716 24.8175C31.7691 24.7113 31.5231 24.5894 31.1889 24.6009C29.8054 24.6496 28.2904 24.773 26.9113 24.9495C26.848 24.9578 26.7901 24.9896 26.7492 25.0385C26.4318 25.4164 26.2533 25.8545 26.2138 26.3529C26.2128 26.3691 26.2065 26.3821 26.195 26.3916C26.167 26.4146 26.1434 26.4447 26.1241 26.482C26.1096 26.5098 26.0995 26.5389 26.0937 26.5696C26.0445 26.8652 25.9745 27.1545 25.8838 27.4377C25.6509 28.1681 24.7956 28.4019 24.6509 29.1926C24.5921 29.5102 24.5699 29.8283 24.5844 30.1468C24.5873 30.2109 24.6032 30.2583 24.6321 30.2889C24.6726 30.3319 24.7214 30.3439 24.7783 30.3247C24.8188 30.3113 24.8453 30.3252 24.8579 30.3664L25.1835 31.4727" stroke="#074798" stroke-width="2"/>
<path d="M25.187 31.4722C24.1508 31.0532 23.1673 30.65 22.2363 30.2626C21.8181 30.089 20.8168 29.9799 20.769 30.584C20.7212 31.1795 21.8862 32.3202 22.313 32.6302C29.1013 37.5591 37.438 40.9168 45.983 41.5611C46.7051 41.6156 47.3332 41.7333 48.0885 41.7204C50.168 41.686 53.0419 41.8266 55.4484 41.6214C64.2684 40.8724 72.2809 37.7428 79.4512 32.6431C79.9268 32.3054 80.3296 31.896 80.6595 31.4148C80.8361 31.1575 80.935 30.8605 80.9562 30.5237C80.9618 30.4284 80.9298 30.3346 80.8668 30.2622C80.8039 30.1899 80.715 30.1447 80.619 30.1363C79.538 30.0387 78.4976 30.7289 77.2994 31.1723" stroke="#722C43" stroke-width="2"/>
<path d="M77.2943 31.1727L77.5779 30.9302C77.6098 30.9025 77.646 30.8853 77.6865 30.8786C77.836 30.8527 77.959 30.7791 78.0555 30.6576C78.0864 30.6193 78.1259 30.6002 78.1741 30.6002C78.4968 30.5959 79.0033 30.207 79.4736 30.0592C79.518 30.0449 79.5484 30.0162 79.5648 29.9731L79.8137 29.3317C79.8146 29.3293 79.8149 29.3267 79.8146 29.3241C79.8143 29.3215 79.8135 29.319 79.8121 29.3168C79.8107 29.3146 79.8088 29.3127 79.8066 29.3113C79.8044 29.3099 79.8018 29.3091 79.7992 29.3088C79.7867 29.3078 79.7732 29.3078 79.7587 29.3088C79.7259 29.3116 79.71 29.2963 79.7109 29.2629L79.7269 28.6975C79.7288 28.6487 79.7167 28.6033 79.6907 28.5612C79.3738 28.0503 78.7515 27.9427 78.1249 27.8739C78.0777 27.8681 78.0372 27.849 78.0034 27.8165C77.851 27.672 77.6715 27.6017 77.4651 27.6055C77.4082 27.6074 77.3758 27.5802 77.3681 27.5237L77.3609 27.4721C77.359 27.4582 77.3542 27.4448 77.3469 27.4329C77.3396 27.4209 77.3299 27.4105 77.3183 27.4024C77.3068 27.3944 77.2937 27.3887 77.2798 27.3859C77.266 27.3831 77.2517 27.3831 77.2379 27.386C76.8838 27.4577 76.7256 27.3133 76.7632 26.9526" stroke="#074798" stroke-width="2"/>
<path d="M76.7656 26.9524L79.6222 26.9553C79.6714 26.9553 79.6955 26.9314 79.6945 26.8835L79.683 12.1412C79.683 12.0943 79.6593 12.0709 79.612 12.0709L77.6469 12.0508" stroke="#8597C0" stroke-width="2"/>
<path d="M77.6496 12.0509C77.7528 11.9897 77.8667 11.9629 77.9911 11.9706C78.0355 11.9734 78.0596 11.9534 78.0635 11.9103C78.0992 11.5277 77.9448 11.2397 77.6004 11.0465C77.57 11.0295 77.5446 11.0053 77.5266 10.9762C77.4378 10.8384 77.3139 10.7423 77.1547 10.6878C77.1151 10.6744 77.0814 10.6519 77.0534 10.6203C76.6193 10.1353 76.0578 9.91003 75.5658 9.53695C75.532 9.51112 75.507 9.47859 75.4906 9.43937C75.4385 9.3131 75.3458 9.26144 75.2127 9.2844C75.178 9.29014 75.1606 9.27579 75.1606 9.24135V9.17535C75.1606 9.1323 75.1418 9.10073 75.1042 9.08064C74.7873 8.91276 74.5948 8.62864 74.2909 8.48085C73.8626 8.27135 73.4468 8.03841 73.0435 7.78204C71.7831 6.97992 70.2912 6.63124 68.9063 6.04579C68.0554 5.68706 67.261 5.61245 66.3783 5.42304C65.9673 5.33503 65.7599 5.29054 65.756 5.28959C62.6313 4.76058 60.4843 4.40616 59.315 4.22631C58.9725 4.17274 58.455 4.12252 57.7623 4.07565C57.715 4.07278 57.6803 4.04982 57.6581 4.00677C57.6292 3.95033 57.5906 3.91685 57.5423 3.90633C57.3108 3.85276 57.0204 3.82741 56.6712 3.83028C56.649 3.83028 56.6379 3.84128 56.6379 3.86328V3.90489C56.6379 3.91083 56.6365 3.91668 56.6338 3.922C56.6312 3.92731 56.6273 3.93195 56.6226 3.93556C56.6178 3.93916 56.6123 3.94164 56.6064 3.94279C56.6006 3.94394 56.5945 3.94374 56.5887 3.9422C55.9592 3.77862 55.3138 3.91781 54.8377 3.92068C53.9299 3.92737 53.0226 3.91255 52.1158 3.87619C52.0781 3.87428 52.0473 3.85897 52.0232 3.83028C52.0132 3.8186 52.0007 3.80922 51.9864 3.80278C51.9722 3.79633 51.9566 3.79299 51.9407 3.79297C50.8486 3.80636 49.7565 3.82262 48.6645 3.84176C47.8946 3.85467 46.5575 3.72983 45.465 3.92211C45.4254 3.92881 45.4114 3.95177 45.423 3.99099L45.4462 4.06417C45.4587 4.10243 45.4452 4.12587 45.4056 4.13448C45.2088 4.17753 45.055 4.20288 44.944 4.21053C42.6533 4.37698 40.5116 4.65249 38.2527 5.25802C38.1639 5.28194 38.0689 5.29581 37.9676 5.29963C37.2904 5.32403 36.6291 5.55218 35.9663 5.6928C34.3788 6.03431 32.8739 6.57241 31.4051 7.25973C31.0563 7.42188 30.5875 7.44197 30.2547 7.62133C29.2301 8.1709 28.0493 8.64156 27.0928 9.28584C26.5573 9.64744 25.9033 9.92868 25.4474 10.2401C24.5097 10.8791 23.5768 11.5238 22.6488 12.1743C21.9875 12.6378 20.7328 13.7097 21.1134 14.6252C21.1317 14.6692 21.139 14.7141 21.1351 14.76C21.1076 15.1417 21.358 15.2709 21.5128 15.5234C22.1688 16.592 22.5542 17.7461 22.669 18.9859C22.6922 19.2384 22.7978 19.4795 23.0728 19.4766" stroke="#06378A" stroke-width="2"/>
<path d="M77.6512 12.0506L76.4125 12.0578C76.3613 12.0578 76.3358 12.0826 76.3358 12.1324L76.3343 18.964C76.3343 19.0348 76.3116 19.0425 76.2663 18.987C75.673 18.259 75.0753 17.5334 74.4734 16.8102C73.1391 15.2079 71.6496 13.761 70.0048 12.4696C69.4114 12.0033 68.8847 11.9688 68.1641 12.0463" stroke="#80A0C9" stroke-width="2"/>
<path d="M68.1615 12.0465C68.0197 11.4792 67.6078 11.1468 66.9257 11.0492C66.6575 11.011 66.4366 10.9531 66.2629 10.8756C65.5722 10.5676 64.8583 10.3126 64.1213 10.1108C64.073 10.0983 64.0267 10.1031 63.9823 10.1251C63.6915 10.2744 63.5308 10.0534 63.3225 9.97877C62.8276 9.80228 62.3616 9.52821 61.8233 9.51386C61.2744 9.49951 60.7293 9.4402 60.1881 9.33593C60.1582 9.33019 60.1543 9.31728 60.1765 9.29719C60.1881 9.28762 60.2001 9.27997 60.2127 9.27423C60.232 9.26657 60.2315 9.26084 60.2112 9.25701C59.3386 9.11352 58.4718 8.94563 57.5949 8.89971C56.5723 8.84519 55.5478 8.80166 54.5213 8.76914C54.474 8.76722 54.4296 8.77822 54.3882 8.80214C54.1952 8.90928 53.9931 8.91693 53.7818 8.8251C53.7413 8.80788 53.7003 8.80644 53.6588 8.82079C53.1596 8.99155 52.8702 8.74761 52.4549 8.72752C50.2948 8.6223 48.3003 8.66247 46.4712 8.84806C45.4539 8.95137 44.3946 8.97289 43.5828 9.09486C42.7811 9.2154 41.9852 9.36893 41.1951 9.55547C41.1519 9.56569 41.1065 9.56114 41.0663 9.54256C40.9602 9.49186 40.8608 9.50477 40.7682 9.5813C40.732 9.61057 40.6894 9.6312 40.6437 9.64157C39.5594 9.88168 38.4996 10.1969 37.4645 10.5872C36.9899 10.767 36.5181 10.9096 36.0492 11.0148C35.1125 11.2252 34.4613 11.4242 34.0957 11.6117C33.3736 11.9819 32.0046 12.7209 32.0784 13.7713C32.0802 13.799 32.0895 13.8258 32.1053 13.8487C32.121 13.8717 32.1428 13.8901 32.1682 13.9018C32.3293 13.9765 32.4055 14.1089 32.3968 14.2993C32.3958 14.3242 32.3886 14.3261 32.3751 14.3051C32.1744 13.9894 31.9593 13.6823 31.7297 13.3838C31.6033 13.2203 31.4629 13.2059 31.3086 13.3408" stroke="#01489A" stroke-width="2"/>
<path d="M31.3091 13.3405L30.435 12.2342C30.42 12.2151 30.4013 12.1993 30.3801 12.1877C30.359 12.1761 30.3358 12.169 30.312 12.1668C29.3034 12.0735 28.1906 12.0176 27.1892 12.1984C26.8332 12.2629 26.4295 12.8685 26.1907 13.2057C24.7919 15.1887 23.7524 17.2789 23.0723 19.4763" stroke="#80A0C9" stroke-width="2"/>
<path d="M76.7652 26.9525C75.7696 23.701 73.7915 20.6561 71.4414 18.2139" stroke="#81AFD7" stroke-width="2"/>
<path d="M71.4448 18.2138L70.2813 17.139C70.2302 17.0912 70.2046 17.1022 70.2046 17.172V26.8936C70.2046 26.9405 70.181 26.9639 70.1337 26.9639L67.8184 26.9668" stroke="#80A0C9" stroke-width="2"/>
<path d="M67.8152 26.9664L66.7617 26.9263" stroke="#81AFD7" stroke-width="2"/>
<path d="M66.7637 26.9269L66.7246 25.2236" stroke="#80CBEF" stroke-width="2"/>
<path d="M66.7246 25.2235L66.7318 23.9292" stroke="#80B9E1" stroke-width="2"/>
<path d="M68.1602 12.0464L66.8506 12.0478C66.7966 12.0488 66.7695 12.076 66.7695 12.1296L66.7305 23.9289" stroke="#80A7D0" stroke-width="2"/>
<path d="M66.7333 23.9292L66.1979 24.0885C66.1554 24.1009 66.1294 24.1282 66.1197 24.1703C66.1033 24.2401 66.0643 24.2946 66.0025 24.3338C65.9926 24.3403 65.9811 24.344 65.9693 24.3447C65.9574 24.3454 65.9456 24.343 65.9351 24.3377C65.9247 24.3324 65.9159 24.3245 65.9096 24.3147C65.9034 24.305 65.9 24.2937 65.8998 24.2822C65.8998 24.2678 65.9003 24.254 65.9012 24.2406C65.9099 24.1554 65.8872 24.1531 65.8332 24.2334C65.4382 24.826 64.8434 25.3584 64.3934 25.8635C64.1257 26.1648 63.7031 26.3729 63.3356 26.6828C62.9757 26.9861 62.3684 27.3228 61.5137 27.693" stroke="#0161B2" stroke-width="2"/>
<path d="M61.5123 27.6927C61.3512 27.6803 61.2089 27.7099 61.0854 27.7817C61.0535 27.7998 61.0193 27.8113 60.9826 27.8161L60.767 27.8434C60.7599 27.8454 60.7538 27.8499 60.7496 27.8559C60.7455 27.862 60.7436 27.8693 60.7443 27.8766C60.745 27.8839 60.7482 27.8907 60.7534 27.8959C60.7586 27.9011 60.7655 27.9043 60.7728 27.9051C61.2195 27.8802 61.6497 27.8218 62.0636 27.73C62.0925 27.7233 62.1152 27.7252 62.1316 27.7357C62.1509 27.7472 62.1673 27.7649 62.1808 27.7888" stroke="#0173C0" stroke-width="2"/>
<path d="M62.1806 27.789L60.2951 28.2123C60.2864 28.2142 60.2868 28.2151 60.2965 28.2151C60.311 28.2161 60.324 28.2175 60.3356 28.2195C60.3626 28.2252 60.3664 28.2376 60.3471 28.2568L60.3023 28.2998C60.2724 28.3304 60.2357 28.3467 60.1923 28.3486C59.0129 28.4146 57.8726 28.4275 56.7526 28.043C55.6412 27.6613 54.5974 27.1303 53.6211 26.4502" stroke="#2883C6" stroke-width="2"/>
<path d="M53.6223 26.4504C53.0956 25.9205 52.6253 25.358 52.2114 24.763C52.0624 24.5492 51.8598 24.4473 51.7295 24.1947C51.5356 23.8169 51.3364 23.4438 51.1319 23.0755C51.1171 23.0484 51.0943 23.0265 51.0665 23.0126C51.0388 22.9988 51.0074 22.9937 50.9767 22.9981C50.9459 23.0025 50.9173 23.0161 50.8946 23.0371C50.8719 23.0581 50.8562 23.0856 50.8497 23.1157C50.6529 23.9766 50.581 24.8639 50.6341 25.7775" stroke="#0173C0" stroke-width="2"/>
<path d="M50.6337 25.7772L50.5671 25.8662C50.5555 25.8834 50.5416 25.8853 50.5252 25.8719C50.5136 25.8624 50.5015 25.8514 50.489 25.8389C50.4709 25.8218 50.4575 25.8004 50.4502 25.7768C50.4428 25.7531 50.4417 25.7281 50.447 25.7041L50.4919 25.5032C50.4948 25.4888 50.489 25.4845 50.4745 25.4903C50.4523 25.4989 50.4345 25.5108 50.421 25.5261C50.3901 25.5615 50.3771 25.6022 50.3819 25.6481C50.3896 25.7179 50.3645 25.7634 50.3066 25.7844" stroke="#0161B2" stroke-width="2"/>
<path d="M50.3083 25.7845L50.3068 25.5377C50.3061 25.5322 50.3035 25.5272 50.2994 25.5234C50.2954 25.5196 50.2902 25.5172 50.2847 25.5167C50.2791 25.5162 50.2736 25.5176 50.2689 25.5206C50.2643 25.5236 50.2608 25.5282 50.2591 25.5334C50.2156 25.7649 50.2253 25.9854 50.288 26.1949" stroke="#0257A8" stroke-width="2"/>
<path d="M50.2871 26.1953C50.3498 26.2824 50.3653 26.4526 50.3334 26.7061C50.3305 26.7301 50.3373 26.7329 50.3537 26.7148L50.3841 26.6803C50.4053 26.6554 50.4159 26.6267 50.4159 26.5942V26.501C50.4168 26.4887 50.4222 26.4786 50.4311 26.4725C50.4399 26.4664 50.4517 26.4648 50.4639 26.468C50.4762 26.4713 50.4882 26.4791 50.4975 26.4899C50.5068 26.5008 50.5128 26.5139 50.5143 26.5268L50.5288 26.8611C50.5307 26.9137 50.5447 26.9166 50.5707 26.8697L50.6156 26.7879" stroke="#0161B2" stroke-width="2"/>
<path d="M50.6152 26.7871L50.633 26.825" stroke="#0173C0" stroke-width="2"/>
<path d="M50.6304 26.8247C50.6478 27.3714 50.4163 27.7718 49.8345 27.8636C49.0386 27.987 48.3754 28.0052 47.8448 27.9181C47.7146 27.8971 47.4391 27.7679 47.0185 27.5307C46.978 27.5077 46.9486 27.4752 46.9302 27.4331L46.7363 26.9811" stroke="#2883C6" stroke-width="2"/>
<path d="M46.7361 26.9812L49.5564 26.9611C49.6211 26.9611 49.6534 26.9291 49.6534 26.865V12.2245C49.6534 12.1059 49.5936 12.0466 49.474 12.0466L46.4539 12.0423C46.37 12.0423 46.3275 12.0839 46.3265 12.1671L46.3179 19.0748C46.3179 19.1609 46.2923 19.1695 46.2412 19.1007C44.25 16.4561 42.3196 14.2363 39.7105 12.3135C39.0984 11.8615 37.5297 12.0423 36.7758 12.0466C36.7471 12.047 36.7197 12.0584 36.6995 12.0785C36.6792 12.0986 36.6676 12.1258 36.6673 12.1542L36.6484 26.855C36.6484 26.921 36.6817 26.954 36.7483 26.954L40.1026 26.9482" stroke="#80A7D0" stroke-width="2"/>
<path d="M40.1016 26.9484C40.3157 26.9599 40.4286 26.8365 40.4257 26.6241C40.418 25.9573 40.4358 25.2911 40.4792 24.6253C40.501 24.3053 40.6269 24.014 40.6384 23.7112C40.6746 22.7355 40.8671 21.7597 40.8598 20.7969C40.854 20.0593 40.7007 19.461 41.3605 18.8655C41.3879 18.8409 41.4237 18.8274 41.4607 18.8276C41.4976 18.8279 41.5332 18.8419 41.5602 18.8669L41.9278 19.2113C41.9731 19.2534 41.9659 19.2831 41.9061 19.3003L41.3967 19.4552C41.3733 19.4622 41.352 19.4751 41.335 19.4927C41.3181 19.5103 41.3059 19.532 41.2997 19.5557C41.2361 19.8125 41.155 20.0479 41.1521 20.3133C41.1464 21.2585 41.0615 22.1969 40.8975 23.1286C40.8116 23.6194 40.761 24.8132 40.7455 26.7102C40.7441 26.7963 40.705 26.9068 40.6934 26.9957C40.6886 27.0254 40.6982 27.0311 40.7224 27.013C40.7446 26.9967 40.7566 26.9723 40.7585 26.9398C40.8338 25.9746 40.9114 25.0093 40.9915 24.0441C41.0668 23.1372 41.3186 21.5043 41.3229 20.2043C41.3244 19.9689 41.4228 19.7982 41.5805 19.6447C41.5911 19.6341 41.6041 19.6313 41.6196 19.636C41.6302 19.6399 41.6422 19.6437 41.6557 19.6475C41.6856 19.6561 41.6895 19.6714 41.6673 19.6934L41.6152 19.7437C41.5998 19.759 41.6027 19.7705 41.6239 19.7781C42.3981 20.0306 42.7468 20.1139 43.1549 20.7352" stroke="#01489A" stroke-width="2"/>
<path d="M43.1553 20.7351C42.9277 20.7044 42.7318 20.6083 42.5678 20.4466C42.5583 20.4372 42.5474 20.4303 42.536 20.4265L42.0584 20.2658C42.017 20.2515 41.9745 20.2496 41.9311 20.2601C41.743 20.3079 41.634 20.3988 41.6041 20.5327C41.4854 21.0617 41.388 21.7586 41.3118 22.6234C41.1511 24.4314 41.031 25.5162 40.9326 26.8248C40.9075 27.1625 40.7783 27.4361 40.5448 27.6456C40.5081 27.6791 40.4647 27.6987 40.4146 27.7045C39.6187 27.7934 38.8228 27.8049 38.0269 27.7389C37.4538 27.6915 37.2889 27.4548 36.6362 27.6887C35.6884 28.0287 34.5466 28.0273 33.5756 27.9757C32.6654 27.9283 32.2226 27.0243 32.2689 26.2035" stroke="#0161B2" stroke-width="2"/>
<path d="M32.271 26.2035L32.0742 24.8174" stroke="#0257A8" stroke-width="2"/>
<path d="M32.323 24.7814L32.5516 26.8793C32.5574 26.9376 32.5897 26.9668 32.6486 26.9668H35.8351C35.845 26.9669 35.8548 26.9649 35.8638 26.9608C35.8729 26.9568 35.881 26.9508 35.8875 26.9433C35.8941 26.9359 35.899 26.9271 35.902 26.9175C35.9049 26.9079 35.9058 26.8978 35.9045 26.8879C35.2751 22.1096 34.1854 17.4275 31.3086 13.3408" stroke="#80A7D0" stroke-width="2"/>
<path d="M66.7261 25.2236C66.6421 24.9873 66.5095 24.7979 66.3281 24.6554C66.2722 24.6114 66.2399 24.6243 66.2312 24.6941L66.221 24.7601C66.2152 24.8022 66.1916 24.8285 66.1501 24.8391C65.9172 24.895 65.6335 25.1863 65.4584 25.1691C65.4131 25.1643 65.3745 25.1777 65.3427 25.2093C65.0532 25.4905 64.5916 26.0774 64.2009 26.274C63.9028 26.4247 63.7393 26.6055 63.5352 26.8236C63.5053 26.8561 63.4682 26.8766 63.4238 26.8853C63.2193 26.9264 63.0283 26.9991 62.8508 27.1034C62.7437 27.1665 62.7162 27.2799 62.5266 27.3028C62.4784 27.3086 62.4374 27.3282 62.4036 27.3617C62.1769 27.5845 61.8803 27.695 61.5137 27.6931" stroke="#0185D1" stroke-width="2"/>
<path d="M77.2948 31.1729L71.8321 33.2635C71.7959 33.2777 71.7637 33.3003 71.738 33.3295C71.682 33.3927 71.5928 33.4462 71.4703 33.4902C70.2142 33.9351 69.1154 34.2651 68.1738 34.4803" stroke="#6D445A" stroke-width="2"/>
<path d="M68.1738 34.4799C68.224 34.3861 68.333 34.2828 68.5009 34.1699" stroke="#288BCE" stroke-width="2"/>
<path d="M68.5043 34.1702C68.7619 34.0994 68.9312 34.0325 69.0122 33.9693C69.5332 33.5589 70.1207 33.2973 70.7748 33.1844C71.0801 33.1328 71.2928 32.8157 71.2899 32.5143C71.2861 32.2474 71.2378 31.9882 71.1452 31.7366C71.1298 31.6955 71.1351 31.6572 71.1611 31.6218C71.4187 31.2674 70.7111 29.8497 70.4998 29.491C69.9919 28.63 69.2047 28.7204 68.429 28.3C68.0485 28.0948 67.5463 28.0919 67.3539 27.67C67.3037 27.5591 67.3201 27.5486 67.4031 27.6385L67.6216 27.8738C67.6438 27.8977 67.6703 27.9035 67.7012 27.891L67.7822 27.858C67.8227 27.8418 67.8271 27.8188 67.7952 27.7891L67.1773 27.2295C67.1358 27.1913 67.0866 27.1697 67.0297 27.165C66.8069 27.1449 66.7181 27.0655 66.7635 26.9268" stroke="#027BC7" stroke-width="2"/>
<path d="M68.5025 34.1701L67.9772 34.1443C67.974 34.1444 67.9708 34.1436 67.968 34.1419C67.9653 34.1401 67.9631 34.1376 67.9619 34.1347C67.9606 34.1317 67.9603 34.1284 67.961 34.1253C67.9616 34.1221 67.9633 34.1193 67.9656 34.117L68.0192 34.064C68.0385 34.0439 68.0341 34.0338 68.0062 34.0338H67.9541C67.9433 34.0338 67.933 34.0296 67.9254 34.0221C67.9178 34.0145 67.9135 34.0043 67.9135 33.9936C67.9155 33.7947 67.8282 33.6689 67.6516 33.6163C67.6005 33.601 67.5614 33.5708 67.5344 33.5259C66.6247 31.9867 65.439 30.6981 63.9775 29.6602C63.8424 29.5636 63.73 29.4426 63.6403 29.2972C63.6094 29.2474 63.5646 29.224 63.5057 29.2268C63.4208 29.2316 63.3552 29.1943 63.3089 29.1149C63.2848 29.0728 63.2515 29.0398 63.2091 29.0159L62.4132 28.561C62.372 28.537 62.3237 28.5283 62.2771 28.5367C61.9935 28.5883 61.7403 28.5309 61.5174 28.3645C61.5077 28.3572 61.5002 28.3476 61.4955 28.3364C61.4908 28.3253 61.4892 28.3131 61.4908 28.3011C61.4925 28.289 61.4972 28.2776 61.5047 28.2678C61.5121 28.258 61.522 28.2503 61.5333 28.2454C61.9154 28.0861 62.4913 28.2267 62.7532 27.9369C62.7947 27.8919 62.787 27.8804 62.7301 27.9024C62.6413 27.9369 62.5473 27.9459 62.4479 27.9297C62.4247 27.9259 62.4247 27.9211 62.4479 27.9153C62.4865 27.9067 62.4971 27.8876 62.4797 27.8579C62.475 27.8502 62.4681 27.8441 62.4602 27.8402C62.4522 27.8364 62.4434 27.8351 62.4349 27.8364L62.254 27.8665C62.2492 27.8675 62.2496 27.8594 62.2554 27.8422L62.2685 27.8063C62.2704 27.7996 62.268 27.7962 62.2612 27.7962L62.1787 27.7891" stroke="#28A7E6" stroke-width="2"/>
<path d="M71.4448 18.2139C71.4525 18.2646 71.4496 18.3124 71.4361 18.3574C71.4264 18.3908 71.4047 18.4128 71.371 18.4234L71.0034 18.541C70.9407 18.5611 70.9122 18.6042 70.918 18.6702C70.96 19.0806 70.8138 19.4665 70.7805 19.7951C70.7072 20.4983 70.6715 21.2023 70.6735 21.9073C70.6778 23.249 70.5331 24.5993 70.6286 25.961C70.6532 26.3011 70.5548 26.6168 70.5505 26.9683C70.5505 27.02 70.5302 27.0616 70.4897 27.0931C70.0527 27.4504 68.6967 27.2639 68.1194 27.2495C68.0267 27.2467 67.9607 27.2213 67.9211 27.1735C67.8786 27.1218 67.8444 27.053 67.8184 26.9669" stroke="#0250A1" stroke-width="2"/>
<path d="M50.2871 26.1951L50.3074 25.7847" stroke="#0269B9" stroke-width="2"/>
<path d="M68.1785 34.48C66.1979 35.1075 64.1899 35.6184 62.1543 36.0125" stroke="#937079" stroke-width="2"/>
<path d="M62.1521 36.0128C61.9688 35.5918 61.6852 35.2494 61.3012 34.9854C61.2771 34.9691 61.2655 34.9753 61.2665 35.004V35.0427C61.2665 35.0954 61.2477 35.1035 61.2101 35.0671C60.174 34.0527 59.242 33.1573 57.918 32.5087C57.8871 32.4934 57.8673 32.4714 57.8586 32.4427C57.855 32.4319 57.8492 32.4221 57.8414 32.414C57.8337 32.4058 57.8242 32.3994 57.8138 32.3953C57.3695 32.226 56.9195 31.9864 56.455 31.9003C56.1395 31.84 55.8356 31.6276 55.5563 31.5702C54.9688 31.4497 54.4059 31.3091 53.8024 31.299C52.9024 31.2847 52.0013 31.2866 51.0993 31.3048C50.4148 31.3191 49.8143 31.4928 49.1457 31.6319C48.6696 31.731 48.2384 32.0222 47.6972 32.1987C47.1164 32.3872 46.4252 32.7761 45.6235 33.3653C45.3544 33.5633 45.1604 33.8604 44.8768 34.1029C44.2469 34.6434 43.6878 35.2757 43.1996 35.9998C43.0376 36.2395 42.8321 36.3887 42.5977 36.5308" stroke="#79C7F1" stroke-width="2"/>
<path d="M42.5954 36.5306C40.2434 36.1824 37.9141 35.7046 35.6074 35.0972" stroke="#937079" stroke-width="2"/>
<path d="M45.1922 23.8131C44.7176 23.5117 44.4643 23.8001 43.9506 23.7901C43.8136 23.7872 43.7365 23.8528 43.7191 23.9867C43.7133 24.0259 43.6926 24.0541 43.6569 24.0713L42.8074 24.4746C42.7992 24.4784 42.7923 24.4846 42.7874 24.4925C42.7826 24.5003 42.78 24.5096 42.7799 24.519V24.5664C42.778 24.6047 42.7577 24.6238 42.7191 24.6238C40.9971 24.5994 41.9855 26.8996 41.1563 27.7031C40.728 28.1183 40.1843 28.3001 39.5254 28.2484C39.454 28.2427 39.3957 28.2661 39.3503 28.3187C39.3214 28.3531 39.2847 28.3742 39.2404 28.3818C38.7252 28.4756 38.2091 28.4909 37.692 28.4278C37.4971 28.4038 37.3437 28.4019 37.2318 28.422C37.0311 28.4555 36.8864 28.5167 36.7977 28.6057C36.4605 28.9372 35.9801 29.0563 35.8223 29.5068C35.8069 29.5518 35.7755 29.5719 35.7283 29.5671L35.5286 29.547C35.4842 29.5422 35.4524 29.5594 35.4331 29.5987C35.1128 30.2185 34.9169 30.6174 34.8456 30.7954C34.5475 31.5458 34.1423 32.1973 33.9368 32.8817C33.8529 33.1611 33.7713 33.4423 33.6922 33.7255C33.679 33.7733 33.679 33.8234 33.6922 33.8704C33.7472 34.0703 33.7033 34.2822 33.5605 34.5061" stroke="#0185D1" stroke-width="2"/>
<path d="M33.5631 34.5057L28.7168 32.8584" stroke="#6D4E64" stroke-width="2"/>
<path d="M28.715 32.8588C28.6725 32.6081 28.7666 32.3427 28.9972 32.0624C29.0283 32.025 29.0474 31.979 29.0522 31.9304C29.2731 29.954 29.96 28.169 31.1128 26.5752C31.4268 26.1405 31.7625 25.9468 32.2705 26.2036" stroke="#0269B9" stroke-width="2"/>
<path d="M53.6225 26.4504C53.2795 26.3729 53.1421 26.2021 52.8801 25.8778C52.4417 25.3354 50.6733 25.3326 50.9092 26.4245C50.9137 26.445 50.9134 26.4664 50.9081 26.4868C50.9028 26.5072 50.8928 26.5262 50.8788 26.5422L50.6328 26.8249" stroke="#28A7E6" stroke-width="2"/>
<path d="M50.6152 26.7875L50.634 25.7773" stroke="#0185D1" stroke-width="2"/>
<path d="M46.7371 26.9811C46.6503 26.9228 46.5914 26.8008 46.5605 26.6152" stroke="#A7DBF6" stroke-width="2"/>
<path d="M46.5605 26.6156L46.2754 25.6987" stroke="#80CBEF" stroke-width="2"/>
<path d="M46.2734 25.6981C44.89 22.3624 42.8583 19.4935 40.1783 17.0915C40.1715 17.0856 40.1632 17.0816 40.1543 17.0802C40.1454 17.0788 40.1364 17.0799 40.1282 17.0834C40.1201 17.0869 40.1132 17.0926 40.1085 17.0999C40.1037 17.1072 40.1013 17.1158 40.1016 17.1245V26.9479" stroke="#80A0C9" stroke-width="2"/>
<path d="M28.715 32.8588L25.1855 31.4727" stroke="#6D445A" stroke-width="2"/>
<path d="M46.2777 25.6985C46.1793 25.7425 46.1234 25.7487 46.1099 25.7171C45.8282 25.0475 45.5233 24.4128 45.1953 23.813" stroke="#016CB9" stroke-width="2"/>
<path d="M45.1923 23.8128C44.6009 22.6993 43.9222 21.6733 43.1562 20.7349" stroke="#0159AB" stroke-width="2"/>
<path d="M42.5977 36.5308L45.1633 36.8622" stroke="#BE817E" stroke-width="2"/>
<path d="M45.166 36.862C49.7427 37.3231 54.3632 37.2246 59.0276 36.5664" stroke="#D98C80" stroke-width="2"/>
<path d="M59.0254 36.5666L62.1525 36.0127" stroke="#BE817E" stroke-width="2"/>
<path d="M59.0276 36.5663C58.9582 36.2362 58.6697 35.9531 58.1623 35.7168C58.0803 35.6785 57.9935 35.6178 57.9018 35.5346C57.7036 35.3523 57.4156 35.272 57.2665 35.183C56.7485 34.8802 56.2927 34.5588 55.7066 34.3823C55.0872 34.1972 54.5605 33.8945 53.9021 33.85C53.6127 33.8299 53.3478 33.794 53.1076 33.7424C52.2191 33.5501 51.5578 33.7194 50.4898 33.9289C49.2193 34.18 48.1181 34.6263 47.1413 35.4843C46.7322 35.844 46.2817 36.1482 45.7897 36.397C45.726 36.4295 45.7096 36.4137 45.7405 36.3496L45.7738 36.2807C45.7761 36.276 45.7768 36.2707 45.7758 36.2655C45.7748 36.2604 45.7722 36.2557 45.7683 36.2521C45.7644 36.2486 45.7594 36.2464 45.7542 36.2459C45.7489 36.2453 45.7436 36.2465 45.7391 36.2492C45.5876 36.3448 45.4935 36.4783 45.4569 36.6495C45.4492 36.6849 45.4279 36.7059 45.3932 36.7126C45.2909 36.7308 45.2152 36.7806 45.166 36.8619" stroke="#BEE3F8" stroke-width="2"/>
<path d="M46.5575 26.6155C46.4302 26.5218 46.3255 26.484 46.2435 26.5022C46.1721 26.5184 46.1581 26.4974 46.2015 26.439L46.2869 26.3257C46.3255 26.275 46.3134 26.2554 46.2507 26.2669L45.6241 26.3716C45.5856 26.3783 45.5508 26.3936 45.52 26.4175C45.012 26.8107 44.4679 26.9527 43.9325 27.3043C43.3812 27.6659 42.7864 27.6975 42.2192 28.0031C42.1632 28.0337 42.1671 28.0476 42.2307 28.0447L42.2814 28.0418C42.3364 28.0409 42.3455 28.0605 42.3089 28.1007C42.0272 28.4116 41.6509 28.6723 41.1801 28.8827C40.8734 29.019 40.6433 29.3376 40.3524 29.5055C39.6723 29.8972 38.9589 30.1885 38.7187 30.992C38.6058 31.3737 38.0573 31.5775 37.8432 31.9735C37.4766 32.6518 37.04 33.2812 36.5336 33.8619C36.3614 34.0613 36.0777 34.2436 35.8766 34.4645C35.7782 34.5726 35.7883 34.6209 35.907 34.6095C35.9253 34.6076 35.9359 34.6162 35.9388 34.6353C35.9398 34.6404 35.9423 34.6452 35.9458 34.6491C35.9494 34.6529 35.954 34.6558 35.959 34.6572C35.9641 34.6587 35.9695 34.6588 35.9746 34.6574C35.9797 34.6561 35.9843 34.6534 35.988 34.6496L36.0676 34.5722C36.1573 34.4832 36.1713 34.4937 36.1096 34.6037C36.0005 34.7979 35.8332 34.9625 35.6074 35.0973" stroke="#28A7E6" stroke-width="2"/>
<path d="M35.6096 35.097L33.5605 34.5059" stroke="#6D6072" stroke-width="2"/>
<path d="M21.8169 18.1695C21.3364 14.654 18.6434 12.5217 15.2963 11.8516C12.9752 11.3867 11.0288 11.5244 8.63969 11.9205C8.58856 11.9291 8.56203 11.9587 8.5601 12.0094C8.55528 12.1214 8.55673 12.2644 8.56445 12.4385C8.71687 16.1788 8.76221 20.1162 8.70047 24.2507C8.68697 25.1452 8.63535 26.0448 8.54563 26.9498C8.54196 26.9881 8.55261 27.0263 8.57556 27.0573C8.59851 27.0882 8.63216 27.1097 8.67008 27.1177C15.0141 28.3761 22.9528 26.4591 21.8169 18.1695ZM83.8201 20.9074C83.8176 20.8941 83.8181 20.8804 83.8215 20.8673C83.825 20.8542 83.8314 20.8421 83.8402 20.8316C83.8491 20.8212 83.8602 20.8128 83.8727 20.8071C83.8852 20.8013 83.8989 20.7983 83.9127 20.7983L94.4041 20.794C94.5527 20.794 94.6472 20.7237 94.6877 20.5831C94.7341 20.4233 94.7582 20.2076 94.7601 19.9359C94.8021 15.3829 91.261 10.4583 86.1456 11.8846C82.6292 12.8646 80.4745 16.462 80.6409 20.0005C80.8116 23.6208 83.2037 26.8852 86.8634 27.5826C89.8661 28.1551 92.7212 26.5681 94.297 24.0369C94.325 23.992 94.3134 23.9637 94.2623 23.9523L91.2263 23.275C91.1788 23.2645 91.1294 23.2665 91.0832 23.2808C91.0369 23.2952 90.9954 23.3214 90.9629 23.3568C88.4262 26.1104 84.399 24.1861 83.8201 20.9074Z" stroke="#8597C0" stroke-width="2"/>
<path d="M58.2536 27.5235C59.2524 27.5183 60.2403 27.3061 61.161 26.899C62.0816 26.4919 62.917 25.8978 63.6193 25.1508C64.3216 24.4038 64.8772 23.5184 65.2543 22.5451C65.6314 21.5719 65.8226 20.5299 65.8171 19.4786C65.8058 17.3555 64.9938 15.3235 63.5595 13.8296C62.1252 12.3357 60.1862 11.5023 58.1691 11.5128C56.1519 11.5233 54.2218 12.3767 52.8034 13.8854C51.385 15.3941 50.5944 17.4344 50.6056 19.5575C50.6168 21.6806 51.4289 23.7127 52.8631 25.2065C54.2974 26.7004 56.2364 27.5338 58.2536 27.5233" stroke="#80A7D0" stroke-width="2"/>
<path d="M63.6737 25.7784C63.9993 25.5933 64.6157 25.1556 64.7156 24.7352C64.7262 24.6902 64.7494 24.6525 64.7851 24.6218C65.0687 24.3765 65.0947 24.0981 65.3103 23.8384C65.4155 23.7112 65.4671 23.6222 65.4652 23.5715C65.4536 23.2233 65.3919 23.2147 65.28 23.5457C65.1642 23.8872 64.8907 24.1225 64.733 24.4439C64.5738 24.7668 64.5173 24.9533 64.2381 25.2102C64.0422 25.391 63.8512 25.5765 63.665 25.7669C63.6635 25.7681 63.6625 25.7698 63.6622 25.7716C63.6619 25.7735 63.6624 25.7754 63.6636 25.777C63.6647 25.7785 63.6664 25.7795 63.6683 25.7798C63.6702 25.78 63.6722 25.7795 63.6737 25.7784Z" stroke="#01489A" stroke-width="2"/>
<path d="M54.0195 21.2056C54.4247 22.5582 55.2669 23.5359 56.5461 24.1385" stroke="#80A7D0" stroke-width="2"/>
<path d="M56.543 24.1387C57.4093 24.5893 58.3441 24.6601 59.3474 24.3511C62.6612 23.3309 63.5642 19.0118 61.5919 16.416" stroke="#80B9E1" stroke-width="2"/>
<path d="M61.5953 16.4161C59.6881 13.8834 56.257 14.1446 54.5871 16.7648C53.7661 18.0533 53.577 19.5337 54.0198 21.2058" stroke="#80A0C9" stroke-width="2"/>
<path d="M61.5927 16.4162C61.3815 16.5453 61.1885 16.4917 61.0139 16.2555C60.9859 16.2181 60.9483 16.1966 60.901 16.1909C60.5605 16.1497 60.2204 16.1 59.8808 16.0417C58.8592 15.8666 57.9794 15.9814 57.033 16.3702C56.9037 16.4238 56.7286 16.54 56.5077 16.7189C56.3504 16.8471 56.1724 16.9452 55.9737 17.0131C55.9514 17.0204 55.9308 17.0323 55.9133 17.0481C55.8959 17.0639 55.8819 17.0833 55.8724 17.1049C55.6582 17.5861 55.4547 17.9683 55.2617 18.2514C54.7041 19.0732 54.4745 19.9446 54.5729 20.8659" stroke="#0159AB" stroke-width="2"/>
<path d="M54.5752 20.8657C54.6244 21.0245 54.6312 21.1904 54.5955 21.3636C54.5752 21.3636 54.5689 21.311 54.5767 21.2057C54.5776 21.2037 54.5777 21.2013 54.5769 21.1991C54.5761 21.197 54.5744 21.1952 54.5723 21.1943C54.5702 21.1933 54.5678 21.1932 54.5656 21.194C54.5635 21.1949 54.5617 21.1965 54.5607 21.1986L54.5332 21.2301C54.5303 21.2334 54.5265 21.2358 54.5223 21.2371C54.518 21.2383 54.5136 21.2385 54.5093 21.2375C54.505 21.2364 54.501 21.2343 54.4979 21.2312C54.4947 21.2282 54.4924 21.2243 54.4913 21.2201C54.4488 20.9991 54.3731 20.7877 54.2641 20.5859C54.2255 20.5151 54.2067 20.5199 54.2077 20.6002C54.2105 20.7791 54.2433 20.9518 54.3061 21.1182C54.3157 21.144 54.3065 21.1594 54.2786 21.1641L54.0195 21.2057" stroke="#01489A" stroke-width="2"/>
<path d="M56.5451 24.1383L55.0228 22.534C55.0058 22.5163 54.9935 22.4946 54.987 22.4709C54.9804 22.4471 54.9798 22.422 54.9852 22.3977C55.1328 21.7319 54.9331 21.1364 55.0127 20.4893C55.0127 20.4867 55.0119 20.4842 55.0103 20.4822C55.0088 20.4801 55.0066 20.4787 55.0041 20.478C55.0016 20.4773 54.999 20.4775 54.9966 20.4785C54.9942 20.4795 54.9922 20.4813 54.991 20.4835C54.8636 20.8121 54.9722 21.1465 54.8463 21.4162C54.8183 21.4746 54.8029 21.4717 54.8 21.4076L54.7479 20.2941C54.7479 20.2903 54.7463 20.2867 54.7436 20.284C54.7409 20.2813 54.7372 20.2798 54.7334 20.2798C54.7296 20.2798 54.7259 20.2813 54.7232 20.284C54.7205 20.2867 54.7189 20.2903 54.7189 20.2941L54.6726 20.8007C54.6697 20.8217 54.6615 20.8241 54.648 20.8078C54.6384 20.7964 54.6355 20.7801 54.6393 20.759C54.6577 20.671 54.6572 20.5821 54.6379 20.4922C54.6377 20.4897 54.637 20.4873 54.6359 20.4851C54.6348 20.4829 54.6332 20.481 54.6314 20.4794C54.6295 20.4778 54.6273 20.4766 54.6249 20.4758C54.6226 20.475 54.6201 20.4747 54.6176 20.4749C54.6152 20.4751 54.6128 20.4758 54.6105 20.4769C54.6083 20.478 54.6064 20.4795 54.6048 20.4814C54.6031 20.4833 54.6019 20.4854 54.6011 20.4878C54.6004 20.4901 54.6001 20.4926 54.6003 20.495L54.5742 20.8652" stroke="#0161B2" stroke-width="2"/>
<path d="M12.0816 14.5618L12.0469 24.2876C12.0469 24.2975 12.0508 24.307 12.0579 24.314C12.0649 24.321 12.0745 24.3249 12.0845 24.3249L13.63 24.3307C14.9471 24.3352 16.212 23.8622 17.1464 23.0156C18.0808 22.169 18.6081 21.0182 18.6123 19.8164L18.6152 19.0789C18.6173 18.4838 18.4909 17.8941 18.2433 17.3434C17.9956 16.7928 17.6316 16.292 17.1719 15.8696C16.7122 15.4472 16.1658 15.1115 15.5641 14.8817C14.9623 14.6519 14.3169 14.5324 13.6647 14.5302L12.1192 14.5245C12.1093 14.5245 12.0997 14.5284 12.0926 14.5354C12.0856 14.5424 12.0816 14.5519 12.0816 14.5618ZM91.6163 17.8377C90.4427 13.3163 85.0958 13.4698 83.857 17.8535C83.8435 17.9023 83.8624 17.9266 83.9135 17.9266H91.5469C91.6086 17.9266 91.6318 17.897 91.6163 17.8377Z" stroke="#8597C0" stroke-width="2"/>
<path d="M26.7539 20.6416L27.366 20.6502" stroke="#80A0C9" stroke-width="2"/>
<path d="M27.3665 20.6502L31.3851 20.6517C31.4007 20.6516 31.4161 20.6479 31.43 20.641C31.444 20.6341 31.4561 20.624 31.4655 20.6117C31.4749 20.5993 31.4812 20.5849 31.4841 20.5697C31.487 20.5545 31.4863 20.5389 31.482 20.524C30.8945 18.5323 29.9833 16.6999 28.7485 15.0268C28.7425 15.0185 28.7345 15.0117 28.7253 15.0071C28.7162 15.0024 28.706 15 28.6957 15C28.6854 15 28.6752 15.0024 28.666 15.0071C28.6568 15.0117 28.6489 15.0185 28.6429 15.0268C27.4312 16.7334 26.5181 18.5849 25.9035 20.5814C25.8891 20.6263 25.9055 20.6488 25.9527 20.6488L26.7544 20.6416" stroke="#80A7D0" stroke-width="2"/>
<path d="M27.366 20.6504C27.2483 20.6188 27.2097 20.5102 27.2503 20.3247C27.3178 20.0061 27.5517 19.3967 27.9521 18.4966C28.2039 17.9269 28.6568 17.3501 28.9245 16.7072C28.981 16.5738 29.1199 16.4776 29.2212 16.3672C29.2482 16.3385 29.2492 16.3083 29.2241 16.2768L28.9882 15.9898C28.9458 15.9391 28.9081 15.9424 28.8753 15.9998C28.4354 16.7594 28.0216 17.5318 27.6337 18.3172C27.6299 18.3268 27.517 18.5406 27.2951 18.9586C27.0086 19.4972 26.8282 20.0582 26.7539 20.6418" stroke="#01489A" stroke-width="2"/>
<path d="M71.2633 23.6536C71.2894 23.6278 71.3097 22.9476 71.3531 22.7683C71.4698 22.29 71.4992 21.6127 71.4413 20.7364C71.4167 20.3791 71.4934 20.0405 71.5137 19.6789C71.5175 19.6186 71.5489 19.5828 71.6078 19.5713L72.065 19.4823C72.1181 19.4718 72.1273 19.4455 72.0925 19.4034L71.8465 19.1021C71.807 19.0542 71.7578 19.0408 71.6989 19.0619C71.422 19.1633 71.2769 19.3589 71.2633 19.6488C71.162 21.8758 71.053 24.1032 70.9363 26.3312C70.918 26.6842 70.8283 27.0405 70.6671 27.4002C70.6517 27.4337 70.6618 27.4552 70.6975 27.4648C70.7323 27.4743 70.7573 27.46 70.7728 27.4217C71.2156 26.2968 71.2228 24.958 71.2257 23.7412C71.2257 23.7077 71.2383 23.6785 71.2633 23.6536Z" stroke="#0257A8" stroke-width="2"/>
<path d="M55.1429 44.8474C37.7316 45.5878 19.7834 41.6461 3.71638 35.0139C1.53562 34.1142 0.777344 33.7225 0.778791 31.3491C0.779756 24.9714 0.779273 18.5951 0.777344 12.2202C0.777344 10.7064 1.17963 9.66318 2.63251 9.07055C9.31804 6.34564 16.6548 4.57065 23.7759 3.33806C41.0454 0.350556 58.3747 0.219499 75.7639 2.94489C82.0297 3.92637 88.121 5.36272 94.0377 7.25395C95.9565 7.86809 98.02 8.60421 99.648 9.38624C101.332 10.1941 101.175 11.4195 101.173 13.3064C101.169 19.0662 101.169 24.825 101.172 30.5829C101.172 30.5905 101.184 30.8588 101.209 31.3878C101.277 32.7568 100.628 33.7258 99.2631 34.295C85.3725 40.0806 70.2577 44.206 55.1429 44.8474ZM23.0711 19.4766C22.3466 21.8997 21.8295 24.3706 21.5199 26.8894C21.5141 26.9324 21.5334 26.9544 21.5778 26.9554L24.6673 27.0027C24.7114 27.0034 24.7542 26.9877 24.7874 26.9588C24.8206 26.9299 24.8417 26.8898 24.8467 26.8463L25.1868 23.7899C25.1955 23.7077 25.2418 23.6665 25.3257 23.6665H32.0807C32.1041 23.6666 32.1266 23.6749 32.1441 23.69C32.1617 23.705 32.1731 23.7257 32.1762 23.7483L32.3224 24.7815C32.2886 24.8255 32.2056 24.8374 32.0735 24.8173C31.771 24.7112 31.525 24.5892 31.1907 24.6007C29.8073 24.6495 28.2922 24.7729 26.9132 24.9494C26.8499 24.9577 26.792 24.9894 26.7511 25.0383C26.4337 25.4162 26.2552 25.8543 26.2157 26.3527C26.2147 26.369 26.2084 26.3819 26.1968 26.3915C26.1689 26.4144 26.1452 26.4445 26.1259 26.4819C26.1115 26.5096 26.1013 26.5388 26.0956 26.5694C26.0464 26.865 25.9764 27.1544 25.8857 27.4375C25.6527 28.1679 24.7975 28.4018 24.6528 29.1924C24.594 29.51 24.5718 29.8281 24.5862 30.1466C24.5891 30.2107 24.6051 30.2581 24.634 30.2887C24.6745 30.3317 24.7232 30.3437 24.7801 30.3246C24.8207 30.3112 24.8472 30.325 24.8597 30.3662L25.1853 31.4725C24.1492 31.0535 23.1657 30.6503 22.2347 30.2629C21.8165 30.0892 20.8151 29.9802 20.7674 30.5843C20.7196 31.1798 21.8845 32.3205 22.3114 32.6305C29.0997 37.5594 37.4364 40.9171 45.9814 41.5614C46.7035 41.6159 47.3315 41.7336 48.0869 41.7207C50.1664 41.6862 53.0403 41.8269 55.4468 41.6217C64.2668 40.8727 72.2793 37.7431 79.4496 32.6434C79.9252 32.3057 80.328 31.8963 80.6579 31.4151C80.8344 31.1578 80.9333 30.8607 80.9546 30.524C80.9602 30.4286 80.9282 30.3348 80.8652 30.2625C80.8023 30.1902 80.7134 30.145 80.6174 30.1366C79.5364 30.039 78.496 30.7292 77.2978 31.1726L77.5814 30.9301C77.6132 30.9024 77.6494 30.8851 77.6899 30.8784C77.8395 30.8526 77.9625 30.779 78.0589 30.6575C78.0898 30.6192 78.1294 30.6001 78.1776 30.6001C78.5003 30.5958 79.0068 30.2069 79.4771 30.0591C79.5215 30.0448 79.5518 30.0161 79.5683 29.973L79.8172 29.3316C79.818 29.3292 79.8184 29.3265 79.8181 29.3239C79.8178 29.3213 79.8169 29.3188 79.8155 29.3166C79.8141 29.3144 79.8123 29.3126 79.81 29.3112C79.8078 29.3098 79.8053 29.3089 79.8027 29.3086C79.7901 29.3077 79.7766 29.3077 79.7622 29.3086C79.7294 29.3115 79.7134 29.2962 79.7144 29.2627L79.7303 28.6974C79.7323 28.6486 79.7202 28.6031 79.6942 28.561C79.3772 28.0502 78.755 27.9426 78.1284 27.8737C78.0811 27.868 78.0406 27.8489 78.0068 27.8163C77.8544 27.6719 77.675 27.6016 77.4685 27.6054C77.4116 27.6073 77.3793 27.58 77.3716 27.5236L77.3643 27.4719C77.3625 27.4581 77.3577 27.4447 77.3504 27.4327C77.343 27.4207 77.3333 27.4104 77.3218 27.4023C77.3102 27.3942 77.2971 27.3886 77.2833 27.3858C77.2694 27.3829 77.2552 27.383 77.2413 27.3859C76.8873 27.4576 76.7291 27.3132 76.7667 26.9525L79.6232 26.9554C79.6724 26.9554 79.6966 26.9315 79.6956 26.8836L79.684 12.1413C79.684 12.0944 79.6604 12.071 79.6131 12.071L77.648 12.0509C77.7512 11.9897 77.865 11.9629 77.9895 11.9705C78.0339 11.9734 78.058 11.9533 78.0618 11.9103C78.0975 11.5276 77.9432 11.2397 77.5988 11.0464C77.5684 11.0295 77.543 11.0053 77.525 10.9761C77.4362 10.8384 77.3122 10.7422 77.1531 10.6877C77.1135 10.6743 77.0798 10.6518 77.0518 10.6203C76.6176 10.1353 76.0562 9.90998 75.5642 9.5369C75.5304 9.51107 75.5053 9.47855 75.4889 9.43933C75.4368 9.31306 75.3442 9.2614 75.2111 9.28436C75.1763 9.2901 75.159 9.27575 75.159 9.24131V9.1753C75.159 9.13226 75.1402 9.10069 75.1025 9.0806C74.7856 8.91271 74.5932 8.6286 74.2893 8.4808C73.8609 8.2713 73.4452 8.03837 73.0419 7.782C71.7815 6.97988 70.2895 6.63119 68.9047 6.04575C68.0538 5.68702 67.2593 5.6124 66.3766 5.42299C65.9657 5.33498 65.7582 5.2905 65.7544 5.28954C62.6296 4.76054 60.4826 4.40611 59.3134 4.22627C58.9709 4.1727 58.4534 4.12248 57.7607 4.0756C57.7134 4.07273 57.6787 4.04978 57.6565 4.00673C57.6275 3.95029 57.589 3.91681 57.5407 3.90628C57.3092 3.85271 57.0188 3.82736 56.6696 3.83023C56.6474 3.83023 56.6363 3.84123 56.6363 3.86324V3.90485C56.6363 3.91078 56.6349 3.91664 56.6322 3.92195C56.6296 3.92727 56.6257 3.93191 56.621 3.93551C56.6162 3.93912 56.6107 3.94159 56.6048 3.94274C56.5989 3.9439 56.5929 3.94369 56.5871 3.94216C55.9576 3.77857 55.3122 3.91776 54.8361 3.92063C53.9283 3.92733 53.021 3.9125 52.1141 3.87615C52.0765 3.87424 52.0457 3.85893 52.0215 3.83023C52.0116 3.81856 51.999 3.80918 51.9848 3.80273C51.9706 3.79629 51.9549 3.79294 51.9391 3.79292C50.847 3.80632 49.7549 3.82258 48.6628 3.84171C47.893 3.85463 46.5559 3.72979 45.4633 3.92207C45.4238 3.92876 45.4098 3.95172 45.4214 3.99094L45.4445 4.06412C45.4571 4.10239 45.4436 4.12583 45.404 4.13444C45.2072 4.17748 45.0533 4.20283 44.9424 4.21049C42.6517 4.37694 40.51 4.65244 38.2511 5.25798C38.1623 5.28189 38.0673 5.29576 37.966 5.29959C37.2888 5.32398 36.6274 5.55214 35.9647 5.69276C34.3772 6.03427 32.8723 6.57236 31.4035 7.25969C31.0547 7.42183 30.5859 7.44192 30.253 7.62129C29.2285 8.17086 28.0477 8.64151 27.0911 9.28579C26.5557 9.64739 25.9016 9.92863 25.4458 10.24C24.5081 10.879 23.5752 11.5238 22.6471 12.1743C21.9858 12.6378 20.7312 13.7096 21.1118 14.6251C21.1301 14.6691 21.1374 14.7141 21.1335 14.76C21.106 15.1417 21.3563 15.2708 21.5112 15.5234C22.1672 16.5919 22.5526 17.7461 22.6674 18.9858C22.6906 19.2384 22.7962 19.4795 23.0711 19.4766ZM21.8151 18.1694C21.3346 14.6538 18.6416 12.5215 15.2945 11.8514C12.9734 11.3865 11.0271 11.5243 8.63791 11.9203C8.58678 11.9289 8.56025 11.9586 8.55832 12.0093C8.5535 12.1212 8.55494 12.2642 8.56266 12.4383C8.71509 16.1787 8.76043 20.1161 8.69869 24.2506C8.68518 25.145 8.63357 26.0447 8.54385 26.9496C8.54017 26.9879 8.55082 27.0262 8.57378 27.0571C8.59673 27.0881 8.63038 27.1096 8.6683 27.1175C15.0123 28.3759 22.951 26.4589 21.8151 18.1694ZM83.8183 20.9072C83.8158 20.8939 83.8163 20.8803 83.8197 20.8672C83.8232 20.8541 83.8296 20.8419 83.8384 20.8315C83.8473 20.8211 83.8584 20.8127 83.8709 20.8069C83.8835 20.8011 83.8971 20.7982 83.911 20.7981L94.4023 20.7938C94.5509 20.7938 94.6454 20.7235 94.686 20.5829C94.7323 20.4232 94.7564 20.2074 94.7583 19.9358C94.8003 15.3828 91.2593 10.4581 86.1438 11.8844C82.6274 12.8645 80.4727 16.4618 80.6391 20.0003C80.8099 23.6206 83.2019 26.8851 86.8616 27.5824C89.8643 28.155 92.7194 26.5679 94.2952 24.0368C94.3232 23.9918 94.3116 23.9636 94.2605 23.9521L91.2245 23.2748C91.177 23.2643 91.1276 23.2663 91.0814 23.2807C91.0351 23.295 90.9937 23.3212 90.9612 23.3566C88.4244 26.1102 84.3972 24.186 83.8183 20.9072Z" fill="#0B2E81"/>
<path d="M77.6476 12.0509L76.4089 12.0581C76.3578 12.0581 76.3322 12.083 76.3322 12.1327L76.3308 18.9644C76.3308 19.0352 76.3081 19.0428 76.2628 18.9873C75.6695 18.2593 75.0718 17.5337 74.4698 16.8105C73.1356 15.2082 71.6461 13.7613 70.0012 12.4699C69.4079 12.0036 68.8812 11.9691 68.1606 12.0466C68.0187 11.4793 67.6068 11.1469 66.9247 11.0494C66.6565 11.0111 66.4356 10.9532 66.262 10.8757C65.5712 10.5677 64.8573 10.3128 64.1203 10.1109C64.0721 10.0985 64.0257 10.1033 63.9814 10.1253C63.6905 10.2745 63.5299 10.0535 63.3215 9.9789C62.8266 9.80241 62.3606 9.52834 61.8223 9.51399C61.2734 9.49964 60.7283 9.44033 60.1871 9.33606C60.1572 9.33032 60.1534 9.3174 60.1755 9.29732C60.1871 9.28775 60.1992 9.2801 60.2117 9.27436C60.231 9.2667 60.2305 9.26096 60.2103 9.25714C59.3377 9.11365 58.4709 8.94576 57.5939 8.89984C56.5713 8.84532 55.5468 8.80179 54.5203 8.76926C54.4731 8.76735 54.4287 8.77835 54.3872 8.80227C54.1942 8.90941 53.9921 8.91706 53.7809 8.82523C53.7403 8.80801 53.6993 8.80657 53.6579 8.82092C53.1586 8.99168 52.8692 8.74774 52.4539 8.72765C50.2939 8.62243 48.2993 8.6626 46.4702 8.84819C45.4529 8.9515 44.3936 8.97302 43.5818 9.09499C42.7801 9.21552 41.9842 9.36906 41.1941 9.5556C41.1509 9.56582 41.1056 9.56127 41.0653 9.54269C40.9592 9.49199 40.8598 9.5049 40.7672 9.58143C40.7311 9.6107 40.6885 9.63133 40.6428 9.6417C39.5584 9.8818 38.4987 10.197 37.4635 10.5873C36.9889 10.7672 36.5171 10.9097 36.0483 11.0149C35.1115 11.2254 34.4603 11.4243 34.0947 11.6118C33.3726 11.982 32.0037 12.721 32.0775 13.7714C32.0792 13.7991 32.0885 13.8259 32.1043 13.8489C32.1201 13.8718 32.1418 13.8902 32.1672 13.902C32.3283 13.9766 32.4045 14.1091 32.3958 14.2994C32.3949 14.3243 32.3876 14.3262 32.3741 14.3052C32.1735 13.9895 31.9583 13.6824 31.7287 13.384C31.6023 13.2204 31.462 13.206 31.3076 13.3409L30.4336 12.2346C30.4185 12.2155 30.3998 12.1997 30.3787 12.1881C30.3575 12.1765 30.3344 12.1694 30.3106 12.1672C29.302 12.0739 28.1892 12.0179 27.1878 12.1987C26.8318 12.2633 26.4281 12.8688 26.1893 13.206C24.7904 15.1891 23.7509 17.2793 23.0708 19.4766C22.7959 19.4795 22.6902 19.2384 22.6671 18.9859C22.5523 17.7461 22.1669 16.592 21.5109 15.5234C21.356 15.2709 21.1057 15.1417 21.1332 14.76C21.137 14.7141 21.1298 14.6692 21.1115 14.6252C20.7309 13.7097 21.9855 12.6378 22.6468 12.1743C23.5749 11.5238 24.5078 10.8791 25.4455 10.2401C25.9013 9.92868 26.5554 9.64744 27.0908 9.28584C28.0473 8.64156 29.2282 8.1709 30.2527 7.62133C30.5855 7.44197 31.0544 7.42188 31.4031 7.25973C32.8719 6.57241 34.3769 6.03431 35.9643 5.6928C36.6271 5.55218 37.2884 5.32403 37.9657 5.29963C38.067 5.29581 38.162 5.28194 38.2507 5.25802C40.5096 4.65249 42.6513 4.37698 44.9421 4.21053C45.053 4.20288 45.2069 4.17753 45.4037 4.13448C45.4432 4.12587 45.4567 4.10243 45.4442 4.06417L45.421 3.99099C45.4095 3.95177 45.4235 3.92881 45.463 3.92211C46.5556 3.72983 47.8927 3.85467 48.6625 3.84176C49.7546 3.82262 50.8467 3.80636 51.9387 3.79297C51.9546 3.79299 51.9702 3.79633 51.9845 3.80278C51.9987 3.80922 52.0113 3.8186 52.0212 3.83028C52.0453 3.85897 52.0762 3.87428 52.1138 3.87619C53.0207 3.91255 53.928 3.92737 54.8358 3.92068C55.3119 3.91781 55.9573 3.77862 56.5868 3.9422C56.5925 3.94374 56.5986 3.94394 56.6045 3.94279C56.6103 3.94164 56.6159 3.93916 56.6206 3.93556C56.6254 3.93195 56.6292 3.92731 56.6319 3.922C56.6346 3.91668 56.6359 3.91083 56.636 3.90489V3.86328C56.636 3.84128 56.6471 3.83028 56.6692 3.83028C57.0185 3.82741 57.3089 3.85276 57.5404 3.90633C57.5886 3.91685 57.6272 3.95033 57.6562 4.00677C57.6783 4.04982 57.7131 4.07278 57.7603 4.07565C58.453 4.12252 58.9706 4.17274 59.3131 4.22631C60.4823 4.40616 62.6293 4.76058 65.7541 5.28959C65.7579 5.29054 65.9653 5.33503 66.3763 5.42304C67.259 5.61245 68.0535 5.68706 68.9044 6.04579C70.2892 6.63124 71.7812 6.97992 73.0416 7.78204C73.4448 8.03841 73.8606 8.27135 74.289 8.48085C74.5928 8.62864 74.7853 8.91276 75.1022 9.08064C75.1398 9.10073 75.1587 9.1323 75.1587 9.17535V9.24135C75.1587 9.27579 75.176 9.29014 75.2108 9.2844C75.3439 9.26144 75.4365 9.3131 75.4886 9.43937C75.505 9.47859 75.5301 9.51112 75.5638 9.53695C76.0559 9.91003 76.6173 10.1353 77.0515 10.6203C77.0794 10.6519 77.1132 10.6744 77.1527 10.6878C77.3119 10.7423 77.4359 10.8384 77.5246 10.9762C77.5427 11.0053 77.5681 11.0295 77.5984 11.0465C77.9429 11.2397 78.0972 11.5277 78.0615 11.9103C78.0577 11.9534 78.0335 11.9734 77.9892 11.9706C77.8647 11.9629 77.7509 11.9897 77.6476 12.0509Z" fill="#014093"/>
<path d="M68.1596 12.0465L66.85 12.0479C66.7959 12.0489 66.7689 12.0761 66.7689 12.1297L66.7298 23.929L66.1944 24.0883C66.152 24.1008 66.1259 24.128 66.1163 24.1701C66.0999 24.2399 66.0608 24.2945 65.9991 24.3337C65.9891 24.3401 65.9776 24.3439 65.9658 24.3446C65.9539 24.3452 65.9422 24.3428 65.9317 24.3375C65.9212 24.3323 65.9124 24.3243 65.9062 24.3146C65.9 24.3048 65.8966 24.2936 65.8963 24.282C65.8963 24.2677 65.8968 24.2538 65.8978 24.2404C65.9065 24.1553 65.8838 24.1529 65.8298 24.2333C65.4347 24.8259 64.84 25.3582 64.3899 25.8633C64.1222 26.1646 63.6997 26.3727 63.3321 26.6827C62.9722 26.9859 62.365 27.3226 61.5102 27.6928C61.3491 27.6804 61.2068 27.7101 61.0833 27.7818C61.0515 27.8 61.0172 27.8115 60.9806 27.8162L60.765 27.8435C60.7579 27.8456 60.7517 27.85 60.7476 27.8561C60.7434 27.8621 60.7415 27.8694 60.7422 27.8767C60.7429 27.884 60.7461 27.8908 60.7513 27.896C60.7565 27.9012 60.7634 27.9045 60.7708 27.9052C61.2174 27.8803 61.6477 27.822 62.0615 27.7301C62.0905 27.7234 62.1132 27.7254 62.1296 27.7359C62.1489 27.7474 62.1653 27.7651 62.1788 27.789L60.2932 28.2123C60.2845 28.2142 60.285 28.2151 60.2947 28.2151C60.3091 28.2161 60.3222 28.2175 60.3337 28.2195C60.3607 28.2252 60.3646 28.2376 60.3453 28.2568L60.3004 28.2998C60.2705 28.3304 60.2339 28.3467 60.1905 28.3486C59.0111 28.4146 57.8708 28.4275 56.7507 28.043C55.6394 27.6613 54.5956 27.1303 53.6193 26.4502C53.0925 25.9202 52.6222 25.3577 52.2083 24.7627C52.0593 24.5489 51.8567 24.4471 51.7265 24.1945C51.5326 23.8166 51.3333 23.4436 51.1288 23.0753C51.114 23.0482 51.0912 23.0262 51.0635 23.0124C51.0357 22.9986 51.0044 22.9935 50.9736 22.9979C50.9429 23.0023 50.9142 23.0159 50.8915 23.0369C50.8688 23.0579 50.8531 23.0853 50.8466 23.1154C50.6498 23.9764 50.578 24.8637 50.631 25.7772L50.5645 25.8662C50.5529 25.8834 50.5389 25.8853 50.5225 25.8719C50.5109 25.8624 50.4989 25.8514 50.4863 25.8389C50.4682 25.8218 50.4548 25.8004 50.4475 25.7767C50.4401 25.7531 50.4391 25.7281 50.4443 25.704L50.4892 25.5032C50.4921 25.4888 50.4863 25.4845 50.4718 25.4902C50.4497 25.4988 50.4318 25.5108 50.4183 25.5261C50.3874 25.5615 50.3744 25.6022 50.3792 25.6481C50.3869 25.7179 50.3619 25.7634 50.304 25.7844L50.3025 25.5376C50.3018 25.5321 50.2992 25.5271 50.2952 25.5233C50.2911 25.5194 50.2859 25.5171 50.2804 25.5166C50.2748 25.5161 50.2693 25.5175 50.2646 25.5205C50.26 25.5235 50.2565 25.528 50.2548 25.5333C50.2114 25.7648 50.221 25.9853 50.2837 26.1948C50.3464 26.2818 50.3619 26.4521 50.33 26.7056C50.3271 26.7295 50.3339 26.7324 50.3503 26.7142L50.3807 26.6798C50.4019 26.6549 50.4125 26.6262 50.4125 26.5937V26.5004C50.4134 26.4882 50.4188 26.478 50.4277 26.4719C50.4365 26.4659 50.4483 26.4643 50.4606 26.4675C50.4728 26.4707 50.4848 26.4785 50.4941 26.4894C50.5034 26.5002 50.5094 26.5134 50.5109 26.5262L50.5254 26.8606C50.5273 26.9132 50.5413 26.9161 50.5673 26.8692L50.6122 26.7874L50.6296 26.8247C50.6469 27.3714 50.4154 27.7718 49.8337 27.8636C49.0378 27.987 48.3745 28.0052 47.8439 27.9181C47.7137 27.8971 47.4383 27.7679 47.0176 27.5307C46.9771 27.5077 46.9477 27.4752 46.9294 27.4331L46.7355 26.9811L49.5558 26.961C49.6205 26.961 49.6528 26.929 49.6528 26.8649V12.2244C49.6528 12.1058 49.593 12.0465 49.4734 12.0465L46.4533 12.0422C46.3694 12.0422 46.3269 12.0838 46.3259 12.167L46.3173 19.0747C46.3173 19.1608 46.2917 19.1694 46.2406 19.1005C44.2494 16.456 42.319 14.2362 39.7099 12.3134C39.0977 11.8614 37.5291 12.0422 36.7752 12.0465C36.7465 12.0469 36.7191 12.0583 36.6988 12.0784C36.6786 12.0985 36.667 12.1257 36.6666 12.1541L36.6478 26.8548C36.6478 26.9209 36.6811 26.9539 36.7477 26.9539L40.102 26.9481C40.3162 26.9596 40.4291 26.8362 40.4262 26.6238C40.4185 25.9571 40.4363 25.2908 40.4797 24.625C40.5014 24.305 40.6273 24.0137 40.6389 23.7109C40.6751 22.7352 40.8675 21.7595 40.8603 20.7966C40.8545 20.0591 40.7011 19.4607 41.361 18.8652C41.3884 18.8406 41.4241 18.8271 41.4611 18.8274C41.4981 18.8276 41.5336 18.8417 41.5607 18.8667L41.9282 19.211C41.9736 19.2531 41.9664 19.2828 41.9065 19.3L41.3972 19.455C41.3737 19.4619 41.3525 19.4748 41.3355 19.4924C41.3185 19.51 41.3064 19.5317 41.3002 19.5554C41.2365 19.8123 41.1555 20.0476 41.1526 20.3131C41.1468 21.2582 41.0619 22.1966 40.8979 23.1284C40.8121 23.6191 40.7614 24.813 40.746 26.7099C40.7445 26.796 40.7055 26.9065 40.6939 26.9955C40.6891 27.0251 40.6987 27.0309 40.7228 27.0127C40.745 26.9964 40.7571 26.972 40.759 26.9395C40.8343 25.9743 40.9119 25.0091 40.992 24.0438C41.0672 23.137 41.319 21.504 41.3234 20.204C41.3248 19.9687 41.4232 19.7979 41.5809 19.6444C41.5916 19.6339 41.6046 19.631 41.62 19.6358C41.6306 19.6396 41.6427 19.6434 41.6562 19.6473C41.6861 19.6559 41.69 19.6712 41.6678 19.6932L41.6157 19.7434C41.6002 19.7587 41.6031 19.7702 41.6244 19.7778C42.3985 20.0304 42.7473 20.1136 43.1554 20.7349C42.9277 20.7043 42.7319 20.6082 42.5679 20.4465C42.5583 20.4371 42.5474 20.4302 42.536 20.4264L42.0585 20.2657C42.017 20.2513 41.9746 20.2494 41.9311 20.26C41.743 20.3078 41.634 20.3987 41.6041 20.5326C41.4854 21.0616 41.388 21.7585 41.3118 22.6233C41.1512 24.4313 41.0311 25.5161 40.9327 26.8247C40.9076 27.1624 40.7783 27.436 40.5448 27.6455C40.5082 27.679 40.4648 27.6986 40.4146 27.7043C39.6187 27.7933 38.8228 27.8048 38.0269 27.7388C37.4539 27.6914 37.2889 27.4546 36.6363 27.6885C35.6884 28.0286 34.5467 28.0272 33.5757 27.9755C32.6655 27.9282 32.2226 27.0242 32.269 26.2034L32.0722 24.8173C32.2043 24.8373 32.2873 24.8254 32.321 24.7814L32.5497 26.8792C32.5555 26.9376 32.5878 26.9668 32.6466 26.9668H35.8331C35.843 26.9669 35.8528 26.9648 35.8619 26.9608C35.8709 26.9567 35.879 26.9508 35.8856 26.9433C35.8922 26.9358 35.8971 26.927 35.9 26.9175C35.903 26.9079 35.9038 26.8978 35.9026 26.8878C35.2731 22.1096 34.1834 17.4274 31.3066 13.3408C31.461 13.2059 31.6014 13.2203 31.7277 13.3838C31.9573 13.6823 32.1725 13.9894 32.3731 14.3051C32.3866 14.3261 32.3939 14.3242 32.3948 14.2993C32.4035 14.1089 32.3273 13.9765 32.1662 13.9018C32.1408 13.8901 32.1191 13.8717 32.1033 13.8487C32.0875 13.8258 32.0783 13.799 32.0765 13.7713C32.0027 12.7209 33.3716 11.9819 34.0937 11.6117C34.4594 11.4242 35.1105 11.2252 36.0473 11.0148C36.5161 10.9096 36.9879 10.767 37.4625 10.5872C38.4977 10.1969 39.5574 9.88168 40.6418 9.64157C40.6875 9.6312 40.7301 9.61057 40.7662 9.5813C40.8589 9.50477 40.9582 9.49186 41.0643 9.54256C41.1046 9.56114 41.15 9.56569 41.1931 9.55547C41.9832 9.36893 42.7791 9.2154 43.5808 9.09486C44.3926 8.97289 45.4519 8.95137 46.4692 8.84806C48.2983 8.66247 50.2929 8.6223 52.4529 8.72752C52.8682 8.74761 53.1576 8.99155 53.6569 8.82079C53.6984 8.80644 53.7394 8.80788 53.7799 8.8251C53.9911 8.91693 54.1933 8.90928 54.3862 8.80214C54.4277 8.77822 54.4721 8.76722 54.5193 8.76914C55.5458 8.80166 56.5703 8.84519 57.5929 8.89971C58.4699 8.94563 59.3367 9.11352 60.2093 9.25701C60.2295 9.26084 60.23 9.26657 60.2107 9.27423C60.1982 9.27997 60.1861 9.28762 60.1746 9.29719C60.1524 9.31728 60.1562 9.33019 60.1861 9.33593C60.7273 9.4402 61.2724 9.49951 61.8213 9.51386C62.3597 9.52821 62.8256 9.80228 63.3205 9.97877C63.5289 10.0534 63.6895 10.2744 63.9804 10.1251C64.0248 10.1031 64.0711 10.0983 64.1193 10.1108C64.8563 10.3126 65.5703 10.5676 66.261 10.8756C66.4346 10.9531 66.6556 11.011 66.9238 11.0492C67.6058 11.1468 68.0178 11.4792 68.1596 12.0465ZM58.2517 27.5235C59.2505 27.5183 60.2384 27.3061 61.1591 26.899C62.0797 26.4919 62.9151 25.8979 63.6174 25.1509C64.3197 24.4038 64.8753 23.5184 65.2524 22.5452C65.6295 21.5719 65.8207 20.5299 65.8151 19.4786C65.8039 17.3555 64.9919 15.3235 63.5576 13.8296C62.1233 12.3358 60.1843 11.5024 58.1672 11.5128C56.15 11.5233 54.2199 12.3768 52.8015 13.8854C51.383 15.3941 50.5925 17.4344 50.6037 19.5576C50.6149 21.6807 51.4269 23.7127 52.8612 25.2066C54.2955 26.7005 56.2345 27.5338 58.2517 27.5234V27.5235ZM63.6722 25.7787C63.9977 25.5936 64.6142 25.1559 64.7141 24.7355C64.7247 24.6905 64.7478 24.6527 64.7835 24.6221C65.0671 24.3767 65.0932 24.0984 65.3088 23.8386C65.414 23.7114 65.4656 23.6225 65.4636 23.5718C65.4521 23.2235 65.3903 23.2149 65.2784 23.5459C65.1626 23.8874 64.8892 24.1228 64.7314 24.4442C64.5722 24.767 64.5158 24.9536 64.2365 25.2104C64.0407 25.3912 63.8497 25.5768 63.6635 25.7672C63.6619 25.7683 63.6609 25.77 63.6606 25.7719C63.6604 25.7738 63.6609 25.7757 63.662 25.7772C63.6632 25.7787 63.6649 25.7797 63.6668 25.78C63.6687 25.7803 63.6706 25.7798 63.6722 25.7787Z" fill="#014FA0"/>
<path d="M58.2528 27.5235C57.254 27.5286 56.2639 27.3267 55.339 26.9292C54.4141 26.5317 53.5725 25.9463 52.8623 25.2066C52.1521 24.4669 51.5872 23.5873 51.1999 22.618C50.8126 21.6488 50.6104 20.6088 50.6048 19.5575C50.5936 17.4344 51.3842 15.3941 52.8026 13.8854C54.221 12.3767 56.1511 11.5233 58.1683 11.5128C60.1855 11.5023 62.1245 12.3357 63.5587 13.8296C64.993 15.3235 65.8051 17.3555 65.8163 19.4786C65.8275 21.6017 65.0369 23.642 63.6185 25.1507C62.2001 26.6594 60.27 27.5128 58.2528 27.5233V27.5235ZM54.0183 21.2055C54.4235 22.5582 55.2657 23.5358 56.545 24.1385C57.4113 24.5891 58.3461 24.6598 59.3494 24.3509C62.6632 23.3306 63.5662 19.0115 61.5938 16.4158C59.6866 13.8831 56.2555 14.1443 54.5856 16.7644C53.7646 18.053 53.5755 19.5334 54.0183 21.2055ZM15.2943 11.8513C18.6414 12.5214 21.3345 14.6537 21.8149 18.1692C22.9509 26.4588 15.0122 28.3758 8.66813 27.1174C8.63021 27.1094 8.59656 27.0879 8.57361 27.057C8.55065 27.026 8.54 26.9878 8.54368 26.9495C8.6334 26.0445 8.68501 25.1449 8.69852 24.2504C8.76026 20.1159 8.71492 16.1785 8.56249 12.4382C8.55477 12.2641 8.55333 12.1211 8.55815 12.0091C8.56008 11.9584 8.58661 11.9288 8.63774 11.9202C11.0269 11.5241 12.9732 11.3864 15.2943 11.8513ZM12.0833 14.5618L12.0485 24.2877C12.0485 24.2976 12.0525 24.3071 12.0595 24.3141C12.0666 24.3211 12.0762 24.325 12.0861 24.325L13.6316 24.3308C14.9488 24.3353 16.2137 23.8623 17.1481 23.0157C18.0824 22.1691 18.6097 21.0183 18.6139 19.8165L18.6168 19.079C18.6189 18.4839 18.4926 17.8942 18.2449 17.3435C17.9973 16.7929 17.6332 16.2921 17.1735 15.8697C16.7138 15.4473 16.1675 15.1116 15.5657 14.8818C14.964 14.652 14.3186 14.5325 13.6664 14.5303L12.1209 14.5245C12.1109 14.5245 12.1013 14.5285 12.0943 14.5355C12.0872 14.5425 12.0833 14.552 12.0833 14.5618ZM83.8182 20.9071C84.397 24.1858 88.4243 26.1101 90.961 23.3565C90.9935 23.3211 91.035 23.2949 91.0812 23.2805C91.1274 23.2662 91.1768 23.2642 91.2244 23.2747L94.2603 23.952C94.3115 23.9634 94.3231 23.9917 94.2951 24.0366C92.7192 26.5678 89.8641 28.1548 86.8614 27.5823C83.2017 26.8849 80.8097 23.6205 80.6389 20.0002C80.4725 16.4617 82.6272 12.8643 86.1436 11.8843C91.2591 10.458 94.8001 15.3826 94.7581 19.9356C94.7562 20.2073 94.7321 20.423 94.6858 20.5828C94.6453 20.7234 94.5507 20.7937 94.4022 20.7937L83.9108 20.798C83.8969 20.798 83.8833 20.801 83.8708 20.8068C83.8582 20.8125 83.8471 20.8209 83.8383 20.8313C83.8294 20.8418 83.8231 20.8539 83.8196 20.867C83.8161 20.8801 83.8156 20.8938 83.8182 20.9071ZM91.618 17.8378C90.4444 13.3163 85.0974 13.4699 83.8587 17.8536C83.8452 17.9023 83.864 17.9267 83.9151 17.9267H91.5485C91.6103 17.9267 91.6334 17.8971 91.618 17.8378Z" fill="white"/>
<path d="M46.7355 26.9812C46.6487 26.9229 46.5898 26.8009 46.559 26.6153L46.2739 25.6984C44.8905 22.3627 42.8588 19.4938 40.1788 17.0918C40.172 17.0859 40.1637 17.0819 40.1548 17.0805C40.1459 17.0791 40.1368 17.0802 40.1287 17.0837C40.1205 17.0872 40.1137 17.0929 40.1089 17.1002C40.1042 17.1075 40.1018 17.1161 40.1021 17.1248V26.9482L36.7477 26.954C36.6811 26.954 36.6479 26.921 36.6479 26.855L36.6667 12.1542C36.667 12.1258 36.6786 12.0986 36.6989 12.0785C36.7192 12.0584 36.7465 12.047 36.7752 12.0466C37.5291 12.0423 39.0978 11.8615 39.7099 12.3135C42.319 14.2363 44.2494 16.4561 46.2406 19.1007C46.2917 19.1695 46.3173 19.1609 46.3173 19.0748L46.326 12.1671C46.3269 12.0839 46.3694 12.0423 46.4533 12.0423L49.4734 12.0466C49.593 12.0466 49.6528 12.1059 49.6528 12.2245V26.865C49.6528 26.9291 49.6205 26.9612 49.5559 26.9612L46.7355 26.9812ZM68.1596 12.0466C68.8802 11.9691 69.407 12.0036 70.0003 12.4699C71.6451 13.7613 73.1347 15.2082 74.4689 16.8105C75.0709 17.5337 75.6685 18.2593 76.2618 18.9873C76.3072 19.0428 76.3298 19.0351 76.3298 18.9644L76.3313 12.1327C76.3313 12.083 76.3569 12.0581 76.408 12.0581L77.6467 12.0509L79.6118 12.071C79.6591 12.071 79.6827 12.0944 79.6827 12.1413L79.6943 26.8837C79.6953 26.9315 79.6712 26.9554 79.622 26.9554L76.7654 26.9525C75.7698 23.701 73.7917 20.6561 71.4416 18.2139L70.2781 17.1391C70.227 17.0913 70.2014 17.1023 70.2014 17.1721V26.8937C70.2014 26.9406 70.1778 26.964 70.1305 26.964L67.8152 26.9669L66.7617 26.9267L66.7226 25.2235L66.7299 23.9292L66.769 12.1298C66.769 12.0763 66.796 12.049 66.85 12.048L68.1596 12.0466ZM31.3067 13.3409C34.1835 17.4276 35.2731 22.1097 35.9026 26.888C35.9039 26.8979 35.903 26.908 35.9 26.9176C35.8971 26.9271 35.8922 26.936 35.8856 26.9434C35.879 26.9509 35.871 26.9569 35.8619 26.9609C35.8529 26.965 35.8431 26.967 35.8332 26.9669H32.6467C32.5878 26.9669 32.5555 26.9377 32.5497 26.8794L32.3211 24.7815L32.1749 23.7484C32.1718 23.7258 32.1604 23.705 32.1428 23.69C32.1253 23.675 32.1028 23.6667 32.0794 23.6666H25.3244C25.2405 23.6666 25.1942 23.7077 25.1855 23.79L24.8454 26.8464C24.8404 26.8899 24.8193 26.9299 24.7861 26.9588C24.7529 26.9878 24.7101 27.0034 24.666 27.0028L21.5765 26.9554C21.5321 26.9545 21.5128 26.9325 21.5186 26.8894C21.8283 24.3706 22.3453 21.8997 23.0699 19.4766C23.75 17.2793 24.7895 15.1891 26.1883 13.206C26.4271 12.8688 26.8308 12.2633 27.1868 12.1987C28.1882 12.0179 29.301 12.0739 30.3096 12.1671C30.3334 12.1694 30.3566 12.1765 30.3777 12.1881C30.3989 12.1997 30.4175 12.2155 30.4326 12.2346L31.3067 13.3409ZM26.7527 20.6418L27.3648 20.6504L31.3834 20.6518C31.399 20.6517 31.4143 20.6481 31.4283 20.6411C31.4422 20.6342 31.4544 20.6241 31.4638 20.6118C31.4731 20.5994 31.4795 20.5851 31.4824 20.5699C31.4853 20.5547 31.4846 20.539 31.4803 20.5241C30.8928 18.5324 29.9816 16.7001 28.7468 15.0269C28.7407 15.0186 28.7328 15.0119 28.7236 15.0072C28.7144 15.0026 28.7043 15.0001 28.694 15.0001C28.6836 15.0001 28.6735 15.0026 28.6643 15.0072C28.6551 15.0119 28.6472 15.0186 28.6411 15.0269C27.4294 16.7335 26.5163 18.5851 25.9018 20.5815C25.8873 20.6265 25.9037 20.6489 25.951 20.6489L26.7527 20.6418Z" fill="white"/>
<path d="M12.0816 14.5618C12.0816 14.5519 12.0856 14.5424 12.0926 14.5354C12.0997 14.5284 12.1093 14.5245 12.1192 14.5245L13.6647 14.5302C14.3169 14.5324 14.9623 14.6519 15.5641 14.8817C16.1658 15.1115 16.7122 15.4472 17.1719 15.8696C17.6316 16.292 17.9956 16.7928 18.2433 17.3434C18.4909 17.8941 18.6173 18.4838 18.6152 19.0789L18.6123 19.8164C18.6081 21.0182 18.0808 22.169 17.1464 23.0156C16.212 23.8622 14.9471 24.3352 13.63 24.3307L12.0845 24.3249C12.0745 24.3249 12.0649 24.321 12.0579 24.314C12.0508 24.307 12.0469 24.2975 12.0469 24.2876L12.0816 14.5618ZM83.857 17.8535C85.0958 13.4698 90.4427 13.3163 91.6163 17.8377C91.6318 17.897 91.6086 17.9266 91.5469 17.9266H83.9135C83.8624 17.9266 83.8435 17.9023 83.857 17.8535Z" fill="#0B2E81"/>
<path d="M61.5953 16.4156C61.3841 16.5447 61.1911 16.4912 61.0165 16.2549C60.9885 16.2176 60.9509 16.196 60.9036 16.1903C60.5631 16.1492 60.223 16.0994 59.8834 16.0411C58.8618 15.866 57.982 15.9808 57.0356 16.3697C56.9063 16.4232 56.7312 16.5395 56.5103 16.7184C56.353 16.8465 56.175 16.9446 55.9763 17.0125C55.954 17.0198 55.9334 17.0317 55.9159 17.0475C55.8985 17.0634 55.8845 17.0827 55.875 17.1043C55.6608 17.5855 55.4573 17.9677 55.2643 18.2509C54.7067 19.0726 54.4771 19.9441 54.5755 20.8653C54.6247 21.0241 54.6315 21.19 54.5958 21.3632C54.5755 21.3632 54.5692 21.3106 54.577 21.2053C54.5779 21.2033 54.578 21.2009 54.5772 21.1987C54.5764 21.1966 54.5747 21.1948 54.5726 21.1939C54.5705 21.1929 54.5681 21.1928 54.5659 21.1936C54.5638 21.1944 54.562 21.1961 54.561 21.1982L54.5336 21.2297C54.5306 21.233 54.5268 21.2354 54.5226 21.2367C54.5184 21.2379 54.5139 21.2381 54.5096 21.2371C54.5053 21.236 54.5013 21.2339 54.4982 21.2308C54.495 21.2278 54.4927 21.2239 54.4916 21.2197C54.4491 20.9987 54.3734 20.7873 54.2644 20.5855C54.2258 20.5147 54.207 20.5195 54.208 20.5998C54.2109 20.7787 54.2437 20.9514 54.3064 21.1178C54.316 21.1436 54.3068 21.159 54.2789 21.1637L54.0198 21.2053C53.577 19.5332 53.7661 18.0528 54.5871 16.7643C56.257 14.1441 59.6881 13.883 61.5953 16.4156Z" fill="#014093"/>
<path d="M27.3665 20.6502C27.2488 20.6187 27.2102 20.5101 27.2508 20.3245C27.3183 20.006 27.5522 19.3966 27.9526 18.4964C28.2044 17.9268 28.6573 17.3499 28.925 16.7071C28.9815 16.5736 29.1204 16.4775 29.2217 16.367C29.2487 16.3383 29.2497 16.3082 29.2246 16.2766L28.9887 15.9896C28.9463 15.9389 28.9086 15.9423 28.8758 15.9997C28.4359 16.7592 28.0221 17.5317 27.6342 18.3171C27.6304 18.3266 27.5175 18.5404 27.2956 18.9585C27.0091 19.4971 26.8287 20.0581 26.7544 20.6416L25.9527 20.6488C25.9055 20.6488 25.8891 20.6263 25.9035 20.5814C26.5181 18.5849 27.4312 16.7334 28.6429 15.0268C28.6489 15.0185 28.6568 15.0117 28.666 15.0071C28.6752 15.0024 28.6854 15 28.6957 15C28.706 15 28.7162 15.0024 28.7253 15.0071C28.7345 15.0117 28.7425 15.0185 28.7485 15.0268C29.9833 16.6999 30.8945 18.5323 31.482 20.524C31.4863 20.5389 31.487 20.5545 31.4841 20.5697C31.4812 20.5849 31.4749 20.5993 31.4655 20.6117C31.4561 20.624 31.444 20.6341 31.43 20.641C31.4161 20.6479 31.4007 20.6516 31.3851 20.6517L27.3665 20.6502Z" fill="#014FA0"/>
<path d="M27.366 20.6504L26.7539 20.6418C26.8282 20.0582 27.0086 19.4972 27.2951 18.9586C27.517 18.5406 27.6299 18.3268 27.6337 18.3172C28.0216 17.5318 28.4354 16.7594 28.8753 15.9998C28.9081 15.9424 28.9458 15.9391 28.9882 15.9898L29.2241 16.2768C29.2492 16.3083 29.2482 16.3385 29.2212 16.3672C29.1199 16.4776 28.981 16.5738 28.9245 16.7072C28.6568 17.3501 28.2039 17.9269 27.9521 18.4966C27.5517 19.3967 27.3178 20.0061 27.2503 20.3247C27.2097 20.5102 27.2483 20.6188 27.366 20.6504Z" fill="#014093"/>
<path d="M61.5927 16.4157C63.5651 19.0114 62.6621 23.3305 59.3483 24.3508C58.345 24.6598 57.4102 24.589 56.5439 24.1384L55.0215 22.5342C55.0045 22.5164 54.9922 22.4947 54.9857 22.471C54.9791 22.4472 54.9785 22.4221 54.9839 22.3979C55.1315 21.7321 54.9318 21.1366 55.0114 20.4894C55.0114 20.4868 55.0106 20.4844 55.0091 20.4823C55.0075 20.4803 55.0053 20.4788 55.0028 20.4781C55.0003 20.4775 54.9977 20.4777 54.9953 20.4787C54.9929 20.4797 54.9909 20.4814 54.9897 20.4837C54.8623 20.8123 54.9709 21.1466 54.845 21.4164C54.817 21.4747 54.8016 21.4719 54.7987 21.4078L54.7466 20.2943C54.7466 20.2905 54.745 20.2868 54.7423 20.2841C54.7396 20.2814 54.7359 20.2799 54.7321 20.2799C54.7283 20.2799 54.7246 20.2814 54.7219 20.2841C54.7192 20.2868 54.7176 20.2905 54.7176 20.2943L54.6713 20.8008C54.6684 20.8218 54.6602 20.8242 54.6467 20.808C54.6371 20.7965 54.6342 20.7802 54.638 20.7592C54.6564 20.6712 54.6559 20.5822 54.6366 20.4923C54.6364 20.4898 54.6357 20.4874 54.6346 20.4853C54.6335 20.4831 54.6319 20.4811 54.6301 20.4795C54.6282 20.4779 54.626 20.4767 54.6236 20.4759C54.6213 20.4752 54.6188 20.4749 54.6163 20.4751C54.6139 20.4753 54.6115 20.4759 54.6092 20.477C54.607 20.4781 54.6051 20.4797 54.6035 20.4815C54.6018 20.4834 54.6006 20.4856 54.5998 20.4879C54.5991 20.4902 54.5988 20.4927 54.599 20.4952L54.5729 20.8654C54.4745 19.9441 54.7041 19.0727 55.2617 18.2509C55.4547 17.9678 55.6582 17.5856 55.8724 17.1044C55.8819 17.0828 55.8959 17.0634 55.9133 17.0476C55.9308 17.0318 55.9514 17.0199 55.9737 17.0126C56.1724 16.9447 56.3504 16.8466 56.5077 16.7184C56.7286 16.5396 56.9037 16.4233 57.033 16.3698C57.9794 15.9809 58.8592 15.8661 59.8808 16.0412C60.2204 16.0995 60.5605 16.1493 60.901 16.1904C60.9483 16.1961 60.9859 16.2177 61.0139 16.255C61.1885 16.4913 61.3815 16.5448 61.5927 16.4157Z" fill="#0172C3"/>
<path d="M46.2734 25.6981C46.175 25.7421 46.119 25.7483 46.1055 25.7168C45.8238 25.0472 45.519 24.4124 45.191 23.8126C44.5996 22.6991 43.9209 21.6732 43.1549 20.7347C42.7469 20.1134 42.3981 20.0302 41.6239 19.7777C41.6027 19.77 41.5998 19.7585 41.6152 19.7432L41.6673 19.693C41.6895 19.671 41.6857 19.6557 41.6557 19.6471C41.6422 19.6432 41.6302 19.6394 41.6196 19.6356C41.6041 19.6308 41.5911 19.6337 41.5805 19.6442C41.4228 19.7977 41.3244 19.9685 41.3229 20.2038C41.3186 21.5039 41.0668 23.1368 40.9915 24.0437C40.9115 25.0089 40.8338 25.9741 40.7586 26.9393C40.7566 26.9719 40.7446 26.9962 40.7224 27.0125C40.6983 27.0307 40.6886 27.0249 40.6934 26.9953C40.705 26.9063 40.7441 26.7958 40.7455 26.7097C40.761 24.8128 40.8116 23.6189 40.8975 23.1282C41.0615 22.1964 41.1464 21.258 41.1522 20.3129C41.1551 20.0474 41.2361 19.8121 41.2998 19.5552C41.3059 19.5315 41.3181 19.5098 41.3351 19.4922C41.352 19.4746 41.3733 19.4617 41.3967 19.4548L41.9061 19.2998C41.9659 19.2826 41.9731 19.253 41.9278 19.2109L41.5602 18.8665C41.5332 18.8415 41.4977 18.8275 41.4607 18.8272C41.4237 18.8269 41.388 18.8404 41.3605 18.865C40.7007 19.4605 40.8541 20.0589 40.8599 20.7964C40.8671 21.7593 40.6746 22.735 40.6384 23.7108C40.6269 24.0135 40.501 24.3048 40.4793 24.6248C40.4359 25.2906 40.418 25.9569 40.4257 26.6236C40.4286 26.836 40.3157 26.9594 40.1016 26.9479V17.1245C40.1013 17.1158 40.1037 17.1072 40.1085 17.0999C40.1132 17.0926 40.1201 17.0869 40.1282 17.0834C40.1364 17.0799 40.1454 17.0788 40.1543 17.0802C40.1632 17.0816 40.1715 17.0856 40.1783 17.0915C42.8583 19.4935 44.89 22.3624 46.2734 25.6981ZM71.4411 18.2136C71.4488 18.2643 71.4459 18.3121 71.4324 18.3571C71.4228 18.3906 71.4011 18.4126 71.3673 18.4231L70.9997 18.5408C70.937 18.5608 70.9086 18.6039 70.9144 18.6699C70.9563 19.0803 70.8102 19.4663 70.7769 19.7949C70.7036 20.498 70.6679 21.202 70.6698 21.9071C70.6742 23.2487 70.5294 24.599 70.625 25.9607C70.6496 26.3008 70.5512 26.6165 70.5468 26.968C70.5468 27.0197 70.5265 27.0613 70.486 27.0929C70.049 27.4502 68.6931 27.2636 68.1157 27.2493C68.0231 27.2464 67.957 27.2211 67.9174 27.1732C67.875 27.1216 67.8408 27.0527 67.8147 26.9666L70.13 26.9637C70.1773 26.9637 70.201 26.9403 70.201 26.8934V17.1718C70.201 17.102 70.2265 17.091 70.2777 17.1388L71.4411 18.2136Z" fill="#014093"/>
<path d="M71.4414 18.2139C73.7914 20.6561 75.7696 23.701 76.7652 26.9525C76.7276 27.3132 76.8858 27.4576 77.2398 27.3859C77.2537 27.383 77.268 27.3829 77.2818 27.3858C77.2956 27.3886 77.3087 27.3942 77.3203 27.4023C77.3318 27.4104 77.3416 27.4208 77.3489 27.4327C77.3562 27.4447 77.361 27.4581 77.3628 27.472L77.3701 27.5236C77.3778 27.5801 77.4101 27.6073 77.467 27.6054C77.6735 27.6016 77.8529 27.6719 78.0054 27.8163C78.0391 27.8489 78.0796 27.868 78.1269 27.8737C78.7535 27.9426 79.3757 28.0502 79.6927 28.5611C79.7187 28.6032 79.7308 28.6486 79.7288 28.6974L79.7129 29.2627C79.7119 29.2962 79.7279 29.3115 79.7607 29.3087C79.7751 29.3077 79.7887 29.3077 79.8012 29.3087C79.8038 29.3089 79.8063 29.3098 79.8085 29.3112C79.8108 29.3126 79.8127 29.3144 79.8141 29.3166C79.8154 29.3189 79.8163 29.3214 79.8166 29.3239C79.8169 29.3265 79.8166 29.3292 79.8157 29.3316L79.5668 29.973C79.5504 30.0161 79.52 30.0448 79.4756 30.0591C79.0053 30.2069 78.4988 30.5958 78.1761 30.6001C78.1279 30.6001 78.0883 30.6192 78.0574 30.6575C77.961 30.779 77.838 30.8526 77.6884 30.8785C77.6479 30.8852 77.6117 30.9024 77.5799 30.9301L77.2963 31.1726L71.8335 33.2633C71.7974 33.2774 71.7651 33.3001 71.7395 33.3293C71.6835 33.3924 71.5943 33.446 71.4718 33.49C70.2157 33.9348 69.1169 34.2649 68.1753 34.4801C68.2255 34.3864 68.3345 34.283 68.5023 34.1702C68.7599 34.0994 68.9292 34.0324 69.0103 33.9693C69.5312 33.5589 70.1187 33.2972 70.7728 33.1844C71.0782 33.1327 71.2909 32.8156 71.288 32.5143C71.2841 32.2474 71.2359 31.9881 71.1433 31.7365C71.1278 31.6954 71.1331 31.6571 71.1592 31.6217C71.4168 31.2673 70.7091 29.8496 70.4979 29.4909C69.9899 28.6299 69.2027 28.7203 68.4271 28.2999C68.0465 28.0947 67.5444 28.0918 67.3519 27.67C67.3017 27.559 67.3182 27.5485 67.4011 27.6384L67.6196 27.8737C67.6418 27.8977 67.6683 27.9034 67.6992 27.891L67.7803 27.858C67.8208 27.8417 67.8251 27.8187 67.7933 27.7891L67.1754 27.2295C67.1339 27.1912 67.0847 27.1697 67.0278 27.1649C66.8049 27.1448 66.7162 27.0654 66.7615 26.9267L67.815 26.9669C67.841 27.053 67.8753 27.1218 67.9177 27.1735C67.9573 27.2213 68.0234 27.2467 68.116 27.2495C68.6934 27.2639 70.0493 27.4504 70.4863 27.0931C70.5268 27.0616 70.5471 27.02 70.5471 26.9683C70.5514 26.6168 70.6498 26.3011 70.6252 25.961C70.5297 24.5993 70.6744 23.249 70.6701 21.9073C70.6681 21.2023 70.7038 20.4983 70.7772 19.7951C70.8104 19.4665 70.9566 19.0806 70.9146 18.6702C70.9088 18.6042 70.9373 18.5611 71 18.541L71.3676 18.4234C71.4013 18.4128 71.423 18.3908 71.4327 18.3574C71.4462 18.3124 71.4491 18.2646 71.4414 18.2139ZM71.2605 23.6536C71.2865 23.6278 71.3068 22.9477 71.3502 22.7683C71.4669 22.29 71.4964 21.6127 71.4385 20.7365C71.4139 20.3792 71.4906 20.0405 71.5108 19.6789C71.5147 19.6187 71.5461 19.5828 71.6049 19.5713L72.0622 19.4823C72.1152 19.4718 72.1244 19.4455 72.0897 19.4034L71.8437 19.1021C71.8041 19.0543 71.7549 19.0409 71.6961 19.0619C71.4192 19.1633 71.274 19.3589 71.2605 19.6488C71.1592 21.8758 71.0502 24.1033 70.9334 26.3312C70.9151 26.6842 70.8254 27.0405 70.6643 27.4002C70.6489 27.4337 70.659 27.4552 70.6947 27.4648C70.7294 27.4744 70.7545 27.46 70.7699 27.4217C71.2127 26.2968 71.22 24.958 71.2229 23.7412C71.2229 23.7077 71.2354 23.6785 71.2605 23.6536Z" fill="#025FAF"/>
<path d="M71.2218 23.7412C71.2189 24.958 71.2117 26.2968 70.7689 27.4217C70.7534 27.46 70.7284 27.4743 70.6936 27.4648C70.6579 27.4552 70.6478 27.4337 70.6632 27.4002C70.8243 27.0405 70.9141 26.6842 70.9324 26.3312C71.0491 24.1032 71.1581 21.8758 71.2594 19.6488C71.2729 19.3589 71.4181 19.1633 71.695 19.0619C71.7539 19.0408 71.8031 19.0542 71.8426 19.1021L72.0886 19.4034C72.1233 19.4455 72.1142 19.4718 72.0611 19.4823L71.6038 19.5713C71.545 19.5828 71.5136 19.6186 71.5098 19.6789C71.4895 20.0405 71.4128 20.3791 71.4374 20.7364C71.4953 21.6127 71.4659 22.29 71.3492 22.7683C71.3057 22.9476 71.2855 23.6278 71.2594 23.6536C71.2344 23.6785 71.2218 23.7077 71.2218 23.7412Z" fill="#014FA0"/>
<path d="M43.1569 20.7351C43.9229 21.6735 44.6016 22.6995 45.1929 23.813C44.7183 23.5116 44.4651 23.8 43.9513 23.79C43.8144 23.7871 43.7372 23.8527 43.7198 23.9866C43.714 24.0258 43.6933 24.054 43.6576 24.0712L42.8081 24.4745C42.7999 24.4783 42.793 24.4845 42.7881 24.4924C42.7833 24.5002 42.7807 24.5095 42.7807 24.5189V24.5663C42.7787 24.6045 42.7585 24.6237 42.7199 24.6237C40.9978 24.5993 41.9862 26.8995 41.157 27.703C40.7287 28.1182 40.1851 28.2999 39.5262 28.2483C39.4548 28.2425 39.3964 28.266 39.3511 28.3186C39.3221 28.353 39.2855 28.3741 39.2411 28.3817C38.7259 28.4755 38.2098 28.4908 37.6927 28.4276C37.4978 28.4037 37.3444 28.4018 37.2325 28.4219C37.0319 28.4554 36.8872 28.5166 36.7984 28.6056C36.4612 28.937 35.9808 29.0561 35.8231 29.5067C35.8076 29.5517 35.7763 29.5718 35.729 29.567L35.5293 29.5469C35.4849 29.5421 35.4531 29.5593 35.4338 29.5985C35.1135 30.2184 34.9177 30.6173 34.8463 30.7953C34.5482 31.5457 34.143 32.1972 33.9375 32.8816C33.8536 33.161 33.7721 33.4422 33.693 33.7254C33.6797 33.7732 33.6797 33.8233 33.693 33.8703C33.7479 34.0702 33.704 34.2821 33.5613 34.506L28.715 32.8587C28.6725 32.608 28.7666 32.3426 28.9972 32.0623C29.0283 32.0249 29.0474 31.9789 29.0522 31.9303C29.2731 29.9539 29.96 28.1689 31.1128 26.5752C31.4268 26.1404 31.7625 25.9467 32.2705 26.2035C32.2242 27.0243 32.667 27.9283 33.5772 27.9757C34.5482 28.0273 35.6899 28.0287 36.6378 27.6887C37.2904 27.4548 37.4554 27.6915 38.0284 27.7389C38.8243 27.8049 39.6202 27.7934 40.4161 27.7045C40.4663 27.6987 40.5097 27.6791 40.5464 27.6456C40.7798 27.4361 40.9091 27.1625 40.9342 26.8248C41.0326 25.5162 41.1527 24.4314 41.3133 22.6234C41.3895 21.7586 41.487 21.0617 41.6056 20.5327C41.6355 20.3988 41.7445 20.3079 41.9327 20.2601C41.9761 20.2496 42.0185 20.2515 42.06 20.2658L42.5375 20.4265C42.5489 20.4303 42.5598 20.4372 42.5694 20.4466C42.7334 20.6083 42.9292 20.7044 43.1569 20.7351Z" fill="#0172C3"/>
<path d="M56.5442 24.1388C55.265 23.5361 54.4228 22.5584 54.0176 21.2058L54.2766 21.1642C54.3046 21.1594 54.3137 21.1441 54.3041 21.1183C54.2414 20.9518 54.2086 20.7791 54.2057 20.6003C54.2047 20.5199 54.2235 20.5151 54.2621 20.5859C54.3711 20.7878 54.4469 20.9992 54.4893 21.2201C54.4905 21.2244 54.4928 21.2282 54.4959 21.2313C54.4991 21.2343 54.503 21.2365 54.5073 21.2375C54.5116 21.2385 54.5161 21.2384 54.5203 21.2371C54.5245 21.2358 54.5283 21.2334 54.5313 21.2302L54.5588 21.1986C54.5597 21.1965 54.5615 21.1949 54.5637 21.1941C54.5658 21.1933 54.5683 21.1934 54.5704 21.1943C54.5725 21.1953 54.5741 21.197 54.5749 21.1992C54.5757 21.2013 54.5757 21.2037 54.5747 21.2058C54.567 21.311 54.5733 21.3636 54.5935 21.3636C54.6292 21.1905 54.6225 21.0245 54.5733 20.8657L54.5993 20.4955C54.5991 20.4931 54.5994 20.4906 54.6002 20.4883C54.601 20.4859 54.6022 20.4838 54.6038 20.4819C54.6054 20.48 54.6074 20.4785 54.6096 20.4774C54.6118 20.4763 54.6142 20.4756 54.6167 20.4754C54.6191 20.4752 54.6216 20.4755 54.624 20.4763C54.6263 20.4771 54.6285 20.4783 54.6304 20.4799C54.6323 20.4815 54.6338 20.4834 54.6349 20.4856C54.6361 20.4878 54.6367 20.4902 54.6369 20.4926C54.6562 20.5826 54.6567 20.6715 54.6384 20.7595C54.6345 20.7806 54.6374 20.7968 54.6471 20.8083C54.6606 20.8246 54.6688 20.8222 54.6717 20.8011L54.718 20.2946C54.718 20.2908 54.7195 20.2872 54.7222 20.2845C54.7249 20.2818 54.7286 20.2803 54.7324 20.2803C54.7363 20.2803 54.74 20.2818 54.7427 20.2845C54.7454 20.2872 54.7469 20.2908 54.7469 20.2946L54.799 21.4081C54.8019 21.4722 54.8173 21.4751 54.8453 21.4167C54.9712 21.147 54.8627 20.8126 54.99 20.484C54.9913 20.4818 54.9932 20.48 54.9956 20.479C54.998 20.478 55.0006 20.4778 55.0031 20.4785C55.0056 20.4792 55.0078 20.4806 55.0094 20.4827C55.0109 20.4847 55.0118 20.4872 55.0117 20.4898C54.9321 21.1369 55.1318 21.7324 54.9842 22.3982C54.9788 22.4225 54.9795 22.4476 54.986 22.4713C54.9926 22.4951 55.0049 22.5168 55.0219 22.5345L56.5442 24.1388Z" fill="#014FA0"/>
<path d="M53.6203 26.4499C53.2774 26.3725 53.1399 26.2017 52.878 25.8774C52.4395 25.335 50.6712 25.3321 50.907 26.4241C50.9116 26.4446 50.9112 26.4659 50.9059 26.4864C50.9006 26.5068 50.8906 26.5258 50.8767 26.5418L50.6306 26.8245L50.6133 26.7871L50.6321 25.777C50.579 24.8634 50.6509 23.9761 50.8477 23.1152C50.8542 23.0851 50.8699 23.0577 50.8926 23.0366C50.9153 23.0156 50.9439 23.002 50.9747 22.9976C51.0054 22.9932 51.0368 22.9983 51.0645 23.0122C51.0923 23.026 51.1151 23.0479 51.1299 23.075C51.3344 23.4433 51.5336 23.8164 51.7275 24.1942C51.8578 24.4468 52.0604 24.5487 52.2094 24.7625C52.6233 25.3575 53.0936 25.92 53.6203 26.4499Z" fill="#0197DF"/>
<path d="M64.7156 24.7352C64.6157 25.1556 63.9993 25.5933 63.6737 25.7784C63.6722 25.7795 63.6702 25.78 63.6683 25.7798C63.6664 25.7795 63.6647 25.7785 63.6636 25.777C63.6624 25.7754 63.6619 25.7735 63.6622 25.7716C63.6625 25.7698 63.6635 25.7681 63.665 25.7669C63.8512 25.5765 64.0422 25.391 64.2381 25.2102C64.5173 24.9533 64.5738 24.7668 64.733 24.4439C64.8907 24.1225 65.1642 23.8872 65.28 23.5457C65.3919 23.2147 65.4536 23.2233 65.4652 23.5715C65.4671 23.6222 65.4155 23.7112 65.3103 23.8384C65.0947 24.0981 65.0687 24.3765 64.7851 24.6218C64.7494 24.6525 64.7262 24.6902 64.7156 24.7352Z" fill="#014093"/>
<path d="M45.1903 23.8126C45.5183 24.4124 45.8231 25.0471 46.1048 25.7167C46.1183 25.7483 46.1743 25.7421 46.2727 25.6981L46.5578 26.615C46.4304 26.5212 46.3257 26.4834 46.2437 26.5016C46.1724 26.5179 46.1584 26.4968 46.2018 26.4385L46.2872 26.3251C46.3257 26.2744 46.3137 26.2548 46.251 26.2663L45.6244 26.371C45.5858 26.3777 45.5511 26.393 45.5202 26.417C45.0123 26.8101 44.4682 26.9522 43.9328 27.3037C43.3814 27.6653 42.7867 27.6969 42.2194 28.0025C42.1634 28.0331 42.1673 28.047 42.231 28.0441L42.2816 28.0413C42.3366 28.0403 42.3458 28.0599 42.3091 28.1001C42.0274 28.411 41.6512 28.6717 41.1804 28.8821C40.8736 29.0185 40.6435 29.337 40.3527 29.5049C39.6725 29.8966 38.9591 30.1879 38.7189 30.9915C38.606 31.3732 38.0576 31.5769 37.8434 31.973C37.4768 32.6512 37.0403 33.2806 36.5338 33.8613C36.3616 34.0608 36.078 34.243 35.8768 34.464C35.7784 34.5721 35.7885 34.6204 35.9072 34.6089C35.9255 34.607 35.9362 34.6156 35.939 34.6347C35.9401 34.6399 35.9425 34.6446 35.9461 34.6485C35.9496 34.6524 35.9542 34.6552 35.9593 34.6567C35.9643 34.6581 35.9697 34.6582 35.9748 34.6569C35.9799 34.6555 35.9846 34.6528 35.9882 34.6491L36.0678 34.5716C36.1576 34.4826 36.1715 34.4931 36.1098 34.6032C36.0008 34.7974 35.8334 34.9619 35.6077 35.0968L33.5586 34.5056C33.7014 34.2817 33.7453 34.0698 33.6903 33.8699C33.677 33.8229 33.677 33.7728 33.6903 33.725C33.7694 33.4418 33.8509 33.1606 33.9348 32.8813C34.1403 32.1968 34.5455 31.5453 34.8436 30.7949C34.915 30.617 35.1108 30.218 35.4311 29.5982C35.4504 29.5589 35.4823 29.5417 35.5266 29.5465L35.7263 29.5666C35.7736 29.5714 35.805 29.5513 35.8204 29.5063C35.9781 29.0558 36.4586 28.9367 36.7957 28.6052C36.8845 28.5162 37.0292 28.455 37.2298 28.4215C37.3418 28.4014 37.4951 28.4034 37.69 28.4273C38.2071 28.4904 38.7232 28.4751 39.2384 28.3814C39.2828 28.3737 39.3194 28.3527 39.3484 28.3182C39.3937 28.2656 39.4521 28.2422 39.5235 28.2479C40.1824 28.2996 40.726 28.1178 41.1543 27.7026C41.9835 26.8991 40.9952 24.5989 42.7172 24.6233C42.7558 24.6233 42.776 24.6042 42.778 24.5659V24.5186C42.778 24.5091 42.7806 24.4999 42.7855 24.492C42.7903 24.4841 42.7973 24.4779 42.8055 24.4741L43.6549 24.0709C43.6906 24.0536 43.7113 24.0254 43.7171 23.9862C43.7345 23.8523 43.8117 23.7867 43.9487 23.7896C44.4624 23.7997 44.7156 23.5112 45.1903 23.8126Z" fill="#0197DF"/>
<path d="M66.7294 23.9292L66.7222 25.2235C66.6382 24.9872 66.5056 24.7978 66.3242 24.6553C66.2683 24.6113 66.2359 24.6242 66.2273 24.694L66.2171 24.76C66.2113 24.8021 66.1877 24.8284 66.1462 24.8389C65.9132 24.8949 65.6296 25.1862 65.4545 25.169C65.4092 25.1642 65.3706 25.1776 65.3388 25.2091C65.0493 25.4904 64.5877 26.0773 64.197 26.2739C63.8989 26.4245 63.7354 26.6053 63.5313 26.8234C63.5014 26.856 63.4643 26.8765 63.4199 26.8851C63.2154 26.9263 63.0244 26.999 62.8469 27.1032C62.7398 27.1664 62.7123 27.2797 62.5227 27.3027C62.4745 27.3084 62.4335 27.328 62.3997 27.3615C62.173 27.5844 61.8764 27.6949 61.5098 27.693C62.3645 27.3228 62.9718 26.9861 63.3317 26.6828C63.6992 26.3729 64.1218 26.1648 64.3895 25.8635C64.8395 25.3584 65.4343 24.826 65.8293 24.2334C65.8833 24.1531 65.906 24.1554 65.8973 24.2406C65.8964 24.254 65.8959 24.2678 65.8959 24.2822C65.8961 24.2937 65.8995 24.305 65.9057 24.3147C65.9119 24.3245 65.9208 24.3324 65.9312 24.3377C65.9417 24.343 65.9535 24.3454 65.9654 24.3447C65.9772 24.344 65.9887 24.3403 65.9986 24.3338C66.0604 24.2946 66.0994 24.2401 66.1158 24.1703C66.1255 24.1282 66.1515 24.1009 66.194 24.0885L66.7294 23.9292Z" fill="#0172C3"/>
<path d="M32.0716 24.817L32.2684 26.2032C31.7605 25.9463 31.4247 26.14 31.1107 26.5748C29.9579 28.1685 29.271 29.9536 29.0501 31.9299C29.0454 31.9785 29.0262 32.0245 28.9951 32.0619C28.7645 32.3422 28.6704 32.6077 28.7129 32.8583L25.1835 31.4722L24.8579 30.3659C24.8453 30.3247 24.8188 30.3109 24.7783 30.3242C24.7214 30.3434 24.6726 30.3314 24.6321 30.2884C24.6032 30.2578 24.5873 30.2104 24.5844 30.1463C24.5699 29.8278 24.5921 29.5097 24.6509 29.1921C24.7956 28.4015 25.6509 28.1676 25.8838 27.4372C25.9745 27.154 26.0445 26.8647 26.0937 26.5691C26.0995 26.5385 26.1096 26.5093 26.1241 26.4815C26.1434 26.4442 26.167 26.4141 26.195 26.3911C26.2065 26.3816 26.2128 26.3687 26.2138 26.3524C26.2533 25.854 26.4318 25.4159 26.7492 25.038C26.7901 24.9891 26.848 24.9573 26.9113 24.949C28.2904 24.7726 29.8054 24.6491 31.1889 24.6004C31.5231 24.5889 31.7691 24.7108 32.0716 24.817Z" fill="#025FAF"/>
<path d="M66.7247 25.2231L66.7637 26.9264C66.7184 27.0651 66.8072 27.1445 67.03 27.1646C67.0869 27.1694 67.1361 27.1909 67.1776 27.2291L67.7955 27.7888C67.8273 27.8184 67.823 27.8414 67.7825 27.8576L67.7015 27.8906C67.6706 27.9031 67.644 27.8973 67.6219 27.8734L67.4034 27.6381C67.3204 27.5482 67.304 27.5587 67.3541 27.6697C67.5466 28.0915 68.0487 28.0944 68.4293 28.2996C69.205 28.72 69.9922 28.6296 70.5001 29.4906C70.7114 29.8493 71.419 31.267 71.1614 31.6214C71.1354 31.6568 71.1301 31.6951 71.1455 31.7362C71.2381 31.9878 71.2864 32.2471 71.2902 32.514C71.2931 32.8153 71.0804 33.1324 70.7751 33.1841C70.121 33.2969 69.5335 33.5586 69.0125 33.969C68.9315 34.0321 68.7622 34.0991 68.5046 34.1699L67.9793 34.144C67.976 34.1442 67.9728 34.1433 67.9701 34.1416C67.9674 34.1399 67.9652 34.1373 67.9639 34.1344C67.9627 34.1314 67.9624 34.1281 67.963 34.125C67.9637 34.1218 67.9653 34.119 67.9677 34.1168L68.0213 34.0637C68.0405 34.0436 68.0362 34.0335 68.0082 34.0335H67.9561C67.9454 34.0335 67.9351 34.0293 67.9275 34.0218C67.9199 34.0142 67.9156 34.004 67.9156 33.9934C67.9175 33.7944 67.8302 33.6686 67.6537 33.616C67.6026 33.6007 67.5635 33.5705 67.5365 33.5256C66.6267 31.9864 65.4411 30.6978 63.9795 29.6599C63.8445 29.5633 63.7321 29.4423 63.6424 29.2969C63.6115 29.2471 63.5666 29.2237 63.5078 29.2266C63.4229 29.2313 63.3573 29.194 63.311 29.1146C63.2869 29.0725 63.2536 29.0395 63.2111 29.0156L62.4152 28.5608C62.3741 28.5367 62.3258 28.528 62.2792 28.5364C61.9956 28.588 61.7423 28.5306 61.5195 28.3642C61.5098 28.3569 61.5022 28.3473 61.4976 28.3361C61.4929 28.325 61.4913 28.3128 61.4929 28.3008C61.4945 28.2888 61.4993 28.2773 61.5068 28.2675C61.5142 28.2577 61.5241 28.25 61.5354 28.2451C61.9174 28.0858 62.4934 28.2264 62.7553 27.9366C62.7968 27.8916 62.7891 27.8801 62.7322 27.9021C62.6434 27.9366 62.5493 27.9457 62.45 27.9294C62.4268 27.9256 62.4268 27.9208 62.45 27.915C62.4886 27.9064 62.4992 27.8873 62.4818 27.8576C62.477 27.8499 62.4702 27.8438 62.4622 27.8399C62.4542 27.8361 62.4455 27.8348 62.437 27.8361L62.2561 27.8663C62.2512 27.8672 62.2517 27.8591 62.2575 27.8419L62.2705 27.806C62.2725 27.7993 62.2701 27.7959 62.2633 27.7959L62.1808 27.7888C62.1673 27.7649 62.1509 27.7472 62.1316 27.7357C62.1152 27.7252 62.0925 27.7232 62.0636 27.7299C61.6497 27.8218 61.2195 27.8801 60.7728 27.905C60.7655 27.9043 60.7586 27.901 60.7534 27.8958C60.7482 27.8906 60.745 27.8838 60.7443 27.8765C60.7436 27.8692 60.7455 27.8619 60.7496 27.8559C60.7538 27.8498 60.7599 27.8454 60.767 27.8433L60.9826 27.816C61.0193 27.8113 61.0535 27.7998 61.0854 27.7816C61.2089 27.7098 61.3512 27.6802 61.5123 27.6926C61.8789 27.6945 62.1755 27.5841 62.4022 27.3612C62.436 27.3277 62.477 27.3081 62.5252 27.3023C62.7148 27.2794 62.7423 27.166 62.8494 27.1029C63.0269 26.9986 63.2179 26.9259 63.4224 26.8848C63.4668 26.8762 63.5039 26.8556 63.5338 26.8231C63.7379 26.605 63.9014 26.4242 64.1995 26.2735C64.5902 26.0769 65.0518 25.49 65.3413 25.2088C65.3731 25.1772 65.4117 25.1638 65.457 25.1686C65.6321 25.1858 65.9157 24.8945 66.1487 24.8386C66.1902 24.8281 66.2138 24.8017 66.2196 24.7597L66.2298 24.6937C66.2384 24.6238 66.2708 24.6109 66.3267 24.6549C66.5081 24.7974 66.6407 24.9869 66.7247 25.2231Z" fill="#0197DF"/>
<path d="M50.6344 25.7772L50.6156 26.7874L50.5707 26.8692C50.5447 26.9161 50.5307 26.9132 50.5288 26.8606L50.5143 26.5263C50.5128 26.5134 50.5068 26.5003 50.4975 26.4894C50.4882 26.4785 50.4762 26.4707 50.4639 26.4675C50.4517 26.4643 50.4399 26.4659 50.4311 26.472C50.4222 26.4781 50.4168 26.4882 50.4159 26.5004V26.5937C50.4159 26.6262 50.4053 26.6549 50.3841 26.6798L50.3537 26.7142C50.3373 26.7324 50.3305 26.7295 50.3334 26.7056C50.3653 26.4521 50.3498 26.2819 50.2871 26.1948L50.3074 25.7844C50.3653 25.7634 50.3903 25.7179 50.3826 25.6481C50.3778 25.6022 50.3908 25.5615 50.4217 25.5261C50.4352 25.5108 50.453 25.4989 50.4752 25.4903C50.4897 25.4845 50.4955 25.4888 50.4926 25.5032L50.4477 25.7041C50.4425 25.7281 50.4435 25.7531 50.4509 25.7768C50.4582 25.8004 50.4716 25.8218 50.4897 25.8389C50.5022 25.8514 50.5143 25.8624 50.5259 25.8719C50.5423 25.8853 50.5563 25.8834 50.5678 25.8662L50.6344 25.7772Z" fill="#0172C3"/>
<path d="M50.3044 25.784L50.2841 26.1944C50.2214 25.9849 50.2117 25.7644 50.2552 25.5329C50.2569 25.5277 50.2604 25.5232 50.265 25.5201C50.2697 25.5171 50.2752 25.5157 50.2808 25.5162C50.2863 25.5167 50.2915 25.5191 50.2955 25.5229C50.2996 25.5267 50.3022 25.5318 50.3029 25.5372L50.3044 25.784Z" fill="#025FAF"/>
<path d="M53.6178 26.4499C54.5941 27.13 55.638 27.6609 56.7493 28.0426C57.8694 28.4272 59.0097 28.4143 60.1891 28.3483C60.2325 28.3464 60.2691 28.3301 60.299 28.2995L60.3439 28.2564C60.3632 28.2373 60.3593 28.2249 60.3323 28.2191C60.3207 28.2172 60.3077 28.2158 60.2932 28.2148C60.2836 28.2148 60.2831 28.2139 60.2918 28.212L62.1774 27.7887L62.2598 27.7958C62.2666 27.7958 62.269 27.7992 62.2671 27.8059L62.2541 27.8417C62.2483 27.859 62.2478 27.8671 62.2526 27.8661L62.4335 27.836C62.442 27.8347 62.4508 27.836 62.4588 27.8398C62.4668 27.8436 62.4736 27.8498 62.4784 27.8575C62.4957 27.8872 62.4851 27.9063 62.4465 27.9149C62.4234 27.9207 62.4234 27.9254 62.4465 27.9293C62.5459 27.9455 62.6399 27.9365 62.7287 27.902C62.7856 27.88 62.7933 27.8915 62.7519 27.9365C62.4899 28.2263 61.914 28.0857 61.532 28.245C61.5206 28.2499 61.5108 28.2576 61.5033 28.2674C61.4958 28.2772 61.4911 28.2886 61.4895 28.3007C61.4879 28.3127 61.4895 28.3249 61.4941 28.336C61.4988 28.3472 61.5063 28.3568 61.516 28.3641C61.7389 28.5305 61.9921 28.5879 62.2758 28.5362C62.3223 28.5279 62.3706 28.5365 62.4118 28.5606L63.2077 29.0155C63.2501 29.0394 63.2834 29.0724 63.3075 29.1145C63.3538 29.1939 63.4194 29.2312 63.5043 29.2264C63.5632 29.2236 63.608 29.247 63.6389 29.2968C63.7286 29.4422 63.841 29.5632 63.9761 29.6598C65.4376 30.6977 66.6233 31.9863 67.533 33.5255C67.56 33.5704 67.5991 33.6006 67.6502 33.6159C67.8268 33.6685 67.9141 33.7943 67.9122 33.9932C67.9122 34.0039 67.9164 34.0141 67.924 34.0217C67.9316 34.0292 67.9419 34.0334 67.9527 34.0334H68.0048C68.0328 34.0334 68.0371 34.0435 68.0178 34.0636L67.9643 34.1166C67.9619 34.1188 67.9603 34.1217 67.9596 34.1249C67.9589 34.128 67.9592 34.1313 67.9605 34.1343C67.9618 34.1372 67.9639 34.1397 67.9666 34.1415C67.9694 34.1432 67.9726 34.144 67.9758 34.1439L68.5011 34.1697C68.3333 34.2826 68.2242 34.3859 68.1741 34.4797C66.1935 35.1072 64.1854 35.618 62.1499 36.0122C61.9666 35.5913 61.6829 35.2488 61.299 34.9848C61.2749 34.9685 61.2633 34.9747 61.2642 35.0034V35.0422C61.2642 35.0948 61.2454 35.1029 61.2078 35.0666C60.1717 34.0521 59.2398 33.1567 57.9157 32.5081C57.8848 32.4928 57.865 32.4708 57.8564 32.4421C57.8528 32.4314 57.8469 32.4216 57.8391 32.4134C57.8314 32.4052 57.822 32.3988 57.8115 32.3947C57.3672 32.2254 56.9172 31.9858 56.4527 31.8997C56.1372 31.8394 55.8333 31.6271 55.554 31.5697C54.9665 31.4491 54.4036 31.3085 53.8002 31.2985C52.9001 31.2841 51.999 31.286 51.097 31.3042C50.4126 31.3186 49.812 31.4922 49.1435 31.6314C48.6674 31.7304 48.2361 32.0217 47.6949 32.1982C47.1142 32.3866 46.4229 32.7755 45.6213 33.3647C45.3521 33.5628 45.1582 33.8598 44.8746 34.1023C44.2446 34.6428 43.6855 35.2751 43.1974 35.9993C43.0353 36.2389 42.8298 36.3881 42.5954 36.5302C40.2434 36.182 37.9141 35.7041 35.6074 35.0967C35.8332 34.9618 36.0005 34.7973 36.1096 34.6031C36.1713 34.4931 36.1573 34.4825 36.0676 34.5715L35.988 34.649C35.9843 34.6528 35.9797 34.6555 35.9746 34.6568C35.9695 34.6581 35.9641 34.6581 35.959 34.6566C35.954 34.6551 35.9494 34.6523 35.9458 34.6484C35.9423 34.6446 35.9398 34.6398 35.9388 34.6347C35.9359 34.6155 35.9253 34.6069 35.907 34.6088C35.7883 34.6203 35.7782 34.572 35.8766 34.4639C36.0777 34.2429 36.3614 34.0607 36.5336 33.8612C37.04 33.2806 37.4766 32.6511 37.8432 31.9729C38.0573 31.5768 38.6058 31.3731 38.7187 30.9914C38.9589 30.1878 39.6723 29.8966 40.3524 29.5048C40.6433 29.3369 40.8734 29.0184 41.1801 28.8821C41.6509 28.6716 42.0272 28.4109 42.3089 28.1C42.3455 28.0599 42.3364 28.0402 42.2814 28.0412L42.2307 28.0441C42.1671 28.0469 42.1632 28.0331 42.2192 28.0025C42.7864 27.6968 43.3812 27.6653 43.9325 27.3037C44.4679 26.9521 45.012 26.81 45.52 26.4169C45.5508 26.393 45.5856 26.3777 45.6241 26.371L46.2507 26.2662C46.3134 26.2547 46.3255 26.2743 46.2869 26.325L46.2015 26.4384C46.1581 26.4968 46.1721 26.5178 46.2435 26.5015C46.3255 26.4834 46.4302 26.5211 46.5575 26.6149C46.5884 26.8005 46.6472 26.9224 46.7341 26.9808L46.928 27.4328C46.9463 27.4749 46.9757 27.5074 47.0162 27.5304C47.4369 27.7676 47.7123 27.8968 47.8425 27.9178C48.3731 28.0049 49.0364 27.9867 49.8323 27.8633C50.414 27.7714 50.6455 27.3711 50.6282 26.8244L50.8742 26.5417C50.8881 26.5257 50.8982 26.5067 50.9034 26.4863C50.9087 26.4659 50.9091 26.4446 50.9046 26.424C50.6687 25.3321 52.437 25.3349 52.8755 25.8773C53.1374 26.2016 53.2749 26.3724 53.6178 26.4499Z" fill="#4EB6EC"/>
<path d="M25.187 31.4727L28.7164 32.8588L33.5627 34.5061L35.6118 35.0973C37.9184 35.7048 40.2477 36.1826 42.5997 36.5308L45.1654 36.8623C49.7421 37.3233 54.3626 37.2248 59.0271 36.5667L62.1542 36.0128C64.1898 35.6187 66.1978 35.1078 68.1784 34.4803C69.12 34.265 70.2188 33.935 71.4749 33.4902C71.5974 33.4462 71.6866 33.3926 71.7426 33.3295C71.7683 33.3003 71.8005 33.2776 71.8367 33.2635L77.2994 31.1728C78.4976 30.7294 79.538 30.0392 80.619 30.1368C80.715 30.1452 80.8039 30.1904 80.8668 30.2627C80.9298 30.335 80.9618 30.4288 80.9562 30.5242C80.935 30.8609 80.8361 31.158 80.6595 31.4153C80.3296 31.8965 79.9268 32.3059 79.4512 32.6436C72.2809 37.7433 64.2684 40.8728 55.4484 41.6219C53.0419 41.8271 50.168 41.6864 48.0885 41.7209C47.3332 41.7338 46.7051 41.6161 45.983 41.5616C37.438 40.9173 29.1013 37.5596 22.313 32.6307C21.8862 32.3207 20.7212 31.18 20.769 30.5845C20.8168 29.9804 21.8181 30.0894 22.2363 30.2631C23.1673 30.6505 24.1508 31.0537 25.187 31.4727Z" fill="#D82905"/>
<path d="M62.1521 36.0123L59.025 36.5661C58.9555 36.2361 58.6671 35.953 58.1596 35.7167C58.0776 35.6784 57.9908 35.6177 57.8991 35.5344C57.7009 35.3522 57.4129 35.2718 57.2639 35.1829C56.7458 34.8801 56.29 34.5587 55.7039 34.3822C55.0846 34.1971 54.5578 33.8943 53.8994 33.8498C53.61 33.8298 53.3452 33.7939 53.1049 33.7422C52.2164 33.5499 51.5551 33.7193 50.4872 33.9288C49.2166 34.1799 48.1154 34.6261 47.1386 35.4842C46.7296 35.8439 46.279 36.1481 45.787 36.3968C45.7234 36.4293 45.707 36.4136 45.7378 36.3495L45.7711 36.2806C45.7734 36.2759 45.7741 36.2705 45.7731 36.2654C45.7721 36.2602 45.7695 36.2556 45.7656 36.252C45.7617 36.2485 45.7567 36.2463 45.7515 36.2457C45.7462 36.2452 45.7409 36.2463 45.7364 36.249C45.5849 36.3447 45.4909 36.4781 45.4542 36.6494C45.4465 36.6848 45.4253 36.7058 45.3905 36.7125C45.2883 36.7307 45.2125 36.7804 45.1633 36.8617L42.5977 36.5303C42.8321 36.3882 43.0376 36.239 43.1996 35.9994C43.6878 35.2752 44.2469 34.6429 44.8768 34.1024C45.1604 33.8599 45.3544 33.5629 45.6235 33.3648C46.4252 32.7756 47.1164 32.3867 47.6972 32.1982C48.2384 32.0218 48.6696 31.7305 49.1457 31.6315C49.8143 31.4923 50.4148 31.3186 51.0993 31.3043C52.0013 31.2861 52.9024 31.2842 53.8024 31.2986C54.4059 31.3086 54.9688 31.4492 55.5563 31.5698C55.8356 31.6272 56.1395 31.8395 56.455 31.8998C56.9195 31.9859 57.3695 32.2255 57.8138 32.3948C57.8242 32.3989 57.8337 32.4053 57.8414 32.4135C57.8492 32.4217 57.855 32.4315 57.8586 32.4422C57.8673 32.4709 57.8871 32.4929 57.918 32.5082C59.242 33.1568 60.174 34.0522 61.2101 35.0667C61.2477 35.103 61.2665 35.0949 61.2665 35.0423V35.0035C61.2655 34.9748 61.2771 34.9686 61.3012 34.9849C61.6852 35.2489 61.9688 35.5914 62.1521 36.0123Z" fill="#A3D8F6"/>
<path d="M59.0257 36.5663C54.3613 37.2244 49.7407 37.323 45.1641 36.8619C45.2133 36.7806 45.289 36.7308 45.3913 36.7126C45.426 36.7059 45.4472 36.6849 45.4549 36.6495C45.4916 36.4783 45.5856 36.3448 45.7371 36.2492C45.7417 36.2465 45.7469 36.2453 45.7522 36.2459C45.7575 36.2464 45.7624 36.2486 45.7663 36.2521C45.7702 36.2557 45.7728 36.2604 45.7738 36.2655C45.7748 36.2707 45.7741 36.276 45.7718 36.2807L45.7386 36.3496C45.7077 36.4137 45.7241 36.4295 45.7878 36.397C46.2798 36.1482 46.7303 35.844 47.1393 35.4843C48.1161 34.6263 49.2174 34.18 50.4879 33.9289C51.5558 33.7194 52.2172 33.5501 53.1057 33.7424C53.3459 33.794 53.6107 33.8299 53.9001 33.85C54.5585 33.8945 55.0853 34.1972 55.7046 34.3823C56.2907 34.5588 56.7465 34.8802 57.2646 35.183C57.4136 35.272 57.7016 35.3523 57.8999 35.5346C57.9915 35.6178 58.0783 35.6785 58.1603 35.7168C58.6678 35.9531 58.9562 36.2362 59.0257 36.5663Z" fill="#D9EEFA"/>
</g>
<defs>
<clipPath id="clip0_1115_2125">
<rect width="102" height="46" fill="white"/>
</clipPath>
</defs>
</svg>
