<svg width="196" height="33" viewBox="0 0 196 33" fill="none" xmlns="http://www.w3.org/2000/svg">
<path d="M168.574 23.296V19.4603H174.897V15.9209H168.574V12.4054H176.582V8.69458H163.83V27.0103H176.965L177.298 23.296H168.574Z" fill="black"/>
<path d="M184.614 12.2304H186.779C188.626 12.2304 189.218 12.7504 189.218 14.3629C189.218 15.9662 188.557 16.5635 186.779 16.5635H184.614V12.2304ZM192.001 20.4083C191.478 19.5635 190.936 19.0343 190.342 18.6755C192.757 17.8897 193.84 16.5214 193.84 14.1153C193.84 10.4669 191.577 8.69556 186.926 8.69556H179.865V27.0112H184.614V19.7849H185.219C186.287 19.7849 186.674 20.0665 187.509 21.4677L190.813 27.0112H195.994L192.001 20.4083Z" fill="black"/>
<path d="M42.6606 0H4.76061C2.15551 0 0 2.04958 0 4.69871V28.2513C0 30.8993 2.15551 33 4.76061 33H42.6606C45.2178 33 47.3745 30.8993 47.3745 28.2513V4.69871C47.3745 2.04958 45.2178 0 42.6606 0Z" fill="#ED1C24"/>
<path d="M43.915 28.2503C43.915 29.0009 43.4141 29.6016 42.6621 29.6016H4.76096C4.01013 29.6016 3.45898 29.0009 3.45898 28.2503V4.6977C3.45898 3.94827 4.01013 3.34872 4.76096 3.34872H42.6621C43.4141 3.34872 43.915 3.94827 43.915 4.6977V28.2503Z" fill="white"/>
<path d="M35.9464 20.9478C35.9464 18.7483 34.5429 18.2487 32.4878 18.2487H30.5822V23.7979H32.4376C34.293 23.7979 35.9464 23.1984 35.9464 20.9478ZM30.5822 14.2495H32.3885C34.0922 14.2495 35.3439 13.4989 35.3439 11.6492C35.3439 9.59844 33.7396 9.04772 32.0359 9.04772H30.5822V14.2495ZM33.8411 27.2998H25.4199V5.69799H34.2428C38.4043 5.69799 40.658 7.39897 40.658 11.4493C40.658 13.55 38.9041 15.0489 36.9985 15.9993C39.6572 16.7476 41.4613 18.3509 41.4613 21.0489C41.4613 25.4501 37.7516 27.2998 33.8411 27.2998Z" fill="#ED1C24"/>
<path d="M17.949 16.8486C17.949 12.4974 17.496 9.09996 12.7856 9.09996H11.7312V23.799H13.5855C16.3435 23.799 17.949 21.5996 17.949 16.8486ZM14.4892 27.2998H6.51758V5.69913H14.4892C20.1033 5.69913 23.1101 9.19875 23.1101 16.399C23.1101 22.6499 21.1052 27.2498 14.4892 27.2998Z" fill="#ED1C24"/>
<path d="M67.1684 16.3272C67.1718 16.3284 66.8717 16.2023 66.8717 16.2023C64.9592 15.387 64.8828 15.3575 64.4309 15.0384C63.8033 14.6001 63.5945 14.2617 63.5945 13.6929C63.5945 12.6891 64.4366 12.177 66.1037 12.177C67.5769 12.177 68.6541 12.4268 70.3668 13.1751L70.635 13.2897V9.45969L70.5083 9.412C68.8629 8.82041 67.4856 8.56492 65.9052 8.56492C61.6558 8.56492 59.2207 10.5952 59.2207 14.1334C59.2207 16.7996 60.4348 18.3291 63.5511 19.5895C66.8648 20.9578 67.1786 21.3007 67.1786 22.3C67.1786 23.465 66.1893 24.06 64.2438 24.06C62.5629 24.06 61.2929 23.7284 59.3964 22.7973L59.1191 22.6611V26.4922L59.2298 26.5456C60.9928 27.3461 62.5298 27.6709 64.5416 27.6709C69.1892 27.6709 71.751 25.6406 71.751 21.9548C71.751 19.1614 70.5928 17.7409 67.1684 16.3272Z" fill="black"/>
<path d="M87.0621 23.1582C85.3082 23.8066 84.166 24.0337 82.6883 24.0337C79.6154 24.0337 78.4184 22.402 78.4184 18.2063C78.4184 13.8278 79.5811 12.2029 82.7145 12.2029C84.166 12.2029 85.436 12.4584 86.9571 13.0511L87.2184 13.1545V9.36415L87.094 9.31646C85.6677 8.80208 84.2379 8.5659 82.5902 8.5659C80.0307 8.5659 77.8535 9.28012 76.2902 10.6371C74.3344 12.329 73.4238 14.7396 73.4238 18.2313C73.4238 21.1927 74.0446 23.3115 75.3762 24.891C76.9258 26.7112 79.3677 27.6719 82.4395 27.6719C84.1592 27.6719 85.808 27.3255 87.2081 26.6681L87.3188 26.6181V23.0629L87.0621 23.1582Z" fill="black"/>
<path d="M101.314 8.98658V16.0892H94.7559V8.98658H90.0078V27.3022H94.7559V19.7523H101.314V27.3022H106.062V8.98658H101.314Z" fill="black"/>
<path d="M114.343 23.588V19.7523H120.667V16.2129H114.343V12.6974H122.351V8.98657H109.596V27.3022H122.732L123.062 23.588H114.343Z" fill="black"/>
<path d="M137.266 8.98658V18.996C136.64 18.1751 129.621 8.98658 129.621 8.98658H125.639V27.3022H129.666V16.23C130.299 17.0566 138.134 27.3022 138.134 27.3022H141.294V8.98658H137.266Z" fill="black"/>
<path d="M153.622 17.6153C153.803 17.3882 160.572 8.98657 160.572 8.98657H155.639C155.639 8.98657 150.191 16.0165 149.577 16.8057V8.98657H144.832V27.3022H149.577V19.5558C150.191 20.353 155.541 27.3022 155.541 27.3022H161.182C161.182 27.3022 153.802 17.8446 153.622 17.6153Z" fill="black"/>
</svg>
