<svg width="158" height="72" viewBox="0 0 158 72" fill="none" xmlns="http://www.w3.org/2000/svg">
<g clip-path="url(#clip0_936_1308)">
<path d="M5.75574 54.8042C30.6438 65.185 58.4459 71.3546 85.4164 70.1957C108.83 69.1918 132.243 62.7346 153.759 53.6789C155.874 52.788 156.879 51.2713 156.774 49.1286C156.736 48.3006 156.716 47.8806 156.716 47.8686C156.712 38.8564 156.712 29.8426 156.718 20.8273C156.721 17.8739 156.965 15.9558 154.356 14.6913C151.834 13.4673 148.638 12.3151 145.665 11.3538C136.5 8.39366 127.065 6.14546 117.359 4.60922C90.4226 0.343394 63.5791 0.548526 36.8283 5.22461C25.7976 7.15389 14.4328 9.93214 4.07681 14.1972C1.82628 15.1248 1.20312 16.7576 1.20312 19.1271C1.20611 29.1051 1.20686 39.0854 1.20537 49.068C1.20313 52.7828 2.37771 53.3959 5.75574 54.8042Z" stroke="#8597C0" stroke-width="2"/>
<path d="M35.7365 30.4854C34.6143 34.278 33.8133 38.1456 33.3336 42.088C33.3246 42.1554 33.3545 42.1898 33.4233 42.1913L38.209 42.2654C38.2774 42.2664 38.3437 42.2419 38.395 42.1967C38.4464 42.1514 38.4792 42.0887 38.4869 42.0206L39.0137 37.2367C39.0272 37.1079 39.0989 37.0436 39.2289 37.0436H49.6925C49.7287 37.0437 49.7636 37.0567 49.7908 37.0802C49.818 37.1038 49.8356 37.1362 49.8405 37.1716L50.0669 38.7887" stroke="#8597C0" stroke-width="2"/>
<path d="M50.0691 38.7881C50.0168 38.857 49.8883 38.8757 49.6836 38.8442" stroke="#063F91" stroke-width="2"/>
<path d="M49.6787 38.8447C49.2102 38.6785 48.8292 38.4876 48.3114 38.5056C46.1684 38.5819 43.8215 38.7751 41.6853 39.0513C41.5873 39.0643 41.4976 39.1141 41.4342 39.1906C40.9426 39.782 40.6661 40.4678 40.6049 41.2479C40.6034 41.2733 40.5936 41.2936 40.5757 41.3085C40.5324 41.3445 40.4958 41.3916 40.4659 41.45C40.4435 41.4934 40.4278 41.5391 40.4188 41.587C40.3426 42.0497 40.2343 42.5026 40.0938 42.9458C39.7329 44.089 38.4081 44.4551 38.184 45.6926C38.0928 46.1897 38.0584 46.6876 38.0809 47.1862C38.0853 47.2865 38.11 47.3606 38.1548 47.4086C38.2176 47.4759 38.2931 47.4946 38.3812 47.4647C38.444 47.4437 38.4851 47.4655 38.5045 47.5298L39.0089 49.2615" stroke="#074798" stroke-width="2"/>
<path d="M39.0137 49.261C37.4087 48.6051 35.8852 47.974 34.4431 47.3676C33.7953 47.0959 32.2441 46.9252 32.1702 47.8707C32.0962 48.8028 33.9007 50.5883 34.5619 51.0734C45.0771 58.7883 57.9908 64.0439 71.2272 65.0523C72.3457 65.1376 73.3186 65.3218 74.4887 65.3016C77.7098 65.2477 82.1615 65.4678 85.8893 65.1466C99.5516 63.9742 111.963 59.0758 123.07 51.0937C123.807 50.5651 124.431 49.9243 124.942 49.1711C125.215 48.7683 125.368 48.3034 125.401 47.7764C125.41 47.6271 125.36 47.4803 125.263 47.3671C125.165 47.2538 125.028 47.1831 124.879 47.17C123.205 47.0172 121.593 48.0976 119.737 48.7916" stroke="#722C43" stroke-width="2"/>
<path d="M119.729 48.7919L120.169 48.4123C120.218 48.3689 120.274 48.342 120.337 48.3315C120.569 48.291 120.759 48.1757 120.909 47.9856C120.956 47.9257 121.018 47.8958 121.092 47.8958C121.592 47.889 122.377 47.2804 123.105 47.049C123.174 47.0266 123.221 46.9817 123.246 46.9143L123.632 45.9103C123.633 45.9065 123.634 45.9024 123.633 45.8983C123.633 45.8943 123.632 45.8904 123.63 45.8869C123.627 45.8834 123.624 45.8805 123.621 45.8783C123.618 45.8762 123.614 45.8748 123.61 45.8744C123.59 45.8729 123.569 45.8729 123.547 45.8744C123.496 45.8789 123.471 45.8549 123.473 45.8025L123.498 44.9176C123.501 44.8412 123.482 44.7701 123.442 44.7042C122.951 43.9047 121.987 43.7362 121.016 43.6284C120.943 43.6194 120.88 43.5895 120.828 43.5386C120.592 43.3125 120.314 43.2024 119.994 43.2084C119.906 43.2114 119.856 43.1688 119.844 43.0804L119.833 42.9996C119.83 42.9778 119.822 42.9569 119.811 42.9382C119.8 42.9194 119.785 42.9032 119.767 42.8906C119.749 42.8779 119.728 42.8691 119.707 42.8647C119.686 42.8602 119.663 42.8603 119.642 42.8648C119.094 42.9771 118.849 42.751 118.907 42.1865" stroke="#074798" stroke-width="2"/>
<path d="M118.91 42.1861L123.335 42.1906C123.411 42.1906 123.449 42.1532 123.447 42.0783L123.429 19.0033C123.429 18.9299 123.393 18.8933 123.319 18.8933L120.275 18.8618" stroke="#8597C0" stroke-width="2"/>
<path d="M120.279 18.862C120.438 18.7662 120.615 18.7243 120.808 18.7362C120.876 18.7407 120.914 18.7093 120.92 18.6419C120.975 18.043 120.736 17.5923 120.202 17.2898C120.155 17.2633 120.116 17.2254 120.088 17.1798C119.951 16.9642 119.758 16.8137 119.512 16.7284C119.451 16.7074 119.398 16.6722 119.355 16.6228C118.683 15.8637 117.813 15.511 117.051 14.9271C116.998 14.8867 116.96 14.8358 116.934 14.7744C116.853 14.5767 116.71 14.4959 116.504 14.5318C116.45 14.5408 116.423 14.5183 116.423 14.4644V14.3611C116.423 14.2937 116.394 14.2443 116.336 14.2129C115.845 13.9501 115.547 13.5054 115.076 13.2741C114.412 12.9462 113.768 12.5816 113.144 12.1803C111.191 10.9248 108.88 10.379 106.735 9.46268C105.417 8.90119 104.186 8.7844 102.819 8.48793C102.182 8.35018 101.861 8.28055 101.855 8.27906C97.0148 7.45105 93.6891 6.8963 91.8779 6.6148C91.3474 6.53095 90.5457 6.45235 89.4727 6.37898C89.3995 6.37449 89.3457 6.33855 89.3113 6.27117C89.2665 6.18283 89.2067 6.13042 89.132 6.11395C88.7733 6.0301 88.3235 5.99043 87.7826 5.99492C87.7482 5.99492 87.731 6.01214 87.731 6.04658V6.11171C87.731 6.121 87.7288 6.13016 87.7247 6.13848C87.7206 6.1468 87.7146 6.15406 87.7073 6.15971C87.6999 6.16535 87.6913 6.16922 87.6822 6.17102C87.6732 6.17283 87.6638 6.17251 87.6548 6.1701C86.6797 5.91406 85.68 6.13192 84.9425 6.13641C83.5363 6.14689 82.1308 6.12369 80.7261 6.06679C80.6679 6.06379 80.62 6.03984 80.5827 5.99492C80.5673 5.97665 80.5478 5.96196 80.5258 5.95188C80.5037 5.94179 80.4795 5.93655 80.4549 5.93652C78.7633 5.95749 77.0716 5.98294 75.38 6.01289C74.1875 6.0331 72.1163 5.8377 70.4239 6.13866C70.3626 6.14914 70.341 6.18508 70.3589 6.24647L70.3948 6.36101C70.4142 6.4209 70.3933 6.45759 70.332 6.47106C70.0271 6.53844 69.7888 6.57812 69.6169 6.5901C66.0685 6.85063 62.751 7.28185 59.252 8.22965C59.1145 8.26708 58.9673 8.28879 58.8104 8.29478C57.7613 8.33296 56.7369 8.69007 55.7103 8.91017C53.2513 9.44471 50.9201 10.2869 48.6449 11.3628C48.1047 11.6166 47.3784 11.648 46.8628 11.9287C45.2758 12.7889 43.4467 13.5256 41.965 14.5341C41.1356 15.1 40.1224 15.5402 39.4164 16.0276C37.9638 17.0278 36.5188 18.037 35.0812 19.0552C34.0568 19.7806 32.1133 21.4583 32.7029 22.8913C32.7313 22.9601 32.7425 23.0305 32.7365 23.1024C32.6939 23.6998 33.0817 23.902 33.3215 24.2972C34.3377 25.9697 34.9347 27.7762 35.1126 29.7167C35.1484 30.112 35.312 30.4893 35.7379 30.4849" stroke="#06378A" stroke-width="2"/>
<path d="M120.282 18.8617L118.363 18.873C118.284 18.873 118.244 18.9119 118.244 18.9897L118.242 29.6828C118.242 29.7936 118.207 29.8055 118.136 29.7187C117.217 28.5792 116.292 27.4435 115.359 26.3116C113.292 23.8036 110.985 21.5389 108.437 19.5175C107.518 18.7876 106.702 18.7337 105.586 18.855" stroke="#80A0C9" stroke-width="2"/>
<path d="M105.582 18.8551C105.362 17.9672 104.724 17.4469 103.668 17.2942C103.252 17.2343 102.91 17.1437 102.641 17.0224C101.571 16.5403 100.465 16.1412 99.3235 15.8253C99.2488 15.8058 99.1771 15.8133 99.1084 15.8478C98.6578 16.0813 98.409 15.7355 98.0862 15.6187C97.3196 15.3424 96.5978 14.9134 95.764 14.891C94.9137 14.8685 94.0693 14.7757 93.231 14.6125C93.1847 14.6035 93.1787 14.5833 93.2131 14.5518C93.231 14.5369 93.2497 14.5249 93.2691 14.5159C93.299 14.5039 93.2982 14.4949 93.2669 14.489C91.9152 14.2644 90.5725 14.0016 89.2141 13.9297C87.6301 13.8444 86.043 13.7762 84.453 13.7253C84.3798 13.7223 84.3111 13.7396 84.2468 13.777C83.9479 13.9447 83.6348 13.9567 83.3076 13.8129C83.2448 13.786 83.1813 13.7837 83.1171 13.8062C82.3437 14.0735 81.8954 13.6916 81.2521 13.6602C77.9062 13.4955 74.8165 13.5584 71.9832 13.8489C70.4074 14.0106 68.7666 14.0443 67.509 14.2352C66.2672 14.4238 65.0344 14.6641 63.8105 14.9561C63.7436 14.9721 63.6733 14.965 63.611 14.9359C63.4466 14.8565 63.2927 14.8768 63.1492 14.9965C63.0932 15.0424 63.0272 15.0746 62.9564 15.0909C61.2767 15.4667 59.6352 15.9601 58.0317 16.571C57.2965 16.8525 56.5657 17.0756 55.8395 17.2403C54.3884 17.5697 53.3797 17.8811 52.8133 18.1746C51.6948 18.754 49.5743 19.9107 49.6886 21.5547C49.6913 21.5982 49.7057 21.6401 49.7301 21.676C49.7546 21.712 49.7883 21.7407 49.8276 21.7591C50.0771 21.8759 50.1952 22.0833 50.1817 22.3813C50.1803 22.4202 50.169 22.4232 50.1481 22.3902C49.8373 21.8961 49.5041 21.4155 49.1484 20.9483C48.9526 20.6923 48.7352 20.6698 48.4961 20.881" stroke="#01489A" stroke-width="2"/>
<path d="M48.4973 20.8809L47.1434 19.1493C47.12 19.1194 47.091 19.0946 47.0583 19.0765C47.0255 19.0583 46.9896 19.0472 46.9528 19.0437C45.3905 18.8977 43.6667 18.8101 42.1155 19.0931C41.5641 19.1942 40.9387 20.142 40.5689 20.6698C38.402 23.7737 36.7918 27.0453 35.7383 30.4846" stroke="#80A0C9" stroke-width="2"/>
<path d="M118.911 42.1862C117.369 37.0968 114.304 32.3309 110.664 28.5083" stroke="#81AFD7" stroke-width="2"/>
<path d="M110.668 28.5086L108.866 26.8264C108.787 26.7515 108.747 26.7688 108.747 26.8781V42.0944C108.747 42.1678 108.711 42.2045 108.637 42.2045L105.051 42.209" stroke="#80A0C9" stroke-width="2"/>
<path d="M105.046 42.2084L103.414 42.1455" stroke="#81AFD7" stroke-width="2"/>
<path d="M103.416 42.1459L103.355 39.48" stroke="#80CBEF" stroke-width="2"/>
<path d="M103.355 39.48L103.367 37.4541" stroke="#80B9E1" stroke-width="2"/>
<path d="M105.582 18.855L103.553 18.8572C103.47 18.8587 103.428 18.9014 103.428 18.9852L103.367 37.4538" stroke="#80A7D0" stroke-width="2"/>
<path d="M103.37 37.4541L102.541 37.7034C102.475 37.7229 102.435 37.7655 102.42 37.8314C102.395 37.9407 102.334 38.0261 102.238 38.0875C102.223 38.0975 102.205 38.1034 102.187 38.1045C102.169 38.1055 102.15 38.1017 102.134 38.0935C102.118 38.0852 102.104 38.0728 102.095 38.0576C102.085 38.0423 102.08 38.0247 102.079 38.0066C102.079 37.9842 102.08 37.9624 102.082 37.9415C102.095 37.8082 102.06 37.8045 101.976 37.9303C101.364 38.8578 100.443 39.6911 99.7459 40.4817C99.3312 40.9533 98.6766 41.279 98.1073 41.7641C97.5499 42.2387 96.6092 42.7658 95.2852 43.3453" stroke="#0161B2" stroke-width="2"/>
<path d="M95.2836 43.3451C95.034 43.3257 94.8136 43.3721 94.6223 43.4844C94.573 43.5128 94.52 43.5308 94.4632 43.5383L94.1292 43.581C94.1182 43.5842 94.1087 43.5911 94.1023 43.6006C94.0958 43.6101 94.0929 43.6215 94.094 43.6329C94.095 43.6444 94.1 43.6551 94.1081 43.6632C94.1161 43.6713 94.1268 43.6764 94.1382 43.6775C94.83 43.6386 95.4965 43.5473 96.1376 43.4035C96.1825 43.393 96.2176 43.396 96.243 43.4125C96.2729 43.4305 96.2983 43.4582 96.3192 43.4956" stroke="#0173C0" stroke-width="2"/>
<path d="M96.3174 43.4954L93.3967 44.1579C93.3832 44.1609 93.384 44.1624 93.3989 44.1624C93.4213 44.1639 93.4415 44.1662 93.4594 44.1692C93.5013 44.1782 93.5073 44.1976 93.4774 44.2276L93.4079 44.2949C93.3616 44.3429 93.3048 44.3683 93.2375 44.3713C91.4107 44.4746 89.6443 44.4948 87.9093 43.8929C86.1878 43.2955 84.5709 42.4645 83.0586 41.3999" stroke="#2883C6" stroke-width="2"/>
<path d="M83.0613 41.4007C82.2453 40.5711 81.5168 39.6907 80.8757 38.7594C80.6449 38.4248 80.331 38.2653 80.1293 37.87C79.8289 37.2786 79.5203 36.6946 79.2035 36.1182C79.1806 36.0758 79.1453 36.0414 79.1023 36.0198C79.0593 35.9981 79.0107 35.9902 78.9631 35.997C78.9155 36.0039 78.8711 36.0252 78.8359 36.0581C78.8008 36.091 78.7765 36.1339 78.7664 36.181C78.4616 37.5286 78.3502 38.9174 78.4324 40.3473" stroke="#0173C0" stroke-width="2"/>
<path d="M78.4324 40.3471L78.3293 40.4863C78.3113 40.5133 78.2897 40.5163 78.2643 40.4953C78.2463 40.4803 78.2276 40.4631 78.2082 40.4437C78.1802 40.4168 78.1595 40.3833 78.1481 40.3463C78.1367 40.3094 78.135 40.2702 78.1432 40.2325L78.2127 39.9181C78.2172 39.8956 78.2082 39.8889 78.1858 39.8979C78.1514 39.9114 78.1238 39.9301 78.1029 39.954C78.055 40.0094 78.0349 40.0731 78.0423 40.145C78.0543 40.2543 78.0154 40.3254 77.9258 40.3583" stroke="#0161B2" stroke-width="2"/>
<path d="M77.9261 40.3583L77.9238 39.972C77.9227 39.9634 77.9186 39.9555 77.9124 39.9496C77.9062 39.9436 77.8981 39.9399 77.8895 39.9391C77.8809 39.9383 77.8723 39.9405 77.8651 39.9452C77.8579 39.95 77.8525 39.9571 77.8499 39.9653C77.7826 40.3276 77.7976 40.6727 77.8947 41.0006" stroke="#0257A8" stroke-width="2"/>
<path d="M77.8945 41.001C77.9917 41.1372 78.0156 41.4038 77.9663 41.8005C77.9618 41.838 77.9722 41.8425 77.9976 41.814L78.0447 41.7601C78.0776 41.7212 78.094 41.6763 78.094 41.6254V41.4794C78.0954 41.4602 78.1038 41.4443 78.1175 41.4348C78.1313 41.4253 78.1494 41.4228 78.1685 41.4278C78.1875 41.4329 78.206 41.4451 78.2204 41.4621C78.2348 41.4791 78.2441 41.4997 78.2465 41.5198L78.2689 42.0431C78.2719 42.1255 78.2935 42.1299 78.3339 42.0566L78.4034 41.9286" stroke="#0161B2" stroke-width="2"/>
<path d="M78.4023 41.9277L78.4298 41.987" stroke="#0173C0" stroke-width="2"/>
<path d="M78.4266 41.9863C78.4535 42.842 78.0948 43.4687 77.1937 43.6124C75.9609 43.8056 74.9335 43.834 74.1116 43.6977C73.9098 43.6648 73.4832 43.4627 72.8316 43.0913C72.7689 43.0554 72.7233 43.0045 72.6949 42.9386L72.3945 42.2311" stroke="#2883C6" stroke-width="2"/>
<path d="M72.3955 42.2314L76.7643 42.1999C76.8644 42.1999 76.9145 42.1498 76.9145 42.0495V19.1339C76.9145 18.9483 76.8218 18.8554 76.6365 18.8554L71.9584 18.8487C71.8284 18.8487 71.7626 18.9138 71.7611 19.0441L71.7477 29.8561C71.7477 29.9909 71.7081 30.0044 71.6289 29.8966C68.5445 25.7573 65.5542 22.2828 61.5127 19.2732C60.5645 18.5657 58.1346 18.8487 56.9668 18.8554C56.9224 18.856 56.88 18.874 56.8486 18.9054C56.8172 18.9369 56.7993 18.9794 56.7987 19.0239L56.7695 42.0337C56.7695 42.137 56.8211 42.1887 56.9242 42.1887L62.1201 42.1797" stroke="#80A7D0" stroke-width="2"/>
<path d="M62.1172 42.18C62.4489 42.198 62.6238 42.0048 62.6193 41.6724C62.6073 40.6288 62.635 39.5859 62.7022 38.5438C62.7359 38.0429 62.9309 37.587 62.9488 37.1131C63.0048 35.5858 63.303 34.0586 63.2918 32.5516C63.2828 31.3971 63.0452 30.4606 64.0674 29.5285C64.1098 29.49 64.1652 29.4688 64.2225 29.4692C64.2797 29.4697 64.3348 29.4916 64.3767 29.5307L64.946 30.0698C65.0163 30.1357 65.0051 30.1821 64.9124 30.209L64.1234 30.4516C64.0871 30.4625 64.0542 30.4827 64.0279 30.5102C64.0016 30.5377 63.9827 30.5717 63.9732 30.6088C63.8746 31.0108 63.749 31.3792 63.7446 31.7947C63.7356 33.274 63.6041 34.7429 63.35 36.2012C63.217 36.9694 63.1386 38.838 63.1147 41.8072C63.1124 41.9419 63.0519 42.1149 63.034 42.2541C63.0265 42.3005 63.0415 42.3095 63.0788 42.2811C63.1132 42.2556 63.1319 42.2174 63.1349 42.1665C63.2514 40.6557 63.3717 39.1449 63.4957 37.6342C63.6123 36.2147 64.0023 33.6588 64.0091 31.624C64.0113 31.2556 64.1637 30.9884 64.4081 30.7481C64.4245 30.7316 64.4447 30.7271 64.4686 30.7346C64.485 30.7406 64.5037 30.7466 64.5246 30.7525C64.571 30.766 64.5769 30.79 64.5426 30.8244L64.4619 30.903C64.438 30.927 64.4424 30.9449 64.4753 30.9569C65.6745 31.3522 66.2148 31.4825 66.8469 32.455" stroke="#01489A" stroke-width="2"/>
<path d="M66.8489 32.4545C66.4962 32.4066 66.1928 32.2562 65.9388 32.0031C65.924 31.9883 65.9071 31.9776 65.8895 31.9717L65.1497 31.7201C65.0855 31.6977 65.0197 31.6947 64.9525 31.7111C64.6611 31.786 64.4922 31.9282 64.4459 32.1379C64.2621 32.9659 64.1112 34.0567 63.9931 35.4102C63.7443 38.2401 63.5582 39.9381 63.4058 41.9864C63.367 42.515 63.1667 42.9432 62.8051 43.2711C62.7483 43.3235 62.681 43.3542 62.6033 43.3632C61.3705 43.5024 60.1376 43.5204 58.9048 43.4171C58.0171 43.343 57.7615 42.9724 56.7506 43.3385C55.2824 43.8708 53.5138 43.8685 52.0097 43.7877C50.5998 43.7135 49.9138 42.2986 49.9856 41.0139" stroke="#0161B2" stroke-width="2"/>
<path d="M49.9884 41.0138L49.6836 38.8442" stroke="#0257A8" stroke-width="2"/>
<path d="M50.0674 38.7884L50.4216 42.072C50.4306 42.1633 50.4806 42.209 50.5718 42.209H55.5077C55.523 42.2091 55.5382 42.2059 55.5522 42.1996C55.5663 42.1933 55.5788 42.1839 55.589 42.1722C55.5992 42.1606 55.6068 42.1468 55.6113 42.1318C55.6159 42.1168 55.6172 42.101 55.6153 42.0854C54.6402 34.6064 52.9523 27.2778 48.4961 20.8813" stroke="#80A7D0" stroke-width="2"/>
<path d="M103.359 39.4801C103.229 39.1103 103.024 38.8138 102.743 38.5907C102.656 38.5218 102.606 38.5421 102.593 38.6514L102.577 38.7547C102.568 38.8206 102.531 38.8617 102.467 38.8782C102.106 38.9658 101.667 39.4217 101.396 39.3948C101.325 39.3873 101.266 39.4082 101.216 39.4577C100.768 39.8979 100.053 40.8165 99.4477 41.1242C98.986 41.36 98.7327 41.643 98.4166 41.9844C98.3703 42.0353 98.3128 42.0675 98.244 42.0809C97.9272 42.1453 97.6313 42.2591 97.3564 42.4223C97.1905 42.5211 97.1479 42.6986 96.8543 42.7345C96.7795 42.7435 96.716 42.7742 96.6637 42.8266C96.3125 43.1755 95.853 43.3484 95.2852 43.3454" stroke="#0185D1" stroke-width="2"/>
<path d="M119.73 48.792L111.268 52.0644C111.212 52.0865 111.162 52.1219 111.123 52.1677C111.036 52.2665 110.898 52.3503 110.708 52.4192C108.762 53.1155 107.06 53.632 105.602 53.9689" stroke="#6D445A" stroke-width="2"/>
<path d="M105.602 53.9685C105.679 53.8218 105.848 53.6601 106.108 53.4834" stroke="#288BCE" stroke-width="2"/>
<path d="M106.113 53.4836C106.512 53.3728 106.774 53.268 106.9 53.1692C107.707 52.5268 108.617 52.1173 109.63 51.9406C110.103 51.8598 110.432 51.3634 110.428 50.8918C110.422 50.474 110.347 50.0682 110.204 49.6744C110.18 49.6101 110.188 49.5502 110.228 49.4948C110.627 48.94 109.531 46.721 109.204 46.1595C108.417 44.8119 107.198 44.9534 105.996 44.2954C105.407 43.9742 104.629 43.9697 104.331 43.3094C104.253 43.1357 104.279 43.1192 104.407 43.26L104.745 43.6283C104.78 43.6658 104.821 43.6747 104.869 43.6553L104.994 43.6036C105.057 43.5782 105.064 43.5422 105.014 43.4958L104.057 42.6199C103.993 42.56 103.917 42.5263 103.829 42.5188C103.484 42.4874 103.346 42.3631 103.416 42.146" stroke="#027BC7" stroke-width="2"/>
<path d="M106.112 53.4834L105.298 53.443C105.293 53.4432 105.288 53.4418 105.284 53.4391C105.28 53.4364 105.277 53.4325 105.275 53.4279C105.273 53.4232 105.272 53.4181 105.273 53.4132C105.274 53.4082 105.277 53.4037 105.281 53.4003L105.363 53.3172C105.393 53.2857 105.387 53.27 105.343 53.27H105.263C105.246 53.27 105.23 53.2634 105.218 53.2516C105.206 53.2398 105.2 53.2238 105.2 53.2071C105.203 52.8957 105.068 52.6988 104.794 52.6164C104.715 52.5925 104.654 52.5453 104.613 52.4749C103.203 50.0658 101.367 48.0489 99.1028 46.4243C98.8936 46.2731 98.7195 46.0837 98.5805 45.8561C98.5327 45.7782 98.4632 45.7416 98.372 45.7461C98.2405 45.7535 98.1389 45.6951 98.0672 45.5709C98.0298 45.505 97.9782 45.4533 97.9125 45.4159L96.6796 44.7039C96.6159 44.6662 96.5411 44.6527 96.4689 44.6657C96.0296 44.7466 95.6373 44.6568 95.2921 44.3962C95.2771 44.3849 95.2654 44.3698 95.2582 44.3524C95.2509 44.335 95.2484 44.3159 95.2509 44.297C95.2534 44.2782 95.2608 44.2602 95.2724 44.2449C95.2839 44.2296 95.2992 44.2175 95.3168 44.2098C95.9085 43.9605 96.8007 44.1806 97.2064 43.7269C97.2707 43.6566 97.2587 43.6386 97.1705 43.673C97.0331 43.7269 96.8874 43.7412 96.7334 43.7157C96.6976 43.7097 96.6976 43.7022 96.7334 43.6932C96.7932 43.6798 96.8097 43.6498 96.7828 43.6034C96.7753 43.5913 96.7648 43.5817 96.7524 43.5757C96.7401 43.5697 96.7264 43.5676 96.7133 43.5697L96.4331 43.6169C96.4256 43.6184 96.4263 43.6057 96.4353 43.5787L96.4555 43.5226C96.4585 43.5121 96.4547 43.5068 96.4443 43.5068L96.3165 43.4956" stroke="#28A7E6" stroke-width="2"/>
<path d="M110.668 28.5083C110.68 28.5877 110.676 28.6625 110.655 28.7329C110.64 28.7853 110.606 28.8197 110.554 28.8362L109.984 29.0204C109.887 29.0518 109.843 29.1192 109.852 29.2225C109.917 29.8649 109.691 30.469 109.639 30.9833C109.526 32.0839 109.47 33.1859 109.473 34.2894C109.48 36.3894 109.256 38.5028 109.404 40.6342C109.442 41.1665 109.29 41.6606 109.283 42.2109C109.283 42.2918 109.251 42.3569 109.189 42.4063C108.512 42.9655 106.411 42.6736 105.517 42.6511C105.374 42.6466 105.271 42.6069 105.21 42.5321C105.144 42.4512 105.091 42.3434 105.051 42.2087" stroke="#0250A1" stroke-width="2"/>
<path d="M77.8945 41.0007L77.9259 40.3584" stroke="#0269B9" stroke-width="2"/>
<path d="M105.609 53.9683C102.541 54.9505 99.4305 55.7501 96.2773 56.367" stroke="#937079" stroke-width="2"/>
<path d="M96.2746 56.3674C95.9907 55.7086 95.5514 55.1726 94.9566 54.7593C94.9192 54.7339 94.9013 54.7436 94.9028 54.7885V54.8492C94.9028 54.9315 94.8737 54.9443 94.8154 54.8874C93.2104 53.2995 91.7668 51.898 89.7158 50.8828C89.668 50.8589 89.6374 50.8244 89.6239 50.7795C89.6183 50.7627 89.6092 50.7474 89.5972 50.7346C89.5852 50.7218 89.5706 50.7118 89.5544 50.7054C88.8663 50.4404 88.1691 50.0653 87.4496 49.9305C86.9609 49.8362 86.4902 49.5038 86.0576 49.414C85.1475 49.2253 84.2755 49.0052 83.3408 48.9895C81.9466 48.967 80.5508 48.97 79.1536 48.9985C78.0933 49.0209 77.1631 49.2927 76.1275 49.5105C75.39 49.6655 74.722 50.1214 73.8837 50.3977C72.984 50.6927 71.9133 51.3013 70.6715 52.2237C70.2546 52.5336 69.9542 52.9985 69.5148 53.3781C68.539 54.2241 67.673 55.2138 66.9169 56.3472C66.6658 56.7223 66.3475 56.9559 65.9844 57.1782" stroke="#79C7F1" stroke-width="2"/>
<path d="M65.9808 57.1783C62.3375 56.6333 58.7293 55.8854 55.1562 54.9346" stroke="#937079" stroke-width="2"/>
<path d="M70.0021 37.2723C69.2668 36.8006 68.8746 37.2521 68.0788 37.2363C67.8666 37.2318 67.747 37.3344 67.7201 37.544C67.7112 37.6054 67.6791 37.6496 67.6238 37.6766L66.308 38.3077C66.2953 38.3137 66.2845 38.3234 66.277 38.3357C66.2694 38.348 66.2654 38.3625 66.2654 38.3773V38.4514C66.2624 38.5113 66.231 38.5412 66.1712 38.5412C63.5038 38.5031 65.0348 42.1033 63.7503 43.3611C63.0868 44.0109 62.2448 44.2954 61.2241 44.2145C61.1135 44.2056 61.0231 44.2422 60.9529 44.3246C60.908 44.3785 60.8513 44.4114 60.7825 44.4234C59.9845 44.5701 59.185 44.5941 58.384 44.4953C58.0822 44.4578 57.8446 44.4549 57.6712 44.4863C57.3604 44.5387 57.1362 44.6345 56.9988 44.7738C56.4765 45.2926 55.7323 45.479 55.4879 46.1842C55.464 46.2546 55.4155 46.2861 55.3422 46.2786L55.0329 46.2471C54.9642 46.2396 54.9148 46.2666 54.885 46.328C54.3888 47.2982 54.0855 47.9226 53.9749 48.2011C53.5131 49.3758 52.8855 50.3954 52.5672 51.4667C52.4372 51.904 52.3109 52.3442 52.1884 52.7874C52.1678 52.8622 52.1678 52.9406 52.1884 53.0142C52.2735 53.3271 52.2055 53.6588 51.9844 54.0092" stroke="#0185D1" stroke-width="2"/>
<path d="M51.9875 54.009L44.4805 51.4307" stroke="#6D4E64" stroke-width="2"/>
<path d="M44.4802 51.4306C44.4144 51.0383 44.5601 50.6228 44.9173 50.1841C44.9655 50.1255 44.9952 50.0536 45.0025 49.9775C45.3447 46.884 46.4087 44.0901 48.1945 41.5956C48.6809 40.915 49.2009 40.6118 49.9877 41.0138" stroke="#0269B9" stroke-width="2"/>
<path d="M83.0608 41.4005C82.5295 41.2792 82.3166 41.0119 81.9108 40.5043C81.2316 39.6554 78.4925 39.6509 78.8578 41.36C78.8648 41.3921 78.8642 41.4255 78.8561 41.4575C78.8479 41.4894 78.8324 41.5191 78.8108 41.5442L78.4297 41.9867" stroke="#28A7E6" stroke-width="2"/>
<path d="M78.4023 41.9283L78.4315 40.3472" stroke="#0185D1" stroke-width="2"/>
<path d="M72.3946 42.2314C72.2601 42.1401 72.1689 41.9492 72.1211 41.6587" stroke="#A7DBF6" stroke-width="2"/>
<path d="M72.1213 41.6588L71.6797 40.2236" stroke="#80CBEF" stroke-width="2"/>
<path d="M71.6775 40.2233C69.5345 35.0022 66.3874 30.5117 62.236 26.752C62.2256 26.7428 62.2127 26.7366 62.1989 26.7344C62.1851 26.7321 62.1711 26.7338 62.1585 26.7393C62.1458 26.7448 62.1352 26.7538 62.1279 26.7653C62.1205 26.7767 62.1168 26.79 62.1172 26.8037V42.1795" stroke="#80A0C9" stroke-width="2"/>
<path d="M44.4789 51.4308L39.0117 49.2612" stroke="#6D445A" stroke-width="2"/>
<path d="M71.6845 40.2232C71.5321 40.292 71.4454 40.3018 71.4245 40.2524C70.9881 39.2043 70.5159 38.2108 70.0078 37.272" stroke="#016CB9" stroke-width="2"/>
<path d="M70.0015 37.2722C69.0855 35.5293 68.0342 33.9234 66.8477 32.4546" stroke="#0159AB" stroke-width="2"/>
<path d="M65.9844 57.1782L69.9587 57.697" stroke="#BE817E" stroke-width="2"/>
<path d="M69.9609 57.697C77.0503 58.4187 84.2076 58.2645 91.4329 57.2344" stroke="#D98C80" stroke-width="2"/>
<path d="M91.4297 57.2346L96.2737 56.3677" stroke="#BE817E" stroke-width="2"/>
<path d="M91.4329 57.2339C91.3253 56.7173 90.8785 56.2741 90.0924 55.9043C89.9654 55.8444 89.8309 55.7493 89.6889 55.619C89.3818 55.3338 88.9358 55.208 88.7049 55.0688C87.9024 54.5949 87.1963 54.0918 86.2885 53.8155C85.3291 53.5258 84.5132 53.0519 83.4933 52.9823C83.0449 52.9508 82.6347 52.8947 82.2626 52.8138C80.8863 52.5129 79.8619 52.7779 78.2077 53.1058C76.2396 53.4989 74.5337 54.1973 73.0207 55.5404C72.3871 56.1034 71.6892 56.5796 70.9271 56.9689C70.8284 57.0198 70.803 56.9951 70.8508 56.8948L70.9024 56.7869C70.906 56.7796 70.907 56.7712 70.9055 56.7632C70.904 56.7551 70.8999 56.7477 70.8938 56.7422C70.8878 56.7367 70.8801 56.7332 70.872 56.7324C70.8638 56.7315 70.8556 56.7333 70.8486 56.7375C70.614 56.8873 70.4683 57.0961 70.4115 57.3642C70.3995 57.4196 70.3667 57.4525 70.3129 57.463C70.1545 57.4914 70.0372 57.5693 69.9609 57.6966" stroke="#BEE3F8" stroke-width="2"/>
<path d="M72.1182 41.6587C71.9209 41.5119 71.7588 41.4528 71.6317 41.4812C71.5212 41.5067 71.4995 41.4737 71.5667 41.3824L71.699 41.205C71.7588 41.1256 71.7401 41.0949 71.643 41.1129L70.6724 41.2768C70.6126 41.2873 70.5588 41.3113 70.511 41.3487C69.7242 41.9641 68.8813 42.1865 68.052 42.7367C67.1979 43.3027 66.2766 43.3521 65.398 43.8305C65.3113 43.8784 65.3173 43.9001 65.4159 43.8956L65.4943 43.8911C65.5795 43.8896 65.5937 43.9203 65.5369 43.9832C65.1006 44.4698 64.5178 44.8779 63.7885 45.2073C63.3133 45.4206 62.9569 45.9192 62.5063 46.182C61.4528 46.7952 60.3477 47.2511 59.9756 48.5088C59.8008 49.1063 58.9512 49.4252 58.6195 50.0451C58.0516 51.1067 57.3754 52.0919 56.5908 53.0007C56.3241 53.3129 55.8848 53.5982 55.5732 53.9441C55.4208 54.1132 55.4364 54.1889 55.6202 54.1709C55.6486 54.1679 55.6651 54.1814 55.6696 54.2113C55.6712 54.2194 55.6749 54.2268 55.6804 54.2329C55.686 54.2389 55.693 54.2433 55.7009 54.2457C55.7087 54.248 55.7171 54.2481 55.725 54.246C55.7329 54.2439 55.7401 54.2397 55.7458 54.2338L55.8691 54.1125C56.008 53.9732 56.0297 53.9897 55.9341 54.1619C55.7652 54.4659 55.5059 54.7234 55.1562 54.9345" stroke="#28A7E6" stroke-width="2"/>
<path d="M55.1584 54.9346L51.9844 54.0093" stroke="#6D6072" stroke-width="2"/>
<path d="M33.7929 28.4389C33.0487 22.9363 28.8771 19.5988 23.6924 18.5499C20.0969 17.8222 17.082 18.0378 13.3812 18.6577C13.302 18.6712 13.2609 18.7176 13.2579 18.797C13.2504 18.9721 13.2527 19.196 13.2646 19.4685C13.5007 25.323 13.571 31.4859 13.4753 37.9572C13.4544 39.3572 13.3745 40.7654 13.2355 42.1819C13.2298 42.2418 13.2463 42.3017 13.2818 42.3501C13.3174 42.3986 13.3695 42.4322 13.4283 42.4447C23.2553 44.4144 35.5525 41.4138 33.7929 28.4389ZM129.837 32.7242C129.833 32.7034 129.834 32.682 129.839 32.6615C129.845 32.641 129.855 32.6219 129.868 32.6056C129.882 32.5893 129.899 32.5762 129.919 32.5672C129.938 32.5582 129.959 32.5535 129.981 32.5535L146.232 32.5467C146.462 32.5467 146.609 32.4367 146.671 32.2166C146.743 31.9665 146.78 31.6289 146.783 31.2036C146.848 24.0772 141.363 16.3691 133.439 18.6016C127.992 20.1356 124.655 25.7662 124.912 31.3047C125.177 36.9713 128.882 42.0808 134.551 43.1724C139.202 44.0685 143.625 41.5845 146.066 37.6226C146.109 37.5522 146.091 37.508 146.012 37.4901L141.309 36.43C141.236 36.4135 141.159 36.4167 141.088 36.4392C141.016 36.4617 140.952 36.5027 140.902 36.558C136.972 40.868 130.734 37.8562 129.837 32.7242Z" stroke="#8597C0" stroke-width="2"/>
<path d="M90.2338 43.0804C91.781 43.0722 93.3113 42.7401 94.7374 42.1029C96.1635 41.4657 97.4575 40.5359 98.5454 39.3666C99.6333 38.1974 100.494 36.8115 101.078 35.2882C101.662 33.7648 101.958 32.1339 101.95 30.4884C101.932 27.1652 100.674 23.9847 98.4528 21.6465C96.2311 19.3082 93.2275 18.0038 90.1029 18.0202C86.9783 18.0366 83.9885 19.3724 81.7913 21.7338C79.5942 24.0952 78.3696 27.2888 78.3869 30.6119C78.4043 33.9351 79.6622 37.1156 81.8839 39.4539C84.1056 41.7921 87.1092 43.0965 90.2338 43.0801" stroke="#80A7D0" stroke-width="2"/>
<path d="M98.6312 40.3485C99.1356 40.0588 100.09 39.3738 100.245 38.7157C100.262 38.6453 100.297 38.5862 100.353 38.5383C100.792 38.1542 100.832 37.7185 101.166 37.312C101.329 37.1128 101.409 36.9736 101.406 36.8942C101.388 36.3492 101.293 36.3357 101.119 36.8538C100.94 37.3883 100.516 37.7567 100.272 38.2598C100.025 38.7651 99.9381 39.0571 99.5054 39.4591C99.2021 39.7421 98.9062 40.0326 98.6178 40.3305C98.6154 40.3323 98.6138 40.335 98.6134 40.3379C98.613 40.3409 98.6137 40.3439 98.6155 40.3463C98.6173 40.3486 98.62 40.3502 98.6229 40.3506C98.6259 40.3511 98.6288 40.3503 98.6312 40.3485Z" stroke="#01489A" stroke-width="2"/>
<path d="M83.6758 33.1909C84.3034 35.3081 85.608 36.8384 87.5895 37.7817" stroke="#80A7D0" stroke-width="2"/>
<path d="M87.5859 37.7821C88.9279 38.4873 90.3759 38.5981 91.9301 38.1145C97.0633 36.5176 98.462 29.7573 95.4068 25.6943" stroke="#80B9E1" stroke-width="2"/>
<path d="M95.4115 25.6943C92.4571 21.7302 87.1424 22.1389 84.5556 26.2401C83.2839 28.2569 82.991 30.574 83.6769 33.1913" stroke="#80A0C9" stroke-width="2"/>
<path d="M95.4081 25.6944C95.0809 25.8965 94.782 25.8127 94.5115 25.4429C94.4682 25.3845 94.4099 25.3508 94.3367 25.3418C93.8091 25.2774 93.2824 25.1995 92.7564 25.1082C91.1738 24.8342 89.8109 25.0139 88.345 25.6225C88.1447 25.7064 87.8735 25.8883 87.5313 26.1683C87.2877 26.3689 87.012 26.5224 86.7041 26.6287C86.6695 26.6401 86.6377 26.6588 86.6106 26.6835C86.5836 26.7083 86.562 26.7386 86.5472 26.7725C86.2155 27.5256 85.9002 28.1238 85.6013 28.567C84.7375 29.8532 84.3819 31.2172 84.5343 32.6591" stroke="#0159AB" stroke-width="2"/>
<path d="M84.5365 32.6589C84.6128 32.9074 84.6232 33.1672 84.5679 33.4382C84.5365 33.4382 84.5268 33.3559 84.5388 33.1912C84.5403 33.1879 84.5404 33.1841 84.5391 33.1808C84.5379 33.1774 84.5353 33.1747 84.5321 33.1732C84.5288 33.1717 84.5251 33.1716 84.5217 33.1728C84.5183 33.1741 84.5156 33.1767 84.5141 33.1799L84.4715 33.2293C84.4669 33.2344 84.4611 33.2382 84.4545 33.2402C84.448 33.2422 84.441 33.2424 84.4344 33.2408C84.4277 33.2392 84.4216 33.2358 84.4167 33.231C84.4118 33.2263 84.4083 33.2202 84.4065 33.2136C84.3408 32.8677 84.2235 32.5368 84.0546 32.2209C83.9948 32.1101 83.9657 32.1176 83.9672 32.2434C83.9717 32.5234 84.0225 32.7936 84.1196 33.0542C84.1346 33.0946 84.1204 33.1185 84.077 33.126L83.6758 33.1912" stroke="#01489A" stroke-width="2"/>
<path d="M87.5882 37.7816L85.23 35.2706C85.2038 35.2428 85.1847 35.2089 85.1745 35.1717C85.1644 35.1345 85.1634 35.0952 85.1718 35.0572C85.4004 34.0151 85.0911 33.083 85.2143 32.0701C85.2144 32.0661 85.2131 32.0622 85.2107 32.059C85.2083 32.0558 85.2049 32.0535 85.201 32.0524C85.1972 32.0514 85.1931 32.0517 85.1894 32.0533C85.1857 32.0548 85.1827 32.0576 85.1807 32.0611C84.9835 32.5754 85.1516 33.0987 84.9566 33.521C84.9132 33.6123 84.8893 33.6078 84.8848 33.5075L84.8041 31.7646C84.8041 31.7587 84.8018 31.753 84.7976 31.7488C84.7934 31.7446 84.7877 31.7422 84.7817 31.7422C84.7758 31.7422 84.7701 31.7446 84.7659 31.7488C84.7617 31.753 84.7593 31.7587 84.7593 31.7646L84.6876 32.5575C84.6831 32.5904 84.6704 32.5942 84.6495 32.5687C84.6345 32.5507 84.6301 32.5253 84.636 32.4923C84.6644 32.3546 84.6637 32.2153 84.6338 32.0746C84.6335 32.0708 84.6324 32.067 84.6307 32.0636C84.629 32.0602 84.6266 32.0571 84.6237 32.0546C84.6208 32.0521 84.6174 32.0502 84.6137 32.049C84.6101 32.0478 84.6062 32.0473 84.6024 32.0476C84.5986 32.0479 84.5948 32.049 84.5914 32.0507C84.588 32.0525 84.585 32.0549 84.5825 32.0578C84.58 32.0607 84.5781 32.0641 84.5769 32.0677C84.5757 32.0714 84.5752 32.0752 84.5755 32.0791L84.5352 32.6585" stroke="#0161B2" stroke-width="2"/>
<path d="M18.714 22.7921L18.6602 38.0152C18.6602 38.0307 18.6663 38.0455 18.6772 38.0565C18.6882 38.0674 18.703 38.0736 18.7184 38.0736L21.1124 38.0826C23.1527 38.0897 25.1121 37.3493 26.5594 36.0242C28.0068 34.6991 28.8236 32.8979 28.8301 31.0168L28.8346 29.8624C28.8379 28.9309 28.6421 28.0079 28.2585 27.146C27.8749 26.2841 27.3109 25.5002 26.5989 24.8391C25.8868 24.178 25.0405 23.6526 24.1084 23.2929C23.1762 22.9332 22.1765 22.7462 21.1662 22.7427L18.7722 22.7337C18.7568 22.7337 18.742 22.7399 18.731 22.7508C18.7201 22.7618 18.714 22.7766 18.714 22.7921ZM141.915 27.9196C140.097 20.8426 131.814 21.0829 129.896 27.9443C129.875 28.0207 129.904 28.0589 129.983 28.0589H141.807C141.903 28.0589 141.939 28.0125 141.915 27.9196Z" stroke="#8597C0" stroke-width="2"/>
<path d="M41.4414 32.3086L42.3896 32.3221" stroke="#80A0C9" stroke-width="2"/>
<path d="M42.3913 32.3219L48.6161 32.3241C48.6403 32.324 48.6641 32.3183 48.6857 32.3074C48.7073 32.2966 48.7261 32.2808 48.7406 32.2615C48.7552 32.2421 48.7651 32.2197 48.7695 32.1959C48.774 32.1721 48.7729 32.1476 48.7663 32.1242C47.8562 29.0069 46.4448 26.1388 44.532 23.52C44.5226 23.507 44.5103 23.4964 44.4961 23.4891C44.4819 23.4818 44.4661 23.478 44.4502 23.478C44.4342 23.478 44.4184 23.4818 44.4042 23.4891C44.39 23.4964 44.3777 23.507 44.3683 23.52C42.4914 26.1912 41.077 29.0892 40.1251 32.2141C40.1027 32.2845 40.1281 32.3196 40.2013 32.3196L41.4431 32.3084" stroke="#80A7D0" stroke-width="2"/>
<path d="M42.3896 32.3219C42.2073 32.2725 42.1475 32.1025 42.2103 31.8121C42.3149 31.3135 42.6773 30.3597 43.2974 28.9507C43.6875 28.0591 44.3891 27.1562 44.8038 26.15C44.8912 25.9411 45.1064 25.7906 45.2633 25.6177C45.3051 25.5728 45.3066 25.5256 45.2678 25.4762L44.9024 25.027C44.8366 24.9477 44.7783 24.9529 44.7275 25.0427C44.0461 26.2316 43.405 27.4407 42.8043 28.67C42.7983 28.6849 42.6235 29.0196 42.2797 29.6739C41.8359 30.5169 41.5565 31.3951 41.4414 32.3084" stroke="#01489A" stroke-width="2"/>
<path d="M110.387 37.023C110.428 36.9825 110.459 35.918 110.526 35.6372C110.707 34.8886 110.753 33.8285 110.663 32.4569C110.625 31.8977 110.744 31.3676 110.775 30.8017C110.781 30.7073 110.83 30.6512 110.921 30.6332L111.629 30.494C111.711 30.4775 111.726 30.4363 111.672 30.3704L111.291 29.8988C111.23 29.8239 111.153 29.803 111.062 29.8359C110.633 29.9946 110.408 30.3008 110.387 30.7545C110.231 34.2402 110.062 37.7267 109.881 41.2139C109.852 41.7664 109.714 42.3242 109.464 42.8872C109.44 42.9396 109.456 42.9733 109.511 42.9882C109.565 43.0032 109.604 42.9808 109.628 42.9209C110.314 41.16 110.325 39.0645 110.329 37.16C110.329 37.1076 110.349 37.0619 110.387 37.023Z" stroke="#0257A8" stroke-width="2"/>
<path d="M85.4164 70.1957C58.4459 71.3546 30.6438 65.185 5.75574 54.8042C2.37771 53.3959 1.20313 52.7828 1.20537 49.068C1.20686 39.0854 1.20611 29.1051 1.20312 19.1271C1.20312 16.7576 1.82628 15.1248 4.07681 14.1972C14.4328 9.93214 25.7976 7.15389 36.8283 5.22461C63.5791 0.548526 90.4226 0.343394 117.359 4.60922C127.065 6.14546 136.5 8.39366 145.665 11.3538C148.638 12.3151 151.834 13.4673 154.356 14.6913C156.965 15.9558 156.721 17.8739 156.718 20.8273C156.712 29.8426 156.712 38.8564 156.716 47.8686C156.716 47.8806 156.736 48.3006 156.774 49.1286C156.879 51.2713 155.874 52.788 153.759 53.6789C132.243 62.7346 108.83 69.1918 85.4164 70.1957ZM35.7367 30.4849C34.6144 34.2776 33.8134 38.1451 33.3337 42.0875C33.3247 42.1549 33.3546 42.1894 33.4234 42.1909L38.2091 42.265C38.2775 42.266 38.3438 42.2415 38.3952 42.1962C38.4465 42.151 38.4793 42.0882 38.4871 42.0202L39.0138 37.2363C39.0273 37.1075 39.099 37.0431 39.229 37.0431H49.6926C49.7288 37.0433 49.7637 37.0563 49.7909 37.0798C49.8181 37.1033 49.8357 37.1358 49.8406 37.1711L50.067 38.7882C50.0147 38.8571 49.8862 38.8758 49.6814 38.8444C49.2129 38.6782 48.8319 38.4873 48.3141 38.5052C46.1711 38.5816 43.8242 38.7748 41.688 39.051C41.59 39.064 41.5003 39.1137 41.437 39.1903C40.9453 39.7817 40.6688 40.4675 40.6076 41.2476C40.6061 41.273 40.5964 41.2932 40.5784 41.3082C40.5351 41.3441 40.4985 41.3913 40.4686 41.4497C40.4462 41.4931 40.4305 41.5388 40.4215 41.5867C40.3453 42.0494 40.237 42.5023 40.0965 42.9455C39.7356 44.0887 38.4108 44.4548 38.1867 45.6923C38.0955 46.1894 38.0612 46.6873 38.0836 47.1859C38.0881 47.2862 38.1127 47.3603 38.1576 47.4082C38.2203 47.4756 38.2958 47.4943 38.3839 47.4644C38.4467 47.4434 38.4878 47.4651 38.5072 47.5295L39.0116 49.2611C37.4066 48.6053 35.8831 47.9742 34.441 47.3678C33.7932 47.096 32.2421 46.9253 32.1681 47.8709C32.0941 48.803 33.8986 50.5885 34.5598 51.0736C45.075 58.7885 57.9887 64.044 71.2251 65.0525C72.3436 65.1378 73.3165 65.322 74.4866 65.3018C77.7077 65.2479 82.1594 65.468 85.8872 65.1468C99.5495 63.9744 111.961 59.076 123.068 51.0938C123.805 50.5653 124.429 49.9244 124.94 49.1713C125.213 48.7685 125.366 48.3036 125.399 47.7766C125.408 47.6273 125.358 47.4804 125.261 47.3672C125.163 47.254 125.026 47.1833 124.877 47.1701C123.202 47.0174 121.591 48.0977 119.735 48.7917L120.174 48.4122C120.223 48.3687 120.279 48.3418 120.342 48.3313C120.574 48.2909 120.764 48.1756 120.914 47.9854C120.962 47.9255 121.023 47.8956 121.098 47.8956C121.598 47.8889 122.382 47.2802 123.111 47.0489C123.179 47.0264 123.226 46.9815 123.252 46.9141L123.637 45.9102C123.639 45.9063 123.639 45.9022 123.639 45.8982C123.638 45.8941 123.637 45.8902 123.635 45.8867C123.633 45.8833 123.63 45.8804 123.626 45.8782C123.623 45.876 123.619 45.8747 123.615 45.8742C123.596 45.8727 123.575 45.8727 123.552 45.8742C123.501 45.8787 123.477 45.8548 123.478 45.8024L123.503 44.9174C123.506 44.8411 123.487 44.77 123.447 44.7041C122.956 43.9045 121.992 43.7361 121.021 43.6283C120.948 43.6193 120.885 43.5893 120.833 43.5384C120.597 43.3123 120.319 43.2023 119.999 43.2083C119.911 43.2113 119.861 43.1686 119.849 43.0803L119.838 42.9994C119.835 42.9777 119.828 42.9568 119.816 42.938C119.805 42.9193 119.79 42.9031 119.772 42.8904C119.754 42.8778 119.734 42.8689 119.712 42.8645C119.691 42.8601 119.669 42.8601 119.647 42.8646C119.099 42.9769 118.854 42.7508 118.912 42.1864L123.337 42.1909C123.413 42.1909 123.451 42.1534 123.449 42.0786L123.431 19.0036C123.431 18.9302 123.395 18.8935 123.321 18.8935L120.277 18.8621C120.437 18.7663 120.613 18.7243 120.806 18.7363C120.875 18.7408 120.912 18.7094 120.918 18.642C120.974 18.0431 120.735 17.5924 120.201 17.2899C120.154 17.2634 120.115 17.2255 120.087 17.1799C119.949 16.9642 119.757 16.8138 119.511 16.7284C119.449 16.7075 119.397 16.6723 119.354 16.6229C118.681 15.8637 117.812 15.5111 117.049 14.9272C116.997 14.8867 116.958 14.8358 116.933 14.7744C116.852 14.5768 116.709 14.4959 116.502 14.5319C116.449 14.5409 116.422 14.5184 116.422 14.4645V14.3612C116.422 14.2938 116.393 14.2444 116.334 14.2129C115.843 13.9502 115.545 13.5055 115.075 13.2741C114.411 12.9462 113.767 12.5816 113.142 12.1803C111.19 10.9249 108.879 10.3791 106.734 9.46274C105.416 8.90125 104.185 8.78446 102.818 8.48799C102.181 8.35024 101.86 8.28061 101.854 8.27912C97.0135 7.45111 93.6878 6.89636 91.8766 6.61486C91.3461 6.53101 90.5444 6.4524 89.4714 6.37904C89.3982 6.37454 89.3444 6.33861 89.31 6.27123C89.2652 6.18289 89.2054 6.13048 89.1307 6.11401C88.7721 6.03016 88.3223 5.99048 87.7813 5.99498C87.7469 5.99498 87.7297 6.0122 87.7297 6.04664V6.11177C87.7297 6.12106 87.7275 6.13022 87.7234 6.13854C87.7193 6.14686 87.7133 6.15412 87.706 6.15977C87.6986 6.16541 87.69 6.16928 87.681 6.17108C87.6719 6.17288 87.6625 6.17257 87.6535 6.17016C86.6784 5.91412 85.6787 6.13198 84.9412 6.13647C83.535 6.14695 82.1296 6.12375 80.7248 6.06685C80.6666 6.06385 80.6187 6.03989 80.5814 5.99498C80.566 5.97671 80.5466 5.96202 80.5245 5.95194C80.5024 5.94185 80.4782 5.93661 80.4536 5.93658C78.762 5.95754 77.0704 5.983 75.3787 6.01294C74.1862 6.03316 72.115 5.83776 70.4226 6.13872C70.3614 6.1492 70.3397 6.18514 70.3576 6.24653L70.3935 6.36107C70.4129 6.42096 70.392 6.45765 70.3307 6.47112C70.0259 6.5385 69.7875 6.57818 69.6157 6.59016C66.0673 6.85069 62.7497 7.28191 59.2507 8.22971C59.1132 8.26714 58.966 8.28885 58.8091 8.29484C57.76 8.33302 56.7356 8.69013 55.709 8.91023C53.25 9.44477 50.9188 10.287 48.6436 11.3628C48.1034 11.6166 47.3771 11.6481 46.8615 11.9288C45.2745 12.789 43.4454 13.5257 41.9637 14.5341C41.1343 15.1001 40.1212 15.5403 39.4151 16.0277C37.9625 17.0279 36.5175 18.0371 35.0799 19.0552C34.0555 19.7807 32.1121 21.4584 32.7016 22.8913C32.73 22.9602 32.7412 23.0306 32.7352 23.1024C32.6926 23.6999 33.0804 23.902 33.3203 24.2973C34.3364 25.9698 34.9334 27.7763 35.1113 29.7168C35.1471 30.1121 35.3108 30.4894 35.7367 30.4849ZM33.791 28.4388C33.0468 22.9362 28.8752 19.5988 23.6905 18.5499C20.095 17.8222 17.0801 18.0378 13.3793 18.6577C13.3001 18.6712 13.259 18.7176 13.256 18.7969C13.2485 18.9721 13.2508 19.196 13.2627 19.4685C13.4988 25.323 13.5691 31.4859 13.4734 37.9572C13.4525 39.3572 13.3726 40.7654 13.2336 42.1819C13.2279 42.2418 13.2444 42.3016 13.28 42.3501C13.3155 42.3986 13.3676 42.4322 13.4264 42.4446C23.2534 44.4144 35.5506 41.4138 33.791 28.4388ZM129.835 32.7241C129.831 32.7034 129.832 32.682 129.837 32.6615C129.843 32.641 129.853 32.6219 129.866 32.6056C129.88 32.5893 129.897 32.5762 129.917 32.5672C129.936 32.5582 129.957 32.5535 129.979 32.5534L146.23 32.5467C146.46 32.5467 146.607 32.4367 146.669 32.2166C146.741 31.9665 146.779 31.6289 146.781 31.2036C146.846 24.0772 141.361 16.3691 133.437 18.6015C127.99 20.1355 124.653 25.7662 124.911 31.3047C125.175 36.9712 128.88 42.0808 134.549 43.1723C139.201 44.0685 143.623 41.5844 146.064 37.6226C146.108 37.5522 146.09 37.508 146.01 37.4901L141.308 36.43C141.234 36.4135 141.157 36.4167 141.086 36.4392C141.014 36.4616 140.95 36.5026 140.9 36.558C136.97 40.868 130.732 37.8562 129.835 32.7241Z" fill="#0B2E81"/>
<path d="M120.279 18.862L118.36 18.8733C118.281 18.8733 118.241 18.9122 118.241 18.99L118.239 29.6831C118.239 29.7939 118.204 29.8058 118.133 29.719C117.214 28.5795 116.289 27.4438 115.356 26.3119C113.289 23.8039 110.982 21.5392 108.434 19.5178C107.515 18.7879 106.699 18.734 105.583 18.8553C105.363 17.9674 104.725 17.4471 103.669 17.2943C103.253 17.2344 102.911 17.1439 102.642 17.0226C101.572 16.5404 100.466 16.1414 99.3244 15.8255C99.2497 15.806 99.1779 15.8135 99.1092 15.8479C98.6587 16.0815 98.4098 15.7356 98.0871 15.6189C97.3204 15.3426 96.5987 14.9136 95.7648 14.8912C94.9145 14.8687 94.0702 14.7759 93.2318 14.6127C93.1855 14.6037 93.1795 14.5835 93.2139 14.552C93.2318 14.5371 93.2505 14.5251 93.2699 14.5161C93.2998 14.5041 93.2991 14.4951 93.2677 14.4891C91.916 14.2645 90.5733 14.0018 89.2149 13.9299C87.6309 13.8445 86.0439 13.7764 84.4539 13.7255C84.3806 13.7225 84.3119 13.7397 84.2476 13.7772C83.9488 13.9449 83.6357 13.9568 83.3084 13.8131C83.2456 13.7862 83.1821 13.7839 83.1179 13.8064C82.3445 14.0736 81.8962 13.6918 81.2529 13.6604C77.907 13.4957 74.8174 13.5586 71.984 13.849C70.4082 14.0107 68.7674 14.0444 67.5099 14.2353C66.268 14.424 65.0352 14.6643 63.8113 14.9563C63.7444 14.9723 63.6741 14.9652 63.6118 14.9361C63.4474 14.8567 63.2935 14.8769 63.15 14.9967C63.094 15.0425 63.028 15.0748 62.9573 15.0911C61.2776 15.4669 59.636 15.9602 58.0325 16.5711C57.2973 16.8526 56.5666 17.0757 55.8403 17.2404C54.3893 17.5698 53.3806 17.8813 52.8142 18.1748C51.6956 18.7542 49.5751 19.9109 49.6894 21.5549C49.6922 21.5984 49.7065 21.6402 49.731 21.6762C49.7554 21.7122 49.7891 21.7409 49.8284 21.7593C50.078 21.8761 50.196 22.0835 50.1826 22.3814C50.1811 22.4204 50.1699 22.4234 50.149 22.3904C49.8381 21.8963 49.5049 21.4157 49.1492 20.9485C48.9535 20.6925 48.736 20.67 48.4969 20.8811L47.143 19.1495C47.1197 19.1196 47.0907 19.0949 47.058 19.0767C47.0252 19.0586 46.9893 19.0474 46.9525 19.0439C45.3901 18.898 43.6664 18.8104 42.1152 19.0934C41.5638 19.1944 40.9384 20.1422 40.5685 20.67C38.4017 23.7739 36.7915 27.0455 35.7379 30.4849C35.312 30.4893 35.1484 30.112 35.1126 29.7167C34.9347 27.7762 34.3377 25.9697 33.3215 24.2972C33.0817 23.902 32.6939 23.6998 32.7365 23.1024C32.7425 23.0305 32.7313 22.9601 32.7029 22.8913C32.1133 21.4583 34.0568 19.7806 35.0812 19.0552C36.5188 18.037 37.9638 17.0278 39.4164 16.0276C40.1224 15.5402 41.1356 15.1 41.965 14.5341C43.4467 13.5256 45.2758 12.7889 46.8628 11.9287C47.3784 11.648 48.1047 11.6166 48.6449 11.3628C50.9201 10.2869 53.2513 9.44471 55.7103 8.91017C56.7369 8.69007 57.7613 8.33296 58.8104 8.29478C58.9673 8.28879 59.1145 8.26708 59.252 8.22965C62.751 7.28185 66.0685 6.85063 69.6169 6.5901C69.7888 6.57812 70.0271 6.53844 70.332 6.47106C70.3933 6.45759 70.4142 6.4209 70.3948 6.36101L70.3589 6.24647C70.341 6.18508 70.3626 6.14914 70.4239 6.13866C72.1163 5.8377 74.1875 6.0331 75.38 6.01289C77.0716 5.98294 78.7633 5.95749 80.4549 5.93652C80.4795 5.93655 80.5037 5.94179 80.5258 5.95188C80.5478 5.96196 80.5673 5.97665 80.5827 5.99492C80.62 6.03984 80.6679 6.06379 80.7261 6.06679C82.1308 6.12369 83.5363 6.14689 84.9425 6.13641C85.68 6.13192 86.6797 5.91406 87.6548 6.1701C87.6638 6.17251 87.6732 6.17283 87.6822 6.17102C87.6913 6.16922 87.6999 6.16535 87.7073 6.15971C87.7146 6.15406 87.7206 6.1468 87.7247 6.13848C87.7288 6.13016 87.731 6.121 87.731 6.11171V6.04658C87.731 6.01214 87.7482 5.99492 87.7826 5.99492C88.3235 5.99043 88.7733 6.0301 89.132 6.11395C89.2067 6.13042 89.2665 6.18283 89.3113 6.27117C89.3457 6.33855 89.3995 6.37449 89.4727 6.37898C90.5457 6.45235 91.3474 6.53095 91.8779 6.6148C93.6891 6.8963 97.0148 7.45105 101.855 8.27906C101.861 8.28055 102.182 8.35018 102.819 8.48793C104.186 8.7844 105.417 8.90119 106.735 9.46268C108.88 10.379 111.191 10.9248 113.144 12.1803C113.768 12.5816 114.412 12.9462 115.076 13.2741C115.547 13.5054 115.845 13.9501 116.336 14.2129C116.394 14.2443 116.423 14.2937 116.423 14.3611V14.4644C116.423 14.5183 116.45 14.5408 116.504 14.5318C116.71 14.4959 116.853 14.5767 116.934 14.7744C116.96 14.8358 116.998 14.8867 117.051 14.9271C117.813 15.511 118.683 15.8637 119.355 16.6228C119.398 16.6722 119.451 16.7074 119.512 16.7284C119.758 16.8137 119.951 16.9642 120.088 17.1798C120.116 17.2254 120.155 17.2633 120.202 17.2898C120.736 17.5923 120.975 18.043 120.92 18.6419C120.914 18.7093 120.876 18.7407 120.808 18.7362C120.615 18.7243 120.438 18.7662 120.279 18.862Z" fill="#014093"/>
<path d="M105.582 18.8551L103.553 18.8573C103.47 18.8588 103.428 18.9015 103.428 18.9854L103.367 37.4539L102.538 37.7032C102.472 37.7227 102.432 37.7653 102.417 37.8312C102.392 37.9405 102.331 38.0259 102.235 38.0872C102.22 38.0973 102.202 38.1032 102.184 38.1043C102.165 38.1053 102.147 38.1015 102.131 38.0933C102.115 38.085 102.101 38.0726 102.091 38.0573C102.082 38.0421 102.077 38.0245 102.076 38.0064C102.076 37.9839 102.077 37.9622 102.078 37.9413C102.092 37.808 102.057 37.8043 101.973 37.93C101.361 38.8576 100.44 39.6909 99.7427 40.4814C99.328 40.9531 98.6735 41.2788 98.1042 41.7639C97.5467 42.2385 96.606 42.7656 95.282 43.345C95.0325 43.3256 94.812 43.372 94.6208 43.4843C94.5714 43.5127 94.5184 43.5307 94.4616 43.5382L94.1276 43.5809C94.1166 43.5841 94.1071 43.591 94.1007 43.6005C94.0943 43.61 94.0913 43.6214 94.0924 43.6328C94.0934 43.6443 94.0984 43.655 94.1065 43.6631C94.1146 43.6712 94.1252 43.6763 94.1366 43.6774C94.8285 43.6385 95.495 43.5472 96.1361 43.4034C96.1809 43.393 96.216 43.3959 96.2414 43.4124C96.2713 43.4304 96.2967 43.4581 96.3176 43.4955L93.3969 44.1581C93.3834 44.1611 93.3842 44.1626 93.3991 44.1626C93.4215 44.1641 93.4417 44.1663 93.4596 44.1693C93.5015 44.1783 93.5074 44.1978 93.4776 44.2277L93.4081 44.2951C93.3617 44.343 93.305 44.3684 93.2377 44.3714C91.4108 44.4748 89.6445 44.495 87.9095 43.8931C86.188 43.2956 84.5711 42.4646 83.0588 41.4C82.2428 40.5705 81.5143 39.6901 80.8732 38.7588C80.6424 38.4241 80.3285 38.2647 80.1268 37.8694C79.8264 37.278 79.5178 36.694 79.201 36.1175C79.1781 36.0751 79.1428 36.0408 79.0998 36.0191C79.0568 35.9975 79.0082 35.9896 78.9606 35.9964C78.913 36.0033 78.8686 36.0246 78.8334 36.0575C78.7983 36.0904 78.774 36.1333 78.7639 36.1804C78.4591 37.528 78.3477 38.9168 78.4299 40.3467L78.3268 40.4859C78.3089 40.5129 78.2872 40.5159 78.2618 40.4949C78.2439 40.4799 78.2252 40.4627 78.2058 40.4433C78.1777 40.4164 78.157 40.3829 78.1457 40.3459C78.1343 40.309 78.1326 40.2698 78.1408 40.2321L78.2103 39.9177C78.2147 39.8952 78.2058 39.8885 78.1834 39.8975C78.149 39.911 78.1214 39.9297 78.1004 39.9536C78.0526 40.009 78.0324 40.0727 78.0399 40.1445C78.0519 40.2538 78.013 40.325 77.9233 40.3579L77.9211 39.9716C77.9199 39.963 77.9159 39.9551 77.9097 39.9492C77.9035 39.9432 77.8954 39.9395 77.8868 39.9387C77.8782 39.9379 77.8696 39.9401 77.8624 39.9449C77.8552 39.9496 77.8498 39.9567 77.8471 39.9649C77.7799 40.3272 77.7948 40.6723 77.892 41.0003C77.9891 41.1365 78.013 41.403 77.9637 41.7998C77.9592 41.8372 77.9697 41.8417 77.9951 41.8133L78.0421 41.7594C78.075 41.7205 78.0915 41.6755 78.0915 41.6246V41.4786C78.0928 41.4595 78.1012 41.4436 78.1149 41.4341C78.1287 41.4246 78.1469 41.4221 78.1659 41.4271C78.1849 41.4322 78.2034 41.4444 78.2179 41.4614C78.2323 41.4784 78.2416 41.4989 78.2439 41.5191L78.2663 42.0424C78.2693 42.1247 78.291 42.1292 78.3313 42.0559L78.4008 41.9278L78.4277 41.9862C78.4546 42.8419 78.0959 43.4686 77.1948 43.6123C75.962 43.8055 74.9346 43.8339 74.1127 43.6977C73.9109 43.6647 73.4843 43.4626 72.8328 43.0912C72.77 43.0553 72.7244 43.0044 72.696 42.9385L72.3956 42.231L76.7645 42.1996C76.8646 42.1996 76.9146 42.1494 76.9146 42.0491V19.1336C76.9146 18.9479 76.822 18.8551 76.6367 18.8551L71.9585 18.8484C71.8285 18.8484 71.7628 18.9135 71.7613 19.0438L71.7478 29.8558C71.7478 29.9906 71.7082 30.004 71.629 29.8962C68.5446 25.7569 65.5544 22.2824 61.5129 19.2728C60.5647 18.5654 58.1348 18.8484 56.967 18.8551C56.9226 18.8557 56.8801 18.8736 56.8487 18.9051C56.8173 18.9365 56.7994 18.9791 56.7988 19.0235L56.7697 42.0334C56.7697 42.1367 56.8213 42.1884 56.9244 42.1884L62.1203 42.1794C62.4521 42.1973 62.6269 42.0042 62.6224 41.6718C62.6105 40.6282 62.6381 39.5853 62.7054 38.5432C62.739 38.0423 62.934 37.5864 62.9519 37.1125C63.008 35.5852 63.3061 34.058 63.2949 32.551C63.2859 31.3965 63.0483 30.46 64.0705 29.5279C64.113 29.4894 64.1683 29.4682 64.2256 29.4686C64.2829 29.4691 64.3379 29.491 64.3798 29.5301L64.9492 30.0692C65.0194 30.1351 65.0082 30.1815 64.9156 30.2084L64.1265 30.451C64.0902 30.4619 64.0573 30.4821 64.031 30.5096C64.0047 30.5371 63.9859 30.5711 63.9763 30.6082C63.8777 31.0102 63.7522 31.3786 63.7477 31.7941C63.7387 33.2734 63.6072 34.7423 63.3532 36.2006C63.2202 36.9688 63.1417 38.8374 63.1178 41.8066C63.1156 41.9413 63.0551 42.1143 63.0371 42.2535C63.0296 42.2999 63.0446 42.3089 63.082 42.2805C63.1163 42.255 63.135 42.2168 63.138 42.1659C63.2546 40.6551 63.3748 39.1443 63.4989 37.6336C63.6154 36.2141 64.0055 33.6582 64.0122 31.6234C64.0144 31.255 64.1669 30.9878 64.4112 30.7475C64.4276 30.731 64.4478 30.7265 64.4717 30.734C64.4882 30.74 64.5068 30.746 64.5278 30.7519C64.5741 30.7654 64.5801 30.7894 64.5457 30.8238L64.465 30.9024C64.4411 30.9264 64.4456 30.9443 64.4784 30.9563C65.6777 31.3516 66.2179 31.4819 66.85 32.4544C66.4973 32.4065 66.194 32.256 65.9399 32.0029C65.9252 31.9882 65.9083 31.9774 65.8906 31.9715L65.1509 31.7199C65.0867 31.6975 65.0209 31.6945 64.9537 31.711C64.6623 31.7858 64.4934 31.9281 64.4471 32.1377C64.2633 32.9657 64.1123 34.0565 63.9943 35.4101C63.7455 38.24 63.5594 39.9379 63.407 41.9862C63.3681 42.5148 63.1679 42.943 62.8062 43.2709C62.7495 43.3233 62.6822 43.354 62.6045 43.363C61.3716 43.5023 60.1388 43.5202 58.9059 43.4169C58.0183 43.3428 57.7627 42.9722 56.7518 43.3383C55.2835 43.8706 53.515 43.8683 52.0109 43.7875C50.6009 43.7134 49.915 42.2984 49.9867 41.0137L49.6819 38.8441C49.8866 38.8756 50.0151 38.8569 50.0674 38.788L50.4216 42.0716C50.4306 42.1629 50.4806 42.2086 50.5718 42.2086H55.5077C55.523 42.2087 55.5382 42.2056 55.5522 42.1992C55.5663 42.1929 55.5788 42.1836 55.589 42.1719C55.5992 42.1602 55.6068 42.1464 55.6113 42.1314C55.6159 42.1164 55.6172 42.1006 55.6153 42.0851C54.6402 34.606 52.9523 27.2774 48.4961 20.881C48.7352 20.6698 48.9526 20.6923 49.1484 20.9483C49.5041 21.4155 49.8373 21.8961 50.1481 22.3902C50.169 22.4232 50.1803 22.4202 50.1817 22.3813C50.1952 22.0833 50.0771 21.8759 49.8276 21.7591C49.7883 21.7407 49.7546 21.712 49.7301 21.676C49.7057 21.6401 49.6913 21.5982 49.6886 21.5547C49.5743 19.9107 51.6948 18.754 52.8133 18.1746C53.3797 17.8811 54.3884 17.5697 55.8395 17.2403C56.5657 17.0756 57.2965 16.8525 58.0317 16.571C59.6352 15.9601 61.2767 15.4667 62.9564 15.0909C63.0272 15.0746 63.0932 15.0424 63.1492 14.9965C63.2927 14.8768 63.4466 14.8565 63.611 14.9359C63.6733 14.965 63.7436 14.9721 63.8105 14.9561C65.0344 14.6641 66.2672 14.4238 67.509 14.2352C68.7666 14.0443 70.4074 14.0106 71.9832 13.8489C74.8165 13.5584 77.9062 13.4955 81.2521 13.6602C81.8954 13.6916 82.3437 14.0735 83.1171 13.8062C83.1813 13.7837 83.2448 13.786 83.3076 13.8129C83.6348 13.9567 83.9479 13.9447 84.2468 13.777C84.3111 13.7396 84.3798 13.7223 84.453 13.7253C86.043 13.7762 87.6301 13.8444 89.2141 13.9297C90.5725 14.0016 91.9152 14.2644 93.2669 14.489C93.2982 14.4949 93.299 14.5039 93.2691 14.5159C93.2497 14.5249 93.231 14.5369 93.2131 14.5518C93.1787 14.5833 93.1847 14.6035 93.231 14.6125C94.0693 14.7757 94.9137 14.8685 95.764 14.891C96.5978 14.9134 97.3196 15.3424 98.0862 15.6187C98.409 15.7355 98.6578 16.0813 99.1084 15.8478C99.1771 15.8133 99.2488 15.8058 99.3236 15.8253C100.465 16.1412 101.571 16.5403 102.641 17.0224C102.91 17.1437 103.252 17.2343 103.668 17.2942C104.724 17.4469 105.362 17.9672 105.582 18.8551ZM90.2345 43.08C91.7816 43.0719 93.312 42.7397 94.7381 42.1025C96.1642 41.4653 97.4581 40.5356 98.5461 39.3663C99.634 38.197 100.495 36.8111 101.079 35.2878C101.663 33.7645 101.959 32.1335 101.95 30.488C101.933 27.1649 100.675 23.9844 98.4535 21.6461C96.2317 19.3079 93.2282 18.0035 90.1036 18.0198C86.9789 18.0362 83.9892 19.3721 81.792 21.7335C79.5948 24.0949 78.3702 27.2884 78.3876 30.6116C78.4049 33.9347 79.6628 37.1153 81.8846 39.4535C84.1063 41.7917 87.1098 43.0962 90.2345 43.0798V43.08ZM98.6309 40.3489C99.1353 40.0592 100.09 39.3742 100.245 38.7161C100.261 38.6457 100.297 38.5866 100.352 38.5387C100.792 38.1546 100.832 37.7189 101.166 37.3124C101.329 37.1133 101.409 36.974 101.406 36.8946C101.388 36.3496 101.292 36.3361 101.119 36.8542C100.94 37.3888 100.516 37.7571 100.272 38.2602C100.025 38.7655 99.9378 39.0575 99.5051 39.4595C99.2018 39.7425 98.9059 40.033 98.6175 40.331C98.6151 40.3328 98.6135 40.3354 98.6131 40.3384C98.6127 40.3413 98.6134 40.3443 98.6152 40.3467C98.617 40.3491 98.6197 40.3506 98.6226 40.3511C98.6256 40.3515 98.6285 40.3507 98.6309 40.3489Z" fill="#014FA0"/>
<path d="M90.2359 43.0804C88.6887 43.0885 87.155 42.7724 85.7223 42.1502C84.2896 41.528 82.986 40.6118 81.8859 39.454C80.7858 38.2962 79.9108 36.9194 79.3108 35.4023C78.7108 33.8852 78.3976 32.2574 78.389 30.6119C78.3717 27.2888 79.5963 24.0952 81.7934 21.7338C83.9906 19.3724 86.9804 18.0366 90.105 18.0202C93.2296 18.0038 96.2332 19.3082 98.4549 21.6465C100.677 23.9847 101.935 27.1652 101.952 30.4884C101.969 33.8115 100.745 37.0051 98.5474 39.3665C96.3503 41.7279 93.3605 43.0637 90.2359 43.0801V43.0804ZM83.6766 33.1914C84.3043 35.3086 85.6088 36.8388 87.5904 37.7821C88.9323 38.4874 90.3804 38.5982 91.9345 38.1145C97.0677 36.5177 98.4665 29.7573 95.4112 25.6944C92.4568 21.7303 87.1421 22.139 84.5553 26.2402C83.2836 28.257 82.9907 30.5741 83.6766 33.1914ZM23.6924 18.55C28.8771 19.5989 33.0487 22.9364 33.7929 28.439C35.5525 41.4139 23.2553 44.4145 13.4283 42.4447C13.3695 42.4323 13.3174 42.3987 13.2818 42.3502C13.2463 42.3017 13.2298 42.2419 13.2355 42.182C13.3745 40.7655 13.4544 39.3573 13.4753 37.9573C13.571 31.486 13.5007 25.3231 13.2646 19.4686C13.2527 19.1961 13.2504 18.9722 13.2579 18.797C13.2609 18.7177 13.302 18.6713 13.3812 18.6578C17.082 18.0379 20.0969 17.8223 23.6924 18.55ZM18.7183 22.7926L18.6645 38.0157C18.6645 38.0312 18.6707 38.0461 18.6816 38.057C18.6925 38.068 18.7074 38.0741 18.7228 38.0741L21.1168 38.0831C23.1571 38.0902 25.1165 37.3498 26.5638 36.0247C28.0112 34.6996 28.828 32.8984 28.8345 31.0173L28.839 29.8629C28.8423 28.9314 28.6465 28.0084 28.2629 27.1465C27.8793 26.2846 27.3153 25.5008 26.6033 24.8396C25.8912 24.1785 25.0449 23.6531 24.1128 23.2934C23.1806 22.9337 22.1809 22.7467 21.1706 22.7432L18.7766 22.7342C18.7612 22.7342 18.7463 22.7404 18.7354 22.7513C18.7245 22.7623 18.7183 22.7771 18.7183 22.7926ZM129.837 32.7242C130.734 37.8563 136.972 40.8681 140.902 36.5581C140.952 36.5027 141.016 36.4618 141.088 36.4393C141.159 36.4168 141.236 36.4136 141.309 36.4301L146.012 37.4902C146.091 37.5081 146.109 37.5523 146.066 37.6227C143.625 41.5845 139.202 44.0686 134.551 43.1724C128.882 42.0809 125.177 36.9714 124.912 31.3048C124.655 25.7663 127.992 20.1356 133.439 18.6017C141.363 16.3692 146.848 24.0773 146.783 31.2037C146.78 31.629 146.743 31.9666 146.671 32.2167C146.609 32.4368 146.462 32.5468 146.232 32.5468L129.981 32.5536C129.959 32.5536 129.938 32.5583 129.919 32.5673C129.899 32.5763 129.882 32.5894 129.868 32.6057C129.855 32.622 129.845 32.6411 129.839 32.6616C129.834 32.6821 129.833 32.7035 129.837 32.7242ZM141.919 27.9201C140.101 20.8431 131.819 21.0834 129.9 27.9448C129.879 28.0212 129.908 28.0594 129.987 28.0594H141.812C141.907 28.0594 141.943 28.013 141.919 27.9201Z" fill="white"/>
<path d="M72.3951 42.2314C72.2606 42.14 72.1694 41.9491 72.1216 41.6587L71.68 40.2235C69.5371 35.0024 66.3899 30.512 62.2386 26.7522C62.2281 26.743 62.2152 26.7368 62.2015 26.7346C62.1877 26.7323 62.1736 26.734 62.161 26.7395C62.1484 26.745 62.1377 26.754 62.1304 26.7655C62.1231 26.7769 62.1194 26.7903 62.1198 26.8039V42.1797L56.9238 42.1887C56.8207 42.1887 56.7691 42.1371 56.7691 42.0337L56.7983 19.0239C56.7989 18.9794 56.8168 18.9369 56.8482 18.9054C56.8796 18.874 56.922 18.856 56.9664 18.8554C58.1343 18.8487 60.5641 18.5657 61.5123 19.2732C65.5538 22.2828 68.5441 25.7573 71.6285 29.8966C71.7077 30.0044 71.7473 29.9909 71.7473 29.8561L71.7607 19.0441C71.7622 18.9138 71.828 18.8487 71.958 18.8487L76.6361 18.8554C76.8214 18.8554 76.9141 18.9483 76.9141 19.1339V42.0495C76.9141 42.1498 76.864 42.1999 76.7639 42.1999L72.3951 42.2314ZM105.581 18.8554C106.698 18.7342 107.514 18.7881 108.433 19.518C110.981 21.5394 113.288 23.804 115.355 26.312C116.287 27.444 117.213 28.5797 118.132 29.7191C118.202 29.806 118.237 29.794 118.237 29.6832L118.24 18.9902C118.24 18.9123 118.279 18.8734 118.358 18.8734L120.277 18.8622L123.321 18.8936C123.394 18.8936 123.431 18.9303 123.431 19.0037L123.449 42.0787C123.45 42.1535 123.413 42.191 123.337 42.191L118.912 42.1865C117.37 37.0971 114.306 32.3312 110.665 28.5086L108.863 26.8264C108.784 26.7515 108.744 26.7687 108.744 26.878V42.0944C108.744 42.1677 108.708 42.2044 108.634 42.2044L105.048 42.2089L103.416 42.146L103.356 39.4801L103.367 37.4542L103.427 18.9857C103.427 18.9019 103.469 18.8592 103.553 18.8577L105.581 18.8554ZM48.4955 20.8813C52.9518 27.2778 54.6397 34.6064 55.6147 42.0854C55.6167 42.101 55.6153 42.1168 55.6108 42.1317C55.6062 42.1467 55.5986 42.1605 55.5884 42.1722C55.5782 42.1839 55.5657 42.1932 55.5517 42.1996C55.5377 42.2059 55.5225 42.2091 55.5071 42.2089H50.5712C50.4801 42.2089 50.43 42.1633 50.421 42.0719L50.0669 38.7883L49.8405 37.1712C49.8356 37.1359 49.818 37.1034 49.7908 37.0799C49.7636 37.0564 49.7287 37.0433 49.6925 37.0432H39.2289C39.0989 37.0432 39.0272 37.1076 39.0137 37.2364L38.4869 42.0203C38.4792 42.0883 38.4464 42.1511 38.395 42.1963C38.3437 42.2416 38.2774 42.2661 38.209 42.2651L33.4233 42.191C33.3545 42.1895 33.3246 42.155 33.3336 42.0876C33.8133 38.1452 34.6143 34.2777 35.7365 30.485C36.7901 27.0457 38.4003 23.7741 40.5671 20.6702C40.937 20.1424 41.5624 19.1946 42.1138 19.0935C43.665 18.8105 45.3887 18.8981 46.9511 19.0441C46.9879 19.0476 47.0238 19.0587 47.0565 19.0769C47.0893 19.095 47.1182 19.1198 47.1416 19.1497L48.4955 20.8813ZM41.4413 32.3087L42.3895 32.3222L48.6143 32.3245C48.6385 32.3243 48.6623 32.3186 48.6839 32.3077C48.7055 32.2969 48.7243 32.2811 48.7389 32.2618C48.7534 32.2425 48.7633 32.22 48.7677 32.1962C48.7722 32.1724 48.7711 32.1479 48.7645 32.1246C47.8544 29.0072 46.443 26.1391 44.5302 23.5203C44.5209 23.5073 44.5086 23.4967 44.4943 23.4894C44.4801 23.4821 44.4644 23.4783 44.4484 23.4783C44.4324 23.4783 44.4167 23.4821 44.4024 23.4894C44.3882 23.4967 44.3759 23.5073 44.3666 23.5203C42.4896 26.1915 41.0752 29.0895 40.1233 32.2144C40.1009 32.2848 40.1263 32.32 40.1995 32.32L41.4413 32.3087Z" fill="white"/>
<path d="M18.714 22.7921C18.714 22.7766 18.7201 22.7618 18.731 22.7508C18.742 22.7399 18.7568 22.7337 18.7722 22.7337L21.1662 22.7427C22.1765 22.7462 23.1762 22.9332 24.1084 23.2929C25.0405 23.6526 25.8868 24.178 26.5989 24.8391C27.3109 25.5002 27.8749 26.2841 28.2585 27.146C28.6421 28.0079 28.8379 28.9309 28.8346 29.8624L28.8301 31.0168C28.8236 32.8979 28.0068 34.6991 26.5594 36.0242C25.1121 37.3493 23.1527 38.0897 21.1124 38.0826L18.7184 38.0736C18.703 38.0736 18.6882 38.0674 18.6772 38.0565C18.6663 38.0455 18.6602 38.0307 18.6602 38.0152L18.714 22.7921ZM129.896 27.9443C131.814 21.0829 140.097 20.8426 141.915 27.9196C141.939 28.0125 141.903 28.0589 141.807 28.0589H129.983C129.904 28.0589 129.875 28.0207 129.896 27.9443Z" fill="#0B2E81"/>
<path d="M95.4115 25.6943C95.0842 25.8964 94.7854 25.8126 94.5149 25.4427C94.4715 25.3843 94.4132 25.3507 94.34 25.3417C93.8125 25.2773 93.2857 25.1994 92.7597 25.1081C91.1772 24.8341 89.8143 25.0138 88.3483 25.6224C88.1481 25.7063 87.8768 25.8882 87.5346 26.1682C87.2911 26.3688 87.0153 26.5223 86.7075 26.6286C86.6729 26.64 86.641 26.6586 86.614 26.6834C86.587 26.7082 86.5654 26.7385 86.5506 26.7723C86.2188 27.5255 85.9035 28.1237 85.6047 28.5669C84.7409 29.8531 84.3852 31.2171 84.5377 32.659C84.6139 32.9076 84.6243 33.1673 84.5691 33.4384C84.5377 33.4384 84.528 33.356 84.5399 33.1913C84.5414 33.188 84.5415 33.1843 84.5403 33.1809C84.539 33.1775 84.5365 33.1748 84.5332 33.1733C84.5299 33.1718 84.5262 33.1717 84.5228 33.173C84.5195 33.1742 84.5167 33.1768 84.5153 33.1801L84.4727 33.2295C84.4681 33.2345 84.4622 33.2383 84.4557 33.2403C84.4491 33.2423 84.4422 33.2425 84.4355 33.2409C84.4289 33.2393 84.4228 33.2359 84.4179 33.2312C84.413 33.2264 84.4094 33.2204 84.4077 33.2138C84.3419 32.8679 84.2246 32.537 84.0557 32.221C83.996 32.1102 83.9668 32.1177 83.9683 32.2435C83.9728 32.5235 84.0236 32.7938 84.1207 33.0543C84.1357 33.0947 84.1215 33.1187 84.0781 33.1262L83.6769 33.1913C82.991 30.574 83.2839 28.2569 84.5556 26.24C87.1424 22.1389 92.4571 21.7302 95.4115 25.6943Z" fill="#014093"/>
<path d="M42.3913 32.3219C42.209 32.2725 42.1492 32.1025 42.212 31.8121C42.3166 31.3135 42.679 30.3597 43.2991 28.9507C43.6892 28.0591 44.3908 27.1562 44.8055 26.15C44.8929 25.9411 45.1081 25.7906 45.265 25.6177C45.3068 25.5728 45.3083 25.5256 45.2695 25.4762L44.9041 25.027C44.8383 24.9477 44.7801 24.9529 44.7292 25.0427C44.0478 26.2316 43.4067 27.4407 42.806 28.67C42.8 28.6849 42.6252 29.0196 42.2815 29.6739C41.8376 30.5169 41.5582 31.3951 41.4431 32.3084L40.2013 32.3196C40.1281 32.3196 40.1027 32.2845 40.1251 32.2141C41.077 29.0892 42.4914 26.1912 44.3683 23.52C44.3777 23.507 44.39 23.4964 44.4042 23.4891C44.4184 23.4818 44.4342 23.478 44.4502 23.478C44.4661 23.478 44.4819 23.4818 44.4961 23.4891C44.5103 23.4964 44.5226 23.507 44.532 23.52C46.4448 26.1388 47.8562 29.0069 48.7663 32.1243C48.7729 32.1476 48.774 32.1721 48.7695 32.1959C48.7651 32.2197 48.7552 32.2421 48.7406 32.2615C48.7261 32.2808 48.7073 32.2966 48.6857 32.3074C48.6641 32.3183 48.6403 32.324 48.6161 32.3241L42.3913 32.3219Z" fill="#014FA0"/>
<path d="M42.3896 32.3224L41.4414 32.3089C41.5565 31.3956 41.8359 30.5174 42.2797 29.6744C42.6235 29.0201 42.7983 28.6854 42.8043 28.6705C43.405 27.4412 44.0461 26.2321 44.7275 25.0432C44.7783 24.9534 44.8366 24.9482 44.9024 25.0275L45.2678 25.4767C45.3066 25.5261 45.3051 25.5733 45.2633 25.6182C45.1064 25.7911 44.8912 25.9416 44.8038 26.1505C44.3891 27.1567 43.6875 28.0596 43.2974 28.9512C42.6773 30.3602 42.3149 31.3139 42.2103 31.8126C42.1475 32.103 42.2073 32.273 42.3896 32.3224Z" fill="#014093"/>
<path d="M95.4081 25.6939C98.4634 29.7569 97.0646 36.5172 91.9315 38.1141C90.3773 38.5977 88.9293 38.4869 87.5873 37.7817L85.2292 35.2707C85.2029 35.2429 85.1838 35.209 85.1737 35.1718C85.1635 35.1346 85.1626 35.0953 85.1709 35.0573C85.3995 34.0152 85.0902 33.0831 85.2135 32.0702C85.2136 32.0662 85.2123 32.0623 85.2099 32.0591C85.2075 32.0559 85.204 32.0536 85.2002 32.0525C85.1963 32.0515 85.1922 32.0518 85.1885 32.0534C85.1849 32.0549 85.1818 32.0577 85.1799 32.0612C84.9826 32.5755 85.1507 33.0988 84.9557 33.5211C84.9124 33.6124 84.8885 33.6079 84.884 33.5076L84.8033 31.7647C84.8033 31.7588 84.8009 31.7531 84.7967 31.7489C84.7925 31.7446 84.7868 31.7423 84.7809 31.7423C84.7749 31.7423 84.7692 31.7446 84.765 31.7489C84.7608 31.7531 84.7585 31.7588 84.7585 31.7647L84.6867 32.5576C84.6822 32.5905 84.6695 32.5942 84.6486 32.5688C84.6337 32.5508 84.6292 32.5254 84.6352 32.4924C84.6636 32.3547 84.6628 32.2154 84.6329 32.0747C84.6326 32.0709 84.6316 32.0671 84.6298 32.0637C84.6281 32.0603 84.6257 32.0572 84.6228 32.0547C84.6199 32.0522 84.6165 32.0503 84.6129 32.0491C84.6092 32.0479 84.6054 32.0474 84.6015 32.0477C84.5977 32.048 84.594 32.0491 84.5906 32.0508C84.5871 32.0526 84.5841 32.055 84.5816 32.0579C84.5791 32.0608 84.5772 32.0642 84.576 32.0678C84.5748 32.0715 84.5743 32.0753 84.5746 32.0792L84.5343 32.6586C84.3819 31.2167 84.7375 29.8527 85.6013 28.5665C85.9002 28.1233 86.2155 27.5251 86.5472 26.772C86.562 26.7381 86.5836 26.7078 86.6106 26.683C86.6377 26.6583 86.6695 26.6396 86.7041 26.6282C87.012 26.5219 87.2877 26.3684 87.5313 26.1678C87.8735 25.8878 88.1447 25.7059 88.345 25.622C89.8109 25.0134 91.1738 24.8337 92.7564 25.1077C93.2824 25.1991 93.8091 25.2769 94.3367 25.3413C94.4099 25.3503 94.4682 25.384 94.5115 25.4424C94.782 25.8122 95.0809 25.8961 95.4081 25.6939Z" fill="#0172C3"/>
<path d="M71.6775 40.2233C71.5251 40.2922 71.4384 40.3019 71.4175 40.2525C70.9811 39.2044 70.5089 38.2109 70.0008 37.2721C69.0847 35.5292 68.0334 33.9234 66.8469 32.4545C66.2148 31.482 65.6746 31.3517 64.4753 30.9564C64.4425 30.9445 64.438 30.9265 64.4619 30.9025L64.5426 30.8239C64.577 30.7895 64.571 30.7655 64.5246 30.7521C64.5037 30.7461 64.485 30.7401 64.4686 30.7341C64.4447 30.7266 64.4245 30.7311 64.4081 30.7476C64.1638 30.9879 64.0113 31.2552 64.0091 31.6235C64.0024 33.6583 63.6123 36.2142 63.4958 37.6337C63.3717 39.1445 63.2514 40.6553 63.1349 42.166C63.1319 42.2169 63.1132 42.2551 63.0788 42.2806C63.0415 42.309 63.0265 42.3 63.034 42.2536C63.0519 42.1144 63.1125 41.9414 63.1147 41.8067C63.1386 38.8375 63.2171 36.9689 63.3501 36.2008C63.6041 34.7424 63.7356 33.2735 63.7446 31.7942C63.7491 31.3787 63.8746 31.0104 63.9732 30.6083C63.9827 30.5712 64.0016 30.5373 64.0279 30.5097C64.0542 30.4822 64.0871 30.462 64.1234 30.4511L64.9124 30.2085C65.0051 30.1816 65.0163 30.1352 64.9461 30.0693L64.3767 29.5303C64.3348 29.4911 64.2798 29.4692 64.2225 29.4688C64.1652 29.4684 64.1098 29.4895 64.0674 29.528C63.0452 30.4601 63.2828 31.3967 63.2918 32.5511C63.303 34.0581 63.0049 35.5854 62.9488 37.1126C62.9309 37.5865 62.7359 38.0424 62.7023 38.5433C62.635 39.5854 62.6074 40.6283 62.6193 41.6719C62.6238 42.0043 62.449 42.1975 62.1172 42.1795V26.8037C62.1168 26.79 62.1205 26.7767 62.1279 26.7653C62.1352 26.7538 62.1458 26.7448 62.1585 26.7393C62.1711 26.7338 62.1851 26.7321 62.1989 26.7344C62.2127 26.7366 62.2256 26.7428 62.236 26.752C66.3874 30.5117 69.5345 35.0022 71.6775 40.2233ZM110.663 28.5084C110.675 28.5877 110.67 28.6626 110.649 28.733C110.634 28.7854 110.601 28.8198 110.548 28.8363L109.979 29.0204C109.882 29.0519 109.838 29.1193 109.847 29.2226C109.912 29.8649 109.685 30.4691 109.634 30.9834C109.52 32.0839 109.465 33.1859 109.468 34.2895C109.475 36.3894 109.251 38.5029 109.399 40.6343C109.437 41.1666 109.284 41.6607 109.277 42.211C109.277 42.2918 109.246 42.3569 109.183 42.4064C108.506 42.9656 106.406 42.6736 105.512 42.6512C105.368 42.6467 105.266 42.607 105.205 42.5321C105.139 42.4513 105.086 42.3435 105.045 42.2087L108.632 42.2042C108.705 42.2042 108.742 42.1675 108.742 42.0942V26.8778C108.742 26.7685 108.781 26.7513 108.861 26.8261L110.663 28.5084Z" fill="#014093"/>
<path d="M110.665 28.5088C114.306 32.3314 117.37 37.0973 118.912 42.1867C118.854 42.7512 119.099 42.9773 119.647 42.865C119.669 42.8604 119.691 42.8604 119.712 42.8648C119.734 42.8693 119.754 42.8781 119.772 42.8907C119.79 42.9034 119.805 42.9196 119.816 42.9383C119.828 42.9571 119.835 42.978 119.838 42.9997L119.849 43.0806C119.861 43.1689 119.911 43.2116 119.999 43.2086C120.319 43.2026 120.597 43.3127 120.833 43.5387C120.886 43.5897 120.948 43.6196 121.022 43.6286C121.992 43.7364 122.956 43.9048 123.447 44.7044C123.487 44.7703 123.506 44.8414 123.503 44.9178L123.478 45.8027C123.477 45.8551 123.501 45.879 123.552 45.8745C123.575 45.873 123.596 45.873 123.615 45.8745C123.619 45.875 123.623 45.8763 123.626 45.8785C123.63 45.8807 123.633 45.8836 123.635 45.8871C123.637 45.8905 123.638 45.8944 123.639 45.8985C123.639 45.9025 123.639 45.9066 123.637 45.9105L123.252 46.9144C123.226 46.9818 123.179 47.0267 123.111 47.0492C122.382 47.2805 121.598 47.8892 121.098 47.8959C121.023 47.8959 120.962 47.9259 120.914 47.9857C120.764 48.1759 120.574 48.2912 120.342 48.3316C120.28 48.3421 120.223 48.3691 120.174 48.4125L119.735 48.792L111.273 52.0644C111.217 52.0866 111.167 52.122 111.127 52.1677C111.041 52.2665 110.902 52.3504 110.713 52.4193C108.767 53.1155 107.065 53.6321 105.606 53.969C105.684 53.8222 105.853 53.6605 106.113 53.4839C106.512 53.3731 106.774 53.2682 106.9 53.1694C107.707 52.5271 108.617 52.1176 109.63 51.9409C110.103 51.86 110.432 51.3637 110.428 50.892C110.422 50.4743 110.347 50.0685 110.204 49.6747C110.18 49.6103 110.188 49.5504 110.228 49.495C110.627 48.9403 109.531 46.7213 109.204 46.1598C108.417 44.8122 107.198 44.9537 105.996 44.2956C105.407 43.9745 104.629 43.97 104.331 43.3097C104.253 43.136 104.279 43.1195 104.407 43.2602L104.745 43.6286C104.78 43.666 104.821 43.675 104.869 43.6555L104.994 43.6039C105.057 43.5784 105.064 43.5425 105.014 43.4961L104.057 42.6201C103.993 42.5603 103.917 42.5266 103.829 42.5191C103.484 42.4876 103.346 42.3634 103.416 42.1463L105.048 42.2091C105.088 42.3439 105.142 42.4517 105.207 42.5326C105.269 42.6074 105.371 42.6471 105.514 42.6516C106.409 42.6741 108.509 42.966 109.186 42.4068C109.249 42.3574 109.28 42.2922 109.28 42.2114C109.287 41.6611 109.439 41.167 109.401 40.6347C109.253 38.5033 109.477 36.3899 109.471 34.2899C109.468 33.1864 109.523 32.0844 109.637 30.9838C109.688 30.4695 109.915 29.8653 109.85 29.223C109.841 29.1197 109.885 29.0523 109.982 29.0209L110.551 28.8367C110.603 28.8202 110.637 28.7858 110.652 28.7334C110.673 28.663 110.677 28.5881 110.665 28.5088ZM110.385 37.0232C110.426 36.9828 110.457 35.9182 110.524 35.6375C110.705 34.8888 110.751 33.8287 110.661 32.4572C110.623 31.8979 110.742 31.3679 110.773 30.8019C110.779 30.7076 110.828 30.6514 110.919 30.6335L111.627 30.4942C111.709 30.4777 111.723 30.4366 111.67 30.3707L111.289 29.899C111.227 29.8242 111.151 29.8032 111.06 29.8362C110.631 29.9949 110.406 30.3011 110.385 30.7547C110.228 34.2405 110.06 37.727 109.879 41.2142C109.85 41.7667 109.711 42.3244 109.462 42.8874C109.438 42.9398 109.454 42.9735 109.509 42.9885C109.563 43.0035 109.601 42.981 109.625 42.9211C110.311 41.1603 110.323 39.0648 110.327 37.1602C110.327 37.1078 110.346 37.0622 110.385 37.0232Z" fill="#025FAF"/>
<path d="M110.325 37.16C110.321 39.0645 110.31 41.16 109.624 42.9209C109.6 42.9808 109.561 43.0032 109.507 42.9882C109.452 42.9733 109.436 42.9396 109.46 42.8872C109.71 42.3242 109.849 41.7664 109.877 41.2139C110.058 37.7267 110.227 34.2402 110.384 30.7545C110.404 30.3008 110.629 29.9946 111.058 29.8359C111.149 29.803 111.226 29.8239 111.287 29.8988L111.668 30.3704C111.722 30.4363 111.708 30.4775 111.625 30.494L110.917 30.6332C110.826 30.6512 110.777 30.7073 110.771 30.8017C110.74 31.3676 110.621 31.8977 110.659 32.4569C110.749 33.8285 110.703 34.8886 110.523 35.6372C110.455 35.918 110.424 36.9825 110.384 37.023C110.345 37.0619 110.325 37.1076 110.325 37.16Z" fill="#014FA0"/>
<path d="M66.851 32.4545C68.0375 33.9234 69.0888 35.5293 70.0049 37.2721C69.2696 36.8005 68.8774 37.2519 68.0816 37.2362C67.8694 37.2317 67.7499 37.3343 67.723 37.5439C67.714 37.6053 67.6819 37.6495 67.6266 37.6764L66.3108 38.3075C66.2981 38.3135 66.2873 38.3232 66.2798 38.3356C66.2722 38.3479 66.2682 38.3623 66.2682 38.3771V38.4513C66.2652 38.5111 66.2338 38.5411 66.174 38.5411C63.5066 38.5029 65.0376 42.1032 63.7531 43.3609C63.0896 44.0108 62.2476 44.2952 61.2269 44.2144C61.1163 44.2054 61.0259 44.2421 60.9557 44.3244C60.9108 44.3783 60.8541 44.4113 60.7853 44.4233C59.9873 44.57 59.1878 44.594 58.3868 44.4951C58.085 44.4577 57.8474 44.4547 57.674 44.4862C57.3632 44.5386 57.139 44.6344 57.0016 44.7736C56.4793 45.2925 55.7351 45.4789 55.4907 46.1841C55.4668 46.2545 55.4183 46.2859 55.345 46.2784L55.0357 46.247C54.967 46.2395 54.9177 46.2664 54.8878 46.3278C54.3916 47.2981 54.0883 47.9225 53.9777 48.201C53.5159 49.3756 52.8883 50.3953 52.57 51.4666C52.44 51.9038 52.3137 52.344 52.1912 52.7872C52.1706 52.8621 52.1706 52.9405 52.1912 53.0141C52.2763 53.327 52.2083 53.6587 51.9872 54.009L44.4802 51.4307C44.4144 51.0384 44.5601 50.6229 44.9173 50.1842C44.9655 50.1256 44.9952 50.0536 45.0025 49.9775C45.3447 46.8841 46.4087 44.0901 48.1945 41.5956C48.6809 40.9151 49.2009 40.6119 49.9877 41.0139C49.916 42.2986 50.6019 43.7135 52.0118 43.7877C53.5159 43.8685 55.2845 43.8708 56.7527 43.3385C57.7637 42.9724 58.0192 43.343 58.9069 43.4171C60.1397 43.5204 61.3726 43.5024 62.6055 43.3632C62.6832 43.3542 62.7504 43.3235 62.8072 43.2711C63.1688 42.9432 63.3691 42.5149 63.4079 41.9864C63.5604 39.9381 63.7464 38.2401 63.9952 35.4102C64.1133 34.0567 64.2642 32.9659 64.448 32.1379C64.4944 31.9282 64.6632 31.786 64.9546 31.7111C65.0219 31.6947 65.0876 31.6977 65.1519 31.7201L65.8916 31.9717C65.9092 31.9776 65.9262 31.9883 65.9409 32.0031C66.195 32.2562 66.4983 32.4066 66.851 32.4545Z" fill="#0172C3"/>
<path d="M87.5895 37.7821C85.608 36.8388 84.3034 35.3085 83.6758 33.1913L84.077 33.1262C84.1204 33.1187 84.1346 33.0947 84.1196 33.0543C84.0225 32.7938 83.9717 32.5235 83.9672 32.2435C83.9657 32.1178 83.9948 32.1103 84.0546 32.2211C84.2235 32.537 84.3408 32.8679 84.4065 33.2138C84.4083 33.2204 84.4118 33.2264 84.4167 33.2312C84.4216 33.236 84.4277 33.2393 84.4344 33.241C84.441 33.2426 84.448 33.2423 84.4545 33.2403C84.4611 33.2383 84.4669 33.2346 84.4715 33.2295L84.5141 33.1801C84.5156 33.1768 84.5183 33.1743 84.5217 33.173C84.5251 33.1717 84.5288 33.1719 84.5321 33.1734C84.5353 33.1748 84.5379 33.1776 84.5391 33.1809C84.5404 33.1843 84.5403 33.188 84.5388 33.1913C84.5268 33.356 84.5365 33.4384 84.5679 33.4384C84.6232 33.1674 84.6128 32.9076 84.5365 32.659L84.5769 32.0796C84.5766 32.0757 84.5771 32.0719 84.5782 32.0682C84.5794 32.0646 84.5813 32.0612 84.5838 32.0583C84.5863 32.0553 84.5894 32.0529 84.5928 32.0512C84.5962 32.0495 84.6 32.0484 84.6038 32.0481C84.6076 32.0478 84.6115 32.0483 84.6151 32.0495C84.6188 32.0507 84.6221 32.0526 84.6251 32.0551C84.628 32.0576 84.6304 32.0606 84.6321 32.0641C84.6338 32.0675 84.6349 32.0712 84.6352 32.0751C84.6651 32.2158 84.6658 32.3551 84.6374 32.4928C84.6314 32.5258 84.6359 32.5512 84.6509 32.5692C84.6718 32.5946 84.6845 32.5909 84.689 32.558L84.7607 31.7651C84.7607 31.7592 84.7631 31.7535 84.7673 31.7493C84.7715 31.745 84.7772 31.7427 84.7831 31.7427C84.7891 31.7427 84.7948 31.745 84.799 31.7493C84.8032 31.7535 84.8055 31.7592 84.8055 31.7651L84.8862 33.508C84.8907 33.6083 84.9146 33.6128 84.958 33.5215C85.153 33.0992 84.9849 32.5759 85.1821 32.0616C85.184 32.0581 85.1871 32.0553 85.1908 32.0538C85.1945 32.0522 85.1986 32.0519 85.2024 32.0529C85.2063 32.054 85.2097 32.0563 85.2121 32.0595C85.2145 32.0627 85.2158 32.0666 85.2157 32.0706C85.0924 33.0835 85.4018 34.0156 85.1731 35.0577C85.1648 35.0957 85.1658 35.135 85.1759 35.1722C85.1861 35.2094 85.2051 35.2433 85.2314 35.2711L87.5895 37.7821Z" fill="#014FA0"/>
<path d="M83.0603 41.3997C82.5291 41.2784 82.3161 41.0111 81.9104 40.5035C81.2312 39.6546 78.492 39.6501 78.8574 41.3592C78.8644 41.3913 78.8638 41.4247 78.8556 41.4567C78.8475 41.4886 78.8319 41.5183 78.8103 41.5434L78.4292 41.9859L78.4023 41.9275L78.4315 40.3463C78.3493 38.9164 78.4606 37.5276 78.7655 36.1801C78.7756 36.1329 78.7998 36.09 78.835 36.0571C78.8702 36.0242 78.9145 36.0029 78.9622 35.996C79.0098 35.9892 79.0584 35.9971 79.1014 36.0188C79.1443 36.0404 79.1797 36.0748 79.2026 36.1172C79.5194 36.6936 79.828 37.2776 80.1283 37.869C80.3301 38.2643 80.6439 38.4238 80.8748 38.7584C81.5159 39.6898 82.2444 40.5702 83.0603 41.3997Z" fill="#0197DF"/>
<path d="M100.245 38.7162C100.09 39.3743 99.1356 40.0593 98.6312 40.349C98.6288 40.3508 98.6259 40.3516 98.6229 40.3511C98.62 40.3507 98.6173 40.3491 98.6155 40.3468C98.6137 40.3444 98.613 40.3414 98.6134 40.3384C98.6138 40.3355 98.6154 40.3328 98.6178 40.331C98.9062 40.0331 99.2021 39.7426 99.5054 39.4596C99.9381 39.0576 100.025 38.7656 100.272 38.2603C100.516 37.7572 100.94 37.3888 101.119 36.8543C101.293 36.3362 101.388 36.3497 101.406 36.8947C101.409 36.9741 101.329 37.1133 101.166 37.3125C100.832 37.719 100.792 38.1547 100.353 38.5388C100.297 38.5867 100.262 38.6458 100.245 38.7162Z" fill="#014093"/>
<path d="M70.0021 37.2718C70.5102 38.2106 70.9824 39.2041 71.4187 40.2522C71.4397 40.3016 71.5263 40.2919 71.6788 40.223L72.1203 41.6581C71.9231 41.5114 71.7609 41.4523 71.6339 41.4807C71.5233 41.5062 71.5017 41.4732 71.5689 41.3819L71.7012 41.2045C71.7609 41.1251 71.7423 41.0944 71.6451 41.1124L70.6745 41.2763C70.6148 41.2868 70.561 41.3108 70.5131 41.3482C69.7264 41.9636 68.8835 42.186 68.0541 42.7362C67.2001 43.3022 66.2788 43.3516 65.4001 43.83C65.3135 43.8779 65.3194 43.8996 65.4181 43.8951L65.4965 43.8906C65.5817 43.8891 65.5959 43.9198 65.5391 43.9827C65.1028 44.4693 64.5199 44.8774 63.7907 45.2068C63.3155 45.4201 62.9591 45.9187 62.5085 46.1815C61.455 46.7947 60.3499 47.2506 59.9778 48.5083C59.803 49.1057 58.9534 49.4247 58.6216 50.0446C58.0538 51.1062 57.3776 52.0914 56.593 53.0002C56.3263 53.3124 55.8869 53.5977 55.5754 53.9435C55.4229 54.1127 55.4386 54.1884 55.6224 54.1704C55.6508 54.1674 55.6673 54.1809 55.6717 54.2108C55.6733 54.2189 55.6771 54.2263 55.6826 54.2324C55.6881 54.2384 55.6952 54.2428 55.7031 54.2452C55.7109 54.2475 55.7193 54.2476 55.7272 54.2455C55.7351 54.2434 55.7423 54.2392 55.748 54.2333L55.8712 54.112C56.0102 53.9727 56.0319 53.9892 55.9363 54.1614C55.7674 54.4654 55.5081 54.7229 55.1584 54.934L51.9844 54.0087C52.2055 53.6583 52.2735 53.3267 52.1884 53.0137C52.1678 52.9402 52.1678 52.8617 52.1884 52.7869C52.3109 52.3437 52.4372 51.9035 52.5672 51.4663C52.8855 50.3949 53.5131 49.3753 53.9749 48.2006C54.0855 47.9221 54.3888 47.2978 54.885 46.3275C54.9148 46.2661 54.9642 46.2392 55.0329 46.2466L55.3422 46.2781C55.4155 46.2856 55.464 46.2541 55.4879 46.1838C55.7323 45.4785 56.4765 45.2921 56.9988 44.7733C57.1362 44.634 57.3604 44.5382 57.6712 44.4858C57.8446 44.4544 58.0822 44.4574 58.384 44.4948C59.185 44.5936 59.9845 44.5697 60.7825 44.4229C60.8513 44.4109 60.908 44.378 60.9529 44.3241C61.0231 44.2418 61.1135 44.2051 61.2241 44.214C62.2448 44.2949 63.0868 44.0104 63.7503 43.3606C65.0348 42.1028 63.5038 38.5026 66.1712 38.5408C66.231 38.5408 66.2624 38.5108 66.2654 38.4509V38.3768C66.2654 38.362 66.2694 38.3475 66.277 38.3352C66.2845 38.3229 66.2953 38.3132 66.308 38.3072L67.6238 37.6761C67.6791 37.6491 67.7112 37.6049 67.7202 37.5436C67.747 37.3339 67.8666 37.2314 68.0788 37.2359C68.8746 37.2516 69.2668 36.8001 70.0021 37.2718Z" fill="#0197DF"/>
<path d="M103.367 37.4541L103.355 39.48C103.225 39.1101 103.02 38.8137 102.739 38.5906C102.652 38.5217 102.602 38.5419 102.589 38.6512L102.573 38.7545C102.564 38.8204 102.527 38.8616 102.463 38.878C102.102 38.9656 101.663 39.4216 101.392 39.3946C101.322 39.3871 101.262 39.4081 101.212 39.4575C100.764 39.8977 100.049 40.8163 99.4438 41.124C98.9821 41.3598 98.7288 41.6428 98.4127 41.9842C98.3664 42.0351 98.3089 42.0673 98.2401 42.0808C97.9233 42.1452 97.6274 42.259 97.3525 42.4222C97.1866 42.521 97.144 42.6984 96.8503 42.7344C96.7756 42.7433 96.7121 42.774 96.6598 42.8264C96.3086 43.1753 95.8491 43.3482 95.2812 43.3453C96.6053 42.7658 97.546 42.2387 98.1034 41.7641C98.6727 41.279 99.3273 40.9533 99.742 40.4817C100.439 39.6911 101.36 38.8578 101.972 37.9303C102.056 37.8045 102.091 37.8082 102.078 37.9415C102.076 37.9624 102.075 37.9842 102.075 38.0066C102.076 38.0247 102.081 38.0423 102.091 38.0576C102.1 38.0728 102.114 38.0852 102.13 38.0935C102.146 38.1017 102.165 38.1055 102.183 38.1045C102.201 38.1034 102.219 38.0975 102.235 38.0875C102.33 38.0261 102.391 37.9407 102.416 37.8314C102.431 37.7655 102.471 37.7229 102.537 37.7034L103.367 37.4541Z" fill="#0172C3"/>
<path d="M49.6787 38.8442L49.9836 41.0138C49.1968 40.6118 48.6767 40.915 48.1903 41.5955C46.4045 44.09 45.3405 46.884 44.9983 49.9774C44.991 50.0535 44.9614 50.1255 44.9131 50.1841C44.556 50.6228 44.4103 51.0383 44.476 51.4306L39.0089 49.261L38.5045 47.5293C38.4851 47.465 38.444 47.4432 38.3812 47.4642C38.2931 47.4942 38.2176 47.4754 38.1548 47.4081C38.11 47.3601 38.0853 47.286 38.0809 47.1857C38.0584 46.6871 38.0928 46.1893 38.184 45.6922C38.4081 44.4546 39.7329 44.0885 40.0938 42.9453C40.2343 42.5021 40.3426 42.0492 40.4188 41.5865C40.4278 41.5386 40.4435 41.493 40.4659 41.4495C40.4958 41.3911 40.5324 41.344 40.5757 41.308C40.5936 41.2931 40.6034 41.2729 40.6049 41.2474C40.6661 40.4673 40.9426 39.7815 41.4342 39.1901C41.4976 39.1136 41.5873 39.0638 41.6853 39.0509C43.8215 38.7746 46.1684 38.5814 48.3114 38.5051C48.8292 38.4871 49.2102 38.678 49.6787 38.8442Z" fill="#025FAF"/>
<path d="M103.358 39.4796L103.418 42.1456C103.348 42.3627 103.485 42.487 103.831 42.5184C103.919 42.5259 103.995 42.5596 104.059 42.6195L105.016 43.4954C105.066 43.5418 105.059 43.5778 104.996 43.6032L104.871 43.6549C104.823 43.6743 104.782 43.6653 104.747 43.6279L104.409 43.2596C104.28 43.1188 104.255 43.1353 104.333 43.309C104.631 43.9693 105.409 43.9738 105.998 44.295C107.2 44.953 108.419 44.8115 109.206 46.1591C109.533 46.7206 110.629 48.9396 110.23 49.4944C110.19 49.5498 110.182 49.6096 110.206 49.674C110.349 50.0678 110.424 50.4736 110.43 50.8913C110.434 51.363 110.105 51.8594 109.632 51.9402C108.619 52.1169 107.709 52.5264 106.902 53.1687C106.776 53.2676 106.514 53.3724 106.115 53.4832L105.301 53.4428C105.296 53.443 105.291 53.4416 105.287 53.4389C105.283 53.4362 105.279 53.4323 105.277 53.4277C105.275 53.423 105.275 53.4179 105.276 53.413C105.277 53.408 105.28 53.4035 105.283 53.4001L105.366 53.317C105.396 53.2855 105.389 53.2698 105.346 53.2698H105.265C105.249 53.2698 105.233 53.2632 105.221 53.2514C105.209 53.2396 105.203 53.2236 105.203 53.2069C105.205 52.8955 105.07 52.6986 104.797 52.6162C104.718 52.5923 104.657 52.5451 104.615 52.4747C103.206 50.0656 101.369 48.0487 99.1055 46.4241C98.8962 46.2729 98.7221 46.0835 98.5832 45.8559C98.5353 45.778 98.4659 45.7414 98.3747 45.7459C98.2432 45.7533 98.1416 45.6949 98.0699 45.5707C98.0325 45.5048 97.9809 45.4531 97.9152 45.4157L96.6823 44.7037C96.6186 44.666 96.5438 44.6525 96.4716 44.6655C96.0323 44.7464 95.64 44.6566 95.2948 44.396C95.2798 44.3847 95.2681 44.3696 95.2609 44.3522C95.2536 44.3348 95.2511 44.3157 95.2536 44.2968C95.2561 44.278 95.2635 44.26 95.2751 44.2447C95.2866 44.2294 95.3019 44.2173 95.3194 44.2096C95.9112 43.9603 96.8034 44.1804 97.2091 43.7267C97.2734 43.6564 97.2614 43.6384 97.1732 43.6728C97.0357 43.7267 96.89 43.741 96.7361 43.7155C96.7003 43.7095 96.7003 43.702 96.7361 43.693C96.7959 43.6796 96.8123 43.6496 96.7854 43.6032C96.778 43.5911 96.7675 43.5815 96.7551 43.5755C96.7427 43.5695 96.7291 43.5674 96.716 43.5695L96.4358 43.6167C96.4283 43.6182 96.429 43.6055 96.438 43.5785L96.4582 43.5224C96.4612 43.5119 96.4574 43.5066 96.447 43.5066L96.3192 43.4954C96.2983 43.458 96.2729 43.4303 96.243 43.4123C96.2176 43.3958 96.1825 43.3928 96.1376 43.4033C95.4965 43.5471 94.83 43.6384 94.1382 43.6773C94.1268 43.6762 94.1161 43.6711 94.1081 43.663C94.1 43.6548 94.095 43.6441 94.094 43.6327C94.0929 43.6213 94.0958 43.6099 94.1023 43.6004C94.1087 43.5909 94.1182 43.584 94.1292 43.5807L94.4632 43.5381C94.52 43.5306 94.573 43.5126 94.6223 43.4842C94.8136 43.3719 95.034 43.3255 95.2836 43.3449C95.8515 43.3479 96.311 43.175 96.6622 42.8261C96.7145 42.7737 96.778 42.743 96.8527 42.734C97.1463 42.6981 97.1889 42.5207 97.3548 42.4218C97.6298 42.2586 97.9256 42.1448 98.2425 42.0804C98.3112 42.067 98.3687 42.0348 98.415 41.9839C98.7311 41.6425 98.9844 41.3595 99.4462 41.1237C100.051 40.816 100.766 39.8974 101.215 39.4572C101.264 39.4078 101.324 39.3868 101.394 39.3943C101.665 39.4212 102.105 38.9653 102.466 38.8777C102.53 38.8612 102.566 38.8201 102.575 38.7542L102.591 38.6509C102.605 38.5416 102.655 38.5214 102.741 38.5902C103.022 38.8133 103.228 39.1098 103.358 39.4796Z" fill="#0197DF"/>
<path d="M78.4325 40.3471L78.4034 41.9282L78.3339 42.0563C78.2935 42.1296 78.2719 42.1251 78.2689 42.0428L78.2465 41.5195C78.2441 41.4993 78.2348 41.4788 78.2204 41.4618C78.206 41.4448 78.1875 41.4326 78.1685 41.4275C78.1494 41.4225 78.1313 41.425 78.1175 41.4345C78.1038 41.444 78.0954 41.4599 78.094 41.4791V41.625C78.094 41.6759 78.0776 41.7209 78.0447 41.7598L77.9976 41.8137C77.9722 41.8421 77.9618 41.8377 77.9663 41.8002C78.0156 41.4034 77.9917 41.1369 77.8945 41.0007L77.9259 40.3583C78.0156 40.3254 78.0544 40.2543 78.0425 40.145C78.035 40.0731 78.0552 40.0094 78.103 39.954C78.1239 39.9301 78.1516 39.9114 78.1859 39.8979C78.2084 39.8889 78.2173 39.8956 78.2128 39.9181L78.1433 40.2325C78.1352 40.2702 78.1368 40.3094 78.1482 40.3463C78.1596 40.3833 78.1803 40.4168 78.2084 40.4437C78.2278 40.4631 78.2465 40.4803 78.2644 40.4953C78.2898 40.5163 78.3115 40.5133 78.3294 40.4863L78.4325 40.3471Z" fill="#0172C3"/>
<path d="M77.9222 40.3578L77.8908 41.0002C77.7936 40.6722 77.7787 40.3271 77.846 39.9648C77.8486 39.9566 77.854 39.9495 77.8612 39.9448C77.8684 39.94 77.877 39.9379 77.8856 39.9386C77.8942 39.9394 77.9023 39.9431 77.9085 39.9491C77.9147 39.955 77.9188 39.963 77.9199 39.9715L77.9222 40.3578Z" fill="#025FAF"/>
<path d="M83.0548 41.4C84.5671 42.4646 86.184 43.2956 87.9055 43.893C89.6405 44.4949 91.4068 44.4747 93.2337 44.3714C93.3009 44.3684 93.3577 44.3429 93.4041 44.295L93.4735 44.2276C93.5034 44.1977 93.4975 44.1782 93.4556 44.1692C93.4377 44.1663 93.4175 44.164 93.3951 44.1625C93.3801 44.1625 93.3794 44.161 93.3929 44.158L96.3136 43.4955L96.4414 43.5067C96.4518 43.5067 96.4556 43.5119 96.4526 43.5224L96.4324 43.5786C96.4234 43.6055 96.4227 43.6182 96.4302 43.6167L96.7104 43.5696C96.7235 43.5675 96.7372 43.5695 96.7495 43.5755C96.7619 43.5815 96.7724 43.5912 96.7799 43.6033C96.8068 43.6497 96.7903 43.6796 96.7305 43.6931C96.6947 43.7021 96.6947 43.7096 96.7305 43.7156C96.8845 43.741 97.0302 43.7268 97.1676 43.6729C97.2558 43.6384 97.2678 43.6564 97.2035 43.7268C96.7978 44.1805 95.9056 43.9604 95.3139 44.2097C95.2963 44.2174 95.281 44.2295 95.2695 44.2448C95.2579 44.2601 95.2505 44.278 95.248 44.2969C95.2455 44.3157 95.248 44.3348 95.2553 44.3522C95.2625 44.3696 95.2742 44.3847 95.2892 44.3961C95.6344 44.6566 96.0267 44.7465 96.466 44.6656C96.5382 44.6525 96.613 44.6661 96.6767 44.7038L97.9096 45.4158C97.9753 45.4532 98.0269 45.5048 98.0643 45.5707C98.136 45.695 98.2376 45.7534 98.3691 45.7459C98.4603 45.7414 98.5298 45.7781 98.5776 45.856C98.7166 46.0835 98.8907 46.273 99.0999 46.4242C101.364 48.0488 103.2 50.0656 104.61 52.4748C104.651 52.5452 104.712 52.5923 104.791 52.6163C105.065 52.6986 105.2 52.8955 105.197 53.207C105.197 53.2237 105.204 53.2397 105.215 53.2515C105.227 53.2632 105.243 53.2699 105.26 53.2699H105.34C105.384 53.2699 105.39 53.2856 105.361 53.317L105.278 53.4001C105.274 53.4036 105.271 53.4081 105.27 53.413C105.269 53.4179 105.27 53.4231 105.272 53.4277C105.274 53.4324 105.277 53.4363 105.281 53.439C105.286 53.4417 105.291 53.443 105.296 53.4428L106.109 53.4832C105.849 53.6599 105.68 53.8216 105.603 53.9684C102.535 54.9506 99.4241 55.7502 96.271 56.3671C95.9871 55.7082 95.5477 55.1722 94.953 54.7589C94.9156 54.7335 94.8977 54.7432 94.8992 54.7881V54.8488C94.8992 54.9311 94.87 54.9439 94.8118 54.887C93.2068 53.2991 91.7632 51.8976 89.7122 50.8824C89.6644 50.8585 89.6337 50.824 89.6203 50.7791C89.6147 50.7623 89.6056 50.747 89.5936 50.7342C89.5816 50.7214 89.567 50.7114 89.5508 50.705C88.8626 50.44 88.1655 50.0649 87.446 49.9301C86.9573 49.8358 86.4866 49.5034 86.054 49.4136C85.1439 49.2249 84.2719 49.0048 83.3372 48.9891C81.9429 48.9666 80.5472 48.9696 79.1499 48.9981C78.0897 49.0205 77.1594 49.2923 76.1238 49.5101C75.3864 49.6651 74.7184 50.121 73.88 50.3973C72.9804 50.6923 71.9097 51.3009 70.6679 52.2233C70.2509 52.5332 69.9506 52.9981 69.5112 53.3777C68.5354 54.2237 67.6694 55.2134 66.9132 56.3468C66.6622 56.7219 66.3439 56.9555 65.9808 57.1778C62.3375 56.6328 58.7293 55.8849 55.1562 54.9341C55.5059 54.723 55.7652 54.4655 55.9341 54.1615C56.0297 53.9893 56.008 53.9729 55.8691 54.1121L55.7458 54.2334C55.7401 54.2393 55.7329 54.2435 55.725 54.2456C55.7171 54.2477 55.7087 54.2476 55.7009 54.2453C55.693 54.243 55.686 54.2385 55.6804 54.2325C55.6749 54.2264 55.6712 54.219 55.6696 54.2109C55.6651 54.181 55.6486 54.1675 55.6202 54.1705C55.4364 54.1885 55.4208 54.1129 55.5732 53.9437C55.8848 53.5978 56.3241 53.3125 56.5908 53.0004C57.3754 52.0915 58.0516 51.1063 58.6195 50.0447C58.9512 49.4248 59.8008 49.1059 59.9756 48.5084C60.3477 47.2507 61.4528 46.7948 62.5063 46.1816C62.9569 45.9188 63.3133 45.4202 63.7885 45.2069C64.5178 44.8775 65.1006 44.4695 65.5369 43.9828C65.5937 43.9199 65.5795 43.8892 65.4943 43.8907L65.4159 43.8952C65.3173 43.8997 65.3113 43.878 65.398 43.8301C66.2767 43.3517 67.1979 43.3023 68.052 42.7363C68.8813 42.1861 69.7242 41.9637 70.511 41.3483C70.5588 41.3109 70.6126 41.2869 70.6724 41.2764L71.643 41.1125C71.7401 41.0945 71.7588 41.1252 71.699 41.2046L71.5667 41.382C71.4995 41.4733 71.5212 41.5063 71.6317 41.4808C71.7588 41.4524 71.9209 41.5115 72.1182 41.6583C72.166 41.9487 72.2571 42.1396 72.3916 42.231L72.692 42.9385C72.7204 43.0043 72.766 43.0552 72.8287 43.0912C73.4803 43.4625 73.9069 43.6647 74.1087 43.6976C74.9306 43.8338 75.958 43.8054 77.1908 43.6122C78.0919 43.4685 78.4506 42.8419 78.4237 41.9862L78.8048 41.5437C78.8264 41.5186 78.8419 41.489 78.8501 41.457C78.8582 41.425 78.8588 41.3916 78.8518 41.3595C78.4864 39.6504 81.2256 39.6549 81.9048 40.5038C82.3106 41.0114 82.5235 41.2787 83.0548 41.4Z" fill="#4EB6EC"/>
<path d="M39.0137 49.2614L44.4808 51.431L51.9878 54.0094L55.1619 54.9347C58.735 55.8855 62.3431 56.6334 65.9864 57.1785L69.9607 57.6973C77.05 58.419 84.2073 58.2647 91.4327 57.2346L96.2767 56.3677C99.4298 55.7508 102.54 54.9512 105.608 53.969C107.067 53.6321 108.769 53.1155 110.715 52.4193C110.904 52.3504 111.043 52.2665 111.129 52.1677C111.169 52.122 111.219 52.0865 111.275 52.0644L119.737 48.792C121.593 48.098 123.205 47.0177 124.879 47.1705C125.028 47.1836 125.165 47.2543 125.263 47.3675C125.36 47.4808 125.41 47.6276 125.401 47.7769C125.368 48.3039 125.215 48.7688 124.942 49.1716C124.431 49.9248 123.807 50.5656 123.07 51.0942C111.963 59.0763 99.5516 63.9747 85.8893 65.1471C82.1615 65.4683 77.7098 65.2482 74.4887 65.3021C73.3186 65.3223 72.3457 65.1381 71.2272 65.0528C57.9908 64.0443 45.0771 58.7888 34.5619 51.0739C33.9007 50.5888 32.0962 48.8033 32.1702 47.8712C32.2441 46.9256 33.7953 47.0963 34.4431 47.3681C35.8852 47.9745 37.4087 48.6056 39.0137 49.2614Z" fill="#D82905"/>
<path d="M96.2746 56.367L91.4306 57.2339C91.323 56.7173 90.8762 56.2741 90.0902 55.9043C89.9631 55.8444 89.8286 55.7493 89.6867 55.6191C89.3796 55.3338 88.9335 55.208 88.7026 55.0688C87.9002 54.5949 87.1941 54.0918 86.2862 53.8155C85.3268 53.5258 84.5109 53.0519 83.491 52.9823C83.0427 52.9509 82.6325 52.8947 82.2604 52.8139C80.8841 52.5129 79.8597 52.7779 78.2054 53.1058C76.2373 53.4989 74.5315 54.1974 73.0184 55.5404C72.3848 56.1034 71.6869 56.5796 70.9248 56.9689C70.8262 57.0198 70.8008 56.9951 70.8486 56.8948L70.9001 56.787C70.9037 56.7796 70.9048 56.7712 70.9032 56.7632C70.9017 56.7551 70.8976 56.7478 70.8916 56.7422C70.8855 56.7367 70.8779 56.7332 70.8697 56.7324C70.8616 56.7315 70.8534 56.7333 70.8463 56.7375C70.6117 56.8873 70.466 57.0961 70.4092 57.3642C70.3973 57.4196 70.3644 57.4525 70.3106 57.463C70.1522 57.4914 70.0349 57.5693 69.9587 57.6966L65.9844 57.1777C66.3475 56.9554 66.6658 56.7218 66.9169 56.3467C67.673 55.2133 68.539 54.2236 69.5148 53.3776C69.9542 52.998 70.2546 52.5331 70.6715 52.2232C71.9133 51.3008 72.984 50.6922 73.8837 50.3972C74.722 50.1209 75.39 49.665 76.1275 49.51C77.1631 49.2922 78.0933 49.0204 79.1536 48.998C80.5508 48.9695 81.9466 48.9665 83.3408 48.989C84.2755 49.0047 85.1475 49.2248 86.0576 49.4135C86.4902 49.5033 86.9609 49.8357 87.4496 49.93C88.1691 50.0648 88.8663 50.4399 89.5544 50.7049C89.5706 50.7113 89.5852 50.7213 89.5972 50.7341C89.6092 50.7469 89.6183 50.7622 89.6239 50.779C89.6374 50.8239 89.668 50.8584 89.7158 50.8823C91.7668 51.8975 93.2104 53.299 94.8154 54.8869C94.8737 54.9438 94.9028 54.931 94.9028 54.8487V54.7881C94.9013 54.7431 94.9192 54.7334 94.9566 54.7589C95.5514 55.1721 95.9907 55.7081 96.2746 56.367Z" fill="#A3D8F6"/>
<path d="M91.4329 57.2339C84.2076 58.264 77.0503 58.4183 69.9609 57.6966C70.0372 57.5693 70.1545 57.4914 70.3129 57.463C70.3667 57.4525 70.3995 57.4196 70.4115 57.3642C70.4683 57.0961 70.614 56.8873 70.8486 56.7375C70.8556 56.7333 70.8638 56.7315 70.872 56.7324C70.8801 56.7332 70.8878 56.7367 70.8938 56.7422C70.8999 56.7477 70.904 56.7551 70.9055 56.7632C70.907 56.7712 70.906 56.7796 70.9024 56.7869L70.8508 56.8948C70.803 56.9951 70.8284 57.0198 70.9271 56.9689C71.6892 56.5796 72.3871 56.1034 73.0207 55.5404C74.5337 54.1973 76.2396 53.4989 78.2077 53.1058C79.8619 52.7779 80.8863 52.5129 82.2626 52.8138C82.6347 52.8947 83.0449 52.9508 83.4933 52.9823C84.5132 53.0519 85.3291 53.5258 86.2885 53.8155C87.1963 54.0918 87.9024 54.5949 88.7049 55.0688C88.9358 55.208 89.3818 55.3338 89.6889 55.619C89.8309 55.7493 89.9654 55.8444 90.0924 55.9043C90.8785 56.2741 91.3253 56.7173 91.4329 57.2339Z" fill="#D9EEFA"/>
</g>
<defs>
<clipPath id="clip0_936_1308">
<rect width="158" height="72" fill="white"/>
</clipPath>
</defs>
</svg>
