<svg width="152" height="31" viewBox="0 0 152 31" fill="none" xmlns="http://www.w3.org/2000/svg">
<g clip-path="url(#clip0_1366_1058)">
<path d="M58.1272 27.6713L53.3705 17.932C56.5298 16.6787 58.1272 14.3155 58.1272 10.5559C58.1272 5.22079 54.258 2.60693 49.5723 2.60693H38V27.6713H42.9697V18.6481H47.9749L52.4121 27.6713H58.1272ZM53.0155 10.6633C53.0155 12.8475 51.7731 13.9217 49.4657 13.9217H42.9697V7.47657H49.4657C51.6666 7.47657 53.0155 8.40751 53.0155 10.6633Z" fill="#385072"/>
<path d="M82.0004 16.6072V2.60693H77.0303V16.6787C77.0303 20.6891 75.078 23.1597 71.919 23.1597C68.7596 23.1597 66.8427 20.6175 66.8427 16.6072V2.60693H61.873V16.6787C61.873 23.9832 65.9198 28.0651 71.919 28.0651C78.2377 28.0651 82.0004 23.8758 82.0004 16.6072Z" fill="#385072"/>
<path d="M104.711 27.6713V22.73H92.2514V2.60693H87.2812V27.6713H104.711Z" fill="#385072"/>
<path d="M127.649 15.1394C127.649 7.51271 123.637 2.21338 116.858 2.21338C110.077 2.21338 106.066 7.51271 106.066 15.1394C106.066 22.7662 110.077 28.0654 116.858 28.0654C123.637 28.0654 127.649 22.7662 127.649 15.1394ZM122.537 15.1394C122.537 19.6152 120.868 23.0884 116.858 23.0884C112.846 23.0884 111.178 19.6152 111.178 15.1394C111.178 10.6636 112.846 7.19044 116.858 7.19044C120.868 7.19044 122.537 10.6636 122.537 15.1394Z" fill="#385072"/>
<path d="M151.302 17.9681V14.6739H142.393V19.3645H146.332C146.048 21.5487 144.877 23.16 141.469 23.16C137.742 23.16 135.577 19.7584 135.577 15.1394C135.577 10.4846 137.706 7.19044 141.434 7.19044C144.132 7.19044 145.268 8.5869 146.19 10.4488L150.912 8.47948C149.279 4.61239 146.581 2.21338 141.505 2.21338C135.009 2.21338 130.465 7.51271 130.465 15.1394C130.465 23.0526 134.831 28.0654 141.327 28.0654C147.078 28.0654 151.302 24.4132 151.302 17.9681Z" fill="#385072"/>
<path d="M25.0943 30.2811L17.9398 22.11V20.9067H1.43396L0 22.11L7.15455 30.2811H25.0943Z" fill="#006CB6"/>
<path d="M7.15455 15.0308L0 22.1114H17.9398L25.0943 15.0308H7.15455Z" fill="#385072"/>
<path d="M25.0936 15.0306V0L17.9297 7.07964L17.9391 14.6494V22.1103L25.0936 15.0306Z" fill="#6DBF5A"/>
<path d="M7.15455 0L0 7.08064H25.0943V0H7.15455Z" fill="#6DBF5A"/>
<path d="M17.9395 15.0308V22.1114L25.094 15.0308H17.9395Z" fill="#26A570"/>
</g>
<defs>
<clipPath id="clip0_1366_1058">
<rect width="152" height="31" fill="white"/>
</clipPath>
</defs>
</svg>
