<svg width="202" height="63" viewBox="0 0 202 63" fill="none" xmlns="http://www.w3.org/2000/svg">
<g clip-path="url(#clip0_1374_1019)">
<path fill-rule="evenodd" clip-rule="evenodd" d="M49.6878 16.6481C49.4606 16.8887 49.334 17.2068 49.334 17.5374C49.334 17.8681 49.4606 18.1862 49.6878 18.4268C49.9289 18.6536 50.2477 18.78 50.579 18.78C50.9103 18.78 51.2291 18.6536 51.4701 18.4268C51.6974 18.1862 51.824 17.8681 51.824 17.5374C51.824 17.2068 51.6974 16.8887 51.4701 16.6481C51.2291 16.4213 50.9103 16.2949 50.579 16.2949C50.2477 16.2949 49.9289 16.4213 49.6878 16.6481Z" fill="white"/>
<path fill-rule="evenodd" clip-rule="evenodd" d="M62.2141 15.8635H56.8161L55.5046 17.4856C55.2949 17.695 55.3492 17.9555 55.5575 18.0082L57.3397 18.7929L62.3711 16.4916C62.6865 16.335 62.5808 15.8635 62.2141 15.8635ZM42.0872 42.2266H35.4305C33.7011 43.2206 33.1774 43.5355 30.7658 44.4768C30.6089 44.5295 30.5561 44.6861 30.6089 44.9482L36.5834 61.5818H39.991L34.4873 46.3067C38.0518 46.3067 46.542 45.3654 51.1026 37.9387C49.7399 40.1346 46.4379 42.2266 42.0872 42.2266ZM51.4693 18.4269C51.2282 18.6538 50.9095 18.7801 50.5782 18.7801C50.2469 18.7801 49.9281 18.6538 49.687 18.4269C49.4598 18.1864 49.3332 17.8682 49.3332 17.5376C49.3332 17.2069 49.4598 16.8888 49.687 16.6482C49.9281 16.4214 50.2469 16.2951 50.5782 16.2951C50.9095 16.2951 51.2282 16.4214 51.4693 16.6482C50.9602 16.1454 50.2728 15.8633 49.5565 15.8633C48.8402 15.8633 48.1528 16.1454 47.6437 16.6482C47.1399 17.1563 46.8572 17.8423 46.8572 18.5572C46.8572 19.2721 47.1399 19.9581 47.6437 20.4662C48.1528 20.9691 48.8402 21.2511 49.5565 21.2511C50.2728 21.2511 50.9602 20.9691 51.4693 20.4662C51.9732 19.9581 52.2558 19.2721 52.2558 18.5572C52.2558 17.8423 51.9732 17.1563 51.4693 16.6482C51.9417 17.1708 51.9417 17.9555 51.4693 18.4269ZM38.4185 48.5568C39.5715 48.4002 40.6716 48.1909 41.6164 47.9288L46.4908 61.529H43.0832L38.4185 48.5568ZM43.0304 32.3932C38.7324 38.88 32.1814 43.4827 21.5407 43.4827H6.81486C6.44815 43.4827 6.44815 43.1167 6.60509 42.9601L10.4835 39.0367C5.08543 39.0367 1.94044 35.8452 0.78749 32.2893C0.681828 32.0799 0.57772 31.6612 0.997259 31.6612H17.5069C19.2363 31.6612 20.4436 31.1386 21.4381 30.25L34.5945 19.3171C29.6673 23.5538 22.9578 30.0918 16.8776 38.4613C16.7222 38.6707 16.9304 38.9839 17.1417 38.9839H24.9498C30.0868 38.9839 36.7435 38.0426 43.6084 30.7711C43.7669 30.616 43.871 30.616 44.0279 30.6672C43.714 31.2425 43.3986 31.8178 43.0335 32.3932H43.0304Z" fill="#00985F"/>
<path fill-rule="evenodd" clip-rule="evenodd" d="M189.998 61.5289H202V24.4438H189.998V38.044H178.677V24.4438H166.62V61.5304H178.677V47.5642H189.998V61.5304V61.5289ZM47.644 20.466C47.1402 19.9579 46.8575 19.2719 46.8575 18.557C46.8575 17.8422 47.1402 17.1562 47.644 16.648C48.1531 16.1452 48.8405 15.8631 49.5568 15.8631C50.2731 15.8631 50.9605 16.1452 51.4696 16.648C51.9731 17.1564 52.2555 17.8423 52.2555 18.557C52.2555 19.2718 51.9731 19.9577 51.4696 20.466C50.9605 20.9689 50.2731 21.251 49.5568 21.251C48.8405 21.251 48.1531 20.9689 47.644 20.466ZM51.1557 37.9897C55.7675 30.5615 57.34 18.8455 57.34 18.8455L55.5578 18.0608C55.348 18.0081 55.2439 17.746 55.5049 17.5366L56.8164 15.9161C55.9773 14.294 53.0421 11.6778 48.6913 11.6778C46.1228 11.6778 43.8697 12.3586 41.8264 13.6659C41.8264 13.6659 38.8897 15.654 34.5933 19.3681C29.666 23.6048 22.9565 30.1444 16.8763 38.5139C16.7209 38.7744 16.9292 39.0365 17.1405 39.0365H24.9486C30.0856 39.0365 36.7422 38.0952 43.6071 30.8236C43.7656 30.667 43.8697 30.667 44.0267 30.7197C44.1836 30.8236 44.1836 30.9803 44.1323 31.1384C43.0307 33.753 40.358 39.0892 35.3795 42.2792H42.0346C46.4382 42.2264 49.7402 40.1344 51.1557 37.9897ZM44.3934 46.9346C49.9499 44.2672 52.36 41.6511 54.8772 36.4203C57.9165 44.1633 61.1656 52.584 64.1536 61.5289H49.5832L44.3934 46.9361V46.9346ZM0 61.5289H14.7274L19.7074 45.9932H5.34523C3.66708 50.6487 1.83354 55.7228 0 61.5289ZM19.9172 28.209C19.131 28.8883 18.1878 29.0464 17.1389 29.0464H11.1644C17.2943 14.2924 22.5385 3.41223 23.9525 0.484375H40.4637C41.1443 1.89558 42.6127 5.03588 44.7088 9.58739C41.3525 10.5272 38.8384 12.5152 34.7487 15.8634C33.9111 13.7698 33.1249 11.836 32.2345 9.90065C30.5564 13.5093 28.8782 17.8514 27.3601 22.0881L19.9172 28.209ZM110.957 57.4488L111.745 61.5289H121.494V24.4438H109.437V50.1803C108.441 51.4365 106.24 52.7422 104.404 52.7422C101.051 52.7422 99.2162 50.8068 99.2162 47.3548V24.4438H87.2174V50.1803C86.2214 51.4365 83.8098 52.7422 81.8178 52.7422C78.7256 52.7422 76.9962 50.8068 76.9962 47.3548V24.4438H64.9943V48.9242C64.9943 57.869 68.8727 62.2639 76.9962 62.2639C82.8666 62.2639 86.2726 60.1192 88.9996 57.241C90.8332 60.5906 94.2408 62.2639 99.2193 62.2639C105.09 62.3151 108.34 60.2231 110.96 57.4503L110.957 57.4488ZM149.115 50.1788C148.015 51.4349 146.232 52.7406 143.297 52.7406C140.048 52.7406 138.266 49.7073 138.266 43.954C138.266 36.8391 140.205 33.2831 144.083 33.2831C146.337 33.2831 147.491 33.4382 149.115 33.8058V50.1788ZM139.262 62.3135H139.629C144.974 62.2624 148.695 60.4309 150.739 57.4488L151.369 61.5289H161.17V26.0116C157.24 24.7555 152.732 23.7102 144.293 23.7102C132.291 23.7102 125.74 31.033 125.74 44.4239C125.74 56.8207 130.352 62.2624 139.262 62.3135Z" fill="#E0001A"/>
</g>
<defs>
<clipPath id="clip0_1374_1019">
<rect width="202" height="63" fill="white"/>
</clipPath>
</defs>
</svg>
