<svg width="141" height="46" viewBox="0 0 141 46" fill="none" xmlns="http://www.w3.org/2000/svg">
<g clip-path="url(#clip0_1115_2075)">
<path d="M54.1455 39.8854C48.8988 36.5442 41.7785 35.9578 30.2955 39.1074C18.0537 41.9514 13.9721 43.7745 8.61179 40.1147C6.55249 38.3169 5.81418 35.4222 6.36549 31.2526C7.64418 24.4554 11.0997 17.9142 17.2378 10.6583C20.6638 6.88391 23.8419 3.64474 28.0382 2.34402C31.2544 1.52804 30.9538 4.02686 30.5646 4.38423C30.1539 4.38423 29.4641 4.44817 28.9309 4.79213C28.4983 5.12389 27.3105 6.19513 27.2467 7.63611C27.1547 9.84202 29.4638 9.38289 30.4597 8.17173C31.5333 6.80689 33.1199 4.19326 31.8719 1.75735C31.3487 0.890317 30.4449 0.291098 29.3228 0.0870599C25.4801 -0.130046 21.9016 1.68086 18.5986 3.6829C11.3756 8.64341 5.59756 15.5169 2.32813 23.0407C0.443309 27.5802 -1.26138 34.083 1.29372 39.3756C3.27054 43.0479 7.37416 44.9986 12.2702 44.5907C15.7041 44.234 19.8564 43.1368 22.649 42.4743C25.4419 41.8106 39.7372 36.9528 44.4342 45.4079C44.4342 45.4079 45.9962 42.4104 49.8996 42.3464C53.1087 42.0537 57.7385 43.2649 61.1098 45.7128C59.9865 44.0429 56.8021 41.5817 54.1455 39.8854Z" fill="#E61A27"/>
<path d="M31.7549 11.5123C29.0811 9.7781 23.7073 13.0936 19.4031 18.7807C15.4671 23.882 13.7675 29.8109 15.6172 32.5526C18.3685 35.7787 23.4764 31.0862 25.6485 28.5745L25.9287 28.2809C27.4059 26.7124 28.5469 24.825 29.6517 23.0139C29.6517 23.0139 30.6669 21.3562 30.7153 21.2795C31.3428 21.1652 32.0985 20.9866 32.9502 20.7442C32.938 20.7822 29.6919 26.1764 30.023 28.8538C30.1261 29.6707 30.0475 32.6546 32.9942 33.5598C36.9218 34.2105 40.058 31.2007 42.8248 28.5228C42.8248 28.5228 43.2962 28.0769 43.5629 27.8223C43.4954 28.0892 43.4075 28.4456 43.4075 28.4456C42.2576 32.3988 43.8075 33.2283 44.7771 33.5343C47.7072 34.3766 51.2077 30.1681 51.2192 30.1681C51.1283 31.4938 50.863 32.5903 52.2765 33.4704C53.6106 33.9426 54.9608 33.2226 55.9873 32.5467C59.6841 29.9711 62.6624 25.9394 65.0679 22.4548H63.5334C63.5153 22.4548 59.7472 27.8542 57.3004 29.0277C57.2965 29.0277 56.8511 29.2537 56.5947 29.0749C56.2769 28.8071 56.4022 28.2501 56.5984 27.8556C56.6107 27.83 66.0461 11.6517 66.0461 11.6517H61.5912C61.5912 11.6517 61.1045 12.4301 61.0649 12.4811C61.0349 12.4557 60.9635 12.3219 60.9142 12.2577C58.1541 8.48331 51.9038 14.2891 47.1981 21.0218C45.3864 23.6107 43.0798 26.5256 40.6881 28.6296C40.6881 28.6296 37.1448 31.8405 35.6309 29.5335C35.0775 28.5642 35.2478 27.1471 35.5599 26.2165C37.3226 21.2558 40.3599 16.7539 43.8163 14.0376C44.7919 13.2858 45.8526 13.0683 46.3787 13.3872C46.8803 13.681 46.9612 14.4072 46.6439 14.9047C45.839 14.8792 45.1939 15.1211 44.6698 15.6567C43.6369 16.7279 43.2781 17.761 43.6064 18.7303C45.2017 20.9746 48.3832 16.5368 48.2293 13.8334C48.1743 12.8641 47.6514 11.9462 46.8706 11.4994C45.7072 10.8112 43.9323 10.9894 42.7837 11.5381C41.2459 12.1117 38.8121 14.1136 37.3913 15.6696C35.6027 17.6209 32.5351 19.7885 31.576 19.5458C31.8895 18.7167 34.4806 13.4759 31.7549 11.5123ZM53.2329 19.2654C54.0995 18.0797 56.6218 14.9043 57.2367 14.3689C59.3048 12.5702 60.1315 13.3616 60.203 13.9223C58.2729 17.3397 55.9949 21.2548 53.8531 24.7745C53.8575 24.7619 53.1828 25.7817 53.1828 25.7817C52.2369 27.2095 51.2844 28.4339 49.7308 29.288C49.5092 29.3523 49.144 29.3779 48.901 29.1986C48.6084 29.0073 48.493 28.6885 48.5259 28.3569C48.6192 27.2605 49.7482 23.9074 53.2329 19.2654ZM28.9976 21.3184C28.9976 21.3184 28.9587 21.4335 28.9396 21.4712C28.9347 21.4712 26.9972 24.595 26.9972 24.595C25.8279 26.1382 24.368 28.077 22.5432 29.0075C22.0022 29.1859 21.2544 29.3011 20.8734 28.8296C20.0656 27.873 20.4819 26.5467 20.8201 25.4758L20.94 25.0931C21.9097 22.492 23.4482 20.1962 24.946 18.0666C24.9647 18.0541 25.0066 18.0414 25.0218 18.0414C25.0255 18.0541 25.0314 18.0541 25.0339 18.0797C25.9737 19.8646 27.7358 20.6932 29.0537 21.0763C29.0616 21.0763 29.0702 21.0891 29.0702 21.1147C29.0704 21.1526 29.0489 21.2041 28.9976 21.3184ZM30.8331 17.6335C30.8244 17.6589 29.9701 19.5972 29.9701 19.5972C29.8466 19.6991 29.6513 19.6482 29.4275 19.5972L29.044 19.5331C27.8396 19.1635 26.9312 18.3728 26.6512 17.4293C26.265 15.5929 27.8518 14.1519 28.5508 13.6294C29.2216 13.1699 30.2645 12.9277 30.8701 13.3997C31.2436 13.8334 31.3851 14.3943 31.3851 15.0068C31.3853 15.8353 31.1265 16.7661 30.8331 17.6335ZM87.152 23.5499C86.7223 22.632 85.7027 22.0453 84.6159 22.1089C81.0869 22.4279 77.635 25.297 75.8225 29.4156C74.8714 31.5326 74.3524 33.2794 74.012 36.0593C75.1095 34.8099 77.3479 32.757 79.888 31.6347C79.888 31.6347 80.2337 28.9697 81.9962 26.5977C82.6631 25.6155 83.9977 24.0344 85.4963 24.4551C86.8058 24.8888 86.3455 28.4722 84.6052 31.94C83.3175 34.4907 81.347 37.0418 79.3533 38.8011C77.5906 40.2803 74.9826 42.0656 72.7009 40.6885C71.2638 39.8473 70.5307 38.0869 70.6855 35.8172C71.3722 29.3778 74.3374 23.8944 78.5806 17.646C82.9558 11.8439 87.7787 5.88884 94.2758 2.7131C95.6011 2.0501 96.8283 1.89712 97.8892 2.30519C97.8892 2.30519 91.7902 5.62068 88.8829 11.7545C88.1434 13.3105 87.1148 15.414 88.1506 17.2759C88.6919 18.2449 89.6528 18.3216 90.4267 18.2705C93.9903 17.4542 96.2927 14.1643 98.1738 11.1551C99.2644 8.87257 100.234 6.60271 100.234 4.07776C100.234 3.77179 100.218 3.36389 100.192 3.05757C101.894 2.16528 105.385 3.74618 105.385 3.74618C108.114 4.63917 113.923 9.03879 115.882 9.88003C116.838 8.78353 118.409 7.12596 119.293 6.29691L118.013 5.51892C115.963 4.28197 113.796 3.10863 111.664 1.94835C106.821 -0.665465 102.878 0.252444 100.872 0.966664C100.084 1.24702 99.3631 1.48939 99.3631 1.48939C97.8742 -0.117298 95.432 0.0353383 93.6327 0.469202C87.1619 2.30537 81.154 6.78113 74.713 14.5473C69.9775 20.6301 67.0401 25.884 65.4745 31.0738C64.2677 34.5677 63.9009 39.7067 66.8464 42.7545C69.3507 45.3425 72.6715 44.7818 75.0163 43.8514C80.0971 41.3775 84.6635 36.0469 86.9389 29.913C87.4881 28.0898 88.0974 25.5139 87.152 23.5499ZM98.8351 4.33303C98.1625 11.9587 92.1667 16.435 90.683 16.7915C89.7839 16.9698 88.2499 16.5748 89.6195 13.3745C91.6361 9.06388 95.0795 5.40444 98.7737 3.52977C98.8638 3.84863 98.8613 4.05215 98.8351 4.33303ZM134.402 5.30182C131.177 7.11289 127.833 8.28572 123.786 7.87782C122.665 9.12783 121.573 10.4157 120.566 11.7416C126.246 13.1699 132.268 9.99469 135.627 6.9728C139.18 3.92495 141.002 0.0869141 141.002 0.0869141C141.002 0.0869141 138.339 3.09608 134.402 5.30182ZM73.4501 11.6521H69.2194L66.833 15.4854H71.0628L73.4501 11.6521Z" fill="#E61A27"/>
<path d="M123.766 40.2406C123.311 40.5466 122.672 40.3114 122.911 39.6102C123.507 37.8249 125.873 34.1867 125.873 34.1867L132.464 22.6299H127.949C127.735 22.9784 127.276 23.7785 127.276 23.7785C127.067 23.4346 126.442 22.6698 126.185 22.5045C125.082 21.8153 123.464 22.1412 122.348 22.7658C117.494 25.5717 113.953 31.1152 111.16 35.4383C111.16 35.4383 108.22 40.2439 106.588 40.6013C105.314 40.7034 105.445 39.0066 105.5 38.6113C105.993 35.7544 107.137 33.0385 108.289 30.5773C110.634 28.9706 113.309 26.8666 115.74 24.5586C121.017 19.5721 125.465 13.923 126.116 12.6606C126.116 12.6606 125.412 12.8011 124.581 12.8264C120.521 18.4244 112.214 26.5605 109.696 27.7717C110.812 25.1186 118.02 12.4564 124.154 6.39942L125.119 5.48099C126.612 4.04 128.158 2.56086 129.363 2.31849C129.491 2.30577 129.655 2.31849 129.796 2.61226C129.85 3.73421 129.427 4.56326 128.943 5.50678L128.263 6.88416C128.263 6.88416 129.226 6.70557 129.858 6.501C130.591 5.13721 131.403 3.60649 131.103 1.78339C131.004 1.19672 130.574 0.750482 130.012 0.648376C128.183 0.304073 126.189 1.6426 124.584 2.72691L124.519 2.7649C116.27 9.15367 109.305 18.3606 103.215 30.9341C102.774 31.2652 101.069 31.6609 100.779 31.4694C101.38 30.2455 102.137 28.6002 102.516 26.8149C102.582 26.3045 102.643 25.7822 102.643 25.2721C102.643 24.1746 102.376 23.142 101.382 22.4283C100.216 21.8544 98.7746 22.1224 97.8028 22.5555C93.4499 24.3408 90.1965 28.7533 87.8487 32.3872C86.5861 34.6959 85.3271 37.1685 84.9785 40C84.733 42.2184 85.2328 43.6469 86.5089 44.3611C87.8209 45.0237 89.4723 44.335 90.1211 44.0037C94.5311 41.7083 97.6124 37.1051 100.041 32.8968C100.138 32.8843 101.464 32.8463 102.467 32.5908C102.48 32.5908 102.486 32.5908 102.508 32.6041C102.451 32.7947 101.932 34.3254 101.932 34.3254C100.393 38.7881 99.6811 41.8234 101.135 43.6213C103.213 46.1589 106.653 43.5324 109.451 40.0632C108.851 44.2201 111.03 44.8709 112.691 44.5524C114.599 44.0426 116.726 42.0273 117.713 40.9947C117.396 42.2059 117.482 44.3742 119.218 44.5906C120.408 44.808 121.298 44.1682 122.328 43.6197C126.024 41.6302 130.448 35.0008 131.597 33.0841H130.091C128.458 35.524 126.38 38.7224 123.766 40.2406ZM90.5929 39.7966C90.3585 39.4522 90.2808 39.0758 90.273 38.6688C90.2281 36.1682 92.9494 31.6905 94.87 29.2511H94.874C95.6788 30.9936 97.5016 32.1136 98.6019 32.5856C97.2354 35.5953 92.5484 42.0409 90.5929 39.7966ZM99.3734 31.2401C99.2433 31.33 96.9448 30.5644 96.5005 28.4604C96.1237 26.649 97.3854 25.2336 98.6061 24.5203C99.1301 24.1119 99.9194 23.9721 100.498 24.1753C101.036 24.533 101.181 25.1711 101.181 25.8585C101.181 26.2801 101.125 26.7133 101.075 27.1085L101.064 27.198C100.679 28.6118 100.111 29.9704 99.3734 31.2401ZM117.809 38.9934C117.807 38.9934 117.372 39.3758 117.372 39.3758C116.752 39.924 116.114 40.5105 115.344 40.2171C115.131 40.1408 114.982 39.8604 114.946 39.643C114.911 38.0744 115.625 36.6211 116.318 35.2057L116.496 34.8358C118.489 31.5459 120.805 27.6694 124.208 24.9791C124.781 24.5701 125.403 24.2265 126.06 24.4945C126.211 24.6346 126.387 24.877 126.387 25.119C126.387 25.1958 126.318 25.3997 126.278 25.4633C125.328 26.9815 124.423 28.5751 123.543 30.1053C121.823 33.1275 120.039 36.2512 117.809 38.9934Z" fill="#E61A27"/>
</g>
<defs>
<clipPath id="clip0_1115_2075">
<rect width="141" height="46" fill="white"/>
</clipPath>
</defs>
</svg>
