<svg width="222" height="98" viewBox="0 0 222 98" fill="none" xmlns="http://www.w3.org/2000/svg">
<path fill-rule="evenodd" clip-rule="evenodd" d="M208.067 7H14.4297V90.9997H208.067V7Z" fill="#004587"/>
<path fill-rule="evenodd" clip-rule="evenodd" d="M29.7578 34.7314H43.8718L48.9215 47.8664L54.1643 34.7314H68.2344V63.3009H60.6284V43.194L53.481 63.3009H44.2057L37.1999 43.194V63.3009H29.7578V34.7314Z" fill="#FFEC00"/>
<path fill-rule="evenodd" clip-rule="evenodd" d="M168.048 34.7129C164.958 34.7129 162.453 37.2159 162.453 40.3028V57.7835C162.453 60.8708 165.42 63.2755 168.51 63.2755H186.812C189.903 63.2755 192.738 60.7725 192.738 57.6856V40.3028C192.738 37.2159 190.23 34.7129 187.139 34.7129H168.048ZM172.746 42.3593H182.62C183.347 42.3593 183.937 42.9471 183.937 43.6726V54.1955C183.937 54.9211 183.347 55.5089 182.62 55.5089H172.746C172.018 55.5089 171.429 54.9215 171.429 54.1955V43.6726C171.43 42.9471 172.019 42.3593 172.746 42.3593Z" fill="#FFEC00"/>
<path fill-rule="evenodd" clip-rule="evenodd" d="M72.7344 34.6982H97.8711V40.7093H82.1069V45.7295H97.8711V51.744H82.1069V57.0145H97.8711V63.2681H72.7344V34.6982Z" fill="#FFEC00"/>
<path fill-rule="evenodd" clip-rule="evenodd" d="M100.676 34.6982H126.544V40.7093H118.323V63.2681H108.631V40.7093H100.676V34.6982Z" fill="#FFEC00"/>
<path fill-rule="evenodd" clip-rule="evenodd" d="M129.344 34.6982V63.2355H139.131V52.2373H143.657L149.409 63.2686H159.767C159.767 63.2686 153.746 53.4021 152.99 52.2631C153.513 52.2631 155.801 52.1107 157.138 51.0987C158.56 50.025 159.436 48.5047 159.436 47.1523L159.487 40.717C159.487 40.1551 159.272 38.1561 158.334 36.9299C157.16 35.3916 155.484 34.6991 153.899 34.6991H129.344V34.6982ZM139.131 40.8978H150.118C150.267 40.8978 150.649 40.9704 150.798 41.0429C151.372 41.3765 151.285 42.4649 151.285 43.4768C151.285 44.0753 151.296 45.4573 151.03 45.7222C150.841 45.9472 150.267 45.9944 149.853 45.9944H139.131V40.8978Z" fill="#FFEC00"/>
</svg>
