<svg width="150" height="39" viewBox="0 0 150 39" fill="none" xmlns="http://www.w3.org/2000/svg">
<g clip-path="url(#clip0_1115_2097)">
<path fill-rule="evenodd" clip-rule="evenodd" d="M126.362 0.0078125H119.523L115.229 10.7069L120.218 23.7805H127.518L121.713 10.4706L126.362 0.0078125Z" fill="#37864F"/>
<path d="M115.11 0.0078125H109.09V23.7766H115.11V0.0078125Z" fill="#37864F"/>
<path fill-rule="evenodd" clip-rule="evenodd" d="M103.873 23.7805L108.975 10.7069L104.685 0.0078125H97.8526L102.494 10.4706L96.6855 23.7688L103.873 23.7805Z" fill="#37864F"/>
<path fill-rule="evenodd" clip-rule="evenodd" d="M143.398 10.4706L148.84 0.0078125H142.001L136.551 10.7069L142.696 23.7805H150L143.398 10.4706Z" fill="#37864F"/>
<path d="M136.434 0.0078125H130.414V23.7766H136.434V0.0078125Z" fill="#37864F"/>
<path fill-rule="evenodd" clip-rule="evenodd" d="M64.2351 23.7688V0H58.1017V7.60787H51.7228V0H45.6914V23.7688H51.7228V12.9535L58.1017 12.9651V23.7688H64.2351Z" fill="#37864F"/>
<path fill-rule="evenodd" clip-rule="evenodd" d="M87.8752 23.7688L87.8564 10.9702L81.6021 19.4961L75.227 10.9702L75.2534 23.7688H69.0974L69.0898 0H74.5321L81.6021 9.74613L88.6646 0H94.0086L94.02 23.7688H87.8752Z" fill="#37864F"/>
<path fill-rule="evenodd" clip-rule="evenodd" d="M50.0648 31.1445H47.3947V36.3507H45.6914V29.7461H50.0648V31.1445Z" fill="#37864F"/>
<path fill-rule="evenodd" clip-rule="evenodd" d="M54.1021 35.072C54.2503 35.0789 54.3982 35.055 54.5371 35.0018C54.676 34.9485 54.803 34.867 54.9103 34.7621C55.1161 34.5433 55.2688 34.2779 55.356 33.9874C55.4401 33.694 55.4859 33.3905 55.492 33.0848C55.5003 32.5801 55.3694 32.0832 55.1143 31.6515C55.0026 31.4617 54.8419 31.3073 54.6499 31.2055C54.4579 31.1036 54.2422 31.0582 54.0266 31.0744C53.0749 31.0744 52.5952 31.7794 52.5952 33.1855C52.5787 33.6633 52.711 34.1341 52.9729 34.5297C53.0972 34.7107 53.2653 34.8555 53.4606 34.9499C53.6559 35.0443 53.8717 35.085 54.087 35.0681L54.1021 35.072ZM52.6141 30.7025C52.8161 30.3847 53.0719 30.1066 53.3694 29.8813C53.724 29.6547 54.1383 29.5465 54.5553 29.5714C54.9114 29.5628 55.2649 29.6344 55.5912 29.7809C55.9174 29.9275 56.2084 30.1455 56.4437 30.4197C56.6999 30.7371 56.8983 31.0992 57.0291 31.4888C57.1799 31.9665 57.2526 32.4665 57.2444 32.9686C57.2431 33.5657 57.1461 34.1585 56.9573 34.7233C56.7825 35.2381 56.4681 35.691 56.0509 36.0288C55.6166 36.3647 55.084 36.5395 54.5402 36.5246C54.1763 36.5413 53.8151 36.4534 53.4975 36.2706C53.1798 36.0878 52.9183 35.8176 52.7425 35.4903H52.7085V38.9069H50.9863V29.7457H52.6179L52.6141 30.7025Z" fill="#37864F"/>
<path fill-rule="evenodd" clip-rule="evenodd" d="M61.903 36.2301C61.6877 36.8809 61.5253 37.3922 61.3591 37.737C61.2525 38.0278 61.0979 38.2978 60.9021 38.5349C60.7511 38.7198 60.55 38.8546 60.3243 38.9223C60.0211 38.9945 59.7101 39.0258 59.399 39.0153L58.6437 38.9959V37.5743C58.7533 37.5943 58.8646 37.6034 58.976 37.6014C59.2397 37.6177 59.5023 37.5544 59.7314 37.4193C59.9355 37.1976 60.0583 36.9101 60.0788 36.6059L57.707 29.7456H59.5954L60.9739 34.6032H61.0003L62.3146 29.7456H64.1161L61.903 36.2301Z" fill="#37864F"/>
<path fill-rule="evenodd" clip-rule="evenodd" d="M70.8806 36.3507H69.1697V31.1716H66.764V36.3507H65.0645V29.7461H70.8806V36.3507Z" fill="#37864F"/>
<path fill-rule="evenodd" clip-rule="evenodd" d="M78.2247 36.3502H76.5177V31.1711H74.1194V36.3502H72.4199V29.7456H78.2247V36.3502Z" fill="#37864F"/>
<path fill-rule="evenodd" clip-rule="evenodd" d="M83.334 33.135C82.9844 33.3329 82.5986 33.4542 82.201 33.4913C81.9916 33.5273 81.7856 33.5817 81.5854 33.654C81.4356 33.7148 81.305 33.8167 81.2077 33.9484C81.1039 34.1025 81.0546 34.2884 81.068 34.4752C81.0594 34.588 81.0765 34.7012 81.1178 34.806C81.1591 34.9109 81.2234 35.0045 81.3059 35.0795C81.4581 35.2045 81.6472 35.2728 81.8422 35.2732C82.0942 35.2738 82.3432 35.2169 82.5711 35.1066C82.7961 35.0103 82.9908 34.8521 83.1338 34.6496C83.2832 34.4588 83.3621 34.2201 83.3567 33.9755L83.334 33.135ZM84.9769 35.0524C84.9599 35.3068 84.9972 35.562 85.0864 35.8C85.1101 35.8646 85.1469 35.9232 85.1945 35.972C85.242 36.0207 85.2992 36.0585 85.3621 36.0828V36.3501H83.5266C83.4488 36.0977 83.3944 35.8383 83.3642 35.5754C83.1104 35.8459 82.8235 36.0816 82.5107 36.2765C82.132 36.4681 81.7128 36.56 81.2908 36.5438C80.9559 36.5472 80.6244 36.4744 80.3202 36.3307C80.0233 36.1957 79.7722 35.9732 79.5988 35.6916C79.4078 35.3673 79.312 34.9934 79.3231 34.6147C79.3142 34.2435 79.396 33.876 79.5611 33.5456C79.718 33.2562 79.9492 33.0163 80.2295 32.8522C80.5308 32.6718 80.8651 32.5571 81.2115 32.5152L82.7222 32.275C83.0999 32.2208 83.3113 32.0465 83.3113 31.7637C83.3298 31.6387 83.3085 31.511 83.2507 31.3994C83.1929 31.2878 83.1016 31.1982 82.9903 31.1439C82.7397 31.0357 82.4689 30.9854 82.1972 30.9967C82.0608 30.9817 81.9229 30.9967 81.7926 31.0408C81.6623 31.0849 81.5428 31.157 81.4419 31.2524C81.2893 31.4388 81.1957 31.6685 81.1737 31.9109H79.5384C79.5645 31.3741 79.7489 30.8581 80.0671 30.4311C80.3191 30.0987 80.6687 29.8583 81.0642 29.7455C81.5108 29.621 81.9724 29.5623 82.4351 29.5712C82.8176 29.5747 83.1982 29.6267 83.5682 29.7261C83.9469 29.8255 84.2926 30.0275 84.569 30.3111C84.7124 30.4651 84.8233 30.6478 84.8948 30.8477C84.9662 31.0477 84.9968 31.2606 84.9844 31.4732L84.9769 35.0524Z" fill="#37864F"/>
<path fill-rule="evenodd" clip-rule="evenodd" d="M92.7736 36.3507H91.0703V29.7461H92.7736V32.2485L94.8999 29.7461H97.0111L94.7035 32.3027L97.1017 36.3507H95.051L93.4761 33.519L92.7736 34.2589V36.3507Z" fill="#37864F"/>
<path fill-rule="evenodd" clip-rule="evenodd" d="M100.671 31.0436C100.436 31.0183 100.199 31.0602 99.9856 31.1648C99.7723 31.2695 99.5914 31.4326 99.4629 31.6362C99.2254 32.0681 99.1078 32.5584 99.123 33.054C99.1083 33.5421 99.2259 34.0249 99.4629 34.4485C99.5886 34.6555 99.7687 34.8221 99.9825 34.9289C100.196 35.0358 100.435 35.0787 100.671 35.0528C100.904 35.0781 101.14 35.0377 101.352 34.936C101.564 34.8343 101.746 34.6751 101.876 34.4756C102.114 34.048 102.235 33.5619 102.224 33.0695C102.236 32.5708 102.116 32.078 101.876 31.644C101.747 31.4421 101.567 31.2806 101.354 31.1774C101.142 31.0742 100.905 31.0332 100.671 31.0591V31.0436ZM100.671 36.5248C100.1 36.5309 99.5362 36.3982 99.0248 36.1374C98.5233 35.8774 98.1061 35.4737 97.8238 34.9753C97.5052 34.3833 97.3474 33.7144 97.3668 33.0385C97.3593 32.5092 97.4503 31.9833 97.635 31.489C97.7928 31.073 98.0392 30.6985 98.3563 30.3928C98.6652 30.1136 99.0227 29.8968 99.41 29.7536C99.8166 29.6137 100.243 29.543 100.671 29.5445C101.099 29.5446 101.524 29.6152 101.929 29.7536C102.318 29.8955 102.676 30.1169 102.979 30.4044C103.294 30.7071 103.541 31.0775 103.7 31.489C103.882 31.9839 103.971 32.5097 103.961 33.0385C103.968 33.5557 103.88 34.0696 103.7 34.5531C103.544 34.9674 103.297 35.3396 102.979 35.6416C102.676 35.9324 102.315 36.153 101.922 36.2885C101.521 36.4369 101.098 36.5116 100.671 36.5093V36.5248Z" fill="#37864F"/>
<path fill-rule="evenodd" clip-rule="evenodd" d="M111.353 31.8375L109.733 36.3504H108.309L106.685 31.8375H106.633C106.633 31.8995 106.659 32.0119 106.67 32.1552C106.682 32.2985 106.67 32.4496 106.67 32.6239V36.3504H105.088V29.7651H107.411L108.978 34.2586H109.031L110.598 29.7651H112.925V36.3504H111.338V32.6239C111.338 32.4767 111.357 32.3218 111.365 32.1668C111.372 32.0119 111.365 31.9111 111.391 31.8375H111.353Z" fill="#37864F"/>
<path fill-rule="evenodd" clip-rule="evenodd" d="M120.297 36.3502H118.594V31.1789H116.192V36.3502H114.488V29.7456H120.297V36.3502Z" fill="#37864F"/>
<path fill-rule="evenodd" clip-rule="evenodd" d="M125.388 33.1354C125.038 33.3339 124.652 33.4578 124.255 33.4995C124.049 33.5299 123.846 33.5818 123.65 33.6545C123.502 33.7173 123.371 33.8188 123.273 33.9489C123.166 34.1023 123.113 34.2877 123.122 34.4757C123.11 34.5898 123.127 34.705 123.171 34.8106C123.214 34.9163 123.283 35.0089 123.371 35.08C123.526 35.2058 123.717 35.2741 123.915 35.2737C124.165 35.2709 124.413 35.2169 124.644 35.1149C124.866 35.0104 125.059 34.8506 125.206 34.65C125.348 34.4555 125.422 34.2185 125.418 33.976L125.388 33.1354ZM127.053 35.0529C127.035 35.3058 127.066 35.5598 127.144 35.8005C127.167 35.865 127.204 35.9237 127.252 35.9724C127.299 36.0212 127.357 36.059 127.419 36.0833V36.3505H125.592C125.512 36.0987 125.459 35.839 125.433 35.5758C125.177 35.8461 124.886 36.0794 124.568 36.2692C124.19 36.4621 123.77 36.554 123.348 36.5365C123.019 36.5411 122.694 36.4682 122.396 36.3234C122.094 36.1924 121.838 35.9693 121.664 35.6843C121.47 35.364 121.374 34.9917 121.388 34.6151C121.379 34.2448 121.462 33.8781 121.63 33.5499C121.781 33.257 122.008 33.013 122.287 32.8449C122.594 32.6706 122.929 32.5564 123.276 32.5079L124.787 32.2677C125.187 32.2251 125.384 32.0392 125.384 31.7564C125.4 31.6317 125.378 31.5049 125.32 31.3938C125.262 31.2827 125.173 31.1928 125.063 31.1366C124.815 31.0312 124.549 30.981 124.281 30.9894C124.139 30.9701 123.994 30.9842 123.858 31.0305C123.722 31.0768 123.598 31.1541 123.495 31.2567C123.354 31.4485 123.262 31.6736 123.227 31.9113H121.6C121.616 31.3837 121.79 30.8741 122.098 30.451C122.359 30.1125 122.717 29.8661 123.122 29.746C123.57 29.6248 124.032 29.5661 124.496 29.5716C124.879 29.5751 125.259 29.6272 125.629 29.7266C126.005 29.8305 126.348 30.0319 126.626 30.3115C126.772 30.4646 126.885 30.6468 126.958 30.8468C127.032 31.0468 127.064 31.2602 127.053 31.4736V35.0529Z" fill="#37864F"/>
<path fill-rule="evenodd" clip-rule="evenodd" d="M134.334 36.3507H132.631V33.736H130.237V36.3507H128.533V29.7461H130.237V32.3414H132.631V29.7461H134.334V36.3507Z" fill="#37864F"/>
<path fill-rule="evenodd" clip-rule="evenodd" d="M141.691 36.3507H139.988V32.3686L137.707 36.3507H135.883V29.7461H137.582V33.7205L139.863 29.7461H141.691V36.3507Z" fill="#37864F"/>
<path fill-rule="evenodd" clip-rule="evenodd" d="M149.047 36.3581H147.336V32.3837L145.055 36.3581H143.238V29.7612H144.949V33.7279L147.226 29.7612H149.047V36.3581Z" fill="#37864F"/>
<path fill-rule="evenodd" clip-rule="evenodd" d="M148.183 27.2783C148.183 27.5148 148.129 27.7479 148.025 27.9591C147.922 28.1704 147.771 28.3537 147.586 28.4946C147.392 28.6296 147.177 28.7317 146.952 28.7968C146.704 28.8551 146.45 28.8849 146.196 28.8859C145.863 28.888 145.531 28.829 145.218 28.7116C144.928 28.6056 144.673 28.416 144.485 28.1654C144.308 27.906 144.215 27.5953 144.221 27.2783H145.403C145.399 27.386 145.416 27.4934 145.455 27.5937C145.493 27.694 145.552 27.7849 145.626 27.8607C145.701 27.9366 145.79 27.9956 145.888 28.034C145.986 28.0725 146.091 28.0895 146.196 28.084C146.302 28.0882 146.407 28.0705 146.506 28.0318C146.604 27.9931 146.694 27.9344 146.77 27.8591C146.846 27.7838 146.906 27.6935 146.947 27.5937C146.988 27.4939 147.009 27.3866 147.008 27.2783H148.183Z" fill="#37864F"/>
<path d="M30.6216 0C26.331 0.00112091 22.1932 1.63386 19.0082 4.58254C15.8268 1.63776 11.6952 0.00531944 7.40986 0L-6.462e-05 0V19.5039C-0.0355672 22.087 0.429817 24.6516 1.36904 27.0487C2.30827 29.4458 3.70261 31.6275 5.47103 33.467C7.23946 35.3066 9.3467 36.7673 11.6703 37.7643C13.9939 38.7614 16.4875 39.2748 19.0063 39.2748C21.525 39.2748 24.0187 38.7614 26.3423 37.7643C28.6659 36.7673 30.7731 35.3066 32.5415 33.467C34.3099 31.6275 35.7043 29.4458 36.6435 27.0487C37.5827 24.6516 38.0481 22.087 38.0126 19.5039V0H30.6216ZM33.3031 19.4961C33.2421 23.3439 31.709 27.013 29.0345 29.7119C26.3599 32.4109 22.7583 33.9235 19.0063 33.9235C15.2543 33.9235 11.6526 32.4109 8.97809 29.7119C6.30356 27.013 4.77048 23.3439 4.70951 19.4961V4.8382H7.40986C9.66614 4.8451 11.8796 5.47036 13.8212 6.64927C15.7628 7.82818 17.3619 9.51789 18.453 11.5435L19.0082 12.5584L19.5596 11.5435C20.6522 9.51502 22.2543 7.82345 24.1995 6.64437C26.1447 5.46528 28.3621 4.84165 30.6216 4.8382H33.3031V19.4961Z" fill="#37864F"/>
<path d="M11.6472 13.4533C12.2086 14.0246 12.6534 14.7048 12.9556 15.4544C13.2578 16.204 13.4113 17.0078 13.4072 17.8189V19.5194C13.4117 20.2645 13.554 21.0019 13.8264 21.6926C14.1119 22.3873 14.5276 23.0177 15.0501 23.548C15.3477 23.8506 15.6741 24.1218 16.0244 24.3576C16.3791 24.5872 16.7595 24.7719 17.1575 24.9077L17.9959 25.2176V17.8189C17.984 14.9461 16.866 12.1944 14.8854 10.163C12.9048 8.13154 10.222 6.98489 7.42108 6.97266H6.77148V11.6482H7.40975C8.19741 11.6463 8.9776 11.8049 9.70502 12.1148C10.4324 12.4247 11.0926 12.8796 11.6472 13.4533Z" fill="#37864F"/>
<path d="M23.1476 10.153C22.1612 11.1562 21.3792 12.3506 20.8468 13.6667C20.3145 14.9827 20.0426 16.3941 20.0469 17.8189V25.2293L20.8665 24.9194C21.2643 24.7833 21.6447 24.5986 21.9995 24.3693C22.3521 24.1384 22.6778 23.8667 22.9701 23.5597C23.4846 23.023 23.8924 22.3889 24.1711 21.6926C24.4468 20.9935 24.5892 20.2465 24.5903 19.4924V17.8189C24.5968 16.185 25.2352 14.6204 26.3654 13.4688C26.9199 12.894 27.5806 12.4383 28.3088 12.1284C29.0371 11.8184 29.8182 11.6605 30.6066 11.6637H31.226V6.9727H30.6217C29.2327 6.96872 27.8567 7.24781 26.5736 7.79375C25.2906 8.3397 24.126 9.14162 23.1476 10.153Z" fill="#37864F"/>
<path d="M26.6672 17.8189V19.5194C26.6773 20.54 26.4884 21.5524 26.1116 22.497C25.7347 23.4416 25.1776 24.2994 24.473 25.02C23.7392 25.7652 22.8741 26.3606 21.9237 26.7748C20.9728 27.179 19.9543 27.3895 18.925 27.3946C17.9302 27.3897 16.9463 27.1816 16.0307 26.7826C15.1151 26.3835 14.2862 25.8015 13.5922 25.0704C12.8821 24.3419 12.3187 23.4771 11.9343 22.5254C11.5432 21.5729 11.3441 20.5491 11.3489 19.5156V17.8189C11.3499 16.7456 10.9357 15.7158 10.1972 14.9554C9.45864 14.195 8.45616 13.7663 7.40975 13.7632H6.77148V19.5039C6.82784 22.7939 8.14163 25.9296 10.4299 28.2357C12.7183 30.5419 15.7981 31.8341 19.0062 31.8341C22.2143 31.8341 25.2941 30.5419 27.5824 28.2357C29.8707 25.9296 31.1845 22.7939 31.2409 19.5039V13.7632C30.897 14.7941 30.2924 15.7128 29.4888 16.4254C28.6852 17.138 27.7115 17.6189 26.6672 17.8189Z" fill="#37864F"/>
</g>
<defs>
<clipPath id="clip0_1115_2097">
<rect width="150" height="39" fill="white"/>
</clipPath>
</defs>
</svg>
