<svg width="306" height="52" viewBox="0 0 306 52" fill="none" xmlns="http://www.w3.org/2000/svg">
<path d="M262.631 36.7093V30.6651H272.466V25.0879H262.631V19.5483H275.085V13.701H255.254V42.562H275.681L276.199 36.7093H262.631Z" fill="black"/>
<path d="M287.577 19.2724H290.944C293.817 19.2724 294.736 20.0919 294.736 22.6327C294.736 25.1592 293.708 26.1003 290.944 26.1003H287.577V19.2724ZM299.064 32.1588C298.251 30.8276 297.408 29.9938 296.484 29.4284C300.241 28.1902 301.925 26.0341 301.925 22.2426C301.925 16.4937 298.406 13.7024 291.173 13.7024H280.191V42.5635H287.577V31.1765H288.518C290.179 31.1765 290.78 31.6203 292.079 33.8282L297.217 42.5635H305.275L299.064 32.1588Z" fill="black"/>
<path d="M66.8135 0H7.87233C3.82095 0 0.46875 3.22965 0.46875 7.40403V44.5172C0.46875 48.6898 3.82095 52 7.87233 52H66.8135C70.7903 52 74.1443 48.6898 74.1443 44.5172V7.40403C74.1443 3.22965 70.7903 0 66.8135 0Z" fill="#ED1C24"/>
<path d="M68.7639 44.5158C68.7639 45.6985 67.9848 46.645 66.8154 46.645H7.87246C6.70478 46.645 5.84766 45.6985 5.84766 44.5158V7.40257C5.84766 6.22165 6.70478 5.27691 7.87246 5.27691H66.8154C67.9848 5.27691 68.7639 6.22165 68.7639 7.40257V44.5158Z" fill="white"/>
<path d="M56.3706 33.0088C56.3706 29.543 54.1878 28.7557 50.9918 28.7557H48.0282V37.4999H50.9137C53.7992 37.4999 56.3706 36.5552 56.3706 33.0088ZM48.0282 22.4539H50.8374C53.4869 22.4539 55.4336 21.2712 55.4336 18.3564C55.4336 15.125 52.9385 14.2572 50.2891 14.2572H48.0282V22.4539ZM53.0965 43.0181H40V8.97884H53.7211C60.193 8.97884 63.6978 11.6592 63.6978 18.0415C63.6978 21.3517 60.9703 23.7135 58.0067 25.2112C62.1415 26.3903 64.9471 28.9168 64.9471 33.1681C64.9471 40.1033 59.178 43.0181 53.0965 43.0181Z" fill="#ED1C24"/>
<path d="M28.3813 26.5496C28.3813 19.693 27.6768 14.3395 20.3513 14.3395H18.7116V37.5017H21.5953C25.8845 37.5017 28.3813 34.0359 28.3813 26.5496ZM23.0008 43.0181H10.6035V8.98063H23.0008C31.7317 8.98063 36.4078 14.4952 36.4078 25.841C36.4078 35.691 33.2898 42.9393 23.0008 43.0181Z" fill="#ED1C24"/>
<path d="M104.928 25.7277C104.933 25.7294 104.467 25.5308 104.467 25.5308C101.492 24.2461 101.374 24.1996 100.671 23.6968C99.6948 23.0062 99.3701 22.473 99.3701 21.5765C99.3701 19.9948 100.68 19.1878 103.272 19.1878C105.563 19.1878 107.239 19.5815 109.902 20.7606L110.319 20.9413V14.9061L110.122 14.8309C107.563 13.8987 105.421 13.4961 102.964 13.4961C96.3551 13.4961 92.5681 16.6954 92.5681 22.2708C92.5681 26.472 94.4563 28.8821 99.3027 30.8682C104.456 33.0243 104.944 33.5647 104.944 35.1393C104.944 36.9751 103.405 37.9126 100.38 37.9126C97.7659 37.9126 95.7907 37.3902 92.8414 35.923L92.4102 35.7082V41.7453L92.5823 41.8294C95.324 43.0908 97.7144 43.6025 100.843 43.6025C108.071 43.6025 112.055 40.4033 112.055 34.5953C112.055 30.1937 110.254 27.9553 104.928 25.7277Z" fill="black"/>
<path d="M135.866 36.4921C133.139 37.5138 131.362 37.8716 129.064 37.8716C124.285 37.8716 122.424 35.3005 122.424 28.6891C122.424 21.7896 124.232 19.2292 129.105 19.2292C131.362 19.2292 133.337 19.6317 135.703 20.5657L136.109 20.7286V14.756L135.916 14.6808C133.698 13.8703 131.474 13.4981 128.912 13.4981C124.931 13.4981 121.545 14.6236 119.114 16.7617C116.072 19.4278 114.656 23.2264 114.656 28.7284C114.656 33.3949 115.622 36.7337 117.693 39.2226C120.102 42.0908 123.9 43.6045 128.677 43.6045C131.352 43.6045 133.916 43.0588 136.093 42.0228L136.265 41.944V36.3418L135.866 36.4921Z" fill="black"/>
<path d="M158.028 14.1609V25.3529H147.829V14.1609H140.445V43.022H147.829V31.1251H158.028V43.022H165.412V14.1609H158.028Z" fill="black"/>
<path d="M178.29 37.1692V31.1251H188.125V25.5479H178.29V20.0083H190.745V14.1609H170.908V43.022H191.337L191.85 37.1692H178.29Z" fill="black"/>
<path d="M213.94 14.1609V29.9334C212.966 28.6398 202.051 14.1609 202.051 14.1609H195.857V43.022H202.12V25.5747C203.105 26.8773 215.289 43.022 215.289 43.022H220.205V14.1609H213.94Z" fill="black"/>
<path d="M239.377 27.7576C239.659 27.3998 250.186 14.1609 250.186 14.1609H242.514C242.514 14.1609 234.04 25.2383 233.086 26.4819V14.1609H225.707V43.022H233.086V30.8155C234.04 32.0716 242.362 43.022 242.362 43.022H251.133C251.133 43.022 239.657 28.1191 239.377 27.7576Z" fill="black"/>
</svg>
