<svg width="212" height="43" viewBox="0 0 212 43" fill="none" xmlns="http://www.w3.org/2000/svg">
<g clip-path="url(#clip0_1366_1046)">
<path d="M81.0722 38.3829L74.4378 24.8736C78.8442 23.1352 81.0722 19.8572 81.0722 14.6422C81.0722 7.24188 75.6756 3.61621 69.1403 3.61621H53V38.3829H59.9314V25.8669H66.9123L73.1011 38.3829H81.0722ZM73.9427 14.7912C73.9427 17.8209 72.2099 19.3109 68.9917 19.3109H59.9314V10.3709H68.9917C72.0613 10.3709 73.9427 11.6622 73.9427 14.7912Z" fill="#385072"/>
<path d="M114.369 23.0359V3.61621H107.437V23.1352C107.437 28.6979 104.714 32.1249 100.308 32.1249C95.9018 32.1249 93.2283 28.5986 93.2283 23.0359V3.61621H86.2969V23.1352C86.2969 33.2672 91.941 38.9292 100.308 38.9292C109.121 38.9292 114.369 33.1182 114.369 23.0359Z" fill="#385072"/>
<path d="M146.044 38.3829V31.5289H128.666V3.61621H121.734V38.3829H146.044Z" fill="#385072"/>
<path d="M178.038 20.9995C178.038 10.4205 172.443 3.06982 162.987 3.06982C153.53 3.06982 147.936 10.4205 147.936 20.9995C147.936 31.5785 153.53 38.9291 162.987 38.9291C172.443 38.9291 178.038 31.5785 178.038 20.9995ZM170.908 20.9995C170.908 27.2078 168.581 32.0255 162.987 32.0255C157.392 32.0255 155.065 27.2078 155.065 20.9995C155.065 14.7911 157.392 9.97348 162.987 9.97348C168.581 9.97348 170.908 14.7911 170.908 20.9995Z" fill="#385072"/>
<path d="M211.028 24.9231V20.3538H198.601V26.8601H204.096C203.7 29.8898 202.066 32.1248 197.313 32.1248C192.115 32.1248 189.095 27.4065 189.095 20.9995C189.095 14.5428 192.065 9.97348 197.264 9.97348C201.027 9.97348 202.611 11.9105 203.898 14.4931L210.483 11.7615C208.206 6.39748 204.443 3.06982 197.363 3.06982C188.303 3.06982 181.965 10.4205 181.965 20.9995C181.965 31.9758 188.055 38.9291 197.115 38.9291C205.136 38.9291 211.028 33.8631 211.028 24.9231Z" fill="#385072"/>
<path d="M35 42.0032L25.0213 30.6691V29H2L0 30.6691L9.97872 42.0032H35Z" fill="#006CB6"/>
<path d="M9.97872 20.8491L0 30.6707H25.0213L35 20.8491H9.97872Z" fill="#385072"/>
<path d="M34.9996 20.8489V0L25.0078 9.82014L25.0209 20.3201V30.6691L34.9996 20.8489Z" fill="#6DBF5A"/>
<path d="M9.97872 0L0 9.82153H35V0H9.97872Z" fill="#6DBF5A"/>
<path d="M25.0215 20.8491V30.6707L35.0002 20.8491H25.0215Z" fill="#26A570"/>
</g>
<defs>
<clipPath id="clip0_1366_1046">
<rect width="212" height="43" fill="white"/>
</clipPath>
</defs>
</svg>
