<svg width="95" height="72" viewBox="0 0 95 72" fill="none" xmlns="http://www.w3.org/2000/svg">
<path d="M4.81529 0L4.34236 0.0432172L3.91242 0.0864345L3.52548 0.172869L3.13854 0.302521L2.75159 0.47539L2.40764 0.691477L2.0207 0.907563L1.71975 1.12365L1.41879 1.42617L1.11783 1.72869L0.902866 2.03121L0.687898 2.37695L0.47293 2.76591L0.300955 3.15486L0.171975 3.54382L0.0859872 3.93277L0.0429936 4.36495L0 4.84034V4.88355V4.96999V5.01321V5.09964V5.22929V5.35894V5.4886V5.61825V5.79112V5.96398V6.18007V6.39616V6.61224V6.87155V7.08764V7.34694V7.64946V7.90876V8.21128V8.55702V8.85954V9.20528V9.55102V9.89676V10.2857V10.6747V11.0636V11.4526V11.8848V12.3169V12.7491V13.1813V13.6134V14.0888V14.5642V15.0396V15.515V16.0336V16.509V17.0276V17.5462V18.0648V18.6266V19.1453V19.7071V20.2257V20.7875V21.3493V21.9544V22.5162V23.078V23.6831V24.2449V24.8499V25.455V26.06V26.6651V27.2701V27.8752V28.4802V29.0852V29.7335V30.3385V30.9868V31.5918V32.2401V32.8451V33.4934V34.0984V34.7467V35.395V36V36.6483V37.2533V37.9016V38.5066V39.1549V39.8031V40.4082V41.0564V41.6615V42.2665V42.9148V43.5198V44.1248V44.7299V45.3349V45.9832V46.545V47.1501V47.7551V48.3601V48.922V49.4838V50.0888V50.6507V51.2125V51.7743V52.2929V52.8547V53.4166V53.9352V54.4538V54.9724V55.491V56.0096V56.485V56.9604V57.4358V57.9112V58.3866V58.8187V59.2941V59.6831V60.1152V60.5474V60.9364V61.3253V61.7143V62.1032V62.449V62.7947V63.1405V63.4862V63.7887V64.0912V64.3938V64.6531V64.9124V65.1717V65.3878V65.6471V65.8199V66.036V66.2089V66.3818V66.5114V66.6411V66.7707V66.9004V66.9868V67.0732V67.1164V67.1597V67.2029L0.0429936 67.6351L0.0859872 68.0672L0.171975 68.4562L0.300955 68.8451L0.47293 69.2341L0.687898 69.6231L0.902866 69.9688L1.11783 70.2713L1.41879 70.5738L1.71975 70.8764L2.0207 71.0924L2.40764 71.3517L2.75159 71.5246L3.13854 71.6975L3.52548 71.8271L3.91242 71.9136L4.34236 71.9568L4.81529 72H4.85828H4.90127H4.94427H5.03025H5.07325H5.15924H5.28822H5.3742H5.50318H5.63217H5.80414H5.93312H6.1051H6.27707H6.49204H6.66401H6.87898H7.09395H7.30892H7.56688H7.82484H8.0828H8.34076H8.59873H8.89968H9.20064H9.50159H9.80255H10.1465H10.4475H10.7914H11.1353H11.4793H11.8662H12.2532H12.5971H12.9841H13.371H13.801H14.1879H14.6178H15.0478H15.4777H15.9076H16.3376H16.8105H17.2404H17.7134H18.1863H18.6592H19.1322H19.6481H20.121H20.6369H21.1099H21.6258H22.1417H22.6576H23.2166H23.7325H24.2484H24.8073H25.3662H25.8822H26.4411H27H27.5589H28.1178H28.7197H29.2787H29.8376H30.4395H30.9984H31.6003H32.2022H32.8041H33.3631H33.965H34.5669H35.1688H35.7707H36.3726H37.0175H37.6194H38.2213H38.8662H39.4682H40.0701H40.715H41.3169H41.9618H42.5637H43.2086H43.8105H44.4554H45.1003H45.7022H46.3471H46.949H47.5939H48.1959H48.8408H49.4427H50.0876H50.7325H51.3344H51.9793H52.5812H53.2261H53.828H54.4299H55.0748H55.6768H56.3217H56.9236H57.5255H58.1274H58.7293H59.3742H59.9761H60.578H61.1369H61.7389H62.3408H62.9427H63.5446H64.1035H64.6624H65.2643H65.8232H66.4252H66.9841H67.543H68.1019H68.6608H69.1768H69.7357H70.2516H70.8105H71.3264H71.8853H72.4013H72.9172H73.3901H73.906H74.422H74.8949H75.4108H75.8838H76.3567H76.8296H77.3025H77.7325H78.2054H78.6353H79.0653H79.4952H79.9252H80.3551H80.742H81.129H81.5589H81.9459H82.2898H82.6768H83.0207H83.4076H83.7516H84.0955H84.3965H84.7404H85.0414H85.3424H85.6433H85.9013H86.2022H86.4602H86.7181H86.9761H87.1911H87.449H87.664H87.879H88.051H88.2659H88.4379H88.5669H88.7388H88.9108H89.0398H89.1688H89.2548H89.3408H89.4268H89.5127H89.5987H89.6417H89.6847H89.7277L90.2006 71.9568L90.5876 71.9136L91.0175 71.8271L91.4045 71.6975L91.7914 71.5246L92.1353 71.3517L92.4793 71.0924L92.8232 70.8764L93.1242 70.5738L93.3822 70.2713L93.6401 69.9688L93.8551 69.6231L94.0701 69.2341L94.242 68.8451L94.371 68.4562L94.457 68.0672L94.5 67.6351V67.2029V67.1597V67.1164V67.0732V66.9868V66.9004V66.7707V66.6411V66.5114V66.3818V66.2089V66.036V65.8199V65.6471V65.3878V65.1717V64.9124V64.6531V64.3938V64.0912V63.7887V63.4862V63.1405V62.7947V62.449V62.1032V61.7143V61.3253V60.9364V60.5474V60.1152V59.6831V59.2941V58.8187V58.3866V57.9112V57.4358V56.9604V56.485V56.0096V55.491V54.9724V54.4538V53.9352V53.4166V52.8547V52.2929V51.7743V51.2125V50.6507V50.0888V49.4838V48.922V48.3601V47.7551V47.1501V46.545V45.9832V45.3349V44.7299V44.1248V43.5198V42.9148V42.2665V41.6615V41.0564V40.4082V39.8031V39.1549V38.5066V37.9016V37.2533V36.6483V36V35.395V34.7467V34.0984V33.4934V32.8451V32.2401V31.5918V30.9868V30.3385V29.7335V29.0852V28.4802V27.8752V27.2701V26.6651V26.06V25.455V24.8499V24.2449V23.6831V23.078V22.5162V21.9544V21.3493V20.7875V20.2257V19.7071V19.1453V18.6266V18.0648V17.5462V17.0276V16.509V16.0336V15.515V15.0396V14.5642V14.0888V13.6134V13.1813V12.7491V12.3169V11.8848V11.4526V11.0636V10.6747V10.2857V9.89676V9.55102V9.20528V8.85954V8.55702V8.21128V7.90876V7.64946V7.34694V7.08764V6.87155V6.61224V6.39616V6.18007V5.96398V5.79112V5.61825V5.4886V5.35894V5.22929V5.09964V5.01321V4.96999V4.88355V4.84034V4.36495L94.457 3.93277L94.371 3.54382L94.242 3.15486L94.0701 2.76591L93.8551 2.37695L93.6401 2.03121L93.3822 1.72869L93.1242 1.42617L92.8232 1.12365L92.4793 0.907563L92.1353 0.691477L91.7914 0.47539L91.4045 0.302521L91.0175 0.172869L90.5876 0.0864345L90.2006 0.0432172L89.7277 0H89.6847H89.6417H89.5987H89.5127H89.4268H89.3408H89.2548H89.1688H89.0398H88.9108H88.7388H88.5669H88.4379H88.2659H88.051H87.879H87.664H87.449H87.1911H86.9761H86.7181H86.4602H86.2022H85.9013H85.6433H85.3424H85.0414H84.7404H84.3965H84.0955H83.7516H83.4076H83.0207H82.6768H82.2898H81.9459H81.5589H81.129H80.742H80.3551H79.9252H79.4952H79.0653H78.6353H78.2054H77.7325H77.3025H76.8296H76.3567H75.8838H75.4108H74.8949H74.422H73.906H73.3901H72.9172H72.4013H71.8853H71.3264H70.8105H70.2516H69.7357H69.1768H68.6608H68.1019H67.543H66.9841H66.4252H65.8232H65.2643H64.6624H64.1035H63.5446H62.9427H62.3408H61.7389H61.1369H60.578H59.9761H59.3742H58.7293H58.1274H57.5255H56.9236H56.3217H55.6768H55.0748H54.4299H53.828H53.2261H52.5812H51.9793H51.3344H50.7325H50.0876H49.4427H48.8408H48.1959H47.5939H46.949H46.3471H45.7022H45.1003H44.4554H43.8105H43.2086H42.5637H41.9618H41.3169H40.715H40.0701H39.4682H38.8662H38.2213H37.6194H37.0175H36.3726H35.7707H35.1688H34.5669H33.965H33.3631H32.8041H32.2022H31.6003H30.9984H30.4395H29.8376H29.2787H28.7197H28.1178H27.5589H27H26.4411H25.8822H25.3662H24.8073H24.2484H23.7325H23.2166H22.6576H22.1417H21.6258H21.1099H20.6369H20.121H19.6481H19.1322H18.6592H18.1863H17.7134H17.2404H16.8105H16.3376H15.9076H15.4777H15.0478H14.6178H14.1879H13.801H13.371H12.9841H12.5971H12.2532H11.8662H11.4793H11.1353H10.7914H10.4475H10.1465H9.80255H9.50159H9.20064H8.89968H8.59873H8.34076H8.0828H7.82484H7.56688H7.30892H7.09395H6.87898H6.66401H6.49204H6.27707H6.1051H5.93312H5.80414H5.63217H5.50318H5.3742H5.28822H5.15924H5.07325H5.03025H4.94427H4.90127H4.85828H4.81529Z" fill="#C22821"/>
<path d="M39.9846 32.4998L40.0276 32.1541L40.0706 31.8083L40.1136 31.4626L40.1996 31.0736L40.2426 30.7279L40.2855 30.3389L40.3715 29.95L40.4145 29.6042L40.5005 29.2153L40.5865 28.7831L40.6295 28.3942L40.7155 28.0052L40.8015 27.6162L40.8875 27.1841L40.9734 26.7951L41.0594 26.3629L41.1454 25.974L41.2314 25.5418L41.3174 25.1096L41.4034 24.7207L41.5324 24.2885L41.6184 23.8563L41.7043 23.4242L41.8333 22.992L41.9193 22.603L42.0483 22.1709L42.1773 21.7387L42.3063 21.3065L42.3922 20.8743L42.5212 20.4422L42.6502 20.0532L42.7792 19.621L42.9082 19.1889L43.0801 18.7567L43.2091 18.3677L43.3381 17.9356L43.4671 17.5034L43.6391 17.1144L43.768 16.7255L43.94 16.2933L44.069 15.9044L44.241 15.5154L44.4129 15.1264L44.5849 14.7375L44.7139 14.3485L44.8859 13.9596L45.0578 13.6138L45.2298 13.2249L45.4448 12.8791L45.6168 12.5334L45.7887 12.1877L45.9607 11.8419L46.1757 11.4962L46.3477 11.1505L46.5626 10.8479L46.7346 10.5454L46.9496 10.1997L47.1645 9.89715L47.3795 9.63785L47.5945 9.33533L47.7664 9.07603L47.9814 8.81672L48.2394 8.55742L48.4543 8.29812L48.6693 8.03881L48.8843 7.82273L49.1422 7.60664L49.4002 7.39055L49.6152 7.21768L49.8731 7.0016L50.0881 6.87194L50.3461 6.69908L50.604 6.52621L50.862 6.39655L51.1199 6.2669L51.3779 6.13725L51.6359 6.05082L51.8938 5.96438L52.1948 5.87795L52.4527 5.83473L52.7107 5.74829L53.0117 5.70508H53.3126H53.5706H53.7426H53.9145L54.0865 5.74829H54.2585L54.4305 5.79151L54.6024 5.83473L54.7744 5.87795L54.9464 5.92116L55.1613 5.96438L55.3333 6.05082L55.5053 6.09403L55.6773 6.18047L55.8492 6.2669L56.0212 6.35334L56.1932 6.48299L56.3652 6.56942L56.5371 6.65586L56.7091 6.78551L56.8811 6.91516L57.0531 7.04481L57.225 7.17447L57.397 7.30412L57.612 7.47699L57.784 7.60664L57.9559 7.77951L58.1279 7.90916L58.2999 8.08203L58.4719 8.2549L58.6438 8.47098L58.8158 8.64385L58.9878 8.81672L59.1598 9.03281L59.3317 9.2489L59.5037 9.42176L59.6757 9.63785L59.8906 9.85394L60.0196 10.07L60.2346 10.3293L60.3636 10.5454L60.5355 10.8047L60.7505 11.0208L60.8795 11.2801L61.0945 11.5394L61.2664 11.7987L61.3954 12.058L61.5674 12.3173L61.7394 12.5766L61.9113 12.8791L62.0833 13.1385L62.2553 13.441L62.4273 13.7435L62.5992 14.046L62.7712 14.3485L62.9432 14.6078L63.1152 14.9536L63.2871 15.2561L63.4161 15.5586L63.5881 15.9044L63.7601 16.2069L63.932 16.5526L64.104 16.8984L64.233 17.2009L64.405 17.5466L64.5769 17.8924L64.7059 18.2381L64.8779 18.627L65.0499 18.9728L65.1789 19.3185L65.3508 19.6643L65.5228 20.0532L65.6948 20.4422L65.8238 20.7879L65.9957 21.1769L66.1247 21.5658L66.2967 21.9548L66.4257 22.3437L66.5976 22.7327L66.7266 23.1216L66.8556 23.5106L67.0276 23.8996L67.1566 24.3317L67.3285 24.7207L67.4575 25.1529L67.5865 25.5418L67.7585 25.974L67.8875 26.4062L68.0164 26.7951L68.1454 27.2273L68.3174 27.6595L68.4464 28.0916L68.5754 28.5238L68.7043 28.956L68.8333 29.3882L68.9623 29.8203L69.0913 30.2525L69.2203 30.7279L69.3492 31.1601L69.4782 31.5922L69.6072 32.0676L69.7362 32.4998L69.8652 32.9752L69.9941 33.4074L70.0801 33.8827L70.2091 34.3149L70.3381 34.7903L70.4241 35.2657L70.5531 35.6979L70.682 36.1733L70.768 36.6487L70.897 37.124L70.983 37.5994L71.112 38.0748L71.198 38.5502L71.3269 39.0256L71.4129 39.501L71.4989 39.9764L71.6279 40.4518L71.7139 40.9272L71.7999 41.4026L71.8859 41.8779L71.9718 42.3966L72.0578 42.8719L72.1438 43.3473L72.2298 43.8227L72.3588 44.2981L72.4018 44.8167L72.4878 45.2921L72.5738 45.8107L72.6598 46.2861L72.7457 46.7615L72.7887 47.2801L72.8747 47.7555L72.9607 48.2309L73.0037 48.7495L73.0897 49.2249L73.1327 49.7435L73.2187 50.2189L73.2617 50.6943L73.3476 51.2129L73.3906 51.6883L73.4336 52.2069L73.5196 52.6823L73.5626 53.2009L73.6056 53.6763L73.6486 54.1949L73.6916 54.6703L73.7346 55.1457L73.7776 55.6643L73.8206 56.1397L73.8636 56.6583V57.1337L73.9066 57.609L73.9496 58.1277V58.603L73.9926 59.0784L74.0355 59.597V60.0724V60.5478L74.0785 61.0664V61.5418V62.0172V62.4926L74.1215 62.968V63.4866V63.962H74.0355H73.8206H73.5196H73.1327H72.6168H72.0578H71.4559H70.768H70.0801H69.4352H68.7473H68.1024H67.4575H66.8986H66.3827H65.9957H65.6948H65.4798H65.3938V63.3569V62.7519V62.1469V61.5418V60.9368L65.3508 60.3317V59.7699V59.1649L65.3078 58.5598V57.998L65.2648 57.393V56.7879L65.2219 56.2261V55.621L65.1789 55.0592L65.1359 54.4542L65.0929 53.8924V53.3305L65.0499 52.7255L65.0069 52.1637L64.9639 51.5586L64.9209 50.9968L64.8779 50.435L64.8349 49.8731L64.7919 49.3113L64.7489 48.7495L64.7059 48.1877L64.6629 47.6259L64.5769 47.064L64.534 46.5022L64.491 45.9836L64.405 45.4218L64.362 44.8599L64.319 44.2981L64.233 43.7795L64.19 43.2609L64.104 42.6991L64.061 42.1805L63.975 41.6619L63.932 41.1L63.8461 40.5814L63.7601 40.0628L63.7171 39.5442L63.6311 39.0256L63.5451 38.507L63.4591 37.9884L63.4161 37.513L63.3301 36.9944L63.2441 36.4758L63.1582 36.0004L63.0722 35.525L62.9862 35.0496L62.9002 34.531L62.8142 34.0556L62.7282 33.5802L62.6422 33.1048L62.5562 32.6294L62.4703 32.1541L62.3843 31.6787L62.2983 31.2465L62.2123 30.7711L62.1263 30.3389L61.9973 29.8635L61.9113 29.4314L61.8254 28.9992L61.7394 28.567L61.6104 28.1348L61.5244 27.7027L61.4384 27.2705L61.3094 26.8383L61.2234 26.4494L61.1375 26.0172L61.0085 25.6283L60.9225 25.2393L60.8365 24.8071L60.7075 24.4182L60.6215 24.0292L60.4926 23.6403L60.4066 23.2945L60.2776 22.9056L60.1916 22.5598L60.0626 22.1709L59.9766 21.8251L59.8476 21.4794L59.7617 21.1337L59.6327 20.7879L59.5467 20.4422L59.4177 20.0964L59.2887 19.7939L59.2027 19.4482L59.0738 19.1457L58.9878 18.8431L58.8588 18.5406L58.7298 18.2381L58.6438 17.9356L58.5149 17.633L58.4289 17.3737L58.2999 17.0712L58.1709 16.8119L58.0849 16.5526L57.9559 16.2933L57.827 16.034L57.741 15.7747L57.612 15.5586L57.483 15.3425L57.397 15.0832L57.268 14.8671L57.139 14.6511L57.0531 14.435L56.9241 14.2189L56.7951 14.046L56.7091 13.8299L56.5801 13.6571L56.4512 13.4842L56.3652 13.3113L56.2362 13.1385L56.1072 13.0088L56.0212 12.8359L55.8922 12.7063L55.8063 12.5766L55.6773 12.447L55.5483 12.3173L55.4623 12.1877L55.3333 12.1012L55.2043 11.9716L55.1184 11.8851L54.9894 11.7987L54.9034 11.7123L54.7744 11.6691L54.6884 11.5826L54.5594 11.5394L54.4305 11.4962L54.3445 11.453L54.2155 11.4098L54.1295 11.3665H54.0435H53.9145L53.7856 11.3233L53.6996 11.3665H53.5706H53.4416L53.3556 11.4098H53.2266L53.0977 11.453L53.0117 11.4962L52.8827 11.5394L52.7537 11.5826L52.6677 11.6691L52.5387 11.7123L52.4098 11.7987L52.3238 11.8419L52.1948 11.9284L52.0658 12.0148L51.9798 12.1012L51.8508 12.1877L51.7649 12.3173L51.6359 12.447L51.5499 12.5334L51.4209 12.6631L51.2919 12.7927L51.2059 12.9224L51.077 13.0952L50.991 13.2249L50.862 13.3545L50.776 13.5274L50.647 13.7003L50.561 13.8731L50.432 14.046L50.3461 14.2189L50.2601 14.3918L50.1311 14.6078L50.0451 14.7807L49.9161 14.9968L49.8301 15.2129L49.7441 15.429L49.6152 15.6451L49.5292 15.8611L49.4432 16.1204L49.3142 16.3797L49.2282 16.5958L49.1422 16.8551L49.0133 17.1144L48.9273 17.3737L48.8413 17.633L48.7553 17.9356L48.6263 18.1949L48.5403 18.4974L48.4543 18.7999L48.3684 19.0592L48.2824 19.405L48.1964 19.7075L48.1104 20.01L48.0244 20.3125L47.9384 20.6583L47.8524 21.004L47.7664 21.3497L47.6805 21.6955L47.5945 22.0412L47.5085 22.387L47.4225 22.7327L47.3365 23.1216L47.2505 23.4674L47.1645 23.8563L47.0785 24.2453L46.9926 24.6343L46.9496 25.0232L46.8636 25.4554L46.7776 25.8443L46.6916 26.2765L46.6486 26.6655L46.5626 27.0976L46.4766 27.5298L46.4336 27.962L46.3477 28.4374L46.2617 28.8695L46.2187 29.3017L46.1327 29.7771L46.0897 30.2525L46.0037 30.7279L45.9607 31.2033L45.8747 31.6787L45.8317 32.1541L45.7457 32.6294L45.7028 33.1481L45.6598 33.6667L45.5738 34.1421L45.5308 34.6607L45.4878 35.1793L45.4018 35.7411L45.3588 36.2597L45.3158 36.7783L45.2728 37.3401L45.2298 37.8587L45.1438 38.4206L45.1008 38.9824L45.0578 39.5442L45.0149 40.1493L44.9719 40.7111L44.9289 41.2729L44.8859 41.8779L44.8429 42.483V43.088L44.7999 43.6931L44.7569 44.2981L44.7139 44.9032L44.6709 45.5514V46.1565L44.6279 46.8047L44.5849 47.453V48.058L44.5419 48.7495L44.4989 49.3978V50.046L44.4559 50.6943V51.3858V52.0772L44.4129 52.7255V53.417L44.3699 54.1084V54.8431V55.5346L44.327 56.2261V56.9608V57.6523V58.387V59.1217V59.8563V60.591H44.241H44.069H43.725H43.3381H42.8222H42.2633H41.6613H41.0164H40.3285H39.6406H38.9527H38.3078H37.6629H37.104H36.6311H36.2012H35.9002H35.6852H35.6422V59.8563V59.1217L35.5992 58.387V57.6523V56.9608V56.2261V55.5346V54.8431L35.5563 54.1084V53.417V52.7255L35.5133 52.0772V51.3858L35.4703 50.6943V50.046L35.4273 49.3978V48.7495L35.3843 48.058V47.453L35.3413 46.8047L35.2983 46.1565L35.2553 45.5514V44.9032L35.2123 44.2981L35.1693 43.6931L35.1263 43.088L35.0833 42.483L35.0403 41.8779L34.9973 41.2729L34.9543 40.7111L34.9113 40.1493L34.8684 39.5442L34.8254 38.9824L34.7824 38.4206L34.7394 37.8587L34.6964 37.3401L34.6534 36.7783L34.6104 36.2597L34.5244 35.7411L34.4814 35.1793L34.4384 34.6607L34.3524 34.1421L34.3094 33.6667L34.2664 33.1481L34.2234 32.6294L34.1375 32.1541L34.0945 31.6787L34.0085 31.2033L33.9655 30.7279L33.8795 30.2525L33.8365 29.7771L33.7505 29.3017L33.7075 28.8695L33.6215 28.4374L33.5356 27.962L33.4496 27.5298L33.4066 27.0976L33.3206 26.6655L33.2346 26.2765L33.1916 25.8443L33.1056 25.4554L33.0196 25.0232L32.9336 24.6343L32.8477 24.2453L32.8047 23.8563L32.7187 23.4674L32.6327 23.1216L32.5467 22.7327L32.4607 22.387L32.3747 22.0412L32.2887 21.6955L32.2028 21.3497L32.1168 21.004L32.0308 20.6583L31.9448 20.3125L31.8588 20.01L31.7728 19.7075L31.6868 19.405L31.5578 19.0592L31.4719 18.7999L31.3859 18.4974L31.2999 18.1949L31.2139 17.9356L31.1279 17.633L30.9989 17.3737L30.9129 17.1144L30.827 16.8551L30.741 16.5958L30.612 16.3797L30.526 16.1204L30.44 15.8611L30.311 15.6451L30.225 15.429L30.1391 15.2129L30.0101 14.9968L29.9241 14.7807L29.7951 14.6078L29.7091 14.3918L29.6231 14.2189L29.4942 14.046L29.4082 13.8731L29.2792 13.7003L29.1932 13.5274L29.0642 13.3545L28.9782 13.2249L28.8492 13.0952L28.7633 12.9224L28.6343 12.7927L28.5483 12.6631L28.4193 12.5334L28.2903 12.447L28.2043 12.3173L28.0754 12.1877L27.9894 12.1012L27.8604 12.0148L27.7314 11.9284L27.6454 11.8419L27.5164 11.7987L27.4305 11.7123L27.3015 11.6691L27.1725 11.5826L27.0435 11.5394L26.9575 11.4962L26.8285 11.453L26.6996 11.4098H26.6136L26.4846 11.3665H26.3556H26.2696L26.1406 11.3233L26.0117 11.3665H25.9257H25.7967L25.7107 11.4098L25.5817 11.453L25.4957 11.4962L25.3668 11.5394L25.2808 11.5826L25.1518 11.6691L25.0658 11.7123L24.9368 11.7987L24.8508 11.8851L24.7219 11.9716L24.5929 12.1012L24.5069 12.1877L24.3779 12.3173L24.2489 12.447L24.1629 12.5766L24.034 12.7063L23.948 12.8359L23.819 13.0088L23.69 13.1385L23.604 13.3113L23.475 13.4842L23.3461 13.6571L23.2601 13.8299L23.1311 14.046L23.0021 14.2189L22.9161 14.435L22.7871 14.6511L22.7012 14.8671L22.5722 15.0832L22.4432 15.3425L22.3572 15.5586L22.2282 15.7747L22.0992 16.034L21.9703 16.2933L21.8843 16.5526L21.7553 16.8119L21.6693 17.0712L21.5403 17.3737L21.4113 17.633L21.3254 17.9356L21.1964 18.2381L21.0674 18.5406L20.9814 18.8431L20.8524 19.1457L20.7664 19.4482L20.6375 19.7939L20.5515 20.0964L20.4225 20.4422L20.3365 20.7879L20.2075 21.1337L20.0785 21.4794L19.9926 21.8251L19.8636 22.1709L19.7776 22.5598L19.6486 22.9056L19.5626 23.2945L19.4336 23.6835L19.3477 24.0292L19.2187 24.4182L19.1327 24.8071L19.0467 25.2393L18.9177 25.6283L18.8317 26.0172L18.7028 26.4494L18.6168 26.8383L18.5308 27.2705L18.4448 27.7027L18.3158 28.1348L18.2298 28.567L18.1438 28.9992L18.0578 29.4314L17.9289 29.8635L17.8429 30.3389L17.7569 30.7711L17.6709 31.2465L17.5849 31.7219L17.4989 32.1541L17.4129 32.6294L17.284 33.1048L17.198 33.5802L17.112 34.0556L17.069 34.531L16.94 35.0496L16.897 35.525L16.811 36.0004L16.725 36.519L16.6391 36.9944L16.5531 37.513L16.4671 37.9884L16.4241 38.507L16.3381 39.0256L16.2521 39.5442L16.1661 40.0628L16.1231 40.5814L16.0371 41.1L15.9512 41.6619L15.9082 42.1805L15.8222 42.6991L15.7792 43.2609L15.6932 43.7795L15.6502 44.2981L15.6072 44.8599L15.5212 45.4218L15.4782 45.9836L15.3922 46.5022L15.3492 47.064L15.3063 47.6259L15.2633 48.1877L15.2203 48.7495L15.1773 49.3113L15.1343 49.8731L15.0913 50.435L15.0483 50.9968L15.0053 51.5586L14.9623 52.1637L14.9193 52.7255L14.8763 53.3305L14.8333 53.8924L14.7903 54.4542V55.0592L14.7473 55.621L14.7043 56.2261V56.7879L14.6613 57.393V57.998L14.6184 58.5598V59.1649V59.7699L14.5754 60.3317V60.9368V61.5418V62.1469L14.5324 62.7519V63.3569V63.962H14.4894H14.2744H13.9735H13.5435H13.0706H12.5117H11.8668H11.2219H10.534H9.84606H9.15816H8.51326H7.91135H7.35243H6.83651H6.44957H6.10562H5.93364H5.84766V63.4866V62.968V62.4926V62.0172L5.89065 61.5418V61.0664V60.5478L5.93364 60.0724V59.597L5.97664 59.0784V58.603L6.01963 58.1277L6.06262 57.609V57.1337L6.10562 56.615L6.14861 56.1397L6.1916 55.6643L6.2346 55.1457L6.27759 54.6703L6.32059 54.1517L6.36358 53.6763L6.40657 53.2009L6.44957 52.6823L6.53555 52.2069L6.57855 51.6883L6.62154 51.2129L6.70753 50.6943L6.75052 50.2189L6.79352 49.7003L6.8795 49.2249L6.9225 48.7495L7.00848 48.2309L7.05148 47.7555L7.13747 47.2369L7.22345 46.7615L7.30944 46.2861L7.39543 45.7675L7.43842 45.2921L7.52441 44.8167L7.6104 44.2981L7.69638 43.8227L7.78237 43.3473L7.86836 42.8719L7.95434 42.3533L8.08332 41.8779L8.16931 41.4026L8.2553 40.9272L8.34129 40.4518L8.47027 39.9764L8.55625 39.501L8.64224 38.9824L8.77122 38.507L8.85721 38.0316L8.98619 37.5994L9.07218 37.0808L9.20116 36.6487L9.28715 36.1733L9.41613 35.6979L9.50211 35.2657L9.63109 34.7903L9.76008 34.3149L9.84606 33.8827L9.97504 33.4074L10.104 32.932L10.233 32.4998L10.362 32.0244L10.491 31.5922L10.6199 31.1601L10.7489 30.6847L10.8779 30.2525L11.0069 29.8203L11.1359 29.3882L11.2649 28.956L11.3938 28.5238L11.5228 28.0916L11.6518 27.6595L11.7808 27.2273L11.9528 26.7951L12.0817 26.3629L12.2107 25.974L12.3397 25.5418L12.5117 25.1529L12.6406 24.7207L12.7696 24.3317L12.9416 23.8996L13.0706 23.5106L13.2426 23.1216L13.3715 22.7327L13.5005 22.3437L13.6725 21.9548L13.8445 21.5658L13.9735 21.1769L14.1454 20.7879L14.2744 20.4422L14.4464 20.0532L14.5754 19.6643L14.7473 19.3185L14.9193 18.9728L15.0483 18.5838L15.2203 18.2381L15.3922 17.8924L15.5212 17.5466L15.6932 17.2009L15.8652 16.8984L16.0371 16.5526L16.2091 16.2069L16.3381 15.8611L16.5101 15.5586L16.682 15.2561L16.854 14.9536L17.026 14.6078L17.198 14.3053L17.3699 14.0028L17.5419 13.7435L17.6709 13.441L17.8429 13.1385L18.0149 12.8791L18.1868 12.5766L18.3588 12.3173L18.5308 12.058L18.7028 11.7987L18.8747 11.5394L19.0467 11.2801L19.2187 11.0208L19.3906 10.8047L19.5626 10.5454L19.7346 10.3293L19.9066 10.07L20.0785 9.85394L20.2505 9.63785L20.4225 9.42176L20.5945 9.20568L20.7664 9.03281L20.9814 8.81672L21.1104 8.64385L21.3254 8.47098L21.4973 8.2549L21.6693 8.08203L21.8413 7.90916L22.0133 7.77951L22.1852 7.60664L22.3572 7.47699L22.5292 7.30412L22.7012 7.17447L22.8731 7.04481L23.0451 6.91516L23.2171 6.78551L23.4321 6.65586L23.604 6.56942L23.776 6.48299L23.948 6.35334L24.1199 6.2669L24.2919 6.18047L24.4639 6.09403L24.6359 6.05082L24.8078 5.96438L24.9798 5.92116L25.1518 5.87795L25.3238 5.83473L25.4957 5.79151L25.6677 5.74829H25.8397L26.0117 5.70508H26.1836H26.3556H26.6566H26.9575L27.2155 5.74829L27.5164 5.83473L27.7744 5.87795L28.0324 5.96438L28.2903 6.05082L28.5913 6.13725L28.8492 6.2669L29.1072 6.39655L29.3652 6.52621L29.5801 6.69908L29.8381 6.87194L30.0961 7.0016L30.354 7.21768L30.569 7.39055L30.827 7.60664L31.0419 7.82273L31.2569 8.03881L31.5149 8.29812L31.7298 8.55742L31.9448 8.81672L32.1598 9.07603L32.3747 9.33533L32.5897 9.63785L32.8047 9.89715L32.9766 10.1997L33.1916 10.5454L33.4066 10.8479L33.5785 11.1505L33.7935 11.4962L33.9655 11.8419L34.1805 12.1877L34.3524 12.5334L34.5244 12.8791L34.6964 13.2249L34.8684 13.6138L35.0403 13.9596L35.2123 14.3485L35.3843 14.7375L35.5563 15.1264L35.7282 15.5154L35.8572 15.9044L36.0292 16.2933L36.2012 16.7255L36.3301 17.1144L36.5021 17.5034L36.6311 17.9356L36.7601 18.3677L36.8891 18.7567L37.018 19.1889L37.147 19.621L37.319 20.0532L37.405 20.4422L37.534 20.8743L37.6629 21.3065L37.7919 21.7387L37.9209 22.1709L38.0069 22.603L38.1359 22.992L38.2219 23.4242L38.3508 23.8563L38.4368 24.2885L38.5228 24.7207L38.6518 25.1096L38.7378 25.5418L38.8238 25.974L38.9098 26.3629L38.9957 26.7951L39.0817 27.1841L39.1677 27.6162L39.2537 28.0052L39.2967 28.3942L39.3827 28.7831L39.4687 29.2153L39.5547 29.6042L39.5977 29.95L39.6406 30.3389L39.7266 30.7279L39.7696 31.0736L39.8126 31.4626L39.8986 31.8083L39.9416 32.1541L39.9846 32.4998Z" fill="#F6B101"/>
<path d="M34.3105 53.3304V43.1743H74.3806V53.3304H34.3105Z" fill="#C22821"/>
<path d="M70.3379 43.9956H72.8745V52.3365H70.3379V43.9956Z" fill="white"/>
<path d="M82.1172 43.9956H83.837L83.2781 46.2429H82.0312L82.1172 43.9956Z" fill="white"/>
<path d="M86.8046 45.2051H87.3206L87.7935 45.2915L88.2664 45.3347L88.6964 45.4644L89.0833 45.6373L89.4273 45.8533L89.6852 46.1126L89.9002 46.4584L90.0292 46.8473L90.0722 47.2795H89.6852H88.8683H88.0515H87.6645L87.5785 46.8473L87.2776 46.5448L86.7617 46.4584L86.4177 46.5016L86.1597 46.7177L86.0308 47.1066L86.0738 47.4524L86.2887 47.6685L86.6327 47.7981L87.0626 47.8846L87.5355 47.971L88.0515 48.0574L88.5244 48.1439L89.0403 48.3599L89.4273 48.576L89.8142 48.8785L90.0722 49.2243L90.2441 49.6565L90.2871 50.0886V50.5208L90.2011 50.8665L90.0292 51.2123L89.8142 51.5148L89.5562 51.7741L89.2553 51.9902L88.8683 52.1631L88.4384 52.3359L87.9225 52.4224L87.4066 52.5088H86.8046H86.2027L85.6438 52.4224L85.1709 52.3359L84.7839 52.2063L84.44 51.9902L84.139 51.7741L83.9241 51.5148L83.7521 51.2123L83.6231 50.9098L83.5371 50.5208L83.4941 50.0886H83.8811H84.741H85.5578H85.9448L86.0738 50.6072L86.3747 50.9098L86.8046 51.0394L87.3206 50.953L87.6215 50.7369L87.7075 50.3912L87.6215 50.0454L87.3636 49.7861L86.9766 49.6132L86.5037 49.4836L86.0308 49.3972L85.5148 49.2675L85.0419 49.1811L84.655 49.0082L84.311 48.7489L84.0101 48.4032L83.8381 47.971L83.7521 47.3659L83.7951 47.1066L83.8811 46.8041L83.9671 46.5016L84.139 46.2423L84.397 45.983L84.698 45.7237L85.1279 45.5076L85.6008 45.3347L86.1597 45.2483L86.8046 45.2051Z" fill="white"/>
<path d="M35.1721 49.7861L35.0001 50.2183L34.8282 50.6505L34.6132 50.9962L34.3552 51.342L34.0543 51.6445L33.7103 51.9038L33.3664 52.1199L32.9794 52.2927L32.5495 52.4224L32.1196 52.5088H31.6466H31.2167L30.8297 52.4224L30.3998 52.2927L30.0559 52.1631L29.6689 51.947L29.368 51.7309L29.067 51.4716L28.809 51.1691L28.5941 50.8234L28.3791 50.4344L28.2501 50.0454L28.1211 49.6133L28.0352 49.1811V48.7057V48.2303L28.1211 47.7549L28.2071 47.3228L28.3791 46.9338L28.5511 46.5881L28.766 46.2423L29.024 45.9398L29.282 45.6373L29.6259 45.4212L29.9699 45.2051L30.3568 45.0755L30.7438 44.9458L31.2167 44.8594H31.6466H32.1625L32.5925 44.9458L33.0224 45.0755L33.4524 45.2483L33.7963 45.4644L34.1403 45.7237L34.3982 46.0262L34.6562 46.372L34.8711 46.7609L35.0431 47.1499L35.1721 47.5821H34.7852H33.9683H33.1944H32.8075L32.5925 47.1499L32.2055 46.8474L31.6466 46.7177L31.2167 46.8042L30.8727 47.0202L30.6148 47.366L30.4428 47.7981L30.3568 48.2303V48.7057V49.1379L30.4428 49.6133L30.6148 50.0022L30.8727 50.348L31.2167 50.6073L31.6466 50.6505L32.2055 50.5641L32.5495 50.2615L32.8075 49.7861H33.1944H33.9683H34.7852H35.1721Z" fill="white"/>
<path d="M17.7566 43.9956H20.7662L22.099 48.9224L23.3888 43.9956H26.3983L27.7312 52.5094H25.2375L24.5926 47.5394L23.2168 52.5094H20.9382L19.5624 47.5394L18.9175 52.5094H16.4238L17.7566 43.9956Z" fill="white"/>
<path d="M56.4077 48.2303V48.4896V49.0082V49.6565V50.3912V51.0827V51.7309V52.1631V52.336H53.9141V45.0322H56.4077V45.1619V45.4644V45.5941L56.7946 45.3348L57.1816 45.1187L57.6545 44.989L58.2134 44.9026L58.9013 44.8594L59.4172 44.9026L59.8902 45.0322L60.3201 45.2051L60.7071 45.4644L61.008 45.7237L61.223 46.0695L61.395 46.4152L61.4379 46.8042V46.8906V47.1931V47.6685V48.2303V48.8786V49.5701V50.2615V50.9098V51.4716V51.9038V52.2063V52.336H58.9443V52.1631V51.6877V51.0394V50.3048V49.5701V48.9218V48.4896V48.3168L58.8153 47.8414L58.5574 47.4524L58.1704 47.1931L57.6975 47.1067L56.9666 47.3228L56.5797 47.7549L56.4077 48.2303Z" fill="white"/>
<path d="M78.6357 45.7673V45.2919V44.4275V43.9521H81.1723V52.2931H78.6357V52.1634V51.9473V51.8609L78.2488 52.1634L77.6899 52.3795L76.787 52.466H76.486L76.1851 52.4227L75.8411 52.3363L75.4972 52.2067L75.1962 52.077L74.8953 51.8609L74.5943 51.6016L74.3364 51.2991L74.0784 50.9534L73.8634 50.5212L73.7345 50.0458L73.6485 49.484L73.6055 48.8357L73.6485 48.2307L73.7345 47.7121L73.8634 47.2367L74.0354 46.8045L74.2504 46.4588L74.5083 46.1562L74.7663 45.8969L75.0673 45.6808L75.3682 45.508L75.6692 45.3783L76.0131 45.2919L76.3141 45.2055L76.615 45.1622H76.916L77.7758 45.2487L78.3348 45.4648L78.6357 45.7673ZM76.0561 48.9221L76.0991 49.5704L76.2711 50.089L76.572 50.478L76.959 50.7373L77.4319 50.8237L77.9048 50.7373L78.3348 50.478L78.6357 50.089V49.7433V49.0086V48.2307V47.8849L78.3778 47.4528L77.9478 47.1502L77.3889 47.0206L76.959 47.107L76.572 47.3663L76.2711 47.7553L76.0991 48.2739L76.0561 48.9221Z" fill="white"/>
<path d="M45.5293 48.7069V48.2748L45.5723 47.8426L45.6583 47.4536L45.7873 47.0647L45.9592 46.7189L46.1742 46.3732L46.3892 46.0707L46.6471 45.8114L46.9481 45.5521L47.249 45.336L47.593 45.1631L47.9799 45.0335L48.3669 44.947L48.7968 44.9038H49.2697H49.7427L50.1726 44.947L50.6025 45.0335L50.9895 45.1631L51.3334 45.336L51.6774 45.5521L51.9783 45.8114L52.2363 46.0707L52.4943 46.3732L52.7092 46.7189L52.8812 47.0647L53.0102 47.4536L53.0962 47.8426L53.1392 48.2748V48.7069V49.1391L53.0962 49.5713L53.0102 49.9602L52.8812 50.3492L52.7092 50.6949L52.4943 51.0407L52.2363 51.3432L51.9783 51.6025L51.6774 51.8618L51.3334 52.0779L50.9895 52.2507L50.6025 52.3804L50.1726 52.4668L49.7427 52.51H49.2697H48.7968L48.3669 52.4668L47.9799 52.3804L47.593 52.2507L47.249 52.0779L46.9481 51.8618L46.6471 51.6025L46.3892 51.3432L46.1742 51.0407L45.9592 50.6949L45.7873 50.3492L45.6583 49.9602L45.5723 49.5713L45.5293 49.1391V48.7069ZM50.7745 48.7069L50.7315 48.2748L50.6455 47.7994L50.4736 47.3672L50.2156 47.0215L49.8287 46.7621L49.3127 46.6757L48.7968 46.7621L48.4099 47.0215L48.1519 47.3672L47.9799 47.7994L47.8939 48.2748L47.851 48.7069L47.8939 49.1391L47.9799 49.6145L48.1519 50.0467L48.4099 50.3924L48.7968 50.6517L49.3127 50.7381L49.8287 50.6517L50.2156 50.3924L50.4736 50.0467L50.6455 49.6145L50.7315 49.1391L50.7745 48.7069Z" fill="white"/>
<path d="M36.0273 43.9956H36.1563H36.5433H37.1022H37.8331H38.564H39.2519H39.8108H40.1977H40.3267H40.7996L41.2296 44.0388L41.6595 44.1253L42.0894 44.2549L42.4764 44.3846L42.8203 44.5574L43.1643 44.7735L43.4652 44.9896L43.7662 45.2489L44.0242 45.5514L44.2391 45.8539L44.4541 46.1997L44.6261 46.5886L44.755 46.9776L44.841 47.3666L44.884 47.7987V48.2309V48.6631L44.841 49.0952L44.755 49.4842L44.6261 49.8732L44.4541 50.2189L44.2391 50.5646L44.0242 50.8672L43.7662 51.1697L43.4652 51.429L43.1643 51.6451L42.8203 51.8612L42.4764 52.034L42.0894 52.1637L41.6595 52.2933L41.2296 52.3798L40.7996 52.423H40.3267H40.1977H39.8108H39.2519H38.564H37.8331H37.1452H36.5863H36.1993H36.0703V43.9956H36.0273ZM38.9079 50.5214H39.2519H39.8968H40.2407L40.6277 50.4782L41.0146 50.3485L41.3586 50.1325L41.6595 49.8299L41.9175 49.441L42.0894 48.9224L42.1324 48.2741L42.0894 47.6259L41.9175 47.1072L41.6595 46.7183L41.3586 46.4158L41.0146 46.1997L40.6277 46.07L40.2407 46.0268H39.8968H39.2519H38.9079V50.5214Z" fill="white"/>
<path d="M65.9553 44.8594H66.4712L66.9872 44.9026L67.4601 44.989L67.89 45.1187L68.277 45.2916L68.6209 45.5077L68.9219 45.767L69.1368 46.0695L69.2658 46.4584L69.3518 46.8474V46.977V47.3228V47.8414V48.4896V49.1811V49.9158V50.6073V51.2555V51.7742V52.1199V52.2495H66.8152V52.0767V51.7309V51.5581L66.4282 51.8606L66.0413 52.1199L65.6114 52.336L65.0954 52.4656L64.4935 52.5089L64.0206 52.4656L63.5907 52.336L63.2037 52.1199L62.8598 51.8606L62.5588 51.5149L62.3438 51.1259L62.2149 50.6937L62.1719 50.2616V49.959L62.2149 49.6565L62.3009 49.354L62.4298 49.0515L62.6018 48.7922L62.8598 48.5329L63.1607 48.3168L63.5477 48.1007L63.9776 47.9278L64.4935 47.7982L65.0954 47.7117L65.7833 47.6685L66.3852 47.5821L66.6862 47.3228L66.7722 46.977L66.6432 46.5881L66.2993 46.372L65.8693 46.2856L65.4394 46.3288L65.0954 46.5449L64.9665 46.9338H64.5795H63.7626H62.9458H62.5588V46.6313L62.6018 46.3288L62.7308 46.0263L62.9028 45.767L63.1177 45.5077L63.3757 45.2916L63.7196 45.0755L64.1496 44.9026L64.6655 44.773L65.2244 44.6865L65.9553 44.8594ZM65.7833 48.965L65.2244 49.0947L64.7945 49.3972L64.6225 49.9158L64.7085 50.2616L64.9665 50.5209L65.4394 50.6073L65.9983 50.4776L66.4712 50.1319L66.7292 49.5269V49.354V49.0515V48.8786L66.4712 48.9218H66.1273L65.7833 48.965Z" fill="white"/>
<path d="M77.9482 58.2562H78.3351H79.066H79.453L80.0979 58.3859L80.5278 58.7316L80.6998 59.207L80.5708 59.6392L80.2698 59.9417L79.8399 60.0713L80.3988 60.4171L80.6568 60.8925L80.6998 61.5407H80.5278H80.1839H80.0119L79.9259 60.8493L79.6249 60.4603L79.066 60.3307H78.937H78.6791H78.5501V61.5407H77.9482V58.2562ZM78.5931 59.8553H78.7651H79.109H79.281L79.7539 59.7688L80.0119 59.596L80.0979 59.2934L80.0119 59.0341L79.7969 58.8613L79.367 58.818H79.152H78.7651H78.5501V59.8553H78.5931ZM79.238 57.0894L79.7109 57.1326L80.1409 57.2622L80.5278 57.4351L80.9147 57.6512L81.2587 57.9537L81.5167 58.2994L81.7746 58.6884L81.9466 59.1206L82.0756 59.5527L82.1186 60.0281L82.0756 60.5035L81.9466 60.9357L81.7746 61.3246L81.5167 61.7136L81.2587 62.0593L80.9147 62.3619L80.5278 62.578L80.1409 62.7508L79.7109 62.8805L79.238 62.9237L78.7651 62.8805L78.3351 62.7508L77.9482 62.578L77.5612 62.3619L77.2173 62.0593L76.9163 61.7136L76.7014 61.3246L76.5294 60.9357L76.4004 60.5035L76.3574 60.0281L76.4004 59.5527L76.5294 59.1206L76.7014 58.6884L76.9163 58.2994L77.2173 57.9537L77.5612 57.6512L77.9482 57.4351L78.3351 57.2622L78.7651 57.1326L79.238 57.0894ZM79.238 62.4915L79.7109 62.4483L80.1409 62.3186L80.5278 62.1458L80.8718 61.8865L81.1727 61.584L81.4307 61.2382L81.6026 60.8493L81.7316 60.4171L81.7746 59.9417L81.7316 59.4663L81.6026 59.0341L81.4307 58.6452L81.1727 58.2994L80.8718 57.9969L80.5278 57.7376L80.1409 57.5647L79.7109 57.4351L79.238 57.3919L78.7651 57.4351L78.3351 57.5647L77.9482 57.7376L77.6042 57.9969L77.3033 58.2994L77.0453 58.6452L76.8733 59.0341L76.7444 59.4663L76.7014 59.9417L76.7444 60.4171L76.8733 60.8493L77.0453 61.2382L77.3033 61.584L77.6042 61.8865L77.9482 62.1458L78.3351 62.3186L78.7651 62.4483L79.238 62.4915Z" fill="#F6B101"/>
</svg>
