<svg width="220" height="72" viewBox="0 0 220 72" fill="none" xmlns="http://www.w3.org/2000/svg">
<g clip-path="url(#clip0_936_1591)">
<path d="M84.4823 62.4297C76.2961 57.1999 65.1863 56.2822 47.2695 61.212C28.1689 65.6634 21.8004 68.517 13.4368 62.7886C10.2237 59.9746 9.07176 55.4438 9.93196 48.9174C11.9271 38.2784 17.3187 28.0399 26.8959 16.683C32.2413 10.7752 37.2001 5.70517 43.7476 3.66926C48.7658 2.39208 48.2967 6.30326 47.6895 6.86263C47.0487 6.86263 45.9724 6.96272 45.1405 7.50108C44.4654 8.02036 42.6121 9.69708 42.5126 11.9525C42.369 15.4053 45.9718 14.6866 47.5258 12.7909C49.2009 10.6546 51.6764 6.56372 49.7291 2.75099C48.9129 1.3939 47.5027 0.455992 45.7518 0.136629C39.7563 -0.20319 34.1727 2.63127 29.0192 5.7649C17.7491 13.5292 8.73379 24.2877 3.63254 36.0641C0.691688 43.1694 -1.96811 53.3476 2.01856 61.6317C5.10296 67.3797 11.5058 70.4329 19.145 69.7944C24.5028 69.2362 30.9816 67.5188 35.3389 66.4819C39.6966 65.4431 62.0013 57.8394 69.33 71.0735C69.33 71.0735 71.7671 66.3818 77.8575 66.2817C82.8647 65.8235 90.0884 67.7193 95.3486 71.5508C93.596 68.937 88.6273 65.0847 84.4823 62.4297Z" fill="#E61A27"/>
<path d="M49.5457 18.02C45.374 15.3055 36.9892 20.495 30.2735 29.3965C24.1322 37.3812 21.4803 46.6613 24.3665 50.9526C28.6592 56.0022 36.629 48.6574 40.0181 44.726L40.4553 44.2664C42.7601 41.8114 44.5405 38.8572 46.2642 36.0224C46.2642 36.0224 47.8482 33.4277 47.9238 33.3077C48.9028 33.1288 50.082 32.8493 51.4108 32.4699C51.3918 32.5294 46.3269 40.9724 46.8436 45.1632C47.0045 46.4417 46.8818 51.1122 51.4795 52.529C57.6076 53.5476 62.501 48.8365 66.8179 44.645C66.8179 44.645 67.5536 43.9471 67.9696 43.5486C67.8643 43.9664 67.7271 44.5242 67.7271 44.5242C65.933 50.7118 68.3513 52.0103 69.8641 52.4892C74.436 53.8075 79.8978 47.2204 79.9156 47.2204C79.7737 49.2953 79.3598 51.0115 81.5653 52.3891C83.6468 53.1282 85.7536 52.0013 87.3552 50.9434C93.1233 46.9119 97.7703 40.6015 101.523 35.1473H99.1293C99.101 35.1473 93.2218 43.5985 89.4039 45.4354C89.3979 45.4354 88.703 45.7891 88.3028 45.5093C87.807 45.0901 88.0025 44.2182 88.3086 43.6007C88.3279 43.5606 103.05 18.2382 103.05 18.2382H96.0988C96.0988 18.2382 95.3396 19.4564 95.2777 19.5364C95.2309 19.4965 95.1196 19.2871 95.0425 19.1867C90.7361 13.2789 80.9837 22.3662 73.6415 32.9044C70.8148 36.9565 67.2159 41.519 63.4841 44.8122C63.4841 44.8122 57.9555 49.838 55.5935 46.2271C54.73 44.7099 54.9957 42.4918 55.4827 41.0352C58.233 33.2706 62.972 26.2242 68.3651 21.9726C69.8872 20.7958 71.5421 20.4554 72.363 20.9545C73.1457 21.4144 73.2719 22.5511 72.7769 23.3297C71.521 23.2899 70.5145 23.6684 69.6966 24.5068C68.0851 26.1835 67.5252 27.8005 68.0376 29.3177C70.5266 32.8304 75.4906 25.8844 75.2505 21.653C75.1647 20.1358 74.3488 18.6991 73.1306 17.9998C71.3153 16.9225 68.546 17.2015 66.7538 18.0604C64.3545 18.9582 60.557 22.0915 58.3402 24.527C55.5495 27.5813 50.7632 30.974 49.2666 30.5941C49.7558 29.2964 53.7986 21.0934 49.5457 18.02ZM83.0575 30.1553C84.4097 28.2994 88.3452 23.3292 89.3047 22.4911C92.5315 19.6757 93.8213 20.9144 93.9329 21.7921C90.9214 27.1411 87.367 33.269 84.0252 38.7781C84.0321 38.7584 82.9794 40.3547 82.9794 40.3547C81.5035 42.5894 80.0174 44.5059 77.5933 45.8428C77.2476 45.9434 76.6778 45.9835 76.2985 45.7029C75.842 45.4034 75.6619 44.9044 75.7134 44.3854C75.8588 42.6694 77.6205 37.421 83.0575 30.1553ZM45.2436 33.3685C45.2436 33.3685 45.1829 33.5488 45.1532 33.6077C45.1455 33.6077 42.1224 38.4972 42.1224 38.4972C40.298 40.9127 38.0202 43.9474 35.1729 45.4037C34.3289 45.683 33.1621 45.8633 32.5675 45.1253C31.3072 43.628 31.9567 41.552 32.4845 39.8758L32.6715 39.2769C34.1845 35.2056 36.585 31.6122 38.9219 28.2789C38.9511 28.2593 39.0165 28.2394 39.0402 28.2394C39.046 28.2593 39.0553 28.2593 39.0592 28.2994C40.5255 31.0932 43.2749 32.39 45.3311 32.9897C45.3435 32.9897 45.3569 33.0096 45.3569 33.0497C45.3572 33.1092 45.3237 33.1896 45.2436 33.3685ZM48.1075 27.6009C48.094 27.6407 46.7611 30.6745 46.7611 30.6745C46.5683 30.8341 46.2636 30.7544 45.9144 30.6745L45.316 30.5742C43.4369 29.9957 42.0195 28.7581 41.5826 27.2813C40.98 24.407 43.4559 22.1515 44.5465 21.3336C45.5932 20.6144 47.2203 20.2354 48.1652 20.9742C48.748 21.653 48.9688 22.5309 48.9688 23.4895C48.9691 24.7864 48.5653 26.2433 48.1075 27.6009ZM135.981 36.8614C135.311 35.4246 133.72 34.5064 132.024 34.6059C126.518 35.1053 121.132 39.596 118.304 46.0424C116.82 49.3561 116.01 52.0902 115.479 56.4413C117.191 54.4858 120.684 51.2725 124.647 49.5159C124.647 49.5159 125.186 45.3445 127.936 41.6319C128.977 40.0945 131.059 37.6198 133.398 38.2782C135.441 38.957 134.723 44.5659 132.007 49.9937C129.998 53.9862 126.924 57.9792 123.813 60.7329C121.062 63.0481 116.993 65.8424 113.433 63.6871C111.191 62.3704 110.047 59.615 110.289 56.0624C111.36 45.9833 115.987 37.4005 122.607 27.6205C129.434 18.539 136.959 9.21799 147.096 4.24726C149.164 3.20954 151.079 2.97008 152.734 3.60881C152.734 3.60881 143.218 8.79827 138.682 18.3991C137.528 20.8345 135.923 24.1269 137.539 27.0413C138.384 28.5579 139.883 28.6779 141.09 28.598C146.651 27.3203 150.243 22.1709 153.178 17.4609C154.88 13.8882 156.392 10.3354 156.392 6.38326C156.392 5.90436 156.367 5.2659 156.327 4.78645C158.983 3.38981 164.43 5.86426 164.43 5.86426C168.687 7.26199 177.751 14.1484 180.808 15.4651C182.299 13.7488 184.75 11.1544 186.131 9.85672L184.133 8.63899C180.934 6.7029 177.554 4.86635 174.227 3.05026C166.67 -1.04092 160.519 0.39581 157.388 1.51372C156.158 1.95254 155.034 2.3319 155.034 2.3319C152.711 -0.182918 148.9 0.0559915 146.093 0.735082C135.996 3.60908 126.622 10.6146 116.573 22.7704C109.184 32.2913 104.601 40.5148 102.158 48.638C100.275 54.1067 99.7027 62.1503 104.299 66.9208C108.206 70.9716 113.387 70.094 117.046 68.6376C124.973 64.7654 132.098 56.4219 135.648 46.8211C136.505 43.9673 137.456 39.9355 135.981 36.8614ZM154.21 6.78281C153.161 18.7187 143.805 25.7251 141.49 26.2831C140.088 26.5621 137.694 25.9438 139.831 20.9346C142.978 14.1876 148.35 8.45981 154.114 5.52554C154.255 6.02463 154.251 6.34317 154.21 6.78281ZM209.704 8.29917C204.672 11.1339 199.455 12.9696 193.141 12.3312C191.391 14.2877 189.687 16.3034 188.116 18.3789C196.979 20.6144 206.375 15.6445 211.616 10.9146C217.159 6.14408 220.002 0.136719 220.002 0.136719C220.002 0.136719 215.846 4.84672 209.704 8.29917ZM114.602 18.2387H108.001L104.278 24.2387H110.877L114.602 18.2387Z" fill="#E61A27"/>
<path d="M193.111 62.9854C192.401 63.4643 191.404 63.0962 191.776 61.9987C192.705 59.2043 196.397 53.5098 196.397 53.5098L206.681 35.4209H199.637C199.302 35.9663 198.586 37.2187 198.586 37.2187C198.261 36.6803 197.286 35.4833 196.885 35.2245C195.164 34.1459 192.639 34.6559 190.897 35.6336C183.324 40.0253 177.798 48.7022 173.44 55.4688C173.44 55.4688 168.853 62.9906 166.307 63.55C164.319 63.7098 164.524 61.054 164.61 60.4352C165.379 55.9635 167.164 51.7125 168.962 47.8603C172.62 45.3454 176.794 42.0523 180.588 38.4397C188.821 30.6348 195.762 21.7927 196.776 19.8168C196.776 19.8168 195.678 20.0366 194.381 20.0762C188.048 28.8383 175.086 41.5731 171.157 43.4688C172.898 39.3163 184.144 19.4972 193.715 10.0166L195.221 8.57907C197.55 6.32361 199.963 4.00843 201.843 3.62907C202.042 3.60916 202.298 3.62907 202.519 4.08889C202.602 5.84498 201.943 7.14261 201.187 8.61943L200.127 10.7753C200.127 10.7753 201.628 10.4958 202.615 10.1756C203.758 8.04098 205.026 5.64507 204.558 2.79152C204.403 1.87325 203.732 1.1748 202.856 1.01498C200.001 0.476068 196.89 2.57116 194.386 4.26834L194.285 4.3278C181.415 14.3276 170.547 28.7385 161.045 48.4188C160.356 48.937 157.696 49.5563 157.244 49.2566C158.182 47.341 159.363 44.7656 159.954 41.9713C160.057 41.1724 160.152 40.3548 160.152 39.5565C160.152 37.8386 159.736 36.2224 158.184 35.1053C156.365 34.207 154.116 34.6264 152.6 35.3044C145.808 38.0988 140.732 45.0053 137.069 50.6931C135.099 54.3067 133.134 58.177 132.591 62.6088C132.207 66.0812 132.987 68.317 134.978 69.4349C137.025 70.4721 139.602 69.394 140.614 68.8755C147.495 65.2826 152.303 58.0777 156.093 51.4908C156.243 51.4712 158.312 51.4117 159.878 51.0119C159.898 51.0119 159.907 51.0119 159.942 51.0326C159.852 51.331 159.043 53.7269 159.043 53.7269C156.641 60.712 155.531 65.4629 157.799 68.2769C161.041 72.2489 166.409 68.1378 170.775 62.7078C169.838 69.2143 173.238 70.2329 175.83 69.7343C178.808 68.9363 182.125 65.782 183.665 64.1658C183.171 66.0615 183.305 69.4553 186.014 69.7941C187.87 70.1344 189.259 69.133 190.867 68.2744C196.633 65.1604 203.536 54.784 205.328 51.784H202.978C200.431 55.603 197.189 60.6092 193.111 62.9854ZM141.351 62.2905C140.985 61.7513 140.864 61.1623 140.852 60.5252C140.781 56.6113 145.027 49.6027 148.024 45.7845H148.03C149.286 48.5118 152.13 50.2649 153.847 51.0037C151.715 55.7145 144.402 65.8033 141.351 62.2905ZM155.051 48.8977C154.848 49.0384 151.261 47.8401 150.568 44.5469C149.98 41.7116 151.949 39.4963 153.854 38.3797C154.671 37.7404 155.903 37.5217 156.806 37.8397C157.644 38.3996 157.872 39.3983 157.872 40.4743C157.872 41.1343 157.783 41.8123 157.705 42.4308L157.688 42.571C157.088 44.7838 156.201 46.9104 155.051 48.8977ZM183.815 61.0333C183.812 61.0333 183.134 61.6319 183.134 61.6319C182.167 62.4899 181.171 63.4079 179.969 62.9486C179.638 62.8292 179.404 62.3903 179.348 62.05C179.293 59.5949 180.408 57.3201 181.489 55.1047L181.766 54.5257C184.876 49.3763 188.491 43.3087 193.799 39.0978C194.694 38.4577 195.665 37.9199 196.689 38.3393C196.925 38.5586 197.199 38.938 197.199 39.3168C197.199 39.4371 197.091 39.7562 197.03 39.8557C195.547 42.232 194.135 44.7263 192.762 47.1214C190.078 51.8519 187.295 56.7411 183.815 61.0333Z" fill="#E61A27"/>
</g>
<defs>
<clipPath id="clip0_936_1591">
<rect width="220" height="72" fill="white"/>
</clipPath>
</defs>
</svg>
