<svg width="142" height="63" viewBox="0 0 142 63" fill="none" xmlns="http://www.w3.org/2000/svg">
<path fill-rule="evenodd" clip-rule="evenodd" d="M133.208 4.5H8.78906V58.4998H133.208V4.5Z" fill="#004587"/>
<path fill-rule="evenodd" clip-rule="evenodd" d="M18.6387 22.3271H27.7074L30.952 30.7711L34.3207 22.3271H43.3612V40.6932H38.4741V27.7674L33.8816 40.6932H27.922L23.4205 27.7674V40.6932H18.6387V22.3271Z" fill="#FFEC00"/>
<path fill-rule="evenodd" clip-rule="evenodd" d="M107.494 22.3154C105.508 22.3154 103.898 23.9245 103.898 25.9089V37.1465C103.898 39.1312 105.805 40.6771 107.79 40.6771H119.55C121.536 40.6771 123.358 39.068 123.358 37.0836V25.9089C123.358 23.9245 121.746 22.3154 119.76 22.3154H107.494ZM110.512 27.231H116.857C117.324 27.231 117.702 27.6088 117.702 28.0753V34.84C117.702 35.3064 117.324 35.6843 116.857 35.6843H110.512C110.044 35.6843 109.666 35.3067 109.666 34.84V28.0753C109.666 27.6088 110.045 27.231 110.512 27.231Z" fill="#FFEC00"/>
<path fill-rule="evenodd" clip-rule="evenodd" d="M46.252 22.3057H62.4032V26.1699H52.2741V29.3972H62.4032V33.2637H52.2741V36.6518H62.4032V40.672H46.252V22.3057Z" fill="#FFEC00"/>
<path fill-rule="evenodd" clip-rule="evenodd" d="M64.2051 22.3057H80.826V26.1699H75.5443V40.672H69.3165V26.1699H64.2051V22.3057Z" fill="#FFEC00"/>
<path fill-rule="evenodd" clip-rule="evenodd" d="M82.625 22.3057V40.6511H88.9137V33.5808H91.822L95.5175 40.6723H102.173C102.173 40.6723 98.3042 34.3296 97.8185 33.5973C98.1547 33.5973 99.6245 33.4994 100.484 32.8488C101.397 32.1586 101.96 31.1812 101.96 30.3119L101.993 26.1749C101.993 25.8136 101.855 24.5286 101.252 23.7403C100.498 22.7514 99.421 22.3062 98.4024 22.3062H82.625V22.3057ZM88.9137 26.2911H95.9732C96.0689 26.2911 96.3141 26.3377 96.41 26.3844C96.7791 26.5988 96.723 27.2985 96.723 27.949C96.723 28.3338 96.7299 29.2222 96.5593 29.3925C96.438 29.5371 96.0689 29.5675 95.8026 29.5675H88.9137V26.2911Z" fill="#FFEC00"/>
</svg>
