<svg width="132" height="41" viewBox="0 0 132 41" fill="none" xmlns="http://www.w3.org/2000/svg">
<g clip-path="url(#clip0_1374_1045)">
<path fill-rule="evenodd" clip-rule="evenodd" d="M32.4695 10.8343C32.321 10.9909 32.2383 11.1979 32.2383 11.4131C32.2383 11.6283 32.321 11.8353 32.4695 11.9919C32.627 12.1395 32.8353 12.2217 33.0518 12.2217C33.2683 12.2217 33.4766 12.1395 33.6342 11.9919C33.7827 11.8353 33.8654 11.6283 33.8654 11.4131C33.8654 11.1979 33.7827 10.9909 33.6342 10.8343C33.4766 10.6867 33.2683 10.6045 33.0518 10.6045C32.8353 10.6045 32.627 10.6867 32.4695 10.8343Z" fill="white"/>
<path fill-rule="evenodd" clip-rule="evenodd" d="M40.6548 10.3239H37.1274L36.2704 11.3795C36.1333 11.5158 36.1688 11.6853 36.3049 11.7197L37.4696 12.2303L40.7574 10.7326C40.9635 10.6307 40.8944 10.3239 40.6548 10.3239ZM27.5025 27.4808H23.1526C22.0225 28.1277 21.6803 28.3326 20.1045 28.9452C20.0019 28.9795 19.9674 29.0815 20.0019 29.252L23.9061 40.077H26.1328L22.5363 30.1361C24.8656 30.1361 30.4136 29.5235 33.3938 24.6903C32.5033 26.1194 30.3456 27.4808 27.5025 27.4808ZM33.6334 11.9921C33.4759 12.1398 33.2676 12.222 33.0511 12.222C32.8346 12.222 32.6263 12.1398 32.4688 11.9921C32.3203 11.8356 32.2376 11.6285 32.2376 11.4134C32.2376 11.1982 32.3203 10.9911 32.4688 10.8346C32.6263 10.6869 32.8346 10.6047 33.0511 10.6047C33.2676 10.6047 33.4759 10.6869 33.6334 10.8346C33.3007 10.5073 32.8516 10.3237 32.3835 10.3237C31.9154 10.3237 31.4662 10.5073 31.1336 10.8346C30.8043 11.1652 30.6196 11.6117 30.6196 12.0769C30.6196 12.5422 30.8043 12.9886 31.1336 13.3193C31.4662 13.6466 31.9154 13.8301 32.3835 13.8301C32.8516 13.8301 33.3007 13.6466 33.6334 13.3193C33.9627 12.9886 34.1474 12.5422 34.1474 12.0769C34.1474 11.6117 33.9627 11.1652 33.6334 10.8346C33.9421 11.1747 33.9421 11.6853 33.6334 11.9921ZM25.1052 31.6005C25.8586 31.4986 26.5775 31.3623 27.1949 31.1918L30.3801 40.0427H28.1534L25.1052 31.6005ZM28.1189 21.0813C25.3103 25.3029 21.0295 28.2983 14.0761 28.2983H4.45331C4.21368 28.2983 4.21368 28.0601 4.31624 27.9582L6.85064 25.4048C3.32319 25.4048 1.26805 23.3278 0.514636 21.0137C0.44559 20.8774 0.377559 20.6049 0.651713 20.6049H11.4402C12.5703 20.6049 13.3593 20.2648 14.0091 19.6865L22.6064 12.5714C19.3866 15.3287 15.0021 19.5836 11.0289 25.0304C10.9274 25.1666 11.0635 25.3705 11.2016 25.3705H16.3039C19.6607 25.3705 24.0106 24.7579 28.4966 20.0256C28.6002 19.9247 28.6682 19.9247 28.7708 19.958C28.5656 20.3324 28.3595 20.7069 28.1209 21.0813H28.1189Z" fill="#00985F"/>
<path fill-rule="evenodd" clip-rule="evenodd" d="M124.157 40.0428H132V15.908H124.157V24.759H116.759V15.908H108.881V40.0438H116.759V30.9547H124.157V40.0438V40.0428ZM31.1337 13.3194C30.8045 12.9887 30.6198 12.5422 30.6198 12.077C30.6198 11.6118 30.8045 11.1653 31.1337 10.8346C31.4664 10.5074 31.9156 10.3238 32.3837 10.3238C32.8517 10.3238 33.3009 10.5074 33.6336 10.8346C33.9626 11.1654 34.1471 11.6118 34.1471 12.077C34.1471 12.5422 33.9626 12.9886 33.6336 13.3194C33.3009 13.6466 32.8517 13.8302 32.3837 13.8302C31.9156 13.8302 31.4664 13.6466 31.1337 13.3194ZM33.4285 24.7237C36.4422 19.8895 37.4697 12.2647 37.4697 12.2647L36.3051 11.7541C36.168 11.7197 36.1 11.5492 36.2706 11.4129L37.1275 10.3583C36.5792 9.30263 34.6612 7.60006 31.8181 7.60006C30.1397 7.60006 28.6674 8.04311 27.3321 8.89389C27.3321 8.89389 25.413 10.1877 22.6055 12.6048C19.3857 15.3621 15.0013 19.618 11.0281 25.0648C10.9266 25.2343 11.0626 25.4049 11.2007 25.4049H16.303C19.6599 25.4049 24.0098 24.7923 28.4958 20.06C28.5993 19.9581 28.6674 19.9581 28.7699 19.9924C28.8725 20.06 28.8725 20.162 28.839 20.2649C28.119 21.9665 26.3726 25.4392 23.1193 27.5152H27.4682C30.3458 27.4809 32.5035 26.1194 33.4285 24.7237ZM29.0095 30.5449C32.6406 28.809 34.2154 27.1065 35.8603 23.7023C37.8464 28.7414 39.9696 34.2215 41.9222 40.0428H32.4009L29.0095 30.5459V30.5449ZM0 40.0428H9.62382L12.8781 29.9323H3.49292C2.39631 32.962 1.19815 36.2642 0 40.0428ZM13.0152 18.3585C12.5014 18.8005 11.8851 18.9034 11.1997 18.9034H7.29554C11.3012 9.30162 14.7282 2.22086 15.6522 0.31543H26.4416C26.8864 1.23383 27.8459 3.27752 29.2157 6.23961C27.0224 6.85121 25.3795 8.14504 22.707 10.324C22.1598 8.96151 21.646 7.703 21.0642 6.44348C19.9675 8.79196 18.8709 11.6178 17.8789 14.375L13.0152 18.3585ZM72.5066 37.3875L73.0214 40.0428H79.3919V15.908H71.5135V32.6572C70.8627 33.4747 69.4239 34.3245 68.2247 34.3245C66.0335 34.3245 64.8343 33.065 64.8343 30.8184V15.908H56.9935V32.6572C56.3427 33.4747 54.7668 34.3245 53.4651 34.3245C51.4445 34.3245 50.3143 33.065 50.3143 30.8184V15.908H42.4715V31.8398C42.4715 37.661 45.0059 40.5212 50.3143 40.5212C54.1505 40.5212 56.3762 39.1254 58.1582 37.2523C59.3563 39.4322 61.5831 40.5212 64.8364 40.5212C68.6725 40.5545 70.7967 39.193 72.5086 37.3885L72.5066 37.3875ZM97.4414 32.6562C96.7225 33.4737 95.5579 34.3235 93.6398 34.3235C91.5166 34.3235 90.352 32.3494 90.352 28.6052C90.352 23.9748 91.6192 21.6607 94.1536 21.6607C95.6259 21.6607 96.3803 21.7616 97.4414 22.0008V32.6562ZM91.0028 40.5535H91.2425C94.7354 40.5202 97.1672 39.3283 98.5025 37.3875L98.9147 40.0428H105.319V16.9284C102.751 16.1109 99.8052 15.4307 94.2906 15.4307C86.4478 15.4307 82.167 20.1963 82.167 28.911C82.167 36.9788 85.1806 40.5202 91.0028 40.5535Z" fill="#E0001A"/>
</g>
<defs>
<clipPath id="clip0_1374_1045">
<rect width="132" height="41" fill="white"/>
</clipPath>
</defs>
</svg>
