<svg width="147" height="112" viewBox="0 0 147 112" fill="none" xmlns="http://www.w3.org/2000/svg">
<path d="M7.49045 0L6.75478 0.0672268L6.08599 0.134454L5.48408 0.268908L4.88217 0.470588L4.28025 0.739496L3.74522 1.07563L3.14331 1.41176L2.67516 1.7479L2.20701 2.21849L1.73885 2.68908L1.40446 3.15966L1.07006 3.69748L0.735669 4.30252L0.468153 4.90756L0.267516 5.5126L0.133758 6.11765L0.0668789 6.78992L0 7.52941V7.59664V7.73109V7.79832V7.93277V8.13445V8.33613V8.53782V8.7395V9.0084V9.27731V9.61344V9.94958V10.2857V10.6891V11.0252V11.4286V11.8992V12.3025V12.7731V13.3109V13.7815V14.3193V14.8571V15.395V16V16.605V17.2101V17.8151V18.4874V19.1597V19.8319V20.5042V21.1765V21.916V22.6555V23.395V24.1345V24.9412V25.6807V26.4874V27.2941V28.1008V28.9748V29.7815V30.6555V31.4622V32.3361V33.2101V34.1513V35.0252V35.8992V36.8403V37.7143V38.6555V39.5966V40.5378V41.479V42.4202V43.3613V44.3025V45.2437V46.2521V47.1933V48.2017V49.1429V50.1513V51.0924V52.1008V53.042V54.0504V55.0588V56V57.0084V57.9496V58.958V59.8992V60.9076V61.916V62.8571V63.8655V64.8067V65.7479V66.7563V67.6975V68.6386V69.5798V70.521V71.5294V72.4034V73.3445V74.2857V75.2269V76.1008V76.9748V77.916V78.7899V79.6639V80.5378V81.3445V82.2185V83.0924V83.8992V84.7059V85.5126V86.3193V87.1261V87.8655V88.605V89.3445V90.084V90.8235V91.4958V92.2353V92.8403V93.5126V94.1849V94.7899V95.395V96V96.605V97.1429V97.6807V98.2185V98.7563V99.2269V99.6975V100.168V100.571V100.975V101.378V101.714V102.118V102.387V102.723V102.992V103.261V103.462V103.664V103.866V104.067V104.202V104.336V104.403V104.471V104.538L0.0668789 105.21L0.133758 105.882L0.267516 106.487L0.468153 107.092L0.735669 107.697L1.07006 108.303L1.40446 108.84L1.73885 109.311L2.20701 109.782L2.67516 110.252L3.14331 110.588L3.74522 110.992L4.28025 111.26L4.88217 111.529L5.48408 111.731L6.08599 111.866L6.75478 111.933L7.49045 112H7.55732H7.6242H7.69108H7.82484H7.89172H8.02548H8.22611H8.35987H8.56051H8.76115H9.02866H9.2293H9.49682H9.76433H10.0987H10.3662H10.7006H11.035H11.3694H11.7707H12.172H12.5732H12.9745H13.3758H13.8439H14.3121H14.7803H15.2484H15.7834H16.2516H16.7866H17.3217H17.8567H18.4586H19.0605H19.5955H20.1975H20.7994H21.4682H22.0701H22.7389H23.4076H24.0764H24.7452H25.414H26.1497H26.8185H27.5541H28.2898H29.0255H29.7611H30.5637H31.2994H32.1019H32.8376H33.6401H34.4427H35.2452H36.1147H36.9172H37.7197H38.5892H39.4586H40.2611H41.1306H42H42.8694H43.7389H44.6752H45.5446H46.414H47.3503H48.2197H49.1561H50.0924H51.0287H51.8981H52.8344H53.7707H54.707H55.6433H56.5796H57.5828H58.5191H59.4554H60.4586H61.3949H62.3312H63.3344H64.2707H65.2739H66.2102H67.2134H68.1497H69.1529H70.1561H71.0924H72.0955H73.0318H74.035H74.9713H75.9745H76.9108H77.914H78.9172H79.8535H80.8567H81.793H82.7962H83.7325H84.6688H85.672H86.6083H87.6115H88.5478H89.4841H90.4204H91.3567H92.3599H93.2962H94.2325H95.1019H96.0382H96.9745H97.9108H98.8471H99.7166H100.586H101.522H102.392H103.328H104.197H105.067H105.936H106.806H107.608H108.478H109.28H110.15H110.952H111.822H112.624H113.427H114.162H114.965H115.768H116.503H117.306H118.041H118.777H119.513H120.248H120.917H121.653H122.322H122.99H123.659H124.328H124.997H125.599H126.201H126.869H127.471H128.006H128.608H129.143H129.745H130.28H130.815H131.283H131.818H132.287H132.755H133.223H133.624H134.092H134.494H134.895H135.296H135.631H136.032H136.366H136.701H136.968H137.303H137.57H137.771H138.038H138.306H138.506H138.707H138.841H138.975H139.108H139.242H139.376H139.443H139.51H139.576L140.312 111.933L140.914 111.866L141.583 111.731L142.185 111.529L142.787 111.26L143.322 110.992L143.857 110.588L144.392 110.252L144.86 109.782L145.261 109.311L145.662 108.84L145.997 108.303L146.331 107.697L146.599 107.092L146.799 106.487L146.933 105.882L147 105.21V104.538V104.471V104.403V104.336V104.202V104.067V103.866V103.664V103.462V103.261V102.992V102.723V102.387V102.118V101.714V101.378V100.975V100.571V100.168V99.6975V99.2269V98.7563V98.2185V97.6807V97.1429V96.605V96V95.395V94.7899V94.1849V93.5126V92.8403V92.2353V91.4958V90.8235V90.084V89.3445V88.605V87.8655V87.1261V86.3193V85.5126V84.7059V83.8992V83.0924V82.2185V81.3445V80.5378V79.6639V78.7899V77.916V76.9748V76.1008V75.2269V74.2857V73.3445V72.4034V71.5294V70.521V69.5798V68.6386V67.6975V66.7563V65.7479V64.8067V63.8655V62.8571V61.916V60.9076V59.8992V58.958V57.9496V57.0084V56V55.0588V54.0504V53.042V52.1008V51.0924V50.1513V49.1429V48.2017V47.1933V46.2521V45.2437V44.3025V43.3613V42.4202V41.479V40.5378V39.5966V38.6555V37.7143V36.8403V35.8992V35.0252V34.1513V33.2101V32.3361V31.4622V30.6555V29.7815V28.9748V28.1008V27.2941V26.4874V25.6807V24.9412V24.1345V23.395V22.6555V21.916V21.1765V20.5042V19.8319V19.1597V18.4874V17.8151V17.2101V16.605V16V15.395V14.8571V14.3193V13.7815V13.3109V12.7731V12.3025V11.8992V11.4286V11.0252V10.6891V10.2857V9.94958V9.61344V9.27731V9.0084V8.7395V8.53782V8.33613V8.13445V7.93277V7.79832V7.73109V7.59664V7.52941V6.78992L146.933 6.11765L146.799 5.5126L146.599 4.90756L146.331 4.30252L145.997 3.69748L145.662 3.15966L145.261 2.68908L144.86 2.21849L144.392 1.7479L143.857 1.41176L143.322 1.07563L142.787 0.739496L142.185 0.470588L141.583 0.268908L140.914 0.134454L140.312 0.0672268L139.576 0H139.51H139.443H139.376H139.242H139.108H138.975H138.841H138.707H138.506H138.306H138.038H137.771H137.57H137.303H136.968H136.701H136.366H136.032H135.631H135.296H134.895H134.494H134.092H133.624H133.223H132.755H132.287H131.818H131.283H130.815H130.28H129.745H129.143H128.608H128.006H127.471H126.869H126.201H125.599H124.997H124.328H123.659H122.99H122.322H121.653H120.917H120.248H119.513H118.777H118.041H117.306H116.503H115.768H114.965H114.162H113.427H112.624H111.822H110.952H110.15H109.28H108.478H107.608H106.806H105.936H105.067H104.197H103.328H102.392H101.522H100.586H99.7166H98.8471H97.9108H96.9745H96.0382H95.1019H94.2325H93.2962H92.3599H91.3567H90.4204H89.4841H88.5478H87.6115H86.6083H85.672H84.6688H83.7325H82.7962H81.793H80.8567H79.8535H78.9172H77.914H76.9108H75.9745H74.9713H74.035H73.0318H72.0955H71.0924H70.1561H69.1529H68.1497H67.2134H66.2102H65.2739H64.2707H63.3344H62.3312H61.3949H60.4586H59.4554H58.5191H57.5828H56.5796H55.6433H54.707H53.7707H52.8344H51.8981H51.0287H50.0924H49.1561H48.2197H47.3503H46.414H45.5446H44.6752H43.7389H42.8694H42H41.1306H40.2611H39.4586H38.5892H37.7197H36.9172H36.1147H35.2452H34.4427H33.6401H32.8376H32.1019H31.2994H30.5637H29.7611H29.0255H28.2898H27.5541H26.8185H26.1497H25.414H24.7452H24.0764H23.4076H22.7389H22.0701H21.4682H20.7994H20.1975H19.5955H19.0605H18.4586H17.8567H17.3217H16.7866H16.2516H15.7834H15.2484H14.7803H14.3121H13.8439H13.3758H12.9745H12.5732H12.172H11.7707H11.3694H11.035H10.7006H10.3662H10.0987H9.76433H9.49682H9.2293H9.02866H8.76115H8.56051H8.35987H8.22611H8.02548H7.89172H7.82484H7.69108H7.6242H7.55732H7.49045Z" fill="#C22821"/>
<path d="M62.1996 50.5552L62.2664 50.0174L62.3333 49.4796L62.4002 48.9417L62.534 48.3367L62.6008 47.7989L62.6677 47.1938L62.8015 46.5888L62.8684 46.051L63.0021 45.4459L63.1359 44.7737L63.2027 44.1686L63.3365 43.5636L63.4703 42.9585L63.604 42.2863L63.7378 41.6812L63.8715 41.009L64.0053 40.4039L64.1391 39.7317L64.2728 39.0594L64.4066 38.4543L64.6072 37.7821L64.741 37.1098L64.8747 36.4375L65.0754 35.7653L65.2091 35.1602L65.4098 34.488L65.6104 33.8157L65.811 33.1434L65.9448 32.4711L66.1454 31.7989L66.3461 31.1938L66.5467 30.5216L66.7473 29.8493L67.0148 29.177L67.2155 28.572L67.4161 27.8997L67.6168 27.2275L67.8843 26.6224L68.0849 26.0174L68.3524 25.3451L68.5531 24.7401L68.8206 24.135L69.0881 23.53L69.3556 22.9249L69.5563 22.3199L69.8238 21.7148L70.0913 21.177L70.3588 20.572L70.6932 20.0342L70.9607 19.4964L71.2282 18.9585L71.4957 18.4207L71.8301 17.8829L72.0977 17.3451L72.432 16.8745L72.6996 16.4039L73.034 15.8661L73.3683 15.3955L73.7027 14.9922L74.0371 14.5216L74.3047 14.1182L74.6391 13.7148L75.0403 13.3115L75.3747 12.9081L75.7091 12.5048L76.0435 12.1686L76.4448 11.8325L76.8461 11.4964L77.1805 11.2275L77.5817 10.8913L77.9161 10.6896L78.3174 10.4207L78.7187 10.1518L79.1199 9.95014L79.5212 9.74846L79.9225 9.54678L80.3238 9.41233L80.725 9.27787L81.1932 9.14342L81.5945 9.07619L81.9957 8.94174L82.4639 8.87451H82.932H83.3333H83.6008H83.8683L84.1359 8.94174H84.4034L84.6709 9.00896L84.9384 9.07619L85.2059 9.14342L85.4734 9.21065L85.8078 9.27787L86.0754 9.41233L86.3429 9.47955L86.6104 9.61401L86.8779 9.74846L87.1454 9.88292L87.4129 10.0846L87.6805 10.219L87.948 10.3535L88.2155 10.5552L88.483 10.7569L88.7505 10.9585L89.018 11.1602L89.2855 11.3619L89.6199 11.6308L89.8875 11.8325L90.155 12.1014L90.4225 12.3031L90.69 12.572L90.9575 12.8409L91.225 13.177L91.4926 13.4459L91.7601 13.7148L92.0276 14.051L92.2951 14.3871L92.5626 14.656L92.8301 14.9922L93.1645 15.3283L93.3652 15.6644L93.6996 16.0678L93.9002 16.4039L94.1677 16.8073L94.5021 17.1434L94.7027 17.5468L95.0371 17.9501L95.3046 18.3535L95.5053 18.7569L95.7728 19.1602L96.0403 19.5636L96.3078 20.0342L96.5753 20.4375L96.8429 20.9081L97.1104 21.3787L97.3779 21.8493L97.6454 22.3199L97.9129 22.7233L98.1805 23.2611L98.448 23.7317L98.6486 24.2022L98.9161 24.7401L99.1836 25.2106L99.4511 25.7485L99.7187 26.2863L99.9193 26.7569L100.187 27.2947L100.454 27.8325L100.655 28.3703L100.922 28.9754L101.19 29.5132L101.391 30.051L101.658 30.5888L101.926 31.1938L102.193 31.7989L102.394 32.3367L102.661 32.9417L102.862 33.5468L103.129 34.1518L103.33 34.7569L103.598 35.3619L103.798 35.9669L103.999 36.572L104.266 37.177L104.467 37.8493L104.735 38.4543L104.935 39.1266L105.136 39.7317L105.403 40.4039L105.604 41.0762L105.805 41.6812L106.005 42.3535L106.273 43.0258L106.473 43.698L106.674 44.3703L106.875 45.0426L107.075 45.7148L107.276 46.3871L107.477 47.0594L107.677 47.7989L107.878 48.4711L108.079 49.1434L108.279 49.8829L108.48 50.5552L108.68 51.2947L108.881 51.967L109.015 52.7064L109.215 53.3787L109.416 54.1182L109.55 54.8577L109.751 55.53L109.951 56.2695L110.085 57.009L110.286 57.7485L110.419 58.488L110.62 59.2275L110.754 59.9669L110.954 60.7065L111.088 61.4459L111.222 62.1854L111.422 62.9249L111.556 63.6644L111.69 64.4039L111.824 65.1434L111.958 65.9501L112.091 66.6896L112.225 67.4291L112.359 68.1686L112.559 68.9081L112.626 69.7149L112.76 70.4543L112.894 71.2611L113.028 72.0006L113.161 72.7401L113.228 73.5468L113.362 74.2863L113.496 75.0258L113.563 75.8325L113.696 76.572L113.763 77.3787L113.897 78.1182L113.964 78.8577L114.098 79.6644L114.165 80.4039L114.231 81.2107L114.365 81.9501L114.432 82.7569L114.499 83.4964L114.566 84.3031L114.633 85.0426L114.7 85.7821L114.766 86.5888L114.833 87.3283L114.9 88.135V88.8745L114.967 89.614L115.034 90.4207V91.1602L115.101 91.8997L115.168 92.7064V93.4459V94.1854L115.235 94.9922V95.7317V96.4712V97.2107L115.301 97.9501V98.7569V99.4964H115.168H114.833H114.365H113.763H112.961H112.091H111.155H110.085H109.015H108.012H106.942H105.938H104.935H104.066H103.263H102.661H102.193H101.859H101.725V98.5552V97.614V96.6728V95.7317V94.7905L101.658 93.8493V92.9754V92.0342L101.591 91.093V90.2191L101.524 89.2779V88.3367L101.458 87.4628V86.5216L101.391 85.6476L101.324 84.7065L101.257 83.8325V82.9585L101.19 82.0174L101.123 81.1434L101.056 80.2022L100.989 79.3283L100.922 78.4543L100.856 77.5804L100.789 76.7064L100.722 75.8325L100.655 74.9585L100.588 74.0846L100.454 73.2106L100.387 72.3367L100.321 71.53L100.187 70.656L100.12 69.7821L100.053 68.9081L99.9193 68.1014L99.8524 67.2947L99.7187 66.4207L99.6518 65.614L99.518 64.8073L99.4511 63.9333L99.3174 63.1266L99.1836 62.3199L99.1168 61.5132L98.983 60.7065L98.8492 59.8997L98.7155 59.093L98.6486 58.3535L98.5148 57.5468L98.3811 56.7401L98.2473 56.0006L98.1136 55.2611L97.9798 54.5216L97.8461 53.7148L97.7123 52.9754L97.5785 52.2359L97.4448 51.4964L97.311 50.7569L97.1773 50.0174L97.0435 49.2779L96.9097 48.6056L96.776 47.8661L96.6422 47.1938L96.4416 46.4543L96.3078 45.7821L96.1741 45.1098L96.0403 44.4375L95.8397 43.7653L95.7059 43.093L95.5722 42.4207L95.3715 41.7485L95.2378 41.1434L95.104 40.4711L94.9034 39.8661L94.7696 39.2611L94.6359 38.5888L94.4352 37.9838L94.3015 37.3787L94.1008 36.7737L93.9671 36.2359L93.7664 35.6308L93.6327 35.093L93.432 34.488L93.2983 33.9501L93.0976 33.4123L92.9639 32.8745L92.7633 32.3367L92.6295 31.7989L92.4289 31.2611L92.2282 30.7905L92.0945 30.2527L91.8938 29.7821L91.7601 29.3115L91.5594 28.8409L91.3588 28.3703L91.225 27.8997L91.0244 27.4291L90.8906 27.0258L90.69 26.5552L90.4894 26.1518L90.3556 25.7485L90.155 25.3451L89.9543 24.9417L89.8206 24.5384L89.6199 24.2022L89.4193 23.8661L89.2855 23.4627L89.0849 23.1266L88.8843 22.7905L88.7505 22.4543L88.5499 22.1182L88.3492 21.8493L88.2155 21.5132L88.0149 21.2443L87.8142 20.9754L87.6805 20.7064L87.4798 20.4375L87.2792 20.2359L87.1454 19.9669L86.9448 19.7653L86.811 19.5636L86.6104 19.3619L86.4098 19.1602L86.276 18.9585L86.0754 18.8241L85.8747 18.6224L85.741 18.488L85.5403 18.3535L85.4066 18.219L85.2059 18.1518L85.0722 18.0174L84.8715 17.9501L84.6709 17.8829L84.5371 17.8157L84.3365 17.7485L84.2027 17.6812H84.069H83.8683L83.6677 17.614L83.534 17.6812H83.3333H83.1327L82.9989 17.7485H82.7983L82.5976 17.8157L82.4639 17.8829L82.2633 17.9501L82.0626 18.0174L81.9289 18.1518L81.7282 18.219L81.5276 18.3535L81.3938 18.4207L81.1932 18.5552L80.9926 18.6896L80.8588 18.8241L80.6582 18.9585L80.5244 19.1602L80.3238 19.3619L80.19 19.4964L79.9894 19.698L79.7887 19.8997L79.655 20.1014L79.4543 20.3703L79.3206 20.572L79.1199 20.7737L78.9862 21.0426L78.7856 21.3115L78.6518 21.5804L78.4512 21.8493L78.3174 22.1182L78.1836 22.3871L77.983 22.7233L77.8492 22.9922L77.6486 23.3283L77.5148 23.6644L77.3811 24.0006L77.1805 24.3367L77.0467 24.6728L76.9129 25.0762L76.7123 25.4796L76.5785 25.8157L76.4448 26.219L76.2441 26.6224L76.1104 27.0258L75.9766 27.4291L75.8429 27.8997L75.6422 28.3031L75.5085 28.7737L75.3747 29.2443L75.241 29.6476L75.1072 30.1854L74.9734 30.656L74.8397 31.1266L74.7059 31.5972L74.5722 32.135L74.4384 32.6728L74.3047 33.2106L74.1709 33.7485L74.0371 34.2863L73.9034 34.8241L73.7696 35.3619L73.6359 35.9669L73.5021 36.5048L73.3683 37.1098L73.2346 37.7148L73.1008 38.3199L73.034 38.9249L72.9002 39.5972L72.7664 40.2022L72.6327 40.8745L72.5658 41.4796L72.432 42.1518L72.2983 42.8241L72.2314 43.4964L72.0977 44.2359L71.9639 44.9081L71.897 45.5804L71.7633 46.3199L71.6964 47.0594L71.5626 47.7989L71.4957 48.5384L71.362 49.2779L71.2951 50.0174L71.1613 50.7569L71.0945 51.5636L71.0276 52.3703L70.8938 53.1098L70.827 53.9165L70.7601 54.7233L70.6263 55.5972L70.5594 56.4039L70.4926 57.2106L70.4257 58.0846L70.3588 58.8913L70.225 59.7653L70.1582 60.6392L70.0913 61.5132L70.0244 62.4543L69.9575 63.3283L69.8906 64.2022L69.8238 65.1434L69.7569 66.0846V67.0258L69.69 67.9669L69.6231 68.9081L69.5563 69.8493L69.4894 70.8577V71.7989L69.4225 72.8073L69.3556 73.8157V74.7569L69.2887 75.8325L69.2219 76.8409V77.8493L69.155 78.8577V79.9333V81.009L69.0881 82.0174V83.093L69.0212 84.1686V85.3115V86.3871L68.9543 87.4628V88.6056V89.6812V90.8241V91.967V93.1098V94.2527H68.8206H68.5531H68.018H67.4161H66.6136H65.7442H64.8078H63.8047H62.7346H61.6645H60.5945H59.5913H58.5881H57.7187H56.983H56.3142H55.8461H55.5117H55.4448V93.1098V91.967L55.3779 90.8241V89.6812V88.6056V87.4628V86.3871V85.3115L55.311 84.1686V83.093V82.0174L55.2441 81.009V79.9333L55.1773 78.8577V77.8493L55.1104 76.8409V75.8325L55.0435 74.7569V73.8157L54.9766 72.8073L54.9098 71.7989L54.8429 70.8577V69.8493L54.776 68.9081L54.7091 67.9669L54.6422 67.0258L54.5754 66.0846L54.5085 65.1434L54.4416 64.2022L54.3747 63.3283L54.3078 62.4543L54.241 61.5132L54.1741 60.6392L54.1072 59.7653L54.0403 58.8913L53.9734 58.0846L53.9066 57.2106L53.8397 56.4039L53.7059 55.5972L53.6391 54.7233L53.5722 53.9165L53.4384 53.1098L53.3715 52.3703L53.3047 51.5636L53.2378 50.7569L53.104 50.0174L53.0371 49.2779L52.9034 48.5384L52.8365 47.7989L52.7028 47.0594L52.6359 46.3199L52.5021 45.5804L52.4352 44.9081L52.3015 44.2359L52.1677 43.4964L52.034 42.8241L51.9671 42.1518L51.8333 41.4796L51.6996 40.8745L51.6327 40.2022L51.4989 39.5972L51.3652 38.9249L51.2314 38.3199L51.0977 37.7148L51.0308 37.1098L50.897 36.5048L50.7633 35.9669L50.6295 35.3619L50.4957 34.8241L50.362 34.2863L50.2282 33.7485L50.0945 33.2106L49.9607 32.6728L49.827 32.135L49.6932 31.5972L49.5594 31.1266L49.4257 30.656L49.2919 30.1854L49.0913 29.6476L48.9575 29.2443L48.8238 28.7737L48.69 28.3031L48.5563 27.8997L48.4225 27.4291L48.2219 27.0258L48.0881 26.6224L47.9543 26.219L47.8206 25.8157L47.6199 25.4796L47.4862 25.0762L47.3524 24.6728L47.1518 24.3367L47.018 24.0006L46.8843 23.6644L46.6836 23.3283L46.5499 22.9922L46.3492 22.7233L46.2155 22.3871L46.0817 22.1182L45.8811 21.8493L45.7473 21.5804L45.5467 21.3115L45.4129 21.0426L45.2123 20.7737L45.0785 20.572L44.8779 20.3703L44.7442 20.1014L44.5435 19.8997L44.4098 19.698L44.2091 19.4964L44.0085 19.3619L43.8747 19.1602L43.6741 18.9585L43.5403 18.8241L43.3397 18.6896L43.1391 18.5552L43.0053 18.4207L42.8047 18.3535L42.6709 18.219L42.4703 18.1518L42.2696 18.0174L42.069 17.9501L41.9352 17.8829L41.7346 17.8157L41.534 17.7485H41.4002L41.1996 17.6812H40.9989H40.8652L40.6645 17.614L40.4639 17.6812H40.3301H40.1295L39.9957 17.7485L39.7951 17.8157L39.6614 17.8829L39.4607 17.9501L39.327 18.0174L39.1263 18.1518L38.9926 18.219L38.7919 18.3535L38.6582 18.488L38.4575 18.6224L38.2569 18.8241L38.1231 18.9585L37.9225 19.1602L37.7219 19.3619L37.5881 19.5636L37.3875 19.7653L37.2537 19.9669L37.0531 20.2359L36.8524 20.4375L36.7187 20.7064L36.518 20.9754L36.3174 21.2443L36.1836 21.5132L35.983 21.8493L35.7824 22.1182L35.6486 22.4543L35.448 22.7905L35.3142 23.1266L35.1136 23.4627L34.9129 23.8661L34.7792 24.2022L34.5785 24.5384L34.3779 24.9417L34.1773 25.3451L34.0435 25.7485L33.8429 26.1518L33.7091 26.5552L33.5085 27.0258L33.3078 27.4291L33.1741 27.8997L32.9734 28.3703L32.7728 28.8409L32.6391 29.3115L32.4384 29.7821L32.3047 30.2527L32.104 30.7905L31.9703 31.2611L31.7696 31.7989L31.6359 32.3367L31.4352 32.8745L31.2346 33.4123L31.1008 33.9501L30.9002 34.488L30.7664 35.093L30.5658 35.6308L30.432 36.2359L30.2314 36.8409L30.0977 37.3787L29.897 37.9838L29.7633 38.5888L29.6295 39.2611L29.4289 39.8661L29.2951 40.4711L29.0945 41.1434L28.9607 41.7485L28.827 42.4207L28.6932 43.093L28.4926 43.7653L28.3588 44.4375L28.225 45.1098L28.0913 45.7821L27.8906 46.4543L27.7569 47.1938L27.6231 47.8661L27.4894 48.6056L27.3556 49.3451L27.2219 50.0174L27.0881 50.7569L26.8875 51.4964L26.7537 52.2359L26.6199 52.9754L26.5531 53.7148L26.3524 54.5216L26.2856 55.2611L26.1518 56.0006L26.018 56.8073L25.8843 57.5468L25.7505 58.3535L25.6168 59.093L25.5499 59.8997L25.4161 60.7065L25.2824 61.5132L25.1486 62.3199L25.0817 63.1266L24.948 63.9333L24.8142 64.8073L24.7473 65.614L24.6136 66.4207L24.5467 67.2947L24.4129 68.1014L24.3461 68.9081L24.2792 69.7821L24.1454 70.656L24.0785 71.53L23.9448 72.3367L23.8779 73.2106L23.811 74.0846L23.7442 74.9585L23.6773 75.8325L23.6104 76.7064L23.5435 77.5804L23.4766 78.4543L23.4098 79.3283L23.3429 80.2022L23.276 81.1434L23.2091 82.0174L23.1422 82.9585L23.0754 83.8325L23.0085 84.7065V85.6476L22.9416 86.5216L22.8747 87.4628V88.3367L22.8078 89.2779V90.2191L22.741 91.093V92.0342V92.9754L22.6741 93.8493V94.7905V95.7317V96.6728L22.6072 97.614V98.5552V99.4964H22.5403H22.2059H21.7378H21.069H20.3333H19.4639H18.4607H17.4575H16.3875H15.3174H14.2473H13.2442H12.3078H11.4384H10.6359H10.034H9.49893H9.23141H9.09766V98.7569V97.9501V97.2107V96.4712L9.16454 95.7317V94.9922V94.1854L9.23141 93.4459V92.7064L9.29829 91.8997V91.1602L9.36517 90.4207L9.43205 89.614V88.8745L9.49893 88.0678L9.56581 87.3283L9.63269 86.5888L9.69957 85.7821L9.76645 85.0426L9.83333 84.2359L9.9002 83.4964L9.96708 82.7569L10.034 81.9501L10.1677 81.2107L10.2346 80.4039L10.3015 79.6644L10.4352 78.8577L10.5021 78.1182L10.569 77.3115L10.7028 76.572L10.7696 75.8325L10.9034 75.0258L10.9703 74.2863L11.104 73.4796L11.2378 72.7401L11.3715 72.0006L11.5053 71.1938L11.5722 70.4543L11.7059 69.7149L11.8397 68.9081L11.9735 68.1686L12.1072 67.4291L12.241 66.6896L12.3747 65.8829L12.5754 65.1434L12.7091 64.4039L12.8429 63.6644L12.9766 62.9249L13.1773 62.1854L13.311 61.4459L13.4448 60.6392L13.6454 59.8997L13.7792 59.1602L13.9798 58.488L14.1136 57.6812L14.3142 57.009L14.448 56.2695L14.6486 55.53L14.7824 54.8577L14.983 54.1182L15.1836 53.3787L15.3174 52.7064L15.518 51.967L15.7187 51.2275L15.9193 50.5552L16.1199 49.8157L16.3206 49.1434L16.5212 48.4711L16.7219 47.7317L16.9225 47.0594L17.1231 46.3871L17.3238 45.7148L17.5244 45.0426L17.725 44.3703L17.9257 43.698L18.1263 43.0258L18.327 42.3535L18.5945 41.6812L18.7951 41.009L18.9957 40.4039L19.1964 39.7317L19.4639 39.1266L19.6645 38.4543L19.8652 37.8493L20.1327 37.177L20.3333 36.572L20.6008 35.9669L20.8015 35.3619L21.0021 34.7569L21.2696 34.1518L21.5371 33.5468L21.7378 32.9417L22.0053 32.3367L22.2059 31.7989L22.4734 31.1938L22.6741 30.5888L22.9416 30.051L23.2091 29.5132L23.4098 28.9081L23.6773 28.3703L23.9448 27.8325L24.1454 27.2947L24.4129 26.7569L24.6805 26.2863L24.948 25.7485L25.2155 25.2106L25.4161 24.6728L25.6836 24.2022L25.9512 23.7317L26.2187 23.2611L26.4862 22.7233L26.7537 22.2527L27.0212 21.7821L27.2887 21.3787L27.4894 20.9081L27.7569 20.4375L28.0244 20.0342L28.2919 19.5636L28.5594 19.1602L28.827 18.7569L29.0945 18.3535L29.362 17.9501L29.6295 17.5468L29.897 17.1434L30.1645 16.8073L30.432 16.4039L30.6996 16.0678L30.9671 15.6644L31.2346 15.3283L31.5021 14.9922L31.7696 14.656L32.0371 14.3199L32.3047 14.051L32.6391 13.7148L32.8397 13.4459L33.1741 13.177L33.4416 12.8409L33.7091 12.572L33.9766 12.3031L34.2442 12.1014L34.5117 11.8325L34.7792 11.6308L35.0467 11.3619L35.3142 11.1602L35.5817 10.9585L35.8492 10.7569L36.1168 10.5552L36.4512 10.3535L36.7187 10.219L36.9862 10.0846L37.2537 9.88292L37.5212 9.74846L37.7887 9.61401L38.0563 9.47955L38.3238 9.41233L38.5913 9.27787L38.8588 9.21065L39.1263 9.14342L39.3938 9.07619L39.6614 9.00896L39.9289 8.94174H40.1964L40.4639 8.87451H40.7314H40.9989H41.4671H41.9352L42.3365 8.94174L42.8047 9.07619L43.2059 9.14342L43.6072 9.27787L44.0085 9.41233L44.4766 9.54678L44.8779 9.74846L45.2792 9.95014L45.6805 10.1518L46.0149 10.4207L46.4161 10.6896L46.8174 10.8913L47.2187 11.2275L47.5531 11.4964L47.9543 11.8325L48.2887 12.1686L48.6231 12.5048L49.0244 12.9081L49.3588 13.3115L49.6932 13.7148L50.0276 14.1182L50.362 14.5216L50.6964 14.9922L51.0308 15.3955L51.2983 15.8661L51.6327 16.4039L51.9671 16.8745L52.2346 17.3451L52.569 17.8829L52.8365 18.4207L53.1709 18.9585L53.4384 19.4964L53.7059 20.0342L53.9734 20.572L54.241 21.177L54.5085 21.7148L54.776 22.3199L55.0435 22.9249L55.311 23.53L55.5785 24.135L55.7792 24.7401L56.0467 25.3451L56.3142 26.0174L56.5149 26.6224L56.7824 27.2275L56.983 27.8997L57.1836 28.572L57.3843 29.177L57.5849 29.8493L57.7856 30.5216L58.0531 31.1938L58.1868 31.7989L58.3875 32.4711L58.5881 33.1434L58.7887 33.8157L58.9894 34.488L59.1231 35.1602L59.3238 35.7653L59.4575 36.4375L59.6582 37.1098L59.7919 37.7821L59.9257 38.4543L60.1263 39.0594L60.2601 39.7317L60.3938 40.4039L60.5276 41.009L60.6613 41.6812L60.7951 42.2863L60.9289 42.9585L61.0626 43.5636L61.1295 44.1686L61.2633 44.7737L61.397 45.4459L61.5308 46.051L61.5977 46.5888L61.6645 47.1938L61.7983 47.7989L61.8652 48.3367L61.932 48.9417L62.0658 49.4796L62.1327 50.0174L62.1996 50.5552Z" fill="#F6B101"/>
<path d="M53.3711 82.9585V67.1602H115.702V82.9585H53.3711Z" fill="#C22821"/>
<path d="M109.414 68.4375H113.36V81.4123H109.414V68.4375Z" fill="white"/>
<path d="M127.739 68.4375H130.414L129.545 71.9333H127.605L127.739 68.4375Z" fill="white"/>
<path d="M135.029 70.3188H135.831L136.567 70.4533L137.302 70.5205L137.971 70.7222L138.573 70.9911L139.108 71.3273L139.509 71.7306L139.844 72.2684L140.045 72.8735L140.111 73.5457H139.509H138.239H136.968H136.366L136.232 72.8735L135.764 72.4029L134.962 72.2684L134.427 72.3357L134.025 72.6718L133.825 73.2768L133.892 73.8146L134.226 74.1508L134.761 74.3525L135.43 74.4869L136.166 74.6214L136.968 74.7558L137.704 74.8903L138.506 75.2264L139.108 75.5625L139.71 76.0331L140.111 76.571L140.379 77.2432L140.446 77.9155V78.5878L140.312 79.1256L140.045 79.6634L139.71 80.134L139.309 80.5373L138.841 80.8735L138.239 81.1424L137.57 81.4113L136.767 81.5457L135.965 81.6802H135.029H134.092L133.223 81.5457L132.487 81.4113L131.885 81.2096L131.35 80.8735L130.882 80.5373L130.548 80.134L130.28 79.6634L130.08 79.1928L129.946 78.5878L129.879 77.9155H130.481H131.818H133.089H133.691L133.892 78.7222L134.36 79.1928L135.029 79.3945L135.831 79.26L136.299 78.9239L136.433 78.3861L136.299 77.8483L135.898 77.4449L135.296 77.176L134.56 76.9743L133.825 76.8399L133.022 76.6382L132.287 76.5037L131.685 76.2348L131.15 75.8315L130.681 75.2936L130.414 74.6214L130.28 73.6802L130.347 73.2768L130.481 72.8062L130.615 72.3357L130.882 71.9323L131.283 71.5289L131.752 71.1256L132.42 70.7894L133.156 70.5205L134.025 70.3861L135.029 70.3188Z" fill="white"/>
<path d="M54.7113 77.4451L54.4438 78.1174L54.1763 78.7896L53.8419 79.3275L53.4406 79.8653L52.9724 80.3359L52.4374 80.7392L51.9024 81.0754L51.3005 81.3443L50.6317 81.546L49.9629 81.6804H49.2272H48.5584L47.9565 81.546L47.2877 81.3443L46.7527 81.1426L46.1508 80.8065L45.6826 80.4703L45.2145 80.067L44.8132 79.5964L44.4788 79.0586L44.1444 78.4535L43.9438 77.8485L43.7431 77.1762L43.6094 76.5039V75.7644V75.0249L43.7431 74.2854L43.8769 73.6132L44.1444 73.0081L44.4119 72.4703L44.7463 71.9325L45.1476 71.4619L45.5489 70.9913L46.0839 70.6552L46.6189 70.3191L47.2208 70.1174L47.8228 69.9157L48.5584 69.7812H49.2272H50.0298L50.6986 69.9157L51.3673 70.1174L52.0361 70.3863L52.5712 70.7224L53.1062 71.1258L53.5075 71.5964L53.9087 72.1342L54.2431 72.7392L54.5107 73.3443L54.7113 74.0165H54.1094H52.8387H51.6349H51.0329L50.6986 73.3443L50.0966 72.8737L49.2272 72.672L48.5584 72.8065L48.0234 73.1426L47.6221 73.6804L47.3546 74.3527L47.2208 75.0249V75.7644V76.4367L47.3546 77.1762L47.6221 77.7812L48.0234 78.3191L48.5584 78.7224L49.2272 78.7896L50.0966 78.6552L50.6317 78.1846L51.0329 77.4451H51.6349H52.8387H54.1094H54.7113Z" fill="white"/>
<path d="M27.6201 68.4375H32.3016L34.3749 76.1014L36.3813 68.4375H41.0628L43.136 81.6812H39.2571L38.2539 73.9501L36.1138 81.6812H32.5692L30.429 73.9501L29.4259 81.6812H25.5469L27.6201 68.4375Z" fill="white"/>
<path d="M87.7462 75.0249V75.4283V76.235V77.2434V78.3863V79.4619V80.4703V81.1426V81.4115H83.8672V70.0502H87.7462V70.2518V70.7224V70.9241L88.3481 70.5207L88.95 70.1846L89.6857 69.9829L90.5551 69.8485L91.6252 69.7812L92.4277 69.8485L93.1634 70.0502L93.8322 70.3191L94.4341 70.7224L94.9022 71.1258L95.2366 71.6636L95.5041 72.2014L95.571 72.8065V72.9409V73.4115V74.151V75.0249V76.0333V77.109V78.1846V79.193V80.067V80.7392V81.2098V81.4115H91.692V81.1426V80.4031V79.3947V78.2518V77.109V76.1006V75.4283V75.1594L91.4914 74.4199L91.0901 73.8149L90.4882 73.4115L89.7525 73.277L88.6156 73.6132L88.0137 74.2854L87.7462 75.0249Z" fill="white"/>
<path d="M122.321 71.1932V70.4537V69.1091V68.3696H126.267V81.3444H122.321V81.1427V80.8066V80.6722L121.719 81.1427L120.85 81.4789L119.445 81.6133H118.977L118.509 81.5461L117.974 81.4116L117.439 81.21L116.971 81.0083L116.502 80.6722L116.034 80.2688L115.633 79.7982L115.232 79.2604L114.897 78.5881L114.697 77.8486L114.563 76.9747L114.496 75.9663L114.563 75.0251L114.697 74.2184L114.897 73.4789L115.165 72.8066L115.499 72.2688L115.901 71.7982L116.302 71.3948L116.77 71.0587L117.238 70.7898L117.706 70.5881L118.241 70.4537L118.709 70.3192L119.178 70.252H119.646L120.983 70.3864L121.853 70.7226L122.321 71.1932ZM118.308 76.1007L118.375 77.1091L118.643 77.9158L119.111 78.5209L119.713 78.9243L120.448 79.0587L121.184 78.9243L121.853 78.5209L122.321 77.9158V77.378V76.2352V75.0251V74.4873L121.92 73.815L121.251 73.3444L120.381 73.1427L119.713 73.2772L119.111 73.6806L118.643 74.2856L118.375 75.0923L118.308 76.1007Z" fill="white"/>
<path d="M70.8242 75.7661V75.0938L70.8911 74.4215L71.0249 73.8165L71.2255 73.2114L71.493 72.6736L71.8274 72.1358L72.1618 71.6652L72.5631 71.2619L73.0312 70.8585L73.4994 70.5224L74.0344 70.2535L74.6363 70.0518L75.2382 69.9173L75.907 69.8501H76.6427H77.3784L78.0471 69.9173L78.7159 70.0518L79.3178 70.2535L79.8529 70.5224L80.3879 70.8585L80.8561 71.2619L81.2573 71.6652L81.6586 72.1358L81.993 72.6736L82.2605 73.2114L82.4612 73.8165L82.5949 74.4215L82.6618 75.0938V75.7661V76.4383L82.5949 77.1106L82.4612 77.7156L82.2605 78.3207L81.993 78.8585L81.6586 79.3963L81.2573 79.8669L80.8561 80.2703L80.3879 80.6736L79.8529 81.0098L79.3178 81.2787L78.7159 81.4803L78.0471 81.6148L77.3784 81.682H76.6427H75.907L75.2382 81.6148L74.6363 81.4803L74.0344 81.2787L73.4994 81.0098L73.0312 80.6736L72.5631 80.2703L72.1618 79.8669L71.8274 79.3963L71.493 78.8585L71.2255 78.3207L71.0249 77.7156L70.8911 77.1106L70.8242 76.4383V75.7661ZM78.9835 75.7661L78.9166 75.0938L78.7828 74.3543L78.5153 73.682L78.114 73.1442L77.5121 72.7409L76.7096 72.6064L75.907 72.7409L75.3051 73.1442L74.9038 73.682L74.6363 74.3543L74.5026 75.0938L74.4357 75.7661L74.5026 76.4383L74.6363 77.1778L74.9038 77.8501L75.3051 78.3879L75.907 78.7913L76.7096 78.9257L77.5121 78.7913L78.114 78.3879L78.5153 77.8501L78.7828 77.1778L78.9166 76.4383L78.9835 75.7661Z" fill="white"/>
<path d="M56.043 68.4375H56.2436H56.8455H57.7149H58.8519H59.9888H61.0589H61.9283H62.5302H62.7309H63.4665L64.1353 68.5047L64.8041 68.6392L65.4729 68.8409L66.0748 69.0425L66.6098 69.3114L67.1449 69.6476L67.613 69.9837L68.0812 70.3871L68.4825 70.8577L68.8169 71.3283L69.1512 71.8661L69.4188 72.4711L69.6194 73.0762L69.7532 73.6812L69.82 74.3535V75.0257V75.698L69.7532 76.3703L69.6194 76.9753L69.4188 77.5804L69.1512 78.1182L68.8169 78.656L68.4825 79.1266L68.0812 79.5972L67.613 80.0005L67.1449 80.3367L66.6098 80.6728L66.0748 80.9417L65.4729 81.1434L64.8041 81.3451L64.1353 81.4795L63.4665 81.5467H62.7309H62.5302H61.9283H61.0589H59.9888H58.8519H57.7818H56.9124H56.3105H56.1098V68.4375H56.043ZM60.5239 78.5888H61.0589H62.0621H62.5971L63.199 78.5215L63.8009 78.3199L64.336 77.9837L64.8041 77.5131L65.2054 76.9081L65.4729 76.1014L65.5398 75.093L65.4729 74.0846L65.2054 73.2778L64.8041 72.6728L64.336 72.2022L63.8009 71.8661L63.199 71.6644L62.5971 71.5972H62.0621H61.0589H60.5239V78.5888Z" fill="white"/>
<path d="M102.596 69.7816H103.399L104.201 69.8488L104.937 69.9833L105.606 70.185L106.208 70.4539L106.743 70.79L107.211 71.1934L107.545 71.664L107.746 72.269L107.88 72.874V73.0757V73.6135V74.4203V75.4287V76.5043V77.6471V78.7228V79.7312V80.5379V81.0757V81.2774H103.934V81.0085V80.4707V80.2018L103.332 80.6724L102.73 81.0757L102.061 81.4119L101.259 81.6135L100.322 81.6808L99.5867 81.6135L98.9179 81.4119L98.316 81.0757L97.781 80.6724L97.3128 80.1345L96.9784 79.5295L96.7778 78.8572L96.7109 78.185V77.7144L96.7778 77.2438L96.9116 76.7732L97.1122 76.3026L97.3797 75.8993L97.781 75.4959L98.2491 75.1598L98.8511 74.8236L99.5199 74.5547L100.322 74.353L101.259 74.2186L102.329 74.1514L103.265 74.0169L103.733 73.6135L103.867 73.0757L103.666 72.4707L103.131 72.1345L102.463 72.0001L101.794 72.0673L101.259 72.4034L101.058 73.0085H100.456H99.1855H97.9148H97.3128V72.5379L97.3797 72.0673L97.5804 71.5967L97.8479 71.1934L98.1823 70.79L98.5835 70.4539L99.1186 70.1177L99.7874 69.8488L100.59 69.6471L101.459 69.5127L102.596 69.7816ZM102.329 76.1682L101.459 76.3698L100.791 76.8404L100.523 77.6471L100.657 78.185L101.058 78.5883L101.794 78.7228L102.663 78.5211L103.399 77.9833L103.8 77.0421V76.7732V76.3026V76.0337L103.399 76.1009H102.864L102.329 76.1682Z" fill="white"/>
<path d="M121.252 90.6208H121.854H122.991H123.593L124.596 90.8225L125.265 91.3603L125.532 92.0998L125.331 92.772L124.863 93.2426L124.195 93.4443L125.064 93.9821L125.465 94.7216L125.532 95.73H125.265H124.73H124.462L124.328 94.6544L123.86 94.0494L122.991 93.8477H122.79H122.389H122.188V95.73H121.252V90.6208ZM122.255 93.1082H122.523H123.058H123.325L124.061 92.9737L124.462 92.7048L124.596 92.2342L124.462 91.8309L124.128 91.562L123.459 91.4947H123.124H122.523H122.188V93.1082H122.255ZM123.258 88.8057L123.994 88.8729L124.663 89.0746L125.265 89.3435L125.867 89.6796L126.402 90.1502L126.803 90.688L127.204 91.2931L127.472 91.9653L127.672 92.6376L127.739 93.3771L127.672 94.1166L127.472 94.7889L127.204 95.3939L126.803 95.9989L126.402 96.5368L125.867 97.0073L125.265 97.3435L124.663 97.6124L123.994 97.8141L123.258 97.8813L122.523 97.8141L121.854 97.6124L121.252 97.3435L120.65 97.0073L120.115 96.5368L119.647 95.9989L119.312 95.3939L119.045 94.7889L118.844 94.1166L118.777 93.3771L118.844 92.6376L119.045 91.9653L119.312 91.2931L119.647 90.688L120.115 90.1502L120.65 89.6796L121.252 89.3435L121.854 89.0746L122.523 88.8729L123.258 88.8057ZM123.258 97.209L123.994 97.1418L124.663 96.9401L125.265 96.6712L125.8 96.2678L126.268 95.7973L126.669 95.2594L126.937 94.6544L127.137 93.9821L127.204 93.2426L127.137 92.5031L126.937 91.8309L126.669 91.2258L126.268 90.688L125.8 90.2174L125.265 89.8141L124.663 89.5452L123.994 89.3435L123.258 89.2763L122.523 89.3435L121.854 89.5452L121.252 89.8141L120.717 90.2174L120.249 90.688L119.847 91.2258L119.58 91.8309L119.379 92.5031L119.312 93.2426L119.379 93.9821L119.58 94.6544L119.847 95.2594L120.249 95.7973L120.717 96.2678L121.252 96.6712L121.854 96.9401L122.523 97.1418L123.258 97.209Z" fill="#F6B101"/>
</svg>
