<svg width="234" height="60" viewBox="0 0 234 60" fill="none" xmlns="http://www.w3.org/2000/svg">
<g clip-path="url(#clip0_936_1280)">
<path fill-rule="evenodd" clip-rule="evenodd" d="M197.126 0.0117188H186.457L179.758 16.4718L187.541 36.585H198.929L189.874 16.1083L197.126 0.0117188Z" fill="#37864F"/>
<path d="M179.571 0.0117188H170.18V36.5791H179.571V0.0117188Z" fill="#37864F"/>
<path fill-rule="evenodd" clip-rule="evenodd" d="M162.04 36.585L170 16.4718L163.307 0.0117188H152.649L159.89 16.1083L150.828 36.5671L162.04 36.585Z" fill="#37864F"/>
<path fill-rule="evenodd" clip-rule="evenodd" d="M223.701 16.1083L232.191 0.0117188H221.521L213.02 16.4718L222.605 36.585H234L223.701 16.1083Z" fill="#37864F"/>
<path d="M212.837 0.0117188H203.445V36.5791H212.837V0.0117188Z" fill="#37864F"/>
<path fill-rule="evenodd" clip-rule="evenodd" d="M100.206 36.5673V0H90.6374V11.7044H80.6864V0H71.2773V36.5673H80.6864V19.9285L90.6374 19.9464V36.5673H100.206Z" fill="#37864F"/>
<path fill-rule="evenodd" clip-rule="evenodd" d="M137.086 36.5673L137.057 16.8772L127.3 29.994L117.355 16.8772L117.396 36.5673H107.793L107.781 0H116.271L127.3 14.994L138.318 0H146.655L146.672 36.5673H137.086Z" fill="#37864F"/>
<path fill-rule="evenodd" clip-rule="evenodd" d="M78.0999 47.9146H73.9345V55.9241H71.2773V45.7632H78.0999V47.9146Z" fill="#37864F"/>
<path fill-rule="evenodd" clip-rule="evenodd" d="M84.3997 53.9571C84.6308 53.9678 84.8616 53.9311 85.0783 53.8491C85.295 53.7672 85.493 53.6417 85.6605 53.4804C85.9815 53.1437 86.2197 52.7354 86.3557 52.2885C86.487 51.8372 86.5583 51.3702 86.5678 50.8999C86.5809 50.1234 86.3767 49.359 85.9787 48.6949C85.8044 48.4029 85.5537 48.1653 85.2542 48.0086C84.9547 47.8519 84.6182 47.7821 84.2819 47.8069C82.7972 47.8069 82.0489 48.8916 82.0489 51.0548C82.0232 51.79 82.2295 52.5143 82.6381 53.1228C82.832 53.4013 83.0942 53.6241 83.3989 53.7693C83.7036 53.9145 84.0403 53.9772 84.3761 53.9512L84.3997 53.9571ZM82.0784 47.2348C82.3935 46.746 82.7926 46.3181 83.2567 45.9714C83.8098 45.6229 84.4561 45.4563 85.1067 45.4947C85.6621 45.4815 86.2137 45.5916 86.7226 45.817C87.2315 46.0425 87.6855 46.3779 88.0525 46.7998C88.4523 47.288 88.7617 47.8452 88.9658 48.4446C89.201 49.1795 89.3144 49.9487 89.3016 50.7211C89.2996 51.6397 89.1484 52.5518 88.8538 53.4208C88.5811 54.2127 88.0906 54.9095 87.4398 55.4291C86.7623 55.946 85.9314 56.2149 85.0831 56.1919C84.5155 56.2177 83.952 56.0823 83.4564 55.8011C82.9608 55.52 82.5529 55.1042 82.2787 54.6007H82.2257V59.857H79.5391V45.7628H82.0843L82.0784 47.2348Z" fill="#37864F"/>
<path fill-rule="evenodd" clip-rule="evenodd" d="M96.5691 55.7389C96.2333 56.74 95.9799 57.5267 95.7207 58.0571C95.5544 58.5046 95.3132 58.9199 95.0078 59.2847C94.7722 59.5691 94.4585 59.7765 94.1064 59.8807C93.6334 59.9918 93.1482 60.0398 92.6629 60.0237L91.4846 59.9939V57.8068C91.6557 57.8377 91.8293 57.8516 92.003 57.8485C92.4144 57.8736 92.8241 57.7762 93.1814 57.5684C93.4999 57.2273 93.6914 56.785 93.7234 56.3169L90.0234 45.7627H92.9693L95.1197 53.2359H95.161L97.2113 45.7627H100.022L96.5691 55.7389Z" fill="#37864F"/>
<path fill-rule="evenodd" clip-rule="evenodd" d="M110.573 55.9241H107.904V47.9563H104.151V55.9241H101.5V45.7632H110.573V55.9241Z" fill="#37864F"/>
<path fill-rule="evenodd" clip-rule="evenodd" d="M122.032 55.9236H119.369V47.9558H115.628V55.9236H112.977V45.7627H122.032V55.9236Z" fill="#37864F"/>
<path fill-rule="evenodd" clip-rule="evenodd" d="M130.001 50.9772C129.455 51.2817 128.853 51.4684 128.233 51.5255C127.906 51.5808 127.585 51.6645 127.273 51.7758C127.039 51.8694 126.835 52.026 126.683 52.2287C126.522 52.4658 126.445 52.7518 126.465 53.0392C126.452 53.2126 126.479 53.3868 126.543 53.5481C126.608 53.7094 126.708 53.8534 126.837 53.9689C127.074 54.1612 127.369 54.2662 127.673 54.2669C128.066 54.2678 128.455 54.1802 128.81 54.0106C129.161 53.8623 129.465 53.619 129.688 53.3074C129.921 53.014 130.044 52.6467 130.036 52.2704L130.001 50.9772ZM132.563 53.9272C132.537 54.3186 132.595 54.7111 132.734 55.0773C132.771 55.1767 132.829 55.2669 132.903 55.3419C132.977 55.4169 133.066 55.475 133.164 55.5124V55.9236H130.301C130.18 55.5353 130.095 55.1362 130.048 54.7317C129.652 55.1479 129.204 55.5105 128.716 55.8104C128.125 56.1052 127.471 56.2465 126.813 56.2216C126.291 56.2268 125.774 56.1149 125.299 55.8938C124.836 55.686 124.444 55.3438 124.174 54.9105C123.876 54.4116 123.726 53.8364 123.744 53.2537C123.73 52.6827 123.857 52.1173 124.115 51.6089C124.359 51.1637 124.72 50.7948 125.158 50.5422C125.627 50.2647 126.149 50.0882 126.689 50.0237L129.046 49.6542C129.635 49.5708 129.965 49.3026 129.965 48.8676C129.994 48.6753 129.961 48.4788 129.871 48.3071C129.78 48.1354 129.638 47.9976 129.464 47.9141C129.073 47.7475 128.651 47.6702 128.227 47.6876C128.014 47.6645 127.799 47.6876 127.596 47.7555C127.393 47.8233 127.206 47.9343 127.049 48.0809C126.811 48.3677 126.665 48.7212 126.63 49.094H124.079C124.12 48.2682 124.408 47.4743 124.904 46.8175C125.297 46.306 125.843 45.9362 126.46 45.7627C127.156 45.5712 127.876 45.4809 128.598 45.4945C129.195 45.4999 129.789 45.58 130.366 45.7329C130.957 45.8858 131.496 46.1966 131.927 46.6328C132.151 46.8697 132.324 47.1508 132.435 47.4584C132.547 47.766 132.594 48.0936 132.575 48.4206L132.563 53.9272Z" fill="#37864F"/>
<path fill-rule="evenodd" clip-rule="evenodd" d="M144.727 55.9241H142.07V45.7632H144.727V49.613L148.044 45.7632H151.338L147.738 49.6964L151.479 55.9241H148.28L145.823 51.5677L144.727 52.706V55.9241Z" fill="#37864F"/>
<path fill-rule="evenodd" clip-rule="evenodd" d="M157.048 47.759C156.682 47.7201 156.311 47.7846 155.978 47.9456C155.646 48.1065 155.363 48.3575 155.163 48.6708C154.792 49.3351 154.609 50.0895 154.633 50.852C154.61 51.603 154.793 52.3457 155.163 52.9974C155.359 53.3159 155.64 53.5721 155.973 53.7365C156.307 53.9009 156.679 53.967 157.048 53.927C157.412 53.966 157.779 53.9039 158.11 53.7474C158.441 53.5909 158.724 53.346 158.928 53.0391C159.299 52.3812 159.487 51.6333 159.47 50.8758C159.489 50.1086 159.302 49.3505 158.928 48.6827C158.727 48.3721 158.445 48.1237 158.113 47.9649C157.782 47.8061 157.413 47.7431 157.048 47.7828V47.759ZM157.048 56.1916C156.158 56.201 155.277 55.9968 154.48 55.5957C153.697 55.1956 153.046 54.5746 152.606 53.8079C152.109 52.8971 151.863 51.868 151.893 50.8281C151.881 50.0138 152.023 49.2048 152.311 48.4443C152.558 47.8043 152.942 47.2281 153.437 46.7578C153.919 46.3283 154.476 45.9947 155.081 45.7745C155.715 45.5592 156.379 45.4505 157.048 45.4527C157.715 45.4529 158.378 45.5616 159.01 45.7745C159.618 45.9928 160.175 46.3334 160.648 46.7757C161.14 47.2414 161.524 47.8111 161.773 48.4443C162.057 49.2056 162.195 50.0146 162.18 50.8281C162.191 51.6238 162.053 52.4145 161.773 53.1583C161.529 53.7956 161.144 54.3683 160.648 54.8329C160.175 55.2802 159.612 55.6196 158.998 55.8281C158.373 56.0564 157.713 56.1714 157.048 56.1678V56.1916Z" fill="#37864F"/>
<path fill-rule="evenodd" clip-rule="evenodd" d="M173.712 48.9808L171.184 55.9236H168.963L166.43 48.9808H166.347C166.347 49.0762 166.388 49.249 166.406 49.4695C166.424 49.69 166.406 49.9224 166.406 50.1906V55.9236H163.938V45.7925H167.561L170.006 52.7055H170.088L172.533 45.7925H176.163V55.9236H173.688V50.1906C173.688 49.9641 173.718 49.7257 173.729 49.4874C173.741 49.249 173.729 49.094 173.771 48.9808H173.712Z" fill="#37864F"/>
<path fill-rule="evenodd" clip-rule="evenodd" d="M187.663 55.9236H185.006V47.9677H181.259V55.9236H178.602V45.7627H187.663V55.9236Z" fill="#37864F"/>
<path fill-rule="evenodd" clip-rule="evenodd" d="M195.605 50.9774C195.059 51.2828 194.458 51.4733 193.837 51.5376C193.516 51.5843 193.2 51.6642 192.894 51.776C192.662 51.8726 192.459 52.0287 192.305 52.2289C192.14 52.465 192.057 52.7502 192.07 53.0394C192.052 53.2149 192.078 53.3921 192.146 53.5547C192.214 53.7172 192.322 53.8597 192.458 53.9691C192.7 54.1626 192.999 54.2677 193.307 54.267C193.698 54.2628 194.085 54.1797 194.444 54.0227C194.791 53.862 195.093 53.6161 195.322 53.3076C195.542 53.0083 195.658 52.6437 195.652 52.2706L195.605 50.9774ZM198.203 53.9273C198.175 54.3164 198.223 54.7072 198.344 55.0775C198.381 55.1768 198.439 55.267 198.513 55.3421C198.587 55.4171 198.676 55.4752 198.774 55.5126V55.9238H195.923C195.799 55.5363 195.716 55.1368 195.675 54.7319C195.276 55.1478 194.822 55.5066 194.326 55.7986C193.736 56.0954 193.082 56.2368 192.423 56.2098C191.91 56.217 191.402 56.1048 190.938 55.8821C190.467 55.6805 190.068 55.3372 189.795 54.8987C189.494 54.4059 189.344 53.8333 189.365 53.2539C189.351 52.6841 189.481 52.12 189.742 51.6151C189.978 51.1645 190.333 50.789 190.768 50.5304C191.246 50.2624 191.769 50.0866 192.311 50.012L194.668 49.6425C195.292 49.5769 195.599 49.2909 195.599 48.8558C195.624 48.6639 195.589 48.4689 195.499 48.298C195.409 48.1271 195.269 47.9887 195.098 47.9023C194.712 47.7402 194.296 47.663 193.878 47.6759C193.657 47.6462 193.431 47.6678 193.219 47.739C193.007 47.8103 192.813 47.9293 192.653 48.0871C192.433 48.3822 192.289 48.7285 192.235 49.0942H189.695C189.722 48.2825 189.993 47.4985 190.473 46.8475C190.881 46.3268 191.439 45.9477 192.07 45.7629C192.769 45.5764 193.491 45.4862 194.214 45.4947C194.811 45.5001 195.405 45.5801 195.982 45.7331C196.568 45.8929 197.104 46.2028 197.537 46.6329C197.764 46.8684 197.94 47.1488 198.055 47.4565C198.169 47.7641 198.22 48.0925 198.203 48.4208V53.9273Z" fill="#37864F"/>
<path fill-rule="evenodd" clip-rule="evenodd" d="M209.561 55.9241H206.904V51.9014H203.169V55.9241H200.512V45.7632H203.169V49.756H206.904V45.7632H209.561V55.9241Z" fill="#37864F"/>
<path fill-rule="evenodd" clip-rule="evenodd" d="M221.038 55.9241H218.381V49.7977L214.822 55.9241H211.977V45.7632H214.628V51.8776L218.186 45.7632H221.038V55.9241Z" fill="#37864F"/>
<path fill-rule="evenodd" clip-rule="evenodd" d="M232.515 55.9356H229.846V49.8212L226.287 55.9356H223.453V45.7866H226.122V51.8891L229.675 45.7866H232.515V55.9356Z" fill="#37864F"/>
<path fill-rule="evenodd" clip-rule="evenodd" d="M231.165 41.9663C231.165 42.3301 231.081 42.6888 230.919 43.0137C230.758 43.3387 230.523 43.6208 230.234 43.8376C229.931 44.0453 229.597 44.2022 229.245 44.3024C228.858 44.3921 228.463 44.438 228.066 44.4395C227.546 44.4428 227.029 44.352 226.54 44.1713C226.087 44.0083 225.69 43.7165 225.397 43.331C225.12 42.932 224.975 42.454 224.985 41.9663H226.829C226.822 42.1319 226.85 42.2972 226.91 42.4515C226.969 42.6057 227.061 42.7457 227.177 42.8623C227.293 42.979 227.433 43.0698 227.586 43.129C227.739 43.1881 227.902 43.2143 228.066 43.2059C228.231 43.2123 228.395 43.185 228.549 43.1255C228.703 43.066 228.843 42.9756 228.961 42.8598C229.08 42.744 229.174 42.6051 229.237 42.4515C229.301 42.298 229.334 42.1329 229.333 41.9663H231.165Z" fill="#37864F"/>
<path d="M47.7688 0C41.0755 0.00172448 34.6205 2.51363 29.6519 7.05006C24.689 2.51962 18.2436 0.00818376 11.5585 0L-0.000960182 0V30.006C-0.0563442 33.98 0.669656 37.9256 2.13485 41.6134C3.60004 45.3012 5.77521 48.6576 8.53395 51.4877C11.2927 54.3178 14.58 56.5651 18.2048 58.099C21.8296 59.6329 25.7197 60.4228 29.6489 60.4228C33.5782 60.4228 37.4682 59.6329 41.0931 58.099C44.7179 56.5651 48.0052 54.3178 50.7639 51.4877C53.5227 48.6576 55.6978 45.3012 57.163 41.6134C58.6282 37.9256 59.3542 33.98 59.2988 30.006V0H47.7688ZM51.9519 29.994C51.8568 35.9137 49.4652 41.5584 45.2929 45.7106C41.1206 49.8629 35.502 52.1899 29.6489 52.1899C23.7958 52.1899 18.1772 49.8629 14.005 45.7106C9.8327 41.5584 7.44109 35.9137 7.34597 29.994V7.44339H11.5585C15.0783 7.454 18.5314 8.41594 21.5602 10.2296C24.5891 12.0434 27.0837 14.6429 28.7858 17.7592L29.6519 19.3206L30.5121 17.7592C32.2166 14.6385 34.7159 12.0361 37.7504 10.2221C40.7848 8.40812 44.244 7.44869 47.7688 7.44339H51.9519V29.994Z" fill="#37864F"/>
<path d="M18.1687 20.6973C19.0445 21.5761 19.7383 22.6227 20.2097 23.7759C20.6811 24.9291 20.9206 26.1657 20.9142 27.4136V30.0298C20.9212 31.176 21.1432 32.3105 21.5682 33.3731C22.0135 34.4418 22.6621 35.4117 23.4771 36.2276C23.9414 36.6931 24.4506 37.1104 24.9971 37.4732C25.5504 37.8264 26.1438 38.1106 26.7646 38.3194L28.0726 38.7962V27.4136C28.054 22.9938 26.31 18.7605 23.2203 15.6352C20.1305 12.51 15.9453 10.7459 11.5759 10.7271H10.5625V17.9201H11.5582C12.787 17.9173 14.004 18.1613 15.1388 18.638C16.2736 19.1147 17.3035 19.8147 18.1687 20.6973Z" fill="#37864F"/>
<path d="M36.1106 15.6198C34.5718 17.1633 33.3518 19.0008 32.5214 21.0255C31.691 23.0502 31.2668 25.2217 31.2735 27.4136V38.8141L32.552 38.3374C33.1726 38.1281 33.7661 37.8439 34.3195 37.4911C34.8696 37.1359 35.3777 36.7179 35.8337 36.2456C36.6362 35.4199 37.2725 34.4443 37.7072 33.3731C38.1374 32.2975 38.3594 31.1484 38.3612 29.9881V27.4136C38.3712 24.8998 39.3672 22.4928 41.1303 20.7212C41.9954 19.8368 43.0261 19.1357 44.1621 18.6589C45.2981 18.1821 46.5167 17.9391 47.7467 17.944H48.7129V10.7271H47.7702C45.6033 10.721 43.4567 11.1504 41.4551 11.9903C39.4536 12.8302 37.6369 14.0639 36.1106 15.6198Z" fill="#37864F"/>
<path d="M41.5999 27.4134V30.0296C41.6156 31.5997 41.3209 33.1572 40.733 34.6104C40.1452 36.0637 39.2761 37.3834 38.1768 38.4921C37.0321 39.6384 35.6825 40.5545 34.1999 41.1917C32.7165 41.8136 31.1277 42.1375 29.5219 42.1452C27.9701 42.1377 26.4352 41.8176 25.0069 41.2037C23.5786 40.5898 22.2854 39.6943 21.2029 38.5695C20.095 37.4488 19.2162 36.1183 18.6164 34.6542C18.0064 33.1888 17.6958 31.6137 17.7032 30.0237V27.4134C17.7048 25.7622 17.0586 24.1778 15.9065 23.008C14.7545 21.8382 13.1906 21.1786 11.5582 21.1738H10.5625V30.0058C10.6504 35.0672 12.6999 39.8913 16.2697 43.4393C19.8395 46.9872 24.644 48.9753 29.6486 48.9753C34.6533 48.9753 39.4577 46.9872 43.0275 43.4393C46.5973 39.8913 48.6468 35.0672 48.7347 30.0058V21.1738C48.1983 22.7598 47.2551 24.1733 46.0015 25.2696C44.7479 26.3659 43.2289 27.1057 41.5999 27.4134Z" fill="#37864F"/>
</g>
<defs>
<clipPath id="clip0_936_1280">
<rect width="234" height="60" fill="white"/>
</clipPath>
</defs>
</svg>
