<svg width="85" height="87" viewBox="0 0 85 87" fill="none" xmlns="http://www.w3.org/2000/svg">
<g clip-path="url(#clip0_1115_1935)">
<path fill-rule="evenodd" clip-rule="evenodd" d="M27.5986 85.9084C29.8538 85.6614 32.2373 85.1669 34.6141 84.7928L36.4896 85.0398L38.4939 85.2868L40.4982 85.4134L42.5026 85.5338L44.4929 85.4134L46.4973 85.2868L48.5016 85.0398L50.3771 84.7928C53.2551 85.2873 56.2618 85.7818 59.2686 86.0288C60.5214 86.2758 61.7741 86.4034 63.1484 86.5233C64.0216 86.5233 64.9024 86.5233 65.7755 86.6499C66.4061 86.6499 67.0283 86.6499 67.7804 86.6499C69.0332 86.6499 70.2859 86.5233 71.5387 86.4039C72.6627 86.2763 73.916 86.0293 75.0394 85.7818C75.5406 85.6614 76.0418 85.5348 76.5431 85.2873C77.0443 85.1669 77.4239 84.9194 77.9246 84.7928L78.5474 84.4249L80.3014 83.1889L81.1745 82.3209L81.805 81.339L82.3062 79.9755C82.4278 79.481 82.4278 78.9865 82.5566 78.4925C82.5566 78.2455 82.5565 77.998 82.4278 77.6306C82.3062 76.6416 82.1769 75.6531 81.926 74.5447L82.1764 74.4171L82.6781 74.0502L83.0573 73.4281L83.5512 72.9336L83.8016 72.4391L84.1807 71.8242L84.3023 71.0827L84.5526 70.4688C84.5526 70.0943 84.5526 69.7273 84.5526 69.4798C84.5526 69.1053 84.5526 68.7383 84.4311 68.4908L84.3023 67.8688L84.0519 67.1273C83.8016 66.3929 83.4291 65.5244 83.0567 64.7819L82.9279 64.168L82.6776 63.6735L82.556 63.0514C82.556 62.19 82.556 61.4485 82.556 60.5866L82.4272 59.2241L82.3057 58.6091L82.1764 58.1146C82.556 57.1256 82.9285 56.1372 83.1788 55.0277C83.4291 54.4067 83.5512 53.6652 83.8016 53.0503C84.0519 51.9347 84.1807 50.8258 84.4316 49.5898C84.5531 48.7279 84.5531 47.8594 84.6819 46.8709C84.6819 46.009 84.8035 45.1476 84.8035 44.1591C84.8035 43.537 84.8035 42.7955 84.8035 42.054C84.6819 40.9451 84.5531 39.8434 84.4311 38.7273C84.4311 37.9858 84.3023 37.3714 84.1807 36.7498C84.4311 36.1354 84.4311 35.521 84.5531 34.8994V33.2955C84.4316 32.9215 84.3028 32.554 84.1807 32.18C84.0519 31.8125 83.9304 31.318 83.6795 30.9506L83.4291 30.5766L83.0567 29.9621C82.8064 29.5881 82.4267 29.2207 82.0543 28.8461C81.804 28.2317 81.5526 27.6101 81.3027 26.9957C80.801 26.0067 80.4224 25.0182 79.7996 24.0292C79.9207 23.6618 80.0495 23.1678 80.0495 22.6728V21.9313L79.7996 20.9423L79.6703 20.4479L79.42 19.9534L79.0476 19.4589L78.5463 18.4699L77.9236 17.608C77.0432 16.619 76.2917 15.6305 75.418 14.7691C74.666 13.9005 73.9149 13.1585 73.1634 12.2971L71.1585 10.5666C70.5358 10.0721 69.9057 9.57765 69.1542 9.08316C68.4026 8.46874 67.529 7.84718 66.5271 7.23276C65.9043 6.8587 65.2743 6.49128 64.5223 5.99678C63.7707 5.62936 63.1479 5.2553 62.3964 4.88787C61.6448 4.5133 61.022 4.26631 60.2705 3.89888C59.5189 3.65138 58.7674 3.27732 58.1369 3.02982C56.8913 2.66239 55.6386 2.16841 54.5073 1.9209L53.0042 1.42641C51.379 1.05898 49.7544 0.811482 48.1219 0.565C47.2488 0.437422 46.2464 0.317498 45.2445 0.317498C44.1278 0.19043 43.1253 0.19043 42.0014 0.19043C40.8701 0.19043 39.7462 0.317498 38.7437 0.317498C37.6125 0.437422 36.4891 0.565 35.4866 0.811992C34.3627 0.932426 33.3608 1.17942 32.2363 1.42692C31.2339 1.67391 30.1032 1.92141 29.1007 2.28833C26.9743 2.90989 24.8479 3.89888 22.7148 4.88736C21.9705 5.25479 21.0896 5.74877 20.3381 6.12334C19.0853 6.85768 17.832 7.59968 16.7086 8.46823L15.9585 9.08571C13.9542 10.4488 12.2002 12.0522 10.575 13.7826C9.32228 15.0186 8.06951 16.375 7.06708 17.858C6.69467 18.3525 6.32277 18.9669 5.94311 19.4614L5.69225 19.836L5.4419 20.4504L5.32035 20.9449L5.19103 21.4394L5.06948 21.9339V22.4284V22.9229V23.4169L5.19103 24.1589C4.81913 24.9003 4.43948 25.6418 4.06706 26.3833C3.68792 27.1177 3.3155 27.9867 3.06464 28.7282L2.81481 29.0956L2.43515 29.4697L2.06273 29.8371L1.69031 30.3316L1.43997 30.8261L1.06082 31.6941L0.810478 32.3086L0.688408 32.923C0.559613 33.6645 0.438061 34.406 0.559613 35.1474C0.688408 35.6419 0.688408 36.1364 0.810478 36.6309C0.688408 37.4923 0.559613 38.3614 0.43806 39.3504C0.43806 40.2118 0.309266 41.1936 0.309266 42.1826C0.187713 44.28 0.309266 46.3851 0.559613 48.6029C0.688408 49.4709 0.810477 50.3334 0.938754 51.2024C1.06031 52.0638 1.31117 52.9258 1.56152 53.9142C1.69031 54.5353 1.81238 55.1502 2.06273 55.7713C2.31308 56.6332 2.56342 57.3752 2.81481 58.1167C2.68549 58.6112 2.68549 59.1057 2.68549 59.4721C2.56394 60.7091 2.56394 61.8241 2.43515 62.9335C2.43515 63.3004 2.31359 63.5474 2.31359 63.9225C2.06325 64.5374 1.81238 65.1585 1.56152 65.653C1.31117 66.2669 1.18962 66.7624 0.938754 67.2559L0.80996 67.7514L0.559096 68.3653V68.8598V69.3543V69.8488V70.3433L0.68789 70.8378V71.2123L0.938237 71.7068L1.05979 72.0748L1.31065 72.5683L1.561 72.9362L1.81187 73.3097L2.06221 73.6777C2.43463 74.0522 2.81429 74.4192 3.18619 74.6667C3.06412 75.5357 2.81429 76.3971 2.68498 77.1386L2.56342 77.6331V78.6221L2.68498 79.7315L3.06412 80.9675L3.6874 82.0769L5.19052 83.5599L6.57208 84.428L7.69606 85.0429C8.19727 85.2899 8.82003 85.4164 9.32124 85.6639C9.95125 85.7844 10.4525 85.9109 11.0752 86.0319C11.7052 86.1584 12.1992 86.1584 12.8292 86.2789C13.5808 86.4064 14.3323 86.5258 15.0839 86.5258C17.2103 86.7728 19.2146 86.6524 21.2189 86.5258C23.3464 86.4039 25.4728 86.1559 27.5986 85.9084Z" fill="black"/>
<path fill-rule="evenodd" clip-rule="evenodd" d="M21.7263 85.8946C25.9858 85.6476 30.2381 84.9056 34.4976 84.1641C39.759 85.0332 45.0065 85.0332 50.2684 84.1641C57.0262 85.4001 64.0344 86.5095 70.9215 85.8946C72.0455 85.768 73.1767 85.6476 74.1792 85.4001C75.5535 85.0332 76.8062 84.5387 78.059 83.9171L79.6847 82.8077L80.4363 81.9397L81.0663 81.0777L81.5602 79.8418C81.689 79.1003 81.689 78.4864 81.689 77.7449C81.5602 76.6283 81.1878 75.5204 81.0663 74.2834C82.5627 73.2944 83.443 72.059 83.6934 70.3356C83.8154 69.5941 83.8154 68.8527 83.5646 68.1112C83.0634 66.5006 82.0615 65.0243 81.8106 63.2943C81.5597 61.5643 81.8106 59.8339 81.4382 58.1034C83.9437 51.3091 84.5665 44.0269 83.4425 36.8652C83.5641 36.1232 83.6929 35.6292 83.8154 34.8948L83.6934 33.5318C83.443 32.5428 83.1922 31.8013 82.813 30.9394C82.3118 30.325 81.9399 29.8305 81.3099 29.336C80.6871 27.6055 79.9356 25.875 79.0614 24.2716C79.3118 23.1556 79.3118 22.4141 79.0614 21.3052C78.5602 19.9493 77.6804 18.8332 76.9283 17.7243C75.554 15.9938 74.1797 14.5109 72.5472 12.9075L70.5501 11.177C67.2925 8.58458 63.7851 6.36013 59.9047 4.62965C56.1459 3.02625 52.3948 2.03726 48.3856 1.41621C47.5125 1.29628 46.6322 1.16921 45.7585 1.04878C39.8811 0.67472 34.2472 1.41621 28.7422 3.14617C26.6085 3.88766 24.4827 4.75672 22.4778 5.73856C20.7238 6.72755 18.9771 7.71603 17.3452 8.83209C15.2193 10.4355 13.2145 12.0389 11.3389 13.8959C10.0862 15.1319 8.96218 16.3613 7.95976 17.7238C7.32975 18.5857 6.70698 19.4543 6.20577 20.3162C5.57577 21.5522 5.45422 22.5412 5.70456 23.8971L5.82663 24.2711C4.953 25.8745 4.07989 27.605 3.44989 29.3355C2.44746 30.1969 1.8247 31.1859 1.32349 32.5418C1.19469 33.4108 1.07314 34.0248 1.07314 34.8938C1.19469 35.5082 1.19469 36.0027 1.44556 36.6171C0.822794 40.445 0.694 44.0264 0.944347 47.8548C1.44556 51.4351 2.19763 54.8966 3.4504 58.2305L3.32885 58.4764C2.94919 60.5743 3.32885 62.6728 2.69885 64.5293C2.19815 65.8857 1.44608 67.1217 1.19573 68.6046C0.694517 71.0695 1.82573 73.0469 3.83006 74.4105C3.70127 75.5199 3.32885 76.6283 3.0785 77.8643V78.7334L3.20006 79.7223L3.5792 80.7113L4.08041 81.6932L5.45525 83.0567L6.70802 83.9181C9.58546 85.4011 12.4634 85.8956 15.5917 86.1426C17.7248 86.1416 19.7292 86.1416 21.7263 85.8946Z" fill="white"/>
<path fill-rule="evenodd" clip-rule="evenodd" d="M35.5096 34.6393C36.7913 36.3912 39.9553 36.3703 42.4463 33.7212C43.7995 33.3467 45.0383 33.0716 46.0045 33.2339C47.1424 33.4242 47.265 33.4594 47.9519 33.6574L47.221 30.7196C46.2186 28.3747 43.6634 29.3422 40.9789 30.8186C39.2679 33.7498 36.1184 34.675 34.3716 33.6151C34.2495 33.5447 35.5096 34.6393 35.5096 34.6393Z" fill="#FDB827"/>
<path fill-rule="evenodd" clip-rule="evenodd" d="M43.9978 61.3933C42.0013 61.5347 40.0181 62.1629 39.7026 62.9043L35.1426 61.3086L35.6722 63.4693L35.2569 66.8879C36.9607 66.5837 38.7576 65.8351 39.76 64.4797C41.1773 65.681 43.0171 66.5556 45.2578 66.5919C45.3437 65.1298 44.8497 64.0842 44.4065 63.801L43.9978 61.3933Z" fill="#FDB827"/>
<path fill-rule="evenodd" clip-rule="evenodd" d="M52.6686 18.1338C51.6739 16.636 49.2899 15.3158 46.2045 16.3752C42.4245 12.7591 37.385 14.1217 34.5427 17.4489C31.3141 17.8373 29.739 18.3032 27.1114 20.8252C23.89 22.9297 21.1197 25.6629 19.0796 28.8202C19.0796 28.8202 18.9224 29.0606 18.8433 29.1805L17.3184 28.2344C16.9962 28.7355 16.6667 29.2652 16.4091 29.774C12.3792 29.4847 8.97835 30.12 6.93109 31.4055C7.85437 28.8131 9.07145 26.3483 10.5249 24.06L10.2885 23.9115C9.59439 23.5018 9.44387 22.4352 9.79456 21.9126C16.5663 11.6079 29.4453 4.77783 42.5104 4.77783C55.5677 4.77783 68.4472 11.6074 75.2262 21.9126C75.5624 22.4352 75.4196 23.5018 74.725 23.9115L74.4813 24.06C75.9493 26.3697 77.1586 28.8274 78.0824 31.4269C76.1852 30.318 73.1572 29.3081 68.6685 29.873C68.3892 29.3433 68.0747 28.8274 67.7665 28.3263L66.2344 29.2729C66.2059 29.2443 66.1842 29.2091 66.1702 29.181C63.0135 24.2147 58.2745 20.3016 52.6686 18.1338ZM79.4283 36.2213C79.9512 38.6652 80.2155 41.1867 80.2155 43.751C80.2155 51.7318 77.5098 59.1829 73.1929 65.2082C69.5779 64.4667 66.0414 64.5443 63.1418 64.8336C67.4085 60.7582 70.4649 55.4117 71.6608 49.4155C72.2551 48.278 73.9444 43.0514 75.297 40.9254C76.5219 39.0326 78.8557 37.5349 79.4283 36.2213ZM62.7124 75.1175C56.6705 78.8749 49.8625 80.9304 42.5104 80.9651C40.0478 80.9723 38.0362 80.7319 35.602 80.2446C37.191 79.7572 56.7424 75.4563 62.7124 75.1175ZM18.1202 72.0872C9.95853 65.2638 4.80469 55.0932 4.80469 43.751C4.80469 41.1372 5.084 38.5662 5.6209 36.0662C6.08642 37.0057 8.74921 37.8181 9.90215 39.9364C11.1404 41.3913 12.6798 45.7494 12.9089 46.2296C13.8249 57.1483 20.9195 66.5355 30.7342 70.6527C28.8152 71.0625 23.3531 71.9321 18.1202 72.0872Z" fill="#007AC2"/>
<path fill-rule="evenodd" clip-rule="evenodd" d="M62.9699 64.7833C67.0003 60.956 69.9357 56.0263 71.2454 50.4956C69.7779 53.2007 68.131 55.6089 65.3467 56.9373C63.6786 57.94 60.0128 58.5192 57.4794 58.3564C56.7702 58.3136 54.7731 57.89 53.8638 57.3465C55.2454 59.5853 56.928 62.714 57.3361 65.4968C59.3404 65.186 61.4161 64.9604 62.9699 64.7833ZM52.5609 18.1968C54.4437 20.9795 54.1571 23.8118 50.9719 26.3404C51.2155 29.4201 49.5257 31.5879 47.6145 31.9273C47.8581 32.8596 48.1012 33.6292 48.3158 34.3992C52.0959 30.7832 56.4407 33.1275 59.3477 32.704C63.2415 32.16 63.7075 30.6556 68.4248 29.9498C68.1745 29.4201 67.8662 28.8904 67.6231 28.3745L66.091 29.314C66.0698 29.2854 66.0481 29.2502 66.0263 29.2221C62.8841 24.2639 58.159 20.3651 52.5609 18.1968ZM27.4765 20.6473C24.4051 22.6391 21.1982 25.5984 19.0863 28.8613C19.0573 28.8965 18.9357 29.1017 18.8499 29.2216L17.325 28.2826C16.9744 28.8404 16.6309 29.4196 16.3087 30.0054C20.1389 30.0902 22.1716 31.5874 24.9849 32.407C27.1972 33.0918 28.7867 32.7178 29.4736 32.407C26.7819 31.5308 25.4794 29.4196 25.1929 27.6253C24.6839 24.3838 26.4167 21.2127 27.4765 20.6473ZM13.0009 46.5406C13.9314 57.5093 21.1547 66.176 30.4827 70.4835C30.7833 69.4736 31.6998 67.637 32.7948 66.6205C29.7524 65.4973 27.9198 61.4505 28.5995 58.7387C26.2444 59.1903 22.6791 58.3432 21.0544 57.3823C18.5701 56.0269 16.0361 53.0665 14.955 50.7155C14.0679 49.2453 12.9647 46.4768 13.0009 46.5406Z" fill="#ED1C2E"/>
<path fill-rule="evenodd" clip-rule="evenodd" d="M9.30817 61.6975C8.1123 61.027 7.66126 60.5881 7.11039 60.0518C7.04574 61.2449 7.1104 62.9473 6.76643 64.5859C6.3728 66.4649 5.19865 68.3367 4.99848 69.2905C4.78382 70.307 5.74331 71.246 7.49678 71.9176C7.27488 70.2432 6.74522 68.7103 7.01729 67.9973C7.55471 66.4363 10.1389 65.6591 11.6135 65.2993C10.8832 64.218 10.0954 63.1096 9.30817 61.6975Z" fill="#FDB827"/>
<path fill-rule="evenodd" clip-rule="evenodd" d="M78.1337 64.5859C77.7975 62.9473 77.8544 61.2449 77.7975 60.0518C77.1747 60.7014 76.6233 61.1959 75.4636 61.7184C74.7979 62.9197 74.0459 64.0848 73.2441 65.2008C74.8119 65.6172 77.2394 66.4577 77.8404 67.7641C78.1766 68.774 77.7406 70.3065 77.4038 71.9176C79.1578 71.246 80.1168 70.307 79.9021 69.2905C79.7014 68.3367 78.5273 66.4649 78.1337 64.5859Z" fill="#FDB827"/>
<path fill-rule="evenodd" clip-rule="evenodd" d="M11.7346 65.3481H11.7201C8.89954 66.0121 7.03125 67.149 7.03125 68.4422C7.03125 70.4972 11.7346 72.1649 17.5334 72.1649C17.7196 72.1649 17.8986 72.1649 18.092 72.1567C15.7008 70.1512 13.5599 67.8701 11.7346 65.3481Z" fill="#ED1C2E"/>
<path fill-rule="evenodd" clip-rule="evenodd" d="M67.361 74.7993C65.9505 74.7993 64.4619 74.8769 62.9148 75.0034C59.937 77.0585 56.7223 78.5986 50.8164 80.1882C56.6582 81.3176 62.3065 82.2433 67.3605 82.2433C73.1516 82.2433 77.8549 80.5756 77.8549 78.5205C77.8549 76.4655 73.1521 74.7993 67.361 74.7993Z" fill="#ED1C2E"/>
<path fill-rule="evenodd" clip-rule="evenodd" d="M36.5541 61.5985C36.4181 61.5484 35.1725 61.132 35.0075 61.0473C35.0003 61.2239 35.1006 61.429 35.158 61.7888C34.8358 61.8306 34.4996 61.8735 34.2705 61.8526C33.1604 61.7607 32.5884 60.4819 32.7813 59.7128C32.9748 59.0061 32.5951 58.4621 32.1228 58.434C31.7292 58.4059 31.3284 58.5896 31.1349 59.0061C30.9989 58.6243 30.8768 58.2717 30.7051 58.0171C31.4354 57.6854 31.9868 57.2618 32.2661 56.8301C33.0534 57.8328 34.2705 58.8223 36.461 59.4791C36.6255 60.2772 36.7543 60.7156 36.5541 61.5985Z" fill="#ED1C24"/>
<path fill-rule="evenodd" clip-rule="evenodd" d="M38.0074 47.4583C38.2795 47.4083 38.609 47.7262 38.6586 48.0942C38.7015 48.4539 38.5153 48.729 38.1429 48.7719C37.7777 48.8209 37.4555 48.5953 37.4126 48.2345C37.3701 47.8615 37.6422 47.5007 38.0074 47.4583Z" fill="#FDB827"/>
<path fill-rule="evenodd" clip-rule="evenodd" d="M37.9147 49.3237C38.2369 49.2252 38.5162 49.4574 38.5664 49.7753C38.6093 50.0432 38.4159 50.3127 38.1009 50.3611C37.7786 50.404 37.5065 50.2274 37.4564 49.9095C37.4134 49.5916 37.6426 49.3655 37.9147 49.3237Z" fill="#FDB827"/>
<path fill-rule="evenodd" clip-rule="evenodd" d="M48.481 48.7721C48.8456 48.7292 49.1756 48.9981 49.2682 49.3651C49.3112 49.7258 49.0391 50.0009 48.6667 50.0428C48.3015 50.0928 47.9798 49.8662 47.9798 49.5064C47.8867 49.1318 48.1158 48.8205 48.481 48.7721Z" fill="#FDB827"/>
<path fill-rule="evenodd" clip-rule="evenodd" d="M41.4167 48.4546C41.7395 48.4546 42.0612 48.6378 42.0612 48.9072C42.1041 49.1823 41.9179 49.5074 41.6029 49.5074C41.3236 49.5492 41.0443 49.366 40.9512 49.0409C40.9512 48.7725 41.1876 48.5041 41.4167 48.4546Z" fill="#FDB827"/>
<path fill-rule="evenodd" clip-rule="evenodd" d="M43.061 52.9953C43.3331 52.9463 43.6553 53.1795 43.6977 53.4546C43.6977 53.7225 43.4691 54.0404 43.2395 54.0404C42.925 54.0833 42.6027 53.8572 42.6027 53.5888C42.5603 53.3214 42.7895 52.9953 43.061 52.9953Z" fill="#FDB827"/>
<path fill-rule="evenodd" clip-rule="evenodd" d="M41.687 51.4983C42.1024 51.4493 42.5105 51.7244 42.6031 52.1842C42.646 52.6358 42.3739 53.0803 41.9156 53.1798C41.4144 53.2288 41.042 52.9037 40.9489 52.4092C40.907 51.9994 41.236 51.5406 41.687 51.4983Z" fill="#FDB827"/>
<path fill-rule="evenodd" clip-rule="evenodd" d="M42.2395 49.8665C42.6046 49.8175 42.9698 50.0431 43.0195 50.4039C43.0624 50.7785 42.8333 51.1382 42.4257 51.1801C42.0605 51.2229 41.7382 50.9969 41.6881 50.6371C41.6451 50.2273 41.9172 49.9094 42.2395 49.8665Z" fill="#FDB827"/>
<path fill-rule="evenodd" clip-rule="evenodd" d="M36.4899 48.3195C36.7619 48.2776 36.9911 48.5037 37.0407 48.7293C37.1266 49.0401 36.8974 49.3233 36.5824 49.3651C36.3533 49.3651 36.0812 49.1819 36.0316 48.9069C35.9892 48.6374 36.1676 48.3695 36.4899 48.3195Z" fill="#FDB827"/>
<path fill-rule="evenodd" clip-rule="evenodd" d="M45.4466 49.5912C45.7683 49.5483 46.0906 49.7744 46.1335 50.0923C46.2266 50.4031 45.9049 50.6853 45.5893 50.7281C45.2671 50.7781 45.0385 50.5934 44.9805 50.2689C44.9376 49.9509 45.1311 49.6401 45.4466 49.5912Z" fill="#FDB827"/>
<path fill-rule="evenodd" clip-rule="evenodd" d="M40.6282 50.3609C40.9505 50.3119 41.2365 50.4956 41.2795 50.8202C41.3224 51.1381 41.086 51.3642 40.7715 51.4489C40.4493 51.4979 40.2201 51.2228 40.1772 50.9962C40.0841 50.6859 40.3132 50.3609 40.6282 50.3609Z" fill="#FDB827"/>
<path fill-rule="evenodd" clip-rule="evenodd" d="M45.8112 52.0916C46.1334 52.0497 46.42 52.2692 46.4629 52.5442C46.5131 52.904 46.3269 53.1801 45.955 53.2291C45.6328 53.2719 45.4036 53.0387 45.3612 52.7708C45.2671 52.4095 45.4962 52.1344 45.8112 52.0916Z" fill="#FDB827"/>
<path fill-rule="evenodd" clip-rule="evenodd" d="M47.6573 51.3148C48.0727 51.273 48.3949 51.5409 48.4379 51.9578C48.531 52.3176 48.2087 52.6355 47.8435 52.7703C47.5141 52.8121 47.1494 52.4942 47.1065 52.0915C47.0128 51.7246 47.2849 51.3648 47.6573 51.3148Z" fill="#FDB827"/>
<path fill-rule="evenodd" clip-rule="evenodd" d="M39.7544 47.9528C39.9908 47.91 40.2624 48.1432 40.313 48.454C40.313 48.68 40.177 48.9551 39.8548 48.998C39.5682 49.0398 39.3391 48.8204 39.2961 48.5453C39.2036 48.2779 39.4322 48.0518 39.7544 47.9528Z" fill="#FDB827"/>
<path fill-rule="evenodd" clip-rule="evenodd" d="M39.5241 49.3234C39.8536 49.2249 40.0827 49.4571 40.1753 49.726C40.2182 50.0011 39.9891 50.269 39.7025 50.269C39.4305 50.3119 39.1584 50.0924 39.1087 49.8663C39.0658 49.5484 39.2944 49.3234 39.5241 49.3234Z" fill="#FDB827"/>
<path fill-rule="evenodd" clip-rule="evenodd" d="M44.9388 53.3211C45.4038 53.271 45.8119 53.6308 45.9055 54.0835C45.9557 54.4999 45.5905 54.9515 45.1322 54.9944C44.6672 55.0372 44.2591 54.7265 44.2162 54.2667C44.166 53.8156 44.481 53.4048 44.9388 53.3211Z" fill="#FDB827"/>
<path fill-rule="evenodd" clip-rule="evenodd" d="M48.8456 50.4035C49.1321 50.3607 49.4042 50.5939 49.4042 50.8618C49.4544 51.1379 49.2682 51.364 48.9961 51.4487C48.6666 51.4487 48.438 51.2721 48.438 50.996C48.3951 50.7286 48.574 50.4525 48.8456 50.4035Z" fill="#FDB827"/>
<path fill-rule="evenodd" clip-rule="evenodd" d="M47.0124 50.0015C47.3274 50.0015 47.6067 50.178 47.6067 50.4531C47.6568 50.7292 47.4205 50.9971 47.1908 51.0471C46.8763 51.0889 46.597 50.8629 46.597 50.6373C46.5541 50.3122 46.7837 50.0433 47.0124 50.0015Z" fill="#FDB827"/>
<path fill-rule="evenodd" clip-rule="evenodd" d="M44.0781 50.7285C44.615 50.6857 45.1307 51.0465 45.1736 51.5828C45.2667 52.1339 44.8948 52.7698 44.3073 52.8116C43.7564 52.9035 43.2402 52.4519 43.1047 51.9079C43.0617 51.3144 43.4698 50.8199 44.0781 50.7285Z" fill="#FDB827"/>
<path fill-rule="evenodd" clip-rule="evenodd" d="M50.42 48.7722C51.0138 48.6803 51.5725 49.0901 51.665 49.6402C51.7085 50.2271 51.2864 50.7287 50.6916 50.8206C50.133 50.8624 49.5893 50.4955 49.5386 49.9097C49.4533 49.3652 49.8614 48.8207 50.42 48.7722Z" fill="#FDB827"/>
<path fill-rule="evenodd" clip-rule="evenodd" d="M16.5292 44.0542C16.164 44.0542 15.8418 44.3721 15.8418 44.7329C15.8418 45.057 16.164 45.3749 16.5292 45.3749C16.9016 45.3749 17.1308 45.057 17.1308 44.7329C17.1308 44.3721 16.9016 44.0542 16.5292 44.0542Z" fill="#FDB827"/>
<path fill-rule="evenodd" clip-rule="evenodd" d="M16.6328 39.7603C16.2604 39.7603 16.0312 40.0777 16.0312 40.438C16.0312 40.7559 16.2599 41.0733 16.6328 41.0733C16.998 41.0733 17.3202 40.7554 17.3202 40.438C17.3202 40.0777 16.998 39.7603 16.6328 39.7603Z" fill="#FDB827"/>
<path fill-rule="evenodd" clip-rule="evenodd" d="M10.5977 37.1748C10.2325 37.1748 9.99609 37.4927 9.99609 37.803C9.99609 38.1704 10.2325 38.446 10.5977 38.446C10.9628 38.446 11.2851 38.1704 11.2851 37.803C11.2846 37.4927 10.9623 37.1748 10.5977 37.1748Z" fill="#FDB827"/>
<path fill-rule="evenodd" clip-rule="evenodd" d="M17.6816 46.5117C17.3164 46.5117 16.9941 46.8225 16.9941 47.1404C16.9941 47.5997 17.3164 47.8681 17.6816 47.8681C18.054 47.8681 18.3762 47.6002 18.3762 47.1404C18.3762 46.8225 18.054 46.5117 17.6816 46.5117Z" fill="#FDB827"/>
<path fill-rule="evenodd" clip-rule="evenodd" d="M20.9573 48.921C21.3225 49.0547 21.5014 49.3236 21.4156 49.6834C21.3654 50.0513 21.0002 50.2764 20.635 50.1427C20.349 50.0998 20.0769 49.7263 20.1271 49.415C20.3056 49.0971 20.5921 48.871 20.9573 48.921Z" fill="#FDB827"/>
<path fill-rule="evenodd" clip-rule="evenodd" d="M18.4226 43.2489C18.7448 43.3336 18.9739 43.651 18.8808 44.0118C18.7877 44.3716 18.4655 44.5548 18.1505 44.4634C17.821 44.4216 17.5919 44.0536 17.685 43.6939C17.7708 43.3826 18.0574 43.1989 18.4226 43.2489Z" fill="#FDB827"/>
<path fill-rule="evenodd" clip-rule="evenodd" d="M19.3648 51.4631C19.6658 51.5259 19.8448 51.802 19.7729 52.0908C19.7083 52.3878 19.4367 52.571 19.1357 52.5072C18.8351 52.4297 18.6489 52.1612 18.7203 51.8653C18.785 51.5688 19.057 51.3856 19.3648 51.4631Z" fill="#FDB827"/>
<path fill-rule="evenodd" clip-rule="evenodd" d="M18.0777 50.5943C18.4429 50.6862 18.6503 51.0261 18.5789 51.3716C18.4858 51.7313 18.1491 51.9365 17.7984 51.866C17.4332 51.7732 17.2258 51.4343 17.2972 51.0888C17.3908 50.7291 17.727 50.5306 18.0777 50.5943Z" fill="#FDB827"/>
<path fill-rule="evenodd" clip-rule="evenodd" d="M22.5165 53.3211C22.9246 53.363 23.2107 53.8223 23.1103 54.2739C23.0177 54.6765 22.5594 55.0016 22.1513 54.8597C21.6863 54.7679 21.4143 54.3168 21.5001 53.9136C21.6362 53.4543 22.0582 53.1793 22.5165 53.3211Z" fill="#FDB827"/>
<path fill-rule="evenodd" clip-rule="evenodd" d="M18.3763 52.3175C18.6483 52.4588 18.8346 52.6854 18.7414 52.9605C18.6918 53.1799 18.4192 53.405 18.1906 53.3213C17.9185 53.2713 17.768 53.0033 17.8182 52.7344C17.8678 52.5078 18.1471 52.2685 18.3763 52.3175Z" fill="#FDB827"/>
<path fill-rule="evenodd" clip-rule="evenodd" d="M19.1515 48.2349C19.481 48.2778 19.6165 48.5957 19.5741 48.8289C19.481 49.1387 19.2017 49.2806 18.9725 49.2316C18.6503 49.1387 18.4641 48.8708 18.5572 48.6457C18.6074 48.3196 18.8794 48.1859 19.1515 48.2349Z" fill="#FDB827"/>
<path fill-rule="evenodd" clip-rule="evenodd" d="M14.9711 39.8518C15.3435 39.9437 15.4796 40.2121 15.4366 40.4877C15.3865 40.7561 15.1077 40.9398 14.7854 40.8832C14.4632 40.7985 14.3272 40.5301 14.3773 40.2616C14.4627 39.9437 14.742 39.8095 14.9711 39.8518Z" fill="#FDB827"/>
<path fill-rule="evenodd" clip-rule="evenodd" d="M20.6744 50.729C20.9967 50.779 21.2258 51.0469 21.1829 51.372C21.0401 51.7318 20.7675 51.8665 20.4386 51.8236C20.0734 51.7318 19.9374 51.4639 19.9803 51.1878C20.03 50.8622 20.3951 50.6862 20.6744 50.729Z" fill="#FDB827"/>
<path fill-rule="evenodd" clip-rule="evenodd" d="M21.0924 54.7683C21.4146 54.6764 21.7291 54.8601 21.7798 55.1847C21.83 55.5026 21.6867 55.8134 21.3215 55.8634C20.9993 55.9481 20.7707 55.722 20.6341 55.4536C20.5912 55.1357 20.8203 54.8178 21.0924 54.7683Z" fill="#FDB827"/>
<path fill-rule="evenodd" clip-rule="evenodd" d="M19.3457 49.9165C19.6173 49.9655 19.7538 50.1426 19.7109 50.411C19.668 50.686 19.4388 50.8208 19.1523 50.7789C18.8802 50.7289 18.7442 50.461 18.7871 50.1921C18.8802 50.0084 19.1093 49.7751 19.3457 49.9165Z" fill="#FDB827"/>
<path fill-rule="evenodd" clip-rule="evenodd" d="M23.3983 54.8598C23.7634 55.0012 23.9926 55.3191 23.8995 55.6789C23.8064 56.0397 23.4412 56.3219 23.0693 56.1734C22.7041 56.0887 22.4755 55.8136 22.5608 55.411C22.6539 55.0512 23.0191 54.818 23.3983 54.8598Z" fill="#FDB827"/>
<path fill-rule="evenodd" clip-rule="evenodd" d="M19.9818 45.0562C20.4902 45.1909 20.8197 45.6921 20.6759 46.1019C20.59 46.5545 20.0749 46.8724 19.6166 46.7377C19.1516 46.6459 18.8795 46.1937 19.0155 45.7349C19.1087 45.2828 19.5742 44.9649 19.9818 45.0562Z" fill="#FDB827"/>
<path fill-rule="evenodd" clip-rule="evenodd" d="M7.41703 35.2182C7.65341 35.3106 7.83962 35.5361 7.78945 35.8117C7.74652 36.0378 7.45996 36.221 7.18789 36.172C6.95875 36.0873 6.77978 35.8612 6.86565 35.579C6.91634 35.3524 7.14548 35.1759 7.41703 35.2182Z" fill="#FDB827"/>
<path fill-rule="evenodd" clip-rule="evenodd" d="M21.1846 47.3735C21.4138 47.4235 21.5927 47.6486 21.4996 47.9175C21.4567 48.1854 21.2276 48.3191 20.9555 48.2773C20.6762 48.2344 20.5402 47.9594 20.5903 47.7333C20.6333 47.4654 20.9053 47.275 21.1846 47.3735Z" fill="#FDB827"/>
<path fill-rule="evenodd" clip-rule="evenodd" d="M16.3951 45.7354C16.1158 45.7354 15.8438 45.9119 15.8438 46.2365C15.8438 46.5115 16.1158 46.7376 16.3951 46.7376C16.6739 46.7376 16.9031 46.5115 16.9031 46.2365C16.9031 45.9114 16.6739 45.7354 16.3951 45.7354Z" fill="#FDB827"/>
<path fill-rule="evenodd" clip-rule="evenodd" d="M17.4973 48.5957C17.1751 48.5957 16.9961 48.7789 16.9961 49.0968C16.9961 49.4148 17.1751 49.5913 17.4973 49.5913C17.7689 49.5913 18.0125 49.4148 18.0125 49.0968C18.0125 48.7789 17.7689 48.5957 17.4973 48.5957Z" fill="#FDB827"/>
<path fill-rule="evenodd" clip-rule="evenodd" d="M11.7051 38.5381C11.3762 38.5381 11.1895 38.8065 11.1895 39.0326C11.1895 39.3505 11.3757 39.5271 11.7051 39.5271C11.9343 39.5271 12.2064 39.3505 12.2064 39.0326C12.2064 38.8065 11.9343 38.5381 11.7051 38.5381Z" fill="#FDB827"/>
<path fill-rule="evenodd" clip-rule="evenodd" d="M18.1485 45.0562C17.819 45.0562 17.5898 45.3251 17.5898 45.6001C17.5898 45.8691 17.819 46.1013 18.1485 46.1013C18.4205 46.1013 18.6497 45.8691 18.6497 45.6001C18.6497 45.3256 18.4205 45.0562 18.1485 45.0562Z" fill="#FDB827"/>
<path fill-rule="evenodd" clip-rule="evenodd" d="M19.9799 52.7769C19.4357 52.7769 18.9707 53.2713 18.9707 53.8643C18.9707 54.4083 19.4357 54.86 19.9799 54.86C20.6311 54.86 21.0899 54.4083 21.0899 53.8643C21.0899 53.2713 20.6316 52.7769 19.9799 52.7769Z" fill="#FDB827"/>
<path fill-rule="evenodd" clip-rule="evenodd" d="M15.4382 41.3423C14.8294 41.3423 14.3789 41.7944 14.3789 42.4369C14.3789 43.0233 14.8299 43.4683 15.4382 43.4683C16.0325 43.4683 16.4836 43.0233 16.4836 42.4369C16.4831 41.7939 16.0325 41.3423 15.4382 41.3423Z" fill="#FDB827"/>
<path fill-rule="evenodd" clip-rule="evenodd" d="M9.17069 35.1758C8.61206 35.1758 8.1543 35.6279 8.1543 36.2209C8.1543 36.7578 8.61258 37.2665 9.17069 37.2665C9.72207 37.2665 10.23 36.7578 10.23 36.2209C10.2305 35.6279 9.72207 35.1758 9.17069 35.1758Z" fill="#FDB827"/>
<path fill-rule="evenodd" clip-rule="evenodd" d="M69.5782 43.3335C69.9506 43.3335 70.2728 43.6514 70.2728 44.0117C70.2728 44.3715 69.9506 44.6404 69.5782 44.6404C69.2559 44.6404 68.9844 44.3715 68.9844 44.0117C68.9844 43.6514 69.2559 43.3335 69.5782 43.3335Z" fill="#FDB827"/>
<path fill-rule="evenodd" clip-rule="evenodd" d="M69.4829 39.0327C69.8554 39.0327 70.1347 39.3506 70.1347 39.7181C70.1347 40.0783 69.8554 40.3463 69.4829 40.3463C69.1178 40.3463 68.8457 40.0778 68.8457 39.7181C68.8457 39.3506 69.1178 39.0327 69.4829 39.0327Z" fill="#FDB827"/>
<path fill-rule="evenodd" clip-rule="evenodd" d="M75.1055 35.2183C75.4706 35.2183 75.7929 35.5362 75.7929 35.9036C75.7929 36.2639 75.4706 36.5818 75.1055 36.5818C74.733 36.5818 74.5039 36.2639 74.5039 35.9036C74.5039 35.5362 74.733 35.2183 75.1055 35.2183Z" fill="#FDB827"/>
<path fill-rule="evenodd" clip-rule="evenodd" d="M64.332 43.4673C64.705 43.4673 65.0267 43.6934 65.0267 44.0531C65.0267 44.4211 64.705 44.7318 64.332 44.7318C63.9674 44.7318 63.6953 44.4211 63.6953 44.0531C63.6948 43.6939 63.9669 43.4673 64.332 43.4673Z" fill="#FDB827"/>
<path fill-rule="evenodd" clip-rule="evenodd" d="M68.4701 45.7773C68.8492 45.7773 69.1218 46.1024 69.1218 46.4632C69.1218 46.873 68.8497 47.1409 68.4701 47.1409C68.062 47.1409 67.7402 46.873 67.7402 46.4632C67.7397 46.1019 68.0614 45.7773 68.4701 45.7773Z" fill="#FDB827"/>
<path fill-rule="evenodd" clip-rule="evenodd" d="M63.1796 45.8267C63.552 45.8267 63.8738 46.1517 63.8738 46.5544C63.8738 46.9141 63.552 47.1831 63.1796 47.1831C62.8144 47.1831 62.4922 46.9141 62.4922 46.5544C62.4922 46.1517 62.8144 45.8267 63.1796 45.8267Z" fill="#FDB827"/>
<path fill-rule="evenodd" clip-rule="evenodd" d="M65.1604 48.2778C64.7952 48.3196 64.6018 48.6457 64.7021 49.0055C64.7523 49.3234 65.1175 49.5485 65.4827 49.4571C65.8044 49.4153 65.9906 49.0545 65.9477 48.7376C65.8473 48.3697 65.5251 48.1859 65.1604 48.2778Z" fill="#FDB827"/>
<path fill-rule="evenodd" clip-rule="evenodd" d="M56.5999 55.6373C56.2353 55.722 56.0061 56.04 56.0987 56.4069C56.1416 56.7748 56.557 56.9509 56.9289 56.8595C57.2511 56.8167 57.4301 56.4569 57.3872 56.089C57.2946 55.8139 56.9723 55.5873 56.5999 55.6373Z" fill="#FDB827"/>
<path fill-rule="evenodd" clip-rule="evenodd" d="M66.7488 50.729C66.4478 50.7999 66.2688 51.075 66.3335 51.372C66.4054 51.6608 66.6769 51.8445 66.9775 51.7736C67.2785 51.7037 67.4642 51.4347 67.3928 51.1388C67.3287 50.8484 67.0426 50.6652 66.7488 50.729Z" fill="#FDB827"/>
<path fill-rule="evenodd" clip-rule="evenodd" d="M68.0375 49.9163C67.6651 50.0081 67.4649 50.3398 67.5296 50.6858C67.6227 51.0466 67.9661 51.2507 68.3168 51.1869C68.6815 51.0885 68.8889 50.7562 68.8181 50.4108C68.725 50.051 68.3815 49.8453 68.0375 49.9163Z" fill="#FDB827"/>
<path fill-rule="evenodd" clip-rule="evenodd" d="M64.5598 51.047C64.2375 51.1389 64.1015 51.414 64.1444 51.7319C64.1946 51.9998 64.5169 52.1845 64.7962 52.1345C65.0677 52.0498 65.2544 51.7737 65.2115 51.464C65.1184 51.1874 64.8391 50.997 64.5598 51.047Z" fill="#FDB827"/>
<path fill-rule="evenodd" clip-rule="evenodd" d="M63.6427 52.5936C63.2273 52.6855 62.9051 53.0947 62.9987 53.5397C63.0846 53.9561 63.5496 54.2741 63.9649 54.1827C64.4662 54.048 64.7025 53.5897 64.6017 53.18C64.5163 52.7339 64.101 52.5079 63.6427 52.5936Z" fill="#FDB827"/>
<path fill-rule="evenodd" clip-rule="evenodd" d="M59.3556 53.4975C58.9475 53.5393 58.7184 53.9139 58.7686 54.3165C58.9046 54.6763 59.2698 54.8595 59.5987 54.8176C60.0063 54.7258 60.2355 54.365 60.1424 54.0052C60.057 53.5893 59.7353 53.4051 59.3556 53.4975Z" fill="#FDB827"/>
<path fill-rule="evenodd" clip-rule="evenodd" d="M67.7371 51.6397C67.465 51.6897 67.2788 51.9994 67.3719 52.2255C67.4221 52.5506 67.6936 52.6848 67.9657 52.6419C68.1949 52.5929 68.3811 52.2255 68.288 51.9989C68.2383 51.7315 68.0092 51.5968 67.7371 51.6397Z" fill="#FDB827"/>
<path fill-rule="evenodd" clip-rule="evenodd" d="M66.9515 47.5082C66.6365 47.6001 66.4498 47.868 66.5004 48.1431C66.6365 48.411 66.9085 48.5957 67.1801 48.5039C67.4667 48.4538 67.6451 48.1859 67.6022 47.918C67.5598 47.6001 67.2303 47.4654 66.9515 47.5082Z" fill="#FDB827"/>
<path fill-rule="evenodd" clip-rule="evenodd" d="M58.3523 54.903C58.0657 55.0015 57.8868 55.2765 57.9799 55.546C58.0657 55.8639 58.3088 55.9976 58.5809 55.9486C58.9032 55.8639 59.0392 55.5878 58.989 55.3199C58.9461 55.0515 58.6238 54.8601 58.3523 54.903Z" fill="#FDB827"/>
<path fill-rule="evenodd" clip-rule="evenodd" d="M65.8941 42.8392C65.5796 42.8815 65.4358 43.1994 65.4865 43.4674C65.5796 43.6934 65.8512 43.92 66.0876 43.8771C66.4098 43.7434 66.5458 43.5169 66.5029 43.249C66.4522 42.9305 66.1305 42.7968 65.8941 42.8392Z" fill="#FDB827"/>
<path fill-rule="evenodd" clip-rule="evenodd" d="M71.1964 39.0749C70.96 39.2158 70.7314 39.4418 70.8173 39.7174C70.8675 40.0353 71.1468 40.169 71.4685 40.1267C71.6976 40.0772 71.9268 39.7598 71.8337 39.4842C71.7406 39.2163 71.5109 39.0326 71.1964 39.0749Z" fill="#FDB827"/>
<path fill-rule="evenodd" clip-rule="evenodd" d="M65.4318 50.0083C65.1173 50.1001 64.9306 50.4109 64.9808 50.7288C65.0666 50.9968 65.3889 51.1871 65.6609 51.1386C65.9904 51.0468 66.1259 50.7789 66.083 50.4609C66.0401 50.143 65.754 49.9654 65.4318 50.0083Z" fill="#FDB827"/>
<path fill-rule="evenodd" clip-rule="evenodd" d="M66.7706 49.1886C66.4483 49.2315 66.3128 49.5066 66.3552 49.726C66.4059 49.9653 66.6775 50.0995 66.9495 50.0511C67.2283 50.0082 67.3716 49.726 67.3287 49.5489C67.2289 49.2805 67.0002 49.1386 66.7706 49.1886Z" fill="#FDB827"/>
<path fill-rule="evenodd" clip-rule="evenodd" d="M62.0958 49.7752C61.7948 49.8461 61.6158 50.114 61.6877 50.411C61.7519 50.7152 62.0239 50.8912 62.3245 50.8208C62.6327 50.757 62.8112 50.4748 62.7465 50.1921C62.6757 49.8884 62.4036 49.7114 62.0958 49.7752Z" fill="#FDB827"/>
<path fill-rule="evenodd" clip-rule="evenodd" d="M63.644 50.0512C63.3151 50.1002 63.179 50.411 63.2287 50.6861C63.2716 50.9121 63.5509 51.1387 63.8297 51.0469C64.1447 50.955 64.2885 50.7289 64.2378 50.461C64.1453 50.1426 63.8732 50.0084 63.644 50.0512Z" fill="#FDB827"/>
<path fill-rule="evenodd" clip-rule="evenodd" d="M61.3469 52.6853C60.8886 52.7771 60.6522 53.3211 60.7381 53.7299C60.795 54.1825 61.2962 54.4505 61.7545 54.3658C62.2195 54.2739 62.5417 53.8228 62.4492 53.363C62.3561 52.9114 61.891 52.5934 61.3469 52.6853Z" fill="#FDB827"/>
<path fill-rule="evenodd" clip-rule="evenodd" d="M66.0835 44.4214C65.6185 44.5061 65.3459 44.9644 65.4317 45.417C65.5248 45.8268 65.9904 46.1514 66.4481 46.0529C66.9499 45.9115 67.2287 45.467 67.1356 45.0144C67 44.5551 66.4988 44.3301 66.0835 44.4214Z" fill="#FDB827"/>
<path fill-rule="evenodd" clip-rule="evenodd" d="M61.3448 51.1874C61.1157 51.2374 60.9294 51.4634 61.0226 51.7313C61.0655 51.9993 61.2941 52.0911 61.6164 52.0493C61.8884 51.9993 62.0245 51.7313 61.9386 51.5481C61.8889 51.2792 61.6593 51.1384 61.3448 51.1874Z" fill="#FDB827"/>
<path fill-rule="evenodd" clip-rule="evenodd" d="M64.9823 46.5963C64.7036 46.6882 64.5603 46.9643 64.6032 47.1403C64.6606 47.4654 64.9327 47.5996 65.1618 47.5567C65.4334 47.5077 65.5772 47.1832 65.5265 46.9637C65.4841 46.7377 65.212 46.5545 64.9823 46.5963Z" fill="#FDB827"/>
<path fill-rule="evenodd" clip-rule="evenodd" d="M62.584 51.597C62.405 51.6399 62.2188 51.8231 62.2622 52.0915C62.3553 52.2691 62.541 52.5079 62.8131 52.4594C62.9993 52.3181 63.1783 52.1344 63.0852 51.8665C63.0422 51.6899 62.8131 51.4633 62.584 51.597Z" fill="#FDB827"/>
<path fill-rule="evenodd" clip-rule="evenodd" d="M55.0798 55.0014C54.8083 55.0514 54.6221 55.3193 54.6722 55.5872C54.7581 55.8633 55.0374 55.997 55.266 55.948C55.5381 55.9051 55.6814 55.6372 55.6385 55.4106C55.5955 55.0927 55.3524 54.9024 55.0798 55.0014Z" fill="#FDB827"/>
<path fill-rule="evenodd" clip-rule="evenodd" d="M59.8266 52.1838C59.5473 52.2257 59.3544 52.5936 59.4475 52.8687C59.5044 53.0947 59.777 53.2713 60.0056 53.1794C60.2777 53.1366 60.4215 52.8687 60.3708 52.5936C60.3279 52.2685 60.0558 52.1343 59.8266 52.1838Z" fill="#FDB827"/>
<path fill-rule="evenodd" clip-rule="evenodd" d="M69.7571 45.0146C70.0007 45.0146 70.2728 45.2407 70.2728 45.552C70.2728 45.8271 70.0007 46.0531 69.7571 46.0531C69.4426 46.0531 69.2559 45.8271 69.2559 45.552C69.2559 45.2412 69.4421 45.0146 69.7571 45.0146Z" fill="#FDB827"/>
<path fill-rule="evenodd" clip-rule="evenodd" d="M68.6187 47.8677C68.9337 47.8677 69.1199 48.1427 69.1199 48.3688C69.1199 48.6939 68.9342 48.8699 68.6187 48.8699C68.3823 48.8699 68.1035 48.6934 68.1035 48.3688C68.103 48.1427 68.3823 47.8677 68.6187 47.8677Z" fill="#FDB827"/>
<path fill-rule="evenodd" clip-rule="evenodd" d="M74.0885 36.6733C74.3673 36.6733 74.5965 36.8499 74.5965 37.2168C74.5965 37.5348 74.3673 37.7185 74.0885 37.7185C73.7735 37.7185 73.5801 37.5348 73.5801 37.2168C73.5796 36.8499 73.773 36.6733 74.0885 36.6733Z" fill="#FDB827"/>
<path fill-rule="evenodd" clip-rule="evenodd" d="M68.0129 44.4214C68.2922 44.4214 68.5213 44.598 68.5213 44.9225C68.5213 45.1904 68.2922 45.417 68.0129 45.417C67.6979 45.417 67.4688 45.1909 67.4688 44.9225C67.4688 44.598 67.6974 44.4214 68.0129 44.4214Z" fill="#FDB827"/>
<path fill-rule="evenodd" clip-rule="evenodd" d="M66.0833 52.0913C66.6771 52.0913 67.1783 52.5935 67.1783 53.1369C67.1783 53.7299 66.6771 54.1826 66.0833 54.1826C65.4822 54.1826 65.0234 53.7299 65.0234 53.1369C65.0234 52.5935 65.4822 52.0913 66.0833 52.0913Z" fill="#FDB827"/>
<path fill-rule="evenodd" clip-rule="evenodd" d="M70.6815 40.6636C71.2397 40.6636 71.6979 41.1157 71.6979 41.7016C71.6979 42.3022 71.2397 42.7467 70.6815 42.7467C70.1374 42.7467 69.6719 42.3017 69.6719 41.7016C69.6719 41.1157 70.1374 40.6636 70.6815 40.6636Z" fill="#FDB827"/>
<path fill-rule="evenodd" clip-rule="evenodd" d="M76.4891 33.3608C77.1765 33.3608 77.6347 33.813 77.6347 34.3498C77.6347 34.9505 77.1765 35.4026 76.4891 35.4026C75.9309 35.4026 75.4727 34.9505 75.4727 34.3498C75.4727 33.813 75.9304 33.3608 76.4891 33.3608Z" fill="#FDB827"/>
<path fill-rule="evenodd" clip-rule="evenodd" d="M63.4134 47.4238C64.0579 47.4238 64.5162 47.8683 64.5162 48.4118C64.5162 49.0058 64.0579 49.4574 63.4134 49.4574C62.8553 49.4574 62.4043 49.0058 62.4043 48.4118C62.4043 47.8683 62.8553 47.4238 63.4134 47.4238Z" fill="#FDB827"/>
<path fill-rule="evenodd" clip-rule="evenodd" d="M73.9403 32.3584C73.8761 32.1252 73.6398 31.9909 73.3961 32.0476C70.8978 32.4574 68.8216 33.8276 66.5809 35.0003C66.3445 35.1273 66.1728 35.3182 66.015 35.5228C66.0223 35.4805 66.0223 35.4238 66.0223 35.3743C66.0223 35.3743 66.0295 35.261 66.0083 35.1626C65.9437 35.085 65.7937 34.8941 65.5216 34.8518C65.3214 34.9931 65.3214 34.9931 64.9847 35.2473C64.9847 35.2473 64.5336 35.629 64.3407 36.1653C64.2119 36.3562 64.14 36.4623 64.0686 36.5817C64.0614 36.5608 64.0614 36.5327 64.0474 36.5113C63.9688 36.2077 63.9688 36.2077 63.7112 35.8408C63.7112 35.8408 63.6823 35.8122 63.6605 35.7984C63.6393 35.7841 63.4386 35.6428 63.1671 35.6994C63.0166 35.8974 63.0166 35.8974 62.8231 36.2005C62.8231 36.2005 62.6157 36.7517 62.5153 37.338C62.5081 37.3452 62.5081 37.3595 62.5081 37.3732C62.4574 37.2038 62.3933 36.9706 62.2288 36.3842C62.2288 36.3842 62.2143 36.2995 62.1569 36.2286C62.0928 36.1648 62.0928 36.1648 61.9205 36.024C61.9205 36.024 61.8776 35.9745 61.8274 35.9602C61.7845 35.9321 61.5559 35.8402 61.2977 35.9602C61.2046 36.1934 61.2046 36.1934 61.0619 36.5746C61.0619 36.5746 60.9543 37.0196 60.8395 37.5916C60.811 37.4008 60.7681 37.1395 60.7107 36.7512C60.7107 36.7512 60.6967 36.6736 60.6538 36.6169C60.5964 36.5532 60.4102 36.3837 60.1381 36.3837C59.9664 36.5532 59.9664 36.5532 59.8733 36.6522C59.8733 36.6522 59.8091 36.7088 59.7734 36.7864C59.7517 36.8711 59.7517 36.8711 59.6876 37.1819C59.6876 37.1819 59.6519 37.3304 59.6089 37.5559C59.5515 36.9981 59.5231 36.8425 59.3514 35.8678C59.3514 35.8678 59.3079 35.6703 59.1362 35.5432C58.9215 35.5432 58.9215 35.5432 58.7788 35.5432C58.7788 35.5432 58.5926 35.5361 58.4275 35.6417C58.3634 35.8117 58.3634 35.8117 58.1772 36.3199C58.1772 36.3199 58.0272 37.0334 57.8694 37.9581C57.8193 36.5103 57.8048 36.4822 57.662 35.1753C57.662 35.1753 57.6548 35.013 57.5332 34.8783C57.39 34.8222 57.1608 34.7298 56.896 34.836C56.8029 35.0763 56.8029 35.0763 56.6813 35.4152C56.6813 35.4152 56.5024 36.4889 56.2448 37.8657C56.1444 35.9872 56.1444 35.9729 56.116 35.2452C56.116 35.2452 56.087 35.0544 55.9515 34.9135C55.772 34.8783 55.5361 34.8217 55.293 34.963C55.2424 35.2105 55.2423 35.2105 55.171 35.6693C55.171 35.6693 54.8492 37.4916 54.5917 39.7166C54.5772 39.4553 54.556 39.1864 54.5487 38.9256C54.5989 35.8602 54.5989 35.8601 54.5198 35.2248C54.5198 35.2248 54.4841 35.0763 54.362 34.9564C54.3548 34.9492 54.333 34.9492 54.3191 34.935C54.391 34.8574 54.4267 34.7727 54.4556 34.6737C54.3123 34.4762 54.1618 34.2782 53.897 34.2287C53.6896 34.3629 53.6896 34.3629 53.6896 34.3629C52.9665 34.8293 52.5656 35.606 52.337 36.4113C51.5208 39.2221 51.6785 42.0758 52.0861 44.8861L52.1006 44.9927C52.1146 45.1402 52.1865 45.2678 52.3225 45.3454C52.5372 45.4658 52.8092 45.3811 52.9313 45.1759L53.0384 44.9147C53.2101 42.8591 53.3679 40.7898 53.733 38.7557C53.7977 40.9664 53.9622 43.1913 54.3341 45.3729L54.3848 45.5352C54.4489 45.6975 54.5994 45.8113 54.7851 45.8251C55.0292 45.8322 55.2434 45.6418 55.2434 45.4015L55.2506 44.9779C55.2584 43.1199 55.3587 41.2414 55.5517 39.3905C55.6515 40.3723 55.7808 41.3613 55.9168 42.3432L55.9737 42.583C56.0094 42.7596 56.1455 42.8938 56.3317 42.9224C56.5675 42.9647 56.7967 42.8096 56.8396 42.5764L56.8753 42.3503C56.8463 40.9801 56.9467 39.6385 57.1256 38.2892C57.2901 39.3767 57.5193 40.4576 57.7484 41.5241L57.9988 41.8344C58.0707 41.8839 58.1565 41.891 58.2491 41.891C58.485 41.8839 58.6639 41.665 58.6572 41.4246L58.6215 40.9444C58.5786 39.9488 58.6505 38.9527 58.786 37.957C58.8931 38.699 59.0224 39.4262 59.2153 40.1606L59.3369 40.3443C59.387 40.429 59.4657 40.4928 59.5515 40.5275C59.7879 40.5984 60.0455 40.4713 60.1102 40.2453L60.2317 39.885C60.2389 39.7508 60.2457 39.6094 60.2602 39.4609C60.2958 39.6446 60.3388 39.8212 60.3817 39.9978L60.4319 40.1743C60.4608 40.2943 60.5255 40.3933 60.6253 40.4571C60.8327 40.5913 61.0981 40.5275 61.2341 40.3295L61.4348 39.9621C61.5564 39.2629 61.6138 38.5638 61.7136 37.8647C61.7922 38.2178 61.8781 38.5781 61.9929 38.9241L62.2215 39.2558C62.279 39.3476 62.3866 39.4181 62.4936 39.4466C62.7372 39.5104 62.9736 39.3619 63.0233 39.1287L63.1231 38.7261C63.1805 38.2811 63.2809 37.8432 63.3952 37.4059L63.481 37.7447C63.51 37.858 63.6026 37.9637 63.7102 38.0203L63.7816 38.0555C64.004 38.1754 64.2616 38.0907 64.3754 37.8647L64.5259 37.5891C64.7193 37.2569 64.8838 36.9037 65.07 36.572C65.07 36.5935 65.07 36.6144 65.07 36.643L65.0628 36.8124C65.0488 37.0528 65.2273 37.2574 65.4636 37.2712L65.5785 37.2783C65.6928 37.2921 65.8149 37.2431 65.908 37.165L66.1226 36.9395C66.4588 36.494 66.6735 35.9219 67.1959 35.6611C69.3156 34.5731 71.2408 33.2596 73.6103 32.8922C73.8472 32.8314 73.9899 32.5982 73.9403 32.3584Z" fill="black"/>
<path fill-rule="evenodd" clip-rule="evenodd" d="M31.5625 40.3461C31.4694 39.0892 31.3339 37.8175 31.262 36.4264C31.2046 35.4869 30.3097 35.7625 30.152 36.631C29.9156 37.9941 29.7082 39.2515 29.5504 40.5013C29.4428 39.5475 29.3502 38.6014 29.3068 37.6409L29.2783 37.175C29.2783 37.076 29.2282 36.9837 29.1635 36.9066L29.0425 36.7581C28.9923 36.7158 28.9421 36.6805 28.878 36.652C28.6561 36.5601 28.3985 36.6591 28.2982 36.8852L28.098 37.394C28.0194 37.7185 27.962 38.0436 27.919 38.3753C27.8616 38.0222 27.8047 37.6833 27.7401 37.3373L27.5895 36.9699C27.4964 36.751 27.2601 36.6448 27.0382 36.7229L26.838 36.7933C26.7304 36.8357 26.63 36.9132 26.5799 37.0337L26.3363 37.6272C26.3078 37.7471 26.2861 37.867 26.2716 37.9875C26.2576 37.8037 26.2431 37.6343 26.2359 37.4578L26.0787 37.0056C26.0569 36.9704 26.043 36.9347 26.0212 36.9066C25.878 36.7158 25.6059 36.6734 25.3985 36.8148L25.1911 36.9561C25.1264 37.0056 25.0695 37.076 25.0483 37.1398L24.8621 37.592C24.8192 37.8318 24.7835 38.0865 24.7545 38.3406C24.7261 37.8604 24.7188 37.373 24.7043 36.9L24.6185 36.5749C24.5683 36.4478 24.468 36.356 24.3536 36.3136C24.1245 36.2289 23.8597 36.3488 23.7738 36.5749L23.7454 36.6739C23.6595 36.5468 23.509 36.4621 23.3517 36.483L23.1081 36.4902C23.001 36.4973 22.8867 36.5468 22.8076 36.6316C22.8148 36.3208 22.8148 36.0028 22.8076 35.6992L22.6504 35.2542C22.6431 35.2399 22.6359 35.2119 22.6147 35.1904C22.4859 34.9858 22.2138 34.922 22.0064 35.0562L21.591 35.3741C21.4834 35.5721 21.3836 35.7696 21.2833 35.9676C21.2978 35.7416 21.319 35.5155 21.3334 35.2828L21.3691 34.8521C21.3836 34.7393 21.3552 34.626 21.2905 34.5413L21.1472 34.3647C21.0257 34.2096 20.8038 34.1458 20.6315 34.2305L20.2452 34.4352C20.1376 34.5627 20.03 34.697 19.9157 34.8307C19.9157 34.6189 19.894 34.3928 19.8158 34.1524L19.7512 33.9759V33.9687C19.6653 33.7498 19.4072 33.6294 19.1786 33.7217L18.6417 33.9407C18.5703 33.9902 18.4912 34.0468 18.427 34.1029L18.4555 33.9687C18.4845 33.8769 18.4772 33.785 18.4415 33.6932L18.3769 33.5447C18.3122 33.3895 18.155 33.2834 17.99 33.2691C17.99 33.1349 17.9113 32.9935 17.7826 32.9088L17.6181 32.817L17.525 32.746C17.4319 32.697 17.3243 32.6756 17.2172 32.697L16.5655 32.8032C15.2124 33.0012 13.8598 32.697 12.5139 32.5348C12.2708 32.4995 12.0489 32.6547 12.0127 32.9022C11.977 33.142 12.1415 33.361 12.3851 33.3895C13.5308 33.5661 14.6615 33.7427 15.8284 33.7498L16.852 33.6227C16.8091 33.6932 16.7734 33.7712 16.7305 33.8697C16.7305 33.8697 16.6875 34.0887 16.8375 34.3076C17.0594 34.3642 17.0594 34.3642 17.1241 34.3714C17.1241 34.3714 17.2244 34.3994 17.3388 34.3923C17.3672 34.3714 17.3889 34.3642 17.4246 34.3428C17.4029 34.3994 17.3889 34.4704 17.3527 34.5551C17.3025 34.6893 17.3025 34.6893 17.1525 35.3604C17.1525 35.3604 17.1381 35.4241 17.1598 35.5017C17.1888 35.5727 17.2958 35.7844 17.5534 35.8758C17.7826 35.7768 17.7826 35.7768 18.1907 35.4874C18.1907 35.4874 18.3841 35.318 18.5698 35.1414C18.7058 35.0144 18.7488 34.9792 19.0498 34.7954C19.0141 35.0144 18.9422 35.3394 18.7845 35.6359C18.6127 36.1656 18.6127 36.1656 18.3551 36.8862C18.3551 36.8862 18.3195 37.0347 18.3836 37.1832C18.4912 37.2822 18.6769 37.4373 18.9562 37.4302C19.1139 37.2603 19.1139 37.2603 19.4357 36.9357C19.4357 36.9357 19.8293 36.4346 20.1443 35.8977C20.2659 35.7706 20.345 35.6717 20.4236 35.6007C20.3946 35.8977 20.359 36.3213 20.3233 36.752C20.2659 37.5215 20.2659 37.5215 20.18 38.8142C20.18 38.8142 20.18 38.906 20.2229 38.9979C20.2659 39.0683 20.4091 39.2801 20.6879 39.3224C20.8886 39.1954 20.8886 39.1954 20.9383 39.153C20.9383 39.153 21.0241 39.0964 21.0888 39.0188C21.1172 38.9269 21.1172 38.9269 21.2533 38.5177C21.2533 38.5177 21.4105 37.79 21.7612 37.1332C21.8259 36.95 21.876 36.8153 21.9185 36.7096C21.8967 37.1475 21.8828 37.9033 21.8755 38.6728C21.754 39.8384 21.754 39.8384 21.5466 41.4555C21.5466 41.4555 21.4959 41.6954 21.6753 41.922C21.9185 41.95 22.1476 41.9853 22.384 41.8301C22.4052 41.7173 22.4124 41.6536 22.4197 41.5898C22.4341 41.526 22.4414 41.4627 22.4559 41.3428C22.4559 41.3428 22.6204 40.2976 22.7564 39.2377C22.8857 38.6657 22.9426 38.4044 23.0647 38.1217C23.0502 38.5667 23.0357 39.153 22.9716 39.7251C23.0647 40.9401 23.0647 40.9401 23.179 41.9781C23.179 41.9781 23.2079 42.1266 23.315 42.2608C23.4723 42.3175 23.7086 42.3879 23.9595 42.2608C24.0309 42.0562 24.0309 42.0348 24.153 41.4765C24.289 42.2251 24.3392 42.4369 24.5828 43.2988C24.5828 43.2988 24.6257 43.4611 24.7618 43.5815C24.934 43.6096 25.1843 43.6453 25.399 43.483C25.4492 43.2498 25.4492 43.2498 25.4419 42.6635C25.4419 42.6635 25.4993 41.3923 25.4637 40.1349C25.4854 39.9016 25.4926 39.7108 25.5138 39.5485C25.5568 40.0287 25.6142 40.587 25.6783 41.131C25.9147 42.6425 25.9147 42.6425 26.1723 44.0056C26.1723 44.0056 26.1723 44.0337 26.1795 44.0546C26.2012 44.0837 26.2726 44.3087 26.5375 44.4291C26.7382 44.3582 26.7666 44.3444 26.9668 43.8142L27.0459 43.8709L27.0169 43.68C27.0387 43.6448 27.0599 43.5953 27.0744 43.5529C27.0744 43.5529 27.0097 41.9352 26.9166 40.3109C26.9952 39.5766 27.0314 39.1668 27.0811 38.8274C27.1597 39.4209 27.2673 40.2895 27.3604 41.1443C27.5751 42.6839 27.5895 42.6982 27.8544 44.4424V44.4633H27.8616C27.8616 44.4715 27.8616 44.4781 27.8616 44.4924C27.8616 44.4924 27.8973 44.7256 28.1052 44.8803C28.3483 44.8593 28.5847 44.8313 28.7637 44.619C28.7352 44.372 28.7352 44.372 28.7497 43.9484C28.7497 43.9484 28.8211 42.1195 28.5133 40.2757C28.5351 40.1349 28.5563 40.0006 28.5702 39.8731C28.6204 40.3318 28.6633 40.8335 28.7208 41.3351C29.0001 43.1365 29.0001 43.1365 29.2649 44.6195C29.2649 44.6195 29.3223 44.818 29.4935 44.9512C29.6942 44.9512 29.9451 44.9594 30.138 44.7537C30.1453 44.5067 30.1453 44.5067 30.138 44.1679C30.138 44.1679 30.1882 41.9352 30.5316 39.7394C30.5534 39.5837 30.5746 39.4495 30.603 39.3224C30.6961 40.2757 30.8249 41.4341 30.9682 42.5997C30.7034 45.411 30.7034 45.411 30.6822 45.7498C30.6822 45.7498 30.6604 45.9759 30.8254 46.1872C31.0473 46.2229 31.2904 46.2581 31.5196 46.0953C31.5625 45.8621 31.5625 45.8621 31.6199 45.5523C31.6199 45.5523 32.4573 42.6492 32.2215 39.5204C32.1496 38.8274 31.5982 38.7427 31.5625 40.3461Z" fill="black"/>
<path fill-rule="evenodd" clip-rule="evenodd" d="M43.3674 36.8143C40.5463 37.2731 40.3244 42.4436 40.5826 46.4833C42.3934 48.2913 45.1286 48.5954 47.2043 47.5707C47.3259 42.3094 46.4316 36.3198 43.3674 36.8143Z" fill="#007AC2"/>
<path fill-rule="evenodd" clip-rule="evenodd" d="M43.2824 47.9881C42.5665 44.097 43.3471 40.2334 45.0798 40.2334C46.6119 40.2334 47.1628 43.3693 47.1628 47.4865C45.9033 48.0728 45.0581 48.3198 43.2824 47.9881Z" fill="black"/>
<path fill-rule="evenodd" clip-rule="evenodd" d="M46.7189 47.4582C46.8622 45.4451 46.4045 43.2344 45.6519 43.2344C44.8791 43.2344 44.306 45.1486 44.4638 47.818C45.115 47.8614 45.9741 47.7905 46.7189 47.4582Z" fill="white"/>
<path fill-rule="evenodd" clip-rule="evenodd" d="M41.0372 46.2716C40.7077 40.749 41.5668 37.5422 43.4563 37.2386C45.8548 36.8359 46.8784 41.7308 46.7786 47.2826C44.9031 48.073 42.562 47.727 41.0372 46.2716ZM48.6971 46.5201C48.5326 46.3359 48.26 46.315 48.0743 46.4773C47.9528 46.5901 47.809 46.6957 47.6734 46.7881C47.6947 42.776 47.1014 38.5103 45.3541 36.9635C44.7603 36.4409 44.0724 36.2429 43.3141 36.3705C40.8298 36.7726 39.7565 40.1841 40.1646 46.4982C40.1646 46.6038 40.2075 46.7033 40.2789 46.7814C42.0044 48.5119 44.5746 49.013 46.7507 48.2496C46.7507 48.3491 46.7434 48.4338 46.7434 48.5328C46.7362 48.7798 46.9152 48.9844 47.1655 48.9992C47.4091 49.0064 47.6238 48.8217 47.631 48.5828C47.6378 48.3358 47.645 48.0883 47.6595 47.8413C48.0102 47.6428 48.3536 47.4096 48.6619 47.1279C48.8471 46.9646 48.8616 46.6952 48.6971 46.5201Z" fill="black"/>
<path fill-rule="evenodd" clip-rule="evenodd" d="M38.7668 45.8551C38.9385 41.3496 38.4156 37.733 36.5618 37.4365C34.0847 37.0481 33.5049 43.7929 33.7273 48.0102L38.7668 45.8551Z" fill="#007AC2"/>
<path fill-rule="evenodd" clip-rule="evenodd" d="M35.0803 47.4863C34.6152 43.884 35.3953 40.5649 37.0204 40.5649C38.2375 40.5649 38.8386 42.549 39.032 45.4379L35.0803 47.4863Z" fill="black"/>
<path fill-rule="evenodd" clip-rule="evenodd" d="M38.3442 44.5271C38.2366 43.9551 37.8859 43.5596 37.5782 43.5596C37.0056 43.5596 36.4971 44.7037 36.3828 46.4337C37.0195 46.1586 38.337 45.5722 38.337 45.5722L38.3442 44.5271Z" fill="white"/>
<path fill-rule="evenodd" clip-rule="evenodd" d="M45.0159 58.6676C47.2783 57.375 48.6097 55.3546 48.6097 53.7451C49.6618 57.1142 48.1798 60.6731 46.4047 60.6731C45.6526 60.6731 44.6791 60.0873 45.0159 58.6676Z" fill="#ED1C2E"/>
<path fill-rule="evenodd" clip-rule="evenodd" d="M19.0451 24.4478C19.2525 23.9886 19.3813 23.1976 18.4295 22.4489C17.6775 21.8626 16.9476 21.9264 16.4821 22.2372L16.4464 22.2086C16.554 21.9121 16.6538 21.312 15.9235 20.7399C15.4652 20.3725 14.8352 20.0903 14.2414 20.4005C13.7262 21.015 13.2178 21.6437 12.7383 22.2933L17.6707 26.185C18.1073 25.5915 18.5656 25.0194 19.0451 24.4478ZM15.5945 22.5903L15.444 22.7878L14.4561 22.004L14.6066 21.8131C14.828 21.5518 15.1357 21.6437 15.4011 21.8483C15.8738 22.2229 15.6519 22.5194 15.5945 22.5903ZM16.6399 23.3461C16.7402 23.219 16.9766 22.9363 17.4773 23.3389C18.0287 23.7696 17.7566 24.0876 17.6775 24.1723L17.4918 24.4055L16.4464 23.5864L16.6399 23.3461Z" fill="white"/>
<path fill-rule="evenodd" clip-rule="evenodd" d="M20.8551 22.4132L19.366 19.1222L21.75 21.5727C22.0577 21.2905 22.38 21.0149 22.7022 20.7465L18.3211 16.2476C17.9916 16.5303 17.6627 16.8125 17.3404 17.1166L18.8151 20.3586L16.4668 17.9433C16.1658 18.2332 15.8725 18.5368 15.5859 18.8333L19.9603 23.3322C20.2468 23.0281 20.5546 22.7245 20.8551 22.4132Z" fill="white"/>
<path fill-rule="evenodd" clip-rule="evenodd" d="M23.282 20.2662C23.5111 20.0825 23.7475 19.8988 23.9911 19.7294L22.4446 17.1941L24.5347 19.3201C24.7928 19.143 25.0504 18.9598 25.3008 18.7899L23.9911 16.127L25.8806 18.423C26.1242 18.2602 26.3891 18.0979 26.6467 17.9427L26.9332 17.7453L26.9187 17.7524L26.9048 17.71L22.8532 12.9355C22.4808 13.1616 22.1083 13.4091 21.7432 13.649L23.2318 16.6925L20.8551 14.27C20.4899 14.5242 20.1392 14.7854 19.7812 15.0539L22.9815 20.478L23.282 20.2662Z" fill="white"/>
<path fill-rule="evenodd" clip-rule="evenodd" d="M26.9309 17.7447L27.2314 17.5962C27.4962 17.4477 27.7611 17.2992 28.0331 17.165L26.9092 14.4246L28.6342 16.8542C28.9207 16.7057 29.1928 16.5786 29.4788 16.4444L28.6124 13.6055L30.1088 16.1622C30.3737 16.0489 30.6385 15.9428 30.9106 15.8229L31.2613 15.6606L27.9897 10.2788C27.5888 10.4482 27.1807 10.6319 26.7798 10.8157L27.7678 14.0434L25.8064 11.2892C25.3983 11.4872 25.0191 11.6919 24.625 11.9036L26.9014 17.7095L26.9309 17.7447Z" fill="white"/>
<path fill-rule="evenodd" clip-rule="evenodd" d="M35.5034 14.3124C36.0475 14.0297 36.5415 13.4439 36.1975 12.1512C35.7615 10.4703 34.6944 10.555 33.9858 10.7244L33.7065 10.7953L33.4701 9.87013L35.1666 9.43228L34.8087 8.08301C33.8135 8.28764 32.8256 8.54178 31.8594 8.83164L33.4339 14.8702C34.1073 14.6584 34.802 14.4747 35.5034 14.3124ZM34.2935 11.9675C34.4435 11.9323 34.773 11.8614 34.938 12.4972C35.1098 13.1469 34.7875 13.2387 34.6297 13.2739L34.3722 13.3377L34.0354 12.0379L34.2935 11.9675Z" fill="white"/>
<path fill-rule="evenodd" clip-rule="evenodd" d="M38.4031 13.8675L39.2545 10.3576L39.6341 13.7333C40.0562 13.6981 40.4788 13.6629 40.8942 13.6415L40.1928 7.44727C39.7562 7.47533 39.3264 7.5034 38.8898 7.54576L38.0524 11.0067L37.68 7.67997C37.2579 7.7361 36.8426 7.79989 36.4277 7.86368L37.1291 14.0579C37.5512 13.9874 37.9805 13.9242 38.4031 13.8675Z" fill="white"/>
<path fill-rule="evenodd" clip-rule="evenodd" d="M41.5672 12.1514C41.4813 12.1514 41.338 12.13 41.2377 12.0877L41.1875 13.5849C41.2232 13.6064 41.2522 13.613 41.2806 13.6344C41.653 13.613 42.0327 13.6064 42.4046 13.6064C43.2353 13.2389 43.2927 12.0662 43.3211 11.339L43.3925 8.81757L43.9294 8.839L43.7867 13.6349C44.216 13.6492 44.638 13.6773 45.0679 13.7125L45.2613 7.4831C44.3236 7.41268 43.393 7.37695 42.448 7.37695C42.3482 7.37695 42.2479 7.3841 42.1475 7.3841L42.0477 10.7746C42.011 11.9182 41.8677 12.1652 41.5672 12.1514Z" fill="white"/>
<path fill-rule="evenodd" clip-rule="evenodd" d="M45.9325 12.3346C45.8539 12.3131 45.7106 12.2708 45.6248 12.2284L45.3672 13.7048C45.4024 13.7262 45.4313 13.7328 45.4603 13.7471C45.8327 13.7823 46.1979 13.8318 46.5625 13.8742C47.4507 13.6343 47.6725 12.4688 47.7869 11.7554L48.2162 9.26911L48.7458 9.36097L47.9374 14.0931C48.3667 14.1707 48.796 14.2554 49.2114 14.3544L50.2567 8.19541C49.2398 7.99078 48.2162 7.80706 47.1781 7.67285L46.5982 11.0277C46.4053 12.1514 46.2331 12.3769 45.9325 12.3346Z" fill="white"/>
<path fill-rule="evenodd" clip-rule="evenodd" d="M52.0966 15.089C53.292 15.1809 53.6856 14.1209 53.8294 13.6341C54.0011 13.0901 54.3518 11.7551 52.7126 11.2606L52.4473 11.1688L53.1632 8.88768C52.7556 8.76775 52.3335 8.65446 51.9104 8.54883L50.0488 14.4955C50.7435 14.6797 51.4237 14.8772 52.0966 15.089ZM52.3113 12.4691C52.5978 12.5609 52.7695 12.7094 52.5978 13.26C52.4261 13.8112 52.1825 13.8393 51.9104 13.7545L51.6668 13.677L52.0676 12.3986L52.3113 12.4691Z" fill="white"/>
<path fill-rule="evenodd" clip-rule="evenodd" d="M63.2852 13.662L58.9682 17.568L59.4053 16.7555L59.0044 16.5366L61.2591 12.3694C60.3932 11.8678 59.4984 11.3876 58.5818 10.9497L57.3001 13.3012C57.2142 13.4707 57.1072 13.6544 57.0068 13.8238C56.6629 14.3887 56.0763 15.0526 55.6392 14.7699L54.4434 16.952L55.4815 17.4327L55.933 16.606C56.5268 16.8954 57.1072 17.2067 57.6793 17.5312L57.2282 18.3508L58.2162 18.9438L58.6672 18.1033C59.0034 18.3156 59.3189 18.5197 59.6412 18.7463L60.4279 18.0043L61.3015 18.6187L60.8505 19.5934C61.165 19.8409 61.4872 20.0813 61.795 20.3354L61.9383 20.4339L64.5654 14.5653C64.1443 14.2484 63.729 13.9519 63.2852 13.662ZM57.8515 15.9365L57.0001 15.4844C57.6011 15.2935 57.9094 14.7077 58.2456 14.0856L58.9682 12.7506L59.441 12.9981L57.8515 15.9365ZM61.8824 17.5328L61.2808 17.1444L63.0493 15.3221L61.8824 17.5328Z" fill="white"/>
<path fill-rule="evenodd" clip-rule="evenodd" d="M63.0784 21.5236L64.9327 19.6099L65.7132 20.3442L63.8589 22.2513C64.1666 22.5478 64.4677 22.8585 64.761 23.1693L69.1208 18.6495C68.8203 18.3315 68.5198 18.0345 68.2048 17.738L66.5796 19.419L65.8058 18.6913L67.4237 17.0032C67.1087 16.7138 66.7798 16.4311 66.4498 16.1489L62.0977 20.6831C62.4271 20.9515 62.7561 21.2337 63.0784 21.5236Z" fill="white"/>
<path fill-rule="evenodd" clip-rule="evenodd" d="M66.0067 24.5604L67.9898 22.9993L68.6628 23.8327L66.6797 25.3937C66.9372 25.7331 67.1948 26.0791 67.4457 26.4251L72.3921 22.5334C72.1345 22.1874 71.8837 21.8486 71.6116 21.5021L69.8788 22.8723L69.2131 22.0461L70.9459 20.6759C70.6738 20.3508 70.3873 20.0262 70.1012 19.7012L65.1543 23.5928C65.4481 23.9108 65.7274 24.2353 66.0067 24.5604Z" fill="white"/>
<path fill-rule="evenodd" clip-rule="evenodd" d="M71.3137 26.5591C71.743 26.2835 71.8646 25.7115 71.5785 25.2879C71.2997 24.8638 70.7199 24.7511 70.2901 25.0195C69.8608 25.3022 69.7459 25.8743 70.0252 26.2978C70.3108 26.7214 70.8839 26.8418 71.3137 26.5591Z" fill="white"/>
<path fill-rule="evenodd" clip-rule="evenodd" d="M30.2699 12.7936C30.1127 12.3062 30.3775 11.7908 30.8637 11.6285C31.3577 11.48 31.8734 11.7413 32.0379 12.2144C32.1951 12.7017 31.9303 13.2171 31.4363 13.3799C30.9501 13.5351 30.4205 13.2738 30.2699 12.7936Z" fill="white"/>
<path fill-rule="evenodd" clip-rule="evenodd" d="M13.339 25.8743C13.1885 25.3798 13.4538 24.8567 13.9328 24.6944C14.4195 24.5316 14.9425 24.8072 15.0925 25.2879C15.257 25.789 14.9927 26.3121 14.5127 26.4744C14.0264 26.6367 13.4963 26.3611 13.339 25.8743Z" fill="white"/>
<path fill-rule="evenodd" clip-rule="evenodd" d="M54.6234 12.8008C54.8381 12.3343 55.3889 12.1368 55.8622 12.342C56.3272 12.5538 56.5351 13.0973 56.3272 13.5642C56.1048 14.023 55.5539 14.2281 55.0884 14.0092C54.6234 13.8035 54.416 13.2595 54.6234 12.8008Z" fill="white"/>
<path fill-rule="evenodd" clip-rule="evenodd" d="M79.7163 67.4253C79.3155 66.5424 78.822 65.4616 78.5851 64.395C78.3487 63.2218 78.327 62.0496 78.3058 61.004C78.2918 60.2487 78.2701 59.5777 78.163 59.0765C78.1061 58.7658 77.9836 58.4616 77.7048 58.1156C79.6232 53.5958 80.6112 48.7075 80.6112 43.6579C80.6112 41.1502 80.3536 38.6854 79.8808 36.2844C80.1891 35.7123 80.3965 35.0622 80.3965 34.2998C80.3965 33.0919 79.7163 32.0467 78.492 31.22C77.6117 28.7338 76.466 26.3328 75.0772 24.0797C75.4418 23.8042 75.7139 23.4087 75.807 22.9565C75.9358 22.4763 75.8427 21.9675 75.5634 21.5511C72.1128 16.3811 67.1943 12.0164 61.3463 8.95096C55.4616 5.86459 48.9324 4.23975 42.4896 4.23975C36.0184 4.23975 29.4964 5.86459 23.605 8.95096C17.7559 12.0164 12.8452 16.3811 9.38742 21.5511C9.11587 21.9681 9.02225 22.4763 9.15104 22.9565C9.24415 23.4087 9.51622 23.8042 9.88139 24.0797C8.49259 26.3328 7.34016 28.7129 6.45929 31.1848C5.29239 31.9758 4.57652 33.0072 4.57652 34.2855C4.57652 35.0055 4.78445 35.5848 5.09221 36.0369C4.57652 38.5231 4.32617 41.0798 4.32617 43.6579C4.32617 48.708 5.32859 53.6096 7.23258 58.1365C7.01068 58.4407 6.82447 58.878 6.78878 59.0765C6.68119 59.5777 6.66723 60.2487 6.66723 61.004C6.6243 62.0496 6.60981 63.2218 6.37343 64.395C6.13033 65.4616 5.64308 66.5419 5.23497 67.4253C4.9417 68.0749 4.69083 68.6541 4.59824 69.0986C4.46893 69.6635 4.61997 70.2361 5.0348 70.7444C5.49308 71.3026 6.24464 71.7691 7.23258 72.1646C7.30396 72.6866 7.34017 73.2173 7.36137 73.7394C7.36137 74.784 7.11775 75.8296 6.90309 76.7268C6.60981 77.9918 6.2586 78.9094 7.36137 79.9969C8.95087 81.5646 12.9528 82.5893 17.5553 82.5893C22.6382 82.5893 28.8379 81.6146 34.5933 80.498C37.1491 81.0211 39.8051 81.2895 42.4684 81.2895C45.1524 81.2895 47.7805 81.0216 50.3435 80.498C57.6884 81.9253 63.1003 82.575 67.3811 82.575C73.3589 82.575 78.3053 80.8797 78.3482 78.4215C78.3482 77.8995 78.1982 77.2356 78.0549 76.4441C77.833 75.3913 77.5967 74.2053 77.5967 73.0321C77.5967 72.7999 77.6323 72.5101 77.6898 72.185C78.6922 71.7895 79.4582 71.3021 79.9165 70.7439C80.3386 70.2356 80.4819 69.6635 80.3748 69.0981C80.2677 68.6546 80.0101 68.0754 79.7163 67.4253ZM73.0082 64.7344C71.3473 64.3736 69.4288 64.1761 67.3816 64.1761C66.315 64.1761 65.2055 64.2108 64.0526 64.3037C67.9971 60.285 70.6671 55.3262 71.8418 49.9511C72.0207 49.5913 72.1713 49.1958 72.3357 48.7927C73.5958 45.5655 74.6546 42.2316 76.0796 40.4021C77.0101 39.2085 78.2556 38.3257 79.165 37.2805C79.5374 39.3713 79.7375 41.4901 79.7375 43.6584C79.7381 51.3009 77.3753 58.6035 73.0082 64.7344ZM56.2137 62.3405C56.5215 63.2019 56.7579 64.1266 56.8866 65.1161C56.4646 65.186 56.028 65.2427 55.5909 65.3136C56.0492 64.3955 56.2856 63.3637 56.2137 62.3405ZM54.9465 58.1161C55.9561 58.4978 57.0299 58.6601 57.9677 58.6601C62.2634 58.6601 66.63 57.9186 69.9378 53.3207C68.4057 57.5578 65.8779 61.3653 62.6638 64.416C61.0748 64.5573 59.4424 64.7339 57.782 64.988C57.3951 62.2129 56.2282 59.9594 54.9465 58.1161ZM48.3107 66.0551C48.3319 65.7872 48.5895 65.5677 49.0116 65.5468C50.1433 65.4968 51.2952 64.5578 51.2171 63.1667C51.2026 62.7569 50.7656 62.0292 50.7304 61.4572C50.6875 60.659 51.5321 59.8895 52.6845 59.7267C54.002 59.5425 55.0613 60.4962 55.2977 62.1206C55.7916 65.384 52.1187 68.7735 49.4849 68.8873C48.6614 68.922 48.0604 68.6541 47.9455 68.2015C47.8954 67.9264 47.9885 67.6432 48.7545 67.1916C49.1905 66.9583 49.4626 66.7042 49.4843 66.5557C48.919 66.7047 48.2962 66.5424 48.3107 66.0551ZM79.4944 34.3003C79.4944 36.6309 77.0318 37.7327 75.3854 39.8586C74.0323 41.6172 73.1375 44.2871 71.5123 48.4681C68.5128 56.2234 63.8886 57.7916 57.9677 57.7916C56.357 57.7916 54.2523 57.2695 53.2147 55.7932C52.4626 54.7266 52.3913 53.3421 53.014 51.6607C53.0854 51.4274 52.9783 51.1733 52.7347 51.1024C52.5201 51.0105 52.2625 51.1243 52.1688 51.3575C51.1095 54.2388 52.1906 56.0611 52.6271 56.5831C53.3218 57.3956 54.0739 58.3356 54.7318 59.4016C54.1235 58.949 53.3792 58.7311 52.5552 58.8576C50.9088 59.0771 49.7424 60.2283 49.85 61.5276C49.8852 61.9792 50.029 62.3747 50.1578 62.6998C50.344 63.1662 50.4873 63.6178 50.0719 64.1052C49.7424 64.4869 49.2635 64.6635 48.9692 64.6844C48.0961 64.7201 47.4516 65.2636 47.4159 65.9979C47.4019 66.2878 47.4945 66.5562 47.6735 66.7961C45.8626 67.1558 44.1014 67.5513 42.3831 67.9126C38.7608 68.7031 34.9021 69.5155 31.1221 70.1861C31.1004 70.1861 31.1004 70.1861 31.0864 70.1652C31.1009 70.1305 31.1221 70.0942 31.1366 70.0595C31.7237 68.1448 33.0551 66.867 34.358 65.6382C34.6296 65.384 34.8877 65.137 35.124 64.8967L34.8877 66.7394L34.8163 67.2768L35.3604 67.1921C36.5128 66.9935 38.5389 66.4286 39.8563 64.9533C41.4453 66.1964 43.3141 66.867 45.2972 66.9017H45.6836L45.6976 66.521C45.7912 65.1008 45.3541 63.9633 44.8245 63.4908L44.4376 61.2372L44.3662 60.8774L44.0083 60.9121C42.2543 61.0178 40.3001 61.548 39.5843 62.3395L37.1361 61.4704C37.2075 60.9121 37.1506 60.411 37.1004 60.065C37.9239 60.2482 38.797 60.3329 39.6918 60.3329C41.4313 60.3329 43.0922 59.9584 44.5524 59.2873C44.6026 60.213 45.3541 61.0035 46.4497 61.0035C48.7188 61.0035 50.1578 56.9848 49.084 53.5034C49.0483 53.3758 48.8621 53.1926 48.6619 53.1926C48.44 53.1926 48.2036 53.3758 48.2036 53.63C48.2036 56.0101 44.8964 59.4496 39.6918 59.4496C37.043 59.4496 34.6518 58.6234 33.1487 57.147C32.8476 56.8363 32.483 56.4127 32.1535 55.8264C32.1964 55.8126 32.2466 55.7835 32.2895 55.7488C32.318 55.4737 32.3542 55.3043 32.619 55.2114C32.8482 55.1349 33.0126 55.1624 33.2635 55.4375C33.4854 55.6916 33.6504 55.8264 33.9721 55.7483L36.4063 55.4023L35.2684 54.8869L37.9244 54.3857L36.1203 53.8627L38.633 53.3825L36.4063 52.888L37.9384 52.3021L35.2466 51.5953C35.182 49.4413 35.0242 48.6442 34.0725 48.8274C33.7073 48.9121 33.2635 49.0177 32.7907 49.1734C33.7714 48.4248 35.182 47.8456 36.8428 47.1184C37.5158 46.8076 38.2317 46.5034 38.9977 46.1437C39.1482 46.0727 39.2553 46.0023 39.2553 45.7619C39.4772 40.1822 38.5968 37.2091 36.6784 36.8983C34.9244 36.609 34.0658 38.9181 33.6789 41.1997C33.6432 38.5226 34.5737 36.5385 36.1487 35.6552C36.6427 35.9588 37.2442 36.1211 37.8882 36.1777C39.5491 36.2696 41.3031 35.4715 42.7276 34.0166C45.6267 33.2041 47.2017 33.3807 47.8607 34.6095C47.5457 35.1321 47.2948 35.7113 47.1304 36.34C47.0735 36.5732 47.2023 36.8059 47.4381 36.8835C47.6745 36.933 47.9109 36.8059 47.9895 36.5727C48.7338 33.7619 51.1825 32.1937 55.098 32.7872C58.2982 33.2746 60.8394 33.0771 62.6436 32.1728C65.879 30.5694 70.139 29.8279 73.2456 30.3153C76.2798 30.7898 79.4944 32.0825 79.4944 34.3003ZM32.0883 66.6838C31.3368 67.5518 30.6855 68.5408 30.2774 69.8054V69.8263C21.9089 66.0199 15.6952 58.4407 13.8694 49.301C16.3537 54.5638 19.9186 59.1684 27.4279 59.1684C27.6643 59.1684 27.9007 59.1684 28.1226 59.1475C28.1086 59.1822 28.1086 59.2184 28.1086 59.2531C27.6855 61.5985 29.3464 65.208 32.0883 66.6838ZM36.112 63.279L35.7468 61.8526L39.6199 63.1871L39.9851 63.3285L40.1356 62.9677C40.3001 62.5579 41.7251 61.9231 43.6932 61.7455L44.0445 63.7796L44.0796 63.9628L44.2302 64.0485C44.4738 64.2098 44.8746 64.9375 44.8964 66.0678C43.1134 65.9622 41.5027 65.2983 40.0565 64.0904L39.727 63.8005L39.4767 64.1404C38.5244 65.4402 36.8997 66.0194 35.7618 66.2873L36.1125 63.4198L36.1265 63.3489L36.112 63.279ZM36.2547 61.1673L35.3242 60.8422L34.6156 60.5881L34.7946 61.3087L34.8302 61.4214C34.3223 61.4924 33.8635 61.4362 33.5133 60.9351C33.277 60.609 33.1699 60.1579 33.2413 59.8675C33.4994 58.8785 32.948 58.0814 32.1819 58.0314C31.9238 58.0314 31.6662 58.0661 31.4516 58.1728C31.7956 57.9743 32.0883 57.7564 32.3107 57.5441C32.8761 58.159 34.0435 59.1827 36.1265 59.8114C36.2547 60.3202 36.2909 60.7504 36.2547 61.1673ZM32.124 58.9148C32.3821 58.9857 32.4747 59.3103 32.3821 59.6491C32.2388 60.1921 32.4033 60.8989 32.783 61.4362C33.4414 62.3752 34.2861 62.3961 35.0309 62.2834L35.3102 63.3846C34.8665 63.9286 34.3368 64.4512 33.7352 65.0095C33.4057 65.3345 33.0551 65.6591 32.7116 66.0199C30.1699 64.7757 28.6166 61.3862 28.9817 59.4159C29.1111 58.6953 29.4183 58.0814 29.9697 58.0814C30.3136 58.1024 30.6856 58.2789 30.8076 59.148C30.8076 59.148 30.8862 59.7757 31.1009 60.2145C31.2152 59.5996 31.5804 58.752 32.124 58.9148ZM45.4829 58.7872C46.7067 58.0666 47.8597 57.0001 48.5543 55.6513C48.6614 58.0661 47.5664 60.1217 46.4497 60.1217C45.8264 60.1217 45.2967 59.7052 45.4829 58.7872ZM36.5485 37.7679C37.866 37.9659 38.5244 40.7767 38.3739 45.4588C37.701 45.763 34.8877 47.0137 34.193 47.3526C34.0285 42.8603 34.8302 37.5137 36.5485 37.7679ZM43.1848 25.1611C43.1636 24.9064 42.9484 24.7442 42.712 24.7442C42.4901 24.7656 42.3039 24.9631 42.3039 25.2172C42.3608 26.1919 41.5234 27.2513 40.2779 27.7387C38.7603 28.3531 37.1708 27.9367 36.054 26.6578C35.9465 26.5303 35.7463 26.4741 35.5601 26.5303C35.3956 26.6012 35.2885 26.7635 35.2885 26.9472C35.4173 30.1183 33.2407 31.8345 30.5568 31.8345C27.8293 31.8345 25.5808 29.5957 25.5808 26.6012C25.5808 21.5368 29.0743 18.1815 34.6513 17.8217C34.7728 17.8217 34.9016 17.7508 34.9802 17.638C36.4192 15.7101 38.5958 14.6078 40.9368 14.5726C42.9127 14.5588 44.6952 15.2931 45.7188 16.5924C45.8476 16.7547 46.084 16.8256 46.2697 16.7409C49.3193 15.3702 53.2851 17.3839 53.2851 21.4235C53.2851 23.0831 52.1901 24.9621 50.7087 25.8097C50.5654 25.9015 50.4862 26.0781 50.5075 26.2618C50.7795 27.9357 50.1211 30.6056 47.9093 31.2552C47.2007 28.4934 46.4491 25.0544 47.3078 24.4538C47.4154 24.3834 47.494 24.2558 47.494 24.1287C47.494 24.0226 47.451 23.8817 47.3652 23.7899C46.4129 22.8504 44.9884 22.6524 44.2793 22.7442C44.0434 22.7794 43.8789 23.0127 43.9007 23.2459C43.9146 23.4862 44.1722 23.6414 44.4019 23.6062C44.7883 23.5567 45.6831 23.6414 46.4134 24.1496C45.8476 25.0539 45.9914 26.7844 46.4703 29.0374C46.3772 28.9808 46.2847 28.9456 46.1771 28.9098C44.6595 28.4087 42.5977 29.3411 40.8081 30.3153C40.7506 30.3505 40.6787 30.4285 40.6431 30.4775C39.7839 31.961 38.4525 33.0204 37.028 33.3664C36.112 33.5996 35.2528 33.5287 34.6296 33.1475C34.1356 32.8224 33.4989 32.5331 32.7468 32.3356C34.3932 31.7564 35.8896 30.4775 36.1472 27.9352C37.6079 29.0936 39.3613 29.0512 40.6074 28.5496C42.2181 27.9224 43.2774 26.5098 43.1848 25.1611ZM28.2297 32.231C25.8027 32.3019 24.3927 31.7084 22.8032 31.0373C21.3431 30.4086 19.7318 29.7238 17.1404 29.4202C17.248 29.2012 17.3768 29.0032 17.5056 28.7843L19.0377 29.7238L19.2741 29.3421C20.8848 26.7997 23.0039 24.4543 25.5095 22.4911C24.9798 23.6985 24.7077 25.0687 24.7077 26.6017C24.7077 29.5044 26.4255 31.4186 28.2297 32.231ZM53.7227 19.0302C58.8051 21.3184 62.9364 25.0335 65.699 29.3421L65.9354 29.7238L67.4535 28.7843L67.5036 28.8762C67.6536 29.1094 67.783 29.3426 67.9257 29.5824C65.9503 29.9213 63.9595 30.5357 62.2417 31.3833C60.6165 32.1958 58.2041 32.3723 55.2403 31.9202C52.3695 31.4895 50.0502 32.1391 48.5688 33.693C48.5688 33.693 48.2393 32.4642 48.1535 32.1039C50.7449 31.3486 51.6252 28.4245 51.425 26.4042C53.0285 25.3591 54.1809 23.3035 54.1809 21.4251C54.1809 20.5417 54.0159 19.7507 53.7227 19.0302ZM37.2427 34.2294C38.8679 33.8339 40.3498 32.6617 41.3377 31.0373C42.8553 30.2112 44.7096 29.3635 45.8838 29.7447C46.2272 29.8509 46.5567 30.105 46.7998 30.4439C47.0005 31.2563 47.2369 32.1248 47.4733 33.022C46.1052 32.3223 44.1153 32.6969 42.3831 33.1842C42.29 33.2052 42.2186 33.2547 42.1612 33.3113C40.9012 34.6677 39.3618 35.3878 37.9373 35.2959C37.1144 35.2607 36.4409 34.9147 35.9832 34.3779C36.4197 34.4131 36.8992 34.3212 37.2427 34.2294ZM68.5485 28.8757C68.7704 29.0737 69.0207 29.2574 69.3 29.3982C69.15 29.3982 69.0068 29.4197 68.8568 29.4339C68.7492 29.2574 68.6416 29.0527 68.5485 28.8757ZM77.3039 30.55C76.2446 30.0626 74.9272 29.6886 73.3951 29.4549C73.2089 29.4197 73.0082 29.3773 72.808 29.363C72.8799 29.3278 72.9508 29.2921 73.0299 29.2354C74.6908 28.2041 75.0203 26.368 74.6551 25.0896C75.6927 26.8349 76.5736 28.6567 77.3039 30.55ZM10.1395 22.039C16.4965 12.4828 28.5948 5.10881 42.4901 5.10881C55.8273 5.10881 68.1978 12.0874 74.8201 22.039C75.0916 22.4345 75.0347 23.0841 74.4689 23.4306C74.4549 23.4306 73.2301 24.2073 73.2301 24.2073L73.4665 24.5819L73.4804 24.6028C74.218 25.7541 74.053 27.5764 72.5499 28.4945C71.1968 29.3278 69.4283 28.9109 68.5836 27.5978L68.3473 27.1952L66.2069 28.5159C63.1929 23.9537 58.6396 20.0192 52.9913 17.7876C51.4949 15.7463 48.754 14.8282 46.2122 15.8029C44.9884 14.4465 43.041 13.677 40.9146 13.6908C38.3589 13.726 35.9821 14.9196 34.3927 16.9537C31.0999 17.1869 28.4154 18.4515 26.7115 20.5274C23.4612 22.6886 20.7549 25.4647 18.7651 28.5154L16.6102 27.1947L16.3666 27.5973C15.5292 28.9109 13.7535 29.3278 12.4009 28.4939C10.9045 27.5759 10.74 25.7536 11.4916 24.5814L11.7419 24.2068L10.5031 23.4301C9.95329 23.1055 9.88191 22.4345 10.1395 22.039ZM16.4251 28.8757C16.332 29.0165 16.2389 29.1793 16.153 29.3278C16.0382 29.3278 15.9311 29.3064 15.8018 29.3064C16.0242 29.1798 16.2244 29.0384 16.4251 28.8757ZM10.304 25.1044C9.9745 26.2414 10.1747 28.1556 11.9292 29.2359C12.0011 29.2926 12.0724 29.3278 12.1438 29.3773C10.5047 29.5396 8.92966 29.9422 7.64844 30.5143C8.38552 28.643 9.25915 26.8349 10.304 25.1044ZM14.2345 30.1545C18.4868 30.1545 20.5915 31.0583 22.4603 31.835C24.3431 32.6474 26.111 33.4032 29.5476 33.0077C31.3585 32.8097 33.9147 33.149 35.1959 34.8086C35.2673 34.9004 35.3465 34.9923 35.4178 35.077C32.5688 36.9697 32.5828 41.511 32.6542 48.2206C31.8887 48.7218 31.2866 49.28 30.9002 49.9797C29.8336 50.5727 28.9745 51.3922 28.9817 52.4226C28.9817 52.9946 29.0816 53.829 29.2823 54.4858C29.5616 55.4038 30.4352 55.7355 31.1366 55.8202C31.3156 56.18 31.5157 56.5199 31.7449 56.8587C31.523 57.0919 31.2152 57.3241 30.8288 57.5226C30.6069 57.3461 30.3561 57.2185 29.9914 57.2185C29.3469 57.2185 28.8028 57.5931 28.4521 58.2289C28.1226 58.2779 27.7791 58.2988 27.4285 58.2988C18.2866 58.2988 15.3301 50.9391 12.6026 44.0529C11.0493 40.0908 9.64605 38.1414 7.43379 36.8279C6.31705 36.1783 5.47963 35.5633 5.47963 34.2855C5.47911 32.033 9.15156 30.1545 14.2345 30.1545ZM5.1998 43.6584C5.1998 41.3493 5.4217 39.0676 5.84481 36.8289C6.22395 37.1325 6.62481 37.3724 6.97602 37.5847C9.00208 38.7783 10.305 40.6144 11.7797 44.3576C12.0228 44.9725 12.2737 45.5864 12.5168 46.2156C13.1183 53.1579 16.1535 59.6353 21.2148 64.6288C23.6846 67.0436 26.4979 69.0144 29.5476 70.4336C25.5457 71.1052 21.687 71.5568 18.2727 71.6277C17.5423 70.9919 16.8265 70.3489 16.1323 69.664C9.09466 62.7003 5.1998 53.4687 5.1998 43.6584ZM6.58861 68.3296C6.58861 68.8307 6.73913 69.5518 6.8824 70.3279C6.93982 70.5959 6.98999 70.8719 7.04689 71.1404C6.45981 70.8515 6.00877 70.5474 5.72998 70.2014C5.4936 69.8972 5.40049 69.5865 5.45791 69.2823C5.52929 68.9363 5.80136 68.4 6.05895 67.785C6.45981 66.8813 6.98947 65.73 7.23309 64.5716C7.50517 63.3285 7.54086 62.0501 7.54086 61.0183C7.54086 61.0183 7.54086 60.9836 7.54086 60.9693C7.96293 61.3648 8.42121 61.6189 9.11587 61.944C9.6957 62.9896 10.3397 63.999 11.0126 64.9742C8.19931 65.7443 6.58861 66.9589 6.58861 68.3296ZM11.5785 65.7443C12.7526 67.3339 14.0695 68.8659 15.494 70.2713C15.9668 70.7449 16.4463 71.1751 16.933 71.6277C10.9769 71.5012 7.48344 69.714 7.48344 68.3433C7.48396 67.3896 9.12984 66.3802 11.5785 65.7443ZM17.5558 81.7064C13.2461 81.7064 9.40191 80.7674 7.97741 79.362C7.66965 79.0579 7.50465 78.7333 7.50465 78.422C7.50465 78.0832 7.63396 77.5392 7.76224 76.9319C7.97741 76.0282 8.25621 74.8907 8.235 73.7175C8.235 72.5106 7.99862 71.2817 7.77672 70.2708C9.60932 71.6415 13.3319 72.4896 17.5558 72.4896C24.8148 72.4896 34.2649 70.5821 42.5615 68.774C44.0217 68.449 45.5321 68.131 47.0719 67.8065C47.0362 68.005 47.0362 68.1811 47.0859 68.4005C47.2933 69.2976 48.2238 69.8268 49.52 69.7702C51.4028 69.6783 53.6502 68.2729 55.0256 66.3097C59.4279 65.5682 63.7014 65.06 67.3816 65.06C71.6913 65.06 75.5282 65.9989 76.9604 67.3901C77.2687 67.7151 77.4327 68.0188 77.4327 68.3438C77.4327 69.2828 77.2108 70.2366 77.0106 71.0837C76.8461 71.84 76.7029 72.4901 76.7029 73.0331C76.7029 74.241 76.9604 75.4842 77.1606 76.4798C75.328 75.1244 71.5987 74.262 67.3821 74.262C59.8153 74.262 49.7207 76.4236 42.3831 77.9918C35.0666 79.5595 25.0372 81.7064 17.5558 81.7064ZM42.4689 80.4286C40.6291 80.4286 38.782 80.2801 36.9711 80.0331C38.947 79.6376 40.8655 79.235 42.562 78.8599C47.9455 77.7015 54.8177 76.2256 61.0531 75.5408C55.4622 78.7114 49.098 80.4286 42.4689 80.4286ZM67.3816 81.7064C63.5948 81.7064 58.6763 81.1134 52.4988 79.9969C56.2499 78.987 59.8153 77.4126 63.1008 75.3423C64.5828 75.2157 66.0285 75.1448 67.3816 75.1448C73.0801 75.1448 77.4467 76.7834 77.4467 78.422C77.4467 80.0678 72.9513 81.7064 67.3816 81.7064ZM79.2224 70.2014C78.9508 70.5474 78.5137 70.851 77.9267 71.1404C78.1274 70.2713 78.327 69.3185 78.327 68.3438C78.327 67.7856 78.0699 67.2635 77.576 66.7762C76.8311 66.0347 75.5499 65.4264 73.9247 64.9753C74.5977 64.0006 75.2416 62.9907 75.8215 61.9593C76.5875 61.6342 77.1177 61.2387 77.411 60.9703C77.411 60.9841 77.411 61.0193 77.411 61.0193C77.4322 62.0507 77.4461 63.3504 77.7255 64.5726C77.983 65.731 78.4915 66.8818 78.8929 67.7861C79.1644 68.401 79.422 68.9373 79.4939 69.2833C79.5731 69.5865 79.48 69.8972 79.2224 70.2014Z" fill="black"/>
<path fill-rule="evenodd" clip-rule="evenodd" d="M32.4323 51.1023C32.962 51.1451 33.4058 51.2727 33.6778 51.7101C34.0073 52.2464 33.5418 52.6072 33.3913 52.6919C33.248 52.7838 32.783 52.9741 32.4608 52.4087C32.153 51.8295 31.838 51.7448 31.5375 51.6672C31.2364 51.5825 31.0507 51.5115 31.072 51.3074C31.0932 50.9466 31.8597 51.0533 32.4323 51.1023Z" fill="white"/>
<path fill-rule="evenodd" clip-rule="evenodd" d="M12.4956 78.5276C12.4956 79.0787 12.5029 79.5242 12.8101 79.983V80.0177L10.8275 79.5732V79.5385C11.1927 79.3191 11.1425 78.7542 11.1425 78.2387V74.2547C11.0132 74.1838 10.8989 74.1629 10.7774 74.1271C10.4334 74.0562 10.2265 74.12 9.93942 74.3114L9.89648 74.3461L10.183 72.9126L10.3191 72.9616L10.9274 73.153L11.5144 73.3076L12.2018 73.4632L12.8391 73.5837L13.7194 73.725L13.4691 75.1376C13.3548 74.7839 13.1329 74.6364 12.8675 74.5793C12.7315 74.5512 12.6172 74.5364 12.4956 74.5512V78.5276Z" fill="#ED1C2E"/>
<path fill-rule="evenodd" clip-rule="evenodd" d="M16.1432 73.6899C17.6747 73.7537 18.8137 74.9968 18.8137 77.1437C18.8137 79.2697 17.5397 80.4638 16.0573 80.4C14.5609 80.3291 13.3945 78.9875 13.3945 76.9176C13.394 74.834 14.6613 73.6261 16.1432 73.6899ZM15.1552 78.542C15.3627 79.0222 15.7278 79.411 16.1432 79.4248C16.5368 79.4468 16.8803 79.1916 17.1166 78.7818C17.3385 78.4011 17.3815 77.8995 17.3815 77.4264C17.3815 76.317 17.052 74.7075 16.0568 74.6646C15.1904 74.6299 14.818 75.7102 14.818 76.7196C14.8185 77.2917 14.9551 78.0475 15.1552 78.542Z" fill="#ED1C2E"/>
<path fill-rule="evenodd" clip-rule="evenodd" d="M18.7148 81.4246C19.0014 81.0709 19.2735 80.6821 19.3733 80.2305C19.0226 80.2305 18.7505 79.8635 18.7505 79.4043C18.7505 78.896 19.0728 78.5005 19.4447 78.5005C19.86 78.5005 20.1321 78.945 20.1321 79.4823C20.1321 79.9906 19.8673 80.6336 19.6309 81.0082C19.4374 81.3399 19.3728 81.4526 19.0511 81.4526L18.7148 81.4246Z" fill="#ED1C2E"/>
<path fill-rule="evenodd" clip-rule="evenodd" d="M27.275 78.1467C27.275 78.7106 27.2822 79.1423 27.5972 79.4954V79.5245L26.6383 79.672L25.6219 79.7996V79.7639C25.9798 79.4112 25.9224 78.8601 25.9224 78.3585V74.4245C25.8081 74.4107 25.6933 74.4245 25.5572 74.4454C25.2205 74.4882 25.0131 74.623 24.7338 74.9189L24.6836 74.9756L24.9846 73.3788L25.1134 73.4426L25.6648 73.386L26.5452 73.2732L27.7338 73.1038L28.4993 72.9624L28.2562 74.4816C28.1414 74.1637 27.92 74.0928 27.6547 74.128C27.5253 74.1499 27.4043 74.1708 27.275 74.2484V78.1467Z" fill="#ED1C2E"/>
<path fill-rule="evenodd" clip-rule="evenodd" d="M31.1579 72.3903C32.6972 72.1152 33.8207 73.1037 33.8207 75.2577C33.8207 77.3837 32.5607 78.8457 31.0643 79.1208C29.5679 79.3831 28.4082 78.2874 28.4082 76.2253C28.4087 74.1493 29.6687 72.6526 31.1579 72.3903ZM30.1699 77.4612C30.3701 77.8919 30.7425 78.1956 31.1579 78.1252C31.5448 78.0542 31.9022 77.7307 32.1313 77.2709C32.3465 76.8402 32.4034 76.3309 32.4034 75.8517C32.4034 74.7351 32.0739 73.2027 31.0648 73.3859C30.2056 73.5344 29.8265 74.7076 29.8265 75.7104C29.8265 76.2753 29.9625 77.0101 30.1699 77.4612Z" fill="#ED1C2E"/>
<path fill-rule="evenodd" clip-rule="evenodd" d="M37.8091 76.2754C37.8091 76.8265 37.8163 77.2643 38.1313 77.5889V77.6236L36.1487 78.0334V77.9987C36.4994 77.6241 36.4565 77.0806 36.4565 76.5713V72.6373C36.3277 72.6302 36.2201 72.6521 36.0913 72.6802C35.7551 72.7511 35.5404 72.8915 35.2611 73.2104L35.2109 73.2732L35.4975 71.7055H35.6335L39.0272 71.0059L38.7768 72.5317C38.6692 72.2276 38.4401 72.1719 38.1825 72.2275C38.0465 72.2566 37.9249 72.2913 37.8101 72.3623V76.2754H37.8091Z" fill="#ED1C2E"/>
<path fill-rule="evenodd" clip-rule="evenodd" d="M40.7144 76.092C41.2798 75.9435 41.466 75.3577 41.466 74.6575C41.466 74.0079 41.2079 73.5481 40.7501 73.3858C40.8432 73.3511 40.9291 73.3368 41.0149 73.3159C41.9315 73.1174 42.7974 73.4634 42.7974 74.8479C42.7974 75.5194 42.547 76.1339 42.1099 76.5294C41.7448 76.8544 41.2151 76.9529 40.807 77.0376L39.0742 77.4193V77.3903C39.4322 77.0167 39.3892 76.4651 39.3892 75.9568V72.3269C39.3892 71.8176 39.4322 71.2527 39.0742 71.0272V70.9914L41.0356 70.5679V70.5959C40.7134 71.0552 40.7134 71.4931 40.7134 72.0514V76.092H40.7144Z" fill="#ED1C2E"/>
<path fill-rule="evenodd" clip-rule="evenodd" d="M44.5632 74.8477C44.5632 75.357 44.5063 75.9143 44.8643 76.1403V76.1694L42.9023 76.6001V76.571C43.2603 76.1832 43.2173 75.653 43.2173 75.1447V71.5077C43.2173 70.9913 43.2603 70.4192 42.9023 70.1931V70.1722L44.8643 69.7349V69.7696C44.5063 70.1513 44.5632 70.7024 44.5632 71.2041V74.8477Z" fill="#ED1C2E"/>
<path fill-rule="evenodd" clip-rule="evenodd" d="M51.1173 69.0146L49.8573 71.6708L50.7878 73.5345C51.017 73.9872 51.2606 74.4954 51.6113 74.7843V74.8062V74.8133L49.8573 75.145V75.1241L48.812 72.8568L48.2109 74.2275C48.139 74.4179 48.0464 74.6164 48.0464 74.8343C48.0464 75.0813 48.1183 75.3288 48.2683 75.4344V75.4701L46.6504 75.809V75.7809L48.3832 72.0791L47.4744 70.1583C47.3094 69.7985 47.1594 69.5224 46.8868 69.3458V69.3249L47.8747 69.1136L48.8125 69.4943L49.443 70.8717L49.8082 70.0455C49.9013 69.847 50.0228 69.5581 50.0513 69.3249L51.1173 69.0146Z" fill="#ED1C2E"/>
<path fill-rule="evenodd" clip-rule="evenodd" d="M53.8053 67.8421C55.3374 67.5731 56.4613 68.5626 56.4613 70.7095C56.4613 72.8493 55.2013 74.3118 53.7127 74.5726C52.2163 74.8339 51.0566 73.7392 51.0566 71.6842C51.0561 69.6001 52.3234 68.1033 53.8053 67.8421ZM52.8173 72.913C53.018 73.3437 53.3832 73.6474 53.8053 73.577C54.1989 73.506 54.5429 73.1815 54.7787 72.7217C55.0012 72.2981 55.0441 71.7827 55.0441 71.3025C55.0441 70.1931 54.7146 68.6611 53.7127 68.8377C52.8536 68.9862 52.4672 70.1584 52.4672 71.1678C52.4667 71.7261 52.6167 72.4609 52.8173 72.913Z" fill="#ED1C2E"/>
<path fill-rule="evenodd" clip-rule="evenodd" d="M62.9056 72.101C63.1492 72.2066 63.4135 72.1995 63.6716 72.1785C64.087 72.1428 64.4661 72.03 64.7387 71.5565L64.7816 71.5493L64.4878 73.0542L62.9128 73.1599L61.252 73.3155V73.2864C61.6099 72.9547 61.553 72.4184 61.553 71.902V68.2649C61.553 67.7638 61.6099 67.1912 61.252 66.9305V66.9014L62.7483 66.761L63.8082 66.6835C63.923 66.6697 64.0368 66.6268 64.1087 66.5278H64.1377V68.0251H64.1087C63.923 67.5806 63.5004 67.6653 63.1425 67.6934L62.9061 67.7072V69.2968L63.5935 69.2402C63.6934 69.233 63.7937 69.2121 63.8584 69.1692L63.894 69.1621V70.5328H63.8584C63.7585 70.1511 63.4146 70.2148 63.1497 70.2429L62.9061 70.2567L62.9056 72.101Z" fill="#ED1C2E"/>
<path fill-rule="evenodd" clip-rule="evenodd" d="M72.9001 72.5816C73.4799 72.6525 73.6589 72.1361 73.6589 71.4441C73.6589 70.7802 73.4085 70.2219 72.9502 69.8902C73.0433 69.8831 73.122 69.8974 73.2156 69.9183C74.1316 70.0806 75.0053 70.7736 75.0053 72.1647C75.0053 72.8286 74.7616 73.344 74.3106 73.5629C73.9454 73.7395 73.4158 73.6339 73.0071 73.5629L72.1914 73.3853L71.2754 73.2379V73.2098C71.6333 72.9618 71.5904 72.3964 71.5904 71.8881V68.2791C71.5904 67.7709 71.6333 67.2197 71.2754 66.8528V66.8237L72.1987 66.9794L73.2295 67.1779V67.206C72.9145 67.5377 72.9001 67.9755 72.9001 68.5267V72.5816Z" fill="#ED1C2E"/>
<path fill-rule="evenodd" clip-rule="evenodd" d="M71.0802 66.8179V66.7898L70.0421 66.6913L69.1188 66.5995V66.6275C69.4767 66.9317 69.4265 67.4818 69.4265 67.9982C69.4265 67.9982 69.4265 71.9185 69.4265 72.0516L68.5819 72.0027C68.5819 71.8751 68.5891 67.9758 68.5891 67.9758C68.5891 67.4746 68.5322 66.9164 68.8896 66.6061V66.5841L67.3581 66.5352H66.9282V66.5632C67.2795 66.8674 67.2365 67.4323 67.2365 67.9339C67.2365 67.9339 67.2365 71.8399 67.2365 71.9736L66.3846 71.9955C66.3846 71.8542 66.3986 67.9548 66.3986 67.9548C66.3986 67.4394 66.3417 66.8811 66.6996 66.5841V66.5561L64.7305 66.6199V66.6408C65.0884 66.9449 65.0455 67.5027 65.0455 68.0181V71.6551C65.0455 72.1644 65.0884 72.7156 64.7305 73.0115V73.0396L66.0696 72.983L67.3581 72.962L68.9833 73.0121L70.1791 73.1039L71.0807 73.2177V73.182C70.73 72.885 70.7802 72.3349 70.7802 71.8322V68.1881C70.7797 67.6732 70.73 67.122 71.0802 66.8179Z" fill="#ED1C2E"/>
<path fill-rule="evenodd" clip-rule="evenodd" d="M60.9516 66.9657V66.9448L58.9902 67.178L58.983 67.1852V67.2132C59.2763 67.4036 59.2975 68.0257 59.2975 68.5411V68.8881C59.2975 69.5092 59.1185 70.2159 58.5816 70.2864C58.3959 70.3144 58.2164 70.2364 58.1094 70.0531C57.9299 69.7561 57.9516 69.3754 57.9516 69.0004V68.7182C57.9516 68.216 57.8942 67.6654 58.2521 67.3117V67.2837L56.3047 67.5807V67.6087C56.6699 67.8629 56.6197 68.4278 56.6197 68.9366V69.5934C56.6197 70.1863 56.6337 70.667 56.9631 71.0697C57.2497 71.4233 57.6288 71.529 58.023 71.4795C58.5594 71.4085 59.1035 70.9712 59.297 70.4058V72.1791C59.297 72.6874 59.3404 73.2247 58.9825 73.5774V73.6054L60.9511 73.3722V73.3442C60.5932 73.09 60.6361 72.5251 60.6361 72.0163V68.3865C60.6366 67.87 60.5937 67.3184 60.9516 66.9657Z" fill="#ED1C2E"/>
<path fill-rule="evenodd" clip-rule="evenodd" d="M24.6618 73.5412V73.5132L22.7143 73.7035H22.7071V73.7326C23.065 74.0005 23.0076 74.5726 23.0076 75.0742V75.3712C23.0076 75.9851 22.8431 76.6781 22.3062 76.7266C22.12 76.7414 21.941 76.6557 21.8267 76.4725C21.6478 76.1694 21.6622 75.7877 21.6622 75.4059V75.2084C21.6622 74.7073 21.6121 74.149 21.9767 73.8102V73.7882L20.0293 73.9087V73.9367C20.3872 74.2128 20.3303 74.7701 20.3303 75.2865V75.9433C20.3303 76.5363 20.3588 77.017 20.6738 77.4263C20.9603 77.7998 21.354 77.9274 21.7476 77.8845C22.2772 77.8427 22.7712 77.461 23.0076 76.8746V78.7184C23.0076 79.2195 23.065 79.7701 22.7071 80.11V80.1309L24.6612 79.9258V79.8977C24.3033 79.6298 24.3607 79.0715 24.3607 78.5561V74.939C24.3612 74.4312 24.3038 73.873 24.6618 73.5412Z" fill="#ED1C2E"/>
<path fill-rule="evenodd" clip-rule="evenodd" d="M18.8426 72.2067C18.7423 72.1291 18.6492 72.0444 18.5488 71.9663L18.8426 72.2067Z" fill="#ED1C2E"/>
</g>
<defs>
<clipPath id="clip0_1115_1935">
<rect width="85" height="87" fill="white"/>
</clipPath>
</defs>
</svg>
